/* XPM */
static char *_483777083654[] = {
/* columns rows colors chars-per-pixel */
"90 90 89 1 ",
"  c #D5EAC5",
". c #DBEEC5",
"X c #D6EBCB",
"o c #DCEDCD",
"O c #DDF0C5",
"+ c #DFF0CC",
"@ c #D6E9D5",
"# c #DCEDD1",
"$ c #D3E6DD",
"% c #D7E9DB",
"& c #DCECDB",
"* c #DFF0D0",
"= c #E1EDCC",
"- c #EEECCD",
"; c #FDE6C6",
": c #F5E6CB",
"> c #F8E6CA",
", c #FFEACE",
"< c #E5F5C5",
"1 c #E8F7C4",
"2 c #EAF8C3",
"3 c #E3F3CA",
"4 c #EAF9CD",
"5 c #E2EED3",
"6 c #EBE9D5",
"7 c #ECE7D8",
"8 c #F5E7D5",
"9 c #F2E8D5",
"0 c #FFE8D0",
"q c #E3F2D1",
"w c #E8F7D1",
"e c #E9F8D3",
"r c #E5F2DC",
"t c #EAF5DD",
"y c #EEF9DA",
"u c #F1F1DF",
"i c #C5DCE6",
"p c #C8DEE7",
"a c #C6DEEA",
"s c #CADFE9",
"d c #C6DEF0",
"f c #CADFF0",
"g c #CDE1E3",
"h c #CCE1EA",
"j c #D1E2E5",
"k c #D2E5EE",
"l c #DDE4EA",
"z c #D7EAEB",
"x c #DCECED",
"c c #CEE3F3",
"v c #D3E7F0",
"b c #D5E9F3",
"n c #DAECF5",
"m c #D4E7F9",
"M c #D5E9F8",
"N c #DEEFF9",
"B c #DFF0F7",
"V c #E3EBE3",
"C c #E2E6EB",
"Z c #E5E9EC",
"A c #ECECEC",
"S c #F0EDED",
"D c #E7F3E1",
"F c #EBF5E3",
"G c #ECFBE1",
"H c #EBF6E8",
"J c #EFFEEA",
"K c #F1F9E3",
"L c #F5F2EA",
"P c #FDF5EB",
"I c #F1FDE9",
"U c #FFF8EB",
"Y c #E6E7F3",
"T c #E2EDF4",
"R c #EBEEF1",
"E c #EDEEF9",
"W c #E2F0F6",
"Q c #EAF2F6",
"! c #E5F3F9",
"~ c #EDF5F9",
"^ c #F2F2F2",
"/ c #FCF6F2",
"( c #F6FAF2",
") c #FBFBF5",
"_ c #F5F6F8",
"` c #F8F7FF",
"' c #F7F9FA",
"] c #FFFFFF",
"[ c None",
/* pixels */
"[[[[[[[[[[[[[[[[[[[[[[[[[[[[[[[[[[[[[[[[[[[[[[[[[[[[[[[[[[[[[[[[[[[[[[[[[[[[[[[[[[[[[[[[[[",
"[[[[[[[[[[[[[[[[[[[[[[[[[[[[[[[[[[[[[[[[[[[[[[[[[[[[[[[[[[[[[[[[[[[[[[[[[[[[[[[[[[[[[[[[[[",
"[[[[[[[[[[nnvvvhT]]]]]]]]]]]]]]]]]]]]]]]]]]]]]]]]]]]]]]]]]'bkvvvnB[[[[[[[[[[[[[[[[[[[[[[[[",
"[[[[[[[[!MMBbkMhT]]]]]]]]]]]]]]]]]]]]]]]]]]]]]]]]]]]]]]]]]]vhkkbBnnM![[[[[[[[[[[[[[[[[[[[[",
"[[[[[[[!MnM!bkvhn]]]]]'bkbMbzbvh~]]]]]]]]]]]]]]]]]]]]]]]]]'vvvkbBNNMMn[[[[[[[[[[[[[[[[[[[[",
"[[[[[[[nMMnBxhchT]]]]]]hhhhhhhcaQ]]]]]]]]]]]]]]]]]]]]]]]]]]khvkkBMMNMbb![[[[[[[[[[[[[[[[[[",
"[[[[[[[MnbnBbckhT]]]]]'bhkkkvkhh~]]]]]]]]]]]]]]]]]]]]]]]]]'bhkhvBnMnnnMM~[[[[[[[[[[[[[[[[[",
"[[[[[[[MbnnWbhhhn]]]]]'vckhkkkkhQ]]]]]]]]]]]]]]]]]]]]]]]]]'kvkhvNnnnnnnbM[[[[[[[[[[[[[[[[[",
"[[[[[[[MnnM!bkkhn]]]]]'khkvhhvhh~]]]]]]]]]]]]]]]]]]]]]]]]]'bhhhbBnnnnMMnnM[[[[[[[[[[[[[[[[",
"[[[[[[[nMMMBbhhhn]]]]]'khhkvvhhsQ]]]]]]]]]]]]]]]]]]]]]]]]]'khkhkBMnMMnnnnvM[[[[[[[[[[[[[[[",
"[[[[[[[nnnMBvhhaZ]]]]]'khhhhhhhhQ]]]]]]]]]]]]]]]]]]]]]]]]]'hhhhkBnnnnnnnnMMM[[[[[[[[[[[[[[",
"[[[[[[[bbnbBkhhhn]]]]]'khkvhvhhsQ]]]]]]]]]]]]]]]]]]]]]]]]]]khhhzBnnbnMMbnnnvB[[[[[[[[[[[[[",
"[[[[[[[bnbbBzhhix]]]]]'hhhhhjhhsQ]]]]]]]]]]]]]]]]]]]]]]]]]]hhhhhBnMMnbnnMnMbvn[[[[[[[[[[[[",
"[[[[[[[nbnMBkhhin]]]]]'hghhhhhhiQ]]]]]]]]]]]]]]]]]]]]]]]]]'hhhhkBnbnnbMbbbnnnbB[[[[[[[[[[[",
"[[[[[[[bbnbBvihix]]]]]'hghhhkshiQ]]]]]]]]]]]]]]]]]]]]]]]]]]hphhhBbMbbbbMbnbbbbv![[[[[[[[[[",
"[[[[[[[MbbbBhghin]]]]]'hhhhhshsiQ]]]]]]]]]]]]]]]]]]]]]]]]]]hphhhBnbnbnnbnbbnbbMc[[[[[[[[[[",
"[[[[[[[nbbbBkpsil]]]]]'hphshhssiQ]]]]]]]]]]]]]]]]]]]]]]]]]]sssskBMMbbbbnbnvnbbbvM[[[[[[[[[",
"[[[[[[[bMbbWkpsix]]]]]'sisspssiiQ]]]]]]]]]]]]]]]]]]]]]]]]]'sisasBMMMMnMMMMMMMbbncQ[[[[[[[[",
"[[[[[[[bbbvBkpsix]]]]]]shhhshhspQ]]]]]]]]]]]]]]]]]]]]]]]]]IjgjpjxzzzzzzzzzzznMbvvn[[[[[[[[",
"[[[[[[[bbbbBkphin]]]]]]''''')'''']]]]]]]]]]]]]]]]]]]]]]]y<ww4wwwwww4wwwweee<3bMnbv[[[[[[[[",
"[[[[[[[vbbbBkphiz]]]]]]]]]]]]]]]]]]]]]]]]]]]]]]]]]]]]]]I<GIIKIIIJJJIJJJJJJJJ23MvbvB[[[[[[[",
"[[[[[[[bbbvBkphsiQ]]]]]]]]]]]]]]]]]]]]]]]]]]]]]]]]]]]]]uwG<33443w3<33<3<3<3yy3bMbvn[[[[[[[",
"[[[[[[[bbbMTkphsisQ]]]]]]]]]]]]]]]]]]]]]]]]]]]]]]]]]]]]K3<<<<1<<<13<1311<<<<4qbvbbb[[[[[[[",
"[[[[[[[vvbvTjpshssihlkzzzlkkzzlkkkzzlkzlkkzzzlklzzklzzv&1<43333<w<<w<<43<w311qbMbbb[[[[[[[",
"[[[[[[[bbvbBkghsshsspiiiipiiiiipppiiiiiipiipiiiiiiiiiaa@2<w<<<<33343133343431+vMzvb[[[[[[[",
"[[[[[[[vvbvBhghhssjshhsjsshhsksjssjsshhhhhsjsshshhphsha@1w<33w<w+4133331<<<31+bMvMb[[[[[[[",
"[[[[[[[vvvvBbihhjsssshsssssshsssssjssshssssshsjsshhhshh%1<3<3<<3<33+43343<4<1*vvbvb[[[[[[[",
"[[[[[[[vbvvB!higppssppsigppsppppsspppisspssispppppihiia%2<w<w<w<<1441313433<1*Mvvbk[[[[[[[",
"[[[[[[[bvbvvB!bzkkvzkkzklkzvkkzkkkkzlkkkzkkzkzkzkkkkkkv&1343<<3w<4+3<133<343<qbvbbb[[[[[[[",
"[[[[[[[vbkvvb!!!!Q!Q!!!QQQ!!!E!!Q!!QQ!!Q!Q!!!!!!Q!!Q!!!D<<<3<3<<<<<<+43<+3<11qvbkkb[[[[[[[",
"[[[[[[[vvvbbvvzbbvbvbbbbbbvvbvbbMbbbvvbbbbbbbbbbbbxbbbM&<<<3w33334<<334+<+3<<qvvbkv[[[[[[[",
"[[[[[[[vvvvvbvvvzvvvvvkvvvvvvvvkkkvvvvvzvkkvvkkvkvvkvvm&133<<3<333+<4333<433<*vvzbv[[[[[[[",
"[[[[[[[vvvvvvMvvvvvvvvvvvvvvvvvvvvvbvvvbvvvvvvvvvbvvvbc&131331+33134<334<333<3vvvvv[[[[[[[",
"[[[[[[[vvbvvvvvvbvvvzvvvbbkbvvbkbvvvvvvvvvvbvvvvvvvvvvc&<43343333333333333<4<qvbvbv[[[[[[[",
"[[[[[[[vvvvvvvkzvvvvvvkvvvbkvbvbvkbvvvvvvvkbbvvvvvvbvvc&<343434133333331<433<qvvvvv[[[[[[[",
"[[[[[[[vvvvvvvvvvvvvvvvvvvkbkkvvvvkvzvvkvvzkvvvvvvvvvvM&<O33133+<43334333333<5vvvvv[[[[[[[",
"[[[[[[[kvvvvvkbbvvvvvvkvvvvvkvvkbvvvvvvvvvbbvvvvvvvvvvM&1333+3333334333333331qvvkvv[[[[[[[",
"[[[[[[[kvvkzvvkvvvvvvvvvvvvvvvvvkkvvvvvvkvkkvvkvvvvvvvc&1333+33333333333333333vvvvv[[[[[[[",
"[[[[[[[kkvvvbkvvvvvvvvvvvvkvvvvvvkvvvvvvvvvvkvvvvvvvkvc&1333+<3333333333333315kvvvv[[[[[[[",
"[[[[[[[kkvvkkkkvkkzvkvvzkkvkkvkkvkkkkvkkvkkkvkkvvzkvkvc&<3+<<433333333333333<qvvkkv[[[[[[[",
"[[[[[[[kvvkkkkvkvvvvkvvvvkvvkkkvkkvkkvkkkvkkkvkkvkkvvvc&1+<3+333+3333+333333<5vvvvk[[[[[[[",
"[[[[[[[hvhvhkkkkkkkkkkkkkkkkhvkvvkvkvkkvvkkvkvvkkvkvvcm&<<+333<+3333+<3333=3<#kckkv[[[[[[[",
"[[[[[[[vkvkvvkkvkkkkckkkkvkvvvkkkkkvvkkvvkvkkkvkkvvvkkc&<<+3+3+333+333333333<#vvvkk[[[[[[[",
"[[[[[[[hkkkkkkkkkkkkvkkkkkkkvkkkkkkkkkkhkkkkkkkkkkhvkkc&<+333333+<3333O33O3333kvkkk[[[[[[[",
"[[[[[[[vvvkkvvhvkvkkvkkkhvkkkkhkkvvhvvkvkkkkhkkkkkkkkkc%1+++3+3+3+3+3+33333+<*vckkk[[[[[[[",
"[[[[[[[hhkhvkhvvkchkhvvhkckkkkkkkhvhkhvhvhcvkkvhhvhkkkc%1+<<+3333++<33+O3O+33*hvkkk[[[[[[[",
"[[[[[[[vvkvhkhhckkhkkhkkchhchvhkkchvkchckhchkchchhvkkhc&O<++<++3+33+O3+33+333+vvkkk[[[[[[[",
"[[[[[[[hhkkkkvhaahhdhhhhhhhhhhhhhhhhhhhhhhhhhhhhhhhhdhc%1+<+++<+3+33+333+33O3qhhhvk[[[[[[[",
"[[[[[[[vhkvhhhB~~~~~~~~~~~~~~~~~~~~~~~~~~~~~~~~~!~~~~_~DO3+3+33++33+3+3+3+333ohcckv[[[[[[[",
"[[[[[[[hhvhvh']']]]]]]]]]]]]]]]]]]]]]]]]]]]]]]]]]]]]]]]K.33+3++33++3333++33+3#kvkhc[[[[[[[",
"[[[[[[[hkvhhQ]]]]]]]]]]]]]]]]]]]]]]]]]]]]]]]Iqqqqqqqqqq33333+33+33o3*33333+33+##o5#3333r[[",
"[[[[[[[vvhhh']]]]]]]]]]]]]]]]]]]]]]]]]]]]]]]t OO3OOOOOOo3oo3++3+++33++++++++333333333oOO[[",
"[[[[[[[hhkhc']]]]]]]]]]]]]]]]]]]]]]]]]]]]]]]]..33++3++3++3+333++++3++3+++++++33+Oo33+O.[[[",
"[[[[[[[vkkhh']]]]]]]]]]]]]]]]]]]]]]]]]]]]]]]]IO=3+*33+o33#3o++3+3+++=o33+33+++o3O33o=.t[[[",
"[[[[[[[hhvhv']]]]]'^________________^________`rOo+++o+++oo+3++#+++++++++++++++*+3o#3.3[[[[",
"[[[[[[[hvhhh']]]]]_lCCCCCClCCClCClCCCClCClCClCCOO=++++++o3+++++++++++++o*+++++++o3oo.[[[[[",
"[[[[[[[hhhhh']]]]])RRRRRRRRRRRRRARRRRRRRRRRRRREAOoo+o++o3o3o=3o=++o3o=o3o+oo=O=o=+=.t[[[[[",
"[[[[[[[hhvhk']]]]]]]]]]]]]]]]]]]]]]]]]]]]]]]]]]]t 3+Oo++ooooOoo+oO+oo+++++=3+o+3+o.w[[[[[[",
"[[[[[[[hhhhh']]]]]]]]]]]]]]]]]]]]]]]]]]]]]]]]]]]]q.#+o+o3o=3o3+++oo++3o=+ooo+o+o+o.[[[[[[[",
"[[[[[[[hhvhh']]]]]]]]]]]]]]]]]]]]]]]]]]]]]]]]]]]]).+=o+ooooooooo+ooooooo=o3oooooo3%[[[[[[[",
"[[[[[[[hhkhh']]]]]]]]]]]]]]]]]]]]]]]]]]]]]]]]]]]]]I.+o+oooooooo=+oo+oooo+oo+oooo=#c[[[[[[[",
"[[[[[[[hhhhh']]]]]])'''))''''''''''))'''')'''')')']5 ooooo+oooo+oooooo+ooooo+oo3okh[[[[[[[",
"[[[[[[[hhhhh']]]]]_CZZZYZZZZZZZZZZZYZZZZZYZZZZZZZZYZ++oo+oo++ooooooo+o+oo+ooooo3%ch[[[[[[[",
"[[[[[[[hhhhh']]]]]'ZZYZZYZZYZZYZZYZZYZZYZZYZZYYZZYZYV o+o#oooo#+*oo+#oooo#o+o#O@ssh[[[[[[[",
"[[[[[[[hhksj)]]]]]]'']]']'']]']'']]']'']]']'']]']'']]r oooooooooo#ooXoo#ooXo#=okssh[[[[[[[",
"[[[[[[[hhhss']]]]]]]]]]]]]]]]]]]]]]]]]]]]]]]]]]]]]]]]]#.oo#o#ooooo#o#ooo#o#oo.jfskk[[[[[[[",
"[[[[[[[hkssj']]]]]]]]]]]]]]]]]]]]]]]]]]]]]]]]]]]]]]]]](XooooooXoooooooooooo#.rmssks[[[[[[[",
"[[[[[[[hsjss']]]]]]]]]]]]]]]]]]]]]]]]]]]]]]]]]]]]]]]]]]F #o#o####o#oX#o#o#o 5]kshhh[[[[[[[",
"[[[[[[[hhhps']]]]]]]']]']]']]]])]']]]]]]]]]']]]]]]]]]]]]qXX###o#######X##oXX)]kphjs[[[[[[[",
"[[[[[[[shhsh']]]]])ZAYRZZYRZZRAYAYRZZYZZZZAYYAZYZYZZZRZYZ.oXXX###oX##oX##X F]]jihsk[[[[[[[",
"[[[[[[[shhsh']]]]]_lZCCCZCCYCCCZCCCZZZCZZCCZCCCZZZCZCCZZYl X###XX##X#X##o #]]]kpkjs[[[[[[[",
"[[[[[[[sshsh']]]]]]_''''_))'''_'`)__)_'')`'_'')')_''`)_'`'7 ###X###X##X#XX]]]]kpsss[[[[[[[",
"[[[[[[[phsss']]]]]]]]]]]]]]]]]]]]]]]]]]]]]]]]]]]]]]]]]]]]]]X #@#X#X##X#X H]]]]kisjk[[[[[[[",
"[[[[[[[hshss']]]]]]]]]]]]]]]]]]]]]]]]]]]]]]]]]]]]]]]]]]]]]]L @Xo##=X#X# 7']]]]kisss[[[[[[[",
"[[[[[[[pjpss']]]]]]]]]]]]]]]]]]]]]]]]]]]]]]]]]]]]]]]]]]]]]]]H #X=X@###o@]]]]]]kihss[[[[[[[",
"[[[[[[[sshssLUPPPPPPPPPPPPPPPPPPPPPPPPPPPPPPPPPPPPPPPPPPPPP/P#Xo@@=XX# u/PPPPPkssjh[[[[[[[",
"[[[[[[[pssss:;>>>>>>>:>>>>::>>>>>:>>>>::>>>>>>>>>>:>>>:>>>::,9X@=@=@@ 50>>>>;:jashh[[[[[[[",
"[[[[[[[psjss8,,,,,,,,,,,,,,0,,,,,,,,,,,0,,,,,,,,,,,0,,,,,,,,,,-o=X#XX=,0,,,,,,jshsh[[[[[[[",
"[[[[[[[pssss788999999997999999999997999999998988999999799999989oX###X988999799hpsik[[[[[[[",
"[[[[[[[nissjsshpssssssssshhassssssssshhasssssppssssshshssssspsshX#@.$fishssshsphsi[[[[[[[[",
"[[[[[[[[kipsssshsssspisssssssssssspsssphpsspssspssssssspsssssssi$.=Xspppgiihsshpin[[[[[[[[",
"[[[[[[[[[lkhssshssssjssshssssssgssssssspssshppssssssssspssshssssi$@sshhhshhhhsphZ[[[[[[[[[",
"[[[[[[_L^/HYZZAZZZZZVZZZZVZCZVZCZVZZZVCVC7ZCVZZZCCVVZZZZCVVVZZZZZYZZZZZZZZAZZZA^/(^_[[[[[[",
"[[[[_^AASZASSAASSAAAAAAASASASAASAAAAASAAASAAAAASSSAAAAAASSAAASAAAAAAAAAAAAASASAAAAAS_[[[[[",
"[[[[[[_^^^LRSSAAAAAAAAAAAAAAAZAAZAZAAZZAAAAAZAZAAAVAAZAAAAAZZZAAAAAAAAAAAAALA^^^^^^[[[[[[[",
"[[[[[[[[[[[[[[[[((_^^^^^^^S^SSSS^SLAS^LSSSAAASRLSSSSS^SSSSSS^^L^S^S^^_^__[[[[[[[[[[[[[[[[[",
"[[[[[[[[[[[[[[[[[[[[[[[[[[[[[[[[[[[[[[[[[[[[[[[[[[[[[[[[[[[[[[[[[[[[[[[[[[[[[[[[[[[[[[[[[[",
"[[[[[[[[[[[[[[[[[[[[[[[[[[[[[[[[[[[[[[[[[[[[[[[[[[[[[[[[[[[[[[[[[[[[[[[[[[[[[[[[[[[[[[[[[[",
"[[[[[[[[[[[[[[[[[[[[[[[[[[[[[[[[[[[[[[[[[[[[[[[[[[[[[[[[[[[[[[[[[[[[[[[[[[[[[[[[[[[[[[[[[[",
"[[[[[[[[[[[[[[[[[[[[[[[[[[[[[[[[[[[[[[[[[[[[[[[[[[[[[[[[[[[[[[[[[[[[[[[[[[[[[[[[[[[[[[[[[["
};
