/* XPM */
static char *_483778626798[] = {
/* columns rows colors chars-per-pixel */
"73 74 192 2 ",
"   c black",
".  c #010101",
"X  c #020202",
"o  c gray1",
"O  c #040404",
"+  c gray2",
"@  c #060606",
"#  c gray3",
"$  c gray4",
"%  c #0B0B0B",
"&  c gray5",
"*  c gray6",
"=  c #101010",
"-  c gray7",
";  c gray8",
":  c #151515",
">  c gray9",
",  c #181818",
"<  c gray10",
"1  c #1B1B1B",
"2  c #1D1D1D",
"3  c #1E1E1E",
"4  c #202020",
"5  c gray13",
"6  c #222222",
"7  c gray14",
"8  c #252525",
"9  c #272727",
"0  c #282828",
"q  c gray16",
"w  c gray17",
"e  c #2C2C2C",
"r  c #2D2D2D",
"t  c #2F2F2F",
"y  c gray19",
"u  c #313131",
"i  c #323232",
"p  c #343434",
"a  c #353535",
"s  c gray21",
"d  c #373737",
"f  c #393939",
"g  c #3A3A3A",
"h  c gray23",
"j  c #3C3C3C",
"k  c #3E3E3E",
"l  c #3F3F3F",
"z  c gray25",
"x  c #414141",
"c  c gray26",
"v  c #444444",
"b  c gray27",
"n  c #464646",
"m  c gray28",
"M  c #484848",
"N  c #494949",
"B  c #4B4B4B",
"V  c #4C4C4C",
"C  c gray30",
"Z  c #4E4E4E",
"A  c gray31",
"S  c #505050",
"D  c #515151",
"F  c gray32",
"G  c gray33",
"H  c #555555",
"J  c #565656",
"K  c gray34",
"L  c #585858",
"P  c gray35",
"I  c #5A5A5A",
"U  c #5B5B5B",
"Y  c gray36",
"T  c #5D5D5D",
"R  c gray37",
"E  c #606060",
"W  c gray38",
"Q  c #626262",
"!  c gray39",
"~  c #646464",
"^  c #656565",
"/  c gray40",
"(  c #676767",
")  c #686868",
"_  c DimGray",
"`  c #6A6A6A",
"'  c gray42",
"]  c #6C6C6C",
"[  c #6D6D6D",
"{  c gray43",
"}  c #6F6F6F",
"|  c gray44",
" . c #717171",
".. c #727272",
"X. c gray45",
"o. c #747474",
"O. c gray46",
"+. c #767676",
"@. c #777777",
"#. c gray47",
"$. c #797979",
"%. c gray48",
"&. c #7B7B7B",
"*. c #7C7C7C",
"=. c gray49",
"-. c #7E7E7E",
";. c gray50",
":. c #808080",
">. c #818181",
",. c gray51",
"<. c #838383",
"1. c #848484",
"2. c gray52",
"3. c #868686",
"4. c gray53",
"5. c #888888",
"6. c #898989",
"7. c gray54",
"8. c #8B8B8B",
"9. c gray55",
"0. c #8D8D8D",
"q. c #8E8E8E",
"w. c gray56",
"e. c #909090",
"r. c gray57",
"t. c #929292",
"y. c #939393",
"u. c #959595",
"i. c gray59",
"p. c #979797",
"a. c #989898",
"s. c gray60",
"d. c #9A9A9A",
"f. c #9B9B9B",
"g. c gray61",
"h. c #9D9D9D",
"j. c gray62",
"k. c #9F9F9F",
"l. c #A0A0A0",
"z. c gray63",
"x. c #A2A2A2",
"c. c gray64",
"v. c #A5A5A5",
"b. c gray65",
"n. c #A7A7A7",
"m. c gray66",
"M. c #A9A9A9",
"N. c #AAAAAA",
"B. c gray67",
"V. c gray68",
"C. c #AEAEAE",
"Z. c #AFAFAF",
"A. c gray69",
"S. c gray70",
"D. c #B4B4B4",
"F. c gray71",
"G. c #B6B6B6",
"H. c #B7B7B7",
"J. c #B9B9B9",
"K. c gray73",
"L. c #BBBBBB",
"P. c #BCBCBC",
"I. c gray74",
"U. c gray",
"Y. c gray75",
"T. c #C0C0C0",
"R. c #C1C1C1",
"E. c gray76",
"W. c #C3C3C3",
"Q. c gray77",
"!. c #C5C5C5",
"~. c #C8C8C8",
"^. c gray79",
"/. c #CACACA",
"(. c gray81",
"). c #D5D5D5",
"_. c gray86",
"`. c #DFDFDF",
"'. c #E2E2E2",
"]. c gray91",
"[. c #E9E9E9",
"{. c gray92",
"}. c #ECECEC",
"|. c gray93",
" X c #EEEEEE",
".X c gray94",
"XX c gray97",
"oX c #F9F9F9",
"OX c gray98",
"+X c #FDFDFD",
"@X c white",
"#X c None",
/* pixels */
"#X#X#X#X@X@X@X@X@X@X@X@X@X@X@X@X@X@X@X@X@X@X@X@X@X@X@X@X@X@X@X@X@X@X@X@X@X@X@X@X@X@X@X@X@X@X@X@X@X@X@X@X@X@X@X@X@X@X@X@X@X@X@X@X@X@X@X@X@X#X#X#X#X",
"#X#X#X@X@X@X@X@X@X@X@X@X@X@X@X@X@X@X@X@X@X@X@X@X@X@X@X@X@X@X@X@X@X@X@X@X@X@X@X@X@X@X@X@X@X@X@X@X@X@X@X@X@X@X@X@X@X@X@X@X@X@X@X@X@X@X@X@X@X@X#X#X#X",
"#X#X@X@XR.F *             0 * , d c Z T K f                           f   y j Z U K T                                               * F R.@X@X#X#X",
"#X@X@Xe.                  e ; y K _ $.e.u.j                           f ; Z E @.7.s.|                                                     0.@X@X#X",
"@X@XR.                    e - 0 Z T } <.1.j                           f * m K / $.1.}                                                       Y.@X@X",
"@X@XF                     e - 0 M U } <.<.j                           j % c K _ $.1.}                                                       F @X@X",
"@X@X*                     e - 0 Z T } 1.<.j                           f % m K / $.<.}                                                       * @X@X",
"@X@X                      e ; 0 M U } 1.1.j                           f % m K _ $.<.}                                                         @X@X",
"@X@X                      e - 0 Z U } <.<.j                           j % m K / $.1.}                                                         @X@X",
"@X@X                      e ; 0 M T } <.<.j                           j % c K / $.1.}                                                         @X@X",
"@X@X                      e - 0 Z U } <.<.j                           f % m K _ $.1.}                                                         @X@X",
"@X@X                      e ; 0 M U } <.=.m                           j % m K / $.<.}                                                         @X@X",
"@X@X                      e - 0 Z U } <.e.j 6   * 8 0 e               j * m K _ $.1.}                                                         @X@X",
"@X@X                      e ; 0 M T } <.u.6   % +         c           f % c K _ $.1.}                                                         @X@X",
"@X@X                      e - 0 Z U } 1.0.F e 8 f f f e %   ,         j % c K / $.1.}                                                         @X@X",
"@X@X                      e ; 0 M T } 1.1.} _ d 2 0 y y j 0   0       j % m K _ $.1.}                                                         @X@X",
"@X@X                      e * 0 M T } <.=.1.j.} j 2 0 y e d 0   Z     f % m K _ $.<.}                                                         @X@X",
"@X@X                      d + d M T } <.$.0.R.j.@.Z e 8 y e f 8   F   e % m K / $.<.}                                                         @X@X",
"@X@X                    y   , d Z T } 1.=.=.L.L.b.<.K y 8 e y f -   6 M   m K _ $.1.}                                                         @X@X",
"@X@X                  f   - 6 d M T } 1.=.@.b.C.L.C.7./ f 6 e y f % 2 f 6 m K _ $.1.}                                                         @X@X",
"@X@X                Z   2 y , d M U } 1.<.| s.j.M.L.G.u.| c 6 0 y f %   d m K / $.1.}                                                         @X@X",
"@X@X              M   % f 0 , d Z U } <.<._ 7.e.s.b.G.L.x.=.Z 2 0 y d   * M K / $.1.}                                                         @X@X",
"@X@X            * -   d d 8 , f M T } <.1.E =.1.0.s.x.A.L.M.7.F 2 8 d 0   d E _ $.1.}                                                         @X@X",
"@X@X            M   8 f y 8 , d M T } 1.7.K } $.<.0.u.j.M.L.G.j.E ; + 6 %   U | $.<.}                                                         @X@X",
"@X@X          * -   d e y 8 2 d Z T } 1.7.F T } @.=.7.e.j.M.A.M.s.@.T / / 2 + | <.<.}                                                         @X@X",
"@X@X          c   8 f y y 8 , d M T } 1.0.c M E / | =.<.1.e.j.C.Y.R.x.T T E   2 0.0._                                                         @X@X",
"@X@X          y   y y e d 8 , d M T } <.e.f 0 F T E _ <.7.u.s.j.M.C.M.0.T Z F   6 u.@.                                                        @X@X",
"@X@X          ,   d y y y 8 , d Z U } 1.e.j , y m E $.=.@.$.7.s.x.M.G.R.0.K | _   6 $.                                                        @X@X",
"@X@X            - d y y y 8 , d M T } <.0.j , d T E K U $.<.7.1.0.s.x.C.!.L.E F K   8                                                         @X@X",
"@X@X            ; d y e y 8 , d M T } 1.e.d f U j e T | _ E | 1.u.s.x.b.A.Y.0.+ - f   d                                                       @X@X",
"@X@X          * + d e y d 8 , d Z T } 1.0.M m e y K F j K | $.=.@.=.7.u.j.M.~.x.6 , d   ,                             d } 0.x.}               @X@X",
"@X@X          0   d y y y 8 2 d M T } <.0.m 2 f U d 6 K / U Z T _ @.=.0.e.s.b.~.M.2 ; f   j                 f } e.s.u.| m 0   -               @X@X",
"@X@X          f   d y y y 8 , d M T } 1.0.d y Z 8 d U M 8 e m K T _ | =.1.e.s.x.R.M.0   -       % E 7.e.7.$.T M d 2 , 2 y } d y               @X@X",
"@X@X          j   y y e y 8 , d Z U } 1.0.m f 8 j F d 6 0 8 d m Z U / } @.@.=.1.j.).~.| <.u.=.e.7.U d *     , j T $.0.u.u.x., d               @X@X",
"@X@X          , + - f e d 8 2 d m Z / 1.e.m 2 f M e 0 y y 0 , 8 0 e j U =.x.Y.R.Y.b.u.| U K Z 2 + 8 j T $.7.7.7.<.<.=.<.1.@.8 *               @X@X",
"@X@X            Z   y y y 8 2 0 Z | @.=.e.d 0 c e e d ,   ; e M } 7.s.b.j.7.@.U y %   * 8 m T | =.=.$.$.@.| @.$.$.$.=.=.e.c c                 @X@X",
"@X@X              d   d d 8 * m u.b.b.u.7.j y y e y ; U x.j.j.1.| E F c 6 % % 6 j T } @.| } _ _ _ } } } | | @.@.$.$.$.$.e., c                 @X@X",
"@X@X              + 2   j e + @.C.s.M.C.e.j 8 e e 8 d M.=.F e %   + 8 j K E / / / E E E E / / _ _ _ } } | | | @.$.$.$.<.@.2 ,                 @X@X",
"@X@X                ,     j - K M.M.C.x.7.j 6 y e * $.=.  8 j Z U U K K F U E E K Z K / | } / / _ _ } } | | | @.@.@.@.0.f d                   @X@X",
"@X@X                  y   * y 2 _ e.7.<.0.f 8 y y + 7.E 2 F M m M M Z K E c     * 6 ,     y | | / _ _ _ } | | | | @.@.7.* f                   @X@X",
"@X@X                    d   , 0 6 T | s.<.2 e e e 8 0.f d m m m M m U m     _ G._.].'.!.0.6   c $._ _ _ _ } } } | @.$.} 8 -                   @X@X",
"@X@X                      j   ; 6 d T @.j 6 y y 6 U <.  c c c c m U y   / }.@X@X@X@X@X@X@X@Xx.  ; @._ _ _ _ } } | | <.f c                     @X@X",
"@X@X                        c   - 8 , ; 2 d y y * | _   m j c c K e   A.@X@X@X@X@X@X@X@X@X@X@X}.2 - $._ _ _ } } | } <.- c                     @X@X",
"@X@X                          M   ; e 8 e y y e * @.Z - c j c m f   A.@X@X@X@X@X@X@X@X@X@X@X@X@X}.- e @./ _ _ } } @._ , 2                     @X@X",
"@X@X                            c   2 e e y y y 6 <.d 0 f j f Z   $.@X@X@X@X@X@X@X@X@X@X@X@X@X@X@X~.  E _ _ _ _ } $.d y                       @X@X",
"@X@X                              6   6 d e e 8 Z 1.* f f f c 2 ; {.@X@X@X@X@X@X@X@X@X@X@X@X@X@X@X@X| * | / _ _ _ =.- d                       @X@X",
"@X@X                                f   8 f e - @.$.  f d d m   =.@X@X@X@X@X@X@X@X@X@X@X@X@X@X@X@X@XR.  E _ / / } / 6 2                       @X@X",
"@X@X                                  Z   8 f + 0.T + d y d f   !.@X@X@X@X@X@X@X@X@X@X@X@X@X@X@X@X@X@Xe f _ / / @.y c                         @X@X",
"@X@X                                    c   e y e.y 6 y y d 6 ; {.@X@X@X@X@X@X@X@X@X@X@X@X@X@X@X@X@X@XK - } E / @.  m                         @X@X",
"@X@X                                      ;   Z <.  y e y d - e oX@X@X@X@X@X@X@X@X@X@X@X@X@X@X@X@X@X@X_   } / / E % e                         @X@X",
"@X@X                                        e d /   y e e y - 0 XX@X@X@X@X@X@X@X@X@X@X@X@X@X@X@X@X@X@X_ + _ T } y e                           @X@X",
"@X@X                                          =.y   e e e y 8 + `.@X@X@X@X@X@X@X@X@X@X@X@X@X@X@X@X@X@Xm , _ T } % d                           @X@X",
"@X@X                                          0.+ - 0 0 0 e y   C.@X@X@X@X@X@X@X@X@X@X@X@X@X@X@X@X@X}., c E E T , 8                           @X@X",
"@X@X                                          e.  8 8 8 0 e d   U @X@X@X@X@X@X@X@X@X@X@X@X@X@X@X@X@XM.  E U / 0 j                             @X@X",
"@X@X                                        f }   8 6 8 0 0 e 6   ~.@X@X@X@X@X@X@X@X@X@X@X@X@X@X@X@XZ , E K /   M                             @X@X",
"@X@X                                        =.e   6 2 6 8 8 0 d   c @X@X@X@X@X@X@X@X@X@X@X@X@X@X@X7.  T K U K   y                             @X@X",
"@X@X                                        u.  % 2 2 6 6 8 0 0 y   _ @X@X@X@X@X@X@X@X@X@X@X@X@XY.  j U F E e 0                               @X@X",
"@X@X                                        7.  ; , 2 2 6 6 8 8 y e   F @X@X@X@X@X@X@X@X@X@X@Xs.  d T Z F E   d                               @X@X",
"@X@X                                      e E   , , , 2 2 6 6 8 8 y y   * M.oX@X@X@X@X@X@X(.F   y U Z Z F Z - e                               @X@X",
"@X@X                                      } y   ; ; , , 2 2 6 8 8 0 e f *     F 1.u.0._ 6     M F m M M K 6 f                                 @X@X",
"@X@X                                      e.    - - ; , , 2 2 6 8 8 0 0 d d ;           * c Z m m m m M U   m                                 @X@X",
"@X@X                                      e.  - - * - ; , 2 2 6 6 8 0 0 0 0 y f j j c c c j j c c c M F K   y                                 @X@X",
"@X@X                                    j }   ; * - - - ; , 2 2 6 6 8 8 0 e e y y d d f f f j c Z Z m 0   8                                   @X@X",
"@X@X                                    $.y   - * * * - - ; , , 2 2 6 8 0 0 e e y y y f j m j 0 * +   ; ; y                                   @X@X",
"@X@X                                    7.    - - * * - * - ; , 2 2 6 6 8 0 0 e d f d 2       , 0 e 8                                         @X@X",
"@X@X                                    <.  - - * - * - * - ; ; , , 2 6 0 e 0 ;       * 8 d 6                                                 @X@X",
"@X@X                                  y }   ; * * * - * - - - ; , 6 , +       - f 0 2 +                                                       @X@X",
"@X@X*                                 | j   - * - * * - - ; * +       % 6 e 6                                                               * @X@X",
"@X@XF                                 u.    - - ; ; -         + 0 y 8 %                                                                     F @X@X",
"@X@XR.                                e.  ; - +         2 f e +                                                                             Y.@X@X",
"#X@X@X0.                            M E         y y 6 *                                                                                   0.@X@X#X",
"#X#X@X@XR.F %                       6 d   e e *                                                                                     % F R.@X@X#X#X",
"#X#X#X@X@X@X@X@X@X@X@X@X@X@X@X@X@X@X@X@X@X@X@X@X@X@X@X@X@X@X@X@X@X@X@X@X@X@X@X@X@X@X@X@X@X@X@X@X@X@X@X@X@X@X@X@X@X@X@X@X@X@X@X@X@X@X@X@X@X@X#X#X#X",
"#X#X#X#X@X@X@X@X@X@X@X@X@X@X@X@X@X@X@X@X@X@X@X@X@X@X@X@X@X@X@X@X@X@X@X@X@X@X@X@X@X@X@X@X@X@X@X@X@X@X@X@X@X@X@X@X@X@X@X@X@X@X@X@X@X@X@X@X@X#X#X#X#X"
};
