/* XPM */
static char *_483778633842[] = {
/* columns rows colors chars-per-pixel */
"73 74 199 2 ",
"   c black",
".  c #010101",
"X  c #020202",
"o  c gray1",
"O  c #040404",
"+  c gray2",
"@  c #060606",
"#  c #0C0000",
"$  c #0D0000",
"%  c #0F0000",
"&  c gray3",
"*  c gray4",
"=  c #0B0B0B",
"-  c gray5",
";  c gray6",
":  c #101010",
">  c gray7",
",  c gray8",
"<  c #151515",
"1  c gray9",
"2  c #181818",
"3  c gray10",
"4  c #1B1B1B",
"5  c #1D1D1D",
"6  c #1E1E1E",
"7  c #202020",
"8  c gray13",
"9  c #222222",
"0  c gray14",
"q  c #252525",
"w  c #272727",
"e  c #282828",
"r  c gray16",
"t  c gray17",
"y  c #2C2C2C",
"u  c #2D2D2D",
"i  c #2F2F2F",
"p  c gray19",
"a  c #313131",
"s  c #323232",
"d  c #343434",
"f  c #353535",
"g  c gray21",
"h  c #373737",
"j  c #393939",
"k  c #3A3A3A",
"l  c gray23",
"z  c #3C3C3C",
"x  c #3E3E3E",
"c  c #3F3F3F",
"v  c #530500",
"b  c gray25",
"n  c #414141",
"m  c gray26",
"M  c #444444",
"N  c gray27",
"B  c #464646",
"V  c gray28",
"C  c #484848",
"Z  c #494949",
"A  c #4B4B4B",
"S  c #4C4C4C",
"D  c gray30",
"F  c #4E4E4E",
"G  c gray31",
"H  c #505050",
"J  c #515151",
"K  c gray32",
"L  c gray33",
"P  c #555555",
"I  c #565656",
"U  c gray34",
"Y  c #585858",
"T  c gray35",
"R  c #5A5A5A",
"E  c #5B5B5B",
"W  c gray36",
"Q  c #5D5D5D",
"!  c gray37",
"~  c #606060",
"^  c gray38",
"/  c #626262",
"(  c gray39",
")  c #646464",
"_  c #656565",
"`  c gray40",
"'  c #676767",
"]  c #686868",
"[  c DimGray",
"{  c #6A6A6A",
"}  c gray42",
"|  c #6C6C6C",
" . c #6D6D6D",
".. c gray43",
"X. c #6F6F6F",
"o. c gray44",
"O. c #717171",
"+. c #727272",
"@. c gray45",
"#. c #747474",
"$. c gray46",
"%. c #767676",
"&. c #777777",
"*. c gray47",
"=. c #797979",
"-. c gray48",
";. c #7B7B7B",
":. c #7C7C7C",
">. c gray49",
",. c #7E7E7E",
"<. c gray50",
"1. c #901000",
"2. c #921100",
"3. c #C21A00",
"4. c #C31A00",
"5. c #FF2600",
"6. c #808080",
"7. c #818181",
"8. c gray51",
"9. c #838383",
"0. c #848484",
"q. c gray52",
"w. c #868686",
"e. c gray53",
"r. c #888888",
"t. c #898989",
"y. c gray54",
"u. c #8B8B8B",
"i. c gray55",
"p. c #8D8D8D",
"a. c #8E8E8E",
"s. c gray56",
"d. c #909090",
"f. c gray57",
"g. c #929292",
"h. c #939393",
"j. c #959595",
"k. c gray59",
"l. c #979797",
"z. c #989898",
"x. c gray60",
"c. c #9A9A9A",
"v. c #9B9B9B",
"b. c gray61",
"n. c #9D9D9D",
"m. c gray62",
"M. c #9F9F9F",
"N. c #A0A0A0",
"B. c gray63",
"V. c #A2A2A2",
"C. c gray64",
"Z. c #A5A5A5",
"A. c gray65",
"S. c #A7A7A7",
"D. c gray66",
"F. c #A9A9A9",
"G. c #AAAAAA",
"H. c gray67",
"J. c gray68",
"K. c #AEAEAE",
"L. c #AFAFAF",
"P. c gray69",
"I. c gray70",
"U. c #B4B4B4",
"Y. c gray71",
"T. c #B6B6B6",
"R. c #B7B7B7",
"E. c #B9B9B9",
"W. c gray73",
"Q. c #BBBBBB",
"!. c #BCBCBC",
"~. c gray74",
"^. c gray",
"/. c gray75",
"(. c gray76",
"). c #C3C3C3",
"_. c gray77",
"`. c #C5C5C5",
"'. c #C8C8C8",
"]. c gray79",
"[. c #CACACA",
"{. c gray81",
"}. c #D5D5D5",
"|. c gray86",
" X c #DFDFDF",
".X c #E2E2E2",
"XX c gray91",
"oX c #E9E9E9",
"OX c gray92",
"+X c #ECECEC",
"@X c gray93",
"#X c #EEEEEE",
"$X c gray94",
"%X c gray97",
"&X c #F9F9F9",
"*X c gray98",
"=X c #FDFDFD",
"-X c white",
";X c None",
/* pixels */
";X;X;X;X5.5.5.5.5.5.5.5.5.5.5.5.5.5.5.5.5.5.5.5.5.5.5.5.5.5.5.5.5.5.5.5.5.5.5.5.5.5.5.5.5.5.5.5.5.5.5.5.5.5.5.5.5.5.5.5.5.5.5.5.5.5.5.5.5.;X;X;X;X",
";X;X;X5.5.5.5.5.5.5.5.5.5.5.5.5.5.5.5.5.5.5.5.5.5.5.5.5.5.5.5.5.5.5.5.5.5.5.5.5.5.5.5.5.5.5.5.5.5.5.5.5.5.5.5.5.5.5.5.5.5.5.5.5.5.5.5.5.5.5.;X;X;X",
";X;X5.5.4.v %             e - 3 g m S W R j                           j   p z S U U W                                               % v 4.5.5.;X;X",
";X5.5.2.                  y , p U [ >.f.j.z                           l 1 S ^ &.y.j.&.                                                    2.5.5.;X",
"5.5.4.                    y > e S W X.9.9.m                           l = V U ` =.0.X.                                                      4.5.5.",
"5.5.v                     y > e S W X.9.9.z                           l = V U ] =.0.X.                                                      v 5.5.",
"5.5.%                     y > e S W X.9.9.z                           l * M U ] =.9.X.                                                      % 5.5.",
"5.5.                      y , e C R X.9.9.z                           l = V U ] =.9.X.                                                        5.5.",
"5.5.                      y > e C W o.9.9.z                           l * V U [ =.0.X.                                                        5.5.",
"5.5.                      y , e S W X.9.0.z                           l * M U ` =.0.X.                                                        5.5.",
"5.5.                      y > e S W X.9.9.z                           l * V U ] =.0.X.                                                        5.5.",
"5.5.                      y , e C R X.9.>.V                           l * V U ] =.9.X.                                                        5.5.",
"5.5.                      y > e S W X.0.f.m 8   > q e y               l = V U ] =.0.X.                                                        5.5.",
"5.5.                      y , e S W X.9.j.8   - +         m           l * V U ] =.0.X.                                                        5.5.",
"5.5.                      y > e S W X.0.p.S y q g j g y +   5         l * M U [ =.0.X.                                                        5.5.",
"5.5.                      y , e C W X.0.0.X.[ g 5 y p p z e   e       z * V U ` =.0.X.                                                        5.5.",
"5.5.                      y > q S W X.9.>.0.m.X.z 8 e p y j e   S     j - m U [ =.9.X.                                                        5.5.",
"5.5.                      g + g C W X.9.=.p.(.m.&.S e q y p g q   J   y * V U [ =.9.X.                                                        5.5.",
"5.5.                    p   3 g S W X.0.>.>.Q.Q.A.9.U p q y p z ,   8 C + V U ` =.0.X.                                                        5.5.",
"5.5.                  j   > 8 g S W X.0.>.&.A.J.Q.J.y.` j q y y j * 8 j 8 m U [ =.0.X.                                                        5.5.",
"5.5.                S   3 p 3 g C W X.0.9.o.x.m.F.Q.T.j.o.V 8 e p j *   p C R [ =.0.X.                                                        5.5.",
"5.5.              S   - z e 3 g S R X.0.9.[ y.f.x.A.T.Q.V.>.S 5 e p g   - S U ` =.0.X.                                                        5.5.",
"5.5.            - >   d g q 3 g S W X.9.0.^ >.0.p.x.V.P.Q.F.y.J 5 q j e   g ^ [ =.0.X.                                                        5.5.",
"5.5.            C   q j p q 3 g C W X.0.y.R [ =.9.p.j.m.F.Q.T.m.^ , + 8 *   R o.=.9.X.                                                        5.5.",
"5.5.          - ,   h i d q 3 g S W X.0.y.J W X.&.>.y.f.m.F.P.F.x.&.W ` [ 5   o.9.9.X.                                                        5.5.",
"5.5.          m   q g i p q 3 g S W X.0.p.m C ^ ` o.>.9.0.f.m.J.^._.V.W W ^   5 p.p.[                                                         5.5.",
"5.5.          p   p p i d q 3 g C W X.9.f.g y J R ^ [ 9.y.j.x.m.F.J.F.p.W S J   8 j.&.                                                        5.5.",
"5.5.          3   g i i p q 3 g S R X.0.f.j 3 p V ^ =.>.=.=.y.x.V.F.T.(.p.U o.X.  8 =.                                                        5.5.",
"5.5.            > g i i p q 3 g S W X.9.f.j 3 g W ^ R R =.9.y.0.p.x.V.F._.Q.^ J U   q                                                         5.5.",
"5.5.            3 g i i d q 3 g S W X.0.f.g j R z y W o.[ ^ o.0.j.x.V.A.P.(.p.+ > g   g                                                       5.5.",
"5.5.          -   j y i p q 3 g C W X.0.p.C V y p R J z U o.=.>.&.>.y.j.m.F.'.V.8 3 g   3                             g X.p.V.X.              5.5.",
"5.5.          e   h p p d q 3 g S W X.0.p.V 5 j R g 8 U ` R S W [ &.9.y.f.x.A.'.J.5 , g   z                 j X.f.x.j.o.V e   >               5.5.",
"5.5.          j   g p y p q 3 g C W X.0.f.g p S e g R C q y C J W [ o.>.0.p.x.V.(.A.e + >       * ^ y.p.p.=.W C g 5 3 5 p X.p g               5.5.",
"5.5.          j   p p p p q 3 g S R X.0.p.V j q z J g 8 e e g V S R ` X.&.=.>.0.m.}.'.o.>.j.>.p.y.W g >     5 j W =.p.j.j.V.3 g               5.5.",
"5.5.          3 + > j y g q 3 g V J [ 9.f.V 5 z C y e p p e 3 q y y z R >.V.^._.(.A.j.o.R U S 5 + 8 z W &.0.p.0.9.9.>.9.y.&.q -               5.5.",
"5.5.            S   p p p q 5 e S o.&.>.p.g e m y y g 3   , y V X.y.x.A.m.y.&.R p -   * e V W &.>.>.>.=.&.&.&.&.=.=.>.>.p.m m                 5.5.",
"5.5.              g   j g q - V j.A.A.j.y.z y p y p , R V.m.m.0.X.^ J m 8 + * 8 z W X.&.o.X.[ [ [ X.X.X.o.o.&.&.=.=.=.>.f.3 z                 5.5.",
"5.5.              + 5   z y * &.J.x.F.P.f.z q y p q g F.9.J y *   * q z U ` ` ` ` ` ^ ^ ^ ` ` [ [ [ X.X.X.&.o.&.&.=.=.9.o.8 5                 5.5.",
"5.5.                3     z - U F.F.J.V.p.z 8 p y - =.>.  q m S R R U U J R ` ^ U S U ` o.X.` ` [ [ X.X.X.X.o.&.&.&.=.y.j g                   5.5.",
"5.5.                  p   > p 5 [ p.p.9.p.j q p p + y.^ 5 S C V C C S U ` z     - 5 3     p o.o.` [ [ [ X.X.o.o.o.&.&.y.- j                   5.5.",
"5.5.                    g   3 e 8 W o.x.9.5 y p y e p.j g V m V C C R C     [ T.|.XX.X_.p.8   m >.` [ [ [ X.X.X.o.&.=.X.8 ,                   5.5.",
"5.5.                      z   , 8 g W &.z 8 p y 8 W 9.  V m m V V U p   ` +X-X-X-X-X-X-X-X-XV.  > &.[ [ [ [ X.X.o.o.9.j m                     5.5.",
"5.5.                        m   , q 5 , 5 g p p > o.[   V m m m U y   T.-X-X-X-X-X-X-X-X-X-X-X+X5 > =.` [ [ X.X.o.X.9.> m                     5.5.",
"5.5.                          C   , y q y p y p - &.S > z z z V j   J.-X-X-X-X-X-X-X-X-X-X-X-X-X+X> p &.` [ [ X.X.&.[ 3 5                     5.5.",
"5.5.                            V   5 y y p p y 8 9.g y z j z S   =.-X-X-X-X-X-X-X-X-X-X-X-X-X-X-X'.  ^ [ ` [ [ X.>.g p                       5.5.",
"5.5.                              8   8 g p p q S 0.- j j j m 5 , OX-X-X-X-X-X-X-X-X-X-X-X-X-X-X-X-Xo.* o.` [ [ [ >.- j                       5.5.",
"5.5.                                j   q j y > =.=.  j g g V   >.-X-X-X-X-X-X-X-X-X-X-X-X-X-X-X-X-X_.  ` ` ` ` X.` 8 5                       5.5.",
"5.5.                                  S   e g + y.W + g g g j   _.-X-X-X-X-X-X-X-X-X-X-X-X-X-X-X-X-X-Xy j [ ` ` &.p m                         5.5.",
"5.5.                                    m   y p f.p 8 p p j 8 , OX-X-X-X-X-X-X-X-X-X-X-X-X-X-X-X-X-X-XU > X.^ ` &.+ V                         5.5.",
"5.5.                                      ,   S 9.  p p p g > y &X-X-X-X-X-X-X-X-X-X-X-X-X-X-X-X-X-X-X[   X.^ ` ^ * y                         5.5.",
"5.5.                                        y g `   p y y p > e %X-X-X-X-X-X-X-X-X-X-X-X-X-X-X-X-X-X-X[ + [ ^ X.p y                           5.5.",
"5.5.                                          >.p   y y y p q +  X-X-X-X-X-X-X-X-X-X-X-X-X-X-X-X-X-X-XV 3 ` W o.* g                           5.5.",
"5.5.                                          p.+ > q e y y p   J.-X-X-X-X-X-X-X-X-X-X-X-X-X-X-X-X-X+X3 m ^ W W 3 q                           5.5.",
"5.5.                                          f.  8 q e e e g   R -X-X-X-X-X-X-X-X-X-X-X-X-X-X-X-X-XF.  W R ` e z                             5.5.",
"5.5.                                        j X.  q 8 q e e y 8   '.-X-X-X-X-X-X-X-X-X-X-X-X-X-X-X-XS 3 ^ U `   C                             5.5.",
"5.5.                                        >.y   8 8 8 q e e g   m -X-X-X-X-X-X-X-X-X-X-X-X-X-X-Xy.  W U R U + p                             5.5.",
"5.5.                                        j.  * 5 5 8 8 q e e p   X.-X-X-X-X-X-X-X-X-X-X-X-X-X^.  m R J W e y                               5.5.",
"5.5.                                        y.  3 3 5 5 8 8 q e p y   J -X-X-X-X-X-X-X-X-X-X-Xx.  g W S J ^ + g                               5.5.",
"5.5.                                      e `   , 3 5 3 5 8 8 q q p p   - F.%X-X-X-X-X-X-X}.S   g R C J J J > e                               5.5.",
"5.5.                                      X.y   , , , 5 5 5 8 q q e y j -     J 0.j.p.[ 8     S S V C S U 8 j                                 5.5.",
"5.5.                                      f.    > > , 3 3 5 5 8 q q e e g j ,           - m S V V V C C R   C                                 5.5.",
"5.5.                                      f.  > - > > , 3 3 5 5 8 q e e e y p j z z m m m m z m m m C J J   g                                 5.5.",
"5.5.                                    z X.  , - > - > , 3 3 5 8 8 q q e y y p p g g j j j z m C J C e   q                                   5.5.",
"5.5.                                    >.y   > > - > > > , 3 3 5 8 8 q e e y y p p p j z V z e > +   , , p                                   5.5.",
"5.5.                                    y.    > > - > - > , , 3 3 5 8 0 q q e y g j g 8 O     3 e y 8                                         5.5.",
"5.5.                                    9.  > > > > > - - > , , 3 5 5 8 e y e ,       - q g 8                                                 5.5.",
"5.5.                                  p X.  > > - > > > > > > , 3 5 3 +       , j e 5 +                                                       5.5.",
"5.5.%                                 o.z   > - > - - > > , >         * 8 y 8                                                               % 5.5.",
"5.5.v                                 j.    > > , , > +       + e d 0 *                                                                     v 5.5.",
"5.5.4.                                f.  , > +         5 j y +                                                                             4.5.5.",
";X5.5.1.                            C ^         y p 8 -                                                                                   2.5.5.;X",
";X;X5.5.4.v %                       0 g   y y -                                                                                     # v 4.5.5.;X;X",
";X;X;X5.5.5.5.5.5.5.5.5.5.5.5.5.5.5.5.5.5.5.5.5.5.5.5.5.5.5.5.5.5.5.5.5.5.5.5.5.5.5.5.5.5.5.5.5.5.5.5.5.5.5.5.5.5.5.5.5.5.5.5.5.5.5.5.5.5.5.;X;X;X",
";X;X;X;X5.5.5.5.5.5.5.5.5.5.5.5.5.5.5.5.5.5.5.5.5.5.5.5.5.5.5.5.5.5.5.5.5.5.5.5.5.5.5.5.5.5.5.5.5.5.5.5.5.5.5.5.5.5.5.5.5.5.5.5.5.5.5.5.5.;X;X;X;X"
};
