/* XPM */
static char *_483778639875[] = {
/* columns rows colors chars-per-pixel */
"73 74 60 1 ",
"  c #C0C0C0",
". c #C1C1C1",
"X c gray76",
"o c #C3C3C3",
"O c gray77",
"+ c #C5C5C5",
"@ c #C6C6C6",
"# c gray78",
"$ c #C8C8C8",
"% c gray79",
"& c #CACACA",
"* c #CBCBCB",
"= c gray80",
"- c #CDCDCD",
"; c #CECECE",
": c gray81",
"> c #D0D0D0",
", c gray82",
"< c #D2D2D2",
"1 c LightGray",
"2 c gray83",
"3 c #D5D5D5",
"4 c gray84",
"5 c #D7D7D7",
"6 c #D8D8D8",
"7 c gray85",
"8 c #DADADA",
"9 c gray86",
"0 c gainsboro",
"q c #DDDDDD",
"w c gray87",
"e c #DFDFDF",
"r c gray88",
"t c #E1E1E1",
"y c #E2E2E2",
"u c gray89",
"i c #E4E4E4",
"p c gray90",
"a c #E6E6E6",
"s c #E7E7E7",
"d c gray91",
"f c #E9E9E9",
"g c #EAEAEA",
"h c gray92",
"j c #ECECEC",
"k c gray93",
"l c #EEEEEE",
"z c #EFEFEF",
"x c gray94",
"c c #F1F1F1",
"v c #F3F3F3",
"b c gray96",
"n c #F6F6F6",
"m c #F8F8F8",
"M c #F9F9F9",
"N c gray98",
"B c #FDFDFD",
"V c #FEFEFE",
"C c white",
"Z c None",
/* pixels */
"ZZZZCCCCCCCCCCCCCCCCCCCCCCCCCCCCCCCCCCCCCCCCCCCCCCCCCCCCCCCCCCCCCCCCCZZZZ",
"ZZZCCCCCCCCCCCCCCCCCCCCCCCCCCCCCCCCCCCCCCCCCCCCCCCCCCCCCCCCCCCCCCCCCCCZZZ",
"ZZCCk>O      OOO;;>2>*             * *;;>22                       O>kCCZZ",
"ZCCr         *O*>20rr;             *O>27rr7                          0CCZ",
"CCk          * *>>707;             *O;>7007                           kCC",
"CC>          * *>2770*             * >>2002                           >CC",
"CCO          *O*>>200;             *O;22707                           OCC",
"CC           *OO;2700*             ; >>7002                            CC",
"CC           OO*>2200;             *O;>7707                            CC",
"CC           *OO>>700*             * ;22707                            CC",
"CC           *O*;2700;             *O;22007                            CC",
"CC           *OO>2207;             *O>>2702                            CC",
"CC           OO*>>700;*  *O*       * ;>7002                            CC",
"CC           *OO>270rO OO    ;     *O;22007                            CC",
"CC           *O*>>70r>*O****  O    * ;>7707                            CC",
"CC           * *>220072;OO**** *   ;O;22707                            CC",
"CC           *O*;>200ri2;O****O >  ;O;22707                            CC",
"CC           * *;27000ki0>*O*O;O ; *O>>2707                            CC",
"CC          * O;>>7000kki0>;O**;O O> >>7002                            CC",
"CC         *  O;;27077idddr2;O*O*OO;O;22007                            CC",
"CC        > O*O*>27007iidddi7;O***  ;;>7707                            CC",
"CC       > O**O*;220020riidki0>OO;; O;>2707                            CC",
"CC      OO **OO*>>700200riidkir>O*** ;27007                            CC",
"CC      ; O***O*>270r>770rriikdi>O OO >7702                            CC",
"CC      O ***OO;>>700>2270rridddi7272O 7007                            CC",
"CC     ; ****OO;;2700;>227000ridkki>22 *r02                            CC",
"CC     * **O*OO*>270r;*;22200rriddir2>; *r7                            CC",
"CC     O *****O*;>700*O*;27070riiikkr>72 O7                            CC",
"CC       ****OO;>>20r;O*22>>0000riidkk2>2 *                            CC",
"CC      O*O**OO*>2700**>**272270riiidkr  * *                           CC",
"CC     O *****O*>>70r>;**>>;>700700riixi*O* O              ;2ri2       CC",
"CC     O ;O**OO*;270r;O;>;O>7>>2270rriixdOO* ;        *7rrr7>* O       CC",
"CC     * *****O*>27r0**;O;>;O*;;22770rriki* O   O20r002;*OOO;2;*       CC",
"CC     ; **O*OO*;220r;**;>;O*O;;>2277000rnk70r0rr2;OO O;20rrriO*       CC",
"CC     O  ***OO;;>200;O;;****OO****20ikkkir7>>>OOO;>70r0070007*        CC",
"CC      > ***OO*>7700;O;O*;O O*>2rriir72*O O*;27000707707007r;;        CC",
"CC       ; ;*OO;riir0;****O>iii072>;OOO*>2777727277777777000rO;        CC",
"CC        O **O7didd0;O**O;d7;*   *;>222222222222227727707707OO        CC",
"CC        O  ;O>didir;OO*O77 *;;>>>>>>22>>>2772777727777777r**         CC",
"CC         * O*O2rr00****O02O>;;>>>22;   *O  *7222272727777r ;         CC",
"CC          ; O**>7r0**O**0;*;;;>>2;  2dnMnk0* ;022727727707OO         CC",
"CC           * OO;27;O**O20 ;;;;;>* 2MCCCCCCCCi O7727277770;;          CC",
"CC            * O*OOO**OO72 ;*;;;* dCCCCCCCCCCCM* 722227277O;          CC",
"CC             ; O*O****O7> ;**;; dCCCCCCCCCCCCCMO*02772772OO          CC",
"CC              ; O*O*O**7****;; 7CCCCCCCCCCCCCCCk 2722720**           CC",
"CC               O O;**O>0O***;OOMCCCCCCCCCCCCCCCC7O727270 *           CC",
"CC                ; O** 07 ***; 0CCCCCCCCCCCCCCCCCk 227227*O           CC",
"CC                 > *; 02 **** kCCCCCCCCCCCCCCCCCC*;2227*;            CC",
"CC                  ; **0;O***OOMCCCCCCCCCCCCCCCCCC>O7227O;            CC",
"CC                   O ;7 ****O*CCCCCCCCCCCCCCCCCCC2 2272O*            CC",
"CC                    *;> *O** *CCCCCCCCCCCCCCCCCCC2 727**             CC",
"CC                     7* **O** xCCCCCCCCCCCCCCCCCC;O227 ;             CC",
"CC                     r O*O*** dCCCCCCCCCCCCCCCCCMO;22>OO             CC",
"CC                     r *O*O*; >CCCCCCCCCCCCCCCCCd 2>2*;              CC",
"CC                    *2 *OO*O*O kCCCCCCCCCCCCCCCC>O2>7 ;              CC",
"CC                    0* OO*O*O; ;CCCCCCCCCCCCCCC0 2>2>O*              CC",
"CC                    r  *OO*O*O* 2CCCCCCCCCCCCCd ;>>2**               CC",
"CC                    0 OOO*O*O*** ;CCCCCCCCCCCi ;2>>> *               CC",
"CC                   *2 O*OOOO*OO** OdCCCCCCCx> ;>>>>> *               CC",
"CC                   2* OOOOO*O*O***O  ;0r02O  >>;>>>O*                CC",
"CC                   rO OOOOOO*O*O***;O      ;;;;;;;> >                CC",
"CC                   r OOOOOO*OOO*OO*O***;;;;*;;;;;>> ;                CC",
"CC                  ;2 OOOOOOOOOOOO****O*O*****;>>;* O                 CC",
"CC                  0* OOOOO *OOO*O*OO******;;**O  OO*                 CC",
"CC                  r  OOOOOOOOOOO*OO******OO  O**O                    CC",
"CC                  0 OOOOOOOO*OOOO*O**O    O*O                        CC",
"CC                 *7 OOOOOOO  OO*O     **OO                           CC",
"CC                 2; OOOOOOO*O    O**O                               OCC",
"CC>                r  OOOOO     O;OO                                  >CC",
"CCk                0 OO     ***                                       kCC",
"ZCC0              >2    ;*OO                                         0CCZ",
"ZZCCk>O           ** ;*                                           O>kCCZZ",
"ZZZCCCCCCCCCCCCCCCCCCCCCCCCCCCCCCCCCCCCCCCCCCCCCCCCCCCCCCCCCCCCCCCCCCCZZZ",
"ZZZZCCCCCCCCCCCCCCCCCCCCCCCCCCCCCCCCCCCCCCCCCCCCCCCCCCCCCCCCCCCCCCCCCZZZZ"
};
