/* XPM */
static char *_483780279200[] = {
/* columns rows colors chars-per-pixel */
"89 90 171 2 ",
"   c #9E9E9E",
".  c #A19F9E",
"X  c #9FA39F",
"o  c #9DB79E",
"O  c #9EB99E",
"+  c #A1A09F",
"@  c #A0B99F",
"#  c #9FBAA0",
"$  c #A3A3A2",
"%  c #AAA5A3",
"&  c #A5AAA5",
"*  c #AAA9A6",
"=  c #A7A7A8",
"-  c #A7A8A8",
";  c #ACACAC",
":  c #B0A7A5",
">  c #B5ABA6",
",  c #BCACA7",
"<  c #B3ADAA",
"1  c #A5B4A6",
"2  c #A1BDA2",
"3  c #ABB5AA",
"4  c #AABCAA",
"5  c #B4B3AE",
"6  c #BBB2AB",
"7  c #B6BEAD",
"8  c #BDB9AE",
"9  c #AEAFB0",
"0  c #B0AFB1",
"q  c #A7B1B7",
"w  c #ABB1B5",
"e  c #ACB5BB",
"r  c #AFB8BF",
"t  c #B2B2B2",
"y  c #BAB5B1",
"u  c #B7BAB2",
"i  c #BEBBB3",
"p  c #B3B7B9",
"a  c #B3B9BE",
"s  c #DEB69E",
"d  c #DFB99F",
"f  c #E0B79D",
"g  c #E1BA9F",
"h  c #C4AEA5",
"j  c #C4B1A7",
"k  c #CCB3A6",
"l  c #C3B6AB",
"z  c #C7B8AD",
"x  c #CDBAAB",
"c  c #D4B4A5",
"v  c #DBB6A2",
"b  c #D6BAA6",
"n  c #DBBBA4",
"m  c #D3BCAB",
"M  c #D9BFA9",
"N  c #C5BCB2",
"B  c #CABDB2",
"V  c #C3BFBE",
"C  c #E2BDA0",
"Z  c #A3C4A4",
"A  c #A8C0A7",
"S  c #A5CAA6",
"D  c #A9CCA5",
"F  c #A7C2A8",
"G  c #AAC1A9",
"H  c #AACCA9",
"J  c #B4C3AE",
"K  c #B8CDAD",
"L  c #ADD4A5",
"P  c #B0D6A7",
"I  c #B3D8A7",
"U  c #B2D7A8",
"Y  c #B6D8A9",
"T  c #BCDAAB",
"R  c #AEC2B0",
"E  c #B6C4B2",
"W  c #B5CAB1",
"Q  c #BACEB5",
"!  c #BEC1B8",
"~  c #BBCCB9",
"^  c #B6D3B4",
"/  c #BBD2B7",
"(  c #BCD5BA",
")  c #DFC1A6",
"_  c #DFC2AE",
"`  c #D4C8AE",
"'  c #DBCDAC",
"]  c #C1DDA7",
"[  c #C1DCAC",
"{  c #DED1AA",
"}  c #C5C2B7",
"|  c #CCC6B4",
" . c #C2C5BC",
".. c #CEC3BE",
"X. c #C7CDBD",
"o. c #DFC2B2",
"O. c #D2CBB0",
"+. c #C7DEB2",
"@. c #C1D5BD",
"#. c #C9D2BD",
"$. c #CCDDBB",
"%. c #DED6BA",
"&. c #D0DDBD",
"*. c #E3C4A3",
"=. c #E5CEA6",
"-. c #E0C2AC",
";. c #E5D3A6",
":. c #E4D8A6",
">. c #E4D2AB",
",. c #E5D9AB",
"<. c #E0C3B2",
"1. c #E4D6B2",
"2. c #E5DAB4",
"3. c #E5DCBC",
"4. c #D3E0BF",
"5. c #AFBAC1",
"6. c #B4BDC4",
"7. c #BBBFC1",
"8. c #B6BFC9",
"9. c #B6C0C7",
"0. c #BCC1C5",
"q. c #B7C1C8",
"w. c #BBC4CB",
"e. c #BFC8CF",
"r. c #BFC9D0",
"t. c #C1C4C6",
"y. c #CEC6C4",
"u. c #CCCCC5",
"i. c #C1C6CB",
"p. c #C2C9CE",
"a. c #CBCBCA",
"s. c #D2CFC3",
"d. c #DBCCC6",
"f. c #C6D6C2",
"g. c #CAD6C3",
"h. c #C6D8C2",
"j. c #CED1CE",
"k. c #D8D3C0",
"l. c #D2DDC3",
"z. c #D3DCCC",
"x. c #C3CCD3",
"c. c #C7D0D6",
"v. c #C9D1D6",
"b. c #CDD5DA",
"n. c #CFD8DD",
"m. c #D2D5D6",
"M. c #D4DAD0",
"N. c #D9DED3",
"B. c #D1D7DB",
"V. c #D2DADE",
"C. c #DDDFDC",
"Z. c #E5DEC4",
"A. c #E5DFC9",
"S. c #E0DED0",
"D. c #E0DFD9",
"F. c #CEE0C0",
"G. c #D6E1C4",
"H. c #D9E3C7",
"J. c #D6E1CB",
"K. c #D9E2CC",
"L. c #DDE3D3",
"P. c #DFE4D9",
"I. c #E5E0CC",
"U. c #E5E2D3",
"Y. c #E2E4DD",
"T. c #D6DDE0",
"R. c #D9DFE2",
"E. c #DBE1E4",
"W. c #E5E6E4",
"Q. c #FFFFFF",
"!. c None",
/* pixels */
"!.!.!.Q.Q.Q.Q.Q.Q.Q.Q.Q.Q.Q.Q.Q.Q.Q.Q.Q.Q.Q.Q.Q.Q.Q.Q.Q.Q.Q.Q.Q.Q.Q.Q.Q.Q.Q.Q.Q.Q.Q.Q.Q.Q.Q.Q.Q.Q.Q.Q.Q.Q.Q.Q.Q.Q.Q.Q.Q.Q.Q.Q.Q.Q.Q.Q.Q.Q.Q.Q.Q.Q.Q.Q.Q.Q.Q.Q.Q.Q.Q.Q.Q.Q.Q.!.!.!.",
"!.Q.Q.Q.Q.Q.Q.Q.Q.Q.Q.Q.Q.Q.Q.Q.Q.Q.Q.Q.Q.Q.Q.Q.Q.Q.Q.Q.Q.Q.Q.Q.Q.Q.Q.Q.Q.Q.Q.Q.Q.Q.Q.Q.Q.Q.Q.Q.Q.Q.Q.Q.Q.Q.Q.Q.Q.Q.Q.Q.Q.Q.Q.Q.Q.Q.Q.Q.Q.Q.Q.Q.Q.Q.Q.Q.Q.Q.Q.Q.Q.Q.Q.Q.Q.Q.Q.Q.!.",
"!.Q.Q.a.$ +                                                                                                                                                             $ a.Q.Q.!.",
"Q.Q.a.                                                                                                                                                                      a.Q.Q.",
"Q.Q.$                                                                                                                                                                       $ Q.Q.",
"Q.Q.                                                        + +                                                                                                               Q.Q.",
"Q.Q.                                                          +         + +                                                                                                   Q.Q.",
"Q.Q.                                                      $ t 0.p.x.x.x.w.w.7.p -                                                                                             Q.Q.",
"Q.Q.                                              +   = 0.b.b.b.b.c.c.x.x.x.w.r.w.0.t +                                                                                       Q.Q.",
"Q.Q.                                              $ 7.n.B.B.b.b.b.c.c.c.x.x.x.p.w.w.w.8.;                                                                                     Q.Q.",
"Q.Q.                                            9 c.n.n.T.B.n.b.m.v.c.c.x.x.x.r.r.w.w.q.w.p                                                                                   Q.Q.",
"Q.Q.                                          t B.T.T.T.T.T.n.n.b.b.v.c.x.x.p.p.r.w.w.w.q.9.a $                                                                               Q.Q.",
"Q.Q.                                    + + t B.T.T.T.T.T.T.n.n.b.b.c.c.c.x.x.p.r.w.w.w.w.8.6.a                                                                               Q.Q.",
"Q.Q.                                    + ; V.T.T.T.T.T.T.T.n.n.m.b.b.c.v.c.x.x.x.i.w.w.w.9.9.6.a X                                                                           Q.Q.",
"Q.Q.                                    $ b.T.T.R.R.R.R.T.T.V.n.n.b.b.b.c.v.x.x.p.w.w.w.w.8.8.6.6.t                                                                           Q.Q.",
"Q.Q.                                    i.T.T.R.R.R.R.R.T.T.T.V.B.b.b.v.v.x.x.a.x.r.r.w.w.8.9.6.6.6.;                                                                         Q.Q.",
"Q.Q.                                  t V.R.R.R.E.E.E.E.R.T.T.V.V.B.b.b.v.c.v.p.x.x.e.w.0.9.9.6.6.6.a                                                                         Q.Q.",
"Q.Q.                                . v.T.V.R.R.E.E.E.E.E.R.T.T.B.b.m.v.v.c.x.x.e.x.w.e.w.w.9.8.8.6.6.w                                                                       Q.Q.",
"Q.Q.                                t T.T.T.R.E.E.E.E.E.E.R.T.V.V.n.b.b.v.v.c.p.x.p.e.w.w.w.q.8.8.6.5.a                                                                       Q.Q.",
"Q.Q.                                p.V.T.T.R.R.E.W.E.W.R.R.T.V.V.B.B.b.v.v.c.c.x.r.e.w.w.w.q.q.6.6.6.6.;                                                                     Q.Q.",
"Q.Q.                              * V.V.T.T.E.E.E.E.E.E.R.T.T.B.B.n.b.b.v.c.c.x.x.x.w.w.w.w.q.9.8.6.6.r a                                                                     Q.Q.",
"Q.Q.                              a n.T.T.T.R.R.E.E.E.E.R.T.T.T.V.B.b.b.b.v.v.x.x.p.r.r.w.w.w.9.9.6.6.r a $                                                                   Q.Q.",
"Q.Q.                              p.V.T.T.T.T.E.E.R.E.R.R.T.T.n.B.B.n.b.c.c.x.x.x.x.e.e.w.w.q.q.6.9.6.6.6.-                                                                   Q.Q.",
"Q.Q.                            + v.V.V.V.T.T.T.R.R.R.R.R.T.T.T.V.b.b.b.b.c.c.x.x.x.x.w.w.w.w.q.q.7.6.6.r 9                                                                   Q.Q.",
"Q.Q.                            * n.V.V.n.T.T.T.T.R.R.T.T.T.b.B.B.n.b.b.c.v.c.p.x.x.e.e.w.0.q.q.8.8.6.5.5.p                                                                   Q.Q.",
"Q.Q.                            ; n.n.V.T.n.T.T.T.T.T.T.T.T.T.b.b.n.b.b.b.v.c.c.x.x.e.w.w.w.w.q.6.8.6.6.5.5.                                                                  Q.Q.",
"Q.Q.                            9 n.n.n.T.T.n.T.T.T.T.T.T.T.b.T.b.b.b.b.v.c.c.x.x.r.r.w.w.w.q.q.7.8.6.6.5.t                                                                   Q.Q.",
"Q.Q.                            w b.n.n.n.b.T.T.T.T.T.T.T.B.n.n.n.b.b.v.v.c.c.x.x.x.r.r.e.w.q.q.9.8.6.6.6.e                                                                   Q.Q.",
"Q.Q.                            p b.n.b.n.n.n.T.n.T.T.n.T.b.n.n.b.b.b.b.v.c.c.x.x.r.r.w.w.w.0.q.9.6.6.6.5.t +                 $ .     .                                       Q.Q.",
"Q.Q.                            t b.b.b.b.n.n.T.T.n.n.T.n.n.b.b.b.b.v.v.v.c.c.x.x.r.r.e.w.w.0.q.9.6.6.6.6.e             $ p u.N.M.g. .p ; $                                   Q.Q.",
"Q.Q.                            w b.b.b.n.B.n.n.n.V.n.b.b.b.b.b.b.v.c.c.c.c.x.x.r.r.r.w.w.w.q.q.6.9.6.a 5.w   .   $ p a.N.Y.P.P.P.L.L.L.K.z.j.X.! 5 * $       X               Q.Q.",
"Q.Q.                            9 b.b.b.b.b.n.n.b.b.R.T.b.b.b.b.c.b.c.c.c.c.x.r.r.w.r.w.w.w.q.9.9.9.6.6.5.p + p a.P.Y.W.Y.P.Y.P.U.L.L.L.L.K.K.H.J.J.l.l.#. .7 5 $             Q.Q.",
"Q.Q.                            = b.c.b.b.b.b.b.n.T.W.d.v.b.b.v.v.c.c.c.c.c.r.x.r.r.w.w.w.w.q.9.9.6.6.6.x.B.Y.W.W.W.W.Y.Y.Y.P.P.L.L.L.L.K.K.K.K.K.H.J.G.G.4.4.4.&.$.X.J .     Q.Q.",
"Q.Q.                              x.c.c.c.c.b.b.b.E.W.<.y.b.v.v.c.c.c.c.r.r.r.r.r.w.w.w.w.q.8.6.q.p.m.P.W.W.W.W.W.W.Y.W.Y.Y.P.P.P.P.L.L.K.L.K.K.H.z.H.G.G.4.G.4.&.$.K Z       Q.Q.",
"Q.Q.                              8.x.c.c.c.v.c.b.W.W.M c c.x.x.c.c.r.x.x.x.r.r.r.w.w.w.q.q.x.B.W.W.W.W.W.W.W.W.W.W.W.Y.Y.P.P.P.P.L.L.L.L.L.K.K.K.K.G.G.l.G.H.l.X.Z o @       Q.Q.",
"Q.Q.                            . 5.r.x.x.x.x.x.E.W.W.M v y.x.x.r.r.x.r.r.w.r.r.w.0.q.w.q.f.L.Y.W.W.W.W.W.W.W.W.W.W.W.D.W.W.P.P.P.U.L.L.L.K.K.K.H.H.H.G.H.H.@.A o O @ @       Q.Q.",
"Q.Q.                            . % i.r.r.x.r.b.W.W.W.o.s c i.x.x.r.r.r.w.r.w.w.w.w.w.q.8./ ] [ h.K.Y.W.W.W.W.W.W.W.W.W.P.P.P.P.P.L.L.L.L.L.K.K.z.H.J.K.g.G O O 2 2 2 @       Q.Q.",
"Q.Q.                            .   8.8.e.i.i.E.W.W.W.o.s s m r.w.e.r.w.w.w.w.w.0.q.9.9.8./ [ [ [ [ [ $.J.P.W.W.W.W.Y.Y.W.P.Y.P.P.Y.L.L.K.L.K.H.K.U.z.E # # 2 # 2 2 2 2       Q.Q.",
"Q.Q.                              . 0 w.i.8.a.W.W.W.W.o.s s v i.w.e.w.0.w.0.w.w.9.9.q.6.6.~ [ [ [ [ [ T T +.$.J.P.W.W.W.Y.Y.Y.P.P.L.L.L.L.K.L.P.L.~ # # # # 2 2 2 2 2 2       Q.Q.",
"Q.Q.                              . . 8.8.i.D.W.W.W.W.o.s s f c w.w.w.w.w.q.8.8.9.8.7.8.6.~ [ [ [ [ [ +.[ [ ] T +.$.J.Y.W.W.E.P.P.L.L.L.L.P.C.f.2 # # # # 2 # 2 2 2 Z @       Q.Q.",
"Q.Q.                                  0 8.a.D.D.Y.W.W.<.f f s s t.q.9.9.9.8.9.6.9.9.6.a 6.Q T [ [ [ [ T [ [ [ +.T ] [ +.&.L.P.W.Y.P.P.L.Y.M.4 # O 2 2 2 # 2 # Z Z O Z 2       Q.Q.",
"Q.Q.                                    7.S.U.U.Y.U.W.<.f f s s b 8.9.8.6.8.6.9.6.6.a 6.5.Q ] [ T [ [ +.[ [ T [ +.[ [ [ T ] +.F.L.Y.Y.P.~ # o # 2 2 O # Z 2 2 # 2 Z Z Z       Q.Q.",
"Q.Q.                                    d.I.U.U.U.U.W.<.s s s s s N 6.9.6.6.6.6.6.a 6.r r W T ] [ T [ T [ [ [ [ T [ [ [ [ [ T ] ] +.z.1 o # # # O 2 2 2 2 2 # Z O Z 2 Z       Q.Q.",
"Q.Q.                                  0 A.I.U.U.U.U.W.<.s s C s d n a 6.6.6.5.6.a r a r r Q ] T [ T T [ [ T T [ [ T [ [ [ [ [ +.[ [ f.@ # # # # 2 2 2 2 # Z Z # Z Z 2 Z       Q.Q.",
"Q.Q.                                  d.A.A.A.S.U.U.W.<.s f C f s f z 6.5.p 5.p r r p r e W T T T [ T [ [ [ T [ [ T [ [ T [ [ [ [ [ h.2 O 2 2 # 2 2 2 Z 2 Z # Z Z Z Z 2       Q.Q.",
"Q.Q.                              . t Z.A.A.A.A.A.U.Y.<.s v s f C f v p 5.5.r p r r e e q W T T T T T T T [ T [ [ [ T [ [ [ [ T [ +.h.2 2 2 # 2 2 2 Z 2 Z 2 Z Z Z Z Z Z       Q.Q.",
"Q.Q.                              $ %.Z.Z.A.A.A.A.A.W.<.s s s v s f f x r r r r e e q q q W T T T T T T T T [ T T T [ T T [ [ T [ [ g.# 2 # 2 Z 2 Z O Z Z Z 2 Z Z Z Z 2       Q.Q.",
"Q.Q.                              i 3.Z.3.Z.A.A.A.A.U.M s s C s v f C C y q q q q q q e t E T T T T T T T T T T T [ T [ T T T +.T [ f.# 2 2 2 O Z O Z Z 2 Z Z Z Z Z Z Z       Q.Q.",
"Q.Q.                            $ 3.3.3.3.Z.Z.Z.A.A.U.<.s s f d f f s f c w q q q q t w 3 J Y T K T Y T T T T T T T T T [ [ T [ T [ h.# 2 Z # Z # Z # Z Z Z Z Z Z Z S Z       Q.Q.",
"Q.Q.                            | 2.2.3.3.3.3.Z.3.Z.U.<.s s d d C n f C C y q w t < ; 9 9 J T T T T T Y Y T K T T T T T T T T T T +.h.2 2 2 Z # Z Z Z Z Z Z Z Z Z S Z Z       Q.Q.",
"Q.Q.                          = 2.2.2.2.2.3.3.3.3.Z.U.<.s d f f v f f C C v 0 < ; t 5 9 0 E Y Y Y Y Y Y T T Y T T T Y T T T T T T T h.# Z Z # Z Z Z Z Z Z Z Z Z S Z Z Z       Q.Q.",
"Q.Q.                          | ,.2.2.2.2.3.3.2.3.3.U.<.s d C n C f f v C f l 3 0 t w < 0 E Y Y T T Y T Y Y T T Y T Y T T T T T T T h.Z # Z Z Z 2 # Z Z Z S Z Z Z S S S       Q.Q.",
"Q.Q.                        ; ,.,.,.,.2.2.2.2.2.3.3.U.<.f f g f f f f n C f n t t 9 t ; 9 E I Y Y Y Y Y Y T T Y Y T T Y K Y Y T T T h.Z 2 2 2 Z Z Z Z Z Z S Z S S Z S Z       Q.Q.",
"Q.Q.                        ` :.,.,.,.2.2.2.2.2.2.2.I.<.d f g g C n f f f g f x ; t 0 t 9 E I Y Y Y Y Y Y Y Y T T Y Y T T T T Y T T h.Z Z Z Z Z Z Z Z Z S Z S Z S S S F       Q.Q.",
"Q.Q.                    X 5 ;.:.:.:.,.,.,.,.1.2.2.2.I.-.d f g f d d f C n f C f 5 ; ; ; - E I U Y Y Y Y Y Y Y Y Y Y Y Y Y Y Y T Y T e.Z 2 Z Z Z Z Z Z S Z S Z S S S S S       Q.Q.",
"Q.Q.                    X ' :.:.:.:.:.,.,.,.1.,.1.2.I.-.d f f n d d d C C f d f x ; * = $ E I I U Y Y Y Y Y Y Y Y Y T Y T T Y Y Y I $.Z Z Z Z Z Z Z S Z S Z S S S S S S       Q.Q.",
"Q.Q.                    8 :.;.:.:.:.;.:.:.,.,.,.,.,.A.-.d d d d d d d g C f g g g 6 + $   E P I U I Y U Y Y Y Y Y Y Y Y Y Y Y T Y T F.Z Z Z Z Z S Z S Z S S S S S F S S X     Q.Q.",
"Q.Q.                  + { :.:.;.:.;.:.:.:.:.:.:.,.,.Z.-.f d d d C f g d d n C C g M $   + u P U U U U U U I U Y Y Y Y Y Y Y Y Y Y Y h.Z Z Z S Z Z S Z S S S S S S S S S       Q.Q.",
"Q.Q.                  } ;.;.;.:.;.:.;.:.;.:.:.:.,.,.I.-.f d C d n g g d f v C C g g y     E L L U U U U U Y Y U Y U Y Y Y Y Y Y I Y e.Z Z Z S Z Z S Z S S S S S D D S Z       Q.Q.",
"Q.Q.                $ ;.;.:.;.;.:.;.:.:.:.:.:.:.:.:.3.-.f d f g f g g C C C C C C g n %   J L I U U U U U U U U U Y U U Y U Y Y I I +.Z S Z Z S Z S S S S S S S S S F &       Q.Q.",
"Q.Q.              + ` ;.;.;.;.:.;.:.;.;.;.:.;.:.:.:.3.C f f C g f C v C C C C v C C g z X 1 L L U P P U U U U L U U P Y Y Y Y P Y Y e.S S Z S Z S S S S S S S S Z 4 X         Q.Q.",
"Q.Q.              * =.;.;.;.;.;.;.;.;.:.:.;.:.:.:.:.3.o.f C n f C C f C C C C C C g g *.$ + 1 S D L I L L U U U U U P P Y P P Y I I +.S Z Z S S S S S S S S S S 1             Q.Q.",
"Q.Q.              ` ;.;.;.;.;.;.;.;.;.:.;.;.:.;.:.;.3._ f f C f v C C C C C C C *.g g g m +   X 3 H L L U U P P P P P Y P P P Y I I e.S S S S S S S H S S S G $ +             Q.Q.",
"Q.Q.            6 ;.;.;.;.;.;.;.;.;.:.;.;.:.:.:.;.;.2._ f f v s C C C f v C C C g g *.C g ;       X 1 D D P P P P P P P P P P P I I ^ Z Z H S S S S S S Z 1 +                 Q.Q.",
"Q.Q.          X ' ;.;.=.;.;.;.;.;.;.;.;.;.;.;.;.;.:.2.-.g f C C C g g g C C C C C C C C C C + + X     + @ D L I U L U L U U L I U I ( Z S S S S S S S Z ; X                   Q.Q.",
"Q.Q.          8 =.=.=.;.;.=.=.;.;.;.;.;.;.;.;.,.;.;.2.-.g g C C g g C C g C C C C C C C C C 6 +         + + 2 D L U U U U L I L L U ( S S S S S S Z 4 X                       Q.Q.",
"Q.Q.        $ ' =.;.=.;.=.;.=.;.=.;.;.;.;.;.;.;.;.;.2.-.f f C C C C C C C C C C C C C *.C C *.+             . + 2 S L P I L U U U U ^ S S S S S Z 3                           Q.Q.",
"Q.Q.        x =.=.=.;.=.=.;.;.=.;.;.=.;.;.;.;.;.:.;.2.-.f v C C C C C C C C C C *.C C C C C C C             . + X X 4 D L U I L U U ^ S S S Z F &                             Q.Q.",
"Q.Q.        M *.;.;.=.;.;.=.=.;.=.;.=.;.;.;.;.;.;.;.1.-.f C C C C C C C C C C C C C C *.C C C C %                     & 1 L L P U P ^ S S Z 4 $                               Q.Q.",
"Q.Q.        + x C =.=.=.=.=.;.=.;.=.;.;.;.=.;.=.;.;.1.-.f C C C C C C C C C C C C C C C C C C C x                       X & F L L P ^ S Z 1                                   Q.Q.",
"Q.Q.        + X 6 *.*.;.=.=.=.;.=.=.;.=.=.;.=.>.;.;.1.-.f C C n C C C C C *.C C *.C C C C C *.C C <                           + F H H 4 $                                     Q.Q.",
"Q.Q.            X * n *.=.;.=.;.;.=.=.;.;.=.;.;.=.;.1.C f C C C C C C C C C C C C C C *.*.C C C h %                               1 1                                         Q.Q.",
"Q.Q.                . l *.=.;.=.=.=.;.=.=.>.=.;.;.;.1.*.f C C C C C C C *.C C C C C *.g g f c %                                                                               Q.Q.",
"Q.Q.                  . > ) *.;.>.=.=.=.=.;.=.=.=.=.>.-.C C C C C *.C C C C *.C C C g f c >                                                                                   Q.Q.",
"Q.Q.                      + b *.=.=.=.=.=.;.=.;.;.;.>.*.C C C C C C C C C C C C C C v , .                                                                                     Q.Q.",
"Q.Q.                        X j *.*.=.=.>.=.=.;.=.=.>.*.f C C C C C C C C *.C C f k %                                                                                         Q.Q.",
"Q.Q.                            > ) *.;.=.=.=.=.=.=.>.C C C C C g *.g g g f f k :                                                                                             Q.Q.",
"Q.Q.                              + k *.=.=.=.=.=.>.;.*.C C C C *.g *.g g c >   X                                                                                             Q.Q.",
"Q.Q.                                X 6 *.*.=.=.=.=.;.*.C C C C *.g s v h +                                                                                                   Q.Q.",
"Q.Q.                                    * b *.=.=.=.=.*.C C C C f s j %   +                                                                                                   Q.Q.",
"Q.Q.                                        l ) =.=.=.*.f *.g f k : .                                                                                                         Q.Q.",
"Q.Q.                                          > n *.;.*.g g s ,                                                                                                               Q.Q.",
"Q.Q.                                            $ x *.g v ,                                                                                                                   Q.Q.",
"Q.Q.                                            X   6 k %                                                                                                                     Q.Q.",
"Q.Q.                                                                                                                                                                          Q.Q.",
"Q.Q.$                                                                                                                                                                       $ Q.Q.",
"Q.Q.a.                                                                                                                                                                      a.Q.Q.",
"!.Q.Q.a.$                                                                                                                                                               $ a.Q.Q.!.",
"!.Q.Q.Q.Q.Q.Q.Q.Q.Q.Q.Q.Q.Q.Q.Q.Q.Q.Q.Q.Q.Q.Q.Q.Q.Q.Q.Q.Q.Q.Q.Q.Q.Q.Q.Q.Q.Q.Q.Q.Q.Q.Q.Q.Q.Q.Q.Q.Q.Q.Q.Q.Q.Q.Q.Q.Q.Q.Q.Q.Q.Q.Q.Q.Q.Q.Q.Q.Q.Q.Q.Q.Q.Q.Q.Q.Q.Q.Q.Q.Q.Q.Q.Q.Q.Q.Q.Q.!.",
"!.!.!.Q.Q.Q.Q.Q.Q.Q.Q.Q.Q.Q.Q.Q.Q.Q.Q.Q.Q.Q.Q.Q.Q.Q.Q.Q.Q.Q.Q.Q.Q.Q.Q.Q.Q.Q.Q.Q.Q.Q.Q.Q.Q.Q.Q.Q.Q.Q.Q.Q.Q.Q.Q.Q.Q.Q.Q.Q.Q.Q.Q.Q.Q.Q.Q.Q.Q.Q.Q.Q.Q.Q.Q.Q.Q.Q.Q.Q.Q.Q.Q.Q.Q.Q.!.!.!."
};
