/* XPM */
static char *btn_arrow_left_select[] = {
/* columns rows colors chars-per-pixel */
"74 112 81 1 ",
"  c #A9B7A9",
". c #A9BDA9",
"X c #A9C4A9",
"o c #A8CCA9",
"O c #A8D4AA",
"+ c #A7DFA9",
"@ c #A8DBA9",
"# c #B3DCAD",
"$ c #AFC4B0",
"% c #AECDB0",
"& c #B1C4B1",
"* c #B3CCB4",
"= c #BAC6BA",
"- c #B7CBB8",
"; c #BBCEBB",
": c #AED5B0",
"> c #AFDEB0",
", c #B4D3B5",
"< c #B4DCB5",
"1 c #BBDFB5",
"2 c #B7D4B8",
"3 c #BBD4BC",
"4 c #B7DCB8",
"5 c #BBDCBC",
"6 c #A7E4A9",
"7 c #ADE1AF",
"8 c #A7EBA9",
"9 c #AEE9AF",
"0 c #A7F1A9",
"q c #AEE2B0",
"w c #AFEDB1",
"e c #B4E1B6",
"r c #BEE0B6",
"t c #B4EBB6",
"y c #B7E2B8",
"u c #BBE1BC",
"i c #B2F2B4",
"p c #C1E2B7",
"a c #CAE7BE",
"s c #BFDDC0",
"d c #BFE2C0",
"f c #C0CFC0",
"g c #C3D5C4",
"h c #C3DCC3",
"j c #C9D5CA",
"k c #C7DCC8",
"l c #C9DCCA",
"z c #CFDDD0",
"x c #D1DFD1",
"c c #C3E2C4",
"v c #CAE7C5",
"b c #C5E8C6",
"n c #CBE8C4",
"m c #C7E2C8",
"M c #CBE4CB",
"N c #C6E8C9",
"B c #CBEACC",
"V c #D1EAC6",
"C c #D2EBC9",
"Z c #D8EECF",
"A c #CFE6D0",
"S c #CFE9D0",
"D c #D1E6D1",
"F c #D4EAD4",
"G c #DAE5DA",
"H c #D7ECD8",
"J c #DAEEDB",
"K c #DDF1DD",
"L c #E6F5DA",
"P c #DFEAE0",
"I c #E2ECE2",
"U c #E7EFE8",
"Y c #E9EFE9",
"T c #E3F4E3",
"R c #E6F9E7",
"E c #EAF3EB",
"W c #ECFBEC",
"Q c #F0F4F0",
"! c #F3FDF3",
"~ c #FCFFFC",
"^ c None",
/* pixels */
"^^^^^^^^^^^^^^^^^^^^^^^^^^^^^^^^^^^^^^^^^^^^^^^^^^^^^^^^^^^^^^^^^^^^^^^^^^",
"^^^^^^^^^^^^^^^^^^^^^^^^^^^^^^^^^^^^^^^^^^^^^^^^^^^^^^^^^^^^^^^^^^^^GGI^^^",
"^^^^^^^^^^^^^^^^^^^^^^^^^^^^^^^^^^^^^^^^^^^^^^^^^^^^^^^^^^^^^^^^^^f=lGzg^^",
"^^^^^^^^^^^^^^^^^^^^^^^^^^^^^^^^^^^^^^^^^^^^^^^^^^^^^^^^^^^^^^^^^-.sIYG--^",
"^^^^^^^^^^^^^^^^^^^^^^^^^^^^^^^^^^^^^^^^^^^^^^^^^^^^^^^^^^^^^^^^& XzYEG;X^",
"^^^^^^^^^^^^^^^^^^^^^^^^^^^^^^^^^^^^^^^^^^^^^^^^^^^^^^^^^^^^^^x..XXzQQx2.z",
"^^^^^^^^^^^^^^^^^^^^^^^^^^^^^^^^^^^^^^^^^^^^^^^^^^^^^^^^^^^^^g..XX x~Yj* g",
"^^^^^^^^^^^^^^^^^^^^^^^^^^^^^^^^^^^^^^^^^^^^^^^^^^^^^^^^^^^^-.XX. f!~Ig$.j",
"^^^^^^^^^^^^^^^^^^^^^^^^^^^^^^^^^^^^^^^^^^^^^^^^^^^^^^^^^^^$.XX. z!WWG*..k",
"^^^^^^^^^^^^^^^^^^^^^^^^^^^^^^^^^^^^^^^^^^^^^^^^^^^^^^^^^x..XX..G!RKWz.X.j",
"^^^^^^^^^^^^^^^^^^^^^^^^^^^^^^^^^^^^^^^^^^^^^^^^^^^^^^^^g..XX &UWKJTWf X.j",
"^^^^^^^^^^^^^^^^^^^^^^^^^^^^^^^^^^^^^^^^^^^^^^^^^^^^^^^-.XX..fEWHKKKR3.X.k",
"^^^^^^^^^^^^^^^^^^^^^^^^^^^^^^^^^^^^^^^^^^^^^^^^^^^^^^$.XX..jQRHJKJKT;.X.k",
"^^^^^^^^^^^^^^^^^^^^^^^^^^^^^^^^^^^^^^^^^^^^^^^^^^^^z..XX..G!LHJJJJJT;.X.j",
"^^^^^^^^^^^^^^^^^^^^^^^^^^^^^^^^^^^^^^^^^^^^^^^^^^^g..XX.&KWJJJJJJJHT;...k",
"^^^^^^^^^^^^^^^^^^^^^^^^^^^^^^^^^^^^^^^^^^^^^^^^^^-..XX fURHHJJJJHJHKf.X.j",
"^^^^^^^^^^^^^^^^^^^^^^^^^^^^^^^^^^^^^^^^^^^^^^^^^&.XX. jQTHHHHHHHHHHT-.X.j",
"^^^^^^^^^^^^^^^^^^^^^^^^^^^^^^^^^^^^^^^^^^^^^^^z..XX.XDWJHHHHHHHHHFFT;.X.j",
"^^^^^^^^^^^^^^^^^^^^^^^^^^^^^^^^^^^^^^^^^^^^^^g..XX.$GWHSHHHHHFHFHFFK;.X.j",
"^^^^^^^^^^^^^^^^^^^^^^^^^^^^^^^^^^^^^^^^^^^^^-..XX -TTHFHHHFFFHFHFFFK;.X.k",
"^^^^^^^^^^^^^^^^^^^^^^^^^^^^^^^^^^^^^^^^^^^^$.XX..jRJDHHFFFFFFFFFFFDK;.X.k",
"^^^^^^^^^^^^^^^^^^^^^^^^^^^^^^^^^^^^^^^^^^D..XX..zRJSHFFFFFFFFFFFFSDK;.X.j",
"^^^^^^^^^^^^^^^^^^^^^^^^^^^^^^^^^^^^^^^^^g..XX.&GTFDFFFFFFFFFDSDFDFSJ;XX.k",
"^^^^^^^^^^^^^^^^^^^^^^^^^^^^^^^^^^^^^^^^-..XX.-PLSFFFFDDFDFDSSFDDDDSG3.X.k",
"^^^^^^^^^^^^^^^^^^^^^^^^^^^^^^^^^^^^^^^&.XX..gKJDZFDFFDDDFFAAASADDDAJ2XX.k",
"^^^^^^^^^^^^^^^^^^^^^^^^^^^^^^^^^^^^^x...X..zTGSFDDDDDDSAAAASASAMSSMH;XXXl",
"^^^^^^^^^^^^^^^^^^^^^^^^^^^^^^^^^^^^f.XXX.&DLASDAFADSASAABABAAAABSBMH;XXXj",
"^^^^^^^^^^^^^^^^^^^^^^^^^^^^^^^^^^^-.XXX.-GKAADAAASAASAAAAAAABMAMMAMH3XXXk",
"^^^^^^^^^^^^^^^^^^^^^^^^^^^^^^^^^^$.XX..fKFMDBADAAAAAMSSABSMMBMMMMBMH;XXXk",
"^^^^^^^^^^^^^^^^^^^^^^^^^^^^^^^^x..XX.XjKDASAAACMBMAABMMAMMMMMABBMMmH;Xo.l",
"^^^^^^^^^^^^^^^^^^^^^^^^^^^^^^^g..XX.$DJSMSBAMAMBMBMMMAMMMMBMMMMMMMmH2XX.k",
"^^^^^^^^^^^^^^^^^^^^^^^^^^^^^^-.XXX.*GFMMAMMMAMMAAMMMBMMvMMMMmmvmmmcF3XoXl",
"^^^^^^^^^^^^^^^^^^^^^^^^^^^^^$.XXX.3HDMMMMMAMMMMMvMMMMMMMmMMNMvmcMvcF;XoXk",
"^^^^^^^^^^^^^^^^^^^^^^^^^^^D..XX.XkHAlAMMMMMMMMMMMMmmmvmMmmMcmNmMcmcF3XoXk",
"^^^^^^^^^^^^^^^^^^^^^^^^^^f.XXXX$lFMlMMMMMMMMMMmmmmmMNmmmcmccmcccmcdS3ooXk",
"^^^^^^^^^^^^^^^^^^^^^^^^^-.XoX.-ADmMMMMllMmmMmmmmvmmcNmmNcNcvmccmcccS3XoXk",
"^^^^^^^^^^^^^^^^^^^^^^^^$.XoX.3DAlmMmmmMmmmmmmmmmmmccmcccccccccmcccuF3Xook",
"^^^^^^^^^^^^^^^^^^^^^^xXXXXXXgCMmcMlMkkmkmmmmmccmcmmmccccccccccccccuB2ooXk",
"^^^^^^^^^^^^^^^^^^^^^gXXoXX$cDllmklmkcmmmcmccccccccccccccccccccdcdcuF3Xook",
"^^^^^^^^^^^^^^^^^^^^-.XXXX-mxcmkcmccmmcccckcckhccchcahdcccdcdcsdddcuS3ooXk",
"^^^^^^^^^^^^^^^^^^^$XXXXX2MlckkcckckmhcmhcchcchddccucccccucdccucsdduB5oool",
"^^^^^^^^^^^^^^^^^z.XXoXogAkckkcckcchchhcccccchdcchcc5ucudducuuuudud4SsooXm",
"^^^^^^^^^^^^^^^^g.XoXX%hlkhhhckchakhhcchccscccch5ddhcucuucudduucpduyA3oOok",
"^^^^^^^^^^^^^^^-XXoXX*klkhhkhhghhhhhcsscssds5cududd5cusddu5u5uuuuuu4M5oool",
"^^^^^^^^^^^^^^$XXooX2lkhhhhhhhshshhsshpsdssddssdhusud5uuduuuuuuuuuuyB5oOok",
"^^^^^^^^^^^^zXXXoXX3lhhhgshshhsssssssshhdsdsuuuduuuduuuduuuuuuuuuu4<M5oook",
"^^^^^^^^^^^gXXoXX%glgfsgssssg5ssss5sss5p5d5dsd5u5u5uu44uuuuuyuuuyyu4Bsooom",
"^^^^^^^^^^-XXooX%hgshsssg5ggsssssss555s5s5u5u5u5uu5uuuuuu441yuyyyyy>Bsoool",
"^^^^^^^^^%XXoXo,kh3gsgs3gg53ssss55h5h555u5u54uu454uuyu1yyy4yyyyyyyy>B5oooc",
"^^^^^^^xXXXoXo2kggg335g3553s353555555554554454uyuuy4y4y44yyyyyy4yee>Bho@ok",
"^^^^^^fXXooo$sgff33g353s3ss3555335344555444uu1u4y44yyey4yyyeyeqyyeq>Nsoool",
"^^^^^2X%oXX*ggs33s333g535353353135554444u444y44y<yy4y4yyeeeeeeyqyqy>BsOool",
"^^^^*o%:%o-gs;3s33s33333333534344344444444444y<44yy4qyyqyyqyey<eyqy>NcoOOk",
"^^^%%3;,:;gs;;;;3;;;3233334322434444244444444y4q4>4q>yeeqqyqqqqqqqq+bsoOol",
"^^2*hkshkg;;;;;;3322322212224224<224<<<<<>><><>>>q>>>q>q>qqqqqq>9q77BcoOok",
"^G,hllzxzgffs;s333333332331234422424<244144y44uyuyuuuuuudpubbbBBBBBBKsoOom",
"^A2llAGjf=&&**&*o**-22222323551>5s5555ppuupccuccdccdcabbbduuuuuyeeyee@OOom",
"^G,slzlj=......XX.XXXXoXX%oo%ooo:%:O::::OO:@:@O@@@+@@@@@+6@@66++@@++6:oOOm",
"^^33kksss$....X.XXXXXXoXoXoooooooOoooOOOoOOOOO@O@@@@@@@++++++++++6+6q:OOol",
"^^P%*s3,--$.X.XXXXXXXoXoooXoooooooOOOOOOO@@@@@@@@@@@@+@@++++6+++6+6+9<OOom",
"^^^^,o*%o%,$.X.XXXXXXoXoXooooooOoooOOOO@O@OOO@@@@@@@++++++++++6+66+67<OOOl",
"^^^^^2ooooO,-..XXXXXXXoXoooooOOoOOoOOOOOOO@@@O@@@@@+++++++6+666666669#OOom",
"^^^^^^sXoooO:-$XXXXXoXXoooXooooooOOOOOOO@O@O@@@@@@@+6+++6+66666666669<OOOm",
"^^^^^^^AXoooo:2$XXXXoXoXoooooOOOoOoO@OOOOO@@@@@@@++++++6+6+6666686667<OOol",
"^^^^^^^^^%XOoo:2*XXXoXooooooooOooOO+o@O+OO+O@@+@@+++++++6666666666668#OOol",
"^^^^^^^^^^2XoooO2,XXXooXoooooOoOOOOOOOOO+OO+O+@@@++++++++666666868868@OOOm",
"^^^^^^^^^^^kooOoo<2%XXXoooooooOoOoOOOOO@OOO+@+@@+++++++66666668686860#OOOl",
"^^^^^^^^^^^^looooo:2%XoooXoooOoOoOOOO@@O++O+@@@+++++66+6+686866868689#OOOl",
"^^^^^^^^^^^^^^%oOoo:4,ooooooOooOoOOOOOOOO+O@+@@++++66+66668666868668w1OOom",
"^^^^^^^^^^^^^^^3ooOoO22%oooooOoOOOOO@O@@O@@@@@+@++++6666666888688888w1OOOm",
"^^^^^^^^^^^^^^^^sooooO,3ooooooOOOOOOOOO@@O@@@@+++++66666688668688888weO@Ol",
"^^^^^^^^^^^^^^^^^zooOoO:<OooOoOoOOOOO@O@@@@++@++++6+6666686688886880weoOOm",
"^^^^^^^^^^^^^^^^^^^%oooOO32oooOOOOOOOOOOO@@@@+@+++6+6666886886888888wy@OOk",
"^^^^^^^^^^^^^^^^^^^^,oOoOO44OoOoo@O@OO@@@@@@@@+++6+66666868688888880ieOOOm",
"^^^^^^^^^^^^^^^^^^^^^sooOoO43:oOOOOOOO@@O@@@@@+++6666666866888808880wyOOOm",
"^^^^^^^^^^^^^^^^^^^^^^A%oOOo:s<oOoOOO@@O@@@@@++++++66668668888880080iyOOOm",
"^^^^^^^^^^^^^^^^^^^^^^^^:oOoO:54OOOOOO@@O@@@@@++++666666866888088080iyO@Ol",
"^^^^^^^^^^^^^^^^^^^^^^^^^,oOOOO34:OOOOOO@@@@@++++6+66686688888880800iyOOOm",
"^^^^^^^^^^^^^^^^^^^^^^^^^^soOOOO45:O@@O@@@@@@@+++6666666868688888080iuO@Ol",
"^^^^^^^^^^^^^^^^^^^^^^^^^^^AooOOO#u:OO@O@@@@@+@++++66668688888880000itO:Om",
"^^^^^^^^^^^^^^^^^^^^^^^^^^^^^:oOOO:s5OO@@@@@+@++++++6666868888880800iyOOOm",
"^^^^^^^^^^^^^^^^^^^^^^^^^^^^^^2oOOO:yu>OO@O@@@++++666666686688888080idO@Om",
"^^^^^^^^^^^^^^^^^^^^^^^^^^^^^^^hoOOOO3deO@@@@@@++++66666688888888008idOOOl",
"^^^^^^^^^^^^^^^^^^^^^^^^^^^^^^^^MooOOO<d<@O@@@+@++666666666868888880iyO@Om",
"^^^^^^^^^^^^^^^^^^^^^^^^^^^^^^^^^^:OOOO:yu>O+@+++++66666668668888888idOOOM",
"^^^^^^^^^^^^^^^^^^^^^^^^^^^^^^^^^^^2oOOOOdd7@@@@+++++6+6686868868888iyO@Om",
"^^^^^^^^^^^^^^^^^^^^^^^^^^^^^^^^^^^^soOOOOdd>@@+@+++6666666868888888tdO@Om",
"^^^^^^^^^^^^^^^^^^^^^^^^^^^^^^^^^^^^^AoOOOO<dy@@@@+++666666686666686id:OOl",
"^^^^^^^^^^^^^^^^^^^^^^^^^^^^^^^^^^^^^^^:OOOO<du6@@@@6+66666666688686td@OOm",
"^^^^^^^^^^^^^^^^^^^^^^^^^^^^^^^^^^^^^^^^2oOOO:ddq++++++++66666668668td@OOl",
"^^^^^^^^^^^^^^^^^^^^^^^^^^^^^^^^^^^^^^^^^soOOOO5N<+@+6++66+666666666tdOOOm",
"^^^^^^^^^^^^^^^^^^^^^^^^^^^^^^^^^^^^^^^^^^MOOOOO<Ny+@@++++6666666666tdO@Om",
"^^^^^^^^^^^^^^^^^^^^^^^^^^^^^^^^^^^^^^^^^^^^:oOOO<bd@++++++6+6+66666tdO@Om",
"^^^^^^^^^^^^^^^^^^^^^^^^^^^^^^^^^^^^^^^^^^^^^4OOOO@dvq@+++++++66+66+tdOOOM",
"^^^^^^^^^^^^^^^^^^^^^^^^^^^^^^^^^^^^^^^^^^^^^^koOOOO5be@@++++++++6++tdOOOm",
"^^^^^^^^^^^^^^^^^^^^^^^^^^^^^^^^^^^^^^^^^^^^^^^MOOOOO1bu@@++++++++++td:@Om",
"^^^^^^^^^^^^^^^^^^^^^^^^^^^^^^^^^^^^^^^^^^^^^^^^^:OOOO>md7++++@+++++yd@OOM",
"^^^^^^^^^^^^^^^^^^^^^^^^^^^^^^^^^^^^^^^^^^^^^^^^^^2OOOOObb>@@@+@++++td@OOM",
"^^^^^^^^^^^^^^^^^^^^^^^^^^^^^^^^^^^^^^^^^^^^^^^^^^^hOOOOOdme@@@+@@+@tcO@Om",
"^^^^^^^^^^^^^^^^^^^^^^^^^^^^^^^^^^^^^^^^^^^^^^^^^^^^AOOOOO4Nu@@+@@@@yc:OOk",
"^^^^^^^^^^^^^^^^^^^^^^^^^^^^^^^^^^^^^^^^^^^^^^^^^^^^^^:O@OO<Nd@O@@+@yd@OOM",
"^^^^^^^^^^^^^^^^^^^^^^^^^^^^^^^^^^^^^^^^^^^^^^^^^^^^^^^2OOOO:NN<O@O@ddOOOm",
"^^^^^^^^^^^^^^^^^^^^^^^^^^^^^^^^^^^^^^^^^^^^^^^^^^^^^^^^sOOOOOdB<O@>bNO@Ol",
"^^^^^^^^^^^^^^^^^^^^^^^^^^^^^^^^^^^^^^^^^^^^^^^^^^^^^^^^^AoO@OOyBdO@bbOOOm",
"^^^^^^^^^^^^^^^^^^^^^^^^^^^^^^^^^^^^^^^^^^^^^^^^^^^^^^^^^^^:OOOO<BN#aB#@Ol",
"^^^^^^^^^^^^^^^^^^^^^^^^^^^^^^^^^^^^^^^^^^^^^^^^^^^^^^^^^^^^4OOOO:cCCC#:Om",
"^^^^^^^^^^^^^^^^^^^^^^^^^^^^^^^^^^^^^^^^^^^^^^^^^^^^^^^^^^^^^hOOOOOnLZ#@Om",
"^^^^^^^^^^^^^^^^^^^^^^^^^^^^^^^^^^^^^^^^^^^^^^^^^^^^^^^^^^^^^^MOOOO#VV1:Ok",
"^^^^^^^^^^^^^^^^^^^^^^^^^^^^^^^^^^^^^^^^^^^^^^^^^^^^^^^^^^^^^^^^:OO<rpr@O^",
"^^^^^^^^^^^^^^^^^^^^^^^^^^^^^^^^^^^^^^^^^^^^^^^^^^^^^^^^^^^^^^^^^<o:rp1O4^",
"^^^^^^^^^^^^^^^^^^^^^^^^^^^^^^^^^^^^^^^^^^^^^^^^^^^^^^^^^^^^^^^^^^cO:#:4^^",
"^^^^^^^^^^^^^^^^^^^^^^^^^^^^^^^^^^^^^^^^^^^^^^^^^^^^^^^^^^^^^^^^^^^^MmF^^^"
};
