/* XPM */
static char *_483577195925[] = {
/* columns rows colors chars-per-pixel */
"74 112 81 1 ",
"  c #A9B7A9",
". c #A9BDA9",
"X c #A9C4A9",
"o c #A8CCA9",
"O c #A8D4AA",
"+ c #A7DFA9",
"@ c #A8DBA9",
"# c #B3DCAD",
"$ c #AFC4B0",
"% c #AECDB0",
"& c #B1C4B1",
"* c #B3CCB4",
"= c #B7CBB8",
"- c #BBCEBB",
"; c #BAC6BA",
": c #AED5B0",
"> c #AFDEB0",
", c #B4D3B5",
"< c #B4DCB5",
"1 c #BBDFB5",
"2 c #B7D4B8",
"3 c #BBD4BC",
"4 c #B7DCB8",
"5 c #BBDCBC",
"6 c #A7E4A9",
"7 c #ADE1AF",
"8 c #A7EBA9",
"9 c #AEE9AF",
"0 c #A7F1A9",
"q c #AEE2B0",
"w c #AEEDB1",
"e c #B4E1B6",
"r c #BEE0B6",
"t c #B4EBB6",
"y c #B7E2B8",
"u c #BBE1BC",
"i c #B2F2B4",
"p c #C1E2B7",
"a c #CAE7BE",
"s c #BFDDC0",
"d c #BFE2C0",
"f c #C0CFC0",
"g c #C3D5C4",
"h c #C3DCC3",
"j c #C9D5CA",
"k c #C7DCC8",
"l c #C9DCCA",
"z c #CFDDD0",
"x c #D1DFD1",
"c c #C3E2C4",
"v c #CAE7C5",
"b c #C5E8C6",
"n c #CBE8C5",
"m c #C7E2C8",
"M c #CBE4CB",
"N c #C6E8C9",
"B c #CBEACC",
"V c #D1EAC6",
"C c #D2EBC9",
"Z c #D8EECF",
"A c #CFE6D0",
"S c #CFE9D0",
"D c #D1E6D1",
"F c #D4EAD4",
"G c #DAE5DA",
"H c #D7ECD8",
"J c #DAEEDB",
"K c #DDF1DD",
"L c #E6F5DA",
"P c #DFEAE0",
"I c #E2ECE2",
"U c #E7EFE8",
"Y c #E9EFE9",
"T c #E3F4E3",
"R c #E6F9E7",
"E c #EAF3EB",
"W c #ECFBEC",
"Q c #F0F4F0",
"! c #F3FDF3",
"~ c #FCFFFC",
"^ c None",
/* pixels */
"^^^^^^^^^^^^^^^^^^^^^^^^^^^^^^^^^^^^^^^^^^^^^^^^^^^^^^^^^^^^^^^^^^^^^^^^^^",
"^^^IGG^^^^^^^^^^^^^^^^^^^^^^^^^^^^^^^^^^^^^^^^^^^^^^^^^^^^^^^^^^^^^^^^^^^^",
"^^gxGl=g^^^^^^^^^^^^^^^^^^^^^^^^^^^^^^^^^^^^^^^^^^^^^^^^^^^^^^^^^^^^^^^^^^",
"^3=GYIg =^^^^^^^^^^^^^^^^^^^^^^^^^^^^^^^^^^^^^^^^^^^^^^^^^^^^^^^^^^^^^^^^^",
"^.-GEYxX &^^^^^^^^^^^^^^^^^^^^^^^^^^^^^^^^^^^^^^^^^^^^^^^^^^^^^^^^^^^^^^^^",
"l.=GEQjXX..x^^^^^^^^^^^^^^^^^^^^^^^^^^^^^^^^^^^^^^^^^^^^^^^^^^^^^^^^^^^^^^",
"g =lY~x XX..g^^^^^^^^^^^^^^^^^^^^^^^^^^^^^^^^^^^^^^^^^^^^^^^^^^^^^^^^^^^^^",
"l XgI~!f XXX =^^^^^^^^^^^^^^^^^^^^^^^^^^^^^^^^^^^^^^^^^^^^^^^^^^^^^^^^^^^^",
"l..*JWW!j .XX $^^^^^^^^^^^^^^^^^^^^^^^^^^^^^^^^^^^^^^^^^^^^^^^^^^^^^^^^^^^",
"l XXl!KT!G. XX..x^^^^^^^^^^^^^^^^^^^^^^^^^^^^^^^^^^^^^^^^^^^^^^^^^^^^^^^^^",
"j.X fWTKK!U&.XXX.g^^^^^^^^^^^^^^^^^^^^^^^^^^^^^^^^^^^^^^^^^^^^^^^^^^^^^^^^",
"j.X.-EKKKKWWf .XX.=^^^^^^^^^^^^^^^^^^^^^^^^^^^^^^^^^^^^^^^^^^^^^^^^^^^^^^^",
"k.X -TKKKKHR!j XXX X^^^^^^^^^^^^^^^^^^^^^^^^^^^^^^^^^^^^^^^^^^^^^^^^^^^^^^",
"k X.-THHHKKZK!G .XX..x^^^^^^^^^^^^^^^^^^^^^^^^^^^^^^^^^^^^^^^^^^^^^^^^^^^^",
"k.X.-THKHKJJHJWI& XXX.g^^^^^^^^^^^^^^^^^^^^^^^^^^^^^^^^^^^^^^^^^^^^^^^^^^^",
"k X.3KHHHHJJJHHREf XX..=^^^^^^^^^^^^^^^^^^^^^^^^^^^^^^^^^^^^^^^^^^^^^^^^^^",
"j.X.-THHHHHHHHHFTWj .XX.&^^^^^^^^^^^^^^^^^^^^^^^^^^^^^^^^^^^^^^^^^^^^^^^^^",
"k X.-KHHHHFHHHHHFKWx..XX..x^^^^^^^^^^^^^^^^^^^^^^^^^^^^^^^^^^^^^^^^^^^^^^^",
"l.X.-JDHHHHFHHHHHFHWP& XX..g^^^^^^^^^^^^^^^^^^^^^^^^^^^^^^^^^^^^^^^^^^^^^^",
"k X 3KDFFFFHFFFHFHZHTT= XXX =^^^^^^^^^^^^^^^^^^^^^^^^^^^^^^^^^^^^^^^^^^^^^",
"l.X.-KFHFFFFFFFHFHFHFKEg .XX.X^^^^^^^^^^^^^^^^^^^^^^^^^^^^^^^^^^^^^^^^^^^^",
"l.X.-PMFFFFAFFFFFFFFFCHWx..XX..D^^^^^^^^^^^^^^^^^^^^^^^^^^^^^^^^^^^^^^^^^^",
"j.XX3KDFFFDFAFFSDFFFFFFFTH&.XXX g^^^^^^^^^^^^^^^^^^^^^^^^^^^^^^^^^^^^^^^^^",
"k.X.-HMDMFAAFAFDFDDSFFFSATI- XXX =^^^^^^^^^^^^^^^^^^^^^^^^^^^^^^^^^^^^^^^^",
"l.XX-JDMFDDDSADFSFDFFFDFAMKTg .XX.X^^^^^^^^^^^^^^^^^^^^^^^^^^^^^^^^^^^^^^^",
"k.XX-HMFMBMFAASAADDADDDFFDAFTz..XX..x^^^^^^^^^^^^^^^^^^^^^^^^^^^^^^^^^^^^^",
"jXXX3HMMAMAMAAAAASASASDSDDDSDKF&.XXX.g^^^^^^^^^^^^^^^^^^^^^^^^^^^^^^^^^^^^",
"jXXX3HMBMBMFABAAAMAAASAADBDDDDJH= XX..=^^^^^^^^^^^^^^^^^^^^^^^^^^^^^^^^^^^",
"kXXX2HMMMBMBMMMCAMMFMBAAAFFMFMMHKf.XXX.&^^^^^^^^^^^^^^^^^^^^^^^^^^^^^^^^^^",
"jXXX2HcMMMMMMBMBMBAMMDACMBMFFMDMCKj..XX..x^^^^^^^^^^^^^^^^^^^^^^^^^^^^^^^^",
"kXoX3HcMMMMMMMMMMMMMMBMMMMFMMSMDMDJA$.XX. j^^^^^^^^^^^^^^^^^^^^^^^^^^^^^^^",
"kXXX3FcMMMNMMMMvBBMMMMMAMMMMMMBAAMMHF= XXX.=^^^^^^^^^^^^^^^^^^^^^^^^^^^^^^",
"jXoX3FcMmmMMmmvMMMMMMMMMvMMMMMMMMMMMDH3.XXX.$^^^^^^^^^^^^^^^^^^^^^^^^^^^^^",
"kXoo3FcccvccmmmMMcNmNMvMMMMMMMMMMMlMMAHjXXXX..x^^^^^^^^^^^^^^^^^^^^^^^^^^^",
"lXoX3AcccmNcmmcccMMvcMmmMmmMMMMMMMMMlMMFl$XXXXXg^^^^^^^^^^^^^^^^^^^^^^^^^^",
"cXoX3ScccccccNNccccmmcmmMcmMmmcMMlMMMMMmAA=.XXX.=^^^^^^^^^^^^^^^^^^^^^^^^^",
"lXoX3FuccccccccccmcmmccmcmcmmMcMMvmmMMmMlMF3.XoX.X^^^^^^^^^^^^^^^^^^^^^^^^",
"looo3SucccccccccccccccmccmmccMclkkmmkmmkmmMAgXXXXXXx^^^^^^^^^^^^^^^^^^^^^^",
"hXoo5S5cccccccccccccccccmckckccccckmcmmmMkkMDkXXoXXXg^^^^^^^^^^^^^^^^^^^^^",
"looX3FycuucdcddccccccccchcccccchhmccmkckcckckAM=XXXX.=^^^^^^^^^^^^^^^^^^^^",
"looo2SyddsdddddduccdccdhccccccccckccchmkcckckhMM3XXoXXX^^^^^^^^^^^^^^^^^^^",
"looo3B5dddddddcucusddddcscuhchccccchckhckkkkckhmMgXXoXXXx^^^^^^^^^^^^^^^^^",
"kooosSyydydduuucuc5cdsds5cucdcdhcchchcchchhhkhhhkMhXXXoXXg^^^^^^^^^^^^^^^^",
"loOo3B<ddyspudsuuuupddddcuhddhsdshphschhhhhchhhjhhMl*XXXXX=^^^^^^^^^^^^^^^",
"looosB<5uuuuuuuuusud5d5duc5hdcdhsduhc5hshhhhhhhhhhgll2XoXXXo^^^^^^^^^^^^^^",
"looosB<yuyyuuuuuuuuuyduuduuuu5udushu5hphh5hhh5shhhhsjl3oXoXXXx^^^^^^^^^^^^",
"cooosB<yy5yuu5uuuusu5d5du55d5dd5sd5hsh555ss55hhggsgssgl5ooXoXXg^^^^^^^^^^^",
"loOosB<yyuyyyyyy5yyuyy5yu5u5u55s55s555ss5h5hh55s3gssgsskj*XXoXX=^^^^^^^^^^",
"looOsBeyyyyyyyy5yyyyy55y5yy5y55y55555555s53sg5g5s5g3sg33gk2XXoXX%^^^^^^^^^",
"loOo5B@yeeeeyeeyy<5yyyy5y55y5yu54555555555s5555g3ggs3g5g3gk3oXoXXXz^^^^^^^",
"koOohB7eeeeeeeeyye<e<<yy<yy55<y<y555555535353535g553g53g5g3gsoXooX.s^^^^^^",
"koOohN+eeeeeeeeeeeyeyy<yy<y5y<5544445255555453535353353ff33ggg%oXo%.2^^^^^",
"koOo5N@eeeeeeeeeee<eee<y<y<<y<y<4454<4522343253223333333333ffgg2Xo%%o*^^^^",
"kOOocb6e7eqqee7eeeee<ee<y<e<y<<<4<4<14<44434522553323233-3333-fgs*2ss%%^^^",
"kOOOcB7777q7qq77wq>q>q<q<<><<<<<<<<<<24,2422244222232232333-3--3jgssgg=2^^",
"koOosKBBBBBNbbbpduuudyyyyyy<y<<54<44<24<4<12252322533333-33-333fgzxAlls*G^",
"moOO@eyeyyyyyuuupbccbccpcccccpr<sspds5h5455535g2332222,,=***&*$&fjjxxzl2D^",
"loOO,6@++6@+@@76@@++@+@@@@@O@O@O#OOOO:,OOOOoo%oooXooXXXXXXX.......jzzlh*G^",
"mooO>76+66++++6+++@@@+@@@@O@O@o@OOOOOOooOoooooXooXXXXXXXXX..X...$ssssh3s^^",
"lOOO>7++++6++6+++++++@@@@@@@@O@@OOOOOOOOoOoOooooooXoXoXXX.XX...&2,=3s=%P^^",
"loOO>76666+666+++++++@@@@@@@OOO@O@@OOOoOOoooOoooooXXXXXXXXXX..&,%o::o2^^^^",
"moOO#966666+6+6++++++++@@@@@@@+O@OOOOOOOoOooooooXoooXXXXX.X.X=,OoooX2^^^^^",
"mOOO<9666+66666++6+++++@+@@@O+O@O@OOOOOoOooOoooXooXXXoXXXXXX,,ooooXh^^^^^^",
"loOO<966666666666+6++++@+@@@@+OO@@OOOOOOOoOoOoooooXoXoXXXX&3Ooooooz^^^^^^^",
"moOO<966866666666+6++++++@@@@@O@+@OOOOOOOoooOooooooXXoXXX*2:ooooo^^^^^^^^^",
"moOOe9686666866666666++++@@@@@@@OOOOOOOOOoOOOooooooXoXXX*<OoooX,^^^^^^^^^^",
"MOOO<w8668666666666+6+++++@@@@O@+@OOOOOOOOOoooOoooooXXoO<ooOoXh^^^^^^^^^^^",
"moOOe968868886686666+6+++++@@@@@O+O@+OOOOoOOOooooooXoo@OoooooA^^^^^^^^^^^^",
"lOOO<w88866686866666666+++++@@@@@o+@+OOOOoooooooooXoO3Ooooo%^^^^^^^^^^^^^^",
"lO@Oew8886886866666666++++++@@@@@@@oOOOOOOo+o+ooooo,#ooOoo2^^^^^^^^^^^^^^^",
"mOOO<w8888688668666666+6++++@@@O+O+OOOOOOo+oooooX*5<ooOoog^^^^^^^^^^^^^^^^",
"lOOO<w88888888868666666+++++@@+@O+OO+OOOOooooooo,5#ooOOXD^^^^^^^^^^^^^^^^^",
"mOOO<i88888888686886666+++++@@@@@@O@OOo@OOoOooo,4OOoooo^^^^^^^^^^^^^^^^^^^",
"lOOOei8888888686866666+6++++@@@@@O@O@O@OOOOoo:54OoOOo,^^^^^^^^^^^^^^^^^^^^",
"mO@Oei00088888686866666++++@@+@@@@@OOOOOOOOo:5<OoOooh^^^^^^^^^^^^^^^^^^^^^",
"mOOOew00080888888666666+6++++@@@@O@@@OOOOOo<s:OoOoox^^^^^^^^^^^^^^^^^^^^^^",
"lOOOdi008888888668666666++++@+@@@+OO@OO@OO<s>ooOoO^^^^^^^^^^^^^^^^^^^^^^^^",
"mO@Oei0000088886868666666++@@@@@@OO@OOOOo<5OoOOo3^^^^^^^^^^^^^^^^^^^^^^^^^",
"MOOOei000888888868666666+++++@@@@@@O@OO:s2OOOooh^^^^^^^^^^^^^^^^^^^^^^^^^^",
"lOOOdi0080088888868666++6+++@@@@@O@@OO<d:OOOooA^^^^^^^^^^^^^^^^^^^^^^^^^^^",
"m@O:yi008088888668666666++++@@@@@@OO@5s:oOOo:^^^^^^^^^^^^^^^^^^^^^^^^^^^^^",
"mo@Oui8008888888866666++++++@@@@@OO@ys:O@OO,^^^^^^^^^^^^^^^^^^^^^^^^^^^^^^",
"mOOOyi0888888686866666+6+++@@@@@O@ed4OOOooh^^^^^^^^^^^^^^^^^^^^^^^^^^^^^^^",
"lO@@ui888888886868666+6++++++@@O@ed<OOOoOA^^^^^^^^^^^^^^^^^^^^^^^^^^^^^^^^",
"mOO:ui98888886886666666+6@@@@+@@yd:o@oO:^^^^^^^^^^^^^^^^^^^^^^^^^^^^^^^^^^",
"mO@Oui888888686686666++++@+@@O>pd:o@oo2^^^^^^^^^^^^^^^^^^^^^^^^^^^^^^^^^^^",
"mOOOui8888688666666666++@@+@@>c<OOOood^^^^^^^^^^^^^^^^^^^^^^^^^^^^^^^^^^^^",
"mO@Oyt68668686666666++++@+@+yc4OO@oOA^^^^^^^^^^^^^^^^^^^^^^^^^^^^^^^^^^^^^",
"MOOOdi8886868666666+++++7@6ud:OOOo:^^^^^^^^^^^^^^^^^^^^^^^^^^^^^^^^^^^^^^^",
"lOOOdi86666666666+6+++++@7dd>OOOo<^^^^^^^^^^^^^^^^^^^^^^^^^^^^^^^^^^^^^^^^",
"mOOOdt+6666666666+++++++ebyOOOOOh^^^^^^^^^^^^^^^^^^^^^^^^^^^^^^^^^^^^^^^^^",
"MOO@dt66666666666++++@6dc<oOOOoA^^^^^^^^^^^^^^^^^^^^^^^^^^^^^^^^^^^^^^^^^^",
"mO@Odt6666666++6++++++dd<OOOO:^^^^^^^^^^^^^^^^^^^^^^^^^^^^^^^^^^^^^^^^^^^^",
"mOO@dt6+66+++6++++@@qdd:OOOO2^^^^^^^^^^^^^^^^^^^^^^^^^^^^^^^^^^^^^^^^^^^^^",
"MOO:dt++6+++++7+@+@yNdOOOOoh^^^^^^^^^^^^^^^^^^^^^^^^^^^^^^^^^^^^^^^^^^^^^^",
"dOO@dy++++++++@+@+uNeOOOOoA^^^^^^^^^^^^^^^^^^^^^^^^^^^^^^^^^^^^^^^^^^^^^^^",
"zOOOdt++++++@+@@7db<o@Oo:^^^^^^^^^^^^^^^^^^^^^^^^^^^^^^^^^^^^^^^^^^^^^^^^^",
"MOO@ct++++@+@@@ebm@O@oO4^^^^^^^^^^^^^^^^^^^^^^^^^^^^^^^^^^^^^^^^^^^^^^^^^^",
"dOO@dy@@@@@@@@<NdOOOOod^^^^^^^^^^^^^^^^^^^^^^^^^^^^^^^^^^^^^^^^^^^^^^^^^^^",
"MOO:dy@@@@@@@uB<OOOOoA^^^^^^^^^^^^^^^^^^^^^^^^^^^^^^^^^^^^^^^^^^^^^^^^^^^^",
"MOOOdd@@@@O+bB<oOOOO^^^^^^^^^^^^^^^^^^^^^^^^^^^^^^^^^^^^^^^^^^^^^^^^^^^^^^",
"lO+:dd@@@@>NNOOOOO<^^^^^^^^^^^^^^^^^^^^^^^^^^^^^^^^^^^^^^^^^^^^^^^^^^^^^^^",
"dOOOdbqOO<Bd@o@oos^^^^^^^^^^^^^^^^^^^^^^^^^^^^^^^^^^^^^^^^^^^^^^^^^^^^^^^^",
"AOO:dB+@dS4OO@OOD^^^^^^^^^^^^^^^^^^^^^^^^^^^^^^^^^^^^^^^^^^^^^^^^^^^^^^^^^",
"lOO@na<cN<OO+OO^^^^^^^^^^^^^^^^^^^^^^^^^^^^^^^^^^^^^^^^^^^^^^^^^^^^^^^^^^^",
"MO@1CCCb:OOOo,^^^^^^^^^^^^^^^^^^^^^^^^^^^^^^^^^^^^^^^^^^^^^^^^^^^^^^^^^^^^",
"lOO#ZLnOOOOOh^^^^^^^^^^^^^^^^^^^^^^^^^^^^^^^^^^^^^^^^^^^^^^^^^^^^^^^^^^^^^",
"mO#eCC#OOOOA^^^^^^^^^^^^^^^^^^^^^^^^^^^^^^^^^^^^^^^^^^^^^^^^^^^^^^^^^^^^^^",
"^o@1p12OO:^^^^^^^^^^^^^^^^^^^^^^^^^^^^^^^^^^^^^^^^^^^^^^^^^^^^^^^^^^^^^^^^",
"^<O1p1#O4^^^^^^^^^^^^^^^^^^^^^^^^^^^^^^^^^^^^^^^^^^^^^^^^^^^^^^^^^^^^^^^^^",
"^^5@#@Oh^^^^^^^^^^^^^^^^^^^^^^^^^^^^^^^^^^^^^^^^^^^^^^^^^^^^^^^^^^^^^^^^^^",
"^^^HMM^^^^^^^^^^^^^^^^^^^^^^^^^^^^^^^^^^^^^^^^^^^^^^^^^^^^^^^^^^^^^^^^^^^^"
};
