/* XPM */
static char *btn_load_0[] = {
/* columns rows colors chars-per-pixel */
"82 82 256 2 ",
"   c #000000",
".  c #0C0C0C",
"X  c #171717",
"o  c #011F22",
"O  c #01353A",
"+  c #082A2C",
"@  c #282828",
"#  c #383838",
"$  c #023B43",
"%  c #023B46",
"&  c #063F54",
"*  c #16157F",
"=  c #161B7E",
"-  c #15237D",
";  c #152B7C",
":  c #15347D",
">  c #153C7C",
",  c #02444A",
"<  c #054856",
"1  c #0D535B",
"2  c #0A4A68",
"3  c #0A5768",
"4  c #15447C",
"5  c #154A7C",
"6  c #114F76",
"7  c #0D5472",
"8  c #15537B",
"9  c #155B7A",
"0  c #105776",
"q  c #14566B",
"w  c #15647A",
"e  c #15687B",
"r  c #1C6B76",
"t  c #0B6271",
"y  c #2C6B70",
"u  c #4B4B4B",
"i  c #585858",
"p  c #526A7A",
"a  c #496566",
"s  c #6D6D6D",
"d  c #646464",
"f  c #757575",
"g  c #170F86",
"h  c #170F88",
"j  c #180F8C",
"k  c #161283",
"l  c #161A82",
"z  c #171288",
"x  c #19118E",
"c  c #191887",
"v  c #1B1292",
"b  c #1C1A93",
"n  c #231D8A",
"m  c #201795",
"M  c #231A96",
"N  c #261D98",
"B  c #281F99",
"V  c #172786",
"C  c #173687",
"Z  c #1B2792",
"A  c #1A3692",
"S  c #2C249A",
"D  c #292697",
"F  c #30279D",
"G  c #332B9D",
"H  c #342D92",
"J  c #29399A",
"K  c #3A339D",
"L  c #35369E",
"P  c #2C248F",
"I  c #362EA0",
"U  c #3B33A2",
"Y  c #3C3AA3",
"T  c #3732A0",
"R  c #423C9E",
"E  c #423BA5",
"W  c #174686",
"Q  c #19508E",
"!  c #2C509C",
"~  c #166985",
"^  c #187689",
"/  c #17708F",
"(  c #287098",
")  c #3954A2",
"_  c #3B43A2",
"`  c #3B77A3",
"'  c #504D9C",
"]  c #5A7484",
"[  c #657B89",
"{  c #64699C",
"}  c #4442A5",
"|  c #4741A8",
" . c #4B44AA",
".. c #4D4AAB",
"X. c #4947A5",
"o. c #524CAD",
"O. c #514CA5",
"+. c #4858A8",
"@. c #5552AE",
"#. c #5858AB",
"$. c #5A55B1",
"%. c #5D5AB2",
"&. c #625EB4",
"*. c #605CA7",
"=. c #5279AC",
"-. c #5C6AB2",
";. c #4D6EAA",
":. c #6867A9",
">. c #6563B6",
",. c #6C6AB9",
"<. c #6A6AB4",
"1. c #6875B7",
"2. c #7273BC",
"3. c #777AB8",
"4. c #7273B0",
"5. c #7A7FC0",
"6. c #34889B",
"7. c #288698",
"8. c #388CA2",
"9. c #1C8196",
"0. c #4D8E94",
"q. c #69838B",
"w. c #6C8392",
"e. c #778A97",
"r. c #709899",
"t. c #5886A7",
"y. c #4A99A9",
"u. c #5A8AB3",
"i. c #5B94B1",
"p. c #4E8FAE",
"a. c #6789B8",
"s. c #7783BC",
"d. c #6996B7",
"f. c #7598BC",
"g. c #748CA4",
"h. c #5DA5B2",
"j. c #79A8AB",
"k. c #67ABB7",
"l. c #76A9B9",
"z. c #77AFB5",
"x. c #3B8CD5",
"c. c #3C95DA",
"v. c #3DA3E2",
"b. c #4C93CD",
"n. c #5799C8",
"m. c #4B9BDA",
"M. c #4496D9",
"N. c #589CD4",
"B. c #468DCE",
"V. c #7B89C1",
"C. c #7D99C2",
"Z. c #609FD1",
"A. c #4AA3DD",
"S. c #54A4DD",
"D. c #5CA8DB",
"F. c #7CA8C1",
"G. c #64A6D9",
"H. c #75B1C8",
"J. c #4BA7E2",
"K. c #54AAE3",
"L. c #5BADE3",
"P. c #5DB3E6",
"I. c #58B7EA",
"U. c #4CB2EA",
"Y. c #67ADE1",
"T. c #62B4E5",
"R. c #64BBEA",
"E. c #6AB9E7",
"W. c #78B9E5",
"Q. c #439BE0",
"!. c #5BC7F4",
"~. c #69C1ED",
"^. c #77C4EC",
"/. c #6AC8F2",
"(. c #76CCF2",
"). c #76D2F6",
"_. c #6DD3F9",
"`. c #81939E",
"'. c #8A9BA5",
"]. c #8798A6",
"[. c #8688B7",
"{. c #8C92B9",
"}. c #939AB7",
"|. c #8992AA",
" X c #8FA2AD",
".X c #92A3AD",
"XX c #9AA6AB",
"oX c #94A6B1",
"OX c #95A9B4",
"+X c #9AABB4",
"@X c #9AA9B8",
"#X c #8EACBB",
"$X c #A1AEB7",
"%X c #A4B3BC",
"&X c #A9B6BD",
"*X c #ACB8BD",
"=X c #B2BABD",
"-X c #9797C3",
";X c #8693C3",
":X c #82A7C5",
">X c #84B5C6",
",X c #96B0CD",
"<X c #A8ABC8",
"1X c #ACBAC2",
"2X c #A7B5C2",
"3X c #B2BDC4",
"4X c #B3B6CD",
"5X c #A0BFD3",
"6X c #85BEE7",
"7X c #A09EC9",
"8X c #B5C3CA",
"9X c #BBC6CC",
"0X c #B9C4CA",
"qX c #BDCAD3",
"wX c #ACCDDC",
"eX c #88C6EB",
"rX c #96CAEB",
"tX c #89D4F5",
"yX c #97D4F3",
"uX c #8FCFEE",
"iX c #A7D8F3",
"pX c #B5DCF4",
"aX c #A7D1EA",
"sX c #BAE6F9",
"dX c #A8E3F9",
"fX c #C2CACE",
"gX c #C9CBCC",
"hX c #C3CDD3",
"jX c #C9CDD5",
"kX c #C6D0D6",
"lX c #CAD2D6",
"zX c #CCD4DA",
"xX c #C3D1D9",
"cX c #D4D9DD",
"vX c #D5D7DA",
"bX c #D9DEE1",
"nX c #D6DCE1",
"mX c #C3DFF4",
"MX c #DDE1E4",
"NX c #CBE5F6",
"BX c #C9E8F8",
"VX c #D2EEFA",
"CX c #D2E8F7",
"ZX c #D5F2FD",
"AX c #DAF4FD",
"SX c #C7F0FD",
"DX c #E2E4E7",
"FX c #E3E6E9",
"GX c #E6E9EB",
"HX c #EAECEE",
"JX c #ECEEF0",
"KX c #EEF0F2",
"LX c #F2F3F4",
"PX c #FBFBFC",
"IX c #F7F8F9",
"UX c None",
/* pixels */
"UXUXUXUXUXUXUXUXUXUXUXUXUXUXUXUXUXUXUXUXUXUXUXUXUXUXUXUXUXUXUXUXUXUXUXUXUXUXUXUXUXUXUXUXUXUXUXUXUXUXUXUXUXUXUXUXUXUXUXUXUXUXUXUXUXUXUXUXUXUXUXUXUXUXUXUXUXUXUXUXUXUX",
"UXUXUXUXUXUXUXUXUXUXUXUXUXUXUXUXUXUXUXUXUXUXUXUXUXUXUXUXUXUXUXUXUXUXUXUXUXUXUXUXUXUXUXUXUXUXUXUXUXUXUXUXUXUXUXUXUXUXUXUXUXUXUXUXUXUXUXUXUXUXUXUXUXUXUXUXUXUXUXUXUXUX",
"UXUXUXUXUXUXUXUXUXUXUXUXUXUXUXUXUXUXUXUXUXUXUXUXUXUXUXUXUXUXUXUXUXUXUXUXUXUXUXUXUXUXUXUXUXUXUXUXUXUXUXUXUXUXUXUXUXUXUXUXUXUXUXUXUXUXUXUXUXUXUXUXUXUXUXUXUXUXUXUXUXUX",
"UXUXUXUXUXUXUXUXUXUXUXUXUXUXUXUXUXUXUXUXUXUXUXUXUXUXUXUXUXUXUXUXUXUXUXUXUXUXUXUXUXUXUXUXUXUXUXUXUXUXUXUXUXUXUXUXUXUXUXUXUXUXUXUXUXUXUXUXUXUXUXUXUXUXUXUXUXUXUXUXUXUX",
"UXUXUXUXUXUXUXUXUXUXUXUXUXUXUXUXUXUXUXUXUXUXUXUXUXUXUXUXUXUXUXUXUX# # # # # # # @ @ @ @ X . UXUXUXUXUXUXUXUXUXUXUXUXUXUXUXUXUXUXUXUXUXUXUXUXUXUXUXUXUXUXUXUXUXUXUXUX",
"UXUXUXUXUXUXUXUXUXUXUXUXUXUXUXUXUXUXUXUXUXUXUXUXUXUXUXUXUXu u d 0.0.y.y.y.y.y.y.y.8.8.7.y y % X . . UXUXUXUXUXUXUXUXUXUXUXUXUXUXUXUXUXUXUXUXUXUXUXUXUXUXUXUXUXUXUXUX",
"UXUXUXUXUXUXUXUXUXUXUXUXUXUXUXUXUXUXUXUXUXUXUXUXUXUXi i 0.h.h.h.i.i.p.t.=.p.=.` ` ` ` 8.8.` 7.9.e 1       UXUXUXUXUXUXUXUXUXUXUXUXUXUXUXUXUXUXUXUXUXUXUXUXUXUXUXUXUX",
"UXUXUXUXUXUXUXUXUXUXUXUXUXUXUXUXUXUXUXUXUXUXUXUXd q.h.k.l.d.u.t.=.-.-.;.+.+.+.+.) ) ) ) ) ! ( ( ( 9.9.^ ,     UXUXUXUXUXUXUXUXUXUXUXUXUXUXUXUXUXUXUXUXUXUXUXUXUXUXUX",
"UXUXUXUXUXUXUXUXUXUXUXUXUXUXUXUXUXUXUXUXUXUXd r.k.H.d.d.u.1.-.-.-.@.@.+....._ | _ _ Y L J L J J ! Q / / ^ ^ <     UXUXUXUXUXUXUXUXUXUXUXUXUXUXUXUXUXUXUXUXUXUXUXUXUX",
"UXUXUXUXUXUXUXUXUXUXUXUXUXUXUXUXUXUXUXUXd r.k.H.F.a.a.1.-.%.%.@.O.....| | E Y Y Y U T T F J J D Z Z A W Q ~ ^ t O   UXUXUXUXUXUXUXUXUXUXUXUXUXUXUXUXUXUXUXUXUXUXUXUX",
"UXUXUXUXUXUXUXUXUXUXUXUXUXUXUXUXUXUXUXf j.H.l.f.1.1.,.%.%.$.o.o... .E E Y E U U T T I F S F S N M b Z Z C W Q ~ ^ 1     UXUXUXUXUXUXUXUXUXUXUXUXUXUXUXUXUXUXUXUXUXUX",
"UXUXUXUXUXUXUXUXUXUXUXUXUXUXUXUXUXd r.z.l.C.s.3.1.>.&.%.@.o. .| E E U Y U U U I I I F F S S N N M b b x b Z C W ~ ~ t ,   UXUXUXUXUXUXUXUXUXUXUXUXUXUXUXUXUXUXUXUXUX",
"UXUXUXUXUXUXUXUXUXUXUXUXUXUXUXUXs j.H.:XV.V.2.,.,.&.$.@.o. .| E E U I I I I I F F F F F S S N M M m v v c c b V C W w ~ <   UXUXUXUXUXUXUXUXUXUXUXUXUXUXUXUXUXUXUXUX",
"UXUXUXUXUXUXUXUXUXUXUXUXUXUXUXf j.>X:Xs.5.2.,.&.&.$.o... .E E U I I I F I F F F S S S S S S N M M v v v x z c l - V 4 ~ e <   UXUXUXUXUXUXUXUXUXUXUXUXUXUXUXUXUXUXUX",
"UXUXUXUXUXUXUXUXUXUXUXUXUXUXf j.H.:XV.5.1.,.&.&.$.o...E E Y U I I F F S S S S B S S S S N N N M b v v v x j z z l l - > 9 e <   UXUXUXUXUXUXUXUXUXUXUXUXUXUXUXUXUXUX",
"UXUXUXUXUXUXUXUXUXUXUXUXUXf j.>XC.V.5.,.,.>.%.$.o.o.E E U I I F S B S B B B B B N N N S S N N b M v v v x j z z k k = - > 9 e <   UXUXUXUXUXUXUXUXUXUXUXUXUXUXUXUXUX",
"UXUXUXUXUXUXUXUXUXUXUXUXf z.>X:XV.3.2.,.&.$.$.o. .E E U I I F F S N N N N B B B N N N N N N M M m m v v j j j j g g * * = : 0 w <   UXUXUXUXUXUXUXUXUXUXUXUXUXUXUXUX",
"UXUXUXUXUXUXUXUXUXUXUXs  X>X;XV.5.2.,.&.$.$.o.E E E U I I S S B B M M M m N m m M M N N N N M m m m v v v j j j g g * * * - > 0 e <   UXUXUXUXUXUXUXUXUXUXUXUXUXUXUX",
"UXUXUXUXUXUXUXUXUXUXUXr.>X:XC.5.2.,.&.$.o.o.E E U T I F S F B B M m m m m M m m m M N N N N M M m m m v v j j j h g g * * * - > 9 e ,   UXUXUXUXUXUXUXUXUXUXUXUXUXUX",
"UXUXUXUXUXUXUXUXUXUXf #X>XC.V.2.,.&.%.@.o.E E E I G F G B B B N M m m m m m m m m M M M N M M M m m m v v x j j h g g g * * = ; 4 w 1     UXUXUXUXUXUXUXUXUXUXUXUXUX",
"UXUXUXUXUXUXUXUXUXf #X>X;X5.2.,.>.&.$. .E E U F G T 3.|.4.O.G N M m v m m m m v m m M M M M M m m m m v v v x x j g g g * * * * ; 8 w <   UXUXUXUXUXUXUXUXUXUXUXUXUX",
"UXUXUXUXUXUXUXUXUXr.H.:X;X5.2.,.&.o.o.E E U I F F 1.+X*X1X&X@X[.$.E G B m M v m m m m M m S I B m m m v v x x j j j g g * * * * - : 9 e O   UXUXUXUXUXUXUXUXUXUXUXUX",
"UXUXUXUXUXUXUXUXf l.:X;X5.2.,.&.$. . .E I I F F N }.3X8X8X9X9X0X9X9X4X{.:.E G v v m m m S -X4X{.%.U B v v v x j j j j g g * * * = ; 5 w 3     UXUXUXUXUXUXUXUXUXUXUX",
"UXUXUXUXUXUXUXUXj.>XC.5.2.,.&.$.$.,.7X-X,.$.E N F ].2X0XqXqXhXhXhXkXhXhXjXgX7X[.%.o.U m E qXKXHXNXxX-X2. .K M v j j j g g g g g k - : 9 w %   UXUXUXUXUXUXUXUXUXUXUX",
"UXUXUXUXUXUXUXf >XF.C.3.,.,.%.$.o.<XDXDXMXcX4X[.3.[ e.|.oX*XqXkXzXcXvXzXcXcXcXcXcXjX4X[.-XFXPXPXPXIXLXFXcX4X{.:.R N x j j g g g k = - 5 w 3     UXUXUXUXUXUXUXUXUXUX",
"UXUXUXUXUXUXUXr.z.;XV.2.,.&.$. . .4XGXGXDXDXMXbXnXjX*X+X X].'..X+X0XzXnXbXMXMXMXDXDXDXbXDXIXPXPXPXPXPXPXPXKXFXMXfX-X3.*.' P g g k * = : 9 w O   UXUXUXUXUXUXUXUXUXUX",
"UXUXUXUXUXUXs z.F.V.2.,.&.%.o. .| 7XDXGXDXDXMXbXMXMXMXbXzXfX=XXX'.`.'.&XqXcXMXFXGXGXHXHXJXIXPXPXPXPXPXIXPXPXPXPXIXKXDXzX%X[.h g k k l ; 5 e 3     UXUXUXUXUXUXUXUXUX",
"UXUXUXUXUXUXs H.C.s.2.>.%.$. .E E 7XMXGXDXDXGXDXMXbXnXnXnXnXcXzXhX8X&X+X+X%X1X9XzXbXHXKXLXKXKXKXLXIXIXPXPXIXIXIXIXPXPXKX9X@Xh h g k k - C w 9     UXUXUXUXUXUXUXUXUX",
"UXUXUXUXUXUXr.H.C.1.,.>.$.o.E E I [.DXDXGXDX9XqXcXbXMXbXvXvXzXcXlXlXlXkXfX9X3X&X%X$X1XfXbXJXKXJXHXDXGXHXKXIXIXPXIXIXPXHX9X}.g g g g k = C 8 w %     UXUXUXUXUXUXUXUX",
"UXUXUXUXUXd l.l.s.2.>.%.o. .E U I 5.DXHXHXgXl.T.^.rXaXwXxXvXzXvXlXlXkXhXhXhXhXfXfX9X8X%X+X$X&X8XlXbXMXMXMXMXMXFXHXLXPXFX4X3.j j h g k l - 5 w 3     UXUXUXUXUXUXUXUX",
"UXUXUXUXUXs z.f.s.,.&.@...E Y I F ,.DXJXLXgX{.R.~.~./._.).yXaXwXlXkXhXhXhXfX9X9X9X9XhXlXlXfX=X+X.XoX%X3XfXzXcXzXzXzXMXzX=X@.j j h g k * - > w 9     UXUXUXUXUXUXUXUX",
"UXUXUXUXUXq.H.f.1.>.%.o. .E U I F $.DXHXLXgX{.R./.(.tX).).!.!.!.(.uXaXwXqXhXfXhXfX9X8X3X1X8X9XhXkXkX9X&XoX].oX9XzXxXfXqX1XG v j z g k k = : 9 w o     UXUXUXUXUXUXUX",
"UXUXUXUXu r.l.s.,.>.$.o.| Y T F B #.MXGXJXvXl.R./.pXZXsXdXtX_._._._._./.(.eX5XwXqXhXhXgX=X*X%X%X&X8XjXnXMX%X[ '.hXzXhX9X@XN x x h g g * = ; 8 w $     UXUXUXUXUXUXUX",
"UXUXUXUXi h.f.a.,.&.o. .E U F F B X.bXHXJXgX:XR./.sXVXVXSXAXSXSXsXdXtX)./.!.R.~.W.W.6X5X8X0X0X=X%X+X+X+X9XGX'.w.3XzXhX9X{.M x x x h g g = - 8 e <     UXUXUXUXUXUXUX",
"UXUXUXUXi k.f.a.-.%.o. .E U F F B R vXGXHXvX#XL.I.pXVXVXVXZXAXAXAXZXSXsXdXuX(.~.I.Q.v.Q.D.H.,X,X1X%X$X+X+XjX+Xw.1XzXhX3X<.v x x h h g k * - 5 w 3     UXUXUXUXUXUXUX",
"UXUXUXUXi k.d.1.>.$.o.| Y I F F N K lXDXHXvXl.A.U.(.pXSXZXAXAXAXZXZXAXAXVXVXBXpXyX^.P.Q.c.v.Q.m.H.1X2X+X$X0XXXw.1XlXqX3X..v x x h g g * * - 4 w 7     UXUXUXUXUXUXUX",
"UXUXUXUXa k.d.1.%.%...| U I F B N G 9XDXGXvX#XA.I.~./.tXyXdXSXSXAXAXZXZXVXCXBXBXNXmXpXiXrXY.m.c.G.1X2X%X$X8X X[ 2XlX9X<XG v x j h h g g * - > w 8       UXUXUXUXUXUX",
"UXUXUXUXd k.a.1.%.@...Y U I F B N G 4XDXGXbX#XD.~.~.~.~././.).tXyXdXsXZXVXBXBXBXBXmXNXNXCXpXY.M.Z.&X1X%X%X8X Xw.&XkX0X}.B v x j x h g g k - > 9 9       UXUXUXUXUXUX",
"UXUXUXUXi k.a.-.%.o. .Y U F F B N F 4XbXFXvX#XP.I.^.yX(.).(.(.).)._./.(.uXiXpXmXNXCXNXmXNXmXY.M.G.2X&X%X%X8X'.q.&XkX3X[.m v v j h h g g * - : w 9       UXUXUXUXUXUX",
"UXUXUXUXi k.u.-.%.o. .E I I F B N F <XbXDXbX@XD.R.^.iXiXyXtX(./.!.I.I.I.U.U.~.^.yXpXmXNXCXmXY.c.Z.&X&X%X%X8X'.w.%XkX1X&.v v x j h g g k * = > w 9       UXUXUXUXUXUX",
"UXUXUXUXi k.i.-.@.+.| Y U I F S N F 7XMXMXbX$XD.I.R.eXiXtXyXyX(.^.~.I.I.I.I.~.I.I.P.E.eXaXaXY.Q.Z.2X%X%X%X8X'.[ %XhX2X| v v x x h h g g * - > w 9       UXUXUXUXUXUX",
"UXUXUXUXu h.i.-.%... .E I I F S B F -XvXMXbX%XZ.P.R.~.^.^.^.eXuXiXyXuXuXeX^.~.R.T.P.E.W.W.D.Q.M.Z.2X1X%X%X8X'.q.%X9X@XG v v v x x h h g k - 4 w 0       UXUXUXUXUXUX",
"UXUXUXUXu h.i.-.@.o.E E U I F S S F -XjXcXvX%XN.P.P.L.K.J.U.P.T.~.uXiXiXiXyX^.P.P.T.eXrX6XD.m.M.Z.2X%X%X%X3X'.[ $X8X[.B v v v j x h g k = - 4 w 7       UXUXUXUXUXUX",
"UXUXUXUXu y.i.-.@... .E I I F S S F 5.jXzXvX+XD.P.L.A.Q.A.J.J.I.R.~./.^.uXuXeXR.T.Y.eXrXeXS.m.M.N.2X2X%X%X1X`.[ $X1X4.b v v v j h g g k * ; 5 w 2       UXUXUXUXUXUX",
"UXUXUXUX# 0.p.=.#...| Y T G F S S S 3.jXzXzX%XZ.J.S.6XE.T.K.P.R.R.R.R.R.R.E.^.W.W.W.6XeX6XD.m.M.N.%X%X%X%X2Xg.[ +X1Xo.v v v j j x g g k = ; 8 w <       UXUXUXUXUXUX",
"UXUXUXUX@ 0.i.=.+...E Y T I F F S F 3.fXlXvX%Xh.c.Q.6XrX6XeXT.T.P.R.R.T.T.T.P.P.T.T.E.W.W.Y.m.M.N.%X2X%X%X%X`.q.oX7XY v v x v j h g g k l : 8 w %       UXUXUXUXUXUX",
"UXUXUXUXUXa y.=.+.+.E E U I F F F S 4.9XlXzX*Xn.c.c.Y.6XeXeXyXrX^.E.P.T.T.P.P.L.L.K.S.D.G.S.m.M.N.2X%X%X$X%Xe.[  X{.N v j v j j h g k k - > w 9 o     UXUXUXUXUXUXUX",
"UXUXUXUXUX# y.t.+...E E I I G F F B ,.0XkXzX*Xi.x.x.M.K.E.6XeXrXaXpXuX^.R.P.L.L.K.L.W.6XW.S.M.M.N.%X%X#X+X&Xe.]  X4.v v v v v j z g k l - 4 w 8       UXUXUXUXUXUXUX",
"UXUXUXUXUX# 8.i.;.X.} Y Y I I F F S &.4XhXzX0X].t.u.b.S.J.K.I.P.E.eXrXaXiXaXE.K.S.L.6XrXW.m.M.M.N.$X+X+X+X$Xe.[ ].:.v v v j j j z g k l ; 8 w 2       UXUXUXUXUXUXUX",
"UXUXUXUXUX@ y y.` +.} Y T I I F F S E @X0XfXhXfX=X'.e.d.h.N.S.S.K.K.L.E.6XrXW.D.L.N.6X6X6XN.M.M.b.#X+XOX+X+Xe.] `.O.v v j v j j z k * = > 9 w %       UXUXUXUXUXUXUX",
"UXUXUXUXUXUX# y.=.) } Y T I F F F F G ..3.}.=X9XkXhX9X=XXX].g.t.n.N.J.J.K.L.Y.Y.W.Y.W.W.6XN.M.x.b.OX+X+X+XoXe.p g.K x x j j j j z k k ; 4 w 8         UXUXUXUXUXUXUX",
"UXUXUXUXUXUX@ 6.8.;._ Y T I F F S G T U K R *.[.}.%X9XhXhXfX=XXXg.g.i.n.n.m.J.J.S.G.G.G.G.m.B.x.b.#X+XOXoXoXe.p 4.n x x j j j j k k = ; 8 r 2       UXUXUXUXUXUXUXUX",
"UXUXUXUXUXUXX y 8.` ) L T G F F F F I U U T I T E O.4.|.&X4X0X0X8X&XXX'.e.t.u.n.M.Q.Q.m.m.M.B.x.b.OX+XoXoXoXe.p *.v x j j j j h k l - 4 w 9 O       UXUXUXUXUXUXUXUX",
"UXUXUXUXUXUXUX@ 8.8.) _ L G F S B S S S F F I I H G I R *.4.[.+X&X1X3X3X&XXX`.g.a.=.u.b.c.x.x.x.B.OX+XOX+X.X[ p ' j j j j j h g k - ; 8 w 2         UXUXUXUXUXUXUXUX",
"UXUXUXUXUXUXUXX y 8.( ) L F D D B B M M N M m S I G G G G K R O.:.[.oX$X%X*X*X&X$X'.g.w.t.p.B.x.B.oX+XoXoX.X[ p Y x j j h g g g l - > w 9 %       UXUXUXUXUXUXUXUXUX",
"UXUXUXUXUXUXUXUX@ ^ 8.) J J S S B N m m b b v v m N S S F H I K K R ' 4.[..X+X+X&X%X%XoX'.e.w.=.t..XOXoXoX X] ] D z h h g g g * l : 8 w 2         UXUXUXUXUXUXUXUXUX",
"UXUXUXUXUXUXUXUX. 1 8.( ! J B N b b b m v v v v v m v m N N S F G H G I K E *.[.|.XX$X$X$X$X+X'.'.OXoXoXoX Xp { x j h h g g * = ; 5 w 8 O       UXUXUXUXUXUXUXUXUXUX",
"UXUXUXUXUXUXUXUXUXX r 6.( J D N b v v v v v v v v v v v m m m m B S F F G H F H O.*.4.|. XoXOXXX+XoXoXoXoX'.[ { j c g g g * = - > 9 w <         UXUXUXUXUXUXUXUXUXUX",
"UXUXUXUXUXUXUXUXUXUXX ^ ( ! A Z b b v x v v v v v v v v m v v v m m m m N S F F H S S R #.4.`.|. X XoXoXoX].] ' c n h g * * - : 0 e 2         UXUXUXUXUXUXUXUXUXUXUX",
"UXUXUXUXUXUXUXUXUXUX. 1 9.( Q Z b b b x v v x x v v v v v v v v v v x v x x m M B S F G S F R *.:.g.g. X X`.s ' n n g * * - ; 8 e Q ,         UXUXUXUXUXUXUXUXUXUXUX",
"UXUXUXUXUXUXUXUXUXUXUX. t 9./ A Z x x z j j j j j v v v j v v v v v x v x j v v v v M B S G S P S K ' :.4.`.{ P n n * * = : 5 w 8 ,         UXUXUXUXUXUXUXUXUXUXUXUX",
"UXUXUXUXUXUXUXUXUXUXUXUX. 3 ^ / W Z Z z x j j h j j j j j j j v v x x x x x x j v v x v v m B F F P P P R ' H n n * * = ; 5 w 9 <         UXUXUXUXUXUXUXUXUXUXUXUXUX",
"UXUXUXUXUXUXUXUXUXUXUXUXUX  3 ^ ~ A V b z z h h j j j j j j j j j j j j j j x x v j x x x x v j m n P P P n n n * * - : 5 w 9 ,         UXUXUXUXUXUXUXUXUXUXUXUXUXUX",
"UXUXUXUXUXUXUXUXUXUXUXUXUXUX  3 / ~ W V V l h h h j j j j j j j j j j j j j j j j j j j x j j j j x j x n n = * = - : 8 w 9 &           UXUXUXUXUXUXUXUXUXUXUXUXUXUX",
"UXUXUXUXUXUXUXUXUXUXUXUXUXUXUX  1 ^ ~ W C V l k l g g g g g z z g g h h h h h h h j j j h h h h g g k k k c = - ; > 8 e 9 &           UXUXUXUXUXUXUXUXUXUXUXUXUXUXUX",
"UXUXUXUXUXUXUXUXUXUXUXUXUXUXUXUX  < ^ ~ 9 C V = l k k k g g g g g g g g h h h g h h h h h z h z g k k k = = - ; 5 9 w 8 ,           UXUXUXUXUXUXUXUXUXUXUXUXUXUXUXUX",
"UXUXUXUXUXUXUXUXUXUXUXUXUXUXUXUXUX  , t ~ ~ 5 C V = l k k k k k g * * g g g g g g g g g k k k k k * = = - ; 4 8 w 9 2 $           UXUXUXUXUXUXUXUXUXUXUXUXUXUXUXUXUX",
"UXUXUXUXUXUXUXUXUXUXUXUXUXUXUXUXUXUX    < e ~ 9 5 : ; - = * * * g * * * g * g * * g g g k k k l = = - ; > 8 w w 8 <             UXUXUXUXUXUXUXUXUXUXUXUXUXUXUXUXUXUX",
"UXUXUXUXUXUXUXUXUXUXUXUXUXUXUXUXUXUXUX    O 3 w e 9 W > ; ; - = = * * = * * * k * * k l = = l - ; > 4 8 w r 9 2 O           UXUXUXUXUXUXUXUXUXUXUXUXUXUXUXUXUXUXUXUX",
"UXUXUXUXUXUXUXUXUXUXUXUXUXUXUXUXUXUXUXUXUX    , 0 w w w 8 5 > : ; ; - - - = - - = * - ; ; : > 4 8 9 w e 9 2 %             UXUXUXUXUXUXUXUXUXUXUXUXUXUXUXUXUXUXUXUXUX",
"UXUXUXUXUXUXUXUXUXUXUXUXUXUXUXUXUXUXUXUXUXUX      O 3 w e e w 9 8 6 4 4 > > > > > > 4 5 8 9 w w e w 8 2 O               UXUXUXUXUXUXUXUXUXUXUXUXUXUXUXUXUXUXUXUXUXUX",
"UXUXUXUXUXUXUXUXUXUXUXUXUXUXUXUXUXUXUXUXUXUXUXUX        $ 2 7 w w e w w w w 9 w w w e e e w 9 6 2 %                 UXUXUXUXUXUXUXUXUXUXUXUXUXUXUXUXUXUXUXUXUXUXUXUX",
"UXUXUXUXUXUXUXUXUXUXUXUXUXUXUXUXUXUXUXUXUXUXUXUXUXUX          o $ < 2 7 0 8 9 9 0 7 7 2 < $ o                   UXUXUXUXUXUXUXUXUXUXUXUXUXUXUXUXUXUXUXUXUXUXUXUXUXUX",
"UXUXUXUXUXUXUXUXUXUXUXUXUXUXUXUXUXUXUXUXUXUXUXUXUXUXUXUX                                                    UXUXUXUXUXUXUXUXUXUXUXUXUXUXUXUXUXUXUXUXUXUXUXUXUXUXUXUX",
"UXUXUXUXUXUXUXUXUXUXUXUXUXUXUXUXUXUXUXUXUXUXUXUXUXUXUXUXUXUXUX                                        UXUXUXUXUXUXUXUXUXUXUXUXUXUXUXUXUXUXUXUXUXUXUXUXUXUXUXUXUXUXUX",
"UXUXUXUXUXUXUXUXUXUXUXUXUXUXUXUXUXUXUXUXUXUXUXUXUXUXUXUXUXUXUXUXUXUXUXUX                    UXUXUXUXUXUXUXUXUXUXUXUXUXUXUXUXUXUXUXUXUXUXUXUXUXUXUXUXUXUXUXUXUXUXUXUX",
"UXUXUXUXUXUXUXUXUXUXUXUXUXUXUXUXUXUXUXUXUXUXUXUXUXUXUXUXUXUXUXUXUXUXUXUXUXUXUXUXUXUXUXUXUXUXUXUXUXUXUXUXUXUXUXUXUXUXUXUXUXUXUXUXUXUXUXUXUXUXUXUXUXUXUXUXUXUXUXUXUXUX",
"UXUXUXUXUXUXUXUXUXUXUXUXUXUXUXUXUXUXUXUXUXUXUXUXUXUXUXUXUXUXUXUXUXUXUXUXUXUXUXUXUXUXUXUXUXUXUXUXUXUXUXUXUXUXUXUXUXUXUXUXUXUXUXUXUXUXUXUXUXUXUXUXUXUXUXUXUXUXUXUXUXUX",
"UXUXUXUXUXUXUXUXUXUXUXUXUXUXUXUXUXUXUXUXUXUXUXUXUXUXUXUXUXUXUXUXUXUXUXUXUXUXUXUXUXUXUXUXUXUXUXUXUXUXUXUXUXUXUXUXUXUXUXUXUXUXUXUXUXUXUXUXUXUXUXUXUXUXUXUXUXUXUXUXUXUX",
"UXUXUXUXUXUXUXUXUXUXUXUXUXUXUXUXUXUXUXUXUXUXUXUXUXUXUXUXUXUXUXUXUXUXUXUXUXUXUXUXUXUXUXUXUXUXUXUXUXUXUXUXUXUXUXUXUXUXUXUXUXUXUXUXUXUXUXUXUXUXUXUXUXUXUXUXUXUXUXUXUXUX",
"UXUXUXUXUXUXUXUXUXUXUXUXUXUXUXUXUXUXUXUXUXUXUXUXUXUXUXUXUXUXUXUXUXUXUXUXUXUXUXUXUXUXUXUXUXUXUXUXUXUXUXUXUXUXUXUXUXUXUXUXUXUXUXUXUXUXUXUXUXUXUXUXUXUXUXUXUXUXUXUXUXUX",
"UXUXUXUXUXUXUXUXUXUXUXUXUXUXUXUXUXUXUXUXUXUXUXUXUXUXUXUXUXUXUXUXUXUXUXUXUXUXUXUXUXUXUXUXUXUXUXUXUXUXUXUXUXUXUXUXUXUXUXUXUXUXUXUXUXUXUXUXUXUXUXUXUXUXUXUXUXUXUXUXUXUX"
};
