/* XPM */
static char *Free_Converter_com_btn_load_1_88090323[] = {
/* columns rows colors chars-per-pixel */
"82 82 256 2 ",
"   c #000C0E",
".  c #000E10",
"X  c #001214",
"o  c #001619",
"O  c #00191D",
"+  c #00252A",
"@  c #002F36",
"#  c #003B44",
"$  c #01434C",
"%  c #084A54",
"&  c #065A66",
"*  c #006473",
"=  c #036978",
"-  c #00616F",
";  c #316269",
":  c #526B79",
">  c #170F86",
",  c #170F88",
"<  c #180F8C",
"1  c #161384",
"2  c #161B83",
"3  c #19118E",
"4  c #181787",
"5  c #1B1292",
"6  c #1B1B94",
"7  c #231D8A",
"8  c #201795",
"9  c #231A96",
"0  c #261D98",
"q  c #281F99",
"w  c #162383",
"e  c #152B83",
"r  c #17278B",
"t  c #153485",
"y  c #153B84",
"u  c #15378A",
"i  c #1A2795",
"p  c #183A97",
"a  c #2C239A",
"s  c #292698",
"d  c #30279D",
"f  c #332B9D",
"g  c #342D92",
"h  c #3A339D",
"j  c #3E3998",
"k  c #28329A",
"l  c #362EA0",
"z  c #3B33A2",
"x  c #3838A3",
"c  c #2D38A0",
"v  c #423C9E",
"b  c #423BA5",
"n  c #154C8A",
"m  c #154687",
"M  c #15538B",
"N  c #155B89",
"B  c #155895",
"V  c #174A96",
"C  c #15678C",
"Z  c #007A8C",
"A  c #007485",
"S  c #16758C",
"D  c #156796",
"F  c #157C92",
"G  c #157898",
"H  c #007B8E",
"J  c #1A57A2",
"K  c #3747A7",
"L  c #2C50A7",
"P  c #186FA6",
"I  c #3270B2",
"U  c #337A84",
"Y  c #504D9C",
"T  c #5D7285",
"R  c #657B89",
"E  c #64699C",
"W  c #4542A8",
"Q  c #4B44AA",
"!  c #4A48A9",
"~  c #524CAD",
"^  c #514CA5",
"/  c #4954AD",
"(  c #5551AE",
")  c #5B57A9",
"_  c #5D5AB3",
"`  c #5855B1",
"'  c #4C5AB0",
"]  c #615EB1",
"[  c #4869B4",
"{  c #5865B6",
"}  c #5276B5",
"|  c #6867A9",
" . c #6462B7",
".. c #696BB8",
"X. c #6974BD",
"o. c #7678B8",
"O. c #7374AC",
"+. c #737BC1",
"@. c #6B7EC0",
"#. c #00869A",
"$. c #15849B",
"%. c #168599",
"&. c #328895",
"*. c #068DA5",
"=. c #158BA3",
"-. c #1488A7",
";. c #0195AB",
":. c #019BAE",
">. c #0991AB",
",. c #1595AB",
"<. c #019DB4",
"1. c #0A9AB5",
"2. c #1599B5",
"3. c #1889B3",
"4. c #3296AF",
"5. c #00A2BA",
"6. c #08A4B9",
"7. c #14A4BA",
"8. c #33A1B1",
"9. c #508D96",
"0. c #6C8392",
"q. c #778A97",
"w. c #6B8994",
"e. c #5986BA",
"r. c #518AAF",
"t. c #718FA7",
"y. c #57ABB7",
"u. c #71AAB6",
"i. c #3B8CD5",
"p. c #3C95DA",
"a. c #3A9CC2",
"s. c #04ACC2",
"d. c #15ABC2",
"f. c #05B7CB",
"g. c #16B6CA",
"h. c #05BDD1",
"j. c #17BED1",
"k. c #32AFCB",
"l. c #3DA3E2",
"z. c #4B94CB",
"x. c #5699C8",
"c. c #4698D9",
"v. c #589CD4",
"b. c #4B8CC9",
"n. c #7687C5",
"m. c #7998CA",
"M. c #6790C6",
"N. c #4AA3DD",
"B. c #59A6DC",
"V. c #4FAFCE",
"C. c #64A6D9",
"Z. c #66B4D3",
"A. c #78B9D7",
"S. c #74AACD",
"D. c #4BA7E2",
"F. c #58ACE3",
"G. c #5DB3E6",
"H. c #58B7EA",
"J. c #4CB2EA",
"K. c #64BBEA",
"L. c #67B7E7",
"P. c #78B9E5",
"I. c #67ADE1",
"U. c #439BE0",
"Y. c #0AC4D6",
"T. c #1AC5D7",
"R. c #28CADB",
"E. c #36C8D8",
"W. c #35D4E2",
"Q. c #51C9D9",
"!. c #69C8DA",
"~. c #75CDDD",
"^. c #4AD7E4",
"/. c #5ADAE6",
"(. c #5BC7F4",
"). c #77C5EB",
"_. c #67DBE7",
"`. c #77DAE5",
"'. c #6AC8F2",
"]. c #76CCF2",
"[. c #76D2F6",
"{. c #6AC4EF",
"}. c #79E1EB",
"|. c #69E1EA",
" X c #81939E",
".X c #8A9BA5",
"XX c #8798A6",
"oX c #8688B7",
"OX c #8E95B4",
"+X c #8FA2AD",
"@X c #94A4AD",
"#X c #94A6B1",
"$X c #95A9B4",
"%X c #9AABB4",
"&X c #9AA9B8",
"*X c #8FACBB",
"=X c #A1AEB7",
"-X c #A4B3BC",
";X c #A9B6BD",
":X c #ACB8BD",
">X c #B2BABD",
",X c #9797C3",
"<X c #8D8BC2",
"1X c #88B3D2",
"2X c #A8ABC8",
"3X c #ACBAC2",
"4X c #A7B5C2",
"5X c #B2BDC4",
"6X c #B3B6CD",
"7X c #A0BFD3",
"8X c #85BEE7",
"9X c #A09EC9",
"0X c #B5C3CA",
"qX c #BBC6CC",
"wX c #B9C4CA",
"eX c #BDCAD3",
"rX c #ACCDDC",
"tX c #88C7EA",
"yX c #96CAEB",
"uX c #84DAE8",
"iX c #89D4F5",
"pX c #97D4F3",
"aX c #8FCFEF",
"sX c #A7D8F3",
"dX c #AED6EF",
"fX c #83E2EC",
"gX c #BAE6F9",
"hX c #A8E3F9",
"jX c #83C3DC",
"kX c #C2CACE",
"lX c #C9CBCC",
"zX c #C3CDD3",
"xX c #C9CDD5",
"cX c #CAD2D6",
"vX c #CCD4DA",
"bX c #C6D1D6",
"nX c #D4D9DD",
"mX c #D5D7DA",
"MX c #D9DEE1",
"NX c #D6DCE1",
"BX c #C3DFF4",
"VX c #DDE1E4",
"CX c #CAE7F8",
"ZX c #D2EDFA",
"AX c #D7F3FD",
"SX c #C7F0FD",
"DX c #E2E4E7",
"FX c #E3E6E9",
"GX c #EAECEE",
"HX c #E6E9EB",
"JX c #ECEEF0",
"KX c #EEF0F2",
"LX c #F2F3F4",
"PX c #FBFBFC",
"IX c #F7F8F9",
"UX c None",
/* pixels */
"UXUXUXUXUXUXUXUXUXUXUXUXUXUXUXUXUXUXUXUXUXUXUXUXUXUXUXUXUXUXUXUXUXUXUXUXUXUXUXUXUXUXUXUXUXUXUXUXUXUXUXUXUXUXUXUXUXUXUXUXUXUXUXUXUXUXUXUXUXUXUXUXUXUXUXUXUXUXUXUXUXUX",
"UXUXUXUXUXUXUXUXUXUXUXUXUXUXUXUXUXUXUXUXUXUXUXUXUXUXUXUXUXUXUXUXUXUXUXUXUXUXUXUXUXUXUXUXUXUXUXUXUXUXUXUXUXUXUXUXUXUXUXUXUXUXUXUXUXUXUXUXUXUXUXUXUXUXUXUXUXUXUXUXUXUX",
"UXUXUXUXUXUXUXUXUXUXUXUXUXUXUXUXUXUXUXUXUXUXUXUXUXUXUXUXUXUXUXUXUXUXUXUXUXUXUXUXUXUXUXUXUXUXUXUXUXUXUXUXUXUXUXUXUXUXUXUXUXUXUXUXUXUXUXUXUXUXUXUXUXUXUXUXUXUXUXUXUXUX",
"UXUXUXUXUXUXUXUXUXUXUXUXUXUXUXUXUXUXUXUXUXUXUXUXUXUXUXUXUXUXUXUXUXUXUXUXUXUXUXUXUXUXUXUXUXUXUXUXUXUXUXUXUXUXUXUXUXUXUXUXUXUXUXUXUXUXUXUXUXUXUXUXUXUXUXUXUXUXUXUXUXUX",
"UXUXUXUXUXUXUXUXUXUXUXUXUXUXUXUXUXUXUXUXUXUXUXUXUXUXUXUXUXUXUXUXUXU &.&.4.8.8.4.4.&.%.S ; % UXUXUXUXUXUXUXUXUXUXUXUXUXUXUXUXUXUXUXUXUXUXUXUXUXUXUXUXUXUXUXUXUXUXUXUX",
"UXUXUXUXUXUXUXUXUXUXUXUXUXUXUXUXUXUXUXUXUXUXUXUXUXUXUXUXUX9.y.V.Q.^./.^./.^.^.^.^.W.W.W.T.T.d.3.= # UXUXUXUXUXUXUXUXUXUXUXUXUXUXUXUXUXUXUXUXUXUXUXUXUXUXUXUXUXUXUXUX",
"UXUXUXUXUXUXUXUXUXUXUXUXUXUXUXUXUXUXUXUXUXUXUXUXUXUX9.y././._./.!.Q.V.Q.V.V.V.a.z.k.k.E.k.E.R.R.R.h.*.= @ UXUXUXUXUXUXUXUXUXUXUXUXUXUXUXUXUXUXUXUXUXUXUXUXUXUXUXUXUX",
"UXUXUXUXUXUXUXUXUXUXUXUXUXUXUXUXUXUXUXUXUXUXUXUXy.!.|.|._.!.Z.V.x.x.e.} } } [ [ I [ [ [ I 3.3.k.k.T.T.Y.f.Z $ UXUXUXUXUXUXUXUXUXUXUXUXUXUXUXUXUXUXUXUXUXUXUXUXUXUXUX",
"UXUXUXUXUXUXUXUXUXUXUXUXUXUXUXUXUXUXUXUXUXUXu._.|.`.~.Z.C.M.M.} { { [ ' ' / / K / K K K L L L J I 3.2.j.T.Y.h.H # UXUXUXUXUXUXUXUXUXUXUXUXUXUXUXUXUXUXUXUXUXUXUXUXUX",
"UXUXUXUXUXUXUXUXUXUXUXUXUXUXUXUXUXUXUXUXt.`.|.`.).Z.M.M.X.{ { ' ` / ! Q Q W x b x x x x c c k c p c J P 3.d.j.Y.s.= UXUXUXUXUXUXUXUXUXUXUXUXUXUXUXUXUXUXUXUXUXUXUXUX",
"UXUXUXUXUXUXUXUXUXUXUXUXUXUXUXUXUXUXUXZ.|.}.~.S.m.M.@.{ { ` ` ~ ! Q W b b x z z l l l d d d i a 0 i i p J J 3.d.T.h.#.$ UXUXUXUXUXUXUXUXUXUXUXUXUXUXUXUXUXUXUXUXUXUX",
"UXUXUXUXUXUXUXUXUXUXUXUXUXUXUXUXUXw.`.}.`.A.S.M.X...{ ` ` ~ Q Q b b b z z z l l l l d d d a a 0 0 6 6 i i p V D 2.g.Y.f.* UXUXUXUXUXUXUXUXUXUXUXUXUXUXUXUXUXUXUXUXUX",
"UXUXUXUXUXUXUXUXUXUXUXUXUXUXUXUXu.`.}.jXS.m.+.X... .` ( ~ Q W b x z l l l l f f d d d d a a 0 9 9 9 5 6 6 r i p B P 7.T.h.Z UXUXUXUXUXUXUXUXUXUXUXUXUXUXUXUXUXUXUXUX",
"UXUXUXUXUXUXUXUXUXUXUXUXUXUXUXu.}.uXA.S.n.+.X...{ _ ( ! Q b b z z l f f d f d d d a a a a a 0 9 9 5 5 5 3 4 r r u V D 2.g.h.#.UXUXUXUXUXUXUXUXUXUXUXUXUXUXUXUXUXUXUX",
"UXUXUXUXUXUXUXUXUXUXUXUXUXUXu.}.uXjXm.n.+.X. ._ ` ( Q Q b z z l l d d a a a a a a a a a a 0 0 9 9 5 5 5 3 3 3 4 6 r u B -.g.h.#.UXUXUXUXUXUXUXUXUXUXUXUXUXUXUXUXUXUX",
"UXUXUXUXUXUXUXUXUXUXUXUXUXu.fXfX8Xm.n.+... ._ ` ~ Q b b z x l d a a q q q a q q 0 a 0 0 0 0 0 6 5 5 5 5 3 3 , 4 2 2 w u B -.g.h.*.UXUXUXUXUXUXUXUXUXUXUXUXUXUXUXUXUX",
"UXUXUXUXUXUXUXUXUXUXUXUXu.}.`.jXm.n.+... ._ ` ~ Q Q b z l f d a q q 0 9 0 0 0 0 9 q 0 q 0 0 9 9 9 5 8 5 < < < < , , 2 w t B -.d.h.#.UXUXUXUXUXUXUXUXUXUXUXUXUXUXUXUX",
"UXUXUXUXUXUXUXUXUXUXUXt.uXfX1X1Xn.o... ._ ~ ~ Q b z z f f d a q q 9 9 9 9 8 0 8 9 9 0 0 0 0 9 8 6 8 5 5 5 < < < > > 1 2 2 t B =.g.h.Z UXUXUXUXUXUXUXUXUXUXUXUXUXUXUX",
"UXUXUXUXUXUXUXUXUXUXUX`.fXjXm.n.+... ._ ~ Q b b x z l d d a a q 0 9 9 8 8 9 8 8 9 9 0 0 0 9 9 9 8 8 5 5 5 < < < , > > 1 2 w y B ,.g.f.* UXUXUXUXUXUXUXUXUXUXUXUXUXUX",
"UXUXUXUXUXUXUXUXUXUXA.uXuX1Xn.o... ._ ` ~ Q b z l f d a q q q 0 9 8 8 8 8 8 8 8 9 9 9 9 0 9 9 9 9 8 8 5 < 5 < < , , > > 1 2 e y D 2.f.<.$ UXUXUXUXUXUXUXUXUXUXUXUXUX",
"UXUXUXUXUXUXUXUXUXu.`.uX8X<X+.o. ._ ~ Q b b z l f x o.OXO.^ f q 8 8 5 8 8 8 8 8 9 9 9 9 9 9 9 9 8 8 8 5 5 5 5 < , , > > 1 1 2 e m G d.h.#.UXUXUXUXUXUXUXUXUXUXUXUXUX",
"UXUXUXUXUXUXUXUXUX`.fXjXm.+.+. .] ` ~ Q b l l d s O.%X;X3X;X&XoX` b f a 5 8 5 8 5 9 5 9 8 d f q 8 8 8 8 5 5 < < < , > > > 1 2 2 e B -.g.f.= UXUXUXUXUXUXUXUXUXUXUXUX",
"UXUXUXUXUXUXUXUXu.fXaXS.n.+... ._ ~ ~ b l l d a q ,X5X0X0XqXqXqXwXwX4XOX| Q f 5 8 8 9 8 a ,X6X<X{ z 0 8 5 5 5 5 < < > > > > 1 2 w y D 2.h.<.# UXUXUXUXUXUXUXUXUXUXUX",
"UXUXUXUXUXUXUXUX`.fXA.<X+... ._ ~ ..9X<X..` b q d XX4X0XeXeXeXzXbXbXbXxXxXkX9XoX) Q b 5 b kXJXGXCXxX,X..b z 9 5 < < > > > > 1 1 4 e n $.d.f.Z UXUXUXUXUXUXUXUXUXUXUX",
"UXUXUXUXUXUXUXu.}.jXS.n.X. ._ ~ ~ 2XDXDXVXvX6X<Xo.q.q. X$X3XqXcXvXvXvXnXnXNXNXnXnXxX6XoX,XFXPXPXPXPXKXFXNX6XOX| W 0 , , , 1 1 1 2 2 u D 2.f.<.$ UXUXUXUXUXUXUXUXUXUX",
"UXUXUXUXUXUXUX`.fXA.m.o... ._ ~ Q 6XHXGXDXDXMXMXmXlX:X#X.X.X.X@X=XwXvXMXMXMXMXMXVXDXDXMXFXIXPXIXPXPXPXPXPXLXFXVXkX,Xo.| Y 0 > > 1 2 e n G d.f.A UXUXUXUXUXUXUXUXUXUX",
"UXUXUXUXUXUXt.}.).S.n... ._ ~ Q b 9XDXHXFXDXVXMXVXVXVXMXnXkX>X%XXX X+X-XeXnXDXFXHXGXGXGXJXLXPXPXPXPXPXIXPXPXPXPXIXKXFXvX-XoX, , 1 1 w u D 2.f.:.@ UXUXUXUXUXUXUXUXUX",
"UXUXUXUXUXUX!.}.A.m.+..._ ( Q b b 9XDXHXFXDXFXDXVXMXNXNXnXnXmXvXxX5X-X=X%X-X3XqXvXMXGXKXLXLXLXLXLXIXIXPXPXIXIXIXIXIXPXKXqX&X< , , 4 2 e M -.d.5.* UXUXUXUXUXUXUXUXUX",
"UXUXUXUXUXUX`.`.A.n.X. .` ~ Q b l <XDXHXDXDXkXeXnXMXVXNXmXnXvXvXcXcXcXcXkXwX5X;X-X%X3XkXMXGXKXKXGXFXFXGXKXIXIXIXPXIXPXJXqXOX3 , , 1 1 w y G 7.f.#.O UXUXUXUXUXUXUXUX",
"UXUXUXUXUXt.|.~.m.X..._ ~ Q b z l o.DXGXGXlXm.G.).yXrXdXvXmXmXvXcXcXcXzXzXzXzXkXkXqX0X;X%X=X;X0XcXNXVXVXVXVXDXFXGXLXPXFX5Xo.3 , , 1 1 w t D ,.f.5.# UXUXUXUXUXUXUXUX",
"UXUXUXUXUXu.}.~.m.X. .` ~ b b l d ] HXGXJXlXOXK.{.{.'.'.[.aXsXrXbXbXcXlXxXkXeXqXqXqXzXcXcXkX>X%X+X#X-X5XkXvXvXvXbXvXVXvX5X^ 3 3 , > 1 2 e M %.d.5.- UXUXUXUXUXUXUXUX",
"UXUXUXUXUX!.|.A.M. ._ ~ Q b l d d _ DXGXJXlX*XL.{.].iX[.[.(.(.(.].aXyXrXeXzXkXkXkXwX0X5X5X0XqXzXcXbXqX;X#XXX#XeXvXbXkXqX5Xf 5 , , > 1 4 r m G 7.s.#.X UXUXUXUXUXUXUX",
"UXUXUXUX: _._.S.@. .` ~ W z l d a ) DXHXLXlXu.K.{.gXZXgXhXiX[.[.[.[.'.[.].yX7XrXeXzXkXzX5X3X-X=X4X0XzXMXDX-X0..XzXvXzXqX&Xq 3 3 , , > 1 w y G 2.s.;.+ UXUXUXUXUXUXUX",
"UXUXUXUX9._.~.m.X. .` Q b z l d q b MXHXJXcX*XK.'.gXZXZXSXAXSXSXhXhXfX[.(.(.K.K.P.8X1X7X0X5XwX5X;X%X%X%XqXFX X0.5XvXzX0XOX9 3 3 , , > 1 2 y C ,.s.<.# UXUXUXUXUXUXUX",
"UXUXUXUX9.|.!.M.X.{ ~ Q b z l a q v NXHXGXmXu.G.H.dXZXZXAXAXAXAXAXAXSXgXhXaX].{.H.l.U.U.B.S.1X4X3X;X-X$X%XcX@X0.>XbXzX0X..5 3 3 , , > 1 2 t N =.s.5.& UXUXUXUXUXUXUX",
"UXUXUXUXy.|.Z.M.{ ` ~ Q x l d a q l cXDXGXmX*XN.J.iXhXSXAXAXAXAXAXAXAXAXZXCXCXgXpX).F.U.p.U.D.c.S.3X4X&X=XqX@X0.:XvXeX5X^ 5 3 3 , > > 1 2 e M =.7.5.* UXUXUXUXUXUXUX",
"UXUXUXUXy.|.L.n.{ _ ~ W z l d a 0 l kXDXHXmX*XN.H.{.'.iXpXhXgXSXAXAXAXZXZXZXCXCXBXBXBXdXyXI.c.U.C.;X-X-X-X0X+X0.3XvXqX=Xf 3 3 3 < , > > 4 e n $.6.5.A   UXUXUXUXUXUX",
"UXUXUXUXy.|.Z.M.{ _ Q b z l d q 0 d 6XDXHXMX*XB.K.{.K.{.'.].[.iXpXhXSXZXZXCXCXCXCXBXCXCXZXdXI.p.C.;X3X-X-X0X.X0.3XbX0X,Xq 3 3 3 , , > 1 2 e n $.7.5.H . UXUXUXUXUXUX",
"UXUXUXUXy.|.G.@.{ ~ Q b z d d q 9 f 2XDXFXmX*XG.H.).pX].].].[.[.[.[.'.].pXsXgXBXCXCXCXCXCXBXI.c.C.4X;X-X-X0X.X0.;XbX6XoX9 < 5 < , , > 1 2 w n F 2.<.H o UXUXUXUXUXUX",
"UXUXUXUXy./.Z.e.{ ~ W b z f d q 0 d 2XMXDXMX$XI.H.).sXsXpXiX].'.(.H.H.J.J.J.K.).yXBXBXBXZXBXI.p.M.;X4X-X-X0X.X0.-XbX3X] 5 5 5 < > > > > 2 e n F 2.5.#.O UXUXUXUXUXUX",
"UXUXUXUXy./.Z.} { ! W b z d d q 0 d 9XVXDXMX&XB.K.K.tXsXiXaXaX].).{.K.J.H.H.K.K.G.G.P.8XyXdXI.U.B.4X4X-X-X0X.X0.-XeX4XW 5 5 3 3 < , , 1 1 e n %.2.<.#.O UXUXUXUXUXUX",
"UXUXUXUXy._.Z.e.{ ~ W b z l d a q f ,XvXVXMX=XC.G.K.K.].].P.tXaXpXpXaXiXiX].K.K.G.G.L.P.P.B.U.c.v.4X-X-X-X>X.X0.-XqX&Xf 5 5 5 3 < , > 1 2 e M %.1.<.#.X UXUXUXUXUXUX",
"UXUXUXUXr./.Z.e.{ / Q b z l d a q f ,XxXnXmX-XB.G.G.G.D.D.H.G.K.{.tXsXsXsXpX).K.G.L.aXyX8XB.v.U.C.-X;X-X-X0X XR =X0XoXq 5 5 < < < , 1 1 2 e N $.1.5.H . UXUXUXUXUXUX",
"UXUXUXUX9./.Q.b.{ ! Q b l f d d a a oXxXvXvX-Xx.G.F.N.U.D.U.D.H.K.{.).).tXaXtXK.G.G.8XyXyXB.U.c.v.-X-X-X-X>X X0.=X3XO.6 5 5 5 < , > > 1 2 t N %.6.5.A . UXUXUXUXUXUX",
"UXUXUXUXU ^.Q.e.[ ~ W x z f d a q a oXzXvXvX-XC.D.B.).P.I.F.G.K.K.K.K.K.K.L.P.P.P.P.8XyX8XB.c.c.C.;X-X-X-X3Xt.R &X4X~ 5 5 < 5 < < , > 1 2 u C =.1.5.=   UXUXUXUXUXUX",
"UXUXUXUX; E./.x.[ / W z z l d d a a o.kXvXvX:Xx.p.c.8XyXtX).L.L.K.K.K.K.K.G.G.L.G.L.I.P.P.C.c.i.x.-X-X-X=X;X XR #X2Xx 5 5 5 5 < , , > 1 w y S =.<.5.&   UXUXUXUXUXUX",
"UXUXUXUXUXV.Q.V.[ ' Q b l l d d d a ..kXcXcX:Xx.p.p.I.8XtXtXpXyXP.L.L.G.G.G.G.F.F.F.F.F.F.N.c.c.c.-X4X-X&X-Xq.R +XOX0 5 5 < < < , > 1 2 e m S ,.;.<.$ UXUXUXUXUXUXUX",
"UXUXUXUXUX8.^.V.} / W x l l f d a a O.wXlXmX>Xr.i.i.p.F.P.P.tXyXsXsXyX).L.G.F.F.F.F.P.8X8Xv.c.c.v.-X-X%X&X-Xq.R XXo.5 5 < 5 5 < , > 2 2 e M F 2.<.;.@ UXUXUXUXUXUXUX",
"UXUXUXUXUX&.^.Q.r./ W x x l f f d a ] 6XzXvX6X.Xw.r.z.D.F.F.G.G.L.tXyXyXdXsXP.F.B.B.8XyXP.B.c.c.v.=X%X%X%X%Xq.R .X| 5 5 5 < < < > > 1 2 y C %.1.5.#.o UXUXUXUXUXUXUX",
"UXUXUXUXUX; E.Q.b.I ! K x l f f d a b &X0XkXkXkX;X+Xt.t.x.x.N.B.F.F.I.L.8XyXP.F.F.v.8X8X8Xv.i.i.z.&X%X$X%X%Xq.T  X^ 5 5 < 5 < < 1 1 1 e y S =.<.5.=   UXUXUXUXUXUXUX",
"UXUXUXUXUXUX8.^.k.[ / W x l d d d d f ^ o.@X3XkXzXbXqX5X%X Xt.t.x.N.D.F.D.F.B.I.P.I.I.8X8Xc.i.c.z.$X$X%X$X%Xq.: q.h 5 3 3 < < < 1 1 2 e M %.-.;.<.$ . UXUXUXUXUXUXUX",
"UXUXUXUXUXUXU ^.Q.I L K l l d d a f z z h W ) oX,X2XqXkXzXqX;X@X Xt.e.x.x.c.D.D.D.C.I.C.C.v.z.i.z.*X%X%X$X#Xq.: O.8 3 < < < < < 1 2 w y C %.1.<.#.+ UXUXUXUXUXUXUXUX",
"UXUXUXUXUXUX% E.W.a.I K x l d s a d l z z l f x v ^ | OX;X5XwXwX5X:X%X.Xq.w.r.x.c.U.U.c.c.c.i.i.z.*X$X$X$X#Xq.: ) 3 3 < < < , , 1 2 e M F -.:.5.=   UXUXUXUXUXUXUXUX",
"UXUXUXUXUXUXUX&.W.V.I L c l f d q a a a f f f l h g h v ) O.oX%X;X3X5X>X;X@XXXt.o.r.b.z.c.p.i.i.b.$X$X$X$X@XR : Y 3 3 < < < > > 2 w y N %.>.<.;.# X UXUXUXUXUXUXUXUX",
"UXUXUXUXUXUXUX% R.E.a.I K c d s a 0 9 0 0 9 9 q d f f f f j v ^ | oX@X=X-X;X:X;X=X.Xq.R 9.e.b.i.i.#X$X$X#X+X0.: v 3 3 , , , > 1 2 e n F -.:.5.Z X UXUXUXUXUXUXUXUXUX",
"UXUXUXUXUXUXUXUX%.W.k.I L c k s q 0 8 8 8 5 5 5 8 0 a a f f l l g v ^ O.oX@X%X=X-X;X;X%X Xq.0.} O.+X$X$X#X@X: T s 3 , , , > 1 2 w y C %.>.;.<.$   UXUXUXUXUXUXUXUXUX",
"UXUXUXUXUXUXUXUX% g.R.a.I c k k 9 8 8 8 5 5 5 5 5 5 8 8 0 0 a d l h f f h v | O.OX@X=X=X=X=X=X.X.X&X#X#X@X@X: E 4 , > > > 1 2 w t M F -.:.5.Z X UXUXUXUXUXUXUXUXUXUX",
"UXUXUXUXUXUXUXUXUXS T.E.3.L k i 6 6 6 5 5 5 < 5 5 5 5 5 8 8 8 8 q q d d f f f g v | O.XX+X@X#X%X&X#X#X#X@X.XT E < 4 > > 1 1 2 e m S %.;.<.;.$   UXUXUXUXUXUXUXUXUXUX",
"UXUXUXUXUXUXUXUXUXUX,.T.j.P J i i 6 3 3 5 5 5 5 5 5 5 5 5 5 5 5 8 8 8 9 q q d f d g a v ) O. X.X+X+X+X+X%X.XT Y 3 7 > 1 1 2 e y C %.*.*.5.= . UXUXUXUXUXUXUXUXUXUXUX",
"UXUXUXUXUXUXUXUXUXUX% T.R.a.P p i 6 6 3 5 3 < 5 5 5 5 5 5 5 5 5 5 5 5 < 3 8 7 0 q d d d a a v ) O.O.XX.X@X XT Y 7 7 1 1 2 e y N %.-.<.5.#.@ O UXUXUXUXUXUXUXUXUXUXUX",
"UXUXUXUXUXUXUXUXUXUXUX= Y.T.2.J p i i 3 3 3 < < 5 5 < 5 5 5 < < 5 5 5 5 < < 5 5 5 8 9 q a d a q s g Y |  X XE 7 7 2 2 2 w e N S =.:.<.;.$   UXUXUXUXUXUXUXUXUXUXUXUX",
"UXUXUXUXUXUXUXUXUXUXUXUXG Y.j.2.J p i 6 3 , 3 3 5 < < < < 5 < 5 < < < < 3 3 3 3 < 5 3 5 5 8 q g s s q g j Y g 7 7 2 2 w y = F %.;.;.<.- X UXUXUXUXUXUXUXUXUXUXUXUXUX",
"UXUXUXUXUXUXUXUXUXUXUXUXUX#.Y.j.3.J p r r 3 , , < < < < < < < < < < < < 5 < < < , 3 < 5 < 5 5 5 9 7 7 g 7 7 7 7 1 2 w y N S %.=.;.5.= O UXUXUXUXUXUXUXUXUXUXUXUXUXUX",
"UXUXUXUXUXUXUXUXUXUXUXUXUXUX*.h.g.1.D p r r , < < < < < < < < < < < < < < < < < < 5 < < < < < < < < > < 2 7 7 2 w e m N F =.*.;.5.H + O UXUXUXUXUXUXUXUXUXUXUXUXUXUX",
"UXUXUXUXUXUXUXUXUXUXUXUXUXUXUX*.h.j.2.P V i r 4 4 4 1 1 , > , , > > > > > , > , , , < < < < < > > > > 1 1 2 2 w t m C %.%.*.;.5.#.+ . UXUXUXUXUXUXUXUXUXUXUXUXUXUXUX",
"UXUXUXUXUXUXUXUXUXUXUXUXUXUXUXUX#.h.j.7.G B u t w 4 4 1 1 > > > > > > > > > > > , , , , > > > 1 > 1 2 2 2 2 e y M S %.-.:.;.<.Z +   UXUXUXUXUXUXUXUXUXUXUXUXUXUXUXUX",
"UXUXUXUXUXUXUXUXUXUXUXUXUXUXUXUXUXZ f.f.7.,.D V u e w 4 2 2 1 1 1 1 1 1 > > > > > > > > 1 > 1 1 1 1 2 w e y & D F %.*.<.<.<.A + X UXUXUXUXUXUXUXUXUXUXUXUXUXUXUXUXUX",
"UXUXUXUXUXUXUXUXUXUXUXUXUXUXUXUXUXUX* <.h.g.7.$.D V u e w 2 2 1 1 1 1 1 > > 1 1 > 1 1 > 1 1 2 2 w w e y n N S %.-.;.*.5.;.- O X UXUXUXUXUXUXUXUXUXUXUXUXUXUXUXUXUXUX",
"UXUXUXUXUXUXUXUXUXUXUXUXUXUXUXUXUXUXUX$ *.f.f.d.2.$.D M y t e w w 2 2 2 2 1 2 1 1 2 2 2 2 w e e t m M C S %.-.-.<.<.5.#.$ . UXUXUXUXUXUXUXUXUXUXUXUXUXUXUXUXUXUXUXUX",
"UXUXUXUXUXUXUXUXUXUXUXUXUXUXUXUXUXUXUXUXUX= <.f.h.7.2.=.G D M m m t t e e e e r e e t t t m m M C S F $.=.2.<.;.5.;.= +   UXUXUXUXUXUXUXUXUXUXUXUXUXUXUXUXUXUXUXUXUX",
"UXUXUXUXUXUXUXUXUXUXUXUXUXUXUXUXUXUXUXUXUXUX# Z <.f.h.d.7.,.=.G S D N M M n n n n n N N C S G $.$.=.,.1.:.<.5.<.Z # . o UXUXUXUXUXUXUXUXUXUXUXUXUXUXUXUXUXUXUXUXUXUX",
"UXUXUXUXUXUXUXUXUXUXUXUXUXUXUXUXUXUXUXUXUXUXUXUX$ A ;.5.f.s.d.7.2.,.=.%.$.$.$.$.%.%.%.%.=.=.,.>.1.<.;.<.5.;.H $ o . UXUXUXUXUXUXUXUXUXUXUXUXUXUXUXUXUXUXUXUXUXUXUXUX",
"UXUXUXUXUXUXUXUXUXUXUXUXUXUXUXUXUXUXUXUXUXUXUXUXUXUX@ * #.<.5.s.s.6.s.7.6.7.2.2.2.2.1.1.<.<.<.;.5.5.<.#.= # X   UXUXUXUXUXUXUXUXUXUXUXUXUXUXUXUXUXUXUXUXUXUXUXUXUXUX",
"UXUXUXUXUXUXUXUXUXUXUXUXUXUXUXUXUXUXUXUXUXUXUXUXUXUXUXUXO $ * H ;.<.5.5.5.5.<.5.5.<.5.5.5.5.<.;.#.* $ +   X UXUXUXUXUXUXUXUXUXUXUXUXUXUXUXUXUXUXUXUXUXUXUXUXUXUXUXUX",
"UXUXUXUXUXUXUXUXUXUXUXUXUXUXUXUXUXUXUXUXUXUXUXUXUXUXUXUXUXUXUXX + # & * A Z H H #.#.H A * & $ @ o   . UXUXUXUXUXUXUXUXUXUXUXUXUXUXUXUXUXUXUXUXUXUXUXUXUXUXUXUXUXUXUX",
"UXUXUXUXUXUXUXUXUXUXUXUXUXUXUXUXUXUXUXUXUXUXUXUXUXUXUXUXUXUXUXUXUXUXUXUX  . o o X . .       UXUXUXUXUXUXUXUXUXUXUXUXUXUXUXUXUXUXUXUXUXUXUXUXUXUXUXUXUXUXUXUXUXUXUXUX",
"UXUXUXUXUXUXUXUXUXUXUXUXUXUXUXUXUXUXUXUXUXUXUXUXUXUXUXUXUXUXUXUXUXUXUXUXUXUXUXUXUXUXUXUXUXUXUXUXUXUXUXUXUXUXUXUXUXUXUXUXUXUXUXUXUXUXUXUXUXUXUXUXUXUXUXUXUXUXUXUXUXUX",
"UXUXUXUXUXUXUXUXUXUXUXUXUXUXUXUXUXUXUXUXUXUXUXUXUXUXUXUXUXUXUXUXUXUXUXUXUXUXUXUXUXUXUXUXUXUXUXUXUXUXUXUXUXUXUXUXUXUXUXUXUXUXUXUXUXUXUXUXUXUXUXUXUXUXUXUXUXUXUXUXUXUX",
"UXUXUXUXUXUXUXUXUXUXUXUXUXUXUXUXUXUXUXUXUXUXUXUXUXUXUXUXUXUXUXUXUXUXUXUXUXUXUXUXUXUXUXUXUXUXUXUXUXUXUXUXUXUXUXUXUXUXUXUXUXUXUXUXUXUXUXUXUXUXUXUXUXUXUXUXUXUXUXUXUXUX",
"UXUXUXUXUXUXUXUXUXUXUXUXUXUXUXUXUXUXUXUXUXUXUXUXUXUXUXUXUXUXUXUXUXUXUXUXUXUXUXUXUXUXUXUXUXUXUXUXUXUXUXUXUXUXUXUXUXUXUXUXUXUXUXUXUXUXUXUXUXUXUXUXUXUXUXUXUXUXUXUXUXUX",
"UXUXUXUXUXUXUXUXUXUXUXUXUXUXUXUXUXUXUXUXUXUXUXUXUXUXUXUXUXUXUXUXUXUXUXUXUXUXUXUXUXUXUXUXUXUXUXUXUXUXUXUXUXUXUXUXUXUXUXUXUXUXUXUXUXUXUXUXUXUXUXUXUXUXUXUXUXUXUXUXUXUX",
"UXUXUXUXUXUXUXUXUXUXUXUXUXUXUXUXUXUXUXUXUXUXUXUXUXUXUXUXUXUXUXUXUXUXUXUXUXUXUXUXUXUXUXUXUXUXUXUXUXUXUXUXUXUXUXUXUXUXUXUXUXUXUXUXUXUXUXUXUXUXUXUXUXUXUXUXUXUXUXUXUXUX"
};
