/* XPM */
static char *Free_Converter_com_btn_load_2_55630323[] = {
/* columns rows colors chars-per-pixel */
"82 82 88 1 ",
"  c #00BCBE",
". c #02BEC0",
"X c #06BFE0",
"o c #03C2C4",
"O c #08C4C6",
"+ c #0BC6C9",
"@ c #01CACE",
"# c #0ECACC",
"$ c #10CCCE",
"% c #01CDD3",
"& c #06C2DE",
"* c #05CCDD",
"= c #14CFD2",
"- c #03D1D6",
"; c #0BD4D7",
": c #05D4DD",
"> c #0AD5D9",
", c #05D8DF",
"< c #0CDADD",
"1 c #15D2D4",
"2 c #18D4D6",
"3 c #15D7DC",
"4 c #1BD6D9",
"5 c #15DADF",
"6 c #1CD9DC",
"7 c #06C0E2",
"8 c #0AC4E5",
"9 c #06CCE2",
"0 c #0EC9E7",
"q c #0FCAE8",
"w c #11CCE7",
"e c #12CCE9",
"r c #06D5E2",
"t c #0CD3E6",
"y c #06DAE2",
"u c #0BDCE5",
"i c #0FDDE8",
"p c #16D3E6",
"a c #19D7E5",
"s c #16DEE4",
"d c #1BDDE3",
"f c #15D2EA",
"g c #1AD5EC",
"h c #14DBEA",
"j c #1DDBED",
"k c #0FDFF4",
"l c #12DFF2",
"z c #21DEED",
"x c #0FE0E7",
"c c #13E1E5",
"v c #1EE2E6",
"b c #14E2EA",
"n c #1CE4ED",
"m c #1DE8EE",
"M c #0EE1F6",
"N c #0FE5F8",
"B c #13E3F5",
"V c #18E6F5",
"C c #17E8F7",
"Z c #1AE8F6",
"A c #14E7F8",
"S c #18E7F8",
"D c #16EAF9",
"F c #1BEBF9",
"G c #1DF1FC",
"H c #21E2E7",
"J c #25E5EB",
"K c #28E6ED",
"L c #23E9ED",
"P c #2AEAEE",
"I c #22E4F0",
"U c #29E5F1",
"Y c #21EAF1",
"T c #2DECF1",
"R c #22EDF9",
"E c #31EFF3",
"W c #2EF0F5",
"Q c #24F1FC",
"! c #2BF3FC",
"~ c #2FF8FE",
"^ c #34F1F5",
"/ c #38F4F6",
"( c #33F6FC",
") c #39F6F9",
"_ c #35F9FE",
"` c #3DFAFC",
"' c #40FCFE",
"] c None",
/* pixels */
"]]]]]]]]]]]]]]]]]]]]]]]]]]]]]]]]]]]]]]]]]]]]]]]]]]]]]]]]]]]]]]]]]]]]]]]]]]]]]]]]]]",
"]]]]]]]]]]]]]]]]]]]]]]]]]]]]]]]]]]]]]]]]]]]]]]]]]]]]]]]]]]]]]]]]]]]]]]]]]]]]]]]]]]",
"]]]]]]]]]]]]]]]]]]]]]]]]]]]]]]]]]]]]]]]]]]]]]]]]]]]]]]]]]]]]]]]]]]]]]]]]]]]]]]]]]]",
"]]]]]]]]]]]]]]]]]]]]]]]]]]]]]]]]]]]]]]]]]]]]]]]]]]]]]]]]]]]]]]]]]]]]]]]]]]]]]]]]]]",
"]]]]]]]]]]]]]]]]]]]]]]]]]]]]]]]]]#$$$$$++++Ooo]]]]]]]]]]]]]]]]]]]]]]]]]]]]]]]]]]]]",
"]]]]]]]]]]]]]]]]]]]]]]]]]]]]]1135cbbbbbxciiu<>%oo.]]]]]]]]]]]]]]]]]]]]]]]]]]]]]]]]",
"]]]]]]]]]]]]]]]]]]]]]]]]]]11ccnbbnbhhiciiiiiiuuu,-   ]]]]]]]]]]]]]]]]]]]]]]]]]]]]]",
"]]]]]]]]]]]]]]]]]]]]]]]]4snmmnhjhhghftfftfwtttttyuu,@  ]]]]]]]]]]]]]]]]]]]]]]]]]]]",
"]]]]]]]]]]]]]]]]]]]]]]4vmnjVjggggfeeeeeeew0qeqqq9tryyy%  ]]]]]]]]]]]]]]]]]]]]]]]]]",
"]]]]]]]]]]]]]]]]]]]]4vmnnnjgggggffeeeeqqqq0088888899ry,:@ ]]]]]]]]]]]]]]]]]]]]]]]]",
"]]]]]]]]]]]]]]]]]]]6vYnIjjgggfeeefeeqqqqqq80q888889799r,y-  ]]]]]]]]]]]]]]]]]]]]]]",
"]]]]]]]]]]]]]]]]]6vmmnnjjggfffeeqqqqqqqq8808888X87777799r,-% ]]]]]]]]]]]]]]]]]]]]]",
"]]]]]]]]]]]]]]]]aHYISjjggggeeeeeqqqq8qq88q8q88888777778&9:,,% ]]]]]]]]]]]]]]]]]]]]",
"]]]]]]]]]]]]]]]6IUIjjjggggfeeqeqq08q88888888888X7877777&&&*,,- ]]]]]]]]]]]]]]]]]]]",
"]]]]]]]]]]]]]]6LISUjjgggffeeeqq8088800Xq8888888887777XX77&&**,% ]]]]]]]]]]]]]]]]]]",
"]]]]]]]]]]]]]6mLIzjjggggeeeeqqqq8888X00X888888X8787777XX&&&&*:,% ]]]]]]]]]]]]]]]]]",
"]]]]]]]]]]]]6LYIzjjgggeeeeq00088888888888888XqqX8877777777XXX7::% ]]]]]]]]]]]]]]]]",
"]]]]]]]]]]]4LYIIjjggggeewwq0qXq8787778787888qXX88777777777XXXX*::% ]]]]]]]]]]]]]]]",
"]]]]]]]]]]]LYLjjjggggeeeq0q88888877887788788888X7887777777XX&&&*,,@ ]]]]]]]]]]]]]]",
"]]]]]]]]]]6LLIjjjggeeeeq0q88888X8887878778888XX888877777777X&&&&*,-. ]]]]]]]]]]]]]",
"]]]]]]]]]6LYUzzgggeeeqqq8qzzjf088877X88887888X8X77X8X7777XX&&X&&**:% ]]]]]]]]]]]]]",
"]]]]]]]]]HLnjzggggeeqqq88jKPPPUHeq8888777877X8q8788877777X7&X&&X&*::@ ]]]]]]]]]]]]",
"]]]]]]]]aJRUzgggegeeqq888ITTTEEEEUUzge8888878UEzkq8X787777XXX&X&&&*:-. ]]]]]]]]]]]",
"]]]]]]]]zRzjjgggggUzggq80HPTEEEE/^^^EEUzee88q^))^EUgqq8777X&XXXXX&*:,@ ]]]]]]]]]]]",
"]]]]]]]6LIIjgggeeU``)^UzzzdzJTE^^/^//^/^^^THI)'''``)/TIgq8XX7&X&&&&*,-  ]]]]]]]]]]",
"]]]]]]]vLnjjgggeeU)`))))/EPKHLHJUU^///)))))))'''''''``)/WJzpe8XXX&&*:,@ ]]]]]]]]]]",
"]]]]]]6mIIjjggeeqU)`))))/)//^ETJUzHPE/)))`)))'''''''''''``)/Pz777&&&*,*  ]]]]]]]]]",
"]]]]]]6mVjjgggeqqU/`)))))///^//^EEPPJUTE^/``'`)'```''`'``''`EJ7XX&&&*:-  ]]]]]]]]]",
"]]]]]]vYzjgggeqq8U/`//E^/////^^/^^/^ETTPKPPE/````)`)```''``)EIXXX7&&*:r@  ]]]]]]]]",
"]]]]]4mIzjggfeqqqg//`/ISFQ!W^^^^^^EE^^EEEEEPKKPTE//)//))``')Tz7XX&&&&9:-  ]]]]]]]]",
"]]]]]6mnjggfeeqq8g```UUSFFGGGQ!!E^E^EEEEEEEE^EPKJJPT/^^^/^)/TgX7X7&&&*:,  ]]]]]]]]",
"]]]]]6mnjggfeeqq8g/``/zUGQQGGGDGGQQWE/EEEEETTTE/EEEPJHJT/EEEP8777XX7&*::o  ]]]]]]]",
"]]]]=vnngggeeq8q8f)))^LDF~_~~QGGGGGGGQWWEE^TTTUPPTE))P6HE/^EK877XX7&&&::@  ]]]]]]]",
"]]]]1nmjgggeqqq88e/''^LDF~______~~QGGDFDRFRTTTTTPKPJE)HvP^EEL77X&7X&&&::%  ]]]]]]]",
"]]]]1mVjggeeeqq880/))/LAD~_________~!QGFANNBCnYTPPPJK^KdT^^Pj7777X&X&**:-  ]]]]]]]",
"]]]]1mnjggeeqq88X0^))^LCAQ~__~_______((~!RABMNABYPPPKEJdP^WEe7X77XXX&&*,:  ]]]]]]]",
"]]]]2nnggeeeqq8q80E)`/LMDDGQQ!~_______(_((!!RSBkVPPPPTJdT^EU0XX7X77&&&*::   ]]]]]]",
"]]]]1nngegeeq88X8qU))/LCFGDGGGQQQ~~___~~((((`!SBVTPPPTJ6U^EU8XX7777XX&*::   ]]]]]]",
"]]]]2Vjggeeeqq888XE))/KVDFQQQGGGGGGGQ!^~(((()(SBVTPPPTJvTEEj878XX7XX&&*::   ]]]]]]",
"]]]]2Zjgegeeq8q8X0U/)/YZDG!!QQGFGDDADDDQ!!!(((SBVPPPPTHdP^Uk77XXXX&&&&*::.  ]]]]]]",
"]]]]1mbggeeeq888qqU^)/ISFFQ!QQQGGFDDAFFFDFFRR!SBVPPPPTJ6PEPe7XX7X77X&&*,:   ]]]]]]",
"]]]]1bjhffee0qq8qXU/))UVDFFFRFQQ!QQQQFFFFAFFRSBBVPPPPEHdPTU8787X77&X&&*::   ]]]]]]",
"]]]]=bbgfeee0q88XqU^^/UVAFAAAADFFQ!!!QFFDDR!RABBVPPPPTHsPTI88777X7X&&&:,*   ]]]]]]",
"]]]]=cnhfeeq0888qXj/^^UVDZABAAADDFFQQ!QFSZRRRABBVPPPPTHaPPjXX77X77XX&&*,-   ]]]]]]",
"]]]]$cbifee0qq8q88zE^^KVAARFZAZDFGFFFFFFRR!RRSBBVPPPPPH6UUe8XX77X7&X&&*:%   ]]]]]]",
"]]]]+5nhfeee0q8808zE^/PnBBRRRQDCDDDDDDFDZDSSRSlBBKPPPPHsURq7X877X&X&&*:,@.  ]]]]]]",
"]]]]]1bifeqqq08888jEE^TbkMZRRQQ!QZDZDZDAAAABSBBBVPPPKKHaII8778777XX9&*::o  ]]]]]]]",
"]]]]]=bhfeeqq08088gT^/PnkBkAZRRQ!!!FFZZZSZRRRlBkBPPJKKH6Jj777777XXX&&*::.  ]]]]]]]",
"]]]]]#cbffeqq00888gU(/EHahBCNCCCFRQ!!!FABVRRRBBBBKKKJPv5HgXX7X777X&&&:,*   ]]]]]]]",
"]]]]]+<chteqq00888eR^UEEPKvjnVCCDBZZRRRZSVRRRVkkBJJKPKv6HpXX7777XX&&*:,@   ]]]]]]]",
"]]]]]]#cheqq00888qqezUUEE^TTKHzdlVCABAZZZRRRRBBkbPPJKKd5dq7887X7&&&&*:*    ]]]]]]]",
"]]]]]]+ciieq0q8088qq0wgzJPEE^TTHHjnlBBMCBBSZZlkBBJJPJKd3j777XX77&&&&:,%.  ]]]]]]]]",
"]]]]]]o;xitq0088888qqq8qwpjzPTEETPPHHdbBBBBBBMkkBLJKJJd6fX7XX8XX&&&*::@   ]]]]]]]]",
"]]]]]]]+xxtq0808888888q8q80wgazKPPTTPKHHjhlkMBkkbJKKPJs3f777XXXX&&*::*    ]]]]]]]]",
"]]]]]]]o:ciq0888887888888q000wweazKPPPPPPHHdshlklJPJJJ6307777777&&*::@   ]]]]]]]]]",
"]]]]]]]]Ouutqq88888877878788808ww0paHJKKTPKUJvdshJJJJJ6s877X7777&*:,*    ]]]]]]]]]",
"]]]]]]]]o-uu0098878777787778888800qq0egzIUKUPKKHJJKJJJ6p77&XXX&&&*,:@   ]]]]]]]]]]",
"]]]]]]]]]o,iy0888777788777777888X8qq8888qgdzHKKKPKJJJHap77XXX&&&*::%    ]]]]]]]]]]",
"]]]]]]]]]]ouut97877778X777877777XX0X88q8888qazHJJJJJJJ6p78&X&&&*:,*    ]]]]]]]]]]]",
"]]]]]]]]]] -uy9887778XX777777777X8XXXXX888qq88qpavHHJH4p8&&&&&&:,:@    ]]]]]]]]]]]",
"]]]]]]]]]]].:yy987777777777777777877XXX8788888888wpadHa0&&&&&**::%    ]]]]]]]]]]]]",
"]]]]]]]]]]]] :yr98977777777777777777XXXX7XXX88888878wp8&&&&&**::%    ]]]]]]]]]]]]]",
"]]]]]]]]]]]]].-y997777777777777777778X8X77X8XX7788888888&&&&*::%    ]]]]]]]]]]]]]]",
"]]]]]]]]]]]]]].-kt8777777777777777XXXX8XXXXX77XXXX&&&&&&&&*:,:%     ]]]]]]]]]]]]]]",
"]]]]]]]]]]]]]]].%yr**7&8&&&XX&XXXXXXXXX77777X77XX7XX&&&&9**::@     ]]]]]]]]]]]]]]]",
"]]]]]]]]]]]]]]]].-y,9*&&&&X&X7X7&XXXXXXX7X7X77&XX&&X&&&&*:,:@.    ]]]]]]]]]]]]]]]]",
"]]]]]]]]]]]]]]]]] %-r,*9&&&7&X&XXX&&XX&&&X&XXX&&&&&&&&*:::%@.    ]]]]]]]]]]]]]]]]]",
"]]]]]]]]]]]]]]]]]]  %,,:***&&&&&&&&&&XXXXX&X&X&&&&&*:::,:%. .   ]]]]]]]]]]]]]]]]]]",
"]]]]]]]]]]]]]]]]]]]  @-,,:**&&&&&&&&&&&&&X&&&&&&&**::::%@     ]]]]]]]]]]]]]]]]]]]]",
"]]]]]]]]]]]]]]]]]]]]]  %::,::****&&&&&&&&&&&&***::,:::@      ]]]]]]]]]]]]]]]]]]]]]",
"]]]]]]]]]]]]]]]]]]]]]]   @-,:,,::**********:,::::::*@       ]]]]]]]]]]]]]]]]]]]]]]",
"]]]]]]]]]]]]]]]]]]]]]]]]    @-::,:,,::::,:,:::::*@        ]]]]]]]]]]]]]]]]]]]]]]]]",
"]]]]]]]]]]]]]]]]]]]]]]]]]]     o@%*::::*::-*%@o         ]]]]]]]]]]]]]]]]]]]]]]]]]]",
"]]]]]]]]]]]]]]]]]]]]]]]]]]]]                . .       ]]]]]]]]]]]]]]]]]]]]]]]]]]]]",
"]]]]]]]]]]]]]]]]]]]]]]]]]]]]]]]                    ]]]]]]]]]]]]]]]]]]]]]]]]]]]]]]]",
"]]]]]]]]]]]]]]]]]]]]]]]]]]]]]]]]]]]]          ]]]]]]]]]]]]]]]]]]]]]]]]]]]]]]]]]]]]",
"]]]]]]]]]]]]]]]]]]]]]]]]]]]]]]]]]]]]]]]]]]]]]]]]]]]]]]]]]]]]]]]]]]]]]]]]]]]]]]]]]]",
"]]]]]]]]]]]]]]]]]]]]]]]]]]]]]]]]]]]]]]]]]]]]]]]]]]]]]]]]]]]]]]]]]]]]]]]]]]]]]]]]]]",
"]]]]]]]]]]]]]]]]]]]]]]]]]]]]]]]]]]]]]]]]]]]]]]]]]]]]]]]]]]]]]]]]]]]]]]]]]]]]]]]]]]",
"]]]]]]]]]]]]]]]]]]]]]]]]]]]]]]]]]]]]]]]]]]]]]]]]]]]]]]]]]]]]]]]]]]]]]]]]]]]]]]]]]]",
"]]]]]]]]]]]]]]]]]]]]]]]]]]]]]]]]]]]]]]]]]]]]]]]]]]]]]]]]]]]]]]]]]]]]]]]]]]]]]]]]]]",
"]]]]]]]]]]]]]]]]]]]]]]]]]]]]]]]]]]]]]]]]]]]]]]]]]]]]]]]]]]]]]]]]]]]]]]]]]]]]]]]]]]"
};
