/* XPM */
static char *Free_Converter_com_btn_save_0_7362732[] = {
/* columns rows colors chars-per-pixel */
"82 82 256 2 ",
"   c #000000",
".  c #0C0C0C",
"X  c #171717",
"o  c #011F22",
"O  c #01353A",
"+  c #082A2C",
"@  c #282828",
"#  c #3C3C3C",
"$  c #333333",
"%  c #023B43",
"&  c #023B46",
"*  c #063F54",
"=  c #16157F",
"-  c #161B7E",
";  c #15237D",
":  c #152B7C",
">  c #15347D",
",  c #153C7C",
"<  c #02444A",
"1  c #054355",
"2  c #054B57",
"3  c #07535C",
"4  c #1D5558",
"5  c #0B4B6B",
"6  c #0A4965",
"7  c #0A546A",
"8  c #0A5967",
"9  c #15447C",
"0  c #154A7C",
"q  c #114F76",
"w  c #0D5472",
"e  c #15537B",
"r  c #155B7A",
"t  c #105776",
"y  c #14566B",
"u  c #15647A",
"i  c #15687B",
"p  c #1C6B76",
"a  c #0B6271",
"s  c #2C6B70",
"d  c #4B4B4B",
"f  c #555555",
"g  c #5B5B5B",
"h  c #5D5D64",
"j  c #545274",
"k  c #5E5D77",
"l  c #524F72",
"z  c #615F74",
"x  c #496566",
"c  c #646465",
"v  c #66666A",
"b  c #6B6B6C",
"n  c #696975",
"m  c #757575",
"M  c #7A7A7B",
"N  c #777679",
"B  c #170F86",
"V  c #170F88",
"C  c #180F8C",
"Z  c #161283",
"A  c #161A82",
"S  c #171288",
"D  c #18118E",
"F  c #1A1989",
"G  c #1B1292",
"H  c #1C1A93",
"J  c #231C8B",
"K  c #201795",
"L  c #231A96",
"P  c #261E98",
"I  c #281F98",
"U  c #172786",
"Y  c #173687",
"T  c #1B2792",
"R  c #1A3692",
"E  c #2C2495",
"W  c #2B239A",
"Q  c #2D2A9B",
"!  c #242697",
"~  c #342D96",
"^  c #30279D",
"/  c #322B9D",
"(  c #29399A",
")  c #36359C",
"_  c #362EA0",
"`  c #3B33A2",
"'  c #3C3AA3",
"]  c #3732A0",
"[  c #433D9E",
"{  c #433CA5",
"}  c #174686",
"|  c #175887",
" . c #1A4493",
".. c #1E5496",
"X. c #274699",
"o. c #2A5598",
"O. c #345A94",
"+. c #385A99",
"@. c #38499F",
"#. c #166C83",
"$. c #176588",
"%. c #187689",
"&. c #196492",
"*. c #1C7793",
"=. c #0C7383",
"-. c #3C629A",
";. c #3D6197",
":. c #28779A",
">. c #296B97",
",. c #3B43A2",
"<. c #2B5FA3",
"1. c #3954A2",
"2. c #2D61A5",
"3. c #3163A6",
"4. c #3C6CAB",
"5. c #3768A9",
"6. c #3B77A3",
"7. c #5E5B87",
"8. c #4B469B",
"9. c #4E499D",
"0. c #46409E",
"q. c #514B9E",
"w. c #5B5796",
"e. c #435D9E",
"r. c #615E8B",
"t. c #42669C",
"y. c #4B6C9E",
"u. c #446699",
"i. c #4D778F",
"p. c #666486",
"a. c #7F7F80",
"s. c #4342A6",
"d. c #4741A8",
"f. c #4B44AA",
"g. c #4D4AAA",
"h. c #4749A4",
"j. c #524CAD",
"k. c #455CA2",
"l. c #4957A7",
"z. c #5552AE",
"x. c #545AAD",
"c. c #5A55B1",
"v. c #5D5AB2",
"b. c #625EB5",
"n. c #4B6CA2",
"m. c #4767A5",
"M. c #5467AD",
"N. c #4974A9",
"B. c #5779AB",
"V. c #5C69B1",
"C. c #4D79B3",
"Z. c #4875B1",
"A. c #547DB5",
"S. c #5978B1",
"D. c #637BA9",
"F. c #6563B6",
"G. c #6C6AB9",
"H. c #646AB4",
"J. c #6875B7",
"K. c #7273BC",
"L. c #747BBD",
"P. c #797CBF",
"I. c #706FBB",
"U. c #7A7FC0",
"Y. c #1C8196",
"T. c #27869B",
"R. c #34889B",
"E. c #2D848E",
"W. c #3888A2",
"Q. c #3990A2",
"!. c #49949C",
"~. c #51898D",
"^. c #749A9C",
"/. c #688E90",
"(. c #4985AA",
"). c #4A99A9",
"_. c #569DAA",
"`. c #5A81B6",
"'. c #5D84BA",
"]. c #5B87B6",
"[. c #5A95B1",
"{. c #548AAF",
"}. c #748AAB",
"|. c #6282B2",
" X c #648ABC",
".X c #6C8DBD",
"XX c #6588B7",
"oX c #7486BB",
"OX c #6A96BA",
"+X c #7592BE",
"@X c #759CBE",
"#X c #7292A5",
"$X c #5EA5B4",
"%X c #58A3AD",
"&X c #79A8AB",
"*X c #67ABB7",
"=X c #75AAB9",
"-X c #7AB2B9",
";X c #69A2A7",
":X c #7C8BC1",
">X c #7B83C0",
",X c #6E91C1",
"<X c #7495C2",
"1X c #7A94C1",
"2X c #7C9BC5",
"3X c #7A9BC7",
"4X c #7CA8C1",
"5X c #7BB6C3",
"6X c #8C8C8C",
"7X c #858585",
"8X c #949494",
"9X c #9D9D9D",
"0X c #8E9CB1",
"qX c #93A4BD",
"wX c #81B4BB",
"eX c #A4A4A4",
"rX c #ABABAB",
"tX c #B4B4B4",
"yX c #BBBBBB",
"uX c #A9B2BE",
"iX c #829CC5",
"pX c #819CC7",
"aX c #9091CC",
"sX c #85A2CA",
"dX c #89A5CC",
"fX c #87A7C8",
"gX c #96ABCA",
"hX c #82B3C4",
"jX c #84BAC7",
"kX c #93ADD1",
"lX c #99A8D3",
"zX c #98B1D4",
"xX c #8DAAD0",
"cX c #ACB8C9",
"vX c #BCC2CB",
"bX c #BFC9D7",
"nX c #C4C4C4",
"mX c #CCCCCC",
"MX c #C3C6CA",
"NX c #D1CFCC",
"BX c #D3D1CE",
"VX c #D4D4D4",
"CX c #DBDBDB",
"ZX c #D7D7D7",
"AX c #CBCFD4",
"SX c #E0DFDD",
"DX c #E3E2DF",
"FX c #DFE0E1",
"GX c #E3E3E3",
"HX c #EBEBEB",
"JX c #E9E7E4",
"KX c #F1EEEA",
"LX c #F4F4F3",
"PX c #F9F9F9",
"IX c #F1F0EF",
"UX c None",
/* pixels */
"UXUXUXUXUXUXUXUXUXUXUXUXUXUXUXUXUXUXUXUXUXUXUXUXUXUXUXUXUXUXUXUXUXUXUXUXUXUXUXUXUXUXUXUXUXUXUXUXUXUXUXUXUXUXUXUXUXUXUXUXUXUXUXUXUXUXUXUXUXUXUXUXUXUXUXUXUXUXUXUXUXUX",
"UXUXUXUXUXUXUXUXUXUXUXUXUXUXUXUXUXUXUXUXUXUXUXUXUXUXUXUXUXUXUXUXUXUXUXUXUXUXUXUXUXUXUXUXUXUXUXUXUXUXUXUXUXUXUXUXUXUXUXUXUXUXUXUXUXUXUXUXUXUXUXUXUXUXUXUXUXUXUXUXUXUX",
"UXUXUXUXUXUXUXUXUXUXUXUXUXUXUXUXUXUXUXUXUXUXUXUXUXUXUXUXUXUXUXUXUXUXUXUXUXUXUXUXUXUXUXUXUXUXUXUXUXUXUXUXUXUXUXUXUXUXUXUXUXUXUXUXUXUXUXUXUXUXUXUXUXUXUXUXUXUXUXUXUXUX",
"UXUXUXUXUXUXUXUXUXUXUXUXUXUXUXUXUXUXUXUXUXUXUXUXUXUXUXUXUXUXUXUXUXUXUXUXUXUXUXUXUXUXUXUXUXUXUXUXUXUXUXUXUXUXUXUXUXUXUXUXUXUXUXUXUXUXUXUXUXUXUXUXUXUXUXUXUXUXUXUXUXUX",
"UXUXUXUXUXUXUXUXUXUXUXUXUXUXUXUXUXUXUXUXUXUXUXUXUXUXUXUXUXUXUXUXUX# # # # # $ $ $ @ @ X X X UXUXUXUXUXUXUXUXUXUXUXUXUXUXUXUXUXUXUXUXUXUXUXUXUXUXUXUXUXUXUXUXUXUXUXUX",
"UXUXUXUXUXUXUXUXUXUXUXUXUXUXUXUXUXUXUXUXUXUXUXUXUXUXUXUXUXd f x ~.~.).)._.).).).).Q.R.E.s 4 % . . . UXUXUXUXUXUXUXUXUXUXUXUXUXUXUXUXUXUXUXUXUXUXUXUXUXUXUXUXUXUXUXUX",
"UXUXUXUXUXUXUXUXUXUXUXUXUXUXUXUXUXUXUXUXUXUXUXUXUXUXf g /.%X$X$X_.[.{.{.{.(.N.N.N.6.6.6.W.W.T.T.i 3 .     UXUXUXUXUXUXUXUXUXUXUXUXUXUXUXUXUXUXUXUXUXUXUXUXUXUXUXUXUX",
"UXUXUXUXUXUXUXUXUXUXUXUXUXUXUXUXUXUXUXUXUXUXUXUXc /.$X*X*X[.XX`.S.M.M.M.l.l.l.1.1.1.1.1.1.<.<.:.Y.Y.Y.i <     UXUXUXUXUXUXUXUXUXUXUXUXUXUXUXUXUXUXUXUXUXUXUXUXUXUXUX",
"UXUXUXUXUXUXUXUXUXUXUXUXUXUXUXUXUXUXUXUXUXUXv ^.*X=XOX XXXS.V.V.M.x.z.l.g.h.s.s.,.,.' ) ( ( ( X. ...&.&.*.=.2     UXUXUXUXUXUXUXUXUXUXUXUXUXUXUXUXUXUXUXUXUXUXUXUXUX",
"UXUXUXUXUXUXUXUXUXUXUXUXUXUXUXUXUXUXUXUXv /.*X=X@X.XXXJ.H.b.x.z.j.g.f.d.d.{ ' ' ' ` ] ] ] Q Q ! ! R R  .| $.%.a O   UXUXUXUXUXUXUXUXUXUXUXUXUXUXUXUXUXUXUXUXUXUXUXUX",
"UXUXUXUXUXUXUXUXUXUXUXUXUXUXUXUXUXUXUXb &X5X4X+XoXJ.H.F.v.z.z.g.g.f.s.{ { { ` ` ] ] / / ^ ^ ! P T H T T R } | $.%.3     UXUXUXUXUXUXUXUXUXUXUXUXUXUXUXUXUXUXUXUXUXUX",
"UXUXUXUXUXUXUXUXUXUXUXUXUXUXUXUXUXv ^.-X-X1XoXK.I.H.b.v.z.j.g.f.{ { ' ` ` ` ` _ _ / / Q ^ P P L H L H D F T Y } $.#.a <   UXUXUXUXUXUXUXUXUXUXUXUXUXUXUXUXUXUXUXUXUX",
"UXUXUXUXUXUXUXUXUXUXUXUXUXUXUXUXm &X5X4X1XoXK.G.F.F.c.z.g.f.d.{ { _ ` ` / _ / / ^ ^ ^ Q W W P L L K G G F F F U Y e $.#.2   UXUXUXUXUXUXUXUXUXUXUXUXUXUXUXUXUXUXUXUX",
"UXUXUXUXUXUXUXUXUXUXUXUXUXUXUXm &XhX2X+XL.K.G.F.v.v.j.g.f.{ { _ _ _ / / / ^ ^ ^ W W ^ W ^ P P L L K G G D S F F A U 9 r i 2   UXUXUXUXUXUXUXUXUXUXUXUXUXUXUXUXUXUXUX",
"UXUXUXUXUXUXUXUXUXUXUXUXUXUXm &XhX2X:XP.K.G.F.v.c.j.g.{ f.z.l.+.o.O.l.g.' ^ E W W W W W P W P L L G G D D C S Z A A : , r i 2   UXUXUXUXUXUXUXUXUXUXUXUXUXUXUXUXUXUX",
"UXUXUXUXUXUXUXUXUXUXUXUXUXN &XhX2X:XL.I.G.b.v.c.j.f.d.v.+.-.B.1XsXiXXXn.+.l.' P P P P W P P P L L G G D G D S S Z Z - ; > e i 2   UXUXUXUXUXUXUXUXUXUXUXUXUXUXUXUXUX",
"UXUXUXUXUXUXUXUXUXUXUXUXN &XwXiXU.P.I.G.b.c.c.j.f.g.k.t.iXzXzXzXkXkXkXkXkX`.+.g.L P P P P P P L G K G G D C C C V B = = - > w i 2   UXUXUXUXUXUXUXUXUXUXUXUXUXUXUXUX",
"UXUXUXUXUXUXUXUXUXUXUXb wXjXiXiXP.I.G.b.v.c.f.f.j.e.D.lXlXxXgXxXxXdXdXsXpXxXfX-.,.P P P P P K K L G G G D C C C B B = = = ; , t i <   UXUXUXUXUXUXUXUXUXUXUXUXUXUXUX",
"UXUXUXUXUXUXUXUXUXUXUX&XhXiXiXP.K.G.b.v.j.j.f.{ k.oXlXlXsX+XiXkXkXdXsXsX2X3X3XkX-.g.P P P P K L K K K G G D C C V B B = = = ; , r i %   UXUXUXUXUXUXUXUXUXUXUXUXUXUX",
"UXUXUXUXUXUXUXUXUXUXN wXfXiXL.K.G.F.v.j.j.{ [ F.D.aXL.m.k.e.e.+.`.zXfX2X3X3X<X<XfX+.` P P K P L K K K G D D C C V V B B = = - : 9 u 8     UXUXUXUXUXUXUXUXUXUXUXUXUX",
"UXUXUXUXUXUXUXUXUXm &XhXaXU.K.I.F.v.z.j.{ { j.l.aXt.k.` I P P ] 1.u.kXiX3X<X<X,XsX.Xm.L L L L K L K G G G G G C V V B B = = = = : e u 2   UXUXUXUXUXUXUXUXUXUXUXUXUX",
"UXUXUXUXUXUXUXUXUX^.jXsX:XP.I.G.b.z.j.{ { ` b.oXt.h.P P P P L L L l.n.gX<X<X<X,X XdX-.{ L L K K K K K G G G C C C V B B = = = = ; , r i O   UXUXUXUXUXUXUXUXUXUXUXUX",
"UXUXUXUXUXUXUXUXm -XfX:XU.K.G.b.c.j.d.{ ` [ J.D.z.P P P L L L L L G k.<X3X,X,X.X X3XD.x.K K H H K H K G G G C C C C V V B = B = - ; 9 i 7     UXUXUXUXUXUXUXUXUXUXUX",
"UXUXUXUXUXUXUXUX^.jX2X>XP.G.b.c.j.f.{ ` _ j.H.x.P P P ~ ~ ) ~ ~ ~ ~ 8.N.dX.X.X X X.XiXm.~ ~ ~ Q / / Q Q P G D G C C V V B B B = = ; > r i %   UXUXUXUXUXUXUXUXUXUXUX",
"UXUXUXUXUXUXUXb -XhXoXP.I.F.b.c.f.{ ` _ ^ c.F._ L ^ k n M M M M M N m u.fX.X X X X'.dX-.n M M N M N N N v d.G G C C C C C C V B = = ; 0 i 7     UXUXUXUXUXUXUXUXUXUX",
"UXUXUXUXUXUXUX^.jX2XoXK.G.b.c.f.{ { _ ^ ^ j.h.L L w.6XPXPXLXLXPXLXLXPX+X+X+X X X'.`.3XB.bXPXIXIXIXHXHXLXnXk K G C G C C C C V B Z = - > r u O   UXUXUXUXUXUXUXUXUXUX",
"UXUXUXUXUXUXc -X4X:XP.G.b.c.j.f.{ ` ^ ^ W { ^ K K n CXIXCXGXFXFXGXFXJX}..X,X'.'.'.A.3XD.uXSXZXZXVXZXZXVXIXN 9.G G G G G C C V V Z Z A : 0 u 7     UXUXUXUXUXUXUXUXUX",
"UXUXUXUXUXUXb 5X2X>XI.F.b.j.j.{ ` / ^ I P ^ L K { n PXGXD.;.y.y.y.y.n.+.+X<X'.'.`.A.3X.X-.y.y.y.y.n.+.qXIXeXw.K G G G G C C V V S Z Z - , u r     UXUXUXUXUXUXUXUXUX",
"UXUXUXUXUXUX^.5X+XL.G.F.c.j.{ { _ ^ W P K K K K w.9XPXGXAXO.].2X+X3X3X3XfX X`.`.A.C..XkXsXsXpX2XkXn.D.CXGXZXz P G G G G C C C C B S Z - : e i &     UXUXUXUXUXUXUXUX",
"UXUXUXUXUXc =X4XoXI.F.v.j.f.{ _ ^ ^ P P K K G G z VXHXGXHXvX+.3X,X'.'.'.S.'.`.A.A.C.C.C.C.Z.4.3X.Xu.ZXSXZXIX7X9.K G G G G C C C B B Z - : 0 i 7     UXUXUXUXUXUXUXUX",
"UXUXUXUXUXc -X<XL.G.F.c.g.{ { _ ^ I P K K K G { a.PXGXFXGXIXcX+.2X X`.`.A.A.A.A.A.C.Z.4.5.2.`.2X;.mXSXCXVXJXyXw.K K G G G C C C B S Z Z ; , u r     UXUXUXUXUXUXUXUX",
"UXUXUXUXUX/.=X+XJ.H.c.j.f.{ _ _ ^ P K K G G K w.tXLXCXGXGXJXIXqXt.sX'.A.A.A.C.Z.4.5.2.2.<.Z.sXO.cXJXCXCXZXCXFXk _ K G G G G G C V S Z Z A > r u o     UXUXUXUXUXUXUX",
"UXUXUXUXf /.4XoXG.b.c.j.{ ` _ ^ W P L K G G E z GXJXGXGXGXGXGXHX}.m.<XZ.4.5.5.3.3.3.3.2.5.dXt.qXJXCXCXCXCXVXHX6Xq.L L G G G G C C B B = = : e u %     UXUXUXUXUXUXUX",
"UXUXUXUXf ;X*X XG.v.c.f.{ ` _ W P L K G G G 0.M PXFXGXGXGXGXFXFXCXB.n. X<.2.3.3.3.3.3.3.sXN.}.DXZXCXCXCXCXZXGXyXp.L L G G G G C C V B B - ; 0 u 2     UXUXUXUXUXUXUX",
"UXUXUXUXg *X*XJ.H.v.j.f.{ ` _ W P L G K G G 7.tXLXCXGXGXGXCXCXZXCXBX;.`.'.<.3.3.3.3.<.,XXXy.VXVXVXVXZXZXCXCXCXGXb { L K G G D C C B B = = ; 0 i 7     UXUXUXUXUXUXUX",
"UXUXUXUXg *X,XJ.F.z.j.d.' ` ^ W P L L G G W n HXGXFXGXCXCXCXZXZXZXCXMX;..XA.<.3.3.<.'.1X;.nXVXNXVXVXVXZXZXCXVXHX8Xw.K G G G D C V B B B = ; 9 i w     UXUXUXUXUXUXUX",
"UXUXUXUXg *XOXJ.V.z.g.d.` _ ^ W P K K G G 9.6XPXCXFXCXCXZXZXVXVXVXVXZXuXO.3XC.<.<.C.sX+.uXBXNXAXAXBXVXVXZXZXZXCXMXk L K G G D C C B B = = ; , u t       UXUXUXUXUXUX",
"UXUXUXUXg *XOXS.v.z.f.{ _ _ ^ W P L K K G 7.nXHXZXFXCXVXVXZXZXVXVXNXNXVX0X-.fX4.4.dX+.0XBXMXmXmXNXAXBXVXVXFXCXVXJXM { G G G D D C C B B = - , u r       UXUXUXUXUXUX",
"UXUXUXUXg *X XV.v.j.f.' ] _ ^ P P L K G W N IXCXCXCXGXCXZXZXZXVXVXNXmXmXBX}.t.sXdXn.}.mXmXmXmXmXmXBXVXVXZXFXVXVXJXeXw.G G D G C C B B = = - , r r       UXUXUXUXUXUX",
"UXUXUXUXg *X XV.c.j.f.{ ] _ ^ P P L K G q.9XLXZXCXCXGXGXCXZXZXVXVXAXNXNXmXNXD.B.D.i.nXmXmXmXNXBXBXVXAXCXJXZXAXVXZXVXk P G G G C C B B B = ; , u r       UXUXUXUXUXUX",
"UXUXUXUXf *X].V.c.j.d.' ` _ ^ W P L L K p.AXJXZXCXCXZXGXHXFXZXVXVXVXBXNXNXNXmXu.O.nXBXNXNXAXBXAXAXZXGXJXZXVXVXAXVXGXN 8.G G G C C C B Z = ; , u r       UXUXUXUXUXUX",
"UXUXUXUXd $X[.V.x.g.f.' ` _ ^ W P P P ` m HXCXCXCXCXCXZXCXHXHXGXCXVXVXAXBXAXVXvXvXVXBXAXAXZXVXCXGXHXGXZXVXVXZXZXVXFXrXr.G G D G D B B Z Z ; , i w       UXUXUXUXUXUX",
"UXUXUXUXd %X[.V.z.j.d.{ ` _ ^ W W P P q.9XIXCXHXHXCXCXCXCXCXCXHXHXHXJXFXCXCXZXCXCXZXCXCXGXGXHXHXJXCXVXVXVXVXFXHXGXZXZXn W G D D C C B Z - ; 9 i w       UXUXUXUXUXUX",
"UXUXUXUXd _.[.S.z.g.d.' _ _ ^ W P P P r.MXGXCXJXGXCXCXCXCXCXCXCXCXFXHXHXHXIXIXIXIXIXIXHXHXGXCXZXZXVXZXVXVXVXCXFXCXVXGX7X{ G D D C B B Z Z : 0 i 5       UXUXUXUXUXUX",
"UXUXUXUX$ ~.).S.x.g.{ ' ] _ ^ W W P P j FXGXCXCXCXCXCXFXCXFXCXFXFXCXCXFXFXSXGXGXFXGXCXCXCXCXCXCXCXCXCXCXCXCXZXZXZXZXIX7X[ D D D C B B Z Z : e i 2       UXUXUXUXUXUX",
"UXUXUXUX$ i._.C.l.g.d.' ] _ ^ W W W P l CXIXHXIXKXHXHXHXHXHXKXKXHXHXHXHXHXHXHXHXHXHXHXJXHXHXHXHXJXHXHXGXJXGXGXHXJXJXSXm [ G D D C B Z Z A > r u &       UXUXUXUXUXUX",
"UXUXUXUXUXx _.C.l.g.{ { _ _ ^ ^ ^ W W j VXnXyXyXyXyXyXtXyXtXtXtXtXtXtXtXrXtXrXrXrXrXrXrXrXrXrXeXeXeXeXeXeXeXeX9X9X9XtXm { D C C B B Z Z ; , r r o     UXUXUXUXUXUXUX",
"UXUXUXUXUX# _.(.m.g.s.' _ _ _ ^ ^ P P j VXMXyXyXyXyXyXyXyXtXtXtXtXtXtXrXtXrXrXrXrXrXeXrXeXeXeXeXeXeXeX9XeX9X9XeX9X9XtXN { D G C C B Z A ; 9 u t       UXUXUXUXUXUXUX",
"UXUXUXUXUX$ !.{.Z.h.s.' ` _ _ ^ ^ W P j VXMXyXyXrX8X9XeXeXeXrXrXrXrXrXtXtXrXrXrXrXrXrXrXrXyXeXyXeXyXeXtXeXrXeXtX9X9XtXm [ G C C C B A - : e i 6       UXUXUXUXUXUXUX",
"UXUXUXUXUX@ s _.N.l.s.' ] _ _ / ^ W I j VXnXyXyX9X7X6X6X8X9XeXeXrXrXrXrXrXrXtXtXrXrXrXeXeXnXeXyXeXvXeXyXeXtXeXyX9X9XtXm [ G C C B B Z ; > r u &       UXUXUXUXUXUXUX",
"UXUXUXUXUXUX$ ).6.l.,.' ] _ ^ ^ ^ W P j BXnXyXyXeX7X6X8X9X9XeXeXrXrXrXrXrXtXrXrXrXeXeXrXeXnXeXyXeXyXeXyXeXtXeXtX9X9XrXN { C C C B Z A ; 9 u e         UXUXUXUXUXUXUX",
"UXUXUXUXUXUX@ E.).5.,.' ] _ ^ ^ W W P j BXMXyXyXrX8X8X8X8X9X9XeXeXrXrXrXrXrXrXrXrXrXrXrXeXnXeXyXeXnXeXyXeXtXeXtX9X9XrXN [ C C B Z Z - > e i 6       UXUXUXUXUXUXUXUX",
"UXUXUXUXUXUXX s (.6.1.) _ / / Q W I P p.mXnXyXyXyXrXtXrXeXeX9XeXeXrXrXrXrXtXrXrXrXrXeXeXeXnXeXyXeXyXeXyXeXtXeXyX9X9XrXm [ C B B Z - ; , u r O       UXUXUXUXUXUXUXUX",
"UXUXUXUXUXUXUX@ R.W.3.@.] Q / W W P P p.mXnXtXtXnXmXnXmXmXmXvXtXrXrXrXrXrXrXrXrXeXrXrXrXeXnXeXyXeXyXeXyXeXrXeXtX9X9XrXm 8.B B B Z - > e i 5         UXUXUXUXUXUXUXUX",
"UXUXUXUXUXUXUXX s R.5.@.( / W W I W ^ p.mXnXyXyXyXyXyXyXtXtXtXyXtXtXtXrXrXrXrXrXrXrXeXeXeXrXeXrXeXrX9XeX9XeXeXeX9X9XrXm 8.B B Z A ; , u e %       UXUXUXUXUXUXUXUXUX",
"UXUXUXUXUXUXUXUX@ %.W.<.@.Q ! W P W W r.6XCXZXVXBXAXBXAXNXmXmXmXmXmXnXmXnXnXnXyXnXyXyXyXyXyXtXtXtXrXtXrXrXrXrXrXrXrX9Xg [ F Z Z - : r i 5         UXUXUXUXUXUXUXUXUX",
"UXUXUXUXUXUXUXUX. 4 R.:.o.( ! I L L ! d.k b b b b b b b b b b b v v b v b v v v v b v v v v v v c v v c c c c c c c f w.J Z = = : 9 u e %       UXUXUXUXUXUXUXUXUXUX",
"UXUXUXUXUXUXUXUXUXX p R.<.( ! ! H H P P / 0.8.9.9.9.9.9.9.9.9.f.q.q.9.q.9.9.q.8.9.f.8.9.9.9.9.q.9.9.8.9.9.8.8.8.8.8.[ J J = = ; , u u 1         UXUXUXUXUXUXUXUXUXUX",
"UXUXUXUXUXUXUXUXUXUXX %.:...R ! H H D H L P ! E ^ ^ ^ / ^ _ ^ _ ~ ^ / / ^ ~ E ~ ^ ^ ^ ^ / / / / ^ ~ E ~ E ~ E E J J J J = = ; > e i 5         UXUXUXUXUXUXUXUXUXUXUX",
"UXUXUXUXUXUXUXUXUXUX. 3 T.*. .T H H D D D G G K L L L P L P K K P P L L L I L L L L K K P P L I P L P L J J J C F Z Z = = - > e u e <         UXUXUXUXUXUXUXUXUXUXUX",
"UXUXUXUXUXUXUXUXUXUXUX. 8 Y.&. .T T S D D D D D D D D G C G G G C G D G G G C G G C G C D G G D D D D C C B B B = = = = ; : 0 p r 1         UXUXUXUXUXUXUXUXUXUXUXUX",
"UXUXUXUXUXUXUXUXUXUXUXUX. 8 %.&.R T F F S C C D C C C C G C D C G D D C C G D C G G C G D G C D D D C C C B B B B = = - : 0 u r 1         UXUXUXUXUXUXUXUXUXUXUXUXUX",
"UXUXUXUXUXUXUXUXUXUXUXUXUX  8 %.&.} U F S S S S C C C C C C C C C C C C C C C D G C C G D D C C C C C V B B = = = = ; > 0 u r 1         UXUXUXUXUXUXUXUXUXUXUXUXUXUX",
"UXUXUXUXUXUXUXUXUXUXUXUXUXUX  8 %.$.} U U F Z B B B C C C C C C C C C C C C C C C C C C C D C C C C C B B B = = = ; > e u r *           UXUXUXUXUXUXUXUXUXUXUXUXUXUX",
"UXUXUXUXUXUXUXUXUXUXUXUXUXUXUX  3 %.$.} Y U A Z Z B B B B C S S B B V V V V V V C C V C C C B B B B B Z Z = = - : , r i t *           UXUXUXUXUXUXUXUXUXUXUXUXUXUXUX",
"UXUXUXUXUXUXUXUXUXUXUXUXUXUXUXUX  2 %.#.e Y ; U A Z Z Z Z B B B B B B B V V B B V V V V B B B S B Z Z = = - ; > 0 r u e <           UXUXUXUXUXUXUXUXUXUXUXUXUXUXUXUX",
"UXUXUXUXUXUXUXUXUXUXUXUXUXUXUXUXUX  < a #.$.0 Y : ; - Z = = Z B B = = B B B B B B B B B S B B Z Z Z - - ; : 9 t i r 6 %           UXUXUXUXUXUXUXUXUXUXUXUXUXUXUXUXUX",
"UXUXUXUXUXUXUXUXUXUXUXUXUXUXUXUXUXUX    2 #.i r 9 Y ; ; - = = = B = = = B = B = B B B B Z = Z - - - ; > , e u u e 1             UXUXUXUXUXUXUXUXUXUXUXUXUXUXUXUXUXUX",
"UXUXUXUXUXUXUXUXUXUXUXUXUXUXUXUXUXUXUX    O 7 i i | 0 , : ; ; - - - = = = = = Z = = = - - A ; : : , 9 e u i r 6 O           UXUXUXUXUXUXUXUXUXUXUXUXUXUXUXUXUXUXUXUX",
"UXUXUXUXUXUXUXUXUXUXUXUXUXUXUXUXUXUXUXUXUX    < a u u u e 0 , > : : ; ; ; - ; ; - - ; : : > Y 9 e r i i r 5 %             UXUXUXUXUXUXUXUXUXUXUXUXUXUXUXUXUXUXUXUXUX",
"UXUXUXUXUXUXUXUXUXUXUXUXUXUXUXUXUXUXUXUXUXUX      O 7 u i i i r e 0 0 , , , , , , , 9 0 e t r u u u e 5 O               UXUXUXUXUXUXUXUXUXUXUXUXUXUXUXUXUXUXUXUXUXUX",
"UXUXUXUXUXUXUXUXUXUXUXUXUXUXUXUXUXUXUXUXUXUXUXUX        % 6 w u p u u u u u u r u u i i i i r q 6 &                 UXUXUXUXUXUXUXUXUXUXUXUXUXUXUXUXUXUXUXUXUXUXUXUX",
"UXUXUXUXUXUXUXUXUXUXUXUXUXUXUXUXUXUXUXUXUXUXUXUXUXUX          o % 1 6 w w r r r t w w 6 * % o                   UXUXUXUXUXUXUXUXUXUXUXUXUXUXUXUXUXUXUXUXUXUXUXUXUXUX",
"UXUXUXUXUXUXUXUXUXUXUXUXUXUXUXUXUXUXUXUXUXUXUXUXUXUXUXUX                                                    UXUXUXUXUXUXUXUXUXUXUXUXUXUXUXUXUXUXUXUXUXUXUXUXUXUXUXUX",
"UXUXUXUXUXUXUXUXUXUXUXUXUXUXUXUXUXUXUXUXUXUXUXUXUXUXUXUXUXUXUX                                        UXUXUXUXUXUXUXUXUXUXUXUXUXUXUXUXUXUXUXUXUXUXUXUXUXUXUXUXUXUXUX",
"UXUXUXUXUXUXUXUXUXUXUXUXUXUXUXUXUXUXUXUXUXUXUXUXUXUXUXUXUXUXUXUXUXUXUXUX                    UXUXUXUXUXUXUXUXUXUXUXUXUXUXUXUXUXUXUXUXUXUXUXUXUXUXUXUXUXUXUXUXUXUXUXUX",
"UXUXUXUXUXUXUXUXUXUXUXUXUXUXUXUXUXUXUXUXUXUXUXUXUXUXUXUXUXUXUXUXUXUXUXUXUXUXUXUXUXUXUXUXUXUXUXUXUXUXUXUXUXUXUXUXUXUXUXUXUXUXUXUXUXUXUXUXUXUXUXUXUXUXUXUXUXUXUXUXUXUX",
"UXUXUXUXUXUXUXUXUXUXUXUXUXUXUXUXUXUXUXUXUXUXUXUXUXUXUXUXUXUXUXUXUXUXUXUXUXUXUXUXUXUXUXUXUXUXUXUXUXUXUXUXUXUXUXUXUXUXUXUXUXUXUXUXUXUXUXUXUXUXUXUXUXUXUXUXUXUXUXUXUXUX",
"UXUXUXUXUXUXUXUXUXUXUXUXUXUXUXUXUXUXUXUXUXUXUXUXUXUXUXUXUXUXUXUXUXUXUXUXUXUXUXUXUXUXUXUXUXUXUXUXUXUXUXUXUXUXUXUXUXUXUXUXUXUXUXUXUXUXUXUXUXUXUXUXUXUXUXUXUXUXUXUXUXUX",
"UXUXUXUXUXUXUXUXUXUXUXUXUXUXUXUXUXUXUXUXUXUXUXUXUXUXUXUXUXUXUXUXUXUXUXUXUXUXUXUXUXUXUXUXUXUXUXUXUXUXUXUXUXUXUXUXUXUXUXUXUXUXUXUXUXUXUXUXUXUXUXUXUXUXUXUXUXUXUXUXUXUX",
"UXUXUXUXUXUXUXUXUXUXUXUXUXUXUXUXUXUXUXUXUXUXUXUXUXUXUXUXUXUXUXUXUXUXUXUXUXUXUXUXUXUXUXUXUXUXUXUXUXUXUXUXUXUXUXUXUXUXUXUXUXUXUXUXUXUXUXUXUXUXUXUXUXUXUXUXUXUXUXUXUXUX",
"UXUXUXUXUXUXUXUXUXUXUXUXUXUXUXUXUXUXUXUXUXUXUXUXUXUXUXUXUXUXUXUXUXUXUXUXUXUXUXUXUXUXUXUXUXUXUXUXUXUXUXUXUXUXUXUXUXUXUXUXUXUXUXUXUXUXUXUXUXUXUXUXUXUXUXUXUXUXUXUXUXUX"
};
