/* XPM */
static char *Free_Converter_com_btn_save_2_21452732[] = {
/* columns rows colors chars-per-pixel */
"82 82 75 1 ",
"  c #00BCBE",
". c #02BEC0",
"X c #06BFE0",
"o c #03C2C4",
"O c #08C4C6",
"+ c #0BC6C9",
"@ c #01CACE",
"# c #0ECACC",
"$ c #10CCCE",
"% c #01CDD3",
"& c #06C2DE",
"* c #05CCDD",
"= c #14CFD2",
"- c #03D1D6",
"; c #0BD4D7",
": c #05D4DD",
"> c #0AD5D9",
", c #05D8DF",
"< c #0CDADD",
"1 c #16D2D4",
"2 c #19D4D7",
"3 c #15D1DB",
"4 c #1AD6DA",
"5 c #12DCDF",
"6 c #1EDADC",
"7 c #20DCDF",
"8 c #06C0E2",
"9 c #0AC4E5",
"0 c #06CCE2",
"q c #0EC9E6",
"w c #0FCAE8",
"e c #13CDE6",
"r c #12CCE9",
"t c #06D5E2",
"y c #0DD3E5",
"u c #06DAE2",
"i c #0BDCE5",
"p c #0CD5E8",
"a c #0FDDE8",
"s c #12D5E6",
"d c #19D4E2",
"f c #14D9E6",
"g c #1ADEE4",
"h c #15D2EA",
"j c #19D5EC",
"k c #14DBEB",
"l c #1BDCED",
"z c #22DEE0",
"x c #20DFEF",
"c c #22DEF0",
"v c #0FE0E7",
"b c #13E1E5",
"n c #1DE3E6",
"m c #14E3EA",
"M c #1CE3EE",
"N c #1DE8EE",
"B c #1FE3F0",
"V c #1FEAF0",
"C c #25E1E4",
"Z c #29E4E7",
"A c #22E5EE",
"S c #2BE6E9",
"D c #20E9ED",
"F c #2DE9EB",
"G c #30ECEE",
"H c #22E5F1",
"J c #24E9F2",
"K c #2DEBF2",
"L c #32EEF1",
"P c #36F2F4",
"I c #38F4F6",
"U c #3BF6F9",
"Y c #3DF9FB",
"T c #40FBFD",
"R c None",
/* pixels */
"RRRRRRRRRRRRRRRRRRRRRRRRRRRRRRRRRRRRRRRRRRRRRRRRRRRRRRRRRRRRRRRRRRRRRRRRRRRRRRRRRR",
"RRRRRRRRRRRRRRRRRRRRRRRRRRRRRRRRRRRRRRRRRRRRRRRRRRRRRRRRRRRRRRRRRRRRRRRRRRRRRRRRRR",
"RRRRRRRRRRRRRRRRRRRRRRRRRRRRRRRRRRRRRRRRRRRRRRRRRRRRRRRRRRRRRRRRRRRRRRRRRRRRRRRRRR",
"RRRRRRRRRRRRRRRRRRRRRRRRRRRRRRRRRRRRRRRRRRRRRRRRRRRRRRRRRRRRRRRRRRRRRRRRRRRRRRRRRR",
"RRRRRRRRRRRRRRRRRRRRRRRRRRRRRRRRR$$$$$##+++OooRRRRRRRRRRRRRRRRRRRRRRRRRRRRRRRRRRRR",
"RRRRRRRRRRRRRRRRRRRRRRRRRRRRR1125bmmmmmvmvii<;%oo.RRRRRRRRRRRRRRRRRRRRRRRRRRRRRRRR",
"RRRRRRRRRRRRRRRRRRRRRRRRRR11gmmmmmmkkakapkaaaiii,-   RRRRRRRRRRRRRRRRRRRRRRRRRRRRR",
"RRRRRRRRRRRRRRRRRRRRRRRR2gNNmNMlljjsshhsryyyyypuuiu,@  RRRRRRRRRRRRRRRRRRRRRRRRRRR",
"RRRRRRRRRRRRRRRRRRRRRR2nNNMMMjjjsjhhrrrewqqwww0q0ttuuu%  RRRRRRRRRRRRRRRRRRRRRRRRR",
"RRRRRRRRRRRRRRRRRRRR2nNMMMljkjshhrrrrerrqwqqw9999900tuu:@ RRRRRRRRRRRRRRRRRRRRRRRR",
"RRRRRRRRRRRRRRRRRRR6NNMBljjjhhhrrrrwwwwwww9qw999999080t:u-  RRRRRRRRRRRRRRRRRRRRRR",
"RRRRRRRRRRRRRRRRR2nDDBAljjjjjrrrrrwwwwww99w9999989808800t,:@ RRRRRRRRRRRRRRRRRRRRR",
"RRRRRRRRRRRRRRRR6NNMxxjjjjjhhrrrrww9www99w99999X99X8888*0*:u- RRRRRRRRRRRRRRRRRRRR",
"RRRRRRRRRRRRRRR6MJABxcjjjjhrrrwww9q999q999w9w99988888888&0*:,% RRRRRRRRRRRRRRRRRRR",
"RRRRRRRRRRRRRR6NJBccjjjjjhrrrhhryqyer99999w9999X99888XX&9&&*::- RRRRRRRRRRRRRRRRRR",
"RRRRRRRRRRRRR6ADBxxjjjjjrrrhyykcHAMkshq999999X99X98888XX&&&&*::% RRRRRRRRRRRRRRRRR",
"RRRRRRRRRRRR6DJAxljjjrjrrrssHJJKJJJJHlprwX9999999898888888XXX8t:- RRRRRRRRRRRRRRRR",
"RRRRRRRRRRR6DDHccljjjjrrhslJJJHJJJJBHHHpr99999XX9988888888XXXX0::- RRRRRRRRRRRRRRR",
"RRRRRRRRRRRnJHAcjjjjjrrrhlHJHBAJJHHHBBBJrr9XX9X9988888888888&&&*:,@ RRRRRRRRRRRRRR",
"RRRRRRRRRR6DDHljjjjjrrrjlccshesycJHHHBBBHpw99999899988888888&&&&*:-  RRRRRRRRRRRRR",
"RRRRRRRRR6AJcccjjjjrrwrhcshw9999rrJBBBBMHlp99X9X98988888XXX&&&&&**:- RRRRRRRRRRRRR",
"RRRRRRRRRnDHccjjjjrrrwjxfe9999999hkJBBBlMHsr99X989988888XXX&&&XX&*::@ RRRRRRRRRRRR",
"RRRRRRRR6DHccjjjrrrreejje999999989hMBBkBlBlh&99999898888XX&XXX&X&&:::  RRRRRRRRRRR",
"RRRRRRRRnHcccjjjjrr99hjj99&q99qq99rkBBBMkMHsq999999998888X&&XXXXX&*::@ RRRRRRRRRRR",
"RRRRRRR4DJllcjjjrwwwwrjw9Xjd6767776sAMlMBkHpfz7777774rX9889XXXXX&&&*::  RRRRRRRRRR",
"RRRRRRRnJAcljjrrrww99rr9XjCTTYTYTYTxAllllkBkLYYUUUUYLd9X88X9XXXXX&&*::o RRRRRRRRRR",
"RRRRRR4NHcljjrrrwwwX9rw9XdPTIIIIIIUlMMmllkHkJUIIPPPIT6rX888X8888X&&&:::  RRRRRRRRR",
"RRRRRR6JMlcjjjrwwww99wX9e6TIlyfsfffyBMlklkBxssksffeHYZjX889XX8X88&&&*::  RRRRRRRRR",
"RRRRRRnVBljjjrrw99999X9XdZTUPqlBBBBHBMkkkkBJHBHHHslPUPdX988899XXX8&&*::%  RRRRRRRR",
"RRRRR2NNlljjhrrww9999XXX3PUIYKyABkBklkkkkkkkkksNlfIIPUzr88889X9XXX&&&*::  RRRRRRRR",
"RRRRR6VMxjjhrrrw99X9X99rzTIUUYKsBkBkkBkkkkppppkHyPIIPUKj989888XX8&X&&*::  RRRRRRRR",
"RRRRR6NMjjjhrrr9999X9X9rFTPUUUYApHkkkkkkkppppkAyKIIIPUUr9989988888X&&*::o  RRRRRRR",
"RRRR=gNMjjjrrwww9999XX94UUIUUUITBpBpkppppppppHfAIIIIIPUze99XXXXXX8&&&&*:@  RRRRRRR",
"RRRR1NNljjrrrw9w9X99XXe7TPUUUUIUUkaMppppppppHklIIIIIIPIGd99X9X9X88XX&*:,-  RRRRRRR",
"RRRR1NNjjjrrwwwX999XX9dSTIUUPIUPIPhllpppppyBlfPPPPPIIIPU4r9X98X9X8&X&&*::  RRRRRRR",
"RRRR1NNjjjjwwwwX999XX96TUIUIIPPPPPKyMkppppkByLPPPPPPIPIUCdX98X9X8XXX&&*,:  RRRRRRR",
"RRRR2NMljjrrwwXw99889ezTPUPPPPPPPPPSyBkppkByKPLPPPPPPIIILd9989888X&&&&*::   RRRRRR",
"RRRR1NkjjrrwwwwX9889XdGUPUUPPPIPPPPPAyHpaHyAPLLPGPPPPIIPUjrX888888XX8&*::   RRRRRR",
"RRRR1Nxjjjrrw9w9988896YIIIUPPPPPPPGPPlsHHkgPGPPLPPPPPIPPUSr988888X&X&&0::   RRRRRR",
"RRRR1Njjrrrrww999989rCTIPPUUIIIPPPPPPPlkgdPGPLGPPPPPUIPPIPr988888XXX&**:*   RRRRRR",
"RRRR1Ngkhrrrrw99999XjPUPIIPUUUIPPPPPPLLayGPPPPPPPPUYPPPPPI7eXXX98X8X&&*::   RRRRRR",
"RRRR1mmjjhrrw999999wdUUPIIIPIUUUPPPPPPPGGPPPPIPPUYIPPPPIIIZdXXXX888&&&*::   RRRRRR",
"RRRR1mlkhrrrww9w999rZUPUUIIIPPUUYYIIIIIIIPPIIYYUUPPPPPIYIPI69XXXX8XX&&:,-.  RRRRRR",
"RRRR$mmjrrrww999999rPUUUUIPIIIPIPIUYUYYYYYUYUUIIPPIPPPPUIPIzw9X9XX&X&&*:-   RRRRRR",
"RRRR$amkrrrrww99w9X3PUPIIIIUIUUIIIIIIUUUIUIIIIIIIIIPIPPPIPYzrX9X8&X&&&::*   RRRRRR",
"RRRR#5mkjrrrw9wwX993PTUYUUUUUUUUYYUYYUUUUYYIUUUIYUUYUYYUUYI6rXX988X&&0::@   RRRRRR",
"RRRRR;mlrrrww9wXwX9dPLGKGFSGGGGFFFFFFFFSFFSSSFSSSZSSSZZZZZF6w8888X&&&*::o  RRRRRRR",
"RRRRR$mgjrrwww9w9wX3PLGGGGGGFGSGFFFFFSSFSSSFSSSSSSZZZZZZZZKjw888X&8&&*::   RRRRRRR",
"RRRRR#vmshrwww99wX93PLGGZzZZSSSSSFFSSFSFFFSSSGSGZGZGSFZFZZF7eXXXXX&&&:::   RRRRRRR",
"RRRRR+5vshrrw99w9w9dPLFGZzCzCZZSSSSFFSFSSSSSSGSGSKSKZFSFZZS6eXXX&X8&*::@   RRRRRRR",
"RRRRRR#mkhywwww99993PLGGSzzCCZZZSSFSSFSFFSSSSGSFZGZGSFZFZZF7rXXXX&&&*::    RRRRRRR",
"RRRRRR+vvpyww9w99993PLGGSCCCZZZSSSFSFSFSSSSSSLSGZGSGZFSFZCF6rXX98&&*::*   RRRRRRRR",
"RRRRRRo;vayqww9w999dLLFFGFFSSZZSSSFSSFSFSSSSSGSGZGSGZFZGZZS6rXX8&&&*::@   RRRRRRRR",
"RRRRRRR+virw9999999dLLGKLLKLPLGFFFSFFSFSSSSFSLSFZGZGZFZGZSS6eX88&&**:-    RRRRRRRR",
"RRRRRRRo>vayr99w9994PLKGGGGGGGFFFSFFSSFSSSSSSSSSZSZZZSZZZZS6e&X&&&*::%   RRRRRRRRR",
"RRRRRRRROiayq9999996CPPPPPLPLPLPPLPLLLLGLGGGFGFFGSFFFSFSSSS1q8X&&*::*    RRRRRRRRR",
"RRRRRRRRo-iay099999wd4642666444j22444462j446424644222222141d&&X&**:t@   RRRRRRRRRR",
"RRRRRRRRR.<itq998989wyrreeeerhrwedeedeeerwrreeeedeedeedeeee9X&&&0::%    RRRRRRRRRR",
"RRRRRRRRRRoipt080988X9999e99q999e999999e9999q9q99999999999X&&&&*::-    RRRRRRRRRRR",
"RRRRRRRRRR -ipt98888X9X999999999999999999999999999999989&&X&&&&>:*%    RRRRRRRRRRR",
"RRRRRRRRRRR.:uu008X8X8X8XXXX8888X8X8X8X89X88X9888888X8XX&8&&&&>::%    RRRRRRRRRRRR",
"RRRRRRRRRRRR :ut00888888XX889X889888X8889X88XX8X8XX8X&&X&&&&**::%    RRRRRRRRRRRRR",
"RRRRRRRRRRRRR :ut0088888X8889X9XXX88X9X8X9X8XX888888XX&X&&&&*::%    RRRRRRRRRRRRRR",
"RRRRRRRRRRRRRR -ut008888888XXXX9XXXXXX8888888888X8X8&XX&&&*:::%.    RRRRRRRRRRRRRR",
"RRRRRRRRRRRRRRR.%u:00888&88&8XX8XXXXXX88888XXX8XX&X&X&&&0*:::%     RRRRRRRRRRRRRRR",
"RRRRRRRRRRRRRRRR.-u,>0&&&&&&&X&8X&XX&XXXX888XXX&XXX&&&&**:::%.    RRRRRRRRRRRRRRRR",
"RRRRRRRRRRRRRRRRR @:,:***8&&&XXXXXXXX&XXXX&XX9&&&&&&&&*:::-@     RRRRRRRRRRRRRRRRR",
"RRRRRRRRRRRRRRRRRR  %u::**&&&&&&&&&&XXX&&X&XX&&&&&&**:::*%      RRRRRRRRRRRRRRRRRR",
"RRRRRRRRRRRRRRRRRRR  @::::**&&&*X&&&&&&&&X&&&&&&&*0::::%@     RRRRRRRRRRRRRRRRRRRR",
"RRRRRRRRRRRRRRRRRRRRR  %:,:::*****&&*&&&&&&&&***::::::%      RRRRRRRRRRRRRRRRRRRRR",
"RRRRRRRRRRRRRRRRRRRRRR   @:::::::**********::::::::-@       RRRRRRRRRRRRRRRRRRRRRR",
"RRRRRRRRRRRRRRRRRRRRRRRR    %%::,::::::::,:,:,::%%        RRRRRRRRRRRRRRRRRRRRRRRR",
"RRRRRRRRRRRRRRRRRRRRRRRRRR     o@%*::::*::*-%%o .       RRRRRRRRRRRRRRRRRRRRRRRRRR",
"RRRRRRRRRRRRRRRRRRRRRRRRRRRR                  .       RRRRRRRRRRRRRRRRRRRRRRRRRRRR",
"RRRRRRRRRRRRRRRRRRRRRRRRRRRRRRR                    RRRRRRRRRRRRRRRRRRRRRRRRRRRRRRR",
"RRRRRRRRRRRRRRRRRRRRRRRRRRRRRRRRRRRR          RRRRRRRRRRRRRRRRRRRRRRRRRRRRRRRRRRRR",
"RRRRRRRRRRRRRRRRRRRRRRRRRRRRRRRRRRRRRRRRRRRRRRRRRRRRRRRRRRRRRRRRRRRRRRRRRRRRRRRRRR",
"RRRRRRRRRRRRRRRRRRRRRRRRRRRRRRRRRRRRRRRRRRRRRRRRRRRRRRRRRRRRRRRRRRRRRRRRRRRRRRRRRR",
"RRRRRRRRRRRRRRRRRRRRRRRRRRRRRRRRRRRRRRRRRRRRRRRRRRRRRRRRRRRRRRRRRRRRRRRRRRRRRRRRRR",
"RRRRRRRRRRRRRRRRRRRRRRRRRRRRRRRRRRRRRRRRRRRRRRRRRRRRRRRRRRRRRRRRRRRRRRRRRRRRRRRRRR",
"RRRRRRRRRRRRRRRRRRRRRRRRRRRRRRRRRRRRRRRRRRRRRRRRRRRRRRRRRRRRRRRRRRRRRRRRRRRRRRRRRR",
"RRRRRRRRRRRRRRRRRRRRRRRRRRRRRRRRRRRRRRRRRRRRRRRRRRRRRRRRRRRRRRRRRRRRRRRRRRRRRRRRRR"
};
