/* XPM */
static char *Free_Converter_com_btn_scene_0_24935231[] = {
/* columns rows colors chars-per-pixel */
"82 82 256 2 ",
"   c #000000",
".  c #0C0D0B",
"X  c #10110F",
"o  c #131412",
"O  c #1A1B1A",
"+  c #0F100D",
"@  c #011F22",
"#  c #01353A",
"$  c #082A2C",
"%  c #252524",
"&  c #2B2B2B",
"*  c #272827",
"=  c #343434",
"-  c #3D3C3C",
";  c #353839",
":  c #20211F",
">  c #41413F",
",  c #023B43",
"<  c #023B46",
"1  c #063F53",
"2  c #3D3E4C",
"3  c #16157F",
"4  c #161B7E",
"5  c #15237D",
"6  c #152B7C",
"7  c #15347D",
"8  c #153C7C",
"9  c #383473",
"0  c #02444A",
"q  c #054856",
"w  c #0D535B",
"e  c #3D4041",
"r  c #0A4A68",
"t  c #0A5768",
"y  c #15447C",
"u  c #154A7C",
"i  c #114F76",
"p  c #0D5572",
"a  c #15537B",
"s  c #155B7A",
"d  c #125677",
"f  c #14566B",
"g  c #24597D",
"h  c #15647A",
"j  c #15687B",
"k  c #1C6B76",
"l  c #0B6271",
"z  c #2E6973",
"x  c #4B4C4C",
"c  c #454544",
"v  c #575757",
"b  c #454656",
"n  c #4C4A6C",
"m  c #6C6C6C",
"M  c #646565",
"N  c #757574",
"B  c #7C7C7C",
"V  c #777877",
"C  c #496566",
"Z  c #403D64",
"A  c #7F807F",
"S  c #80807F",
"D  c #170F86",
"F  c #170F88",
"G  c #180F8C",
"H  c #161283",
"J  c #161A82",
"K  c #171288",
"L  c #18118E",
"P  c #191B8B",
"I  c #1B1292",
"U  c #1C1A93",
"Y  c #201795",
"T  c #231A96",
"R  c #261E98",
"E  c #281F99",
"W  c #251E8E",
"Q  c #172786",
"!  c #173687",
"~  c #1B2792",
"^  c #1A3692",
"/  c #2B239A",
"(  c #282798",
")  c #30279D",
"_  c #332B9E",
"`  c #29399A",
"'  c #35359D",
"]  c #292289",
"[  c #362EA0",
"{  c #3B33A2",
"}  c #3C3AA3",
"|  c #3732A0",
" . c #423BA6",
".. c #443D99",
"X. c #174686",
"o. c #19508E",
"O. c #235D82",
"+. c #2C509C",
"@. c #166985",
"#. c #187689",
"$. c #17708F",
"%. c #26648A",
"&. c #2A6996",
"*. c #2B7599",
"=. c #317294",
"-. c #3954A2",
";. c #3B43A2",
":. c #1577B5",
">. c #3879A3",
",. c #4A459A",
"<. c #5A5598",
"1. c #514C89",
"2. c #757D85",
"3. c #686798",
"4. c #6F6F91",
"5. c #4741A8",
"6. c #4B44AA",
"7. c #4D4AAB",
"8. c #4544A6",
"9. c #524CAD",
"0. c #544EA6",
"q. c #4858A8",
"w. c #5552AF",
"e. c #5B55AA",
"r. c #5557AC",
"t. c #5A55B1",
"y. c #5D5AB2",
"u. c #625EB5",
"i. c #625DA9",
"p. c #5C6AB2",
"a. c #4D71AB",
"s. c #6D68AB",
"d. c #6865A7",
"f. c #7C78A4",
"g. c #7A77A5",
"h. c #6563B6",
"j. c #6C6AB9",
"k. c #6767B6",
"l. c #6875B7",
"z. c #7273BC",
"x. c #757ABD",
"c. c #706EB4",
"v. c #467D82",
"b. c #167EC2",
"n. c #7A7FC0",
"m. c #827EBB",
"M. c #837EC1",
"N. c #34889B",
"B. c #288698",
"V. c #1C81BE",
"C. c #3885A4",
"Z. c #3990A2",
"A. c #1C8196",
"S. c #4D8E94",
"D. c #7C8489",
"F. c #729194",
"G. c #4A99A9",
"H. c #5A95B1",
"J. c #518EAD",
"K. c #6789B8",
"L. c #7584BE",
"P. c #6A97B9",
"I. c #7497BE",
"U. c #779FA0",
"Y. c #5DA5B2",
"T. c #79A8AB",
"R. c #67ABB7",
"E. c #75AAB9",
"W. c #77AFB5",
"Q. c #1D86C7",
"!. c #079BDD",
"~. c #1B9EDD",
"^. c #139DDD",
"/. c #218BCC",
"(. c #2188C4",
"). c #228ED2",
"_. c #2696D7",
"`. c #2F97D3",
"'. c #24A0DE",
"]. c #2BA2DE",
"[. c #32A3DF",
"{. c #3CA1DD",
"}. c #27A5E1",
"|. c #34A5E1",
" X c #3BA6E1",
".X c #3BA9E3",
"XX c #1FA4E1",
"oX c #7B89C1",
"OX c #7D99C2",
"+X c #57A9D4",
"@X c #50A6D2",
"#X c #7CA8C1",
"$X c #75B4C9",
"%X c #44A9E3",
"&X c #4CACE4",
"*X c #42A6E1",
"=X c #53ADE5",
"-X c #58AFE7",
";X c #59B3E9",
":X c #4FB4EB",
">X c #67B8E9",
",X c #73BCEA",
"<X c #579DC3",
"1X c #7AC6F4",
"2X c #7CC1E7",
"3X c #848484",
"4X c #8C8986",
"5X c #8A8A89",
"6X c #888788",
"7X c #948E8A",
"8X c #908B87",
"9X c #848C95",
"0X c #989897",
"qX c #A09E9E",
"wX c #8D8BAF",
"eX c #A3A3A3",
"rX c #AAA9A8",
"tX c #B6B5B5",
"yX c #BCBBBB",
"uX c #98A7AD",
"iX c #C2BEBC",
"pX c #C1C0BF",
"aX c #8D97C5",
"sX c #82A6C4",
"dX c #83B5C5",
"fX c #A6A3D3",
"gX c #BCBBCC",
"hX c #97A9D6",
"jX c #C1BFC9",
"kX c #B5C4CE",
"lX c #97C9EA",
"zX c #87C9F4",
"xX c #87C2E9",
"cX c #ADCDE2",
"vX c #B3D1E5",
"bX c #BAD5E8",
"nX c #AFD0E6",
"mX c #C3C2C2",
"MX c #CCCBCB",
"NX c #C9C7C6",
"BX c #D4D3D3",
"VX c #DCDCDC",
"CX c #D7D6D7",
"ZX c #CDCDD0",
"AX c #D5D8EA",
"SX c #D3E3ED",
"DX c #E3E4E4",
"FX c #EBECEC",
"GX c #E5E7E9",
"HX c #F1EDEB",
"JX c #F6F0ED",
"KX c #F4F4F3",
"LX c #FCFCFB",
"PX c #F8F5F5",
"IX c #ECEDF2",
"UX c None",
/* pixels */
"UXUXUXUXUXUXUXUXUXUXUXUXUXUXUXUXUXUXUXUXUXUXUXUXUXUXUXUXUXUXUXUXUXUXUXUXUXUXUXUXUXUXUXUXUXUXUXUXUXUXUXUXUXUXUXUXUXUXUXUXUXUXUXUXUXUXUXUXUXUXUXUXUXUXUXUXUXUXUXUXUXUX",
"UXUXUXUXUXUXUXUXUXUXUXUXUXUXUXUXUXUXUXUXUXUXUXUXUXUXUXUXUXUXUXUXUXUXUXUXUXUXUXUXUXUXUXUXUXUXUXUXUXUXUXUXUXUXUXUXUXUXUXUXUXUXUXUXUXUXUXUXUXUXUXUXUXUXUXUXUXUXUXUXUXUX",
"UXUXUXUXUXUXUXUXUXUXUXUXUXUXUXUXUXUXUXUXUXUXUXUXUXUXUXUXUXUXUXUXUXUXUXUXUXUXUXUXUXUXUXUXUXUXUXUXUXUXUXUXUXUXUXUXUXUXUXUXUXUXUXUXUXUXUXUXUXUXUXUXUXUXUXUXUXUXUXUXUXUX",
"UXUXUXUXUXUXUXUXUXUXUXUXUXUXUXUXUXUXUXUXUXUXUXUXUXUXUXUXUXUXUXUXUXUXUXUXUXUXUXUXUXUXUXUXUXUXUXUXUXUXUXUXUXUXUXUXUXUXUXUXUXUXUXUXUXUXUXUXUXUXUXUXUXUXUXUXUXUXUXUXUXUX",
"UXUXUXUXUXUXUXUXUXUXUXUXUXUXUXUXUXUXUXUXUXUXUXUXUXUXUXUXUXUXUXUXUX> - > > - = = & & % : O X UXUXUXUXUXUXUXUXUXUXUXUXUXUXUXUXUXUXUXUXUXUXUXUXUXUXUXUXUXUXUXUXUXUXUXUX",
"UXUXUXUXUXUXUXUXUXUXUXUXUXUXUXUXUXUXUXUXUXUXUXUXUXUXUXUXUXx x C S.S.S.G.G.G.G.G.G.Z.N.B.k z < o . . UXUXUXUXUXUXUXUXUXUXUXUXUXUXUXUXUXUXUXUXUXUXUXUXUXUXUXUXUXUXUXUX",
"UXUXUXUXUXUXUXUXUXUXUXUXUXUXUXUXUXUXUXUXUXUXUXUXUXUXv v S.Y.Y.Y.H.H.J.J.a.J.a.>.>.>.>.>.C.N.B.A.j w       UXUXUXUXUXUXUXUXUXUXUXUXUXUXUXUXUXUXUXUXUXUXUXUXUXUXUXUXUX",
"UXUXUXUXUXUXUXUXUXUXUXUXUXUXUXUXUXUXUXUXUXUXUXUXM F.Y.R.E.P.H.l.a.p.p.a.q.q.q.q.q.-.-.-.-.+.&.*.*.A.A.#.0     UXUXUXUXUXUXUXUXUXUXUXUXUXUXUXUXUXUXUXUXUXUXUXUXUXUXUX",
"UXUXUXUXUXUXUXUXUXUXUXUXUXUXUXUXUXUXUXUXUXUXM F.R.#XP.K.K.l.p.y.i.r.q.7.7.8.8.8.;.} } ` ` ` ` ` +.o.$.$.#.@.q     UXUXUXUXUXUXUXUXUXUXUXUXUXUXUXUXUXUXUXUXUXUXUXUXUX",
"UXUXUXUXUXUXUXUXUXUXUXUXUXUXUXUXUXUXUXUXM F.R.E.I.P.K.l.p.p.y.w.0.7.7.8.6. . .} } { | | _ ` _ ( ~ ~ ~ X.o.$.#.l #   UXUXUXUXUXUXUXUXUXUXUXUXUXUXUXUXUXUXUXUXUXUXUXUX",
"UXUXUXUXUXUXUXUXUXUXUXUXUXUXUXUXUXUXUXm T.$XE.I.K.l.k.p.t.w.9.9.7. .8. . .{ { { [ [ [ _ ) / ( R R ~ ~ ~ ! X.o.@.#.w     UXUXUXUXUXUXUXUXUXUXUXUXUXUXUXUXUXUXUXUXUXUX",
"UXUXUXUXUXUXUXUXUXUXUXUXUXUXUXUXUXM U.E.#XI.L.x.j.j.u.y.w.9.9. . . .} } { { [ [ _ _ _ ) / / R T Y U U U P ~ ! X.@.@.l ,   UXUXUXUXUXUXUXUXUXUXUXUXUXUXUXUXUXUXUXUXUX",
"UXUXUXUXUXUXUXUXUXUXUXUXUXUXUXUXN T.dX#XoXn.z.j.k.u.t.w.9.6. . . .{ { [ [ [ [ _ _ ) ) ) / / R T Y Y I I L P P Q ! X.j @.q   UXUXUXUXUXUXUXUXUXUXUXUXUXUXUXUXUXUXUXUX",
"UXUXUXUXUXUXUXUXUXUXUXUXUXUXUXN T.$XOXOXL.z.j.h.u.t.9.7. . . . .{ [ _ _ _ ) ) ) ) / / ) / / R T Y Y I I L K J J 5 Q y O.j q   UXUXUXUXUXUXUXUXUXUXUXUXUXUXUXUXUXUXUX",
"UXUXUXUXUXUXUXUXUXUXUXUXUXUXN T.dXOXoXx.l.j.h.y.t.w.7. . . .{ [ _ _ / / / / E / / / / E E / R T Y U I I L L K K J J 5 8 s j q   UXUXUXUXUXUXUXUXUXUXUXUXUXUXUXUXUXUX",
"UXUXUXUXUXUXUXUXUXUXUXUXUXV T.dXOXoXx.z.j.h.y.t.9.6.5. .{ { [ ) / / / R R / / R R R ( E E R T T Y I I I L F K K H J 4 5 8 s j q   UXUXUXUXUXUXUXUXUXUXUXUXUXUXUXUXUX",
"UXUXUXUXUXUXUXUXUXUXUXUXV T.dXaXoXx.z.j.u.t.t.9. . . .[ [ [ ) ) E E R R R R R R T R R E R R R Y Y I Y I I L G G F D 3 3 4 7 d h q   UXUXUXUXUXUXUXUXUXUXUXUXUXUXUXUX",
"UXUXUXUXUXUXUXUXUXUXUXm T.dXsXoXx.z.j.u.t.t.9.5. . . .[ _ / / E E R Y T T T Y Y T T R R R R Y Y Y Y I I I I G G D D 3 3 3 4 8 d j 0   UXUXUXUXUXUXUXUXUXUXUXUXUXUXUX",
"UXUXUXUXUXUXUXUXUXUXUXU.dXsXaXn.z.j.u.y.t.9. . . .[ [ ) ) / E R T Y Y Y Y Y Y Y Y T T R R R R Y Y Y Y I I T ( | } ,.P 3 3 4 5 8 s j 0   UXUXUXUXUXUXUXUXUXUXUXUXUXUX",
"UXUXUXUXUXUXUXUXUXUXV dXdXaXx.z.j.h.y.9.6. . .{ [ _ ) / E / E R Y T Y Y Y Y Y Y Y T T R ) [ { { 7.0.y.p.wXgXAXBXM x ' 3 3 3 4 6 y h t     UXUXUXUXUXUXUXUXUXUXUXUXUX",
"UXUXUXUXUXUXUXUXUXm W.dXaXn.z.j.h.y.t.9. . .{ _ [ / / / R R R T Y Y Y Y Y / } 9.t.t.t.s.f.gXAXGXtXx > > tXDXDXrX= % ..D 3 3 3 3 6 a j q   UXUXUXUXUXUXUXUXUXUXUXUXUX",
"UXUXUXUXUXUXUXUXUXU.dXsXoXM.z.j.u.t.6. . .{ [ ) / / E E / [ { 9.u.z.s.u.3.wXAXIXIXm > ; v DXGXGXm % & > mXBXBXm +   1.D 3 3 3 3 4 8 s h #   UXUXUXUXUXUXUXUXUXUXUXUX",
"UXUXUXUXUXUXUXUXN #X#XaXn.z.j.u.t.9.6. .{ [  .t.h.z.x.s.g.4.gXAXIXBXc = = eXLXKXMX= % * N GXVXjX= . X > rXqXqXM 2 Z ,.D D 3 3 3 4 6 u h t     UXUXUXUXUXUXUXUXUXUXUX",
"UXUXUXUXUXUXUXUXU.dXOXoXz.j.u.y.9.6. .t.3.M m.GXKXPXS ; & c VXLXLX0X% * > NXIXHXqXO o o 5XmXtX0Xb Z 1.<.d.e...] W W G F D D D 3 3 4 7 s h <   UXUXUXUXUXUXUXUXUXUXUX",
"UXUXUXUXUXUXUXm W.sXOXx.j.h.u.9.6. .{ j.0XM 3XLXLXIXc % % M IXLXIXv . o - mXNXjX4.b n 1.s.e. .[ W R R I Y I I L I I G G G D D D H 4 5 u j t     UXUXUXUXUXUXUXUXUXUX",
"UXUXUXUXUXUXUXU.dXOXL.z.j.u.t.9. . .[ M.VXDXDXKXLXBX% O O V ZXyXeXZ n 1.<.t.6.[ E Y Y Y I Y Y Y Y Y I Y I Y I I I I G G G G D D H 3 4 7 s h #   UXUXUXUXUXUXUXUXUXUX",
"UXUXUXUXUXUXM W.#XoXx.j.u.y.9.5. .{ ) M.VXDXVXCXBXf.Z n 1.9.6.} ) T T Y Y U Y I I Y I Y Y Y I Y Y Y Y I Y Y Y Y I I G I I G F D H H J 6 u j t     UXUXUXUXUXUXUXUXUX",
"UXUXUXUXUXUXN $XOXL.z.h.y.w.7. .{ ) ) M.ZXCXZXgXm.E R E R / / ) / / E E E E E E E T T R R E R R R E E E / E E E R Y Y G G G F F D H H 5 ! h s     UXUXUXUXUXUXUXUXUX",
"UXUXUXUXUXUXU.#XI.x.j.h.t.7.5. .[ ) E z.MXmXNXZXfXg.3.3.s.fXfXfXaX3.3.3.m.fXfXfXg.3.3.3.aXfXfXaX3.3.3.wXfXfXfXs.3.3. .I I I G G D D H 4 ! a j <     UXUXUXUXUXUXUXUX",
"UXUXUXUXUXM W.#XL.l.h.y.9.6. .[ ) ) R e.V m NXHXFXeX& & * 8XHXDXCXc * * x CXDXFX7X& & & eXHXDXZXc * * x VXDXGX6X* * 9 G G G G G F D H J 5 u h t     UXUXUXUXUXUXUXUX",
"UXUXUXUXUXM $XI.x.j.h.t.9. . .[ ) E R 0.O : 7XDXCXBXc & % x ZXVXDX8X& & & qXDXVXNX> & % v CXCXDX2.* & & rXDXDXiX- % 9 I I I G G F D H 3 5 8 h s     UXUXUXUXUXUXUXUX",
"UXUXUXUXUXD.E.P.l.h.y.9.6. .[ [ ) R T ,.X . - tXyXiXM o . o 4XmXiXrX* o . > yXiXiXv o X O 0XmXmX0X% X . x yXtXiXx . 9 I I I G G F D D 3 4 7 s h @     UXUXUXUXUXUXUX",
"UXUXUXUXx F.#XK.j.u.t.9. .} [ ) / R T 0.m M N 0XeXeX0XA N A 7XtXtXtX8XA B 3XtXyXpXrXA A A 0XtXrXrXA A m A 0XqXqX5XM 1.Y U I L G L D D H 4 6 a j ,     UXUXUXUXUXUXUX",
"UXUXUXUXv Y.R.L.k.u.9.9. .{ [ / R R U e.yXpXpXpXmXmXMXMXBXCXBXBXBXBXCXCXVXVXBXBXCXCXVXVXCXMXBXBXBXBXMXMXNXmXpXyXpXyXs.I I I I G F F D H 3 6 u h q     UXUXUXUXUXUXUX",
"UXUXUXUXv R.R.l.k.y.t. . .{ [ / R Y U e.tXyXpXpXmXNXMXMXMXBXBXBXBXBXCXCXCXCXCXCXBXBXCXCXCXBXBXBXBXMXMXMXNXpXpXpXyXtXs.U I I G L F F D D 3 5 u h t     UXUXUXUXUXUXUX",
"UXUXUXUXM R.P.l.p.t.9. .} { ) / / Y U r.tXyXpXpXmXNXMXMXBXMXBXBXBXBXBXBXCXCXCXCXCXCXCXCXBXBXBXMXBXMXMXMXmXpXpXpXyXtXs.~ I L L L F D D 3 3 5 y h p     UXUXUXUXUXUXUX",
"UXUXUXUXv E.P.l.u.w.7.5.{ [ ) / R Y Y e.tXyXiXpXkXcXcXnXvXvXvXvXvXvXbXbXbXbXbXbXbXbXbXbXvXvXvXnXvXvXnXnXcXcXpXyXiXtXc.I I I I L F F D H 3 5 8 h d       UXUXUXUXUXUX",
"UXUXUXUXC R.P.k.y.w.7. .{ [ ) E R Y U e.tXyXiXmXlX1X1X1X1X1X1X1XzXzX1XzXzXzXzXlXzXzXzXzXzXzX1X1X2X1X1X1X1XlXpXiXyXtXs.I I I I G L F D D H 5 8 s s       UXUXUXUXUXUX",
"UXUXUXUXv R.P.p.y.9.6.} | [ ) E R Y I t.tXpXiXmXlX:X:X:X;X;X;X>X>X,X,X;X>X,X1X,X,X>X>X>X,X>X>X>X;X;X:X:X:XlXpXyXtXtXs.I I I L L F F D D 3 5 7 h s       UXUXUXUXUXUX",
"UXUXUXUXv R.K.p.w.9.6. .| [ / E R R Y e.tXyXiXpX,XXXXXXX}.|..X.X.X;XSXlX:X|.%X:X:X%X:X:X%X.X.X.X|.}.}.}.XX>XpXpXiXtXu.I I I L G F D D H 3 4 8 h s       UXUXUXUXUXUX",
"UXUXUXUXv R.H.p.r.9.5. .{ [ ) / E R Y e.tXyXiXiX@X!.!.!.~.~.'.'.XX=XFXKXSX2X[.'.[.|.[.[.].].'.'.~.~.^.!.!.*XyXiXyXtXs.Y I I G I F F D D 3 5 8 h s       UXUXUXUXUXUX",
"UXUXUXUXx Y.H.p.r.9.5.} | [ ) / R R R e.tXyXiXmX+X!.!.~.'.'.}.[.XX-XFXKXPXLXSX1X|.[. X.X X|.[.].'.'.~.^.!.@XyXiXyXtXc.I I I I G L F F D H 5 y h d       UXUXUXUXUXUX",
"UXUXUXUXx Y.K.p.r.9. . .| [ ) / E R R e.tXyXiXiX+X^.~.'.'.[.[.{.[.-XFXKXPXLXLXLXSX,X X X X X X[.[.].'.~.^.@XyXiXtXtXs.I I I G G L F D H 4 5 y h p       UXUXUXUXUXUX",
"UXUXUXUXc G.H.a.r.7.5. .{ [ ) / / R Y e.qXiXiXiX+X^.'.].[.[.{. X[.>XFXKXPXPXLXLXLXPXbX>X*X X*X{.|.[.].'.^.@XyXiXyXtXd.I I I I G F F H H 3 6 u h r       UXUXUXUXUXUX",
"UXUXUXUX- S.H.a.r.7.8.} { [ ) / E E R e.3XeXiXiX+X'.].[. X{.*X*X X>XFXKXKXKXPXPXKXKXJXJXbX>X*X*X X X[.].~.@XgXiXyXrX<.I I G I G G D H H J 6 a j q       UXUXUXUXUXUX",
"UXUXUXUX& v.Y.a.q.7.8.} [ [ ) ) / E R e.3X6XrXiX+X'.].[. X*X*X*X*X>XGXKXIXKXKXKXKXHXJXJXDXxX*X*X*X X X]._.@XtXiXrX3X<.I I I I G G D H H J 7 s h <       UXUXUXUXUXUX",
"UXUXUXUXUXC H.J.q.7. .{ { _ ) ) / / E e.S 6X4XqXH.XX|. X*X*X*X=X&X$XGXFXFXHXIXJXHXKXSXlX-X&X&X&X*X*X X|.}.@XtXeX3XS 0.G I G G G G D H H 4 8 s s @     UXUXUXUXUXUXUX",
"UXUXUXUXUX- G.J.q.7.8. .{ [ ) ) ) / E e.3X6X4X6X>._. X*X*X%X&X=X&X,XGXGXFXGXHXJXGXcX>X=X&X-X-X&X&X*X X X}.J.7X8X3X3X0.I I I I G F D H J 5 y h d       UXUXUXUXUXUXUX",
"UXUXUXUXUX= Z.J.a.8. .} { | _ _ ) / R e.S 4X8X5X=.b.).{.*X=X=X-X-X,XDXDXFXHXGXnX,X-X-X-X>X-X-X=X=X=X*X{./.&.3X4X3X3X<.I L L L L K D H J 6 a h r       UXUXUXUXUXUXUX",
"UXUXUXUXUX% z Y.a.q.8.} | _ _ _ ) / E e.S 3X4X5X=.b.Q.Q.`.{.=X-X-X,XFXJXGXbX,X>X>X>X>X>X-X-X-X-X&X{._./.b.%.3X4X3X3X<.L I L L L K H 3 4 8 s h <       UXUXUXUXUXUXUX",
"UXUXUXUXUXUX= S.C.q.;.} { _ _ ) ) / R e.S 3X4X5X&.b././.).).).{.{.2XDXbXxX>X>X,X,X,X>X>X>X-X*X{._.)././.b.%.3X4X4X3X<.I L L G F K H H 6 y h a         UXUXUXUXUXUXUX",
"UXUXUXUXUXUX* N.Z.q.-.} | _ ) ) / E R e.S 4X4X3X%.b.).).).)._._.).{.-X X*X=X:X;X-X=X*X*X{.`._._.).).).).Q.g D.4X3X3X<.I G L F D H H 4 6 a j r       UXUXUXUXUXUXUXUX",
"UXUXUXUXUXUXO z Z.>.-.} | _ ) ) / R R e.3X6X4X6XO.:.:.:.:.V.V.(.(.(.Q././.`.`.`.).`./.(./.(.(.(.b.b.:.:.:.g D.4X3X3X<.L G G F D H J 5 y h s #       UXUXUXUXUXUXUXUX",
"UXUXUXUXUXUXUX% N.C.-.;.' _ _ ( / R R e.3X3X3X6Xz u g O.O.%.%.&.%.=.=.=.>.C.N.>.>.>.>.*.&.&.%.%.%.O.g g a g 3X4X3X3X<.F G G D D H 5 6 a h r         UXUXUXUXUXUXUXUX",
"UXUXUXUXUXUXUXO z Z.>.+.` _ ) ( / R T e.S 3X6X6XS 2.2.2.2.2.2.D.D.9XD.F.9X9X9XF.9XD.D.D.D.6XD.D.2.2.2.2.B 2.3X4X6X3X<.F F K D H J 5 8 h s <       UXUXUXUXUXUXUXUXUX",
"UXUXUXUXUXUXUXUXO =.N.-.` ) / ( R T Y e.3X3X3X6X8X8X8X8X8X7X7X7X7X7X7X7X7X7X7X7X7X0X7X7X7X8X7X7X7X8X8X8X8X8X4X3X6X3X<.F D H H H J 7 a h r         UXUXUXUXUXUXUXUXUX",
"UXUXUXUXUXUXUXUX+ w N.*.+.` / E U T U w.B D.S S S B B B B V 2.S 3X3X3X3X3X3X3X3X3X3X3XS 3XS B B S S S S S S S S D.B 1.F F D 3 4 6 u h a #       UXUXUXUXUXUXUXUXUXUX",
"UXUXUXUXUXUXUXUXUXO k B.&.` ( R U U I  .f.f.f.g.f.f.f.m.f.f.m.c.f.f.f.f.g.g.g.g.g.s.g.g.g.g.g.m.g.g.g.g.g.g.g.g.f.f.,.D H 3 3 5 8 s h q         UXUXUXUXUXUXUXUXUXUX",
"UXUXUXUXUXUXUXUXUXUXo A.*.+.^ ~ U U U I L L L I G G Y I I I I I I I I I I L I I I I I I I I I I I I I L F L F F D D D D H 4 5 7 d j r         UXUXUXUXUXUXUXUXUXUXUX",
"UXUXUXUXUXUXUXUXUXUX. w A.&.o.~ U U L L F L L L G I G G I I I I I I I I I L I G I I L I I I I I I G L L L F F D 3 D 3 3 4 4 6 a j o.0         UXUXUXUXUXUXUXUXUXUXUX",
"UXUXUXUXUXUXUXUXUXUXUX. l A.$.X.~ P P L L L G G I G I I L L I I I L I I I L I G I I I L I I I G G I G G F F D D D 3 3 3 4 6 u h a 0         UXUXUXUXUXUXUXUXUXUXUXUX",
"UXUXUXUXUXUXUXUXUXUXUXUX. t $.$.^ ~ P L G G G G G G G G L L L L L I G G G I L G L L G I L L G L G G G G D D D D 3 3 3 4 6 a h s q         UXUXUXUXUXUXUXUXUXUXUXUXUX",
"UXUXUXUXUXUXUXUXUXUXUXUXUX  t $.%.X.Q P P H K F F G G G G G G G G G G G I G G G L L L I L L G G G G G G D D D 3 3 3 4 7 u k s 1         UXUXUXUXUXUXUXUXUXUXUXUXUXUX",
"UXUXUXUXUXUXUXUXUXUXUXUXUXUX  t #.@.X.Q J P K G F F F F G G G G G G G G G G G G G L G G G I G G G G G D D D 3 3 3 5 7 a h s 1           UXUXUXUXUXUXUXUXUXUXUXUXUXUX",
"UXUXUXUXUXUXUXUXUXUXUXUXUXUXUX  w #.@.X.Q J J J J D J F F D F F D D F F F G D F G G G G G G G D D D H H H 3 3 4 6 8 d h d q           UXUXUXUXUXUXUXUXUXUXUXUXUXUXUX",
"UXUXUXUXUXUXUXUXUXUXUXUXUXUXUXUX  q #.@.@.! Q 5 J K H H D D D D D D D D D D D D F F F D F D D D H D H H 4 4 5 7 u s h a 0           UXUXUXUXUXUXUXUXUXUXUXUXUXUXUXUX",
"UXUXUXUXUXUXUXUXUXUXUXUXUXUXUXUXUX  0 l @.s u ! 6 J J H 3 H H D D D D 3 D D D D D D D D D H J H H H 4 4 5 6 y d h h r ,           UXUXUXUXUXUXUXUXUXUXUXUXUXUXUXUXUX",
"UXUXUXUXUXUXUXUXUXUXUXUXUXUXUXUXUXUX    w j @.s y 7 6 5 4 3 3 3 3 3 3 3 D D 3 D 3 D D D H H H H 4 5 5 6 8 a h h u q             UXUXUXUXUXUXUXUXUXUXUXUXUXUXUXUXUXUX",
"UXUXUXUXUXUXUXUXUXUXUXUXUXUXUXUXUXUXUX    # t h h s u ! 6 5 5 4 4 4 3 3 3 3 3 H 3 3 J H 4 4 5 5 6 8 y a h h d r #           UXUXUXUXUXUXUXUXUXUXUXUXUXUXUXUXUXUXUXUX",
"UXUXUXUXUXUXUXUXUXUXUXUXUXUXUXUXUXUXUXUXUX    0 p j j h d u y 7 6 6 5 5 5 4 5 5 4 4 5 6 6 7 8 y a s h j d p <             UXUXUXUXUXUXUXUXUXUXUXUXUXUXUXUXUXUXUXUXUX",
"UXUXUXUXUXUXUXUXUXUXUXUXUXUXUXUXUXUXUXUXUXUX      # t h h h h s d u y y 8 8 8 8 8 8 y u a s s j j h a r #               UXUXUXUXUXUXUXUXUXUXUXUXUXUXUXUXUXUXUXUXUXUX",
"UXUXUXUXUXUXUXUXUXUXUXUXUXUXUXUXUXUXUXUXUXUXUXUX        , t d s h h h h h h s h h h j j j j s i r <                 UXUXUXUXUXUXUXUXUXUXUXUXUXUXUXUXUXUXUXUXUXUXUXUX",
"UXUXUXUXUXUXUXUXUXUXUXUXUXUXUXUXUXUXUXUXUXUXUXUXUXUX          @ , q r p d d s s d d p r q < @                   UXUXUXUXUXUXUXUXUXUXUXUXUXUXUXUXUXUXUXUXUXUXUXUXUXUX",
"UXUXUXUXUXUXUXUXUXUXUXUXUXUXUXUXUXUXUXUXUXUXUXUXUXUXUXUX                                                    UXUXUXUXUXUXUXUXUXUXUXUXUXUXUXUXUXUXUXUXUXUXUXUXUXUXUXUX",
"UXUXUXUXUXUXUXUXUXUXUXUXUXUXUXUXUXUXUXUXUXUXUXUXUXUXUXUXUXUXUX                                        UXUXUXUXUXUXUXUXUXUXUXUXUXUXUXUXUXUXUXUXUXUXUXUXUXUXUXUXUXUXUX",
"UXUXUXUXUXUXUXUXUXUXUXUXUXUXUXUXUXUXUXUXUXUXUXUXUXUXUXUXUXUXUXUXUXUXUXUX                    UXUXUXUXUXUXUXUXUXUXUXUXUXUXUXUXUXUXUXUXUXUXUXUXUXUXUXUXUXUXUXUXUXUXUXUX",
"UXUXUXUXUXUXUXUXUXUXUXUXUXUXUXUXUXUXUXUXUXUXUXUXUXUXUXUXUXUXUXUXUXUXUXUXUXUXUXUXUXUXUXUXUXUXUXUXUXUXUXUXUXUXUXUXUXUXUXUXUXUXUXUXUXUXUXUXUXUXUXUXUXUXUXUXUXUXUXUXUXUX",
"UXUXUXUXUXUXUXUXUXUXUXUXUXUXUXUXUXUXUXUXUXUXUXUXUXUXUXUXUXUXUXUXUXUXUXUXUXUXUXUXUXUXUXUXUXUXUXUXUXUXUXUXUXUXUXUXUXUXUXUXUXUXUXUXUXUXUXUXUXUXUXUXUXUXUXUXUXUXUXUXUXUX",
"UXUXUXUXUXUXUXUXUXUXUXUXUXUXUXUXUXUXUXUXUXUXUXUXUXUXUXUXUXUXUXUXUXUXUXUXUXUXUXUXUXUXUXUXUXUXUXUXUXUXUXUXUXUXUXUXUXUXUXUXUXUXUXUXUXUXUXUXUXUXUXUXUXUXUXUXUXUXUXUXUXUX",
"UXUXUXUXUXUXUXUXUXUXUXUXUXUXUXUXUXUXUXUXUXUXUXUXUXUXUXUXUXUXUXUXUXUXUXUXUXUXUXUXUXUXUXUXUXUXUXUXUXUXUXUXUXUXUXUXUXUXUXUXUXUXUXUXUXUXUXUXUXUXUXUXUXUXUXUXUXUXUXUXUXUX",
"UXUXUXUXUXUXUXUXUXUXUXUXUXUXUXUXUXUXUXUXUXUXUXUXUXUXUXUXUXUXUXUXUXUXUXUXUXUXUXUXUXUXUXUXUXUXUXUXUXUXUXUXUXUXUXUXUXUXUXUXUXUXUXUXUXUXUXUXUXUXUXUXUXUXUXUXUXUXUXUXUXUX",
"UXUXUXUXUXUXUXUXUXUXUXUXUXUXUXUXUXUXUXUXUXUXUXUXUXUXUXUXUXUXUXUXUXUXUXUXUXUXUXUXUXUXUXUXUXUXUXUXUXUXUXUXUXUXUXUXUXUXUXUXUXUXUXUXUXUXUXUXUXUXUXUXUXUXUXUXUXUXUXUXUXUX"
};
