/* XPM */
static char *Free_Converter_com_btn_scene_1_98705231[] = {
/* columns rows colors chars-per-pixel */
"82 82 256 2 ",
"   c #000C0E",
".  c #0B0B09",
"X  c #000E10",
"o  c #001214",
"O  c #001619",
"+  c #00191D",
"@  c #161614",
"#  c #10110F",
"$  c #00252A",
"%  c #003037",
"&  c #252523",
"*  c #2B2C2A",
"=  c #272827",
"-  c #383938",
";  c #20211F",
":  c #41413F",
">  c #003B44",
",  c #3A3863",
"<  c #01434C",
"1  c #084A54",
"2  c #35474A",
"3  c #0C576C",
"4  c #265A77",
"5  c #006473",
"6  c #036978",
"7  c #00606E",
"8  c #396A7E",
"9  c #484948",
"0  c #4F5055",
"q  c #4C4A6C",
"w  c #666767",
"e  c #797978",
"r  c #4E7176",
"t  c #403D64",
"y  c #7F807F",
"u  c #80807F",
"i  c #170F86",
"p  c #170F88",
"a  c #180F8C",
"s  c #161383",
"d  c #161B83",
"f  c #18118E",
"g  c #181789",
"h  c #1B1292",
"j  c #1B1B94",
"k  c #201795",
"l  c #231A96",
"z  c #261E98",
"x  c #281F99",
"c  c #251E8E",
"v  c #162383",
"b  c #152B83",
"n  c #17278B",
"m  c #153485",
"M  c #153B84",
"N  c #15378A",
"B  c #1A2795",
"V  c #183A97",
"C  c #2B239A",
"Z  c #28279A",
"A  c #30279D",
"S  c #332B9E",
"D  c #2B339A",
"F  c #362EA0",
"G  c #3B33A2",
"H  c #3838A3",
"J  c #2D38A0",
"K  c #423BA5",
"L  c #443D99",
"P  c #154C8A",
"I  c #154687",
"U  c #15538B",
"Y  c #155B89",
"T  c #155895",
"R  c #174A96",
"E  c #235D82",
"W  c #15678C",
"Q  c #00798B",
"!  c #007485",
"~  c #16758C",
"^  c #156796",
"/  c #157C92",
"(  c #157898",
")  c #007A8C",
"_  c #26648A",
"`  c #307193",
"'  c #1A57A2",
"]  c #3747A7",
"[  c #2C50A7",
"{  c #1773AF",
"}  c #3373AE",
"|  c #5A5598",
" . c #4D4991",
".. c #757D85",
"X. c #686798",
"o. c #6F6F91",
"O. c #4542A8",
"+. c #4B44AA",
"@. c #4A48AA",
"#. c #524CAD",
"$. c #544EA6",
"%. c #4954AD",
"&. c #5B55AA",
"*. c #5551AD",
"=. c #5A54B1",
"-. c #5D5AB3",
";. c #5556B1",
":. c #4C5AB0",
">. c #625EB0",
",. c #4869B4",
"<. c #5865B6",
"1. c #5178BA",
"2. c #6B67A9",
"3. c #7C78A4",
"4. c #7A77A5",
"5. c #6462B7",
"6. c #686AB9",
"7. c #6974BD",
"8. c #7375BD",
"9. c #716DAF",
"0. c #167EC2",
"q. c #737BC1",
"w. c #6B7EC0",
"e. c #827EBB",
"r. c #837EC1",
"t. c #008A9E",
"y. c #008397",
"u. c #15849B",
"i. c #168699",
"p. c #328895",
"a. c #068CA5",
"s. c #158BA3",
"d. c #1488A8",
"f. c #0195AB",
"g. c #019BAE",
"h. c #0991AB",
"j. c #1595AB",
"k. c #1A85B8",
"l. c #019DB4",
"z. c #0A9AB4",
"x. c #1599B5",
"c. c #3392AE",
"v. c #00A2BA",
"b. c #08A4B9",
"n. c #14A4BA",
"m. c #33A1B1",
"M. c #508D96",
"N. c #7C8489",
"B. c #768F95",
"V. c #5289B8",
"C. c #659BA3",
"Z. c #57ABB7",
"A. c #6FABB4",
"S. c #1D86C7",
"D. c #079BDD",
"F. c #189EDD",
"G. c #218ACA",
"H. c #228ED2",
"J. c #2696D7",
"K. c #3298CF",
"L. c #04ACC2",
"P. c #15ABC2",
"I. c #05B7CB",
"U. c #16B6CA",
"Y. c #05BDD1",
"T. c #17BED1",
"R. c #24A0DE",
"E. c #2BA2DE",
"W. c #32A3DF",
"Q. c #3CA1DD",
"!. c #32AFCB",
"~. c #27A5E1",
"^. c #34A5E1",
"/. c #3BA6E1",
"(. c #3BA9E3",
"). c #1FA4E1",
"_. c #5393C3",
"`. c #7687C5",
"'. c #7998CA",
"]. c #688EC5",
"[. c #49A7CB",
"{. c #54ACD2",
"}. c #67B5D4",
"|. c #78B9D7",
" X c #74AACD",
".X c #44A9E3",
"XX c #4CACE4",
"oX c #42A6E1",
"OX c #53ADE5",
"+X c #58AFE7",
"@X c #59B3E9",
"#X c #4FB4EB",
"$X c #67B8E9",
"%X c #73BCEA",
"&X c #0AC4D6",
"*X c #1AC5D7",
"=X c #28CADB",
"-X c #36C8D8",
";X c #35D4E2",
":X c #51C9D9",
">X c #69C8DA",
",X c #75CDDD",
"<X c #4AD7E4",
"1X c #5ADAE6",
"2X c #67DBE7",
"3X c #77DAE5",
"4X c #7AC6F4",
"5X c #7BC6E3",
"6X c #79E1EB",
"7X c #69E1EA",
"8X c #848484",
"9X c #8C8986",
"0X c #898989",
"qX c #948E8A",
"wX c #908B87",
"eX c #848C95",
"rX c #989897",
"tX c #8D8BAF",
"yX c #A6A5A5",
"uX c #B6B5B5",
"iX c #BCBBBB",
"pX c #A29FA2",
"aX c #C2BEBC",
"sX c #9995C6",
"dX c #81B7D7",
"fX c #A6A3D3",
"gX c #BCBBCC",
"hX c #97A9D6",
"jX c #B5C4CE",
"kX c #83DBE8",
"lX c #87C9F4",
"zX c #90C9E7",
"xX c #ADCDE2",
"cX c #B7D3E6",
"vX c #AFD0E6",
"bX c #83E2EC",
"nX c #83C3DC",
"mX c #C3C2C2",
"MX c #CCCBCB",
"NX c #C9C7C6",
"BX c #D4D3D3",
"VX c #DCDCDC",
"CX c #D7D6D7",
"ZX c #CDCDD0",
"AX c #D5D8EA",
"SX c #D3E3ED",
"DX c #E3E4E4",
"FX c #EBECEC",
"GX c #E5E7E9",
"HX c #F6F0ED",
"JX c #F4F4F3",
"KX c #FCFCFB",
"LX c #F8F5F5",
"PX c #EEEDEF",
"IX c #C1C0C4",
"UX c None",
/* pixels */
"UXUXUXUXUXUXUXUXUXUXUXUXUXUXUXUXUXUXUXUXUXUXUXUXUXUXUXUXUXUXUXUXUXUXUXUXUXUXUXUXUXUXUXUXUXUXUXUXUXUXUXUXUXUXUXUXUXUXUXUXUXUXUXUXUXUXUXUXUXUXUXUXUXUXUXUXUXUXUXUXUXUX",
"UXUXUXUXUXUXUXUXUXUXUXUXUXUXUXUXUXUXUXUXUXUXUXUXUXUXUXUXUXUXUXUXUXUXUXUXUXUXUXUXUXUXUXUXUXUXUXUXUXUXUXUXUXUXUXUXUXUXUXUXUXUXUXUXUXUXUXUXUXUXUXUXUXUXUXUXUXUXUXUXUXUX",
"UXUXUXUXUXUXUXUXUXUXUXUXUXUXUXUXUXUXUXUXUXUXUXUXUXUXUXUXUXUXUXUXUXUXUXUXUXUXUXUXUXUXUXUXUXUXUXUXUXUXUXUXUXUXUXUXUXUXUXUXUXUXUXUXUXUXUXUXUXUXUXUXUXUXUXUXUXUXUXUXUXUX",
"UXUXUXUXUXUXUXUXUXUXUXUXUXUXUXUXUXUXUXUXUXUXUXUXUXUXUXUXUXUXUXUXUXUXUXUXUXUXUXUXUXUXUXUXUXUXUXUXUXUXUXUXUXUXUXUXUXUXUXUXUXUXUXUXUXUXUXUXUXUXUXUXUXUXUXUXUXUXUXUXUXUX",
"UXUXUXUXUXUXUXUXUXUXUXUXUXUXUXUXUXUXUXUXUXUXUXUXUXUXUXUXUXUXUXUXUX8 M.m.m.m.m.c.c.c.i.~ 4 1 UXUXUXUXUXUXUXUXUXUXUXUXUXUXUXUXUXUXUXUXUXUXUXUXUXUXUXUXUXUXUXUXUXUXUXUX",
"UXUXUXUXUXUXUXUXUXUXUXUXUXUXUXUXUXUXUXUXUXUXUXUXUXUXUXUXUXM.Z.{.<X<X<X<X<X<X1X<X<X;X;X=X=X*Xn.u.3 > UXUXUXUXUXUXUXUXUXUXUXUXUXUXUXUXUXUXUXUXUXUXUXUXUXUXUXUXUXUXUXUX",
"UXUXUXUXUXUXUXUXUXUXUXUXUXUXUXUXUXUXUXUXUXUXUXUXUXUXM.Z.1X1X2X1X>X:X{.{.[.[.[.[.[.!.!.!.!.-X=X=X=XT.t.6 % UXUXUXUXUXUXUXUXUXUXUXUXUXUXUXUXUXUXUXUXUXUXUXUXUXUXUXUXUX",
"UXUXUXUXUXUXUXUXUXUXUXUXUXUXUXUXUXUXUXUXUXUXUXUXZ.>X7X7X2X>X}.{._.V.V.V.1.,.,.,.,.} ,.} } c.K.P.T.=X*X&XI.Q > UXUXUXUXUXUXUXUXUXUXUXUXUXUXUXUXUXUXUXUXUXUXUXUXUXUXUX",
"UXUXUXUXUXUXUXUXUXUXUXUXUXUXUXUXUXUXUXUXUXUXA.>X7X7X>X}.{.].].1.1.<.,.:.%.%.%.%.] ] ] ] ] [ [ [ { k.x.U.*X&XI.Q > UXUXUXUXUXUXUXUXUXUXUXUXUXUXUXUXUXUXUXUXUXUXUXUXUX",
"UXUXUXUXUXUXUXUXUXUXUXUXUXUXUXUXUXUXUXUXC.,X7X3X5X}.].].7.<.<.;.;.*.@.@.O.O.H H H H H H J J J V J J ' { k.P.*X&XL.6 UXUXUXUXUXUXUXUXUXUXUXUXUXUXUXUXUXUXUXUXUXUXUXUX",
"UXUXUXUXUXUXUXUXUXUXUXUXUXUXUXUXUXUXUX X7X6X,X|.'.].w.6.-.-.;.#.@.O.O.K K K G G F F F F S Z Z Z B B B V R { k.U.*XY.t.< UXUXUXUXUXUXUXUXUXUXUXUXUXUXUXUXUXUXUXUXUXUX",
"UXUXUXUXUXUXUXUXUXUXUXUXUXUXUXUXUXC.3X6X3X|.'.].7.6.<.-.;.#.#.K K K K G G G G F F S A A C Z z l z l j j B V R ^ x.U.Y.I.5 UXUXUXUXUXUXUXUXUXUXUXUXUXUXUXUXUXUXUXUXUX",
"UXUXUXUXUXUXUXUXUXUXUXUXUXUXUXUXA.3XbXnX X'.q.7.6.<.-.*.#.+.K K K G G F S F S S A A A A C C z l k k j h j n B V T { n.T.Y.Q UXUXUXUXUXUXUXUXUXUXUXUXUXUXUXUXUXUXUXUX",
"UXUXUXUXUXUXUXUXUXUXUXUXUXUXUXA.6XbX5X X`.q.7.6.-.-.*.+.K K K K G S S A S A A C Z A A Z C C z l k k h h f g g n n R ^ x.U.&Xy.UXUXUXUXUXUXUXUXUXUXUXUXUXUXUXUXUXUXUX",
"UXUXUXUXUXUXUXUXUXUXUXUXUXUXA.bXkX|.'.`.q.7.5.-.=.*.+.+.K K G F S A A C C C C C C C C x C x z l k h h h f f g g n n N ^ d.U.Y.t.UXUXUXUXUXUXUXUXUXUXUXUXUXUXUXUXUXUX",
"UXUXUXUXUXUXUXUXUXUXUXUXUXA.6XbXnX'.`.q.6.5.-.=.*.+.K K G G F A C C C x C C x z x x x C z z l l k j h h f a p g g d n N T d.P.Y.t.UXUXUXUXUXUXUXUXUXUXUXUXUXUXUXUXUX",
"UXUXUXUXUXUXUXUXUXUXUXUXA.kXkXdX'.`.q.6.5.=.=.#.+.K K G S F A A x x x x z z z z l x x l x x l l k k h h f f a p p s d v M T d.P.Y.y.UXUXUXUXUXUXUXUXUXUXUXUXUXUXUXUX",
"UXUXUXUXUXUXUXUXUXUXUXC.kXbXnX'.`.q.6.5.=.=.#.K K G G G A A x x x x k k k z k k l k x x l x l k k h h h h h a a p i s d v m T s.U.Y.Q UXUXUXUXUXUXUXUXUXUXUXUXUXUXUX",
"UXUXUXUXUXUXUXUXUXUXUX3XbXnXdXtXq.6.5.=.#.#.+.K G G S A A A x x k k k k k k k k k l x x x l k k k k k h k l c H L L g s d v m T j.T.I.5 UXUXUXUXUXUXUXUXUXUXUXUXUXUX",
"UXUXUXUXUXUXUXUXUXUX|.bXzX X`.8.8.5.-.=.#.K K G G F A C x x x z k z k k k k k k l l k x A F G G @.&.>.>.tXgXAXCXw 0 D s s d v I ^ x.I.g.1 UXUXUXUXUXUXUXUXUXUXUXUXUX",
"UXUXUXUXUXUXUXUXUXC.bXkX|.sXq.8.5.>.#.#.K K G S A A C x x x z z k k k k l C K #.=.=.=.2.B.gXAXPXuX9 : : uXDXDXyX* ; L i s s d b I ( P.Y.t.UXUXUXUXUXUXUXUXUXUXUXUXUX",
"UXUXUXUXUXUXUXUXUX3XbXnX'.q.8.6.5.#.#.K K G S A A x x z C S G #.-.8.9.>.| tXAXPXPXw : - 0 DXGXGXw & = : mXBXBXw @ .  .i i s s d b T d.U.I.6 UXUXUXUXUXUXUXUXUXUXUXUX",
"UXUXUXUXUXUXUXUXA.bX5XdX`.q.6.5.=.#.+.K F S K -.6.8.8.X.2.o.gXAXJXBX: - - pXKXJXZX- = = e GXVXNX- . # : yXpXpXw 9 t  .i i s s d v N ^ n.Y.g.> UXUXUXUXUXUXUXUXUXUXUX",
"UXUXUXUXUXUXUXUX3XlXdX'.q.8.5.=.#.+.K &.o.o.3.GXJXLXu - - 9 VXKXKXrX& & : NXPXPXpX@ # @ 0XmXuXqX9 q  .| 2.&.L c c c g i i s s s d b P ( P.I.) UXUXUXUXUXUXUXUXUXUXUX",
"UXUXUXUXUXUXUXA.6XnX X`.8.5.-.#.+.K G 2.rXw 8XKXKXPX9 & & w PXLXPX0 # @ - aXNXgX..t q | 2.$.+.S c x l k h h h h h h a a a i i i s v N ^ x.I.g.> UXUXUXUXUXUXUXUXUXUX",
"UXUXUXUXUXUXUX3XbX|.'.q.6.5.=.#.+.G F r.VXDXDXJXKXBX= @ @ e BXiXpXq q  .| -.@.G z l k k k h k h l k h h k k h h h a h a a a i i s d b P ( P.I.Q UXUXUXUXUXUXUXUXUXUX",
"UXUXUXUXUXUXC.6X5X Xq.8.5.-.#.+.K F S r.VXVXDXVXBX4.t q  .$.K K A l k k l h k h h h k h h k h k h l l l k h k h h h h a a a i i s s n N ^ x.I.g.% UXUXUXUXUXUXUXUXUX",
"UXUXUXUXUXUX}.bX|.'.8.6.-.=.+.K G S A r.BXBXZXIXe.x z x x C C A x x x z z C x x z z l z x x x x z x x x x x x k k l h h a a a a s s d b U s.P.v.5 UXUXUXUXUXUXUXUXUX",
"UXUXUXUXUXUX2X3X|.`.7.5.=.#.K K F S x e.MXaXNXgXfX4.X.X.X.fXfXfXsXX.X.X.3.fXfXfX3.X.X.X.sXfXfXsXX.X.X.tXfXfXfX4.X.2.L h h f a a p s s v M ( n.I.t.+ UXUXUXUXUXUXUXUX",
"UXUXUXUXUXC.6X5X'.8.6.-.#.+.K G S A x $.e w NXPXFXpX* * * qXPXGXBX9 = = 0 VXDXFXqX= = * pXGXDXMX9 & & 0 VXDXGX0X= * t a f f a a p s s v N ^ j.L.l.> UXUXUXUXUXUXUXUX",
"UXUXUXUXUXA.6X>X].7.5.=.#.K K F A x x $.; ; rXDXVXBX9 * ; 9 ZXVXDX0X* * * pXDXVXNX: * & 0 VXVXDX..= = * yXGXDXaX: ; c k h f f a p p p d b U s.P.L.5 UXUXUXUXUXUXUXUX",
"UXUXUXUXUX>X6X|.].6.-.*.K K G F x x l +.. . - uXiXiXw # # @ 0XmXaXyX& @ . : aXiXNX0 @ @ @ rXmXmXrX& # . 9 aXuXiX0 . , h h f f a p p s d v I ( n.L.) O UXUXUXUXUXUXUX",
"UXUXUXUXr 2X2X Xw.5.=.#.K K S A C z l $.w w e rXyXyXrXe e e qXuXuXuX0Xy e N.uXiXiXyXy y e rXuXuXyXu e e e pXpXpX0Xw  .j a a h a a i i s v M ( j.L.f.$ UXUXUXUXUXUXUX",
"UXUXUXUXM.2X,X'.7.<.*.+.K G S A z l l &.iXiXiXmXmXNXMXBXBXCXBXBXBXBXVXVXVXVXCXBXCXCXVXVXCXCXBXBXMXBXMXNXNXmXiXiXiXiX9.k k a h a p p i s d M W j.L.v.> UXUXUXUXUXUXUX",
"UXUXUXUXC.2X>X].7.-.#.+.K G S A z l h ;.iXiXaXmXmXNXMXMXZXBXBXBXBXBXCXBXCXCXCXCXCXCXCXVXCXBXBXBXBXBXMXNXNXmXmXiXiXuX9.k h h a a p p i s d m Y s.L.v.1 UXUXUXUXUXUXUX",
"UXUXUXUXZ.2X}.].7.;.$.O.K G A C z l j &.uXiXiXaXmXNXMXMXMXZXBXBXBXBXBXCXCXCXCXCXCXCXBXVXBXBXBXMXMXMXMXMXmXmXaXiXiXuX2.j h h h a p i i s d b U s.P.v.6 UXUXUXUXUXUXUX",
"UXUXUXUXZ.7X}.].<.;.#.O.G F A C z l h ;.uXaXaXmXjXxXxXxXcXvXvXcXcXcXcXcXcXcXcXcXcXcXcXcXcXcXvXvXcXxXvXvXxXxXIXiXaXuX2.k h h h a a p i i d b P u.b.v.!   UXUXUXUXUXUX",
"UXUXUXUXZ.7X}.].<.;.+.K G S A x z l l &.uXiXaXmXzX4X4X4X4X4X4X4XlXlXlXlXzXlXlXlXlXlXlXlXlX4XlX4X5X4X4X4X4XzXaXaXaXuX2.h h h f f p p i i s b P u.n.l.) o UXUXUXUXUXUX",
"UXUXUXUXZ.7X}.].<.#.+.K G S A x l l h &.uXaXaXaXzX#X#X#X@X@X@X$X$X$X%X@X$X%X4X%X$X%X$X$X$X$X$X$X@X@X#X#X#XzXmXaXiXuX2.k h f f f p i s s d b P / n.l.) o UXUXUXUXUXUX",
"UXUXUXUXZ.2X}.1.<.#.+.K G S C x l l l &.uXiXaXNX%X).).).~.^.(./.^.$XSXzX#X(.XX#X#X.X#X#X.X.X(.^.(.~.~.~.).$XmXaXiXuX5.h h f h a i i i s s b P / x.v.t.O UXUXUXUXUXUX",
"UXUXUXUXZ.1X}.1.<.#.O.K F S A C x l l =.uXiXaXmX{.D.D.D.F.J.R.R.).OXFXLXSX5X^.~.^.^.^.W.E.E.R.R.F.F.F.D.D.{.iXaXiXuX9.h h h h h a a i s s b P i.n.l.y.O UXUXUXUXUXUX",
"UXUXUXUXZ.1X}.V.<.%.O.K G S A C x x l &.uXiXaXaX{.D.D.F.F.R.E.E.R.OXFXJXLXKXSX%X/.W.^././.^.W.E.E.J.F.F.D.oXiXaXiXuX2.h h h h a a p i s d b U i.z.l.y.O UXUXUXUXUXUX",
"UXUXUXUXV.1X}.V.<.@.O.K G F A A x x l &.uXiXaXaX{.F.F.R.E.E.^./.E.+XFXJXJXKXKXKXSX%XoX/./././.^.W.E.R.F.D.oXiXaXuXuX2.h h h a a a p s s d b U i.z.l.) o UXUXUXUXUXUX",
"UXUXUXUXM.<X}._.<.#.O.K G S A C C x l &.pXaXaXaX{.F.R.E.W.^././.Q.$XFXJXJXLXKXKXLXKXcX$XoX/.oX/.^.W.R.R.J.{.iXaXiXuX2.h h f h a p p s s d m Y s.b.v.!   UXUXUXUXUXUX",
"UXUXUXUXp.<X:X_.<.%.K H G S A C x x z &.8XyXaXaX{.J.R.W.W./.Q.XX/.$XFXJXJXJXLXLXJXJXHXHXcX$XoXoX/./.W.E.F.{.iXaXiXyX| h h h h a a i i s v N W s.z.v.6 X UXUXUXUXUXUX",
"UXUXUXUX2 ;X1X_.,.%.O.G G F A A C x z &.u 0XyXaX}.~.E.W./.oXoXoX.X}.GXPXPXJXJXJXJXFXHXHXDXnXoXoX/./.^.^.)._.iXiXyX0X| h h h h a p p i s v M ~ s.z.v.7   UXUXUXUXUXUX",
"UXUXUXUXUX[.1X[.,.:.O.G F F A A A C x &.8X0XwXpX_.~.^./.oXoXXXXXXX%XDXFXPXFXJXPXJXHXSXzX$XXXXXXX.XoX/.^.R.{.uXpX0X8X .h h h a a p i s s b I / d.l.l.> UXUXUXUXUXUXUX",
"UXUXUXUXUXm.1X[.1.:.O.K G S S A A x x &.u 8XwX8X` J.^.oXoXXXXXOXXX%XDXFXFXGXPXHXGXxX%XXXXX+XOXXXXXoX/./.E.V.rX9X8X8X$.h h h a a p s s d b Y / x.g.a.% UXUXUXUXUXUXUX",
"UXUXUXUXUXp.<X:XV.%.@.H H F F A A C x &.u 9X9X0X` 0.H.Q.oXOXOXOX+X%XDXDXFXHXGXvX%X+X+X+X+X+X+XOXOXXXoXQ.G.` N.9X8X8X| h f f f a i s s d M W i.z.v.y.O UXUXUXUXUXUXUX",
"UXUXUXUXUX2 ;X:X_.} ] H G G F A A C x &.u 8X9X0X` 0.S.G.K.Q.OX+X+X%XGXFXGXcX%X$X$X$X$X$X$X+X+X+XXXQ.J.G.0._ 8X0X0X8X| h h f a a i s s b M ~ s.l.v.6   UXUXUXUXUXUXUX",
"UXUXUXUXUXUXm.<X!.,.] ] F F A A A C x &.u 8X9X0X` 0.S.H.G.H.J.K.oX|.AXAXzX$X$X%X%X%X$X$X$X+XXXQ.J.H.G.H.k._ N.wX0X8X| a f f a a s s d b U i.d.f.g.< o UXUXUXUXUXUXUX",
"UXUXUXUXUXUXp.;X-X1.,.H H F F C C x x &.8X0X9X8X_ 0.H.H.H.J.J.J.H.Q.+X/.oXOX+X+X+XXXXXQ.Q.K.J.J.H.H.H.H.S.E u 9X8X8X| h a a p p s d v M W i.z.l.t.$ UXUXUXUXUXUXUXUX",
"UXUXUXUXUXUX1 -X-X[.,.] J S S Z C z z &.8X8X0X8XE ' 0.{ 0.0.S.S.G.G.S.G.K.K.G.K.H.K.G.G.S.S.S.S.0.0.{ 0.{ 4 u 9X8X8X| a a a p i s d b P / s.g.v.5 X UXUXUXUXUXUXUXUX",
"UXUXUXUXUXUXUXp.;X!.c.[ H S S Z C z z $.8X8X9X0X_ 4 4 4 E E _ _ _ ` ` } } p.p.c.} } ` ` ` ` _ _ _ E E 4 4 4 N.9X0X8X| p a a i i s v M W i.h.l.g.> o UXUXUXUXUXUXUXUX",
"UXUXUXUXUXUXUX1 =X-XK.[ ] J A C C z z &.u 8X0X0XN.......N.N.N.N.N.eXN.B.B.eXeX0XB.eXeXeXN.N.N.N.u ......o...8X8X8X8X| p p p i s d b P / d.g.v.! o UXUXUXUXUXUXUXUXUX",
"UXUXUXUXUXUXUXUXp.=X-X} [ J Z Z z l l $.8X8X8X8XwXwXwXwXwXwX9XwXqXqXqXqXqXqXqXqXqXqXqXqXqXqXqXqXwXwXwXwX9X9X0X0X0X8X| p p s s s v M W i.h.f.l.< X UXUXUXUXUXUXUXUXUX",
"UXUXUXUXUXUXUXUX< T.-X!.[ [ D Z l k k *.e 8Xu 8Xu 8Xu u u u u u u 8X8X8X8X8X8X8Xu 8X8X8Xu u u u u u y y y y u u N.e | i i s s d m U / d.g.v.! + UXUXUXUXUXUXUXUXUXUX",
"UXUXUXUXUXUXUXUXUX~ *X=Xk.[ D B l j j K 3.3.4.4.4.4.4.4.4.4.4.9.3.3.4.3.3.4.4.4.9.9.4.4.4.3.4.4.4.4.4.4.3.4.3.4.3.3. .s s s d b I ~ i.h.l.g.< X UXUXUXUXUXUXUXUXUXUX",
"UXUXUXUXUXUXUXUXUXUXj.*X!.} R Z B j j f f f f f a h h h h h h h h h h h h h a h h h h h k h h h h h h h a a a i s i i s s d b 3 W u.h.t.v.6 o UXUXUXUXUXUXUXUXUXUXUX",
"UXUXUXUXUXUXUXUXUXUX1 *X*XP.{ V B j f f f f f h f f f h h h h h h h h h f f f h h h f h h h h h f a a a a a i i s i s s d v N U u.d.l.v.y.$ + UXUXUXUXUXUXUXUXUXUXUX",
"UXUXUXUXUXUXUXUXUXUXUX6 &X*Xx.' V B j f f f a a f a h h h a f f a h h f f h a f h a h f f h h f h f a a i i i i s s s d v m E ~ s.f.l.g.1   UXUXUXUXUXUXUXUXUXUXUXUX",
"UXUXUXUXUXUXUXUXUXUXUXUX) &X*XS.' V B g g f f f a h a a h a h f h h a f f f f f h h f h f h f f f a a a i i i i s s d v M Y / u.h.f.l.7   UXUXUXUXUXUXUXUXUXUXUXUXUX",
"UXUXUXUXUXUXUXUXUXUXUXUXUXy.&XT.x.' V n g d p p a a a a a a a a a a a a a f f a h a a a f f a a a a a a s s s s s v d N Y / u.a.f.v.! + UXUXUXUXUXUXUXUXUXUXUXUXUXUX",
"UXUXUXUXUXUXUXUXUXUXUXUXUXUXt.&XU.x.^ V n B p p p p a a a a a a a a a a a a a a a a a h a f a a a a i i s s s d d b 3 Y / u.a.f.v.! $ O UXUXUXUXUXUXUXUXUXUXUXUXUXUX",
"UXUXUXUXUXUXUXUXUXUXUXUXUXUXUXt.&XT.x.^ R B n g g g s a i i a i i i i i p p i p p a p a a a i a i i s s s s d v m I W / u.a.f.v.) $ o UXUXUXUXUXUXUXUXUXUXUXUXUXUXUX",
"UXUXUXUXUXUXUXUXUXUXUXUXUXUXUXUXy.Y.T.n.( T N m v d g s s i i i s s i i i p i i p i p p i i i i i s s d d v b M Y ~ i.d.g.l.v.Q $ o UXUXUXUXUXUXUXUXUXUXUXUXUXUXUXUX",
"UXUXUXUXUXUXUXUXUXUXUXUXUXUXUXUXUXQ Y.Y.P.d.^ P N n v d d s s s s s i s i i i i i i i i s i s g s s d v b m 3 W / u.a.g.l.l.6 $ o UXUXUXUXUXUXUXUXUXUXUXUXUXUXUXUXUX",
"UXUXUXUXUXUXUXUXUXUXUXUXUXUXUXUXUXUX5 g.Y.U.n.d.^ P N b v d d s s s s s i s i s i s i s d s s d v v b M P W ~ i.d.h.a.v.g.7 + O UXUXUXUXUXUXUXUXUXUXUXUXUXUXUXUXUXUX",
"UXUXUXUXUXUXUXUXUXUXUXUXUXUXUXUXUXUXUX1 t.I.I.P.x.u.^ U I m b v v d d d s d s d s d d d v v b b m I U W ~ u.s.a.g.l.v.t.< X UXUXUXUXUXUXUXUXUXUXUXUXUXUXUXUXUXUXUXUX",
"UXUXUXUXUXUXUXUXUXUXUXUXUXUXUXUXUXUXUXUXUX6 g.I.I.P.x.s.( W U I M M m b b b b b b b m m M M P U W ~ / s.s.x.z.f.v.f.6 $   UXUXUXUXUXUXUXUXUXUXUXUXUXUXUXUXUXUXUXUXUX",
"UXUXUXUXUXUXUXUXUXUXUXUXUXUXUXUXUXUXUXUXUXUX> Q l.I.I.P.n.j.d.( ~ ^ Y U U P P P P U U Y W ~ / ( u.s.d.z.g.g.v.l.Q > o O UXUXUXUXUXUXUXUXUXUXUXUXUXUXUXUXUXUXUXUXUXUX",
"UXUXUXUXUXUXUXUXUXUXUXUXUXUXUXUXUXUXUXUXUXUXUXUX< ! g.v.I.L.P.n.x.j.s.i.i.u.( d.u.u.i.i.s.s.j.h.z.l.f.l.v.g.) < O X UXUXUXUXUXUXUXUXUXUXUXUXUXUXUXUXUXUXUXUXUXUXUXUX",
"UXUXUXUXUXUXUXUXUXUXUXUXUXUXUXUXUXUXUXUXUXUXUXUXUXUX% 5 t.l.v.L.L.L.b.P.b.n.x.x.x.n.z.z.z.l.l.g.v.v.l.t.5 > O   UXUXUXUXUXUXUXUXUXUXUXUXUXUXUXUXUXUXUXUXUXUXUXUXUXUX",
"UXUXUXUXUXUXUXUXUXUXUXUXUXUXUXUXUXUXUXUXUXUXUXUXUXUXUXUX+ > 5 y.f.v.v.v.v.l.l.l.l.l.v.l.v.v.l.f.y.5 < $   o UXUXUXUXUXUXUXUXUXUXUXUXUXUXUXUXUXUXUXUXUXUXUXUXUXUXUXUX",
"UXUXUXUXUXUXUXUXUXUXUXUXUXUXUXUXUXUXUXUXUXUXUXUXUXUXUXUXUXUXUXo $ > 1 5 ! ) ) y.y.y.Q ! 6 7 < $ O     UXUXUXUXUXUXUXUXUXUXUXUXUXUXUXUXUXUXUXUXUXUXUXUXUXUXUXUXUXUXUX",
"UXUXUXUXUXUXUXUXUXUXUXUXUXUXUXUXUXUXUXUXUXUXUXUXUXUXUXUXUXUXUXUXUXUXUXUX  X O O O o         UXUXUXUXUXUXUXUXUXUXUXUXUXUXUXUXUXUXUXUXUXUXUXUXUXUXUXUXUXUXUXUXUXUXUXUX",
"UXUXUXUXUXUXUXUXUXUXUXUXUXUXUXUXUXUXUXUXUXUXUXUXUXUXUXUXUXUXUXUXUXUXUXUXUXUXUXUXUXUXUXUXUXUXUXUXUXUXUXUXUXUXUXUXUXUXUXUXUXUXUXUXUXUXUXUXUXUXUXUXUXUXUXUXUXUXUXUXUXUX",
"UXUXUXUXUXUXUXUXUXUXUXUXUXUXUXUXUXUXUXUXUXUXUXUXUXUXUXUXUXUXUXUXUXUXUXUXUXUXUXUXUXUXUXUXUXUXUXUXUXUXUXUXUXUXUXUXUXUXUXUXUXUXUXUXUXUXUXUXUXUXUXUXUXUXUXUXUXUXUXUXUXUX",
"UXUXUXUXUXUXUXUXUXUXUXUXUXUXUXUXUXUXUXUXUXUXUXUXUXUXUXUXUXUXUXUXUXUXUXUXUXUXUXUXUXUXUXUXUXUXUXUXUXUXUXUXUXUXUXUXUXUXUXUXUXUXUXUXUXUXUXUXUXUXUXUXUXUXUXUXUXUXUXUXUXUX",
"UXUXUXUXUXUXUXUXUXUXUXUXUXUXUXUXUXUXUXUXUXUXUXUXUXUXUXUXUXUXUXUXUXUXUXUXUXUXUXUXUXUXUXUXUXUXUXUXUXUXUXUXUXUXUXUXUXUXUXUXUXUXUXUXUXUXUXUXUXUXUXUXUXUXUXUXUXUXUXUXUXUX",
"UXUXUXUXUXUXUXUXUXUXUXUXUXUXUXUXUXUXUXUXUXUXUXUXUXUXUXUXUXUXUXUXUXUXUXUXUXUXUXUXUXUXUXUXUXUXUXUXUXUXUXUXUXUXUXUXUXUXUXUXUXUXUXUXUXUXUXUXUXUXUXUXUXUXUXUXUXUXUXUXUXUX",
"UXUXUXUXUXUXUXUXUXUXUXUXUXUXUXUXUXUXUXUXUXUXUXUXUXUXUXUXUXUXUXUXUXUXUXUXUXUXUXUXUXUXUXUXUXUXUXUXUXUXUXUXUXUXUXUXUXUXUXUXUXUXUXUXUXUXUXUXUXUXUXUXUXUXUXUXUXUXUXUXUXUX"
};
