/* XPM */
static char *Free_Converter_com_btn_scene_2_41395231[] = {
/* columns rows colors chars-per-pixel */
"82 82 95 2 ",
"   c #00BCBE",
".  c #03BFC1",
"X  c #06BFE0",
"o  c #04C1C3",
"O  c #09C5C7",
"+  c #0BC6C9",
"@  c #01CACE",
"#  c #0ECACC",
"$  c #10CCCE",
"%  c #01CDD3",
"&  c #06C2DE",
"*  c #0CC7D9",
"=  c #05CCDD",
"-  c #0FCADD",
";  c #12CED3",
":  c #12CDDC",
">  c #03D1D6",
",  c #0BD4D7",
"<  c #05D4DD",
"1  c #0AD3DE",
"2  c #05D8DF",
"3  c #0CDADD",
"4  c #15D2D4",
"5  c #19D4D7",
"6  c #15D3DB",
"7  c #1AD6D9",
"8  c #12DCDF",
"9  c #1DDADC",
"0  c #21DDDF",
"q  c #06C0E2",
"w  c #0AC4E5",
"e  c #06CCE2",
"r  c #0EC9E7",
"t  c #0FCAE8",
"y  c #13CDE5",
"u  c #12CCE9",
"i  c #06D5E2",
"p  c #0BD4E4",
"a  c #06DAE2",
"s  c #0CDBE5",
"d  c #03D7E9",
"f  c #06DBEE",
"g  c #0CDDEB",
"h  c #17D1E4",
"j  c #1AD6E5",
"k  c #16DEE1",
"l  c #1EDCE2",
"z  c #16D2EA",
"x  c #1AD5EB",
"c  c #14DBEA",
"v  c #1DDBED",
"b  c #06DDF1",
"n  c #08DFF2",
"m  c #23DEE1",
"M  c #20DBEA",
"N  c #0FE0E7",
"B  c #13E1E5",
"V  c #1DE3E6",
"C  c #14E3EA",
"Z  c #1CE4ED",
"A  c #1DE8EE",
"S  c #05E4F6",
"D  c #0CE4F6",
"F  c #0DE6F8",
"G  c #12E6F6",
"H  c #18E7F3",
"J  c #16E8F7",
"K  c #1EEAF3",
"L  c #12E7F8",
"P  c #15E9F9",
"I  c #1BEBFA",
"U  c #25E1E2",
"Y  c #29E5E7",
"T  c #21E4EE",
"R  c #2BE6E9",
"E  c #20E9ED",
"W  c #2EEAEC",
"Q  c #31ECEE",
"!  c #21E4F0",
"~  c #2AE5F3",
"^  c #21EAF0",
"/  c #2DEDF5",
"(  c #22EEFB",
")  c #28EFF9",
"_  c #32EEF1",
"`  c #2CF0F7",
"'  c #25F0FC",
"]  c #2DF1F9",
"[  c #36F2F4",
"{  c #38F4F6",
"}  c #33F3FA",
"|  c #3AF6F9",
" . c #3DF9FB",
".. c #40FCFE",
"X. c None",
/* pixels */
"X.X.X.X.X.X.X.X.X.X.X.X.X.X.X.X.X.X.X.X.X.X.X.X.X.X.X.X.X.X.X.X.X.X.X.X.X.X.X.X.X.X.X.X.X.X.X.X.X.X.X.X.X.X.X.X.X.X.X.X.X.X.X.X.X.X.X.X.X.X.X.X.X.X.X.X.X.X.X.X.X.X.",
"X.X.X.X.X.X.X.X.X.X.X.X.X.X.X.X.X.X.X.X.X.X.X.X.X.X.X.X.X.X.X.X.X.X.X.X.X.X.X.X.X.X.X.X.X.X.X.X.X.X.X.X.X.X.X.X.X.X.X.X.X.X.X.X.X.X.X.X.X.X.X.X.X.X.X.X.X.X.X.X.X.X.",
"X.X.X.X.X.X.X.X.X.X.X.X.X.X.X.X.X.X.X.X.X.X.X.X.X.X.X.X.X.X.X.X.X.X.X.X.X.X.X.X.X.X.X.X.X.X.X.X.X.X.X.X.X.X.X.X.X.X.X.X.X.X.X.X.X.X.X.X.X.X.X.X.X.X.X.X.X.X.X.X.X.X.",
"X.X.X.X.X.X.X.X.X.X.X.X.X.X.X.X.X.X.X.X.X.X.X.X.X.X.X.X.X.X.X.X.X.X.X.X.X.X.X.X.X.X.X.X.X.X.X.X.X.X.X.X.X.X.X.X.X.X.X.X.X.X.X.X.X.X.X.X.X.X.X.X.X.X.X.X.X.X.X.X.X.X.",
"X.X.X.X.X.X.X.X.X.X.X.X.X.X.X.X.X.X.X.X.X.X.X.X.X.X.X.X.X.X.X.X.X.$ $ $ $ $ # # # O O O o o X.X.X.X.X.X.X.X.X.X.X.X.X.X.X.X.X.X.X.X.X.X.X.X.X.X.X.X.X.X.X.X.X.X.X.X.",
"X.X.X.X.X.X.X.X.X.X.X.X.X.X.X.X.X.X.X.X.X.X.X.X.X.X.X.X.X.; ; 6 8 B N C C C C N N N N s 3 , @ o . . X.X.X.X.X.X.X.X.X.X.X.X.X.X.X.X.X.X.X.X.X.X.X.X.X.X.X.X.X.X.X.X.",
"X.X.X.X.X.X.X.X.X.X.X.X.X.X.X.X.X.X.X.X.X.X.X.X.X.X.4 4 B B Z Z Z C C c C c c c s g s g g s g a 2 > .     X.X.X.X.X.X.X.X.X.X.X.X.X.X.X.X.X.X.X.X.X.X.X.X.X.X.X.X.X.",
"X.X.X.X.X.X.X.X.X.X.X.X.X.X.X.X.X.X.X.X.X.X.X.X.5 k A A A Z c Z c c c z z z z p z z y z p p p g s a a a @     X.X.X.X.X.X.X.X.X.X.X.X.X.X.X.X.X.X.X.X.X.X.X.X.X.X.X.",
"X.X.X.X.X.X.X.X.X.X.X.X.X.X.X.X.X.X.X.X.X.X.7 V A K ! v v x x x x z u u u u u u u y y r t t r e p e d a a 2 %     X.X.X.X.X.X.X.X.X.X.X.X.X.X.X.X.X.X.X.X.X.X.X.X.X.",
"X.X.X.X.X.X.X.X.X.X.X.X.X.X.X.X.X.X.X.X.5 V K Z Z v v x x x x x z z z u u u u t t t r r w t w w e w e e i a a < @   X.X.X.X.X.X.X.X.X.X.X.X.X.X.X.X.X.X.X.X.X.X.X.X.",
"X.X.X.X.X.X.X.X.X.X.X.X.X.X.X.X.X.X.X.7 A A Z Z v v x x x z u u u u u u u t t t r t w r w w w w w q e w e e i < a >     X.X.X.X.X.X.X.X.X.X.X.X.X.X.X.X.X.X.X.X.X.X.",
"X.X.X.X.X.X.X.X.X.X.X.X.X.X.X.X.X.7 V K E T M v v x x x z u u u u u t t t t w t w t w w w t w w q w q q q q e e i 2 > %   X.X.X.X.X.X.X.X.X.X.X.X.X.X.X.X.X.X.X.X.X.",
"X.X.X.X.X.X.X.X.X.X.X.X.X.X.X.X.9 Z ^ ^ I v x x x x z z u u u u t r t t w t t w w t w w w t w X q w X X q q w & e = < a %   X.X.X.X.X.X.X.X.X.X.X.X.X.X.X.X.X.X.X.X.",
"X.X.X.X.X.X.X.X.X.X.X.X.X.X.X.9 Z ! ! v v v x x x z z u u u u t t r w t w w w t w w t w w w w w w w w X q q q & & e = < 2 >   X.X.X.X.X.X.X.X.X.X.X.X.X.X.X.X.X.X.X.",
"X.X.X.X.X.X.X.X.X.X.X.X.X.X.9 A I ! ~ v x x x x x z u u t t u u w r w w t w w w w w w w w w w X w w X q X q q q q & & = < < %   X.X.X.X.X.X.X.X.X.X.X.X.X.X.X.X.X.X.",
"X.X.X.X.X.X.X.X.X.X.X.X.X.0 E E ~ v v v x x x x u u u u u t w w w w w w w w w w w w w w w X w w X X w X q X & & q & & & = < 2 % . X.X.X.X.X.X.X.X.X.X.X.X.X.X.X.X.X.",
"X.X.X.X.X.X.X.X.X.X.X.X.9 E ^ ! v v x x x x u u u u t u w w w w w w w w w w w X w w w w w t t X w q q q X X w X X q & & & = < < %   X.X.X.X.X.X.X.X.X.X.X.X.X.X.X.X.",
"X.X.X.X.X.X.X.X.X.X.X.7 E ^ ~ v v v x x x x x u u t t w w t w w w q w w X w w t w w w w w X X w w q w q X X X X q q X & & & = < < %   X.X.X.X.X.X.X.X.X.X.X.X.X.X.X.",
"X.X.X.X.X.X.X.X.X.X.X.E E ! M ! v v x x u u u u u t t t t w w w w w w q w w X X w X w w w w X X w w w q w w w t u u q & & & & = < a @   X.X.X.X.X.X.X.X.X.X.X.X.X.X.",
"X.X.X.X.X.X.X.X.X.X.0 E ^ ! v v v x x u u u u t w t w w w w w w w q w X w w X X w w X w w t t t u u x z M / { [ 5 ; r & & & & & = < >     X.X.X.X.X.X.X.X.X.X.X.X.X.",
"X.X.X.X.X.X.X.X.X.9 E ^ v ~ v x x x u u u t t t w w w w w w w w q w w w X t t u u z x j M _ [ | ~ : $ $ W { { R # O y q & X & & = = > >   X.X.X.X.X.X.X.X.X.X.X.X.X.",
"X.X.X.X.X.X.X.X.X.V ^ ! ~ v v x x x u u u u t w t w w w w w u u u x x x j M { ..| h ; $ 4 | | | 7 + # $ _ [ [ 9 . . : X & & & & & = < 2 @   X.X.X.X.X.X.X.X.X.X.X.X.",
"X.X.X.X.X.X.X.X.l Z I v x x x x x u u u t t t z x x M M M j ~ { ..[ - * # R ....[ ; . # 9 | | _ # . o $ R Y Y 5 ; : : X & X X & & & < < > .   X.X.X.X.X.X.X.X.X.X.X.",
"X.X.X.X.X.X.X.X.v ! ~ ~ v x x x x u u z j h M | | ..0 # # $ { ....Y + . $ _ | ..R . . . U _ ~ M ; : : h x z y & w q X X X X & X X & e < < @   X.X.X.X.X.X.X.X.X.X.X.",
"X.X.X.X.X.X.X.7 E ! Z M v x x z u t t x U 5 U ......$ O O 5  .....; . . ; Q _ _ l ; : h x z x t w w w X X X q q q q q q q q q q & & & = < >     X.X.X.X.X.X.X.X.X.X.",
"X.X.X.X.X.X.X.V ^ ! v v x x z u t t t M { { { ....[ O . O 0 [ W R ; y z h x u t w q X w X X X X w w X w w w w q q q q X X q q X X & & = < < @   X.X.X.X.X.X.X.X.X.X.",
"X.X.X.X.X.X.9 A ! ! v v x u u u u t t M { { { { [ M : : h u u y w X X X X X X X X w q q w X X X X w w X X w q q q X X X q q q q q & & & e 2 >     X.X.X.X.X.X.X.X.X.",
"X.X.X.X.X.X.9 ^ K v v x x x u u t w t v [ [ [ Q M w w w w w w w X t t X t w w t w w w w w w t w w w w w w w w w w w w X q q X q X & & & = < <     X.X.X.X.X.X.X.X.X.",
"X.X.X.X.X.X.V A v v x x x u u t t w w x { _ Q [ ~ M M j j ~ ~ ~ ~ j j j M ~ ~ ~ M j j j ! ~ ~ T z h j v ~ ~ ~ l h j u q X q q X X q & & & < < %     X.X.X.X.X.X.X.X.",
"X.X.X.X.X.5 A ! v v x x x u t t w w w x 9 h [ | { Y + + O U  .| _ ; + + 4 { | | U + + + R  .| [ : + # 4 { {  .U # + - q q q q q X & & & & i < >     X.X.X.X.X.X.X.X.",
"X.X.X.X.X.7 K Z v v x x u u u t w w w u O O U | { [ ; + O $ [ { { m + + + Y | | _ $ + + ; { { { 9 + # O R | { Q $ O - q X q q X X q q & & = < <     X.X.X.X.X.X.X.X.",
"X.X.X.X.X.9 A Z v x x u u t t w t w w u . . $ R Q Q 5 . . O m Q Q R + . . $ Q _ _ 4 o . o Y Q Q Y O . o ; Q Q Q $ o w X w q q q q X & & & = < i o     X.X.X.X.X.X.X.",
"X.X.X.X.4 B H Z x x x z u u t t w w q z 5 9 9 Y R R Y 0 0 9 U W Q R U 0 0 0 R _ Q R 0 0 9 Y W W R 0 9 9 0 Y Y Y m 7 h q X X X q q X & & & & < < @     X.X.X.X.X.X.X.",
"X.X.X.X.4 Z Z v x x u u u u w w w r q z W Q W Q Q Q _ [ [ [ [ [ [ { { { { [ [ { [ [ { { { [ [ _ [ [ [ _ _ Q Q Q Q Q c w w X w X q q X X & = < 2 % .   X.X.X.X.X.X.X.",
"X.X.X.X.4 A Z v x x u u t w w w w q w z W _ _ Q _ _ _ [ [ [ [ [ { [ [ _ { [ { [ [ [ { { [ [ [ [ [ [ _ _ _ _ Q Q W W V w w X X X q X X X & & = > >     X.X.X.X.X.X.X.",
"X.X.X.X.4 A Z v x z u u u u t w w w q k W W W _ _ _ _ _ _ [ [ [ _ { [ { _ { [ { { [ [ { [ [ [ [ [ [ _ _ _ Q Q Q W W j q X X w X X X & & & & = 2 <     X.X.X.X.X.X.X.",
"X.X.X.X.5 A Z x x z u u u t w w w w X z W Q Q Q ` ` ` ` ) ] ] ] ] ] ] ] } ] ] ] ] ] ] ) ] ] ] ) ` ` ] ] ] ) Q Q / / x w X q q q q q X X & = e < < .     X.X.X.X.X.X.",
"X.X.X.X.4 Z H x x z u u t w w w w X X z W Q W _ ) I I ( I ( ' ( ( ( ( ' ) ' ' ' ' ' ' ' ( ( ( ( ( ( ( ( I ' Q Q ~ ~ x q w X q q q q & X & & = < <       X.X.X.X.X.X.",
"X.X.X.X.5 Z v x z u u u t t t w w w X x W Q Q _ ' I P P P P I I I I I I I I ( I I I I ( I I I I P P P P P ] ` Q Q Q x w q q q q q X q X X & = < =       X.X.X.X.X.X.",
"X.X.X.X.4 H v z x x u u t w w w w X X x W Q _ _ I S S F F F F F F I { ' P F L P P P F F P F L F F F F S S I Q Q Q R x q q q w q X X & & & & = < <       X.X.X.X.X.X.",
"X.X.X.X.4 Z C x z u u u t t w w w w w u ~ Q Q _ L S S S S S D D S P  . .} ( F F D D F D D D D D S S S S S L Q Q Q Q x X X X X X q X q X & & = < <       X.X.X.X.X.X.",
"X.X.X.X.4 Z c c x u u u t t w t t X X x / Q Q Q H S S S S D D F F P  . .....} ( F D D L D D F D D D S S S H Q Q Q R v X w X X w q q & X & & = < <       X.X.X.X.X.X.",
"X.X.X.X.$ C Z c z u u u w w w w X w X x W Q Q Q J S S D D D F D D P  . . . .....} I L L D L D L D D D S S G Q Q Q W j w q w X w X q & X & & < < =       X.X.X.X.X.X.",
"X.X.X.X.$ C Z x x u u t t t t w t w w x R Q Q Q G S D D D F F L F I |  . ......... .} I L L L D D D D S S G Q W Q W j X q X w X q X X X & & = 2 >       X.X.X.X.X.X.",
"X.X.X.X.$ B C c u u u u t t t w t w w h 0 R Q Q H S D F D L L L L I  . . . ... . . . . .] I F L L L D D S G W Q Q ~ x q q q w q X q q & & = < i %       X.X.X.X.X.X.",
"X.X.X.X.# 8 Z c x u u t t w w w w w w h 0 m R Q H D D D L D L L L J {  . . . . . . . . .{ ( L L L D F F D H Q Q R M u q q q q q X & X & & & < < @ .     X.X.X.X.X.X.",
"X.X.X.X.X.6 C c z u t u t w t w w w w z m m m Y H D D D L L P P P I  . . . . . . . .| ] J P P P L L D L F G Q R m 0 u w q q q q X q & q & = < < o     X.X.X.X.X.X.X.",
"X.X.X.X.X.$ C c z u u t t t w t w w w h m m m m s D D L L L P G G I {  .| |  . .| ] I L J J J L J L L F D c U 0 m m u q q q q q q X & & & = < < .     X.X.X.X.X.X.X.",
"X.X.X.X.X.# N C x y u t r t r w w w w z 0 0 U m p f D D G P J P P ^ { | |  .| ] ( P P P P I J G L J L D D i 0 U 0 0 h q q X q q q & & & & < < > .     X.X.X.X.X.X.X.",
"X.X.X.X.X.+ 3 C g z u u r w t w t w w x 0 0 m U p g n n n D P P P I  .| | ] I I ! I I P J I J P J D D D f p 0 U m m z q q q q q q & & & = < < @       X.X.X.X.X.X.X.",
"X.X.X.X.X.X.# C c y u t r t r w w w w z 0 m U m p f n n n D n G L I  .} ( I I I I I I I I P G D n n b n b p m 0 0 m h q q X X q q & q & = < <         X.X.X.X.X.X.X.",
"X.X.X.X.X.X.O N s c z e r t r w w w w z 0 m 0 0 p b n n f D D D D G J D L J J J P L L L D D D D D D n n b 1 0 m m m z & q q q q & & & & < < =       X.X.X.X.X.X.X.X.",
"X.X.X.X.X.X.o , N c z t r w r w w w w z 0 m 0 m p d f f f f n n f S f D n D n D D n n n n n n g f f f f d 1 0 m m m h X q q q q & & & = < < @       X.X.X.X.X.X.X.X.",
"X.X.X.X.X.X.X.O s g p e w t w w w w w z 0 m m m 1 1 1 1 p 1 p i p p s i g n c c c p g g p p 3 p p p 1 1 < 1 m 0 0 m h X q X X q & & = < < =         X.X.X.X.X.X.X.X.",
"X.X.X.X.X.X.X.O 3 N s u r t t w w w q z 0 m m m m 0 l 0 9 l l 9 m m m m m m U U m m m m m M m l l 9 l 0 9 m m m m m h & X X & & & & e < < @       X.X.X.X.X.X.X.X.X.",
"X.X.X.X.X.X.X.X.o s g p r w w w r q w z 0 m m m m m 0 U U m U U U m U U U m U m U U m m U m m m 0 U U 0 m m m m m 0 z X q & X X & = < < >         X.X.X.X.X.X.X.X.X.",
"X.X.X.X.X.X.X.X.o > N s p r w w w w X u l l m m 0 0 M m m m j v m 0 m m m m m m v M m m 0 0 0 0 0 0 0 0 0 0 0 m 0 0 h & X X & & = e < < @       X.X.X.X.X.X.X.X.X.X.",
"X.X.X.X.X.X.X.X.X.o 2 N p r e q w X w t j v j v l M M v M M v x M j M M j M M M x x v M M M v ~ j M M v M M j l l M y X X & & & = < < %         X.X.X.X.X.X.X.X.X.X.",
"X.X.X.X.X.X.X.X.X.X.o i s p e w e X q q w q q w X X w X X X w q w w X X X X X X q q w q X X X X X w q X X X q q X q X X & & & = < < =         X.X.X.X.X.X.X.X.X.X.X.",
"X.X.X.X.X.X.X.X.X.X.. > a d e w e q q q q q q q X X X X X X q q q q X q X X X X w q q q X X X X X X q q q X X X X q & & & & & < < < @         X.X.X.X.X.X.X.X.X.X.X.",
"X.X.X.X.X.X.X.X.X.X.X.. > a a e e q q q q q q X X X X w q q q q q q q q X w X q q q q q q q X w X X X X X X & & X & & & & = = < < %         X.X.X.X.X.X.X.X.X.X.X.X.",
"X.X.X.X.X.X.X.X.X.X.X.X.. < d d e q q q X q X w X X X X q q q q q q q q w X q q w q q q q X X X X w w X X & X X & & & & = = < < %         X.X.X.X.X.X.X.X.X.X.X.X.X.",
"X.X.X.X.X.X.X.X.X.X.X.X.X.  > a i e e q w X X X X w X w q q q q q q q q q q q q q q q q q q q q q q X X X X X & X & & & = < < %         X.X.X.X.X.X.X.X.X.X.X.X.X.X.",
"X.X.X.X.X.X.X.X.X.X.X.X.X.X.  > d d e e q w X X X X X X q q q q q q q q X q q q q q q q q q q q X q X X X & & & & & = , 2 < %           X.X.X.X.X.X.X.X.X.X.X.X.X.X.",
"X.X.X.X.X.X.X.X.X.X.X.X.X.X.X.  > a < e e & & & & & X q & q X q X X X X X q q & X q X q X X q X & X X & & X & & & = < < < @           X.X.X.X.X.X.X.X.X.X.X.X.X.X.X.",
"X.X.X.X.X.X.X.X.X.X.X.X.X.X.X.X.  > a 2 < e w & & & & X X X X & & X q & X q X q X q q q X & q q q X X & & & & = = < 2 < %           X.X.X.X.X.X.X.X.X.X.X.X.X.X.X.X.",
"X.X.X.X.X.X.X.X.X.X.X.X.X.X.X.X.X.  % > 2 < e e & q & & X & X & X X & X X X q X X X X & X q & & & & & & & & = < < < = @           X.X.X.X.X.X.X.X.X.X.X.X.X.X.X.X.X.",
"X.X.X.X.X.X.X.X.X.X.X.X.X.X.X.X.X.X.    % 2 2 < = = = & & & X & & & X & & X & X & & X X X & & & & & & = = < < < < %             X.X.X.X.X.X.X.X.X.X.X.X.X.X.X.X.X.X.",
"X.X.X.X.X.X.X.X.X.X.X.X.X.X.X.X.X.X.X.    @ > < i < < = = & & & & & X & & & & & & X & & & & & & & = = < 2 < < % @           X.X.X.X.X.X.X.X.X.X.X.X.X.X.X.X.X.X.X.X.",
"X.X.X.X.X.X.X.X.X.X.X.X.X.X.X.X.X.X.X.X.X.    % < < < < = = = = = & & & & & & q & & & & & = = = < < < < < < @             X.X.X.X.X.X.X.X.X.X.X.X.X.X.X.X.X.X.X.X.X.",
"X.X.X.X.X.X.X.X.X.X.X.X.X.X.X.X.X.X.X.X.X.X.      @ > i < < 2 < < < < = = = = = = = = < < < < < < < < = @               X.X.X.X.X.X.X.X.X.X.X.X.X.X.X.X.X.X.X.X.X.X.",
"X.X.X.X.X.X.X.X.X.X.X.X.X.X.X.X.X.X.X.X.X.X.X.X.        @ > < < < < < < < < < < < 2 < 2 < 2 < < > @                 X.X.X.X.X.X.X.X.X.X.X.X.X.X.X.X.X.X.X.X.X.X.X.X.",
"X.X.X.X.X.X.X.X.X.X.X.X.X.X.X.X.X.X.X.X.X.X.X.X.X.X.          o @ % = < > < < < = < > = % @ o                   X.X.X.X.X.X.X.X.X.X.X.X.X.X.X.X.X.X.X.X.X.X.X.X.X.X.",
"X.X.X.X.X.X.X.X.X.X.X.X.X.X.X.X.X.X.X.X.X.X.X.X.X.X.X.X.      .                         .   .               X.X.X.X.X.X.X.X.X.X.X.X.X.X.X.X.X.X.X.X.X.X.X.X.X.X.X.X.",
"X.X.X.X.X.X.X.X.X.X.X.X.X.X.X.X.X.X.X.X.X.X.X.X.X.X.X.X.X.X.X.                                        X.X.X.X.X.X.X.X.X.X.X.X.X.X.X.X.X.X.X.X.X.X.X.X.X.X.X.X.X.X.X.",
"X.X.X.X.X.X.X.X.X.X.X.X.X.X.X.X.X.X.X.X.X.X.X.X.X.X.X.X.X.X.X.X.X.X.X.X.                    X.X.X.X.X.X.X.X.X.X.X.X.X.X.X.X.X.X.X.X.X.X.X.X.X.X.X.X.X.X.X.X.X.X.X.X.",
"X.X.X.X.X.X.X.X.X.X.X.X.X.X.X.X.X.X.X.X.X.X.X.X.X.X.X.X.X.X.X.X.X.X.X.X.X.X.X.X.X.X.X.X.X.X.X.X.X.X.X.X.X.X.X.X.X.X.X.X.X.X.X.X.X.X.X.X.X.X.X.X.X.X.X.X.X.X.X.X.X.X.",
"X.X.X.X.X.X.X.X.X.X.X.X.X.X.X.X.X.X.X.X.X.X.X.X.X.X.X.X.X.X.X.X.X.X.X.X.X.X.X.X.X.X.X.X.X.X.X.X.X.X.X.X.X.X.X.X.X.X.X.X.X.X.X.X.X.X.X.X.X.X.X.X.X.X.X.X.X.X.X.X.X.X.",
"X.X.X.X.X.X.X.X.X.X.X.X.X.X.X.X.X.X.X.X.X.X.X.X.X.X.X.X.X.X.X.X.X.X.X.X.X.X.X.X.X.X.X.X.X.X.X.X.X.X.X.X.X.X.X.X.X.X.X.X.X.X.X.X.X.X.X.X.X.X.X.X.X.X.X.X.X.X.X.X.X.X.",
"X.X.X.X.X.X.X.X.X.X.X.X.X.X.X.X.X.X.X.X.X.X.X.X.X.X.X.X.X.X.X.X.X.X.X.X.X.X.X.X.X.X.X.X.X.X.X.X.X.X.X.X.X.X.X.X.X.X.X.X.X.X.X.X.X.X.X.X.X.X.X.X.X.X.X.X.X.X.X.X.X.X.",
"X.X.X.X.X.X.X.X.X.X.X.X.X.X.X.X.X.X.X.X.X.X.X.X.X.X.X.X.X.X.X.X.X.X.X.X.X.X.X.X.X.X.X.X.X.X.X.X.X.X.X.X.X.X.X.X.X.X.X.X.X.X.X.X.X.X.X.X.X.X.X.X.X.X.X.X.X.X.X.X.X.X.",
"X.X.X.X.X.X.X.X.X.X.X.X.X.X.X.X.X.X.X.X.X.X.X.X.X.X.X.X.X.X.X.X.X.X.X.X.X.X.X.X.X.X.X.X.X.X.X.X.X.X.X.X.X.X.X.X.X.X.X.X.X.X.X.X.X.X.X.X.X.X.X.X.X.X.X.X.X.X.X.X.X.X."
};
