/* XPM */
static char *Free_Converter_com_btn_objet_0_48570901[] = {
/* columns rows colors chars-per-pixel */
"82 82 256 2 ",
"   c #000000",
".  c #0C0C0C",
"X  c #171717",
"o  c #01353A",
"O  c #082A2C",
"+  c #383838",
"@  c #282828",
"#  c #122A17",
"$  c #3B4703",
"%  c #3B4716",
"&  c #35492F",
"*  c #414D05",
"=  c #485902",
"-  c #4A5816",
";  c #546802",
":  c #5C7402",
">  c #546612",
",  c #637C03",
"<  c #64751A",
"1  c #4F562B",
"2  c #576432",
"3  c #6B7A38",
"4  c #667433",
"5  c #695033",
"6  c #023B44",
"7  c #063F53",
"8  c #16157F",
"9  c #161B7E",
"0  c #011776",
"q  c #15237D",
"w  c #152B7C",
"e  c #15347D",
"r  c #153C7C",
"t  c #0E217B",
"y  c #323078",
"u  c #4B3960",
"i  c #054856",
"p  c #064A51",
"a  c #0A4A68",
"s  c #0A5768",
"d  c #15447C",
"f  c #154A7B",
"g  c #15537B",
"h  c #155B7A",
"j  c #105776",
"k  c #0F5570",
"l  c #15647A",
"z  c #15697B",
"x  c #0B6271",
"c  c #2C6B70",
"v  c #3B4F65",
"b  c #494C4B",
"n  c #585858",
"m  c #4D4A52",
"M  c #5D6452",
"N  c #6B754F",
"B  c #524E7B",
"V  c #724F71",
"C  c #53656C",
"Z  c #686A67",
"A  c #757777",
"S  c #707768",
"D  c #70485B",
"F  c #954D0A",
"G  c #AA7912",
"H  c #924E32",
"J  c #A45C32",
"K  c #A96D30",
"L  c #A05D18",
"P  c #90594E",
"I  c #AB785A",
"U  c #AA7051",
"Y  c #835568",
"T  c #956E6C",
"R  c #AA7869",
"E  c #AA7A78",
"W  c #A76D69",
"Q  c #9E6451",
"!  c #963F00",
"~  c #6B8702",
"^  c #789705",
"/  c #728C16",
"(  c #7FA200",
")  c #758A31",
"_  c #7A8857",
"`  c #768748",
"'  c #7C8768",
"]  c #7D8478",
"[  c #B18B04",
"{  c #B09901",
"}  c #AD8C0B",
"|  c #86AB03",
" . c #8BAF10",
".. c #B0A300",
"X. c #839B35",
"o. c #AD8B35",
"O. c #8DA938",
"+. c #89A827",
"@. c #AFA430",
"#. c #849947",
"$. c #869858",
"%. c #AE8750",
"&. c #8CA547",
"*. c #8BA152",
"=. c #87966A",
"-. c #828A78",
";. c #85936B",
":. c #AB8E72",
">. c #ADA365",
",. c #170F86",
"<. c #170F88",
"1. c #180F8C",
"2. c #051886",
"3. c #161283",
"4. c #161A82",
"5. c #18118E",
"6. c #171689",
"7. c #1C1393",
"8. c #1C1A93",
"9. c #000D84",
"0. c #201795",
"q. c #231A96",
"w. c #261D98",
"e. c #291E94",
"r. c #03248C",
"t. c #172886",
"y. c #173587",
"u. c #052B96",
"i. c #192893",
"p. c #173699",
"a. c #0D3699",
"s. c #353484",
"d. c #2B239B",
"f. c #272798",
"g. c #30279D",
"h. c #332C9E",
"j. c #372D96",
"k. c #283998",
"l. c #37339C",
"z. c #25358E",
"x. c #0116A9",
"c. c #000DAA",
"v. c #0737A8",
"b. c #0538B8",
"n. c #092FAD",
"m. c #352EA1",
"M. c #3B33A2",
"N. c #3937A4",
"B. c #2E38AD",
"V. c #4B3992",
"C. c #433BA6",
"Z. c #463EAD",
"A. c #184B8A",
"S. c #35459D",
"D. c #2E509A",
"F. c #166985",
"G. c #187689",
"H. c #17708F",
"J. c #286E97",
"K. c #0C46B9",
"L. c #1B49B8",
"P. c #2744AA",
"I. c #3947A5",
"U. c #284BB7",
"Y. c #394BB9",
"T. c #3953BA",
"R. c #3256AF",
"E. c #3B77A3",
"W. c #544D90",
"Q. c #715892",
"!. c #75778B",
"~. c #4B44AA",
"^. c #4747A8",
"/. c #534CAD",
"(. c #4856A9",
"). c #5552AF",
"_. c #5459AE",
"`. c #4959B7",
"'. c #5C5AB2",
"]. c #5956B1",
"[. c #625EB5",
"{. c #5A66B6",
"}. c #4E70AB",
"|. c #6463B6",
" X c #6B6AB9",
".X c #6468B8",
"XX c #6875B7",
"oX c #7377BC",
"OX c #6D6DB6",
"+X c #467D82",
"@X c #0039C3",
"#X c #0B49C3",
"$X c #1359C9",
"%X c #0F55C9",
"&X c #2959C7",
"*X c #385BC7",
"=X c #375FD7",
"-X c #1767D4",
";X c #1B6ED8",
":X c #336AD0",
">X c #1C78E5",
",X c #3F7CE2",
"<X c #465DC5",
"1X c #495DD1",
"2X c #4D61C7",
"3X c #5866C6",
"4X c #5D69D0",
"5X c #646DC8",
"6X c #6B72CC",
"7X c #7578CA",
"8X c #787AD4",
"9X c #666FD5",
"0X c #A77A87",
"qX c #A77E94",
"wX c #947CA9",
"eX c #937197",
"rX c #2E879A",
"tX c #388CA2",
"yX c #1C8196",
"uX c #4D8E94",
"iX c #758C91",
"pX c #4A99A9",
"aX c #5590AE",
"sX c #6789B8",
"dX c #7192BB",
"fX c #5DA5B2",
"gX c #67ABB7",
"hX c #75AAB9",
"jX c #78ABAF",
"kX c #7B89C1",
"lX c #7D99C2",
"zX c #7BAEC2",
"xX c #4284EA",
"cX c #2081E5",
"vX c #818687",
"bX c #828399",
"nX c #8E9592",
"mX c #A9859B",
"MX c #AB8E8C",
"NX c #8685A7",
"BX c #8B8BB3",
"VX c #AA8AA9",
"CX c #AC92B9",
"ZX c #AB90B1",
"AX c #AFA4AA",
"SX c #98ADA9",
"DX c #8484D8",
"FX c #8690CB",
"GX c #AD97C8",
"HX c #AF9DD5",
"JX c #83B5C5",
"KX c #82A6C4",
"LX c #9190E6",
"PX c #B3A8EC",
"IX c #B1A1DD",
"UX c None",
/* pixels */
"UXUXUXUXUXUXUXUXUXUXUXUXUXUXUXUXUXUXUXUXUXUXUXUXUXUXUXUXUXUXUXUXUXUXUXUXUXUXUXUXUXUXUXUXUXUXUXUXUXUXUXUXUXUXUXUXUXUXUXUXUXUXUXUXUXUXUXUXUXUXUXUXUXUXUXUXUXUXUXUXUXUX",
"UXUXUXUXUXUXUXUXUXUXUXUXUXUXUXUXUXUXUXUXUXUXUXUXUXUXUXUXUXUXUXUXUXUXUXUXUXUXUXUXUXUXUXUXUXUXUXUXUXUXUXUXUXUXUXUXUXUXUXUXUXUXUXUXUXUXUXUXUXUXUXUXUXUXUXUXUXUXUXUXUXUX",
"UXUXUXUXUXUXUXUXUXUXUXUXUXUXUXUXUXUXUXUXUXUXUXUXUXUXUXUXUXUXUXUXUXUXUXUXUXUXUXUXUXUXUXUXUXUXUXUXUXUXUXUXUXUXUXUXUXUXUXUXUXUXUXUXUXUXUXUXUXUXUXUXUXUXUXUXUXUXUXUXUXUX",
"UXUXUXUXUXUXUXUXUXUXUXUXUXUXUXUXUXUXUXUXUXUXUXUXUXUXUXUXUXUXUXUXUXUXUXUXUXUXUXUXUXUXUXUXUXUXUXUXUXUXUXUXUXUXUXUXUXUXUXUXUXUXUXUXUXUXUXUXUXUXUXUXUXUXUXUXUXUXUXUXUXUX",
"UXUXUXUXUXUXUXUXUXUXUXUXUXUXUXUXUXUXUXUXUXUXUXUXUXUXUXUXUXUXUXUXUX+ + + + + + + @ @ @ X X . UXUXUXUXUXUXUXUXUXUXUXUXUXUXUXUXUXUXUXUXUXUXUXUXUXUXUXUXUXUXUXUXUXUXUXUX",
"UXUXUXUXUXUXUXUXUXUXUXUXUXUXUXUXUXUXUXUXUXUXUXUXUXUXUXUXUXm m C uXuXpXpXpXpXpXpXpXtXtXrXc c 6 X . . UXUXUXUXUXUXUXUXUXUXUXUXUXUXUXUXUXUXUXUXUXUXUXUXUXUXUXUXUXUXUXUX",
"UXUXUXUXUXUXUXUXUXUXUXUXUXUXUXUXUXUXUXUXUXUXUXUXUXUXn n iXaXgXfXsXaXaXaXaXaX}.E.E.E.E.tXtXrXrXJ.z s .     UXUXUXUXUXUXUXUXUXUXUXUXUXUXUXUXUXUXUXUXUXUXUXUXUXUXUXUXUX",
"UXUXUXUXUXUXUXUXUXUXUXUXUXUXUXUXUXUXUXUXUXUXUXUXZ uXgXgXfXfXsXaXXX}.}.(.(.(.(.(.(.I.(.D.R.D.J.J.yXyXG.z 6     UXUXUXUXUXUXUXUXUXUXUXUXUXUXUXUXUXUXUXUXUXUXUXUXUXUXUX",
"UXUXUXUXUXUXUXUXUXUXUXUXUXUXUXUXUXUXUXUXUXUXZ iXhXhXgXsXXXOX[.[._._./.(.^.^.^.^.N.S.N.l.k.S.k.k.D.A.H.H.G.G.p     UXUXUXUXUXUXUXUXUXUXUXUXUXUXUXUXUXUXUXUXUXUXUXUXUX",
"UXUXUXUXUXUXUXUXUXUXUXUXUXUXUXUXUXUXUXUXZ iXhXhXhXsXsXXX|.[.[./._.(.^.~.^.C.N.C.N.N.l.l.h.h.f.p.i.i.p.p.F.H.G.x 6   UXUXUXUXUXUXUXUXUXUXUXUXUXUXUXUXUXUXUXUXUXUXUXUX",
"UXUXUXUXUXUXUXUXUXUXUXUXUXUXUXUXUXUXUXZ jXzXhXdXXXXXOX'.'._././.~.~.C.C.C.C.M.M.l.m.m.h.g.d.f.w.w.8.i.i.i.y.A.F.G.s     UXUXUXUXUXUXUXUXUXUXUXUXUXUXUXUXUXUXUXUXUXUX",
"UXUXUXUXUXUXUXUXUXUXUXUXUXUXUXUXUXZ jXhXhXlXsX7XOX X[.'.)./.Z.Z.C.C.N.V.M.M.M.m.m.h.g.g.d.d.w.w.q.8.8.5.t.i.t.A.F.z x 6   UXUXUXUXUXUXUXUXUXUXUXUXUXUXUXUXUXUXUXUXUX",
"UXUXUXUXUXUXUXUXUXUXUXUXUXUXUXUXZ jXJXzXlXoXoX X|.|.]./.~.Z.Z.Z.C.M.M.M.h.m.h.g.g.g.h.d.g.f.w.q.q.0.7.7.6.6.t.t.y.f F.F.p   UXUXUXUXUXUXUXUXUXUXUXUXUXUXUXUXUXUXUXUX",
"UXUXUXUXUXUXUXUXUXUXUXUXUXUXUXA jXJXlXlXoXoX X|.[.]././.Z.Z.V.Z.M.h.g.g.g.g.g.d.g.d.d.d.d.d.w.q.q.7.7.7.5.<.5.6.4.y.d h z i   UXUXUXUXUXUXUXUXUXUXUXUXUXUXUXUXUXUXUX",
"UXUXUXUXUXUXUXUXUXUXUXUXUXUXA jXJXlXkXoXoX X|.'.]./.~.~.Z.m.M.m.g.g.d.d.d.d.d.d.d.d.d.d.d.w.w.q.q.7.7.5.5.5.6.3.4.4.w r h z i   UXUXUXUXUXUXUXUXUXUXUXUXUXUXUXUXUXUX",
"UXUXUXUXUXUXUXUXUXUXUXUXUXA jXJXKXkXoXoX|.|.'.]./.~.C.C.Z.M.g.g.d.d.d.d.d.d.d.w.w.w.w.d.w.w.q.q.q.7.7.5.5.5.<.6.3.3.9 q y.h z p   UXUXUXUXUXUXUXUXUXUXUXUXUXUXUXUXUX",
"UXUXUXUXUXUXUXUXUXUXUXUXA jXJXKXkXoXoX X[.[./././.~.Q.Q.wXwXqXwXwXQ.V.e.w.w.w.w.w.w.w.w.w.w.q.q.0.0.7.7.1.1.1.1.<.<.8 8 8 e j l p   UXUXUXUXUXUXUXUXUXUXUXUXUXUXUXUX",
"UXUXUXUXUXUXUXUXUXUXUXZ jXJXlXkXoXoX X[.]././.~.Q.qXGXPXPXPXPXPXIXIXCXeXW.w.q.q.q.q.w.w.w.w.q.0.0.7.7.7.1.1.1.1.,.,.8 8 8 9 r h l p   UXUXUXUXUXUXUXUXUXUXUXUXUXUXUX",
"UXUXUXUXUXUXUXUXUXUXUXjXJXKXFXkXoX X[.'./.~.~.Y CXPXPXIXIXHXHXGXGXGXGXGXmXY m.q.q.q.w.w.w.q.q.q.0.0.7.7.5.c.1.1.<.,.8 8 8 9 q r l z 6   UXUXUXUXUXUXUXUXUXUXUXUXUXUX",
"UXUXUXUXUXUXUXUXUXUXA JXJXFXwX6X X|.'././.Z.T HXIXHXHXHXHXGXGXGXCXCXVXVXVXVXP j.q.q.q.w.w.q.q.q.q.q.7.7.5.5.5.1.<.<.,.,.8 8 8 w d l s     UXUXUXUXUXUXUXUXUXUXUXUXUX",
"UXUXUXUXUXUXUXUXUXA jXJXFXkXwX X|.[./.~.Z.Y CXHXGXGXGXGXGXCXCXCXAXAXmXmXeXmX0XY g.0.0.q.q.q.q.0.0.0.0.7.7.7.5.5.1.,.,.,.8 8 8 8 w g l i   UXUXUXUXUXUXUXUXUXUXUXUXUX",
"UXUXUXUXUXUXUXUXUXiXJXKXkX7X5X X[.)./.~.Q.0XGXGXGXCXCXCXCXCXVXVXAXMXmXmXMX0XT T V 0.0.0.q.q.0.0.0.0.7.7.7.5.5.5.1.1.,.,.8 8 8 8 9 r h z o   UXUXUXUXUXUXUXUXUXUXUXUX",
"UXUXUXUXUXUXUXUXS zXKXkXoXoX X[.]./.Z./.P GXZXZXVXVXCXVXVXVXVXmXmXqXqX0XE E W T H V.0.0.0.0.0.0.7.0.7.7.5.7.5.5.1.1.1.,.,.8 8 8 9 w d z s     UXUXUXUXUXUXUXUXUXUXUX",
"UXUXUXUXUXUXUXUXjXJXFXBXoX X[.'./.~.M.V 0XVXVXVXVXVXVXmXmXmXmXmXqXqX0X0XE :.R W P H w.0.0.0.7.0.q.0.7.0.7.5.7.5.1.1.1.,.,.,.,.8 8 9 e h z 6   UXUXUXUXUXUXUXUXUXUXUX",
"UXUXUXUXUXUXUXA zXKXkXoXOX|.[./.~.C.~.H mXmXmXMXmXqXmXqXMX>.MXqX0X0X0XE I %.%.U L ! j.0.0.0.0.0.0.0.0.0.7.7.7.7.1.1.7.1.1.1.,.,.3.9 q d l s     UXUXUXUXUXUXUXUXUXUX",
"UXUXUXUXUXUXUXiXzXzXkXoXOX[.)./.C.C.W.H eXmXmXeXqXqX0XmXMX>.MXE E E R W W V B B u u C.Z.Y.Y.Y.Y.Y.Y.*XY.Y.Z.Y.Y.B.B.B.B.g.1.,.,.3.8 q e h z o   UXUXUXUXUXUXUXUXUXUX",
"UXUXUXUXUXUXZ jXzXkXoX X[.]./.~.C.M.V P 0X:.0X0X0X0X0X:.E E E E E R R W d.c.c.c.@X@X@X#X#X%X-X-X;X-X-X%X#X#Xb.b.x.x.c.c.c.m.1.,.3.3.4.w f z s     UXUXUXUXUXUXUXUXUX",
"UXUXUXUXUXUXS zXlXkXOX.X[.).~.C.M.g.V P :.>.:.E E E E E R :.R I I I I W c.x.x.x.n.b.b.#X%X$X-X>X>X>X;X-X%X#X#Xb.@Xn.x.x.c.B.1.,.,.3.3.q y.l h     UXUXUXUXUXUXUXUXUX",
"UXUXUXUXUXUXjXhXdXoX X|.]./.Z.C.m.g.D H W R W W W E R R I %.%.%.%.I K V.c.c.x.n.n.@X#X#X%X-X;X>X>XcX>X-X$X%X#X@Xb.n.x.x.c.x.e.1.,.,.3.9 e g l 6     UXUXUXUXUXUXUXUX",
"UXUXUXUXUXZ hXzXsXoX|.'./.~.C.M.m.e.V H W I W W W W I I %.%.o.%.o.U K 2.9.2.2.2.2.r.u.i.a.a.a.a.a.p.a.a.a.u.u.r.2.r.2.2.9.9.M.5.<.,.3.4.q f l s     UXUXUXUXUXUXUXUX",
"UXUXUXUXUXZ hXdX7XOX|.)./.C.C.m.g.g.V F P Q U W U U U %.o.G } [ G G 5 N.8X8X8X8X8X7X7X7X5X X.X.X|.[.{.{.].]._._.).(.(.(._.^.l.1.<.,.3.9 q r l j     UXUXUXUXUXUXUXUX",
"UXUXUXUXUXiXhXdXXX|.'./.Z.C.M.g.e.e.V.! F L L J J J K G [ [ [ [ [ [ u 8XLXLXLXLXDXDX8X8X8X8X7X6X6X5X5X5X3X{.{._._.`.(.(.I._.f.1.<.,.,.3.4.e h l O     UXUXUXUXUXUXUX",
"UXUXUXUXm iXhXdXOX[.]./.C.C.M.g.w.e.h.F F [ G J J K K } [ { { { [ [ m 4XLXDXDXDXkX8X8X8X6X6X5X5X5X5X{.{.{.`._.(.(.I.(.S.S.S.z.5.<.<.,.3.9 w g l 6     UXUXUXUXUXUXUX",
"UXUXUXUXn fXhXsX.X[.).~.C.M.g.g.w.e.0.D F G G L K K G [ ..{ ....{ [ 5 1XDXDX8X8X8X8X9X9X6X6X5X5X3X3X2X{.`.`.`.(.^.I.S.S.S.z.j.5.<.<.,.,.8 w g z i     UXUXUXUXUXUXUX",
"UXUXUXUXn gXdXXX.X'./.~.C.m.h.d.w.w.0.M.F H J J K G } { ........{ { 5 B DX8X8X8XsX9X6X6X9X5X5X5X3X{.2X{.`.`.`.(.I.S.S.S.k.t.k.5.1.<.,.8 8 q d z a     UXUXUXUXUXUXUX",
"UXUXUXUXn gXfXXX|._./.Z.C.m.g.d.w.q.7.1.Q.F J J J K K } { ......{ } < > B 8X7X6X6X6X5X5X5X3X3X2X2X2X<X`.`.(.Y.I.I.S.k.k.k.t.l.1.<.,.,.,.8 q d l j     UXUXUXUXUXUXUX",
"UXUXUXUXn hXdXXX[.).~.^.M.M.g.d.w.q.0.7.e.Y Q W I I I o.@.@.@.@.@.> 3 #.2 W.8X6X5X5X4X5X4X3X3X2X2X`.`.`.T.Y.Y.I.S.S.k.z.z.t l.,.5.<.,.8 8 q r l j       UXUXUXUXUXUX",
"UXUXUXUXn gXdXXX'._.~.C.M.h.d.d.w.q.0.0.5.e.Y W E :.:.:.>.>.>.>.4 = vXnXN $ _.9X5X4X3X3X3X2X2X2X<X<X*X`.T.T.Y.I.P.P.k.z.z.t i.<.<.<.,.,.8 q r h h       UXUXUXUXUXUX",
"UXUXUXUXM gXsX{.]./.~.C.M.g.g.w.w.0.0.7.5.7./.P MXVXmXMXMXAXAX3 = N BXBXA - * {.4X3X3X2X2X2X<X<X<X<XT.T.Y.Y.P.P.P.k.k.i.q 0 f.<.<.<.,.,.3.q r l h       UXUXUXUXUXUX",
"UXUXUXUXn gXaX.X_./.^.C.M.h.g.d.w.0.0.0.0.0.8XW.D T MXAXAXAXN = < NXBXBXbXS = & 3X3X2X2X2X<X<X<X<XT.*XY.T.U.P.P.P.p.p.y.0 0 h.<.<.,.,.3.8 9 r h h       UXUXUXUXUXUX",
"UXUXUXUXn gXaX{._./.~.M.m.h.g.d.w.q.q.0.0.0.8XDXOXV V T :.' = : !.BXBXBXBX!.4 $ b 2X2X2X<X<X<X<X*X*X*X*XU.U.L.P.P.p.a.r.0 0 h.5.5.<.,.,.8 9 r l h       UXUXUXUXUXUX",
"UXUXUXUXm fXsX{._.~.^.C.M.m.g.d.w.w.q.q.0.0.Z.DXLXkX7XoXC = ; ` NXBXBXBXBXNXA > $ v 1X<X1X*X*X*X*X&XY.U.U.L.P.P.p.a.r.2.2.0 m.5.5.<.,.,.8 q d l j       UXUXUXUXUXUX",
"UXUXUXUXb fXfX{._./.^.C.M.h.g.d.d.w.q.0.q.0.e.W.oXFX8X!.- ; ) !.BXBXBXNXBXBXA N ; $ v =X*X<X*X*X*X*XU.&XU.U.P.v.n.u.u.r.r.0 m.5.5.<.,.3.9 q f l k       UXUXUXUXUXUX",
"UXUXUXUX+ fXaX}._./.C.C.M.h.g.d.d.w.w.q.q.0.0.g.s.^.Q.- ; ~ S oXBXBXNXNXNXbXNXZ 4 ; * D.=X*X*X:X&X&X&X&X&XL.K.a.u.u.u.u.2.2.m.5.<.<.3.3.3.w f l a       UXUXUXUXUXUX",
"UXUXUXUX+ pXpX}._.^.^.C.M.m.g.g.d.w.w.w.w.0.w.0.8.h.% ; , 3 !.BXNXbXbXbXbXbXiX!.M < = % D.=X&X&X*X&X&X&XL.K.K.v.v.u.u.r.r.0 m.5.5.,.,.3.9 w g l i       UXUXUXUXUXUX",
"UXUXUXUX+ C fX}._.^.N.N.M.g.g.g.d.d.w.w.0.w.q.w.w.n ; , ) Z bXbXbXbXbXbX!.!.!.!.M N : = % R.=X:X&X-X$X%X#XK.K.v.v.v.u.u.r.r.8.5.<.<.3.3.9 e h l 6       UXUXUXUXUXUX",
"UXUXUXUXUXC fX}.(.(.Z.C.M.m.g.g.d.d.w.w.w.q.q.w.b = : / N A bXbXvXvXvXiXT iXA A S 2 3 ; = % &X-X$X$X$X%X#XK.K.v.v.v.u.u.r.t.8.6.<.,.3.3.9 r h h O     UXUXUXUXUXUXUX",
"UXUXUXUXUX+ pXaX_.^.C.M.M.h.g.g.d.d.w.w.w.w.w.u = : ~ 3 Z !.vXvXvXvX-.] ] ] ' S A M 2 < ; $ & $X-X-X$X$X$X#XK.b.v.v.v.u.r.u.w.5.,.,.3.4.q d l g       UXUXUXUXUXUXUX",
"UXUXUXUXUX+ tXaX}.(.C.N.l.M.g.g.d.d.d.w.w.q.B = ; ~ ) 2 A vXvX-.-.iX;.] ' ' ' T S S 1 4 , ; * & ;X-X-X$X$X$XK.K.v.v.u.u.r.i.q.5.<.,.4.4.w g l a       UXUXUXUXUXUXUX",
"UXUXUXUXUX@ c pX}.(.^.N.l.M.h.h.h.d.w.w.w.d.- ; ~ ^ 2 S -.] -.;.;.;.=.=.' ' _ N N N 4 1 ) : = * D.>X;X-X$XK.K.K.v.v.v.u.r.a.7.5.,.,.3.q e h l 6       UXUXUXUXUXUXUX",
"UXUXUXUXUXUX+ pXE.(.I.C.M.m.h.g.d.d.w.w.w.l.; , ^ < 2 ] -.;.;.=.=.=.=._ =._ N $._ N N - 2 ~ : = v cX;X-X$X$XK.K.K.v.v.a.r.p.8.<.,.3.4.q d l g         UXUXUXUXUXUXUX",
"UXUXUXUXUXUX@ rXtX}.S.N.M.h.h.d.d.d.w.q.q.W., ^ / 2 ' ] ' ' $.=.$.$.$.*.*.*.#.#.) ` 4 ; * 3 ~ > - xXxX,X,X,X:X&X*XR.U.U.P.B.5.<.3.3.9 e h l a       UXUXUXUXUXUXUXUX",
"UXUXUXUXUXUXX c tXE.R.N.h.h.g.g.d.w.w.w.0.C ~ | < M ' _ _ $.$.$.*.*.*.*.#.#.X.#.) 3 < ; = - / ~ : :X:X:X:XR.&XU.L.P.P.k.y.s.1.<.3.4.q r l h o       UXUXUXUXUXUXUXUX",
"UXUXUXUXUXUXUX@ tXpXD.N.l.h.g.d.d.w.w.q.e.) ( < 1 _ _ _ _ *.#.&.*.&.&.&.&.O.X.X.X./ , ; = * > ^ , v k.s.s.s.s.s.s.s.y s.y j.<.<.3.9 e g z a         UXUXUXUXUXUXUXUX",
"UXUXUXUXUXUXUXX c tXE.D.m.m.f.d.d.w.e.0.l.( / * 3 N ` ` ` #.&.&.O.O.O.O.O.+.+./ ^ ~ , : ; = $ < ^ W.8.7.8.7.5.7.6.5.5.<.,.<.3.3.9 q y.l g 6       UXUXUXUXUXUXUXUXUX",
"UXUXUXUXUXUXUXUXX G.rXD.S.k.f.d.w.q.0.8.W.| = 2 N 3 ` ) X.O.X.O.O.O.O.+.+. .| ( ^ ~ , : ; = $ $ ^ C 5.5.7.5.5.5.5.<.<.<.<.<.3.4.9 e h z a         UXUXUXUXUXUXUXUXUX",
"UXUXUXUXUXUXUXUXX v tXJ.D.k.f.f.q.q.0.7.S ; % 2 4 3 ) ) ) +.+.+. . . .| | | | ( ^ ^ , , ; = $ $ = ` 7.7.7.1.5.1.5.<.,.,.,.3.8 9 w d z g o       UXUXUXUXUXUXUXUXUXUX",
"UXUXUXUXUXUXUXUXUX. z rXJ.k.f.w.8.7.8.q.3 $ - 2 < < / / ^ ^ | |  . .| | |  .| | ( ~ ~ : ; ; * $ $ < w.5.1.1.1.5.<.<.,.,.3.3.8 q r h l i         UXUXUXUXUXUXUXUXUXUX",
"UXUXUXUXUXUXUXUXUXUXX G.J.D.p.i.8.7.7.j.- $ * = ; ; , ~ ^ (  .|  . . . . . . .( ^ / ~ , : ; * $ $ * M.5.5.5.<.<.<.,.,.,.3.8 q e g l a         UXUXUXUXUXUXUXUXUXUXUX",
"UXUXUXUXUXUXUXUXUXUX. s yXJ.A.i.i.8.5.w.B Z Z Z S S ' ' -.;.=.=.>.=.=.=.=.=.=.=.;.;.;.S S S Z Z M m d.5.5.5.<.,.,.,.3.8 9 q w g l F.6         UXUXUXUXUXUXUXUXUXUXUX",
"UXUXUXUXUXUXUXUXUXUXUX. x yXH.A.i.8.6.5.w.l.l.j.l.M.l.j.h.M.l.M.M.M.h.m.(.l.l.l.m.m.h.h.m.h.h.h.m.g.5.1.<.<.<.,.8 8 8 8 9 w f z h 7         UXUXUXUXUXUXUXUXUXUXUXUX",
"UXUXUXUXUXUXUXUXUXUXUXUX. s H.F.y.i.8.4.<.<.1.1.<.1.1.7.5.1.1.1.1.5.5.1.t.5.5.5.5.5.7.7.5.7.5.7.5.1.5.5.,.,.,.,.8 8 8 9 w f l h i         UXUXUXUXUXUXUXUXUXUXUXUXUX",
"UXUXUXUXUXUXUXUXUXUXUXUXUX  s G.F.p.t.6.6.3.<.6.1.1.1.1.1.1.1.1.5.5.1.1.5.5.5.5.5.5.5.5.5.7.1.1.1.5.5.<.,.,.,.8 8 8 9 e f l h p         UXUXUXUXUXUXUXUXUXUXUXUXUXUX",
"UXUXUXUXUXUXUXUXUXUXUXUXUXUX  s G.F.A.t.t.6.,.,.,.,.1.1.1.1.1.1.1.<.<.1.<.5.5.5.5.5.5.1.1.1.1.1.<.<.,.,.,.,.8 8 9 9 e g l h 7           UXUXUXUXUXUXUXUXUXUXUXUXUXUX",
"UXUXUXUXUXUXUXUXUXUXUXUXUXUXUX  s G.F.A.y.4.4.3.3.3.3.<.,.,.<.<.,.,.,.<.<.<.,.<.<.1.1.1.<.5.<.<.,.,.3.3.3.3.9 9 w r j l j 7           UXUXUXUXUXUXUXUXUXUXUXUXUXUXUX",
"UXUXUXUXUXUXUXUXUXUXUXUXUXUXUXUX  i G.z h y.y.4.4.3.3.3.,.,.,.,.,.,.,.,.,.<.,.,.<.<.<.<.<.,.,.,.,.,.3.3.9 9 q e f h l g 7           UXUXUXUXUXUXUXUXUXUXUXUXUXUXUXUX",
"UXUXUXUXUXUXUXUXUXUXUXUXUXUXUXUXUX  6 x G.l f y.t.4.4.3.3.3.3.3.,.,.,.8 ,.,.,.,.,.,.,.,.3.3.3.3.3.8 9 9 q w d j l h a 6           UXUXUXUXUXUXUXUXUXUXUXUXUXUXUXUXUX",
"UXUXUXUXUXUXUXUXUXUXUXUXUXUXUXUXUXUX    i F.z h f e w q 9 9 8 8 8 8 8 8 ,.8 ,.,.8 ,.,.,.3.3.3.4.9 q q w r g l l g i             UXUXUXUXUXUXUXUXUXUXUXUXUXUXUXUXUXUX",
"UXUXUXUXUXUXUXUXUXUXUXUXUXUXUXUXUXUXUX    o s F.z h f y.e q q 9 9 9 8 9 8 8 3.3.8 8 3.4.9 9 9 q w r d g l l h a o           UXUXUXUXUXUXUXUXUXUXUXUXUXUXUXUXUXUXUXUX",
"UXUXUXUXUXUXUXUXUXUXUXUXUXUXUXUXUXUXUXUXUX    6 j l z l g f r e w w q q 9 q q q 9 8 q w w e r f g h l z j k 6             UXUXUXUXUXUXUXUXUXUXUXUXUXUXUXUXUXUXUXUXUX",
"UXUXUXUXUXUXUXUXUXUXUXUXUXUXUXUXUXUXUXUXUXUX      o s l z z l h g f d d r r r r r r d f g h l l z l g a o               UXUXUXUXUXUXUXUXUXUXUXUXUXUXUXUXUXUXUXUXUXUX",
"UXUXUXUXUXUXUXUXUXUXUXUXUXUXUXUXUXUXUXUXUXUXUXUX        6 a k l l z l l l l l h l l z z z l h f a 6                 UXUXUXUXUXUXUXUXUXUXUXUXUXUXUXUXUXUXUXUXUXUXUXUX",
"UXUXUXUXUXUXUXUXUXUXUXUXUXUXUXUXUXUXUXUXUXUXUXUXUXUX          O 6 i a k k h h h j k k a 7 6 O                   UXUXUXUXUXUXUXUXUXUXUXUXUXUXUXUXUXUXUXUXUXUXUXUXUXUX",
"UXUXUXUXUXUXUXUXUXUXUXUXUXUXUXUXUXUXUXUXUXUXUXUXUXUXUXUX                                                    UXUXUXUXUXUXUXUXUXUXUXUXUXUXUXUXUXUXUXUXUXUXUXUXUXUXUXUX",
"UXUXUXUXUXUXUXUXUXUXUXUXUXUXUXUXUXUXUXUXUXUXUXUXUXUXUXUXUXUXUX                                        UXUXUXUXUXUXUXUXUXUXUXUXUXUXUXUXUXUXUXUXUXUXUXUXUXUXUXUXUXUXUX",
"UXUXUXUXUXUXUXUXUXUXUXUXUXUXUXUXUXUXUXUXUXUXUXUXUXUXUXUXUXUXUXUXUXUXUXUX                    UXUXUXUXUXUXUXUXUXUXUXUXUXUXUXUXUXUXUXUXUXUXUXUXUXUXUXUXUXUXUXUXUXUXUXUX",
"UXUXUXUXUXUXUXUXUXUXUXUXUXUXUXUXUXUXUXUXUXUXUXUXUXUXUXUXUXUXUXUXUXUXUXUXUXUXUXUXUXUXUXUXUXUXUXUXUXUXUXUXUXUXUXUXUXUXUXUXUXUXUXUXUXUXUXUXUXUXUXUXUXUXUXUXUXUXUXUXUXUX",
"UXUXUXUXUXUXUXUXUXUXUXUXUXUXUXUXUXUXUXUXUXUXUXUXUXUXUXUXUXUXUXUXUXUXUXUXUXUXUXUXUXUXUXUXUXUXUXUXUXUXUXUXUXUXUXUXUXUXUXUXUXUXUXUXUXUXUXUXUXUXUXUXUXUXUXUXUXUXUXUXUXUX",
"UXUXUXUXUXUXUXUXUXUXUXUXUXUXUXUXUXUXUXUXUXUXUXUXUXUXUXUXUXUXUXUXUXUXUXUXUXUXUXUXUXUXUXUXUXUXUXUXUXUXUXUXUXUXUXUXUXUXUXUXUXUXUXUXUXUXUXUXUXUXUXUXUXUXUXUXUXUXUXUXUXUX",
"UXUXUXUXUXUXUXUXUXUXUXUXUXUXUXUXUXUXUXUXUXUXUXUXUXUXUXUXUXUXUXUXUXUXUXUXUXUXUXUXUXUXUXUXUXUXUXUXUXUXUXUXUXUXUXUXUXUXUXUXUXUXUXUXUXUXUXUXUXUXUXUXUXUXUXUXUXUXUXUXUXUX",
"UXUXUXUXUXUXUXUXUXUXUXUXUXUXUXUXUXUXUXUXUXUXUXUXUXUXUXUXUXUXUXUXUXUXUXUXUXUXUXUXUXUXUXUXUXUXUXUXUXUXUXUXUXUXUXUXUXUXUXUXUXUXUXUXUXUXUXUXUXUXUXUXUXUXUXUXUXUXUXUXUXUX",
"UXUXUXUXUXUXUXUXUXUXUXUXUXUXUXUXUXUXUXUXUXUXUXUXUXUXUXUXUXUXUXUXUXUXUXUXUXUXUXUXUXUXUXUXUXUXUXUXUXUXUXUXUXUXUXUXUXUXUXUXUXUXUXUXUXUXUXUXUXUXUXUXUXUXUXUXUXUXUXUXUXUX"
};
