/* XPM */
static char *Free_Converter_com_btn_objet_1_93230901[] = {
/* columns rows colors chars-per-pixel */
"82 82 256 2 ",
"   c #000C0E",
".  c #001214",
"X  c #00171A",
"o  c #000E10",
"O  c #00252A",
"+  c #003037",
"@  c #343F00",
"#  c #3B4703",
"$  c #3B4716",
"%  c #35492F",
"&  c #485902",
"*  c #45510C",
"=  c #546802",
"-  c #5C7402",
";  c #546612",
":  c #637C03",
">  c #64751A",
",  c #4F562B",
"<  c #576432",
"1  c #697836",
"2  c #695033",
"3  c #003B44",
"4  c #011776",
"5  c #18267B",
"6  c #4B3960",
"7  c #01434C",
"8  c #084A54",
"9  c #016675",
"0  c #00606E",
"q  c #255867",
"w  c #494C4E",
"e  c #5D6452",
"r  c #6B754F",
"t  c #524E7B",
"y  c #724F71",
"u  c #6F746C",
"i  c #645967",
"p  c #954D0A",
"a  c #AA7912",
"s  c #924E32",
"d  c #A45C32",
"f  c #A96D30",
"g  c #A05D18",
"h  c #90594E",
"j  c #AB785A",
"k  c #AA7051",
"l  c #835568",
"z  c #956E6C",
"x  c #AA7869",
"c  c #AA7A78",
"v  c #A76D69",
"b  c #9E6451",
"n  c #963F00",
"m  c #6B8702",
"M  c #789705",
"N  c #728C16",
"B  c #758A31",
"V  c #7FA200",
"C  c #788850",
"Z  c #7C8768",
"A  c #7D8478",
"S  c #B18B04",
"D  c #B09901",
"F  c #AD8C0B",
"G  c #86AB03",
"H  c #8BAF10",
"J  c #B0A300",
"K  c #839B35",
"L  c #AD8B35",
"P  c #8DA938",
"I  c #89A827",
"U  c #AFA430",
"Y  c #849947",
"T  c #869858",
"R  c #AE8750",
"E  c #8CA449",
"W  c #87966A",
"Q  c #828A78",
"!  c #85936B",
"~  c #AB8E72",
"^  c #ADA365",
"/  c #170F86",
"(  c #170F88",
")  c #180F8C",
"_  c #051886",
"`  c #161383",
"'  c #161B83",
"]  c #18118E",
"[  c #17178A",
"{  c #1C1393",
"}  c #1B1B94",
"|  c #000D84",
" . c #201795",
".. c #221A96",
"X. c #261D98",
"o. c #291E94",
"O. c #03248C",
"+. c #162383",
"@. c #152B84",
"#. c #17288B",
"$. c #153786",
"%. c #052B96",
"&. c #192895",
"*. c #183899",
"=. c #0D3699",
"-. c #2B239B",
";. c #282799",
":. c #332C9E",
">. c #31289C",
",. c #283899",
"<. c #37339B",
"1. c #323486",
"2. c #0116A9",
"3. c #000DAA",
"4. c #0737A8",
"5. c #0538B8",
"6. c #092FAD",
"7. c #352EA1",
"8. c #3B33A2",
"9. c #3737A4",
"0. c #2E38AB",
"q. c #4B3992",
"w. c #433BA6",
"e. c #463EAD",
"r. c #154989",
"t. c #15568A",
"y. c #165295",
"u. c #35479B",
"i. c #15678C",
"p. c #00798B",
"a. c #007485",
"s. c #16758C",
"d. c #156796",
"f. c #157B94",
"g. c #007A8C",
"h. c #0C46B9",
"j. c #1A51AA",
"k. c #2846A8",
"l. c #3848A6",
"z. c #284BB7",
"x. c #394BB9",
"c. c #3953BA",
"v. c #2D57B2",
"b. c #186FA6",
"n. c #3270B2",
"m. c #2E7187",
"M. c #544D90",
"N. c #75778B",
"B. c #4B44AA",
"V. c #4747A9",
"C. c #534CAD",
"Z. c #4953AC",
"A. c #5453AE",
"S. c #4959B6",
"D. c #5A58B2",
"F. c #625EB5",
"G. c #5864B7",
"H. c #4E70B6",
"J. c #6667B9",
"K. c #6974BD",
"L. c #7174BB",
"P. c #715892",
"I. c #0039C3",
"U. c #0B49C3",
"Y. c #1359C9",
"T. c #0F55C9",
"R. c #2959C7",
"E. c #385BC7",
"W. c #375FD7",
"Q. c #1767D4",
"!. c #1B6ED8",
"~. c #336AD0",
"^. c #2378E4",
"/. c #465DC5",
"(. c #495DD1",
"). c #5866C6",
"_. c #4F62C8",
"`. c #646DC8",
"'. c #6B74CA",
"]. c #7378C7",
"[. c #787AD4",
"{. c #666FD5",
"}. c #A77A87",
"|. c #A77E94",
" X c #947CA9",
".X c #937197",
"XX c #00869A",
"oX c #15849B",
"OX c #168699",
"+X c #328895",
"@X c #068CA5",
"#X c #158AA5",
"$X c #0195AB",
"%X c #0299AE",
"&X c #1595AB",
"*X c #019DB4",
"=X c #0A9AB4",
"-X c #1599B5",
";X c #1988B3",
":X c #3296AF",
">X c #00A2BA",
",X c #08A4B9",
"<X c #14A4BA",
"1X c #33A1B1",
"2X c #798690",
"3X c #5488B8",
"4X c #57ABB7",
"5X c #6FABB4",
"6X c #59939C",
"7X c #15ABC2",
"8X c #05B7CB",
"9X c #16B6CA",
"0X c #07B6CB",
"qX c #32AFCB",
"wX c #3193CE",
"eX c #5392C3",
"rX c #7687C5",
"tX c #7998CA",
"yX c #688EC5",
"uX c #4FAFCE",
"iX c #72B1D1",
"pX c #4284EA",
"aX c #0AC4D6",
"sX c #1AC5D7",
"dX c #2DC9DA",
"fX c #35D4E2",
"gX c #51C9D9",
"hX c #70CBDC",
"jX c #4AD7E4",
"kX c #5ADAE6",
"lX c #77DAE5",
"zX c #6AD8E5",
"xX c #79E1EB",
"cX c #69E1EA",
"vX c #818687",
"bX c #828399",
"nX c #8E9592",
"mX c #A9859B",
"MX c #AB8E8C",
"NX c #8685A7",
"BX c #8B8BB3",
"VX c #AA8AA9",
"CX c #AC92B9",
"ZX c #AB90B1",
"AX c #AFA4A6",
"SX c #8484D8",
"DX c #8C88D2",
"FX c #AD97C8",
"GX c #AF9DD5",
"HX c #81B7D7",
"JX c #9190E6",
"KX c #B3A8EC",
"LX c #B1A1DD",
"PX c #83D8E7",
"IX c #83D6E6",
"UX c None",
/* pixels */
"UXUXUXUXUXUXUXUXUXUXUXUXUXUXUXUXUXUXUXUXUXUXUXUXUXUXUXUXUXUXUXUXUXUXUXUXUXUXUXUXUXUXUXUXUXUXUXUXUXUXUXUXUXUXUXUXUXUXUXUXUXUXUXUXUXUXUXUXUXUXUXUXUXUXUXUXUXUXUXUXUXUX",
"UXUXUXUXUXUXUXUXUXUXUXUXUXUXUXUXUXUXUXUXUXUXUXUXUXUXUXUXUXUXUXUXUXUXUXUXUXUXUXUXUXUXUXUXUXUXUXUXUXUXUXUXUXUXUXUXUXUXUXUXUXUXUXUXUXUXUXUXUXUXUXUXUXUXUXUXUXUXUXUXUXUX",
"UXUXUXUXUXUXUXUXUXUXUXUXUXUXUXUXUXUXUXUXUXUXUXUXUXUXUXUXUXUXUXUXUXUXUXUXUXUXUXUXUXUXUXUXUXUXUXUXUXUXUXUXUXUXUXUXUXUXUXUXUXUXUXUXUXUXUXUXUXUXUXUXUXUXUXUXUXUXUXUXUXUX",
"UXUXUXUXUXUXUXUXUXUXUXUXUXUXUXUXUXUXUXUXUXUXUXUXUXUXUXUXUXUXUXUXUXUXUXUXUXUXUXUXUXUXUXUXUXUXUXUXUXUXUXUXUXUXUXUXUXUXUXUXUXUXUXUXUXUXUXUXUXUXUXUXUXUXUXUXUXUXUXUXUXUX",
"UXUXUXUXUXUXUXUXUXUXUXUXUXUXUXUXUXUXUXUXUXUXUXUXUXUXUXUXUXUXUXUXUXm.+X:X1X1X1X:X:X+XOXs.q 8 UXUXUXUXUXUXUXUXUXUXUXUXUXUXUXUXUXUXUXUXUXUXUXUXUXUXUXUXUXUXUXUXUXUXUXUX",
"UXUXUXUXUXUXUXUXUXUXUXUXUXUXUXUXUXUXUXUXUXUXUXUXUXUXUXUXUX6X4XuXgXjXkXjXjXjXkXjXjXfXfXdXdXsX<X@X9 3 UXUXUXUXUXUXUXUXUXUXUXUXUXUXUXUXUXUXUXUXUXUXUXUXUXUXUXUXUXUXUXUX",
"UXUXUXUXUXUXUXUXUXUXUXUXUXUXUXUXUXUXUXUXUXUXUXUXUXUX6X4XgXkXkXkXhXgXgXuXuXuX4XwXuXqXuXqXdXdXdXdXdX0X@X9 3 UXUXUXUXUXUXUXUXUXUXUXUXUXUXUXUXUXUXUXUXUXUXUXUXUXUXUXUXUX",
"UXUXUXUXUXUXUXUXUXUXUXUXUXUXUXUXUXUXUXUXUXUXUXUX4XhXcXcXzXhXuXiXeXeX3XH.H.H.H.H.H.n.n.n.n.n.:X7X9XdXsXaX0Xa.7 UXUXUXUXUXUXUXUXUXUXUXUXUXUXUXUXUXUXUXUXUXUXUXUXUXUXUX",
"UXUXUXUXUXUXUXUXUXUXUXUXUXUXUXUXUXUXUXUXUXUX5XzXcXcXzXiXuXyX'.J.K.H.S.A.Z.V.Z.V.l.V.l.l.k.v.k.v.n.b.<X9XsXaX8Xp.3 UXUXUXUXUXUXUXUXUXUXUXUXUXUXUXUXUXUXUXUXUXUXUXUXUX",
"UXUXUXUXUXUXUXUXUXUXUXUXUXUXUXUXUXUXUXUX6XlXcXlXhXiXyXyXK.J.D.F.Z.A.Z.V.V.V.9.l.9.9.9.0.7.0.,.,.k.k.j.b.;X7XsXaX8X9 UXUXUXUXUXUXUXUXUXUXUXUXUXUXUXUXUXUXUXUXUXUXUXUX",
"UXUXUXUXUXUXUXUXUXUXUXUXUXUXUXUXUXUXUX5XxXxXlXiXtXyXK.G.F.D.C.C.V.B.B.w.w.w.8.8.8.7.7.:.:.;.;.;.&.&.&.*.j.d.;X<XsXaX@X3 UXUXUXUXUXUXUXUXUXUXUXUXUXUXUXUXUXUXUXUXUXUX",
"UXUXUXUXUXUXUXUXUXUXUXUXUXUXUXUXUX6XlXxXIXiXtXrXK.J.J.D.A.C.C.e.B.w.8.8.8.8.8.7.:.:.>.>.-.;.X.X.....} } &.*.y.b.&X7XaX8X9 UXUXUXUXUXUXUXUXUXUXUXUXUXUXUXUXUXUXUXUXUX",
"UXUXUXUXUXUXUXUXUXUXUXUXUXUXUXUX5XxXxXIXiXtX].L.J.G.F.A.B.e.e.e.8.8.8.7.7.7.7.>.>.>.-.-.>.-.X..... .{ } } #.&.*.y.b.<XaX8Xg.UXUXUXUXUXUXUXUXUXUXUXUXUXUXUXUXUXUXUXUX",
"UXUXUXUXUXUXUXUXUXUXUXUXUXUXUX5XxXxXHXiXrXL.K.J.F.D.A.B.e.e.q.8.8.<.7.>.>.>.>.-.>.-.-.-.-.-.X... .{ { { { [ [ #.$.y.d.-X9XaXXXUXUXUXUXUXUXUXUXUXUXUXUXUXUXUXUXUXUXUX",
"UXUXUXUXUXUXUXUXUXUXUXUXUXUX5XxXPXHXtXrXL.K.F.F.D.C.B.B.e.7.8.7.>.>.-.-.-.-.-.-.;.-.-.-.-.-.....{ { { { ] ] [ [ } @.*.y.&X7XaXXXUXUXUXUXUXUXUXUXUXUXUXUXUXUXUXUXUXUX",
"UXUXUXUXUXUXUXUXUXUXUXUXUX5XxXPXHXtXrXL.K.J.F.A.C.B.e.w.e.7.7.>.-.-.-.X.-.X.-.X.X.X.-.-.X.X..... .{ { { ) ) ( [ [ ' #.$.y.#X9X8X@XUXUXUXUXUXUXUXUXUXUXUXUXUXUXUXUXUX",
"UXUXUXUXUXUXUXUXUXUXUXUX5XPXPXHXHXL.L.L.F.F.C.C.C.e.P.P. X X|. X XP.q.o.X.X.X.X.X.X.X.X.X.X..... . .{ { ] ] ) ) ( ( ' +.$.y.#X9X8XXXUXUXUXUXUXUXUXUXUXUXUXUXUXUXUXUX",
"UXUXUXUXUXUXUXUXUXUXUX5XxXPXhXDXrXL.J.F.D.C.C.B.P.|.FXKXKXKXKXKXLXGXCX.XM.X.......X.X.X.X.X... . .{ { { ] ] ) ) / / ` ` ' $.y.#X9XaXp.UXUXUXUXUXUXUXUXUXUXUXUXUXUXUX",
"UXUXUXUXUXUXUXUXUXUXUXPXxXHXHXrXL.L.F.F.A.B.B.l CXKXKXLXLXGXGXFXFXFXFXFXmXl 7. . .....X.X.X....... .{ { ] ] ) ) ( / / 4 ' +.$.y.&X9X8X9 UXUXUXUXUXUXUXUXUXUXUXUXUXUX",
"UXUXUXUXUXUXUXUXUXUXHXxXIXHXBX].L.J.F.C.C.e.z GXLXLXGXFXGXFXFXFXCXCXCXVXVXmXh :. .....X.X......... .{ { { ] ] ) ( ( / / ` ' +.r.d.-X0X*X7 UXUXUXUXUXUXUXUXUXUXUXUXUX",
"UXUXUXUXUXUXUXUXUX5XPXPXHXDX].L.J.F.C.C.e.l CXGXGXFXFXFXFXCXCXCXAXAXmXmX|.|.}.l -. . .X....... ... .{ { { { ] ) ( ( / / ` / ` +.r.b.<X8X@XUXUXUXUXUXUXUXUXUXUXUXUXUX",
"UXUXUXUXUXUXUXUXUXPXxXHXDX].L.J.F.C.C.w.P.}.GXCXCXCXCXCXCXCXVXVXAXmXmXmXMX.Xz z y  . . ....... ...{ ..{ { { ] ] ) ( / / ` 5 ` ' @.y.&X0X8X9 UXUXUXUXUXUXUXUXUXUXUXUX",
"UXUXUXUXUXUXUXUX5XxXIXtXtXL.L.F.A.C.w.C.h FXZXZXVXCXVXVXVXVXVXmXmXmX|.}.~ c v v h q. . . . . . .{ { ..{ { ) ] ] ) ) ( / / / ` 5 +.$.d.-X8X%X3 UXUXUXUXUXUXUXUXUXUXUX",
"UXUXUXUXUXUXUXUXxXPXiXtXrXL.F.D.C.B.w.y }.VXVXVXVXVXVXVXmXmXmXmX|.|.}.}.c ~ v b h s X. . . . . ...{ { { { 3.] ] ] ) ( / / / / / +.@.r.oX7X8Xp.UXUXUXUXUXUXUXUXUXUXUX",
"UXUXUXUXUXUXUX5XxXIXtXrXL.J.F.C.B.w.B.s mXmXmXmXmXmXmX|.MX^ MXmX}.}.c c x R R k p n q.{ {  ..... ... . .{ { { ] ] ] { ) ) ( ( / ' ' $.d.&X0X*X7 UXUXUXUXUXUXUXUXUXUX",
"UXUXUXUXUXUXUXlXPXiXtX].J.F.D.C.B.8.M.s .XMXmX.XmX}.}.mX~ ~ MXc c c x v v y t t 6 6 w.x.x.x.x.x.x.x.x.x.x.x.x.x.0.0.0.0.>.] / / ` ' #.r.#X7X8Xa.UXUXUXUXUXUXUXUXUXUX",
"UXUXUXUXUXUX5XxXhXiXrXL.F.D.C.B.w.8.y h }.~ }.}.}.MX}.c c ~ c c x x x v -.3.3.3.I.I.I.U.U.T.Q.Q.!.Q.Q.T.U.I.5.5.6.2.2.3.3.7.( ( / ' +.$.d.-X0X%X+ UXUXUXUXUXUXUXUXUX",
"UXUXUXUXUXUXiXPXHXtXL.J.F.A.B.w.8.>.y h ~ ^ c c c c c c x x ~ j j x j v 3.2.2.2.6.5.U.U.T.Y.Q.!.^.^.!.Q.Y.T.U.5.I.2.2.2.3.0.) ( ( / ' @.r.#X7X>X9 UXUXUXUXUXUXUXUXUX",
"UXUXUXUXUXUXzXlXiXrXL.F.D.C.e.w.7.>.y s v j v c v v x x R j R R R k f q.3.3.2.2.6.I.I.U.T.Q.!.^.^.^.^.Q.Y.T.U.5.5.6.2.2.3.2.o.) ( ` ' #.$.f.<X8X@XX UXUXUXUXUXUXUXUX",
"UXUXUXUXUX5XxXhXtX].J.D.C.B.w.8.>.>.y s z k v v v v j k R R L R L f k / | _ _ %._ O.&.%.=.=.=.=.4.=.=.=.=.%.%.O._ O._ 4 _ | 7.) ( ` ` +.$.d.&X0X%X3 UXUXUXUXUXUXUXUX",
"UXUXUXUXUX5XxXhXtXK.F.D.C.w.8.7.>.-.y p b b k b k v k R L F a S a a 2 7.SX[.[.[.[.].].L.`.`.J.J.J.G.G.G.D.G.D.D.A.Z.Z.Z.Z.V.7.) ( / ( ' @.t.#X7X>X9 UXUXUXUXUXUXUXUX",
"UXUXUXUXUXhXxXiXyXJ.D.A.B.w.8.:.o.o.q.n p g g d d f f a S S S S S F w [.JXJXJXJXSXSXSX[.[.[.].'.'.`.`.J.G.G.G.D.S.Z.Z.Z.Z.A.,.) ( ( / ` +.r.f.7X>Xg.X UXUXUXUXUXUXUX",
"UXUXUXUXm.zXzXiXK.J.A.C.e.8.7.:.-.X.>.n p a a d d f f F S D D D S S w ).JXSXSXSX[.[.[.[.'.'.`.`.`.`.G.G.G.S.S.Z.Z.Z.V.u.u.l.,.( ( ( / ` +.$.d.=X0X$XO UXUXUXUXUXUXUX",
"UXUXUXUX6XcXhXtXK.F.A.C.e.8.7.-.X... .y p a a g g f a S D D J J D S 2 _.SXSX[.[.[.rX'.'.'.{.`.`.).).G.).S.S.Z.Z.V.u.u.u.u.1.>.) ( ( / ` +.$.i.&X,X*X3 UXUXUXUXUXUXUX",
"UXUXUXUX6XlXhXyXK.G.C.B.w.<.:.-.X...{ w.p g d d f a a D J J J J D D 2 M.SX[.[.[.'.'.'.`.`.`.`.`.)._._.S.S.S.S.Z.l.u.u.u.,.@.,.( ( ( / ` ' @.i.&X0X>X8 UXUXUXUXUXUXUX",
"UXUXUXUX4XzXiXyXJ.D.C.e.w.7.>.-.X...{ ] y s d d b f L F D J J J D F > ; P.[.'.'.'.{.`.{.`.).)._.).G._.S.S.S.l.l.l.u.,.,.,.@.<.) ( / / ` ' @.t.oX<X>X9 UXUXUXUXUXUXUX",
"UXUXUXUX4XcXhXyXH.D.C.w.8.7.>.-.X... .{ o.l b v k j R R U U U U U = C C , t [.`.{.`.`.`.).).)._./.S.S.S.c.c.x.l.k.u.,.,.1.5 :.) ) ( / ` 5 @.t.oX<X>Xa.  UXUXUXUXUXUX",
"UXUXUXUX4XcXiX3XG.D.B.w.8.:.-.-.X...{  .{ o.l v ~ c ~ ~ ^ ^ ^ ^ > & 2XnXr # G.{.`.).).).)._._././././.c.c.x.x.l.k.,.,.,.$.5 &.) ) ( / / ` @.r.f.<X>Xg.. UXUXUXUXUXUX",
"UXUXUXUX4XcXiX3XG.A.B.w.8.:.-.X..... .{ { { B.h MXMXMXMXMXAXAXB * r BXBXu ; $ G.`.).)._._._._./././.c.c.c.l.z.k.k.,.,.&.5 4 X.( ( ( ` ` ` +.r.OX-X*Xg.X UXUXUXUXUXUX",
"UXUXUXUX4XcXuXK.G.C.B.w.8.7.>.-.X... . . .] [.M.i z mXAXAXAXu & > NXBXBXNXu & $ )._._._._././././.c.E.c.x.z.k.k.k.*.*.$.4 4 ;.) ( / / ` ` @.r.oX<X*XXXX UXUXUXUXUXUX",
"UXUXUXUX4XkXiX3XG.C.B.w.<.<.>.X.X..... .{ { [.DXJ.M.u z nXz & = 2XNXBXBXBXN.1 * w (././././.W.E.E.c.E.x.x.z.z.k.*.*.&.O._ 4 >.( ) ( ( ` ` @.r.oX-X*XXXX UXUXUXUXUXUX",
"UXUXUXUX4XkXuXK.D.Z.B.8.8.:.>.-.X.X....... .e.DXDXDXL. Xi & = r  XBXBXBXBXNXu ; # w W././././.E.E.E.R.z.z.z.h.k.0.*.O.O._ 4 7.] ) ( / ` ' @.t.OX=X*XXX. UXUXUXUXUXUX",
"UXUXUXUX3XkXgX3XG.Z.V.w.8.7.>.>.-.X.........X.M.L.BXSXN.* = > 2XBXBXBXNXBXBXN.r = # t W.E.E.W.E.E.R.R.R.z.z.k.4.4.%.%.O.O.4 7.] ) ( ` ` ' @.t.OX<X*Xg.. UXUXUXUXUXUX",
"UXUXUXUX+XkXgXyXG.V.e.w.7.7.-.-.-.X.X.........-.<.V.P.* = N Z NXBXBXNXNXNXNXN.u 1 & # m.W.E.E.E.W.R.R.R.z.h.h.=.%.%.%.O.O.4 9.) ) / ` ` ' $.t.OX,X>Xa.o UXUXUXUXUXUX",
"UXUXUXUXm.kXgXeXG.V.V.w.7.7.7.-.-.X.X.X.........X.:.$ = : r u BXNXbXbXbXbXN.2XN.e > & # l.W.R.~.R.R.R.Y.Y.h.4.4.4.%.%.O.O.4 9.) ) / / ` +.$.i.#X*X>X9 o UXUXUXUXUXUX",
"UXUXUXUXq gXgX4XH.V.w.8.7.7.-.>.-.X.X.X.........-.w = : N u NXbX2X2XbXbXvXN.N.2Xe r - & $ v.~.R.W.R.Y.T.h.h.h.4.4.4.%.%.O.O.} ] ) / / ` +.$.s.#X*X,X0 o UXUXUXUXUXUX",
"UXUXUXUXUXgXkXeXH.S.B.w.8.7.-.-.-.-.X.X.X.X...X.w & - N r N.bXbXbXvX2X2XvX2Xu u u < 1 - & $ R.Q.Y.Y.Y.Y.T.h.h.5.4.%.%.%.O.#.} ] ) / ` ` +.r.f.&X*X*X3 UXUXUXUXUXUXUX",
"UXUXUXUXUX1XjXuXH.S.l.w.7.7.7.>.>.-.X.X.X.X.X.6 & - m 1 e bXvXvXvXvXQ Q z A A u u e e > = # % Y.Q.Q.Y.Y.T.h.h.h.4.6.4.%.O.%...) ( / ` 5 @.t.f.-X%X$XO UXUXUXUXUXUXUX",
"UXUXUXUXUX+XjXgX3XZ.l.w.9.7.<.>.-.-.-.X.X...M.& = m B < u vXvXvXQ Q A A Z Z Z z u u , 1 : = # % Q.Q.Q.Y.Y.U.h.h.4.4.4.%.O.&. .) ) / ` +.$.i.OX*X>XXXX UXUXUXUXUXUXUX",
"UXUXUXUXUXq dXgXeXn.V.9.8.7.:.:.>.-.-.X.X.-.* = m M < u vXQ Q ! ! W W W Z Z Z r r r 1 , 1 : & # m.!.!.Q.Y.T.h.h.h.4.%.%.O.=. .) / ` ` +.$.s.#X%X>X9   UXUXUXUXUXUXUX",
"UXUXUXUXUXUX:XjXqXn.l.9.8.7.-.:.-.-.X.X.X.<.= m m B < A Z ! ! W W W W T T T r T T r r & < M - & q ^.!.!.Y.Y.U.h.4.4.4.%.O.*. ./ / / 5 @.t.OX#X$X*X7 o UXUXUXUXUXUXUX",
"UXUXUXUXUXUXm.jXgX3XZ.l.9.7.:.-.-.-.X.....M.- M N < Z Z Z ! ! T T T T T T Y Y Y Y 1 1 & * 1 m - , pXpXpXpX~.~.E.E.c.c.z.k.k.] / / 5 +.$.i.OX=X*XXXO UXUXUXUXUXUXUXUX",
"UXUXUXUXUXUX8 dXjX1Xn.l.7.>.>.;.-.....X. .e m G ; r Z Z C T T T T E T E Y Y K Y B B > = & * N m = n.~.~.~.n.z.v.j.k.k.,.#.1.) ) ' ' +.r.f.#X*X>X9   UXUXUXUXUXUXUXUX",
"UXUXUXUXUXUXUX+XfXqX3Xl.9.0.:.;.-.-.-.} X.B V > , C C C T Y Y Y E E E E E P K K B N - = & # < M - t 1.1.1.1.1.1.1.1.1.1.1.1./ / ' +.$.i.oX=X%X$X3 . UXUXUXUXUXUXUXUX",
"UXUXUXUXUXUXUX8 sXfXwXv.k.9.;.>.-.......<.V M $ r r C C C Y E E P P P P P I I N M m : - = & # > M u.} ] { { { { ) ) ) ) ( / / ` ' @.r.f.#X$X>Xp.. UXUXUXUXUXUXUXUXUX",
"UXUXUXUXUXUXUXUXOXdXqX:Xl.,.>.;.;.......M.V & < 1 1 C B K K P P P P P P I H G V M m : - - & # # M i { { ) ] ] ] ) ) ) ( ( / ` ' @.$.i.OX@X$X*X7 o UXUXUXUXUXUXUXUXUX",
"UXUXUXUXUXUXUXUX8 qXdXqXv.k.,.X.X... .{ u - # < 1 B B B B I I I H H H G G G G G M M m : = & & @ = r { ] ] ] ] ) ) ) ( / / / 4 [ $.t.s.#X*X>Xg.X UXUXUXUXUXUXUXUXUXUX",
"UXUXUXUXUXUXUXUXUXs.sXdX:Xk.,.&...} }  .1 # , < ; > > N M M G G H H G G G G G G M m : : = = # # @ > X.] ] ] ) ) ) ( / 5 / / ' +.r.s.OX$X*X%X3 . UXUXUXUXUXUXUXUXUXUX",
"UXUXUXUXUXUXUXUXUXUX&XsXqXn.k.&.} } ] >.* # # & ; - : m M V H H H H H H H H H G M M m : - = * * * # 8.] ] ] ( ( ( / / / ` +.5 r.i.oX@X@X>X9 . UXUXUXUXUXUXUXUXUXUXUX",
"UXUXUXUXUXUXUXUXUXUX8 aXsX7Xb.*.&.} } X.t u i u u u Z Z ! ! W W W ^ W W W W W W ! ! ! u u u i e e w >.] ) ) ( / / / 5 / ' 5 $.t.f.&X*X>XXXO X UXUXUXUXUXUXUXUXUXUXUX",
"UXUXUXUXUXUXUXUXUXUXUX9 aXsX-Xj.*.&.} ) o.<.<.<.<.<.<.<.8.7.<.<.<.8.7.7.u.9.<.<.>.7.7.7.7.8.7.7.7.>.) ) ( ( ( / / ` 4 5 5 $.t.OX#X$X*X$X7   UXUXUXUXUXUXUXUXUXUXUXUX",
"UXUXUXUXUXUXUXUXUXUXUXUXXXaX9X-Xy.*.&.} ] ( ( ) ) ) ) ) ] ] ) ] ) ] ) ] &.[ ] ) { { ) ] ) ] ] ] { ) ) ) ( / / / 5 ` ' 5 $.t.s.OX$X%X*X0 . UXUXUXUXUXUXUXUXUXUXUXUXUX",
"UXUXUXUXUXUXUXUXUXUXUXUXUXXXaX9X;Xb.*.#.} ' [ ) ) ) ) ) ) ) ) ) ) ) ) ) ] ] ) ) ] ] ] ] ] ] ] ] ) ) ) ( / / ` ` / 5 5 $.t.s.OX@X$X*Xa.X UXUXUXUXUXUXUXUXUXUXUXUXUXUX",
"UXUXUXUXUXUXUXUXUXUXUXUXUXUX@XaX9X-Xd.*.#.#.' [ ( / ) ) ( ) ) ) ) ) ) ) ) ) ) ) ) ) ) ] ] ) ) ) ( ( ( / ` ` ` ` 5 ' $.i.OXOX@X$X>Xp.O X UXUXUXUXUXUXUXUXUXUXUXUXUXUX",
"UXUXUXUXUXUXUXUXUXUXUXUXUXUXUX@XaX9X-Xb.y.#.+.' [ ( / ( ( ( ( ( / / / ( ( ( ( ( ) ( ) ) ) ( ( ( ( ( / ` ` ` ` +.$.r.i.f.OX@X$X>Xg.O o UXUXUXUXUXUXUXUXUXUXUXUXUXUXUX",
"UXUXUXUXUXUXUXUXUXUXUXUXUXUXUXUXXX8XsX<X#Xy.*.@.+.' ' ` ` ( ` ` / / / / ( / / / ( ( ( ( / / ( ( ` ` ` 5 ' 5 @.$.t.s.OX#X%X%X*Xp.O . UXUXUXUXUXUXUXUXUXUXUXUXUXUXUXUX",
"UXUXUXUXUXUXUXUXUXUXUXUXUXUXUXUXUXp.8X0X<X#Xd.r.$.#.' ' ' ` ` ` / / ` ` / ( / / / ( / / / ` ` ` 5 ` ' +.5 $.t.i.f.OX@X*X*X*Xa.O X UXUXUXUXUXUXUXUXUXUXUXUXUXUXUXUXUX",
"UXUXUXUXUXUXUXUXUXUXUXUXUXUXUXUXUXUX9 %XaX9X<X#Xd.y.$.#.+.' ' ` / 5 ` ` / 4 / / ` ` ` ( ` ` ' ' ` +.@.$.r.i.s.OX#X$X@X>X%X0 X . UXUXUXUXUXUXUXUXUXUXUXUXUXUXUXUXUXUX",
"UXUXUXUXUXUXUXUXUXUXUXUXUXUXUXUXUXUXUX7 @X8X0X7X-XoXd.y.r.$.@.+.+.5 ` ' ' ` ' ` 5 ` ' +.' +.@.@.@.r.t.i.s.OXOX@X%X*X>XXX7 o UXUXUXUXUXUXUXUXUXUXUXUXUXUXUXUXUXUXUXUX",
"UXUXUXUXUXUXUXUXUXUXUXUXUXUXUXUXUXUXUXUXUX9 *X8X0X7X&X#Xf.t.y.r.$.$.@.@.@.@.@.@.+.+.@.$.$.r.r.t.i.s.f.oX@X=X*X%X>X%X9 O   UXUXUXUXUXUXUXUXUXUXUXUXUXUXUXUXUXUXUXUXUX",
"UXUXUXUXUXUXUXUXUXUXUXUXUXUXUXUXUXUXUXUXUXUX3 p.*X8X8X7X<X&XOXf.s.d.t.t.t.r.y.r.r.t.t.t.i.s.f.f.OX#X&X=X*X%X>X*Xp.3 . X UXUXUXUXUXUXUXUXUXUXUXUXUXUXUXUXUXUXUXUXUXUX",
"UXUXUXUXUXUXUXUXUXUXUXUXUXUXUXUXUXUXUXUXUXUXUXUX7 p.%X*X8X0X7X<X-X&X&XOXoXoXf.f.OXOXOXOX#X#X#X-X=X*X$X*X>X%Xp.7 X o UXUXUXUXUXUXUXUXUXUXUXUXUXUXUXUXUXUXUXUXUXUXUXUX",
"UXUXUXUXUXUXUXUXUXUXUXUXUXUXUXUXUXUXUXUXUXUXUXUXUXUX+ 9 XX*X>X>X8X,X,X7X,X<X-X<X-X=X-X=X*X*X*X%X*X>X*XXX9 3 .   UXUXUXUXUXUXUXUXUXUXUXUXUXUXUXUXUXUXUXUXUXUXUXUXUXUX",
"UXUXUXUXUXUXUXUXUXUXUXUXUXUXUXUXUXUXUXUXUXUXUXUXUXUXUXUXX 7 9 XX$X*X>X>X>X>X*X>X>X*X>X>X>X>X*X$XXX9 7 O   . UXUXUXUXUXUXUXUXUXUXUXUXUXUXUXUXUXUXUXUXUXUXUXUXUXUXUXUX",
"UXUXUXUXUXUXUXUXUXUXUXUXUXUXUXUXUXUXUXUXUXUXUXUXUXUXUXUXUXUXUX. O 3 8 9 a.g.g.g.XXXXg.a.9 0 7 O X   o UXUXUXUXUXUXUXUXUXUXUXUXUXUXUXUXUXUXUXUXUXUXUXUXUXUXUXUXUXUXUX",
"UXUXUXUXUXUXUXUXUXUXUXUXUXUXUXUXUXUXUXUXUXUXUXUXUXUXUXUXUXUXUXUXUXUXUXUX  o X X . o         UXUXUXUXUXUXUXUXUXUXUXUXUXUXUXUXUXUXUXUXUXUXUXUXUXUXUXUXUXUXUXUXUXUXUXUX",
"UXUXUXUXUXUXUXUXUXUXUXUXUXUXUXUXUXUXUXUXUXUXUXUXUXUXUXUXUXUXUXUXUXUXUXUXUXUXUXUXUXUXUXUXUXUXUXUXUXUXUXUXUXUXUXUXUXUXUXUXUXUXUXUXUXUXUXUXUXUXUXUXUXUXUXUXUXUXUXUXUXUX",
"UXUXUXUXUXUXUXUXUXUXUXUXUXUXUXUXUXUXUXUXUXUXUXUXUXUXUXUXUXUXUXUXUXUXUXUXUXUXUXUXUXUXUXUXUXUXUXUXUXUXUXUXUXUXUXUXUXUXUXUXUXUXUXUXUXUXUXUXUXUXUXUXUXUXUXUXUXUXUXUXUXUX",
"UXUXUXUXUXUXUXUXUXUXUXUXUXUXUXUXUXUXUXUXUXUXUXUXUXUXUXUXUXUXUXUXUXUXUXUXUXUXUXUXUXUXUXUXUXUXUXUXUXUXUXUXUXUXUXUXUXUXUXUXUXUXUXUXUXUXUXUXUXUXUXUXUXUXUXUXUXUXUXUXUXUX",
"UXUXUXUXUXUXUXUXUXUXUXUXUXUXUXUXUXUXUXUXUXUXUXUXUXUXUXUXUXUXUXUXUXUXUXUXUXUXUXUXUXUXUXUXUXUXUXUXUXUXUXUXUXUXUXUXUXUXUXUXUXUXUXUXUXUXUXUXUXUXUXUXUXUXUXUXUXUXUXUXUXUX",
"UXUXUXUXUXUXUXUXUXUXUXUXUXUXUXUXUXUXUXUXUXUXUXUXUXUXUXUXUXUXUXUXUXUXUXUXUXUXUXUXUXUXUXUXUXUXUXUXUXUXUXUXUXUXUXUXUXUXUXUXUXUXUXUXUXUXUXUXUXUXUXUXUXUXUXUXUXUXUXUXUXUX",
"UXUXUXUXUXUXUXUXUXUXUXUXUXUXUXUXUXUXUXUXUXUXUXUXUXUXUXUXUXUXUXUXUXUXUXUXUXUXUXUXUXUXUXUXUXUXUXUXUXUXUXUXUXUXUXUXUXUXUXUXUXUXUXUXUXUXUXUXUXUXUXUXUXUXUXUXUXUXUXUXUXUX"
};
