/* XPM */
static char *srz0x_7n1lm[] = {
/* columns rows colors chars-per-pixel */
"82 82 35 1 ",
"  c None",
". c #121212",
"X c #131C1D",
"o c #1B1C1C",
"O c #161727",
"+ c #151E24",
"@ c #1E1E22",
"# c #16152A",
"$ c #18172C",
"% c #161B28",
"& c #1B1A2E",
"* c #1F1E30",
"= c #201F2D",
"- c #201F30",
"; c #162227",
": c #1C2324",
"> c #162429",
", c #1C232E",
"< c #17282C",
"1 c #1C2A2D",
"2 c #1F2230",
"3 c #1F2B30",
"4 c #232324",
"5 c #23242C",
"6 c #262A2C",
"7 c #2A2C2E",
"8 c #232331",
"9 c #242B32",
"0 c #2B2D32",
"q c #263032",
"w c #2D3134",
"e c #323435",
"r c #343639",
"t c #36383A",
"y c #3A3B3C",
/* pixels */
"                                                                                  ",
"                                                                                  ",
"                                                                                  ",
"                                                                                  ",
"                                 @oooooooo.oo.                                    ",
"                             @4:619163333111>:XX..                                ",
"                          4:61q3199133133,,111<<>;...                             ",
"                        466qq9969128*2,2,&,,&,<<1<<>X..                           ",
"                      66qq9w988-52*2**&&*&&&&&>&%<<<<;+..                         ",
"                    469q999888--********&&&&&&$$$$$&><<;X.                        ",
"                   8qq99988888----*&*&&&&&&&*$$$$$%%%%>><;..                      ",
"                 49qw909888---$-*&*&&*&*&&&&$$$$$$%###%;>>;X.                     ",
"                -9ww0888888-----&&*$*&*$&&$$&$$$$$######%;>>;.                    ",
"               49rq9008888---$$-&&&&&$$&&$*$*$$$$$#$$###%%%;;X.                   ",
"              67990w8888------&&&&$$$&&$$$$&$$$$$$#$###O##%%>;;.                  ",
"             4qwr98888---***$-&&&$&$$$$$$&&$$$$$$$$########%+;;X.                 ",
"            60w098w-8----&$&&&&&$$$$$$$$$$$&$$$$$$############%>;.                ",
"           4qw099988-------&$&&-$$$$$$$$$$$$$$$%$###$#########%+>X.               ",
"           0ww90888-----------880rrrttrrrrw0088&&&$$###$####OO%%;;X.              ",
"          6qq99888-------8ryyyyyyytyyyyyttyttyttr92&$##$#####O%O+;;..             ",
"         5wq8r08-------yyyyytyyyyyyyytytytyttyyyttyy9*$$#####OO#%+;;.             ",
"         0qw8888-----8yyyyyyyttrryyryytytyyytttytyyyyy*$##O##OOOO%;>X.            ",
"        8w0rr8888--$-yyyytyyttrrrrrrrtyrryyytyyyyyyyyr0$#######OO%;;;..           ",
"        99088888-----yyyytttttytyryrryrryryryttyyttttr9$#########%%;;X.           ",
"       4wqq9888---$*$rtyyyyytttttrrtrtrttytyyyyyyyeyr0-$##########O+;;..          ",
"       7qw898-88--*$*rrryyyyyyyyyyyyyyyyrrrreew774eee80$#########OO%;;X.          ",
"      4qw988----**$$$rtrtyyyrtttrrrrrrewww7644@oo47ee70$##########OO+;;..         ",
"      4q9008----$-$$$rrtyyytryt0ewww000000766664=4eew78$########O##O%>;..         ",
"      7q98888--$$$$$$ryryyytrytrrwewww00w79q776677eer88$$$########OO%;;X..        ",
"     4qq0888----$*$$*8yyyyyrrytrwewwwwwww707766667eer88-$###########%;;+..        ",
"     4q9988----$$$$$$tw8tyyrryr0ewewew0w0007776647eerr8$$$#######O#O#+;;..        ",
"     6w9888---*$$*$$$ry09rrrwyrrrrwe0we00009066677eyyr8$#$###########%;;X..       ",
"    :79988****&$$$$$$ryyyyr74e76897777777766477777yye77$$$$$$########O;>X..       ",
"    49998***&*$&$$$$$ryryyyyyyrww0007777e77e7e7ee7eee77$$$$$$#######OO+>X..       ",
"    469988***&&$$$$$$rtryyyttyytyyytrrrreeeee77744eee77#$$$$$#####O#OO%>;..       ",
"    :q9988***&&&$$$$$rrtyyttetteww00e0e777777w77e77ee07=$$$$$$#$####OO%;;..       ",
"    499888**&&&$$$$$$rrrtyytwyteeeww0ww077eeeeeye7yee7e=$$$$$#$####O#%+>;...      ",
"    :q998***&&&$$$#$$0rtyyyetttweeeewwwwe77e77eyyyyye774&$$$$$$###O##%%;;...      ",
"    ,9988***&&&&$$$$$rewyyytetreqrwwwww07eee4eyyyyyyyy77*&$$#$#####OO%%;;...      ",
"    2999***&&&$$$$$$$yt6wetttyteeewwwwww7ee4yyyyyyyyyye7-&$$#########O%>;...      ",
"    4q632***&&&$$$$$$rttrww77ereeeeq0ew0wr7eyyyyyyyyyyy08*&$$$$$####OO+;;...      ",
"    @q922**&&&&&$$$$$rttyytw7w7456797777707eyyyyyyyyyye08*&$$$$$O###OO%;;...      ",
"    o938****&&&&$$$$$rtrtyyyttrreeww0ww0ew0yyyyyyyyyeee00-*$$#$####O#O%;+...      ",
"    o193***$&&&&$$$$$rrttttrtttrreyerreeeewryyyyyyeyeee00-&&$$######OO+;+...      ",
"    o1912***$**$*$$$$rrrtyttrrrweew0ewwwewweyyyyyyyeeee78**$##$######%;;+...      ",
"    o6992****$$$$$$$$rttttttrrreewewww0www7eeyyeyeeeee778*&$$#######%%;;X...      ",
"     :132****$$*$$$$$rtttttrrrree0ewwwwwwe7eyyeyeeyeye888-&$$$######O%;;X..       ",
"     o192*$**$$*$&$$$yr9ttttrwrewr0rwww07e77weyeyyeey08r8-$$$#####O#%+;+...       ",
"     o133&&*&&&&&$$$$ryr9rrreeeeeeewww0wwwew70ereeee47e74--&&$$####O%+;;...       ",
"     o:93,*-&&&&&$&$$rtyr99977wwwweewwww7070777777e4ee74o@-&&&$####O%;;X...       ",
"      o1,2&&&&&&&$$$$rrtyyte0792677766777777wwwe7eeeee5ooo@-=&$$###%+>;....       ",
"      o13,,&&&&$$&$&$rrrtttyyttrew7ww00w7w7eeewwee770705ooo@-&$##O%%;;+...        ",
"      .:3,,&&&&$$$$$$rtrttrrrrrrrrrreteweeeww77647777e758ooo@=&##OO%;;X...        ",
"       o1,,,&&&&&$$$$rttttrrrwwreewewwwww77769767477777588ooo@=#O#%+;+....        ",
"       o;1,&&&$&$$$$$2rrtrrrrrwwweeww0w0w77776664774775==-=oooo#O%%;;X...         ",
"        o<1,&&$$&$$$$&9rttrrrrrrewewwwwwq0w70766777774===&=5@.=#%%;>+....         ",
"        .:1<>&%&$$$$$#$*ryrrrr0rewwqew00000976966675==##$$$&=-=#%;;;X...          ",
"         .>1,&$$$##$##$$$-8rrrrreeewewww00007965565=&#####$@$@@#%;;+....          ",
"          .1<,%$$#$####$$$$&*88rewwww0w9e00-5655=&&$#######$OO$#;>+....           ",
"          .><<>%##$$##$#$$$$$$$$*2889898----=&&$#######O####OOO=>;X....           ",
"           .;<>$$$########$########$######$$##############O#OO%:;X....            ",
"            .;<>>#############################$######O###O#%@%>;+....             ",
"             .>>>$$###############$####$##$$########O####O#%+;:+....              ",
"              .;>>$####################################OOO+;;;+.....              ",
"               .;;;;%%%####O#####################O##OOO#%+;;;+.....               ",
"                .;>>>%%##O#####O#####O########O####OO#OO+;;;+.....                ",
"                 .;;>;;%%%#OO#O######O#O####O####O#O%#%+;;+X.....                 ",
"                  ..+>;;+%%OO#OO##OOO#########O#OOOO+;;>;+......                  ",
"                   ..X;>>;+%O%#OO#OO#O###.OOO#%%%%%+;;;+X.....                    ",
"                     ..X>;;;+%+%%%O#OO%%##%%%%+%;;<<;;X......                     ",
"                      ...X;<>>;;;;;%+%%+#%%;;;;;;;;+X.......                      ",
"                        ....X+;;>;;;;>;;+;>>;>;;+X........                        ",
"                          .....XX++;;;+;;;++XXX.........                          ",
"                            ..........................                            ",
"                               ....................                               ",
"                                    ..........                                    ",
"                                                                                  ",
"                                                                                  ",
"                                                                                  ",
"                                                                                  ",
"                                                                                  ",
"                                                                                  "
};
