/* XPM */
static char *oqcle_b81c7[] = {
/* columns rows colors chars-per-pixel */
"82 82 235 2 ",
"   c None",
".  c #000000",
"X  c #0C0C0C",
"o  c #171717",
"O  c #011F22",
"+  c #01353A",
"@  c #0E282B",
"#  c #282828",
"$  c #373839",
"%  c #282E34",
"&  c #023B44",
"*  c #023B46",
"=  c #063F54",
"-  c #373B46",
";  c #3A3B53",
":  c #16157F",
">  c #161B7E",
",  c #15237D",
"<  c #152B7C",
"1  c #15347D",
"2  c #153C7C",
"3  c #19337F",
"4  c #02444A",
"5  c #054856",
"6  c #0D535B",
"7  c #0A4A68",
"8  c #0A5768",
"9  c #15447C",
"0  c #154A7C",
"q  c #114F76",
"w  c #0D5572",
"e  c #15537B",
"r  c #155B7A",
"t  c #105776",
"y  c #15566B",
"u  c #15647A",
"i  c #15687B",
"p  c #1C6B76",
"a  c #0B6271",
"s  c #2C6B70",
"d  c #3D4349",
"f  c #4B4B4B",
"g  c #45475B",
"h  c #585858",
"j  c #475057",
"k  c #53556B",
"l  c #50656A",
"z  c #6A6A6A",
"x  c #68737C",
"c  c #747576",
"v  c #170F86",
"b  c #170F88",
"n  c #180F8C",
"m  c #161283",
"M  c #161A82",
"N  c #171288",
"B  c #19118E",
"V  c #191888",
"C  c #1B1292",
"Z  c #1C1A93",
"A  c #201795",
"S  c #231A96",
"D  c #261E98",
"F  c #281F99",
"G  c #241F8B",
"H  c #182785",
"J  c #173687",
"K  c #1B2792",
"L  c #1A3692",
"P  c #2B239B",
"I  c #282698",
"U  c #30279D",
"Y  c #332B9E",
"T  c #312995",
"R  c #29399A",
"E  c #38359E",
"W  c #27258B",
"Q  c #362EA0",
"!  c #3B33A2",
"~  c #3C3AA3",
"^  c #3732A0",
"/  c #423BA6",
"(  c #433D9F",
")  c #174686",
"_  c #19508E",
"`  c #2C509C",
"'  c #166985",
"]  c #187689",
"[  c #17708F",
"{  c #287098",
"}  c #3954A2",
"|  c #3B43A2",
" . c #3B77A3",
".. c #4C479A",
"X. c #5E5D98",
"o. c #544F9D",
"O. c #6A7A87",
"+. c #767C83",
"@. c #696E97",
"#. c #4342A6",
"$. c #4741A8",
"%. c #4B44AA",
"&. c #4D4AAB",
"*. c #4949A6",
"=. c #524CAD",
"-. c #544FA3",
";. c #4858A8",
":. c #5552AE",
">. c #5958AA",
",. c #5A55B1",
"<. c #5D5AB2",
"1. c #625EB5",
"2. c #615DA9",
"3. c #5C6AB2",
"4. c #4D71AB",
"5. c #6765A9",
"6. c #6563B5",
"7. c #6C6AB9",
"8. c #6767B7",
"9. c #6875B7",
"0. c #7273BC",
"q. c #767BBB",
"w. c #726FBA",
"e. c #467D82",
"r. c #7A7FC0",
"t. c #807EBD",
"y. c #34889B",
"u. c #288698",
"i. c #388CA2",
"p. c #1C8196",
"a. c #4D8E94",
"s. c #7A828C",
"d. c #6D8393",
"f. c #738B9B",
"g. c #7A8D9B",
"h. c #778795",
"j. c #77979C",
"k. c #688E90",
"l. c #4A99A9",
"z. c #5A95B1",
"x. c #528EAC",
"c. c #7B92A3",
"v. c #7A9AA4",
"b. c #6789B8",
"n. c #7883BB",
"m. c #6A97B9",
"M. c #7497BE",
"N. c #778FA1",
"B. c #5DA5B2",
"V. c #79A8AB",
"C. c #67ABB7",
"Z. c #75AAB9",
"A. c #77AFB5",
"S. c #7B89C1",
"D. c #7D99C2",
"F. c #7CA8C1",
"G. c #7BB6C3",
"H. c #828E9A",
"J. c #858D95",
"K. c #84919C",
"L. c #8B949C",
"P. c #91969C",
"I. c #81878D",
"U. c #849AAC",
"Y. c #8997A4",
"T. c #959DA5",
"R. c #878AB6",
"E. c #889AB2",
"W. c #8F95B0",
"Q. c #98A3AD",
"!. c #8CA3B4",
"~. c #8FA6B8",
"^. c #95ABBC",
"/. c #9AADBD",
"(. c #98A7B4",
"). c #93AEBA",
"_. c #A3A6AC",
"`. c #A4ACB3",
"'. c #A7ADB6",
"]. c #A9B1B9",
"[. c #B4B8BC",
"{. c #9699C9",
"}. c #8991C7",
"|. c #82A6C4",
" X c #9BACC2",
".X c #83B5C5",
"XX c #9CB2C3",
"oX c #9FB6C8",
"OX c #A2B6C5",
"+X c #ACBAC5",
"@X c #A2B7C8",
"#X c #A4BACB",
"$X c #AABDCD",
"%X c #A8B8C3",
"&X c #B6BCC4",
"*X c #AABDD1",
"=X c #B1B4D8",
"-X c #BCBCE0",
";X c #B9C3CB",
":X c #ADC1D2",
">X c #B2C4D4",
",X c #BBCDDC",
"<X c #B8C8D7",
"1X c #BFD0DF",
"2X c #BDC9E3",
"3X c #BED1E0",
"4X c #C4C7CA",
"5X c #C6CDD5",
"6X c #C4D2DC",
"7X c #CBD4DA",
"8X c #CBD1D6",
"9X c #D6D9DB",
"0X c #C2CCE4",
"qX c #C4D4E3",
"wX c #CAD5E3",
"eX c #CCDAE5",
"rX c #CBDBEA",
"tX c #C8D8E8",
"yX c #D2DCE5",
"uX c #D3DEE9",
"iX c #DADDE2",
"pX c #D5E1EB",
"aX c #DBE4EC",
"sX c #DCE4E9",
"dX c #DBE7F2",
"fX c #E3E9EE",
"gX c #E5E8EC",
"hX c #E3EBF2",
"jX c #E8ECF3",
"kX c #EEF1F4",
"lX c #EBF3FA",
"zX c #F3F4F5",
"xX c #F3F6F9",
"cX c #F6F8FA",
"vX c #FCFDFD",
/* pixels */
"                                                                                                                                                                    ",
"                                                                                                                                                                    ",
"                                                                                                                                                                    ",
"                                                                                                                                                                    ",
"                                                                  $ $ $ $ $ $ $ $ # # o o o                                                                         ",
"                                                          f f l a.a.l.l.l.l.l.l.i.i.y.u.p s + o X X                                                                 ",
"                                                    h h k.l.C.B.z.z.x.x.x.4.x.4. .4. .i.y.y.u.p.i 6 . . .                                                           ",
"                                                z k.B.C.C.m.z.9.4.5.3.4.;.;.;.} *.} } } ` } ` { u.p.p.] 4 . .                                                       ",
"                                            z k.C.C.C.S.b.9.3.<.3.>.;.&.&.*.#.#.| ~ ~ ~ ^ R R ` ` _ [ [ ] ] 5 . .                                                   ",
"                                        z k.C.F.F.S.9.8.3.3.<.,.-.&.&.%.$./ | ~ ~ ! Q R R U I I K K L ) _ ' ] a + .                                                 ",
"                                      z V.G.F.M.b.9.8.3.,.:.=.=.&.$.#./ / / ! ! ^ Q Q U U I P D S Z Z H J ) _ ' ] 6 . .                                             ",
"                                  z v.Z.Z.D.b.0.9.6.3.,.:.=.=./ / / ~ ! ! ! Q Q Q Q U U U P D F S Z Z Z Z K J ) ' ' 8 4 .                                           ",
"                                z V.G.F.S.r.r.r.6.<.<.:.=./ / / / ! Q Q Q Q Q P U U U U P P F A S A C C B V H H J 0 ' ' 5 .                                         ",
"                              c Z.G.F.S.r.r.<.1.<.<.:.%./ / / / Q Q Q Q Q P Q U U P P P P P F A A A C C B B N V M J 9 r i 5 .                                       ",
"                            c V.G.D.r.r.8.3.1.1.,.:.%./ / / Q Q Q Q P P P P P P P P P P D P D A A C C C B B N V M M , 2 r i 6 .                                     ",
"                          c V..XS.r.r.r.r.1.<.,.=.%.%./ / Q Q Q P F F F D D F D D P D P P Z D Z A C C C B n N m m m > , 1 r i 5 .                                   ",
"                        c A..X|.S.q.w.8.1.1.=.=./ / / Q Q Q U P P F F S D D D D S D F F F F S A A A C C C n n b v v : : > 1 t p 5 .                                 ",
"                      z !..XD.}.r.w.8.1.1.=.=./ / / / Q Q U U U F S S S S S S A S S D S D S S A A Z C C C n n b v v : : : > 2 t i 4 .                               ",
"                      V..X|.}.q.r.7.1.1.,.=./ / / Q / E / 8.r.t.{.=X0XwXwXwXwXwXwX-X=X}.}.7.<./ F D A C C n n n b v : : : : , 2 r p 4 .                             ",
"                    c ~..XM.n.0.6.1.1.=.=./ / / 1.t.=X0XfXfXfXaXfXaXaXfXaXfXfXaXaXfXfXuXuXiXaXuX-X{.r.~ D n n n b v v v : : > < 9 u 8 . .                           ",
"                  c V..X}.r.r.r.7.1.,./ / / r.-XcXvXkXdXfXfXfXfXfXfXaXfXfXfXaXaXaXfXuXaXsXpXsXaXdXdXaXaX{./ A n b b v v : : : : < e i 5 .                           ",
"                  v..X|.r.r.1.7.1.1./ / / {.zXjXkXkXkXhXaXaXpXpXuXaXaXuXuXiXuXaXaXuXuXaXsXpXsXaXdXdXfXfXjXuX1.n n b v v : v : : > 2 r u + .                         ",
"                c A.D.r.r.r.7.1.,./ / / / jXxXaXaXaXsXsXpXeX6X7XwXwX0XwXwXyXyXyXuXuXuXaXpXaXaXaXdXfXdXhXjXeX{.C n n b v v v : : > < 0 u 8 . .                       ",
"                v.G.D.r.r.r.1.1.,./ / / U tXcXxXfXsXpXyXpXpXpXyXyXyXwXiXyXwXyXyXuXuXuXiXsXpXaXdXaXdXaXuXwX+X}.n n n b v v v v : : > 1 r u * .                       ",
"              z A..XS.r.6.1.1.=./ / / / P 2XpXdXxXxXjXjXgXsXyXpXyXyXyXyXyXeXyXyXyXyXpXpXaXdXdXdXdXeX8X8X;XJ.t.n n n n n n n n b m : , 9 i 8 . .                     ",
"              j..XD.r.0.r.1.=.=./ / / U P 0XrXtXdXlXlXhXdXfXfXfXfXfXaXfXaXaXsXuXpXyXeX7X5X;X'.Y.J.s.[.4X[.I.R.C C n n n n n b v m : , 1 r u + .                     ",
"            z A.F.S.0.7.1.,.=.%./ / U F F 0XrXtXpXjXhXeX1XdXpX6X6X0X,X,X<X<X>X+X].(.Y.h.x l j - - j ].4X[.J.q.B C C C n n n b b m m m < 0 i 8 . .                   ",
"            x G.F.n.0.8.1.=.=./ / U U F S qXuXtXdXjXhXwX,XdX7X:X#X#X@XXX X^.^.!.!.U.c.N.d.O.O.O.l x [.4X[.K.R.A C C C C n n b b v m M , J u r . .                   ",
"            j.G.S.9.r.,.,.%./ / U U F F S -XyXtXpXjXhXeX1XdXeX>X:X:X#XoXXX/./.^.~.!.U.E.v.c.j.f.f.g.;X5X&XJ.q.A A C C C n n n n v v m > J e u * . .                 ",
"          z A.Z.S.9.6.<.,./ / ! U F F S A }.8X9XdXjXdXeX6XaXeX:X:X:X#XoXOX X^.^.!.E.U.v.c.N.f.f.d.g.;X8X;XW.w.G C C C C C n n n v v m M < 0 i 8 . .                 ",
"          z A.M.n.8.3.,.=./ / Q U F D A C uX=Xt.6XlXhXuX3XdXeX>X:X#XoX#XXXXX/.~.~.!.U.U.c.c.f.f.d.f.;X6X6X<X{.A A A C C C C n n b N m : > 2 u r . .                 ",
"          d.Z.M.9.6.<.=./ / ! Q U D S A C uXjX_.P.;X4X+X+XaXeX>X:X:X:X#XoXXX X^.~.!.E.U.c.c.f.h.d.K.4XsXaX2X{.D A A C C C n C n b v v : > 1 r u O . .               ",
"        f k.F.b.7.1.,.=./ ! Q U F F A C Z 2XdXxXcXgX8XJ.c [.Q.x s.g.K.L.Y.Y.j.K.K.K.g.h.h.I.K.L.T.].pXsX8XP.R.S S S S C C C n n n v v m > < e u * . .               ",
"        h B.F.b.8.1.=.&./ ! Q P F F A A C 2XtXtXsXxXcXkXgXgX8X[.'._.Q.P.L.P.L.T.P.Q._.`.].].`.].Q.P.&X;X[.L.R.S S S S C C C C n n b v m : < q u 5 . .               ",
"        h C.C.9.8.<.=.%./ ! Q P F A A C C 0XrXrXpXdXdXeX6XhXdXpXpXpXeXeX6X6X5X<X<X:X&X+X].T.s.c c c [.4X&XP.R.F S S S S C C C n n b v : : , 0 u 7 . .               ",
"        h C.m.9.3.,.=.$.~ ! U P F A Z Z C 0XrXtXaXhXdXtX,XaX3X:X$X@XOXXX X X~.!.!.U.!.U.!.)./.Q.Y.P.].[.&X_.{.U S P S C C C B n b v v m : , 9 u t . .               ",
"        h C.m.9.3.:.&./ ! Q U P F A A A C 2XtXtXpXhXdX7X,XpX7X>X:X:X#X@XXXXX/.^.).~.(./.+X`.P.P.`.].`.Q.T.P. X/ U F D C C C C n n b v v : , 2 u r . . .             ",
"        k B.m.9.<.:.&./ ^ Q U P F A A A C {.rXpXpXdXdXeX,XpXtX>X:X#X:X@XXXXX^.^.^././.:XL.s.[.iXgXkXkXsX;XK.R.%.! Q F A C C C n b b v m : , 2 r r . . .             ",
"        h F.b.9.<.=.%./ ^ Q U D D A C A C 0X;X:XdXlXdXeX,XpX6X>X:X#X#X@XoX X/.^.)./.:XQ.s.8XvXvXvXcXvXvXzX8XK.w./ ! F A C B C n b b v v : > 1 u r . . .             ",
"        h C.z.3.<.=./ / ! U U D F A A A Z fX9Xs.Q.6XuXpXrXdXrX>X:X:X#XoXXX X/././.#X`.c 8XvXcXcXcXzXzXzXzXzX+XY.,.! U A C C B n b v v m m , 2 u r . . .             ",
"        h C.z.3.<.&.#.~ ! Q U P D D A A C tXlXiX[.'._.L.K.;X;X:X:X:X:X:X:XoXXXXXOX>XP.'.zXcXcXcXzXzXzXzXzXgX8XQ.0./ Q D A C C n n b v v : , 2 u t . . .             ",
"        f C.z.3.,.&.%.~ ^ Q U P D D D A A 2XrXhXlXhXiX`.P._.K.x x s.h.d.h.h.g.K.T.(.P.5XzXzXzXcXzXzXgXgXiX9X5X_.R.%.Q F A C C n n b v N : , 9 u t . . .             ",
"        f B.z.3.:.=./ / ! Q U U F F D A S 0XrXtXpXlXhXfXsXsX9X4X4X&X'.`.`.`.`.].&X].Q.iXcXzXzXkXgXgXiX9X8X4X;X{.R.=.Q F C C C n n b v m : , 0 u w . . .             ",
"        d x.x.3.:.&.%./ ^ Q U P F F S S S 2XrXtXuXpXpXrX6XpXeX7X7X7X6X5X8X;X<X<X5X;X`.9XgXkXgXgXgX9X9X8X4X&X&XT.W.=.Q D C C C n n v v m M , 0 u 7 . . .             ",
"        $ a.B.4.;.=.#.~ Q Q Q P F F F A S 2XrXrXpXpXpXqX,XqX3X:X:X:X#X@XOXXX X XOX/.(.5XaXaXfXsX9X9X9X4X4X4X&XP.R.&.Q F C C C n n v v m M < e u 5 . . .             ",
"        $ l B.4.:.&.#.~ ! Q P P P F F F D =XrXrXrXpXuX3X,X6X,X>X:X#X#X@XXXXX^. XoX].Q.;X9XsXsX9X9X9X9X8X4X4X_.t.t./ Q F A C C n n v v : M 1 e u * . . .             ",
"          l l.x.;.;./ / Q Q Q P P P F S S -XrXrXuXpXuX6X,X3X,X:X:X:X#X@XXXXX/./.).%XQ.].6XeX9XpX8X9X8X4X7X4X+.W.8.=.Q P C C C n n v m m , 2 u r O . .               ",
"          - l.x.;.&./ ~ Q Q P Q U P F F F hX5X~.rXpXuXtX,X,X<X>X:X#X#X@XXXXX/.^.^././.L.].6X9X7X8X4X9X9X4X+.+.{.1.=.! Q F C C n v N m M , 9 u e . . .               ",
"          $ a.z.4.*.#.~ ! Q Q U U F F D D 2XlXQ.J.].5X6X,X1X,X,X>X:X$X@XoX X/.^.^.(.OX(.K.(.;X4X4X4X&X`.+.h.%XJ.k 1./ ! U S C v n v m M < e i 7 . . .               ",
"          # s l.4.} #.~ ! Q Q U U U F D S -XdXvX9XP.J.J.j.Q.(./.@X@X@X@XXX X/.^.~.!.!.(.(.J.Y.Q._.T.L.L.].5XL.k # g ,./ E P S n N m m , 1 r r * . . .               ",
"            # l.x.;.| ~ ^ Q U U U F F D S 2XtXrXlXvXgX[.L.s.+.s.s.g.J.H.j.H.H.H.H.H.H.Y.T.'.'.].].].+X&X$X+X+.- ; % g >./ Y T b m m M , 9 u r . . . .               ",
"            # y.i.} } ~ ^ Q U U U F D S S 2XrXtXtXrXpXlXlXfX9X7X4X[.`._._._.Q._.`.'.[.[.&X+X+X%X`.(.Q.!.Q./.W.@.- - % g 2.( T v m m > 1 e i 7 . . .                 ",
"            o s i. .` ~ ^ Y U U U F D D S 2XrXrXrXtX6X3X,X,X3XrXuXuXeXwX3X1X<X;X>X:X%X].~.E.c.N.f.g.c.U.Y.E.R.5.X.- - % g -.T v m > , 2 ' r + . . .                 ",
"              # i.i.} ~ ^ U U I F F D A S 2XrXrXeXtXtX3X,X<X>X:X$X@X@XXXXX X).).E.E.v.v.N.N.g.f.h.f.g.Y.Y.Y.+.X.2.5.- - % g o.v m > 1 e u 7 . . . .                 ",
"              o s i. .` ^ R U I F F D A Z r.tXrXtXqXqX3X,X,X>X>X:X$X#X@XXXXX X~.!.!.E.U.v.c.N.f.d.f.g.c.U.g.@...-./ 2.- - $ ; v M , 2 u r & . . .                   ",
"                o u.i.} R U I I D D A Z C S }.tXeXqX3X3X,X,X>X>X:X:X#X@XXX X/.^.!.!.U.U.v.N.f.d.O.f.f.c.g.@...( ( E T -.; # k : M < r u 7 . . . .                   ",
"                X 6 i.{ ` R P P Z Z Z A C C A :.=XqXqX2X3X2X2X>X:X:X#X@XXXXX/.^.~.!.U.v.v.c.N.f.d.d.N.+.X...E P A G T T o.X...: < 0 u e + . . .                     ",
"                  o p y.{ R I S Z Z C C C C C C T >.{.<X<X>X>X>X:X:X#X@X@XXX/.~.!.!.U.U.c.c.f.d.O.@.X...T T B n n G G W W T W > 2 r u 5 . . . .                     ",
"                    o ] { ` L K Z Z C B C C B C B C S / 3.S.{. X@XOX@XoXXX X^.~.!.U.R.N.f.@.@.X.-.~ T A B n n v v v G G > W 3 3 t u 7 . . . .                       ",
"                    X 6 p.{ _ K Z Z B B C C B B B B C C C C A F #.>.5.5.5.5.5.5.5.>.>./ / Y Y D C C C B n n v v v v v : > , 3 0 p _ 4 . . . .                       ",
"                      X a p.[ ) K Z N N B n B n B B C n B B B C C B B B C B B C C C C B B C C n C B n n n n v v : : : : , 3 0 p r 4 . . . .                         ",
"                        . a [ [ ) K V Z B n n b B B B B B B B B B B B B B B B B C n B C B C C C B n n n v v v v : : : , 3 9 u e 5 . . . .                           ",
"                          . 8 [ ' L H V N N N b b n n B n n n B B B n n n B B B B B n B B B B n n b n b v v v : : : , < 0 u r = . . . .                             ",
"                            . 8 [ [ ) H H M N b b b b n n n n n n n n n n n n n n n n n B B n n n b b b v v : : : > 1 e u r = . . . . .                             ",
"                              . 6 ] ' ) J H M m m N N N v v v v v v b b b b b b b n n n b n b v v v m m m : : > < 2 r u r = . . . . .                               ",
"                                . 5 ] ' r J H , M m m m v v v v v v v v b b v v b b b b b v b N v N m m : > < 1 0 r u e 4 . . . . .                                 ",
"                                  . 4 8 ' i ) < H H : : : m m v v : : v v v v v v v v v m m N m : : : > , < 2 t u r 7 & . . . . .                                   ",
"                                    . . 5 ' i ' 0 1 < > > : : : v : : : v : v : : v v v m m : M > > , 1 2 q u u q 5 . . . . . .                                     ",
"                                      . . + 8 i i r 0 J < , , > > > : : : : : m : : m M > > M , < 2 9 e u u r 7 + . . . . .                                         ",
"                                          . . 4 t i i r t 0 2 1 < < < > , > , , > : , < < 1 2 9 e r u i r q * . . . . . .                                           ",
"                                            . . . + 8 u p i u r e 0 0 2 2 2 2 2 2 2 9 0 e r u u i u e 7 + . . . . . . .                                             ",
"                                                . . . . * 7 t u p u u u u u u r u u i i i u r q 7 * . . . . . . . .                                                 ",
"                                                    . . . . . O & 5 7 w t r r r t w w 7 5 & O . . . . . . . . .                                                     ",
"                                                        . . . . . . . . . . . . . . . . . . . . . . . . . .                                                         ",
"                                                              . . . . . . . . . . . . . . . . . . . .                                                               ",
"                                                                        . . . . . . . . . .                                                                         ",
"                                                                                                                                                                    ",
"                                                                                                                                                                    ",
"                                                                                                                                                                    ",
"                                                                                                                                                                    ",
"                                                                                                                                                                    ",
"                                                                                                                                                                    "
};
