/* XPM */
static char *_g2bz_d5zz9[] = {
/* columns rows colors chars-per-pixel */
"82 82 241 2 ",
"   c None",
".  c #000C0E",
"X  c #000E10",
"o  c #001214",
"O  c #00171A",
"+  c #00252A",
"@  c #052D34",
"#  c #2B3037",
"$  c #003B44",
"%  c #373B46",
"&  c #3A3B53",
"*  c #01434C",
"=  c #084A54",
"-  c #35494F",
";  c #065A66",
":  c #006473",
">  c #036978",
",  c #00606E",
"<  c #376970",
"1  c #45485A",
"2  c #53566B",
"3  c #68737C",
"4  c #72797F",
"5  c #556971",
"6  c #170F86",
"7  c #170F88",
"8  c #180F8C",
"9  c #161383",
"0  c #161B83",
"q  c #19118E",
"w  c #181688",
"e  c #1B1292",
"r  c #1B1B94",
"t  c #201795",
"y  c #231A96",
"u  c #261E98",
"i  c #281F99",
"p  c #261E8E",
"a  c #162383",
"s  c #152B84",
"d  c #17268A",
"f  c #153485",
"g  c #153B85",
"h  c #16378A",
"j  c #1A2795",
"k  c #183A97",
"l  c #2B239B",
"z  c #292699",
"x  c #30279D",
"c  c #332B9E",
"v  c #312995",
"b  c #3B349D",
"n  c #262E94",
"m  c #362EA0",
"M  c #3B33A2",
"N  c #3938A3",
"B  c #2D38A0",
"V  c #423BA5",
"C  c #433D9F",
"Z  c #154C8A",
"A  c #154687",
"S  c #15538B",
"D  c #155B89",
"F  c #155895",
"G  c #174A96",
"H  c #15678C",
"J  c #007A8C",
"K  c #007485",
"L  c #16758C",
"P  c #156796",
"I  c #157B94",
"U  c #007A8C",
"Y  c #1A57A2",
"T  c #3747A7",
"R  c #2C50A7",
"E  c #186FA6",
"W  c #3270B2",
"Q  c #337A85",
"!  c #4C479A",
"~  c #5C5B99",
"^  c #767C83",
"/  c #697390",
"(  c #4542A8",
")  c #4B44AA",
"_  c #4A49AA",
"`  c #524CAD",
"'  c #544FA3",
"]  c #4954AD",
"[  c #5954AB",
"{  c #5D5AB3",
"}  c #5855B1",
"|  c #4C5AB0",
" . c #615EB1",
".. c #4869B4",
"X. c #5865B6",
"o. c #5178BA",
"O. c #6765A9",
"+. c #6462B6",
"@. c #686ABA",
"#. c #6974BD",
"$. c #7477BB",
"%. c #736FB8",
"&. c #737BC1",
"*. c #6B7EC0",
"=. c #807EBD",
"-. c #00869A",
";. c #15849B",
":. c #168599",
">. c #328895",
",. c #068DA5",
"<. c #158BA3",
"1. c #1488A7",
"2. c #0195AB",
"3. c #019BAE",
"4. c #0991AB",
"5. c #1595AB",
"6. c #019DB4",
"7. c #0A9AB5",
"8. c #1599B5",
"9. c #1889B3",
"0. c #3296AF",
"q. c #00A2BA",
"w. c #08A4B9",
"e. c #14A4BA",
"r. c #33A1B1",
"t. c #508D96",
"y. c #7A828C",
"u. c #6D8393",
"i. c #738B9B",
"p. c #788997",
"a. c #73939D",
"s. c #5488B8",
"d. c #7B92A3",
"f. c #7C94A8",
"g. c #7290A6",
"h. c #57ABB7",
"j. c #6FABB4",
"k. c #04ACC2",
"l. c #15ABC2",
"z. c #05B7CB",
"x. c #16B6CA",
"c. c #05BDD1",
"v. c #17BED1",
"b. c #32AFCB",
"n. c #3A9CC2",
"m. c #5392C3",
"M. c #7687C5",
"N. c #7998CA",
"B. c #688EC5",
"V. c #4FAFCE",
"C. c #66B5D3",
"Z. c #78B9D7",
"A. c #76AACD",
"S. c #0AC4D6",
"D. c #1AC5D7",
"F. c #28CADB",
"G. c #36C8D8",
"H. c #35D4E2",
"J. c #51C9D9",
"K. c #70CBDC",
"L. c #4AD7E4",
"P. c #5ADAE6",
"I. c #67DBE7",
"U. c #77DAE5",
"Y. c #7BCCE0",
"T. c #7AE1EB",
"R. c #69E1EA",
"E. c #828E9A",
"W. c #858D95",
"Q. c #87929C",
"!. c #8C9198",
"~. c #849AAC",
"^. c #8997A4",
"/. c #959DA5",
"(. c #878AB6",
"). c #889AB2",
"_. c #8F95B0",
"`. c #98A3AD",
"'. c #8CA3B4",
"]. c #8FA6B8",
"[. c #95ABBC",
"{. c #9AADBD",
"}. c #98A7B4",
"|. c #99ACB9",
" X c #A3A6AC",
".X c #A4ACB3",
"XX c #A7ADB6",
"oX c #A9B1B9",
"OX c #B4B8BC",
"+X c #9699C9",
"@X c #8D8CC8",
"#X c #9BACC2",
"$X c #9CB2C3",
"%X c #9FB6C8",
"&X c #81B7D7",
"*X c #A2B7C8",
"=X c #A4BACB",
"-X c #AABDCD",
";X c #A7B8C5",
":X c #B6BCC4",
">X c #AABDD1",
",X c #B1B4D8",
"<X c #BCBCE0",
"1X c #B9C3CB",
"2X c #ADC1D2",
"3X c #B2C4D4",
"4X c #BBCDDC",
"5X c #B8C8D7",
"6X c #BFD0DF",
"7X c #83DBE8",
"8X c #82CEE1",
"9X c #BDC9E3",
"0X c #BED1E0",
"qX c #83E2EC",
"wX c #83C4DC",
"eX c #C4C7CA",
"rX c #C6CDD5",
"tX c #C4D2DC",
"yX c #CBD2D8",
"uX c #D6D9DB",
"iX c #C2CCE4",
"pX c #C4D4E3",
"aX c #CAD5E3",
"sX c #CCDAE5",
"dX c #CBDBEA",
"fX c #C8D8E8",
"gX c #D2DCE5",
"hX c #D3DEE9",
"jX c #DADDE2",
"kX c #D5E1EB",
"lX c #DBE4EC",
"zX c #DCE4E9",
"xX c #DBE7F2",
"cX c #E3E9EE",
"vX c #E5E8EC",
"bX c #E3EBF2",
"nX c #E8ECF3",
"mX c #EDF2F6",
"MX c #F3F4F5",
"NX c #F3F6F9",
"BX c #F9FBFC",
/* pixels */
"                                                                                                                                                                    ",
"                                                                                                                                                                    ",
"                                                                                                                                                                    ",
"                                                                                                                                                                    ",
"                                                                  < t.0.0.r.r.0.0.<.>.L ; =                                                                         ",
"                                                          t.h.V.L.L.L.P.P.L.L.L.L.H.H.F.G.D.l.I > $                                                                 ",
"                                                    t.h.P.P.P.I.J.J.V.V.V.V.V.h.V.n.V.b.b.G.F.F.F.c.-.> @                                                           ",
"                                                h.K.R.I.I.K.C.V.m.B.m.o.......W ..W W W W n.n.l.b.D.F.S.z.J *                                                       ",
"                                            j.I.R.I.K.C.C.m.B.o.o.X...| ] ] ] ] T T T T R R R Y W 9.8.v.D.S.c.U $                                                   ",
"                                        a.K.I.U.K.Z.B.B.#.X.{ } } ` _ _ ( ( N N N N N N B B B B k B Y E 9.l.v.S.k.>                                                 ",
"                                      A.R.U.Y.Z.N.B.*.X.{ } } ` _ ) ( V V V M M m m m c x x z l u j j k Y Y 9.k.D.c.-.*                                             ",
"                                  a.U.T.U.K.N.B.*.*.X.{ } ` ` V V V V M M M m m m m x x l u z u u r r j j k G E 8.x.S.z.:                                           ",
"                                j.U.T.8XA.N.*.&.+.+.} ` ` ) V V V M M m m m m m x x x l x l i y y r e r r j d h F E e.D.c.J                                         ",
"                              j.T.7XZ.A.M.&.+.&.{ } ` ` V V V V M c c c x x l l x z z l l l u y t t e e q w r d k G P 8.x.c.-.                                      ",
"                            j.qX7XwXN.&.&.*.+.{ } ` ` V V M m m c x l l l l l l l l l l l u u r t t e e q w w w 0 d h F 1.x.c.-.                                    ",
"                          j.T.7XZ.N.M.&.&.{ { } ` ` V V V m m m l l l i l i l i l u u l u u y y t e e e q q q w w 0 a h F 1.x.c.,.                                  ",
"                        j.qX7X&XN.M.&.+.{ { } ` V V V m m m m i i i i y u u u u u u u u u u t t t t e e 8 8 8 8 6 6 7 0 h F ,.k.c.-.                                ",
"                      a.U.qXwXN.M.$.&.+.{ ` ` V V V V m x x i i i y y t y y y y t y u y u u u t t e e e e 8 8 8 6 6 8 8 0 h F 9.x.c.J                               ",
"                      U.qXwX+XM.&.%.+.{ } ` V V V m M b ) +.&.@X+X,XiXaXaXaXaXaXaXiX,X@X@X%.{ V l i t e e 8 8 8 6 6 9 & 0 a f F 5.x.z.:                             ",
"                    Z.qX8X&XM.M.%.+.{ ` ) V V ) } @X,XiXcXcXvXcXcXxXcXlXcXcXlXlXlXjXzXzXhXgXkXkX<X+X&.N t e 8 8 7 6 6 9 9 0 s h P e.z.6.*                           ",
"                  j.U.7XZ.@X=.%.+.+.} ` V V &.<XBXBXmXvXcXcXcXxXcXcXxXcXxXlXlXlXlXlXlXhXkXzXzXxXxXxXxXlX@XV t 8 7 7 6 6 9 9 = e A E w.c.,.                          ",
"                  Y.qX&XN.=.&.+.+.{ V V V @XBXMXmXmXmXcXlXkXzXlXhXjXkXjXjXzXzXzXlXlXlXlXzXkXzXzXxXxXcXcXnXjX+.8 8 7 6 6 6 9 7 q f S <.x.z.>                         ",
"                A.qX7XA.&.&.&.{ ` ` V V M mXBXlXlXlXzXzXkXsXaXtXaXaXaXaXsXgXsXgXhXjXhXhXkXzXlXlXxXxXcXnXnXgX+Xe 8 8 7 7 6 6 6 0 d h H 8.z.2.$                       ",
"                U.7XZ.@X&.&.+.{ } V V M m iXBXMXvXzXkXkXgXkXhXgXsXaXgXgXsXsXgXgXhXgXhXhXkXkXzXzXlXxXlXhXaX-X(.e q 8 7 7 6 6 6 9 w s Z <.l.z.J                       ",
"              j.T.8XA.M.&.{ { { V V V V m 9XdXbXmXNXnXnXcXkXhXjXgXgXgXsXgXgXsXgXgXgXkXkXlXxXxXxXlXsXyXrX:XW.(.8 q q q 8 8 7 7 6 0 a h P 5.z.6.$                     ",
"              U.7XZ.M.&.&.{ ` V V V m x i iXdXfXxXmXmXbXlXbXcXbXcXcXcXlXlXlXlXjXkXgXuXtXrX1X.X`.Q.y.OXeXOXW.$.e q q q q 8 8 7 6 7 0 d A 1.l.z.J                     ",
"            j.T.U.N.M.%.+.{ } V V m x x i iXdXfXxXnXbXfX4XcXkX4XiX4XtX4X5X5X3X-X{.}./.p.3 5 1 - % 1 XXeX:X!.$.w e e e q 8 8 7 6 9 9 a h H 8.z.2.@                   ",
"            C.T.Z.N.&.@.+.{ V V V m x i u fXdXfXxXnXbXfX4XcXaX2X-X=X*X$X#X[.[.'.'.~.f.i.u./ 3 3 5 3 OXeX:XW.(.t e e e q q 7 7 7 9 9 0 s S 1.l.q.:                   ",
"            U.U.A.M.+.{ } ` V V x x i i t <XhXfXhXnXbXfX4XbXsX3X2X-X=X*X$X{.{.[.'.'.~.~.~.d.a.i.u.p.1XyX1Xp.$.t t e e e q q 8 8 7 9 9 d h I e.z.,.O                 ",
"          j.T.Y.A.*.&.{ } V V m x x u u t @XiXkXxXnXbXfX4XlXsX3X2X2X=X%X$X$X[.[.'.'.~.~.d.d.i.i.u.a.1XyX1X/.$.p t e e e e q 8 8 7 7 9 a h H 5.z.6.$                 ",
"          j.R.Z.B.*.} } ` V V m x i u t e hX;XW.aXmXnXhXpXbXsX2X2X-X=X%X$X$X{.].'.'.~.~.d.d.a.u.u.p.1XyXyX5X+Xt t t e e e q 8 8 7 9 9 0 s S 1.l.q.:                 ",
"          K.T.C.M.*.} ` V V V m l i y t e kXMX/.!.:XeX;X;XzXsX3X2X2X2X=X%X$X#X[.[.'.~.f.d.d.a.p.y.a.rXjXxX9X@Xy t t e e e q q 8 7 6 6 0 d A I e.k.U O               ",
"        5 I.U.C.B.+.} ` V M m m i i y y e 9XxXNXNXvXeX!.4 OX`.3 y.p.Q.^.^.^.^.d.d.p.p.y.p.W.W.!./..XjXzXyX!.(.y t t t t e q q 8 7 7 7 6 0 g L 8.k.2.+               ",
"        t.I.K.N.*.{ } ) V m m l i y t e e iXfXfXlXNXBXmXvXnXyXOXXX X/./.!.!.!.!./.`..XoXoXXXoX.X`./.eX1XOX!.(.u y u t t e q q q 8 7 7 6 0 f H 5.k.6.$               ",
"        t.R.K.B.X.{ } ) V M m i i y e e e iXdXdXkXcXxXsXtXcXxXkXkXkXsXsXtXtXtX5X1X1X-X:XXX^.p.4 3 4 OXeX:X/.(.u y u t t e 8 e 8 8 7 8 8 0 f F 4.k.q.;               ",
"        h.R.C.B.@.{ ` V V M m z i y r e e fXdXfXkXbXxXpX4XzXtX2X-X*X%X$X$X#X[.'.'.'.~.~.'.|.|.`.!./..XOX:X`.+Xm u u t r e e e e 8 8 7 & 0 s S -.e.q.:               ",
"        h.R.Z.B.X.} ` ( M m x l i y e t e 9XdXfXkXbXxXpX4XzXtX3X2X-X=X*X$X$X[.[.].].}.{.;X`.!.`..XoX.X`././.#XV m i y t e e q 8 8 6 6 6 0 s S ;.w.q.K .             ",
"        h.I.C.B.X.} ) V m m l l i t t e e +XdXkXkXbXxXsX4XkXpX3X2X2X=X*X$X$X[.[.|.|.{.2X!.W.OXjXvXmXMXzX:XW.(.( m m i t e e q 8 8 7 6 6 0 s A ;.e.6.U o             ",
"        h.R.C.o.X.] ) V m m x u u t t e e iX1X2XxXmXxXpX4XkXtX3X2X-X=X*X$X$X{.[.{.{.1X/.^ yXBXBXBXBXBXBXMXrXQ.%.V m i t e q e 8 8 7 8 8 0 a Z I 8.6.-.o             ",
"        V.I.C.*.X.` ) V m m x l u y t t r cXuXy.`.tXkXkXdXxXsX3X3X-X=X$X$X$X{.{.{.;X|.y.yXBXBXMXMXMXMXMXMXNX1XQ.} M x t e e e 8 8 7 8 e = s Z ;.8.q.-.O             ",
"        h.I.C.o.| ` ) V M m x i u y t t t iXmXjXOX.X X!.Q.1X3X2X2X2X2X>X-X%X$X*X*X1X^.XXMXMXMXBXMXMXMXMXMXvXyX/.&.V m i t e e 8 8 7 6 6 & q Z I 8.6.-.O             ",
"        h.P.C.s.X.` ) N m m x l i u y y t 9XdXbXNXmXjX.X!..XW.4 ^ ^ u.i.p.p.p.Q./.}./.rXMXMXMXBXMXMXMXvXjXuXrX+X(.V m i t e 8 e 8 8 6 6 9 r S ;.7.6.-.o             ",
"        t.P.C.m.X.] ) V M m x l i u u y u iXdXdXkXbXbXbXzXzXuXeXeXOXXX.X X.X.XoX:XoX`.uXBXMXMXMXvXjXjXuXyXeXeX X(.` m i t e e 8 8 6 8 8 9 s S -.7.q.J o             ",
"        t.L.C.m.X.` V V M m x l l u y y y 9XdXdXdXkXkXsXtXkXsXtXaXaXtXtX4XrX1X3XrX:X.XuXnXvXvXvXvXjXuXeXeX:X,X`._.` m i t e e 8 8 8 6 8 0 f D ,.7.q.K X             ",
"        Q L.J.m.X.] ( N m m x l l i i y y 9XdXdXkXkXkXpX4XtX4X3X-X-X=X=X$X$X#X$X=X{.}.rXlXvXvXzXjXuXuXeXeXeX:X_.@XV m i e e q 8 7 7 6 e 0 f H <.w.q.: .             ",
"        < G.P.m...] ( N m m x x x i i i u ,XdXdXdXkXhX0X4X0X4X3X2X-X=X*X$X$X{.#X$XoX`.1XuXkXzXkXuXuXuXeXeXeX Xy.=.V m i t e q 8 7 7 6 = a A H <.q.q.; .             ",
"          V.P.m...] ) N M m x l l l i y y <XfXdXkXkXhXpX4X0X4X3X2X-X=X*X$X$X{.{.{.;X`.oXtXuXkXuXuXuXuXeXyXeX^ _.%.) m i t e e 8 7 7 9 0 s A L 5.3.6.*               ",
"          r.L.V.o.| ( N m m m x x i u i y bXrX].dXkXhXpX0X4X5X2X2X-X=X*X%X#X{.[.[.$X|.Q.oXtXyXyXeXeXuXuXeX^ ^ +X@.` V x y e e 8 7 7 9 0 f S I 8.6.2.@               ",
"          >.L.J.s.T ( N N m m x x l i u u 9XNX/.W.oXrXtX6X6X5X4X3X2X-X*X$X$X{.[.[.}.$X|.Q.|.1X1XeXeX:XXX^ y.;XW.5  .V V i t e 8 7 6 9 0 f H :.7.q.-.O               ",
"          - G.L.m..._ T N m x m x l i u r <XxXBXuX/.W.W.d.`.|.{.*X=X*X*X$X$X[.[.'.'.'.|.`.E./.`././.^.Q.;XeX^.2 # 1 [ V V i t 6 7 6 9 s A L <.6.q.: .               ",
"            r.L.b...T ( m m m l x l i i y 9XdXdXmXBXvXOX!.y.4 y.y.p.E.E.d.E.W.E.E.E.!.^.`..X.XXXoXoX:X:X-X;X^ # % # 1 [ V b v 6 7 0 0 s S I 5.2.6.* X               ",
"            >.H.J.0.T T N m x x l i i y y 9XdXdXfXdXkXmXNXxXuXyXeXOX X X X X`. X XXXoX;X:XOX:X;X.X}.`.'.`..X+X/ # % # 1 [ b c 6 7 0 a h H -.7.6.-.+                 ",
"            = G.H.n.W T N m x x x i y y y 9XdXfXdXfXpX6X4X6X0XdXgXdXgXsX0X6X4X5X3X2X;XoX].~.^.i.i.i.^.~.^.).(.O./ % # # 1 ' v 6 w 0 s A I <.q.q.: X                 ",
"              >.H.V.W T B B x l i i i y y 9XdXdXfXfXpX0X4X3X3X2X-X=X*X$X$X{.|.'.'.~.f.f.d.a.i.i.p.i.i.d.^.^.p.~ [ O.& % # 1 ' 6 7 0 g K :.4.2.2.$ o                 ",
"              = F.G.b.W T B l l i i y y r &.dXdXfXfXtX0X6X5X3X3X2X-X=X*X$X$X{.].].'.~.~.f.d.i.i.u.u.i.^.d.E.~ ! ' C [ % & # & & & r S I 1.3.q.J o                   ",
"                :.H.b.W R B z z i y y y e i @XfXdXpX0X0X4X4X5X3X2X2X=X*X$X$X{.[.].'.~.~.f.d.i.u.u.p.p.f.d./ ! ! C b x V & # 2 8 a g H :.4.2.6.* X                   ",
"                = x.G.b.R R n l y y y e e e e } >XpX0X0X4X4X3X2X2X2X=X=X%X$X{.[.'.'.~.~.f.d.a.i.u.u.i./ ~ ! c r t p x v ' ~ ! & f S I 1.3.q.J o                     ",
"                  L F.v.9.R k z y r r e e e e e c { +X5X4X9X3X9X2X=X=X*X$X$X{.].].'.~.~.f.g.i.u./ / O.! b l e 7 8 p t y p p j j A L :.2.6.3.$ o                     ",
"                    5.F.b.W R j j r r q e e q q q e y M X.(.+X#X-X*X*X$X$X$X[.].'.f.(.f.i./ / [ ' b l y q 7 7 7 8 6 p 8 p d s A H :.1.2.q.: X                       ",
"                    = D.D.l.E k j r q q e e q q e q e e e e e i ( [ O.O.O.O.O.O.O.O.' V C c m y r w q 8 7 7 7 6 6 6 & 8 a s g D I 5.3.q.-.@ O                       ",
"                      > S.D.8.Y G j r q q q q 8 q q q q e q q e e q q q q q q e e e q q e e e q q 8 8 8 7 7 7 6 7 7 & 0 & f D U 1.2.6.2.* .                         ",
"                        U S.D.8.Y k j w w q 8 8 8 q 8 q 8 q q q q q q q q q q q e e q q q e q q q 8 8 8 7 6 6 6 6 8 q a j F I 1.2.2.6., o                           ",
"                          ,.S.v.9.Y k d r 0 w 7 8 8 8 8 8 8 8 8 q 8 8 8 q 8 q q q 8 q 8 e q e 8 8 8 8 7 7 6 8 8 9 0 w h D I ;.,.2.q.K O                             ",
"                            ,.c.x.4.E k d d w 7 7 7 8 8 8 8 8 8 8 8 8 8 8 8 8 8 8 8 8 8 8 8 8 8 8 7 7 6 6 7 7 q * s ; D I ;.,.2.q.J + o                             ",
"                              ,.c.v.8.P G h d w w w 9 7 9 7 7 7 6 6 6 8 6 8 7 7 7 7 8 7 q 6 6 6 q 6 6 6 & 9 0 a f Z H I ;.2.2.q.J @ o                               ",
"                                -.c.v.e.E F h s a a w 9 9 7 6 7 6 6 6 6 6 6 7 7 7 7 7 7 q 6 6 6 6 9 9 9 q q s g S L :.<.3.2.q.J @ .                                 ",
"                                  J c.z.e.5.P Z h d a 0 7 7 9 6 6 6 8 8 6 8 8 7 6 6 7 7 6 6 9 6 = 6 0 a s f Z K I :.,.3.6.q.> + .                                   ",
"                                    : 6.z.v.8.1.P G h s 0 e 8 = 6 6 6 e 6 & 7 7 6 6 7 7 9 9 0 0 e q s h Z H I I 1.,.,.q.2., O O                                     ",
"                                      * ,.z.z.l.8.;.P S A f s a a 0 0 = = 0 0 w 9 0 0 0 a a s s f A S H L ;.1.,.3.6.q.-.* X                                         ",
"                                          > 6.z.z.l.8.1.P P S Z g f f s e s a a s s s f g g Z S H L :.:.,.7.6.2.q.2.> @ .                                           ",
"                                            $ J 6.z.z.l.e.5.<.I L P D S G G Z Z A Z S H H L I I :.<.9.7.3.6.q.6.J $ o O                                             ",
"                                                * K 3.q.z.k.l.e.8.5.<.1.;.I 1.I -.;.;.:.,.<.5.4.7.3.2.6.q.2.J * O X                                                 ",
"                                                    @ : ,.q.q.k.k.w.k.e.w.e.e.8.8.8.7.7.3.q.6.2.q.q.6.-.> $ o .                                                     ",
"                                                        O $ : U 2.6.q.q.k.6.6.q.q.6.q.q.q.q.6.2.U > * + . o                                                         ",
"                                                              o + $ ; : K U U U -.-.J K : ; * @ O . o                                                               ",
"                                                                        . X o O o X o . . .                                                                         ",
"                                                                                                                                                                    ",
"                                                                                                                                                                    ",
"                                                                                                                                                                    ",
"                                                                                                                                                                    ",
"                                                                                                                                                                    ",
"                                                                                                                                                                    "
};
