/* XPM */
static char *fhj01_xhidw[] = {
/* columns rows colors chars-per-pixel */
"82 82 77 1 ",
"  c None",
". c #00BCBE",
"X c #02BEC0",
"o c #06BFE0",
"O c #03C2C4",
"+ c #08C4C6",
"@ c #0AC6C9",
"# c #01CACE",
"$ c #0DCACD",
"% c #10CCCE",
"& c #01CDD3",
"* c #0FCBD1",
"= c #06C2DE",
"- c #08C7DF",
"; c #05CCDD",
": c #12CED4",
"> c #03D1D6",
", c #0BD4D7",
"< c #05D4DD",
"1 c #0AD5D9",
"2 c #05D8DF",
"3 c #0CDADD",
"4 c #15D2D4",
"5 c #18D4D6",
"6 c #16D5DA",
"7 c #1AD6D9",
"8 c #12DCDF",
"9 c #1CDADD",
"0 c #06C0E2",
"q c #0AC4E5",
"w c #06CCE2",
"e c #0EC9E7",
"r c #0FCAE8",
"t c #12CCE6",
"y c #12CCE9",
"u c #06D5E2",
"i c #0CD3E6",
"p c #06DAE2",
"a c #0BDCE5",
"s c #0FDDE8",
"d c #16D1E7",
"f c #19D5E5",
"g c #16DEE1",
"h c #1DDDE4",
"j c #15D2EA",
"k c #19D5EC",
"l c #14DBEA",
"z c #1DDBEE",
"x c #20DEE3",
"c c #21DEED",
"v c #23DEF0",
"b c #0FE0E7",
"n c #13E1E5",
"m c #1EE1E6",
"M c #14E3EA",
"N c #1CE4ED",
"B c #1DE8EE",
"V c #1FEAF0",
"C c #22E1E6",
"Z c #28E4E7",
"A c #24E4EB",
"S c #29E6EB",
"D c #26E8EE",
"F c #2BE9EE",
"G c #23E4F1",
"H c #29E6F2",
"J c #21EAF0",
"K c #2BECF2",
"L c #31EEF2",
"P c #31EEF8",
"I c #2FF0F6",
"U c #33F1F6",
"Y c #38F4F7",
"T c #35F4F9",
"R c #39F6FA",
"E c #3DF9FC",
"W c #40FDFF",
/* pixels */
"                                                                                  ",
"                                                                                  ",
"                                                                                  ",
"                                                                                  ",
"                                 $:$$$$$@@++OO                                    ",
"                             4488nnMMMnMMbbp31&OOX                                ",
"                          54gMMMNMMlMllllssaaaaa2>...                             ",
"                        5nNBNNNzzlljjjididrjiiipapp2#..                           ",
"                      7mBNNNzkkkjjjjydyyytrerreewiuppp&..                         ",
"                    5mNVNNzkkkkkjyyyyryyeerqrqqwqqwwuu2<#.                        ",
"                   7BBNNzzzkkjyyyyyrrrrrtrrqqqqqwqq0wwuup>..                      ",
"                 5NDBDzzzkkjjykyyeyrrrrqrrqqqqqq0qow00w;u2<#.                     ",
"                fNDJvvzkkkjjkryryerqrrqrqqrqqqqqqo00000ww;<p>.                    ",
"               9BVNNzzkkjjjyyyrrqeyqqqrqrqqqqqqo0qq0000==w;<2&.                   ",
"              9AVvvvkkkkjjjyrrrreqrqqrqqqqqqqqqqqoooo00=0==;<<>.                  ",
"             9BDVvkzzkkjyyyyrrqqqqqqqqqqqqqqqqqooqoq0000====;<<&.                 ",
"            9AJGzzkkkkyyyyrrrqrqqqoqqqqqqqqqqqqqqoqooooooo===;<<&.                ",
"           9DJGvvzkkkkkyyrrqrqqqqqqqoqoqoqoqqqooqoooqooq0o00==;<2&.               ",
"           mJJNzzzkkjyrryreeykvvvPPTTTTPPPHHvkkyrqqoooqo000o===;<2&.              ",
"          9BDNvzkkkyyyyyjvKTRRRRRTRRRTRRRRTRTTTTPGzrqooo0o00====;<>..             ",
"         9AVvvkvkkkyyyvPEEERRRRRRRRRYRRRRRRRRRTRTTRRHyqoooo==o===;<&.             ",
"         mDVzvzkkkyyyvWREEEERRTYRTTRRYRRRRTRTRRRTTRRRTko0o=oo=o=w&<2#.            ",
"        fBVvvkkkykyyqWWPRRRRRTTTUPRPPUTRTTRTRRYRRRRRRTHo00o=o=o===;<<..           ",
"        NVvvvkkkyyrrqPWWRRTTYYTTYRPRRTTTTTTRTRRTRRRRTKvo00o=oooo==;<<#.           ",
"       9DJczkkkyyyroqPRREERRETTRRTTYTTTTTTTYREYEYYUUKxcq00qoo00o===;<<..          ",
"       mBNvzkkkyyryrqTTTREEERRRRRYRRRRRYYTTUPKFCxxFLLxco00oooo00o==;<<#.          ",
"      9BBvzkkkyykoorqPTTRRRTIRRIUTPUIKKFHSCh96::::FLLxcoo00oo0000===;2>..         ",
"      9JBvzkkkyyorroqPTTRERTIRTKKKHDDDDDANAhhh9879FLKxco000q000oo===;<<..         ",
"      mVvzkkjyyryooooRTPRRETKETKIKHDDDDDAANACmmhhmKUKxcqqoqo0oooo0==;<<&..        ",
"     5NJzzzjkyyryyyoovYYREETIRTKKKKKKDDDDACANmmhhmLUKDzooqooqooqo====;<<..        ",
"     9BNzkkjyyyqoooooRHxPEETPRTIKKKKHDDAAAAmChmhhhFYPPVqqooooooo0oo==;<<..        ",
"     9BNzkkyyyrroyoyoWWvCKIFKRTKKIKKKDDDJAAAAmmhhCUYTPvoqqqqooqo00o==;<<O..       ",
"    4MNNkkkyyrrrqq0q0TREWYUm9FChhmCCCCNCCxhxxxCCCFYYLZcqq0oooooq00====u<#..       ",
"    4NNzkkkyyrqqqqqq0PTPYEEERRYFFZZCCZCZZSSDFFFFSZLLLxcqoqqqqoooo0oo=;&2&X.       ",
"    4BNzkkkyrrqqqqq00PTTYERTTRRRTTTTUUUILKKKDZx999FLLxcqqqooqoooo0oo==<<<..       ",
"    4BNzkkyyrrrqqo000TTTTERTIRTKKKDKDDDAAAAAADDAZZSLLSHqqqqooooqo=o=o=;<<..       ",
"    5BMkkyyyrrqqqqoo0PTTTRRTIRTKKKKKDDDDDDADFSCZZFFZZZHtqqqoqooq0o0o==;<<...      ",
"    5BNkykyyrqqqqooq0HTRTERTITUKIKKFHDDDSSDKCxFYREEYFCAtrrqqoooo00=ow=;<<...      ",
"    4Nzkkkyyrqqqqoqo0PIFEERTITTKKKKHDDDDDDKS9UWWWEWWEUCzrrqoqoooo0ooo=w<<...      ",
"    6NNkyyyyrrrqqqqo0EUmNPTTTRTIIKKHKDDDDKD9YWEWEWEEWEFAjrrqoooqoo====;<;...      ",
"    4BMzjjyrrrqqqqqqoPRTFFDCCIKFKKKKKHFKDKCFWEEWWWWWWYPAzrqqoroo00oo==;<<...      ",
"    4MMkjyyyrqqqqqoqqPTREEYFCZC98hhxhxmCAFZUEEWEYWYWYYPSvyrqoooo0o0===;<<...      ",
"    4NlzjjyyrrqrqoqowPTTTERRYYYILLFSFSSFLFZYEWEEWLYYLLLSvjqqqooo00oo==<2;...      ",
"    $Mlljjyrrrqqqqqq0PTTTTTTYTTTUUUULPLLUFAYYEEEWYYLLLLSvjrqqooooo=o==;<>...      ",
"    $nMljyrryqqqqqqqqPTTTRTTITIKKKKJKGDKFDSUYYRYLYYLLLLCvyrqoooooo0===<<&...      ",
"    $8MljjyrqqrrqqqqqHTPTRTTIUIIKKKKHDDDFDSLTYYYYLYLLLZxvrrqqoqoo=0==w<<&...      ",
"     4Nljyyryqqqqqqq0PTTTTTTIIIKKKKKDDDDDKAFYYYTLYLYULzvkyrqqooo00===;<<O..       ",
"     %MljyyryrrqqqqqqRUJTTTTIIIIKKKKKDDDDFDCDUUUYLLYLhfHkjyqqqooo=0==;<<...       ",
"     $MMltrrreqeqqqqqPESmDIUUIIIIKKDDDDDDSDDxSLLFLLZ9xFm6kyyqqooo0===<<<...       ",
"     @3MjidrreeqqrqqoPREYZCCmZSDHFKDHDDADDASDCCSZZZZFPZ5@:yyrqq0oo==;<<#...       ",
"      $nljyryqqqqqqoqPPTEWYLCm99CCCCCCCCxxCCSSSFFFFLKFx$*@:jttqo====;<<....       ",
"      @bbarrereqqqqqqPPTTTTRERTTLFFSZFSSSSSLKFKKSSAZASAf**@:yyq00==;<<;...        ",
"      O,blieeqrqqqqqqTTPTTTIIIITYTTTTUIIPKHDGDCmmmCCAACkf$*@:jq0===;<<#...        ",
"       @bbieeqrqqqqq0PTTTTTIIIIKKFKDHDDADCAAxNhhhhmCCAhdkk*$$:t===;;<;....        ",
"       +1bseeeqqqqqo0zTPTTIIIIIKKKKKDDDDAAAmChmhhhmmmCfdtyf:*$:===;<<#...         ",
"        +aaierqqq0qqqqVPPIITIIIIKKKDDDDDSANANmmhhhmmmfdrteqj*@4o=;<<<....         ",
"        O>baeweqoqqqooqjPPPPPPPPIKKDKDDDDAmCNxmhhmhhfttqoqqqffd=;w<<#...          ",
"         O3aieqqqqooqoooqjVPPKKPKKKKDDDDAGANAhmhhfftt00o00qq-q-=;<<&....          ",
"          Oppiw0qoqooqoqo0qrjNVGKKKKDDDAVGvVzhffdeqq0o00oo0=-=--<<;....           ",
"          .>apwwqqooooooo0qooqqqrjjlkkfkkjjytqqq0o0000oo0=o====,<<#....           ",
"           X<puw000ooqoo0oooqooqooq00000ooooqo000o00=oo=o=====<<<&....            ",
"            X<puwwwooooqqooqooooqoo00000qoqoo00o00o0oo0ooo==-<<<&....             ",
"             .<puww0qooooooooooooo0oo000oooooo000000o=o===0;;<1&....              ",
"              .<puww0qoqooqoqooqoo000000oqooqo0o0o00oo====;<<<&.....              ",
"               .>p<ww0=0=000=oo0=oo0=oooo0o0=oo0=oo==o==w=<<<&.....               ",
"                .>p2<w======0==0oo0o0o=0000000o0ooo===--<<<<&.....                ",
"                 .&<2<;;-====oooo==oooooo=0oooo======-;<<<&#.....                 ",
"                  ..&p<<;;=======oo=o==oooo==0=0===;;<<<;&X.....                  ",
"                   ..#<<<<<;======o====0=======;=;;<<<<&#.....                    ",
"                     ..&<<<<1;;;;===========;;;;<<<<<<#......                     ",
"                      ...#<<<<<<<<<;;;;;;;;<<<<<<<<;#.......                      ",
"                        ....#<<<<<<<<<<<<<2<<<<;>&........                        ",
"                          .....O#&&<<;<<;<<;&&O.........                          ",
"                            ......XX..........X.......                            ",
"                               ....................                               ",
"                                    ..........                                    ",
"                                                                                  ",
"                                                                                  ",
"                                                                                  ",
"                                                                                  ",
"                                                                                  ",
"                                                                                  "
};
