/* XPM */
static char *g2mye_5uj32[] = {
/* columns rows colors chars-per-pixel */
"82 82 38 1 ",
"  c None",
". c #121212",
"X c #131C1D",
"o c #1B1B1B",
"O c #161727",
"+ c #151E24",
"@ c #16152A",
"# c #18172C",
"$ c #161B28",
"% c #1B1B2E",
"& c #151F37",
"* c #1C1E31",
"= c #141F38",
"- c #201F30",
"; c #162227",
": c #1B2425",
"> c #162429",
", c #1C232E",
"< c #17282C",
"1 c #1C2A2D",
"2 c #1E2132",
"3 c #1F2B30",
"4 c #13233E",
"5 c #1A263C",
"6 c #1D2A3E",
"7 c #232323",
"8 c #252C2D",
"9 c #232331",
"0 c #242B32",
"q c #282D34",
"w c #242D3D",
"e c #263032",
"r c #283133",
"t c #27303E",
"y c #2D333C",
"u c #32363C",
"i c #36393D",
"p c #3B3C3E",
/* pixels */
"                                                                                  ",
"                                                                                  ",
"                                                                                  ",
"                                                                                  ",
"                                 oooooooooooo.                                    ",
"                             o::8101013e01<<;:+...                                ",
"                          778ee083100,111,,111<<<;...                             ",
"                        788e00830299,9,22%,,%>,<1<<;X..                           ",
"                      78qqqy999-,92%--%%*%%%%$%%$,>><<+..                         ",
"                    7888qq-9999-9%%9%-%-%%%%%%$%%&$$>><>X.                        ",
"                   7rrqqq9999------%-%%%%%%%#%#%@@&@$$>><+..                      ",
"                 78rqqqq9999--%-%%-%%%%%%%%%%#%#$@@@@$$$><;X.                     ",
"                7qqqqqqq99----*-%%%%%%%%%#%%####&@#@@@#@$>;<+.                    ",
"               7qyqqq--99---**%%%%%%%%%%%%#%#%##O@@#@@@@O$$;;;.                   ",
"              7rqqqq-q99----**%%%%%###%##%########@@@@@@OO$$<;+.                  ",
"             7rrqq9q--------#*%*%%###%#####%%######@@@@O@OOO$;;X.                 ",
"            8rqqqq9999996664646555555555555555254-##@@@@@@@@@O+;X.                ",
"           78uqqq99999--444444444444=444=44444454=%##@@@@@@@@@+;;;.               ",
"           8rrqq9999----46ppuiityyuyyuuyyyyyyyry44=*#@@@@@@@@OO+;;X.              ",
"          7rrqq9999-----46ppppppppppiipiiiiiuuiu5445###@@@@@OO@O$;;..             ",
"         7urqqq-------%-46pppppppppipiiiiiiuuuui64444*#@@@@@@@@O$;;X.             ",
"         qrqqq9q----%%%-46pppppppiipiiiiiuuuuuuu644444*#@@OO@@@OOO;<X.            ",
"        7qqq99-----#--#-4wppppppppppiiiiiuiuuuuu4444444%@@@@@OO@$$$;;..           ",
"        9uqqq9q----%###-6pppppppiipiiiiiiiiuuuui64444444@@@@@@@OO$$;;X.           ",
"       7rrqqq--9---%##%=46pppppppppiipiiiiuuuuuu5444444=4&#@@@@@@@O$:;..          ",
"       8rqq999----%#%##-46pppppppipiiiiiiuiuuuuu544444444=*@@@@@@@OO;;X.          ",
"      7rqq99---%%-%####=4tppppppppipipiiiuuiuuuu64444444444*@@@@@OOO;;;..         ",
"      7rqqq9----%%%####%4tpppppppipiiiiiiiiuuuuut6ww66www644@@@@@@OO+;;..         ",
"      8rq999--%-#%#####-4wpppppppppiiiiiuiuuuuuiiiiuuuuuiy44@@@#@@@OO>;X..        ",
"     7erq999---%-#%####=46ppppppipippiiiiiiuiiyyyyyyyyyqyy44@@@@@@@@$;;+..        ",
"     7r09q-9---%#######%46pppppppppipiipiuuuyiuyyuuyuyyyyy44@#@@@@@OO$;;..        ",
"     8rq99----%%#######=46pppppppipiiiiiiiuiiyiyyyuyyqyyyy44#@@@@@@O$$;;X..       ",
"    7800------%########%6tpppppppiiipiiiuiuiuuiyuyyuyyyuyu54@@@@@@@@OO>;X..       ",
"    o800w---%%%%#######=4tppppppppppiiiiiiuuuuyuyuyyyyyquq54@@@@@@@@OO+>+..       ",
"    7ee0-----#%########*46ppppppppiiipiiiuuiuuutuuuyyyyqyy54#@##@@@@OO+;;..       ",
"    7e09q----%%########%46pppppppiipiiiiiiuiuuuuyyuyyyyyqu54@#@@@@@@OO$;;..       ",
"    7000----%%#########=4tppppppppppppiiiiiiiiiiuuuuyyqyut44@###@@@@@$$;;...      ",
"    :e09----%%%%####=4#=46ppppppiupiiiiiiutititiyyyyyyyyyt44#@##@@@@OO>;;...      ",
"    70q9----%%%-==4=444444t66666w66666966666664666556wyyyy44@@@@@@@@O@$;;...      ",
"    7009----%%%544444444444444444444444444444444444446uyyu44@@@@@@O@OO>;;...      ",
"    7e02----#-#5444444444444444444444444444444444444=tuyyy54###@@@@@@@$;;...      ",
"    oe80-----##54444444444444444444444444644444444445tuqyy44###@@@@@OO$;;...      ",
"    oe39---%#%#54444444tiit4446iy444ti64ttuut64444445wuyyy54@@@@@@@@@O+;+...      ",
"    o302--%--#%5444444wppppi44tpp64wppt4tppppp4444444wuyyy54#@@@@@@@OO+>+...      ",
"    oe81---=-##54444446pt4pp44tppy4yppt4ipt4ppw444444tityy44@##@@@@@O$;;+...      ",
"    o1e2---%#-#5444444wpiipt44pppitippt4tptwppw444444tuyyt44#@#@@@@@O+;;X...      ",
"     :18---#-#=5444444wppppp64piyippipt4tppppp4444445tuyyy44#@#@@@@OO$;;X..       ",
"     o33-----#=4444444tpt4tpt6pi6ppywip6tpptt4444444=wuyyy44@#@@@@OO$$:$...       ",
"     o112,-%%-%5444444tpiwuptwpt4upw4upwypw4444444444tiyyy54@@@@@@@@+$;;...       ",
"     o:0,9%%%%%5444444wppipu6tpt4wi64ypttp64444444444tityy54@@@@@@@O$>;X...       ",
"      o112%-*##54444444466644664444446646644444444444tuyyq54@@@@@@O$$;;....       ",
"      o13,,%%%*9444444444444444444444444444444444444=wuyyu54@@@@OO$$;;;...        ",
"      .:12%,%%#54444444444444444444444444444444444444wityy44@@@@OOO$;;X...        ",
"       o11,%%%%54444444444464444444444444444444444444tiyyu4=@@@@OO$$;+....        ",
"       o:1,%%%#*-w-ww99w66tututitittyytyytttwttt4ttttyutyy44@@@@O$$<;X...         ",
"        o<1,$%%##--%%-*-6wpppppppppppppppipppippyiiiiuyyyy44@@@@OO;;+....         ",
"        .:<1>%$%#####@#*46ppppppppppuuuiuiyiyyyiyyyyyyyyyy44@@@@O>;;X...          ",
"         .><,%%$#@#@@@#%4wpppppppppppppppiiiipyiiuiyyyyyuu54@@OOO;;+....          ",
"          o><,$@O@@@@@#&46ppppuipiiuiiuupiiyyuyuyiyyyyyyyy54@O@+;<+....           ",
"          .;<<*$&@@@@@@=446464446646464444444646455555544544O$$$;>X....           ",
"           .;<>$$@@@@###44444=44444444444444444=4444=4==4444@O;;;X....            ",
"            .+<>&$@@@@#@####@@@#@@@@==@##@@@@@@@$O@O@@O@OOOO+$;;+....             ",
"             .>>$$@#@@@@@@@@@@@@@@@@@@@@@@#@@@@@@@@@@@@@OOO$;;;+....              ",
"              .+>&@##@@@@@@@@@@@@@@@@@@@@@@@@@@@@@@@@@@OOOO;;;+.....              ",
"               .;>;>$$OOO@@@@@@@@@@@@@@@@@@@@@@@@@@@@@OOO;;;;+.....               ",
"                .;><>$$O@@O@@@@@@@@O@@@@@@@@@@@@@@@OOOOO$;;;X.....                ",
"                 .X;;;;O$$OOO@@@@@O@@O@O@@@@@@O@OO@O$$++;;+X.....                 ",
"                  ..+;<;$$$O@@@@@@@@O@@@@@@@@@O@@OOO$;;;;+......                  ",
"                   ..X;<;;$+O+OO@@@OOOO$@@@OO@@$$$+>;;;+X.....                    ",
"                     ..X;;<;;+$$++OOOO$O@.$$$++>+;>;;;X......                     ",
"                      ...X;;<;;;:;$$$$$$@$$;$;;>>>>+X.......                      ",
"                        ....X+;;>>;;;<;;+>;>;>;;;X........                        ",
"                          .....XX++;;;+;;;++XXX.........                          ",
"                            ..........................                            ",
"                               ....................                               ",
"                                    ..........                                    ",
"                                                                                  ",
"                                                                                  ",
"                                                                                  ",
"                                                                                  ",
"                                                                                  ",
"                                                                                  "
};
