/* XPM */
static char *_f6mn_tau62[] = {
/* columns rows colors chars-per-pixel */
"82 82 223 2 ",
"   c None",
".  c #000000",
"X  c #0C0C0C",
"o  c #171717",
"O  c #011F22",
"+  c #01353A",
"@  c #082A2C",
"#  c #282828",
"$  c #383838",
"%  c #023B44",
"&  c #023B46",
"*  c #063F54",
"=  c #16157F",
"-  c #161B7E",
";  c #15237D",
":  c #152B7C",
">  c #15347D",
",  c #153C7C",
"<  c #02444A",
"1  c #054856",
"2  c #0D535B",
"3  c #0A4A68",
"4  c #0A5768",
"5  c #15447C",
"6  c #154A7C",
"7  c #114F76",
"8  c #0D5572",
"9  c #15537B",
"0  c #155B7A",
"q  c #105776",
"w  c #15566B",
"e  c #15647A",
"r  c #15687B",
"t  c #1C6B76",
"y  c #0B6271",
"u  c #2C6B70",
"i  c #4B4B4B",
"p  c #585858",
"a  c #6D6D6D",
"s  c #646464",
"d  c #757575",
"f  c #496566",
"g  c #170F86",
"h  c #170F88",
"j  c #180F8C",
"k  c #161283",
"l  c #161A82",
"z  c #171288",
"x  c #18118E",
"c  c #181C8B",
"v  c #1B1292",
"b  c #1C1A96",
"n  c #221A96",
"m  c #261E99",
"M  c #201795",
"N  c #172786",
"B  c #173687",
"V  c #1B2792",
"C  c #1A3692",
"Z  c #2B239B",
"A  c #272799",
"S  c #30279D",
"D  c #332B9E",
"F  c #29399A",
"G  c #33369F",
"H  c #362EA0",
"J  c #3B33A2",
"K  c #3C3AA3",
"L  c #3735A5",
"P  c #2B36AE",
"I  c #1F3CBE",
"U  c #423BA6",
"Y  c #174686",
"T  c #19508E",
"R  c #2C509C",
"E  c #166985",
"W  c #187689",
"Q  c #17708F",
"!  c #287098",
"~  c #3954A2",
"^  c #3245BA",
"/  c #374ABC",
"(  c #3442AF",
")  c #3B77A3",
"_  c #4342A6",
"`  c #4741A8",
"'  c #4B44AA",
"]  c #4D4AAB",
"[  c #474CA8",
"{  c #524CAD",
"}  c #4858A8",
"|  c #5552AF",
" . c #5459AE",
".. c #5A55B1",
"X. c #5D5AB2",
"o. c #4552BA",
"O. c #625EB5",
"+. c #5C6AB2",
"@. c #4D71AB",
"#. c #6563B6",
"$. c #6C6AB9",
"%. c #6569B6",
"&. c #6875B7",
"*. c #7273BC",
"=. c #757BBD",
"-. c #706FBB",
";. c #467D82",
":. c #0C48DA",
">. c #3456CD",
",. c #025BF6",
"<. c #0055FF",
"1. c #005CFF",
"2. c #0D5CFD",
"3. c #105BEA",
"4. c #0163FF",
"5. c #0A65FF",
"6. c #0E69FF",
"7. c #0863F9",
"8. c #126BFF",
"9. c #1C6EFF",
"0. c #1465F8",
"q. c #1B74FE",
"w. c #1671FF",
"e. c #2D6BE9",
"r. c #2766E8",
"t. c #306FEA",
"y. c #326BE7",
"u. c #3472ED",
"i. c #2379FF",
"p. c #2C7EFE",
"a. c #2076FF",
"s. c #3079FB",
"d. c #4558C3",
"f. c #5968C7",
"g. c #757EC7",
"h. c #1C8196",
"j. c #34889B",
"k. c #288698",
"l. c #388CA2",
"z. c #4D8E94",
"x. c #6D9495",
"c. c #4A99A9",
"v. c #5A95B1",
"b. c #528EAC",
"n. c #6789B8",
"m. c #7584BE",
"M. c #6A97B9",
"N. c #7497BE",
"B. c #779FA0",
"V. c #5DA5B2",
"C. c #79A8AB",
"Z. c #67ABB7",
"A. c #75AAB9",
"S. c #77AFB5",
"D. c #3B85FC",
"F. c #3885FE",
"G. c #7B89C1",
"H. c #7D99C2",
"J. c #6E84D9",
"K. c #7CA8C1",
"L. c #7BB6C3",
"P. c #438BFD",
"I. c #488CFC",
"U. c #4991FF",
"Y. c #4792FD",
"T. c #5899FC",
"R. c #6598F7",
"E. c #6BA5FE",
"W. c #68A3FC",
"Q. c #72A9FA",
"!. c #7AAEFB",
"~. c #7FB1FB",
"^. c #81B4BB",
"/. c #8199C4",
"(. c #82A6C4",
"). c #83B5C5",
"_. c #8FB7E8",
"`. c #8EB7E7",
"'. c #93BAE9",
"]. c #99BEE9",
"[. c #90B8E7",
"{. c #85B5FC",
"}. c #8BB9FC",
"|. c #94BEFD",
" X c #9DC1EB",
".X c #9FC1E7",
"XX c #9BC2F1",
"oX c #9BC2FC",
"OX c #96C0FF",
"+X c #A3C4EC",
"@X c #ACCAEE",
"#X c #B3CEEB",
"$X c #B9D2ED",
"%X c #A6CAFE",
"&X c #ABCCFE",
"*X c #A5C8F6",
"=X c #B3CEF1",
"-X c #B1CFFD",
";X c #B5D0F1",
":X c #BBD4F2",
">X c #B9D5FF",
",X c #C1D7ED",
"<X c #C7DAEE",
"1X c #C3D9F3",
"2X c #CBDDF4",
"3X c #C3DAFD",
"4X c #C6DBF8",
"5X c #CEE1F9",
"6X c #D4E3F6",
"7X c #DAE7F6",
"8X c #DCE9F7",
"9X c #D3E5FC",
"0X c #DDEAFB",
"qX c #D8E8FE",
"wX c #E3EEFA",
"eX c #E2ECF6",
"rX c #E6F0FB",
"tX c #EBF3FB",
"yX c #EAF1F6",
"uX c #F1F6FD",
"iX c #F4F9FD",
"pX c #FEFEFE",
"aX c #F2F5F7",
/* pixels */
"                                                                                                                                                                    ",
"                                                                                                                                                                    ",
"                                                                                                                                                                    ",
"                                                                                                                                                                    ",
"                                                                  $ $ $ $ $ $ $ # # # # o X                                                                         ",
"                                                          i p f z.z.c.c.c.c.c.c.c.l.l.k.u y $ X X X                                                                 ",
"                                                    p p z.V.V.v.v.v.b.b.b.b.@.@.@.) ) l.l.k.! k.r 2 X . .                                                           ",
"                                                s x.V.Z.A.M.n.b.&.+.@. .} } } ~ ~ ~ ~ R ~ ~ ! ! h.h.h.r < . .                                                       ",
"                                            s x.Z.A.Z.n.&.&.+.+. . .} { ] ` [ _ K K G ~ F F R F T R Q Q W W 1 . .                                                   ",
"                                        s x.A.A.H.N.&.&.+.+. .| } ] ] ` ` U U K K G D D D D Z A A V C Y T E W y + .                                                 ",
"                                      a C.L.K.N.n.&.%.O.X. .{ { ' ` _ U U U J J J D D D S Z Z m b b b V B Y T E W 2 . .                                             ",
"                                  s B.S.K.N.m.&.$.%.+.X.| { ] ' U U U J J J J D D D D D Z Z m m b b b c c V B Y E E 4 < .                                           ",
"                                a C.L.K.G.G.*.$.%.O...| { ' U U U J G J D D D D D S S Z Z Z m n b b v v c c c N B 6 E E 1 .                                         ",
"                              d C.).K.G.=.*.$.O.O...{ ] ` U U J J D D S D D D Z Z Z Z Z Z Z m n n b v v x x z k l B 5 0 r 1 .                                       ",
"                            d C.)./.m.g.&.$.O.O...{ ' U U U J H D S S Z Z Z Z Z Z Z Z Z Z Z m n M b v v x z z z l l ; , 0 r 2 .                                     ",
"                          d C.)././.=.$.$.#.O...{ { U U J J D D Z Z Z m Z m Z m Z m m Z m m M M M v v v x x z z k k - ; , 9 r 1 .                                   ",
"                        d C.)././.*.-.$.O.....O.u.u.u.t.t.t.e.e.e.e.e.e.e.e.e.e.e.e.e.e.e.e.e.e.r.J v v x x j j g g = = - > q t 1 .                                 ",
"                      a ^.)././.=.-.-.O.....U f.5.1.1.1.1.1.1.4.4.1.1.,.1.1.,.4.4.1.1.1.1.1.1.1.<.y.L v x j j j g g g = = ; , q r < .                               ",
"                      ^.).(./.=.*.-.O...{ { U f.4.F.3X>X-X-X-X-X&X&X&X%X%X%X*XoX*XoXoXXXoXXXXX}.q.<.e.L x x j j g g g = = = ; , 0 r % .                             ",
"                    d ^.(./.=.*.-.O.O.{ { U U d.4.U.pXpXpXiXiXaXtXyXrXeX8X8X7X6X6X5X2X2X1X:X1X4Xs.1.<.r.P x j j g g g = = = = : 5 r 4 . .                           ",
"                  a ^.)./.G.g.-.$.O...{ U U J d.,.U.pXpXiXiXaXtXtXrXeX8X7X6X6X5X2X1X1X,X$X;X:X1Xp.4.4.1.3.( j j j g g g = = = = : 9 t 1 .                           ",
"                  ^.^./.G.=.-.O.O...U U U J S >.4.U.pXpXuXuXtXrXwXeX0X8X7X6X6X2X1X1X1X:X:X;X$X:Xp.1.4.4.1.e.o.j j j g g = = = = - , 0 e + .                         ",
"                a ^.(./.=.-.$.O...U U U U H S d.4.I.pXpXuXiXtXtXwXwX8X8X6X6X6X5X2X1X1X:X:X=X:X:Xp.4.4.4.1.1.r./ j j j g g = = = - : 5 r 4 . .                       ",
"                /.(./.G.*.-.O.O...{ U H S S S P 4.U.pXpXuXuXtXtXrXwXeX8X6X6X5X5X1X1X1X:X:X=X:X:Xp.1.4.4.4.4.1.7.P j j g g g g g = - > 0 r & .                       ",
"              d S.(.G.m.-.O.O.{ U U U H S S m / 2.I.pXpXuXuXtXtXrXwX0X8X7X6X6X5X2X1X1X:X:X;X:X:XF.1.4.4.4.4.4.,.2.>.v x j g g k = = ; 6 r 4 . .                     ",
"              x.).H.G.*.$.O...{ U U U S m m n ^ 1.I.pXpXuXuXtXtXyX0X0X8X6X6X6X2X2X1X:X:X:X;X:X1Xa.1.4.4.4.1.4.4.<.2.o.b j g g g g = - > 0 r + .                     ",
"            a S.K.G.*.$.O...{ ' U U S m m n m ^ 4.U.pXpXiXuXtXwXrXeX0X8X6X6X5X2X1X1X1X:X:X;X$X:Xp.5.6.6.5.5.7.6.7.,.4.d.j j j g g = k : 5 r 3 . .                   ",
"            a L.H.m.*.%.O.{ { U H H S m m M M ^ 4.U.pXpXiXuXtXtXrX0X0X8X6X6X6X2X2X1X1X:X:X;X$X:X!.T.R.R.T.T.T.T.T.Y.4.,.x j j j z k l ; , e e . .                   ",
"            x.L.N.=.$.O...{ U U H S m m M M M ^ 1.U.pXpXiXuXtXtXrXwX0X8X7X6X6X2X2X1X1X:X:X;X=X:X,X<X,X$X#X$X#X@X$X@X9.<.v x j j g g k - > 9 r < . .                 ",
"          s A.K.m.-.%.X.{ ' U H H m m m M M v ^ 4.U.pXpXuXuXtXtXwXwX0X7X6X6X6X2X1X1X1X:X:X;X=X@X@X+X+X+X X X'.`.]. Xw.,.x x j j g g k l ; 6 r 3 . .                 ",
"          s A.H.=.%.#.| { U U H S Z m M M M v ^ 4.Y.pXpXuXuXtXtXyXwXeX7X6X6X6X2X2X1X1X:X$X=X=X@X@X@X+X+X X'.'._.]. Xq.,.v x j j h z k - ; , e 0 . .                 ",
"          x.A.N.&.%.X.{ ' U H H m m M M M v v ^ ,.Y.pXpXiXuXtXtXwXwX8X0X6X6X6X2X1X1X1X:X:X:X=X#X@X+X+X+X X X]._.].XXq.<.v v x j h g g k - > 0 r O . .               ",
"        i x.K.G.&.O...{ U J H H m m M M v v v ^ 4.I.pXpXuXuXtXrXrXeX8X8X7X6X6X2X2X1X1X:X:X:X=X=X@X+X+X+X X.X[.[. XXXq.,.v v x j j g g = - : 9 e % . .               ",
"        p V.V.n.$.X.{ ] U H H Z m M M M M v v ^ 4.I.pXpXiXuXtXtXrXwX0X8X6X6X6X2X2X1X:X:X:X;X=X@X@X@X+X+X.X'.'.[. XXXq.,.v v x j j h g k = : 6 r 1 . .               ",
"        p Z.Z.&.#.X.| ' U J S Z m m v M v v v ^ 4.I.pXpXiXuXtXtXrX0X8X8X9X6X2X2X1X1X1X:X:X;X#X#X@X@X+X+X.X.X'.[.'.XXw.,.v v v j h h g g = ; 5 r 3 . .               ",
"        p Z.H.&.+...{ U U J H Z m M M M v v M P 4.U.pXpXiXtXtXrXeXwX8X8X6X6X6X2X2X1X:X:X;X;X=X@X@X+X+X X.X.X'.[. XXXw.,.v v x x h g g = = ; 5 r 8 . .               ",
"        s Z.M.&.X...] U J H S Z m n b v v v v I 5.U.pXpXpXpXpXiXiXaXtXyXrXeX8X7X6X6X2X2X1X1X:X$X;X#X@X@X+X+X'.[.].XXq.,.v v v j j h g g = ; , e 0 . . .             ",
"        p Z.M.+.X...] U J D S Z m m b b b b b I 6.P.uXtXrXwXwX8X7X7X9X6X2X2X1X3X:X:X$X;X=X@X@X@X+X X X X].'.].[.]. Xq.,.v v v j j g g k = - , e 0 . . .             ",
"        p Z.n.+.X.{ ] U J D Z >.:.:.:.:.:.:.:.3.4.q.T.T.U.T.T.U.U.U.U.I.I.I.I.I.P.P.P.P.P.D.D.D.D.D.D.s.D.Q.].`.].XXq.<.v x v j j g g g = - , 0 0 . . .             ",
"        p Z.n.+. .{ ' J L H Z u.4.4.4.1.4.4.4.4.4.1.<.<.<.<.<.<.<.<.1.<.<.<.<.<.,.<.<.<.1.<.1.1.1.1.<.<.,.T.#X`.].XX8.<.v v x j h g g g = ; , e 0 . . .             ",
"        p Z.v.+. .{ ` U G D S t.4.4.4.4.4.4.4.4.1.1.1.4.4.4.4.1.1.4.4.4.1.<.4.4.1.1.1.1.1.1.4.4.4.4.4.,.5.Q.,X[.].XXq.,.v v j x j g g g = - , e 0 . . .             ",
"        i V.v.+.| { ` U J D S t.1.4.4.4.4.4.6.9.q.q.6.1.4.4.5.9.9.4.4.4.9.9.5.4.8.q.9.9.6.1.4.4.4.4.4.4.5.Q.,X[.].XXq.<.v v x x j j g k k ; , e q . . .             ",
"        i V.n.+. .] ` U J D S t.5.4.4.4.4.1.U.%X%X%X~.F.1.4.I.&X}.9.<.i.|.&XF.4.E.-X%X&X{.F.5.4.4.4.4.4.5.Q.,X[.].XXq.,.v v x x j j k k - ; 5 r 8 . . .             ",
"        i c.v.@. .] ` U J D S t.1.4.4.4.4.1.Q.pXuXqXpX>X4.1.}.pXpXP.<.E.iXpXW.5.%XpXwXqXpXqXi.4.4.4.4.4.4.Q.$X[.].XXq.,.v v v x j g g k l : 6 r 3 . . .             ",
"        $ z.v.@. .[ _ J J D S t.4.4.4.4.4.1.E.iXOXF.5XqXw.1.oXtXpX~.w.oXpXuXE.4.oXpXW.6.>XpXW.1.4.4.4.4.5.Q.$X[.].XXq.,.v v j j j g g k l : 6 r 1 . . .             ",
"        # ;.V.@. .[ U U G D D t.4.4.4.4.1.1.E.uX5X-X0X}.1.6.3XrXiX-X!.5XuXuX{.w.OXiX!.s.3XpXT.5.4.4.4.1.7.Q.:X[.].].q.,.v v v j j g k k - > 0 r & . . .             ",
"          f v.b.} [ U U J D D y.4.4.4.4.4.1.E.tXrX9XrX3XP.8.wX3X&X0XtX9X%XqX-Xi.{.pXtXiXpX3Xi.4.4.4.4.4.5.Q.,X`.].XX9.<.v v x j g g g l - , 0 0 O . .               ",
"          $ c.b. .[ U U J D D u.1.4.4.4.1.1.E.pXOX5.W.pXoXF.tX&XU.5XpXoXT.5X>XF.}.pX-X}.Q.i.4.4.4.4.4.1.5.Q.:X`.].XX8.<.x x x j j g k l ; 5 r q . . .               ",
"          $ z.v.@.[ _ K J H D t.5.4.4.4.4.1.E.pX3XE.>XpXoXT.pXOX5.&XpXW.q.>X0XU.}.pXE.2.5.4.4.4.4.4.4.4.5.Q.$X[..XXXq.,.x x x j x k k - : 9 r 3 . . .               ",
"          # u c.@.} _ U G D D t.1.4.4.4.4.1.W.wXwX0XqX&XF.!.uXQ.<.E.>XF.5.%X0XE.{.tXT.<.4.4.4.4.4.4.4.4.4.Q.,X'.].XXq.,.x x j j g g = - > 0 e & . . .               ",
"            # c.) ~ ( K U D D t.4.4.4.4.4.4.q.F.D.P.D.q.1.a.D.q.1.8.i.6.4.i.D.q.i.D.q.4.4.4.4.4.4.4.4.4.7.Q.$X[.].XXw.,.x x j j g k l ; 6 e 9 . . . .               ",
"            # j.l.@.[ G D D D t.4.4.4.4.4.4.4.1.1.1.1.1.4.4.1.1.4.4.1.4.4.4.1.1.4.1.4.4.4.4.4.4.4.4.4.1.6.Q.,X[.].XXw.,.j j h h g l - > 9 r 3 . . .                 ",
"            o u l.) ~ L G D S u.1.1.1.<.1.<.1.<.4.1.1.<.1.1.1.1.1.1.1.1.,.1.1.1.1.1.1.1.,.4.1.1.4.1.4.<.,.W.,X[.].XX9.,.j j h g k = ; , e 0 + . . .                 ",
"              # j.l.~ K G D S y.2.6.6.6.6.6.6.2.6.6.8.8.6.6.6.6.6.6.6.6.6.8.6.6.6.6.6.6.6.6.6.6.6.6.6.7.6.!.:X`.].XXw.,.j j g g l - > 9 r 3 . . . .                 ",
"              o u l.) R G G Z ^ f.J.J.J.J.g.g.R.F.T.OXOX|.OXOXoX|.|.|.}.|.}.}.}.}.}.{.{.`.~.{.~.~.~.~.~.~.*X#X[.].XXq.,.g z g k l ; , e 9 % . . .                   ",
"                o k.j.~ F A A Z H U J J L L H f.F.!.pXpXpXpXpXpXpXpXpXpXaXaXaXyXyXyXeXeX7X7X7X6X6X2X<X<X,X$X X[.].XXq.,.z z k k l > 9 r 3 . . . .                   ",
"                X 2 j.! R D A A n n b M v M v P <.P.pXpXiXiXtXrXeXeX0X8X6X6X5X2X1X1X:X$X;X#X@X@X+X+X X X].[.[.`.'.XXq.,.g g = - : 6 r 9 + . . .                     ",
"                  o t k.! F A n b b b j x v v P 4.U.pXpXpXiXiXuXaXyXrXrX0X8X7X6X6X5X2X1X1X1X:X$X$X#X@X@X+X+X+X X+X*Xq.,.g = = ; , 0 e 1 . . . .                     ",
"                    o k.! R C V b b v v x x v >.4.D.wXwX7XqXqXqX6X6X5X5X5X5X4X1X4X:X>X:X:X>X;X-X-X@X@X*X@X*X+X X+X_.w.,.k k ; > q r 3 . . . .                       ",
"                    X 2 h.! T V b c x x x x x P 5.6.i.a.a.a.a.q.q.q.q.a.q.q.q.q.a.a.q.q.q.q.q.q.q.q.q.q.q.q.w.9.q.w.4.4.- ; : 7 r T < . . . .                       ",
"                      X y h.Q Y V b x x x x x P 0.,.,.,.,.,.,.,.,.,.,.,.,.,.,.,.<.,.,.,.,.,.,.,.7.,.,.,.,.,.,.,.,.,.7.3.; : 6 r 9 < . . . .                         ",
"                        . y Q Q Y V c c c x x h z x x x x x x x x v j v v x x x j v j x x x v x x j z z h g g g = = - - : 6 e 0 1 . . . .                           ",
"                          . 4 Q E C N N g z z z j h h j j j j j j j j j j j x j x v x x x x v j j h h h g g = = = = - > 6 r 0 < . . . .                             ",
"                            . 4 Q E Y N c l z z z z h h h j j j j j j j j j j h j j j x j x j j j h h g = g = = - ; , 6 e 0 * . . . . .                             ",
"                              . 2 W E Y N N - k k k k z h g g h g g g h h h g h h j j h h h h h g z g k k = = - : , 0 t q * . . . . .                               ",
"                                . 1 W E E B ; N l k k k g g g g g g g g g h g g h h h h g z h g k g k = = - : > 6 0 e 9 < . . . . .                                 ",
"                                  . < 4 E e Y B N l - k = k k g g g g g g g g g g g g g k z z k k = = - : : , q r 0 3 % . . . . .                                   ",
"                                    . . 2 r r 0 6 > : ; - = = = = = = = g g = g g g g g k k = k - - ; > , 6 e r 6 1 . . . . . .                                     ",
"                                      . . + 4 r r 0 6 B : ; ; - - = = = = = k = = = l k - - ; ; : , 5 9 e r 0 3 + . . . . .                                         ",
"                                          . . < q e r e q 6 , > : : : ; ; ; - ; ; - ; : : > , 5 9 0 r r 0 3 & . . . . . .                                           ",
"                                            . . . + 4 e r r e 0 q 6 5 , , , , , , 5 5 6 9 0 e e r 0 9 3 + . . . . . . .                                             ",
"                                                . . . . % 3 q e e e t e e e e e e e e e r e 0 7 3 & . . . . . . . .                                                 ",
"                                                    . . . . . O % 1 3 8 q 0 0 9 q 8 8 3 1 % O . . . . . . . . .                                                     ",
"                                                        . . . . . . . . . . . . . . . . . . . . . . . . . .                                                         ",
"                                                              . . . . . . . . . . . . . . . . . . . .                                                               ",
"                                                                        . . . . . . . . . .                                                                         ",
"                                                                                                                                                                    ",
"                                                                                                                                                                    ",
"                                                                                                                                                                    ",
"                                                                                                                                                                    ",
"                                                                                                                                                                    ",
"                                                                                                                                                                    "
};
