/* XPM */
static char *_7em6_o76rl[] = {
/* columns rows colors chars-per-pixel */
"82 82 236 2 ",
"   c None",
".  c #000C0E",
"X  c #000E10",
"o  c #001214",
"O  c #001619",
"+  c #00191D",
"@  c #00252A",
"#  c #002F36",
"$  c #003B44",
"%  c #00434D",
"&  c #0F434A",
"*  c #084A54",
"=  c #065A66",
"-  c #006473",
";  c #036978",
":  c #00606E",
">  c #316269",
",  c #4E7176",
"<  c #170F86",
"1  c #170F88",
"2  c #180F8C",
"3  c #161383",
"4  c #161B83",
"5  c #18118E",
"6  c #17178A",
"7  c #1B1292",
"8  c #1B1B96",
"9  c #221A97",
"0  c #261E99",
"q  c #201795",
"w  c #162383",
"e  c #152B83",
"r  c #17278B",
"t  c #153485",
"y  c #153B84",
"u  c #15378A",
"i  c #1A2795",
"p  c #183A97",
"a  c #2B239B",
"s  c #28279B",
"d  c #30279D",
"f  c #332B9E",
"g  c #26379F",
"h  c #362EA0",
"j  c #3B33A2",
"k  c #3838A4",
"l  c #2B36AC",
"z  c #1F3CBE",
"x  c #423BA6",
"c  c #154C8A",
"v  c #154687",
"b  c #15538B",
"n  c #155B89",
"m  c #155895",
"M  c #174A96",
"N  c #15678C",
"B  c #007A8C",
"V  c #007485",
"C  c #16758C",
"Z  c #156796",
"A  c #157C92",
"S  c #157898",
"D  c #007A8C",
"F  c #1A57A2",
"G  c #3847A8",
"H  c #3447BB",
"J  c #2D4CAC",
"K  c #186FA6",
"L  c #3270B2",
"P  c #337A85",
"I  c #4542A8",
"U  c #4B44AA",
"Y  c #4A4AAB",
"T  c #524CAD",
"R  c #4954AD",
"E  c #5551AF",
"W  c #5A55B1",
"Q  c #5D5AB3",
"!  c #5556B1",
"~  c #4754B7",
"^  c #625EB5",
"/  c #4869B4",
"(  c #5865B6",
")  c #5178BA",
"_  c #6462B7",
"`  c #686BBA",
"'  c #6974BD",
"]  c #7076BF",
"[  c #0C48DA",
"{  c #3456CD",
"}  c #025BF6",
"|  c #0055FF",
" . c #005CFF",
".. c #0D5CFD",
"X. c #105CEA",
"o. c #0163FF",
"O. c #0A65FF",
"+. c #0E69FF",
"@. c #0863F9",
"#. c #166BFD",
"$. c #1B74FE",
"%. c #1671FF",
"&. c #2D6BE9",
"*. c #2766E8",
"=. c #306FEA",
"-. c #326BE7",
";. c #3472ED",
":. c #2379FF",
">. c #2C7EFE",
",. c #2076FF",
"<. c #3079FB",
"1. c #4558C3",
"2. c #5968C7",
"3. c #737BC1",
"4. c #6B7EC7",
"5. c #008295",
"6. c #008A9E",
"7. c #00869A",
"8. c #15849B",
"9. c #168599",
"0. c #328895",
"q. c #068DA5",
"w. c #158BA3",
"e. c #1488A7",
"r. c #0195AB",
"t. c #019BAE",
"y. c #0991AB",
"u. c #1595AB",
"i. c #019DB4",
"p. c #0A9AB5",
"a. c #1599B5",
"s. c #1889B3",
"d. c #3296AF",
"f. c #00A2BA",
"g. c #08A4B9",
"h. c #14A4BA",
"j. c #33A1B1",
"k. c #508D96",
"l. c #5A82BE",
"z. c #4B90B0",
"x. c #659BA3",
"c. c #57ABB7",
"v. c #6FABB4",
"b. c #6A969C",
"n. c #04ACC2",
"m. c #15ABC2",
"M. c #05B7CB",
"N. c #16B6CA",
"B. c #05BDD1",
"V. c #17BED1",
"C. c #32AFCB",
"Z. c #3985FD",
"A. c #3A9CC2",
"S. c #5392C3",
"D. c #6787C2",
"F. c #7687C5",
"G. c #7998CA",
"H. c #6B8ED1",
"J. c #48A8CB",
"K. c #54B3D0",
"L. c #7AA3CE",
"P. c #66B5D3",
"I. c #78B9D7",
"U. c #73AFCB",
"Y. c #438BFD",
"T. c #488CFC",
"R. c #4991FF",
"E. c #4792FD",
"W. c #5899FC",
"Q. c #6598F7",
"!. c #6BA5FE",
"~. c #68A3FC",
"^. c #72A9FA",
"/. c #7AAEFB",
"(. c #7FB1FB",
"). c #0AC4D6",
"_. c #1AC5D7",
"`. c #28CADB",
"'. c #36C8D8",
"]. c #35D4E2",
"[. c #51C9D9",
"{. c #69C8DA",
"}. c #75CDDD",
"|. c #4AD7E4",
" X c #5ADAE6",
".X c #67DBE7",
"XX c #77DAE5",
"oX c #7BCCE0",
"OX c #7AE1EB",
"+X c #69E1EA",
"@X c #81B7D7",
"#X c #8FB7E8",
"$X c #8EB7E7",
"%X c #93BAE9",
"&X c #99BEE9",
"*X c #90B8E7",
"=X c #88B7FC",
"-X c #94BEFD",
";X c #9EC1EB",
":X c #83DBE8",
">X c #9BC2F1",
",X c #9BC2FC",
"<X c #96C0FF",
"1X c #82CEE1",
"2X c #A3C4EC",
"3X c #ACCAEE",
"4X c #B9D2ED",
"5X c #ABCCFE",
"6X c #A6C9F8",
"7X c #B3CEF1",
"8X c #B1CFFD",
"9X c #B5D0F1",
"0X c #BBD4F2",
"qX c #B9D5FF",
"wX c #B3CEEB",
"eX c #83E2EC",
"rX c #83C4DC",
"tX c #C1D7ED",
"yX c #C7DAEE",
"uX c #C3D9F3",
"iX c #CBDDF4",
"pX c #C5DBFA",
"aX c #CEE1F9",
"sX c #D4E3F6",
"dX c #DCE9F7",
"fX c #DDEAFB",
"gX c #D7E6F9",
"hX c #E3EEFA",
"jX c #E2ECF6",
"kX c #E6F0FB",
"lX c #EBF3FB",
"zX c #EAF1F6",
"xX c #F1F6FD",
"cX c #F4F9FD",
"vX c #FEFEFE",
"bX c #F2F5F7",
/* pixels */
"                                                                                                                                                                    ",
"                                                                                                                                                                    ",
"                                                                                                                                                                    ",
"                                                                                                                                                                    ",
"                                                                  , 0.z.d.j.j.d.d.d.9.; > &                                                                         ",
"                                                          k.c.K.|.|.|.|. X|.|.|.|.].].'._._.m.8.; &                                                                 ",
"                                                    k.c. X X.X X[.[.K.K.K.J.J.J.J.A.C.C.'.`.`.`.`.).6.; #                                                           ",
"                                                c.{.+X+X.X{.P.K.S.l.z.) ) / / / / L / L d.L j.A.C._._.).M.B %                                                       ",
"                                            v..X+XXX}.P.U.S.l.) ' / ( R R R R Y G G G G G J F F K s.a.V._.).M.B $                                                   ",
"                                        x.}.+XXX}.P.H.D.' ` ( ! ! R R Y I x I k k k k k h g g g l l F K s.m._.).n.;                                                 ",
"                                      U.+XOX}.U.G.D.' ) ( ! E T Y I I x x x j j j h h f d s s s s i i p M K s.m._.).q.%                                             ",
"                                  b.XXOXXXI.L.F.' ` _ ! ! T T I x x x j j j j f f f f s s a 9 a 8 8 8 8 i p M K a.m.B.M.-                                           ",
"                                v.XXOXoXU.G.3.] ' ( Q E T U I x x j h j f f f f f d a d a a 9 9 9 8 7 8 8 r r p m K m.V.B.B                                         ",
"                              v.OX:XrXL.F.3.' ` Q Q E U U x x j j f f f f f d d d s a a a a a 9 8 q 7 7 7 6 6 r i M Z a.N.).7.                                      ",
"                            v.eX:X@XL.F.3.3._ Q W E U U x j j f f d a a a a a a a a a a a a 9 q q q 7 7 5 6 6 6 r r u Z e.N.B.6.                                    ",
"                          v.OX:XI.G.F.3.` Q Q W T U x x x j f f d a a 0 0 a a 0 a 9 a a a 9 9 q q 7 7 7 5 5 1 3 6 4 w u m e.m.B.6.                                  ",
"                        v.eX1X@X@X3.] ` _ W W ^ ;.;.;.=.=.=.-.&.&.&.&.&.&.&.&.&.&.&.&.&.&.&.&.&.*.j 7 7 5 2 2 1 1 < 1 6 e m e.m.B.7.                                ",
"                      b.eXeX@X@X3.] ` ^ ^ W T ^ O. . . . . . .o.o. . . . . . .o.o. . . . . . . .| -.k 7 5 2 2 2 < < 2 7 r t m e.N.B.B                               ",
"                      XXeXrX@XF.3.` _ Q W T x 1.o.Z.pXqX8X8X8X5X5X5X5X6X6X6X6X>X>X,X>X,X>X-X,X=X,.| &.l 7 7 2 2 1 < 3 * 4 w t m u.N.M.-                             ",
"                    U.eX1X@X3.3.] ^ ^ T T x x 1.o.E.vXvXvXcXcXxXbXzXkXhXdXdXdXsXsXsXiXiXuXtXiXuX<.| | *.l 2 2 2 1 1 < < 3 6 e y Z a.M.i.*                           ",
"                  x.eX:X@X@X3.] _ Q W T x x h 1. .E.vXvXcXcXxXlXkXkXjXdXdXsXsXaXiXuXuXtX0X9X0XuX>.o.o. .X.G 2 2 1 1 < < * 2 < 4 v S m.B.q.                          ",
"                  1XeXrX@X3.] ` ^ W T x x x d 1.o.E.vXvXcXxXlXkXhXjXfXdXgXsXaXiXiXuXuX0X0X9X4X0X>. .o.o.| &.~ 7 2 1 < < 7 2 3 4 e m e.N.M.;                         ",
"                v.:X$X@X] ` ` _ W T x x h h a {  .E.vXvXcXxXlXlXkXjXdXdXgXsXaXiXiXuXuX0X0X7X0X0X>.o.o.o.o. .#.H 2 2 1 1 < < 3 4 w u Z a.M.t.$                       ",
"                1XrX@X@X] ` _ W W x x h h d a x o.R.vXvXxXbXlXzXkXhXfXdXgXsXaXiXiXuXuX0X0X7X0XtX>. .o.o.o.o.} X.H 2 1 < < < 3 3 4 e c 8.m.M.B                       ",
"              v.OX1XL.F.] _ ^ T x x x h d a 0 H ..R.vXvXxXxXlXlXkXhXdXdXgXsXaXiXiXuXuX0X0X7X0X0X>. .o.o.o.o.o. ...H 7 6 3 1 < 3 3 w u Z u.M.i.$                     ",
"              XXeXI.G.] ` ^ W T x x h h a 0 9 H  .R.vXvXxXxXlXlXkXhXfXdXgXgXsXiXuXuXuX0X0X9X0X0X:. .o.o. .o. .o. .+.~ a 2 2 1 1 3 4 w c e.m.M.V                     ",
"            x.OXoXL.F.` _ Q T U x h h a 0 9 q H  .R.vXvXcXxXlXlXjXjXfXdXgXsXsXiXiXuXuX0X0X7X4X0X>.@.@.+.O.O.@.O.O. .o.H 2 2 1 1 3 4 w u N a.M.i.#                   ",
"            U.OXoXG.] ` Q E U x h h d 0 q q q H o.R.vXvXxXxXlXkXkXhXdXdXsXsXsXiXiXuXuX0X0X7X0X0X/.W.W.~.W.W.W.W.W.E.o. .5 2 2 1 3 3 6 e c w.m.f.-                   ",
"            XXXXL.F.' ^ W T U x h h a 0 9 q q H o.R.vXvXcXxXlXlXhXhXjXgXsXsXsXiXuXuXuX0X0X0X7X9XyXyXtXtX0X4XwX3X4X3X$.| 2 7 2 2 1 3 3 r u S h.M.6.+                 ",
"          x..XoXL.] ` Q T U x j h a 0 9 q q 7 H o.T.vXvXxXxXlXlXhXhXdXdXgXsXsXiXiXuXuX0X0X7X7X3X3X2X2X2X&X&X%X$X&X&X$.} 7 2 2 2 1 3 3 w u N u.M.i.$                 ",
"          v.OX}.D.' _ ! T x x h a a 9 q q 7 q H o.R.vXvXxXxXlXlXkXjXdXdXsXsXsXiXiXuXuXtX9X7X7XwX3X3X2X2X&X&X&X#X&X>X%.} 7 2 2 2 1 3 3 4 e b e.m.f.-                 ",
"          }.+XI.D.' Q E U x f f a 0 9 q q 7 7 H  .E.vXvXcXxXlXlXkXhXjXdXgXsXaXiXuXuXuX0X0X9X7XwX3X2X2X;X&X&X&X#X&X>X%.} 7 7 7 2 1 1 3 6 w v A h.n.D O               ",
"        , .X.XU.4._ W T x k h d a 9 9 9 q 7 q l  .R.vXvXxXxXlXkXzXhXdXdXgXsXsXiXiXuXuX0X0X9X7X3X3X3X2X;X;X&X&X*X&X;X%.} 7 7 5 2 2 < < < 4 y Z a.f.r.@               ",
"        k..X}.L.' ( E U x j h a a 9 q 7 7 7 q { o.R.vXvXcXxXlXlXjXhXfXdXsXsXsXiXuXuXtX0X0X9X7X7X3X3X2X2X;X&X*X*X;X;X$.} 7 5 7 2 2 2 < < 4 t N u.M.f.$               ",
"        b..X}.D.' Q E U x j h a 9 9 9 7 7 7 7 l o.T.vXvXcXxXxXkXhXhXdXdXsXsXaXiXaXuXuX0X0X4X7X3X3X3X2X2X;X&X&X$X;X>X%.} 7 7 2 2 2 2 2 2 4 t n u.n.f.=               ",
"        c..X{.D.` ! E x x j h a a 9 7 7 7 7 7 H  .E.vXvXxXxXlXkXhXhXdXdXsXsXaXiXuXuX0X4X0X7X7X3X2X3X2X;X&X&X&X$X;X>X%.} 7 7 5 7 2 2 2 7 4 e b 8.h.f.-               ",
"        c.+XP.D.( Q T I j h d a 9 q q q 7 7 7 z O.R.vXvXvXvXvXcXcXbXzXlXzXhXdXgXsXsXiXaXiXtX0X4X4X7X3X3X2X2X%X$X&X>X$.} 7 7 7 2 2 2 < & 3 e b 8.g.f.V .             ",
"        c..XP.D.( ! Y x j h a s a 0 8 8 8 8 8 z O.E.xXlXkXhXhXdXfXgXgXsXiXiXpXuX0X4X4X9X7X3X3X3X2X;X;X;X&X%X&X*X&X&X%.} 7 7 5 2 2 2 < < 4 e c 8.h.i.D X             ",
"        K..XP.D.( E U x h h s { [ [ [ [ [ [ [ X.o.$.W.W.R.W.W.R.R.R.T.T.R.T.T.T.T.Y.Y.Y.Z.Y.Z.Z.Z.Z.Z.<.Z.^.&X$X&X2X$.| 7 5 5 5 2 2 7 * 3 e c A a.i.7.O             ",
"        c..XP.) ( T I x h h d ;.o.o. . .o.o. .o.o. .| | | | | | | } | | | | | | | | |  .| |  .|  . .| | } W.wX$X&X>X%.| 7 7 5 5 2 2 7 3 3 e c A a.f.7.O             ",
"        c. XP.) ! E I x j f a =. .O.o.o.o.o.o. . . . .o.o.o. . . .o.o.o. . .o.o. . . . . .o.o.o.o.o.o. .@.^.yX$X&X,X%.} 7 7 2 7 2 1 1 3 3 e c 8.a.i.7.O             ",
"        c. XP.l.( R I x j f d =.o.o.o.o.o.o.+.$.$.%.+. .o.o.O.$.#.o.o.o.#.#.O.o.#.$.$.#.+. .o.o.o.o.o.o.O.^.tX$X&X&X$.} 7 7 7 2 2 1 < 3 4 e b 9.p.f.5.o             ",
"        z. XP.l.( Y x x j f f =. .o.O.o.o. .E.5X5X5X/.Z.o. .T.5X=X#.| :.-X6XZ.o.!.5X5X5X=XZ.O.o.o.o.o. .O.^.tX$X&X>X$.} 7 7 7 2 2 1 3 3 4 e n 9.p.f.B o             ",
"        0. X[.S.( T U x j f a =.o.o.o.o. . .^.vXxXfXcXqXo. .=XvXvXY.| !.vXvX~.o.5XvXhXfXvXgX:.o.o.o.o.o.o.^.tX$X&X>X$. .7 2 7 2 1 1 3 3 4 t n 8.g.f.V X             ",
"        P |.[.l./ T x x j h d =.o.o.o.o.o.| !.cX<XZ.aXgX%. .,XlXvX=X%.6XvXxX!.o.-XvX~.+.pXvX~. .o.o.o.o.O.^.tX$X;X-X$.} 7 5 7 2 2 1 < 3 4 u N 8.p.f.- .             ",
"        > [.[.c./ R I k j f d ;. .o.o.o.o. .!.xXaX8XfX-X .O.pXkXcX8X/.pXxXxX=X%.-XcX/.<.pXvXW.O.o.o.o.o.@.!.0X$X&X&X%.} 7 7 5 2 1 < < 3 w y C u.g.f.= .             ",
"          '. XJ.) R I x h f f -.o.o.o.o.o. .!.lXkXgXkXpXY.%.hXpX5XhXkXaX6XfX5X:.=XvXkXcXvXpX,.o.o.o.o. .O.^.uX#X&X;X%.} 7 7 5 2 1 < 3 4 e c A e.i.f.%               ",
"          z.|.K.) R I k j f f -.o.o.o.o.o. .!.vX<XO.!.vX,X>.lX5XE.pXvX6XW.aXqXZ.=XvXqX=X^.:. .o.o.o.o.o.O.^.tX#X&X&X#.| 7 5 5 2 < < 3 4 e b A a.t.r.@               ",
"          P |.K.z.L G k j h h =...o.o.o.o. .!.vXpX!.qXvX,XW.vX<XO.5XvX~.$.pXgXW.-XvX!...O.o.o.o.o.o.o.o.@.^.0X*X&X>X%.} 2 7 2 2 5 3 3 w t N 9.p.f.5.O               ",
"          > '.|.S.~ Y I j j h =.o.o.o.o.o. .~.kXkXgXfX5XZ./.xX^.| !.qXZ.o.,XfX!.=XlXW. .o.o.o.o.o.o.o. .o.^.tX*X&X>X$.} 7 2 2 1 < 3 4 w v C w.i.f.- .               ",
"            j.|.J.L ~ k h h d =. .o.o.o.o.o.$.Z.Z.Y.Z.$. .,.Z.$. .#.:.O.o.:.Z.$.$.Z.$.o.o.o.o.o.o.o.o.o.O.^.tX$X&X>X$.} 7 5 2 2 < 3 4 e c 9.w.r.i.% o               ",
"            P ].'.z.G G k h d =.o.o.o.o.o.o.o. . . . . .o.o. . .o.o.o.o.o. . . .o. .o.o.o.o.o.o.o.o.o.o.O.^.tX$X&X>X$.} 2 2 1 1 3 3 w u N 9.p.i.6.@                 ",
"            & '.|.A.L G k f f ;.| | .. . .|  . .o. . . . .|  . . . . . .}  . . . . . . . . . . .o. . .| o.^.yX$X%X>X$.} 2 2 1 < 7 2 6 c A e.i.f.- .                 ",
"              0.].J.L G k g a &...#.#.+.+.+.#...O.+.#.+.+.+.+.+.+.+.+.+.+.+.+.+.+.+.+.+.+.O.+.+.+.+.+.@.+.^.4X$X&X>X$.} 2 1 < < * w t N 9.y.i.r.$ o                 ",
"              * _.'.j.L J h d H 2.4.4.4.H.4.4.Q.Z.W.<X,X,X,X-X-X-X-X-X=X-X=X=X=X=X=X=X=X#X(.(.=X(.(.(./.(.2X7X$X&X>X$.| 1 1 < 3 4 e c A w.t.f.V o                   ",
"                0.`.'.L J g s s d x H x j j d 2.Z./.vXvXvXvXvXvXvXvXvXvXvXbXbXzXzXzXjXdXdXdXsXsXsXiXyXyXtX4X2X$X&X>X$.} 1 3 3 4 w y N 8.y.r.i.* .                   ",
"                & _.].j.L J s s s 8 7 7 q 7 7 z | Y.vXvXcXlXlXkXjXjXdXdXsXsXaXuXuXtX0X9X9X9X3X3X2X2X;X&X&X%X%X#X&X>X$.} < 2 2 3 = M Z e.p.f.B O                     ",
"                  ; _.`.s.J g i 8 8 7 q 7 7 7 H o.E.vXvXvXvXcXxXbXzXkXkXfXdXdXgXsXsXiXiXuX0X0X9X9XwXwX3X2X2X2X;X2X2X$.} * 7 4 w v C 8.y.i.t.$ X                     ",
"                    u.`.C.L M s i 7 7 7 7 2 7 l o.Y.kXhXfXgXgXgXsXsXaXaXaXaXiX0XpX0X0X0X0XqX9X9X7X7X7X6X3X6X3X>X2X=X%.} 7 * w y N 9.q.q.f.; o                       ",
"                    * )._.m.K p i 8 8 7 2 7 2 H o.O.:.,.,.,.,.$.$.,.$.,.$.$.,.$.$.,.$.$.$.$.$.$.$.#.$.$.$.#.#.#.$.%.@.o.2 w y N 9.e.f.f.7.@ O                       ",
"                      ; )._.a.F p i 8 6 5 5 5 l #.} } } } } } } } } }  .} } } } } } }  .} } } } } } } } } } } | } @.} X.6 t n C e.r.i.r.* .                         ",
"                        D ).V.a.F M i 6 6 6 5 5 < 1 2 5 2 7 5 7 5 2 5 5 5 5 5 7 7 5 2 5 7 7 2 7 7 2 2 2 5 < * 7 * 3 4 w t b C w.r.t.i.: X                           ",
"                          q.B.V.s.F p r 6 6 6 1 3 2 2 2 2 2 2 2 2 2 2 2 2 2 5 5 7 5 2 7 2 2 2 2 2 1 1 1 < < 3 3 2 2 6 u n A 8.q.r.f.V +                             ",
"                            q.B.N.s.Z M i r 6 6 5 1 1 1 1 2 2 2 2 2 2 2 2 1 2 1 2 2 2 2 7 2 2 2 2 1 1 1 3 3 3 3 4 6 = N A 8.q.r.f.V @ o                             ",
"                              q.B.V.a.Z M u r 6 6 6 3 < 1 1 1 1 2 2 2 < 2 2 2 2 2 2 2 2 2 2 1 1 1 3 3 3 3 2 2 4 = p n A w.q.r.f.B @ o                               ",
"                                7.B.V.h.K m u t w 4 6 6 3 < < < 2 2 < < < < < 2 < < 2 < 1 < 1 < < 3 3 3 * 7 e y b C S s.r.t.f.B @ o                                 ",
"                                  B B.M.h.w.Z c u e 4 4 6 3 * 7 7 2 < 1 < 7 2 < < < < < 3 3 3 3 * 1 6 w * y c N A 8.q.i.i.i.; @ o                                   ",
"                                    - i.B.V.a.e.Z M u e w < 2 2 * 3 3 3 & 7 2 < & < < < 3 3 4 4 2 7 e t g N C 9.e.r.q.f.t.: + O                                     ",
"                                      * 6.M.M.m.a.8.Z m y t e w w w * 1 4 4 4 3 7 2 4 4 4 w e e t v b N S S w.y.t.i.f.6.% X                                         ",
"                                          ; i.M.N.m.u.w.S N m v y u 8 r e w e e r 6 e t t v v b N C 9.9.e.p.i.r.f.t.- @ .                                           ",
"                                            $ B i.M.M.m.h.u.w.S C N m n c c c c v b b N N N A 8.9.w.s.p.i.r.f.i.B $ o O                                             ",
"                                                % V t.i.M.n.m.h.a.u.w.8.9.8.e.S S 8.8.w.w.u.u.y.p.t.r.f.f.r.B % O X                                                 ",
"                                                    # - q.i.f.n.n.g.n.h.g.h.h.a.a.a.p.p.p.i.i.i.i.f.i.q.- $ o X                                                     ",
"                                                        + $ : 5.r.i.f.f.n.i.i.i.f.f.f.f.f.f.i.r.5.- % @ . o                                                         ",
"                                                              o @ $ = - V D D D 5.5.B V - = % @ O . .                                                               ",
"                                                                        . X O O o o o . . .                                                                         ",
"                                                                                                                                                                    ",
"                                                                                                                                                                    ",
"                                                                                                                                                                    ",
"                                                                                                                                                                    ",
"                                                                                                                                                                    ",
"                                                                                                                                                                    "
};
