/* XPM */
static char *a1ear_v6i3m[] = {
/* columns rows colors chars-per-pixel */
"82 82 77 1 ",
"  c None",
". c #00BCBE",
"X c #02BEC0",
"o c #06BFE0",
"O c #03C2C4",
"+ c #08C4C6",
"@ c #0BC6C9",
"# c #01CACE",
"$ c #0ECACC",
"% c #10CCCE",
"& c #01CDD3",
"* c #06C2DE",
"= c #05CCDD",
"- c #14CFD2",
"; c #03D1D6",
": c #0BD4D7",
"> c #05D4DD",
", c #0AD5D9",
"< c #05D8DF",
"1 c #0CDADD",
"2 c #15D2D4",
"3 c #18D4D6",
"4 c #14D7D9",
"5 c #1BD6D9",
"6 c #12DCDF",
"7 c #1DD9DB",
"8 c #06C0E2",
"9 c #0BC5E5",
"0 c #06CCE2",
"q c #0EC9E7",
"w c #0DCCEC",
"e c #12CCE9",
"r c #06D5E2",
"t c #0CD3E6",
"y c #06DAE2",
"u c #0BDCE5",
"i c #0FD0EE",
"p c #0FDDE8",
"a c #16DEE1",
"s c #19DFE1",
"d c #15D2EA",
"f c #19D5EC",
"g c #14DBEA",
"h c #1CDBEE",
"j c #03CEF6",
"k c #0BD2F5",
"l c #01D4FF",
"z c #0BD7F9",
"x c #07D9FF",
"c c #0BDBFE",
"v c #13D4F0",
"b c #17D9F3",
"n c #1CDDF5",
"m c #11DEFE",
"M c #1ADFF9",
"N c #20DFEF",
"B c #0FE0E7",
"V c #13E1E5",
"C c #1DE3E6",
"Z c #14E3EA",
"A c #1CE4ED",
"S c #1DE8EE",
"D c #1FEAF0",
"F c #14E1FF",
"G c #1CE6FE",
"H c #1EE8FE",
"J c #20E5EE",
"K c #20E9ED",
"L c #21E4F0",
"P c #21EAF0",
"I c #25EBFB",
"U c #29EEFB",
"Y c #2EF1FC",
"T c #33F4FC",
"R c #38F7FD",
"E c #3CFAFE",
"W c #41FDFF",
/* pixels */
"                                                                                  ",
"                                                                                  ",
"                                                                                  ",
"                                                                                  ",
"                                 $%%$$$$@@++OO                                    ",
"                             224VVZZZZZZVVBu1,#OXX                                ",
"                          22aZZAZZVgVgggggpppppu<;...                             ",
"                        5sASAAAggfgddddtttqtttttuuyy#..                           ",
"                      5CSSAAhffffdddeeeeeeeeew9w0rryy<&..                         ",
"                    5CSKAhhhffdfdeeeeveee999eo999800rry<#.                        ",
"                   7CPDhhhfffdeeeeeeeoeee9q9oewo999090r>y;..                      ",
"                 5CKSAhnffffdeeeeeqqeeoe9e99eoow98889*00r<;&.                     ",
"                5KKJNNnfffddfeeeeq9qqqeo999999oo8888888==0<<;.                    ",
"               7KPJNhNffffdeeeeqqqq9q99e999999wo9898888*8*=><&.                   ",
"              7KLLNNfffffeeeqqqq99q9o99o999999999o88888***==><&.                  ",
"             7JKJfNNfffdeeeeqqqq9999qo9999999o9oo9o988888****><&.                 ",
"            7KLLNNffffefmzzzzmzzzzzzzzzzzzzzzzzvlqooo88888***=>;&.                ",
"           7KPNNNNfffefflllllllllllllllllllllllllzwo8o8o8oo***0><#.               ",
"           JPLLNNffffeeflcTTUUTUUYYUUUUUUUUUUUPPzlzwoo88888o***=><#.              ",
"          7KLLNNfffeeeeelFEWWWEEEEERRRRRRTTTTYTTzllzw8o88o8*****>>;..             ",
"         7KPNNNfffvfeeevlFWWWWEEEERRRRTTTTTYYTPTclllle88ooo**o**==>;.             ",
"         JPLNNfffvefeooilmWWEEEEERRRRRTTTTTYYYRTcllllzd88o*oo*o**=>>#.            ",
"        7KNNNffffeeooveilmWWEEEEERRRRTTTTTTYTYYTclllllle88o*ooo***=>>..           ",
"        NUNNNfffeefovooilmWWEWEEEERRRTRTTTTYYYYYclllllllw8o*o*ooo*=><#.           ",
"       7KLNhNfffeeoevoookmWWEEEEERRRRRTTTTPTYYYTcllllllllw88888****=>>..          ",
"       CPJNhffeeeeeooovvkMWWWEEEERRRRTRTTTRTYYYTcllllllllxd888ooo**=>>#.          ",
"      5ALNhffeeeevoeoooolmWWWEEEEERTRRTTTTTYYYYTcllllllzlllv88o88***=<;..         ",
"      7PLNhfffeeeoeovoovlmWWEEEEETRRTTRTTYTTTYPRIFGGFGFMFFll8o88o***=>>..         ",
"      CDAnffddeqoeoooeoblmWWWEEEERRRRRTTTTYYYYYYTYTYTYYYTUllo8o8o8**=>>#..        ",
"     5ADNfffdeeqeoeooooolmWWWEEEERRRRTRTTYTYYYYYYUUUUUPIIUcl8888o***9=>>..        ",
"     7DAhffdeeeqooooooovlFWWWEEERERRRRTTTTTTYYYYYUUUUPIUIIxl8o8oooo**=><..        ",
"     7SAhffdeeq9eoeooooblmWWEEEEERRRRTRTTTYYTYYYUUUUUIIPIUll9888*ooo*=>>O..       ",
"    2VShfffevooeoooo9o9wlmWEWEEEERRRRRTTTYTTYYYUYYUUUUIIUIlloo9ooo8o**=>#..       ",
"    2AAAffevevwowwooooowlmWWEEEEERRRRRRTTTYYTYYUPYUUUUPUIUzlooooo*8**=><;..       ",
"    2SAhffeeeooeooojooowlFWWWEEEERRRRRTTTTTYYYYYUUPYIPUPUUzl9ooo88o***=>>..       ",
"    2SAffffeeeeowo9oo9owlmWWWEERRRRRRTRTTYTTUTYYYUUYUUIIPUzlooo9o8oo**=<>..       ",
"    3Ahhffofoeoeoooo888wlFWWWWWWEEEERRRTRTTTTYTYYYYYUUIIIUlloooo888o**=>>...      ",
"    3AAffefoeeeoowko889jxFEEEERERRRTTTTTTUYYYYUYYPUUIIUPIUclojooo8o***=>>...      ",
"    3AnffeveqookjjkjjjjllzFFmmFFMmmmFmmmmmmmcmcmbmzzbGIIUUzloooo88ooo*=>>...      ",
"    3NNfefeeqeezllljllllllllllllllllllljlllllllllllllFYIIIcloooooo****=>>...      ",
"    2SZfddeqqqqzlllllllllllllxlllllllllxlllllllllllljGTIIUclo8o888oo**=<>...      ",
"    2ZhgdeeeqqqzllllllllxxlllllxlllllxlllcclxlxlllxxxGTIIUll8o988o*o**=>>...      ",
"    2ZZhddeeqq9zllllllFYYYHcllFYIllcUYclGYUYIclxlxllxGYPPUzlo9oo88oo**><=...      ",
"    $ZVfdeeeq9qzllllllHWEEEYllIEWmlGEWGlYEERERcllllllGYIUUcloooo8o8o**=<;...      ",
"    $VZgdeeqeq9cllllllFWUcTRxlUEWIxUEEGxUEGxYWGllllllHTIIUlloooo8o***==<&...      ",
"    $aZgdeeeq9qzllllllGETYEIlxYEEYHTEEIxUEHcTWFllllllHTIUUzl9ojo88o***>>&...      ",
"     4Zfdeeqqq9zllllllGEETETmxRYYRERYRYxIWEEWTxllxlllLTIIUcloooo8o***=>>O..       ",
"     %ZVdeeqqqqzllllllGWUlGEUcEYFTEUFRYmIEYIHclllllllGYIIUlloooooo***=<>...       ",
"     $VZddeqqqqzllllllGWTGYWUFWUlYWGxTRFIWGlllxllxlllHTIIUxlo88oo8***>>=...       ",
"     @1Vgieeq9qzllllllFEERRYcHEHlGTclURGIEFllllllllllHTPPUzloo88oo**=><&...       ",
"      $VpteqqqqzllllllxmcmcxlccxllcllcccxcxllllllllllHTIUUclo888o*8*0>=....       ",
"      @uppeqqqqzlllllllllllllllllllllllllllxlxllxlxllGYIIUll888o***=><&...        ",
"      +:BdtqqqqzllljlllllllllllllllllllllllllllllllllGTLIUzl8888***=>>#...        ",
"       @BppqqoqzlzlllzlllxxxllzllxlllllxlxlllxlxxlxllGTIIUxl8o8o**=>>=....        ",
"       +,Bpwe9oibnnnnnnMmFUUUUIIIIUIUIIIIIIIIHIHHIHHIUTPIUclo*88**=<>#...         ",
"        +ypwqe9oqqqqqq9fcHWWWWWWWWWWEEEEREERRRTTTTTTTUIIIUllo8o***><&....         ",
"        O;pytq9988999oojlFWWEEEEEERTRTTTTYTYYUYYUUUUUPIIUUxl*o***=<>#...          ",
"         X1pt0999988ooowlFWEWEEEEEEERRRRTRTTTTYYTYUUUUUIUUzl****=>>&....          ",
"          +yp008888o9joqlcERERRRRRTRTTYTTYYTYYYYUYYYUUUUUHll***=><=....           ",
"          .;uu00988oooojlxcxcxxcxxxxxcxxxcxxxxxcxzxxxcxzzzxl**==<>#....           ",
"           X;yy0088888owllllllllllllllllllllllllllllljlllljl**>;>&....            ",
"            X>yr090o88oo88o*o8ooooo888o*88oooooo*oooo**o****==><&....             ",
"             .>yr0*988ooo8888888ooo8o888o8o8o8888ooooo*o***==>>&....              ",
"              .>yy=088**888oo88o8888888o88888o8o8o*o*oo***==<>&.....              ",
"               .;y<08***8*oo8oo8*oooo888*o8888oo88*******=><>&.....               ",
"                .;r<r==8***o*o*8ooo*o8o8ooo88o*oo*******=>>>&.....                ",
"                 .#;<>>**8***oooo***oo8o*o88o8********=<>>=#.....                 ",
"                  .X&<<<===******oo**o*oooo*********>>>>>&......                  ",
"                   ..#>><>==*********************==>>>>&#.....                    ",
"                     ..&>><>,===*=********=**===>>>>>>&......                     ",
"                      ...#=>><<<;===========>>>><>=>#.......                      ",
"                        ....&&>><><<>>>><><><>>=&#........                        ",
"                          .....O#&=>>>>=>=>=&&O.X.......                          ",
"                            ..................X.......                            ",
"                               ....................                               ",
"                                    ..........                                    ",
"                                                                                  ",
"                                                                                  ",
"                                                                                  ",
"                                                                                  ",
"                                                                                  ",
"                                                                                  "
};
