/* XPM */
static char *_gro5_o06yn[] = {
/* columns rows colors chars-per-pixel */
"82 82 34 1 ",
"  c #121212",
". c #131C1D",
"X c #1B1B1B",
"o c #161727",
"O c #151E24",
"+ c #16152A",
"@ c #18172C",
"# c #161B28",
"$ c #1C1B2E",
"% c #1F1E30",
"& c #201F2D",
"* c #201F30",
"= c #162227",
"- c #1B2425",
"; c #162429",
": c #1C232E",
"> c #17282C",
", c #1C2A2D",
"< c #1E2530",
"1 c #1F2B30",
"2 c #242425",
"3 c #22232C",
"4 c #252C2D",
"5 c #2E2E2E",
"6 c #232331",
"7 c #242A32",
"8 c #292D35",
"9 c #263032",
"0 c #2A3135",
"q c #343434",
"w c #383837",
"e c #373738",
"r c #3A3939",
"t c None",
/* pixels */
"tttttttttttttttttttttttttttttttttttttttttttttttttttttttttttttttttttttttttttttttttt",
"tttttttttttttttttttttttttttttttttttttttttttttttttttttttttttttttttttttttttttttttttt",
"tttttttttttttttttttttttttttttttttttttttttttttttttttttttttttttttttttttttttttttttttt",
"tttttttttttttttttttttttttttttttttttttttttttttttttttttttttttttttttttttttttttttttttt",
"tttttttttttttttttttttttttttttttttXXXXXXXXXXXX tttttttttttttttttttttttttttttttttttt",
"tttttttttttttttttttttttttttttX2-4,7,71111,>>-=O.  tttttttttttttttttttttttttttttttt",
"tttttttttttttttttttttttttt2-41979,4<7<,,:1>,>,>>>=   ttttttttttttttttttttttttttttt",
"tttttttttttttttttttttttt24498741<76<:6:<<$%:$:>>>,>=.  ttttttttttttttttttttttttttt",
"tttttttttttttttttttttt24998876663*6%%$%%$$%$$$;$;>;>>;O  ttttttttttttttttttttttttt",
"tttttttttttttttttttt249987666666<%%%%$$%$$$$$$@@@@@;;;>;. tttttttttttttttttttttttt",
"ttttttttttttttttttt299884666<***%%$%%%%@$$$$@$@@@@@@##;;>O  tttttttttttttttttttttt",
"ttttttttttttttttt24898767666**%%%$%$$$$%$$$$$$@@@@++####;>=. ttttttttttttttttttttt",
"tttttttttttttttt2888586766****%%$$$$$$%@@$%@@@@@@@+@++++#;=>O tttttttttttttttttttt",
"ttttttttttttttt28888666666**$%$$$$$$$$$@@$@@%@@@@@@+++++o##=== ttttttttttttttttttt",
"tttttttttttttt298888686*6*%%%%<%:$::$@$$@@%@@@@@@@+++++ooo##>=O tttttttttttttttttt",
"ttttttttttttt29088*86*6**%$6::<8887::&$@@$@@@@@@@+++++++@ooo#==. ttttttttttttttttt",
"tttttttttttt208876*8****%*:3800q000007:%@@$@@@@@@@@++++++++++++;. tttttttttttttttt",
"ttttttttttt25085688*****6$6800000880888<$@@@@@@@@@@++++++++++++;== ttttttttttttttt",
"ttttttttttt409876*8******888888000888888:3@@@@@@@@@++++++++++#+O==. tttttttttttttt",
"tttttttttt4008778*******68836<$:708887888:&@@@@@@@+++@++++++++#+#==  ttttttttttttt",
"ttttttttt280888*********83<$@@@$%<888877876@@@@@@@@@@@++++o++++.#==. ttttttttttttt",
"ttttttttt50888686*******3&@@@@@@@<<8787778:$@@@@@@@@@+++++o+++++oo=>. tttttttttttt",
"tttttttt*58866*****$&*76&@@@@@@@@@<887777873o@@@@@@@+++++++++o++###==  ttttttttttt",
"tttttttt5888868****$$*66@@@$&$$$@$%<8777778<$$$$@@@@@@++++++++++o##==. ttttttttttt",
"ttttttt200878*****$@$*6%@@325245632308777<0<32242524&&@++++++++++ooO==  tttttttttt",
"ttttttt409776******@@**@@*5rrrrrrrr88777770<errrrrrrq&@+++++++++++oo==. tttttttttt",
"tttttt298866******$@@*@+$3ereerrrrr777167<860rrwwwwwr2*@+++++++++ooo===  ttttttttt",
"tttttt208656****@@@@@@@@&3rr4:3:53<:88171<8866::62$qr5&@++++++++++oo#==  ttttttttt",
"tttttt49568****$*@@@@@@@&5rrr378788887<716708888064wre*@+++++++++++oo;=.  tttttttt",
"ttttt294866****$@@@@@@@+2wrrre:877<7<77<1<<1<<<87:errr7*++++++++++++#==O  tttttttt",
"ttttt2986666***$@@@@@@@%3rrrrrq:87<7<1<1<<<<<:47:ereer8%@++++++++++oo#==  tttttttt",
"ttttt4988*****$$*@@@@@@*qrrrrrr0<87<776<<<>::<8:0rwwrrr%@@+++++++++o##==.  ttttttt",
"ttttX487666*%@@@@@@@++o&rrrrrrrr7<71<<::;<$::8:8rwerewr4&@@@+++++++++o==.  ttttttt",
"tttt247766*%%%%%@@@@@o&5rrrrrrrer<<7<:::::><8<7ewwewewrq2@@@++@+++++oo=;O  ttttttt",
"tttt-94766*%%@$@@@@@@+&qrrrrrreeee:6<:::<::71<eewwweeewr2&@@++@++o++ooO;=  ttttttt",
"tttt298766%@%%@%@@++@@2rrrrrereeeeq:1<::::77<0eeqwwwwwwr5&@@@+++++++oooO=  ttttttt",
"tttt214666*%%@@@@@@@@&5rrrrwwwwqwww0<71<<17:5wqewqeewwerq&@+@+@+++++o##==   tttttt",
"tttt2777**%%@%$@@@@@$&qrereweewwewqe7<7<<8:8weqqqwqwweeer**+@+++++++oo;==   tttttt",
"tttt2476**%%@$%@@@@+$2rweerweewweqeqe7<80:4wqeqeeeqweeeqr5*+@+++++++oo#;=   tttttt",
"tttt-9766*%$%$@@@@@@&5rrewrreqwweeqeee6133wqqqeqwqeerewwre*@@@++++++oo===   tttttt",
"tttt297<*%$%$$@@@@@@&wrwwrwrrrrwqweqeqq::qqeeeqewwwwwqeeqr2&&+++o+++oo#=;   tttttt",
"ttttX9766*&%$$%@@@@*3rwrwrwwrrrrwwwweeeqqewqerewrrreweererq&++++o++oo+#==   tttttt",
"ttttX17:**%%$%@$@@@*5rrrrrwwrrrrrrrwrwerrrwwrrrrrweewqrrrww2@+++++++o+o=O   tttttt",
"tttt2,77*%%@$$@@@@@*wrrrrwrrwewwrrrrrrrrrrrrrrreeweewrrrrwr2*@+@++++++O=O   tttttt",
"ttttX4,4<%%%*$@$&@o&rrrerrwrrrrrrrwwrerrrrrrwwrwwrrerrqrwwr5*@+@++++oo==O   tttttt",
"ttttX,7:6%$%@$$@+@o2wrrrrrrrrrrrrrrrrrrrrrrrrrrrrrrrrrrrrrr2@+@+++++o#==.   tttttt",
"ttttt-1,****@*&@@@@&wqqqq5qqqqq5qq5qqq55q555q5555q55555555q2$+++++ooo;==.  ttttttt",
"tttttX176*@@*@+$$$+&wqqqqq55qqq5q5q5q55q5q5q55q55555555555q*$+++++o#o#=#   ttttttt",
"tttttX,,1<%$$%@$@$@&wq5q5555555q555qq55qq5555q5q5q5q55q555q2&@+++++oo==O   ttttttt",
"tttttX-76$%%$$$@&@@&qqqq552525555q5555q55q5q5q5q5q5q5q5q55q2&+++++++o==.   ttttttt",
"ttttttX,,<$$$$$@@@@&wqqq52555555q5q55qq55q555q5q5q5q555q5552&+++o+##=;=    ttttttt",
"ttttttX,1::$%$$$&@@&qq5q555255555q5q55555555qq5q5q5q5q55555&&+++ooo#==O   tttttttt",
"tttttt -1<%%@$@$@@@2qqqqqq555555555qq5qqq5555q5q5qqq555q55q2@+++ooo#==.   tttttttt",
"tttttttX>>:#%@$@@@@7qqq5qqqwqwqqq5555555555q5q5q5q5q5q5q55q2&+++oo@#=O    tttttttt",
"tttttttX=,<:$$@@@@$2qeqqqq55qq5q5qq55q5q55555555555555555552&+++o##==.   ttttttttt",
"ttttttttX>,:@$@%$@@24wwrwqwwwqwqwqwqqqqqqqqqqqq555q555q5555X&+++##==O    ttttttttt",
"tttttttt -,>:#%@@@@<:222222222&*&2&22X&2&&2&22&222222222&2X&@+++##==.   tttttttttt",
"ttttttttt ->:#@@@@@@$$&$&&&&&**%&&&&&&&&**&&&&&&&&&&&$&&&&&+X@++#===    tttttttttt",
"ttttttttttX=>;#@@@+@o@@@&@$@$$@@&&+&@&&&@@@@&&+&@$$@o@o@&++++o&o==O    ttttttttttt",
"tttttttttt =><;#+@++@+@@@@@@@@@@&o+++++o@@@@&+++@o@@@@++oo+ooooX>=.    ttttttttttt",
"ttttttttttt ;>;#$@+++++++++@++@@++++++++++@++++++++++++++ooooo-==.    tttttttttttt",
"tttttttttttt ;>;##+++++++++++++++++++++@+++@+++@+++++++++oooo#=;O    ttttttttttttt",
"ttttttttttttt ;>>#++++++++++++@@+++++++++++@@+++++++++++o+o##;=O    tttttttttttttt",
"tttttttttttttt O-$@++++++++++++++++++++++++++@+++++++++ooo#===.     tttttttttttttt",
"ttttttttttttttt =>;###ooo@+++++++++++++++++++++++o++o+ooo====O     ttttttttttttttt",
"tttttttttttttttt O;>;##o++o++++++++++++++++++++++++ooooo#===.     tttttttttttttttt",
"ttttttttttttttttt .====ooooooo+++o++++oo++++++++o+o+ooO;==O.     ttttttttttttttttt",
"tttttttttttttttttt  O=>=###o++oo+oo+++oo+++++o+oooooO;O;=O      tttttttttttttttttt",
"ttttttttttttttttttt  .=>;===oooo++ooooo#++ooo+ooo=;O;;;O.     tttttttttttttttttttt",
"ttttttttttttttttttttt  .=;===O##Oooooo#ooooo###==O;=;O.      ttttttttttttttttttttt",
"tttttttttttttttttttttt   .=;==;;==######oO#===;;;;;O.       tttttttttttttttttttttt",
"tttttttttttttttttttttttt    .O==;-===>==.O;;;;=OO.        tttttttttttttttttttttttt",
"tttttttttttttttttttttttttt     ..OO===O===OO...         tttttttttttttttttttttttttt",
"tttttttttttttttttttttttttttt                          tttttttttttttttttttttttttttt",
"ttttttttttttttttttttttttttttttt                    ttttttttttttttttttttttttttttttt",
"tttttttttttttttttttttttttttttttttttt          tttttttttttttttttttttttttttttttttttt",
"tttttttttttttttttttttttttttttttttttttttttttttttttttttttttttttttttttttttttttttttttt",
"tttttttttttttttttttttttttttttttttttttttttttttttttttttttttttttttttttttttttttttttttt",
"tttttttttttttttttttttttttttttttttttttttttttttttttttttttttttttttttttttttttttttttttt",
"tttttttttttttttttttttttttttttttttttttttttttttttttttttttttttttttttttttttttttttttttt",
"tttttttttttttttttttttttttttttttttttttttttttttttttttttttttttttttttttttttttttttttttt",
"tttttttttttttttttttttttttttttttttttttttttttttttttttttttttttttttttttttttttttttttttt"
};
