/* XPM */
static char *Free_Converter_com_btn_objet_2_94820901[] = {
/* columns rows colors chars-per-pixel */
"82 82 143 2 ",
"   c #00BCBE",
".  c #0FCDBE",
"X  c #10CEBE",
"o  c #13D4BE",
"O  c #17D9BE",
"+  c #1ADCBE",
"@  c #26CDBE",
"#  c #26D0BF",
"$  c #2CDEBE",
"%  c #1EE2BE",
"&  c #21E5BE",
"*  c #2DE3BE",
"=  c #22E8BE",
"-  c #02BEC0",
";  c #02BFE3",
":  c #00BFEA",
">  c #03C2C4",
",  c #08C4C6",
"<  c #0FCEC3",
"1  c #0BC6C9",
"2  c #01CACE",
"3  c #0ECBCC",
"4  c #10CEC2",
"5  c #12CDCD",
"6  c #1BCFCE",
"7  c #14D3C3",
"8  c #1AD7C5",
"9  c #17D8C0",
"0  c #1ADCC3",
"q  c #15D4CA",
"w  c #19D6CD",
"e  c #1CDCCC",
"r  c #01CDD3",
"t  c #06C2DE",
"y  c #05CCDD",
"u  c #0DC9DF",
"i  c #12CDD3",
"p  c #1CCED5",
"a  c #13CDDD",
"s  c #1CCEDC",
"d  c #03D1D6",
"f  c #0CD3D6",
"g  c #05D4DD",
"h  c #0AD5D9",
"j  c #05D8DF",
"k  c #0CDADD",
"l  c #15D2D4",
"z  c #19D5D6",
"x  c #1DDBD4",
"c  c #14D3DD",
"v  c #1AD5DA",
"b  c #12DCDF",
"n  c #1DDADB",
"m  c #25CEC3",
"M  c #24CFCB",
"N  c #27D1C2",
"B  c #29D3C5",
"V  c #2CDCC3",
"C  c #26D1CD",
"Z  c #2AD5CB",
"A  c #2CDBCC",
"S  c #23D2D4",
"D  c #29D6D4",
"F  c #20DFD5",
"G  c #2CDBD4",
"H  c #22D3DB",
"J  c #29D7D9",
"K  c #21DEDC",
"L  c #2BDBDC",
"P  c #1EE1C2",
"I  c #1FE0CB",
"U  c #1FE0D0",
"Y  c #21E5C2",
"T  c #2CE2C1",
"R  c #23E8C2",
"E  c #22E5CC",
"W  c #2CE4CC",
"Q  c #24E8CC",
"!  c #22E3D3",
"~  c #2DE3D5",
"^  c #22E2DA",
"/  c #2CE2DB",
"(  c #06C1E1",
")  c #0AC4E5",
"_  c #05CAE4",
"`  c #0DCAE6",
"'  c #00C3EA",
"]  c #0CC7E8",
"[  c #03CCEC",
"{  c #0CCDEA",
"}  c #13CCE4",
"|  c #18CEE3",
" . c #12CDE9",
".. c #06D5E2",
"X. c #0CD3E6",
"o. c #06DAE2",
"O. c #0BDCE5",
"+. c #04D0EF",
"@. c #0CD1EE",
"#. c #0FDCEA",
"$. c #15D1E1",
"%. c #1BD2E3",
"&. c #16DEE1",
"*. c #1EDBE1",
"=. c #14D2EB",
"-. c #19D5EC",
";. c #14DBEA",
":. c #1CDBEE",
">. c #02CEF0",
",. c #05D4F3",
"<. c #0DD4F2",
"1. c #07D9F6",
"2. c #0BD9F6",
"3. c #07DAF9",
"4. c #08DDF8",
"5. c #14D5F1",
"6. c #18D7F1",
"7. c #1CD9F2",
"8. c #11DDF9",
"9. c #21DDE4",
"0. c #2BDDE3",
"q. c #23DEEB",
"w. c #2BDEE9",
"e. c #22DDF5",
"r. c #24DFF8",
"t. c #0FE0E7",
"y. c #13E1E5",
"u. c #1DE3E6",
"i. c #14E3EA",
"p. c #1CE4ED",
"a. c #1DE8EE",
"s. c #1FEAF0",
"d. c #23E1E2",
"f. c #2CE2E3",
"g. c #21E4ED",
"h. c #2CE1EC",
"j. c #20E9ED",
"k. c #21E4F0",
"l. c #2CE3F3",
"z. c #21EAF0",
"x. c #25E0F8",
"c. c #2DE6FA",
"v. c None",
/* pixels */
"v.v.v.v.v.v.v.v.v.v.v.v.v.v.v.v.v.v.v.v.v.v.v.v.v.v.v.v.v.v.v.v.v.v.v.v.v.v.v.v.v.v.v.v.v.v.v.v.v.v.v.v.v.v.v.v.v.v.v.v.v.v.v.v.v.v.v.v.v.v.v.v.v.v.v.v.v.v.v.v.v.v.",
"v.v.v.v.v.v.v.v.v.v.v.v.v.v.v.v.v.v.v.v.v.v.v.v.v.v.v.v.v.v.v.v.v.v.v.v.v.v.v.v.v.v.v.v.v.v.v.v.v.v.v.v.v.v.v.v.v.v.v.v.v.v.v.v.v.v.v.v.v.v.v.v.v.v.v.v.v.v.v.v.v.v.",
"v.v.v.v.v.v.v.v.v.v.v.v.v.v.v.v.v.v.v.v.v.v.v.v.v.v.v.v.v.v.v.v.v.v.v.v.v.v.v.v.v.v.v.v.v.v.v.v.v.v.v.v.v.v.v.v.v.v.v.v.v.v.v.v.v.v.v.v.v.v.v.v.v.v.v.v.v.v.v.v.v.v.",
"v.v.v.v.v.v.v.v.v.v.v.v.v.v.v.v.v.v.v.v.v.v.v.v.v.v.v.v.v.v.v.v.v.v.v.v.v.v.v.v.v.v.v.v.v.v.v.v.v.v.v.v.v.v.v.v.v.v.v.v.v.v.v.v.v.v.v.v.v.v.v.v.v.v.v.v.v.v.v.v.v.v.",
"v.v.v.v.v.v.v.v.v.v.v.v.v.v.v.v.v.v.v.v.v.v.v.v.v.v.v.v.v.v.v.v.v.5 5 5 5 5 3 3 1 1 , , > > v.v.v.v.v.v.v.v.v.v.v.v.v.v.v.v.v.v.v.v.v.v.v.v.v.v.v.v.v.v.v.v.v.v.v.v.",
"v.v.v.v.v.v.v.v.v.v.v.v.v.v.v.v.v.v.v.v.v.v.v.v.v.v.v.v.v.i l z b y.y.y.i.i.i.t.y.O.t.O.k f 2 > - - v.v.v.v.v.v.v.v.v.v.v.v.v.v.v.v.v.v.v.v.v.v.v.v.v.v.v.v.v.v.v.v.",
"v.v.v.v.v.v.v.v.v.v.v.v.v.v.v.v.v.v.v.v.v.v.v.v.v.v.l l y.y.a.i.i.i.p.;.;.#.#.;.;.#.;.O.O.O.O.O.j d       v.v.v.v.v.v.v.v.v.v.v.v.v.v.v.v.v.v.v.v.v.v.v.v.v.v.v.v.v.",
"v.v.v.v.v.v.v.v.v.v.v.v.v.v.v.v.v.v.v.v.v.v.v.v.z &.a.a.a.p.;.:.;.6.;.=.=.=.=.X.X.=.X.=.X.X.X.O.O.O.o.o.2     v.v.v.v.v.v.v.v.v.v.v.v.v.v.v.v.v.v.v.v.v.v.v.v.v.v.v.",
"v.v.v.v.v.v.v.v.v.v.v.v.v.v.v.v.v.v.v.v.v.v.z u.p.p.p.:.-.7.-.-.-.=.=.=. . . . .` ` `  .` ` ` ` _ X...O.o.j r     v.v.v.v.v.v.v.v.v.v.v.v.v.v.v.v.v.v.v.v.v.v.v.v.v.",
"v.v.v.v.v.v.v.v.v.v.v.v.v.v.v.v.v.v.v.v.z u.a.a.p.k.:.:.-.-. .-.=. . . . .}  .`  .` ` ` | ) ) ) _ _ _ _ ....j g 2   v.v.v.v.v.v.v.v.v.v.v.v.v.v.v.v.v.v.v.v.v.v.v.v.",
"v.v.v.v.v.v.v.v.v.v.v.v.v.v.v.v.v.v.v.n a.z.p.k.:.:.-.-.-.-.-. . . . .}  . .] | } ] ] ] ) ) ) ) ) ) ( _ _ _ ..j o.d     v.v.v.v.v.v.v.v.v.v.v.v.v.v.v.v.v.v.v.v.v.v.",
"v.v.v.v.v.v.v.v.v.v.v.v.v.v.v.v.v.z u.z.p.g.:.:.:.6.-.=. .|  . . . .` } ] | ] ] ] ] ] ] ) ) ) ) ) ( ( ) ( t u t ..j d r   v.v.v.v.v.v.v.v.v.v.v.v.v.v.v.v.v.v.v.v.v.",
"v.v.v.v.v.v.v.v.v.v.v.v.v.v.v.v.n u.a.p.e.7.7.-.-.-.=.=. . . . .` ` ] ] ] | ] ) ] ) ) ) ] ) ) ; ( ) ; ) ( ) t u _ g j ..r   v.v.v.v.v.v.v.v.v.v.v.v.v.v.v.v.v.v.v.v.",
"v.v.v.v.v.v.v.v.v.v.v.v.v.v.v.n g.z.g.k.e.q.-.-.-.=.=. .| ]  .] ` ` ] ] ] ) ] ) ) ] ] ) ) ) ) ) ) ( ; ; ( ( ( t t t y g j d   v.v.v.v.v.v.v.v.v.v.v.v.v.v.v.v.v.v.v.",
"v.v.v.v.v.v.v.v.v.v.v.v.v.v.n a.z.g.e.q.-.-.-.-.=.| =.}  . .] ) ] ] ) ] ) ) ] ) ) ) ] ) ) ) ) ) ) ; ) ; ) ( ; t t t y y g j r   v.v.v.v.v.v.v.v.v.v.v.v.v.v.v.v.v.v.",
"v.v.v.v.v.v.v.v.v.v.v.v.v.n g.z.g.:.e.-.:.%.-.=. . . . .]  .] ) ] ) ) ) ) ) ) ) ) ) ) ) ) ) ) ) ) ) ) ; ; ; ( ( ( t t t t g j r - v.v.v.v.v.v.v.v.v.v.v.v.v.v.v.v.v.",
"v.v.v.v.v.v.v.v.v.v.v.v.n z.z.k.:.:.-.-.-.| =.| |  .| | w.w.w.0.w.| | ) ) ( ) ) ) ) ) ) ) ) ) ) ) ) ( ; ( ( ( ( ( ( ( ( ( ( ( p r   v.v.v.v.v.v.v.v.v.v.v.v.v.v.v.v.",
"v.v.v.v.v.v.v.v.v.v.v.n g.z.k.q.e.:.-.-.-.-. . .H w.c.c.c.c.c.c.c.c.w.0.| ) ) ) ( ) ) ) ) ) ( ; ; ) ) ) ( ( ( ( ( ( ( ( ( 1 t t ..2   v.v.v.v.v.v.v.v.v.v.v.v.v.v.v.",
"v.v.v.v.v.v.v.v.v.v.v.d.z.g.k.e.:.-.-.-.-.=. .H w.c.c.c.c.l.l.l.l.w.l.w.0.s ] ) ( ) ; ) ) ) ) ) ) ) ( ( ( ( ( ( ( ( ( ( t t t u g j 2   v.v.v.v.v.v.v.v.v.v.v.v.v.v.",
"v.v.v.v.v.v.v.v.v.v.n z.z.g.:.:.-.-.-.=. . .H l.c.l.l.l.l.l.w.l.l.w.w.w.w.w.S ] ) ( ) ) ) ) ) ) ) ( ( ( ( ; ( ( ( ( ( ( t t t t d g g     v.v.v.v.v.v.v.v.v.v.v.v.v.",
"v.v.v.v.v.v.v.v.v.n g.z.e.q.7.7.-.-. . . .S h.c.l.l.h.l.h.l.h.h.w.h.w.w.0.0.L S ) ) ) ( ) ) ) ) ( ) ) ; ( ( ( ( ( ( ( t t t t t y g j r   v.v.v.v.v.v.v.v.v.v.v.v.v.",
"v.v.v.v.v.v.v.v.v.u.z.g.q.e.-.-.-.-. . .%.0.l.h.l.w.h.h.w.h.w.w.w.w.w.L 0.0.L J S ) ) ) ) ) ) ; ) ) ) ( ; ) ( ( ( ( ( ( t t t t t y g g 2   v.v.v.v.v.v.v.v.v.v.v.v.",
"v.v.v.v.v.v.v.v.n g.k.q.7.-.-.-.| -. .| S l.w.w.w.h.w.w.w.w.w.f.w.0.0.L L L J J M ) ; ) ) ; ) ; ( ( ( ) ; ; ( ( ( ( ( t ( ( t t t t y j g     v.v.v.v.v.v.v.v.v.v.v.",
"v.v.v.v.v.v.v.v.g.z.k.e.q.-.-.-. . . .s 0.w.w.w.w.w.w.w.w.w.f.f.0.0.L 0.L L J J C M ) ) ) ; ) ] ) ( ) ( ( ) ) ; ( ( ( ( ( ( t t t t t d j 2   v.v.v.v.v.v.v.v.v.v.v.",
"v.v.v.v.v.v.v.n z.g.:.:.7.-.-. . . . .S 0.w.w.0.0.0.0.0.f./ f.f.L 0.L L L A A G B @ ` ; ; ) ; ; ; ; ; ; ; ) ; ; ( ( ; ; ) ; ( ( ( t t u f g     v.v.v.v.v.v.v.v.v.v.",
"v.v.v.v.v.v.v.u.z.g.e.:.-.-.| -. .] | C 0.0.0.0.0.0.0.w.f.~ L L L L L L J s s | i u }  . .5.@.@.5.5.5.@.@.@. .{ ) ) ]  .] ; ( ( t t t t g g 2   v.v.v.v.v.v.v.v.v.v.",
"v.v.v.v.v.v.v a.g.g.:.:.-. .|  . .] s S 0./ L 0.0.0.L L L L L L L L L D ) : : ' ' >.>.[ >.,.,.,.<.1.,.,.>.>.>.[ : : : ; ; } ( t t t t t d j d     v.v.v.v.v.v.v.v.v.",
"v.v.v.v.v.v.n z.p.:.:.-.-.-. . . .] s C / ~ L L J L L L L L G ~ G G G J : : ' ' [ ' >.>.>.<.,.3.1.1.1.,.<.+.>.' : ] ' : : ] ( ( ( t t t y g g -   v.v.v.v.v.v.v.v.v.",
"v.v.v.v.v.v.u.a.k.:.-.-.-.|  .] ] ) p M J G J J J L L L G G G G G G A u : ' : ' ' >.>.[ ,.,.1.3.3.3.1.,.+.+.>.[ [ ' ' ' : : ) ( ( t t t y j j 2     v.v.v.v.v.v.v.v.",
"v.v.v.v.v.z a.k.:.:.-.-.=. . .} ] ) H m J J J J J J G G G A A A A A Z ; ( ( t ( ( ( _ _ _ _ _ _ { _ [ _ _ _ _ _ ( t t t ; ; ` ( ( ( t ( t y y d     v.v.v.v.v.v.v.v.",
"v.v.v.v.v.v s.p.:.:.-.=. . . .] ] ) s m D D D D G G G A A V V V V V 6 { e.7.7.:.e.:.e.6.6.6.6.6.-.-.-.-.-.=.=.=.=.=.=. .=. .` ( ( ( t ; t y j j     v.v.v.v.v.v.v.v.",
"v.v.v.v.v.*.a.p.:.-.=. . . .] ] ) ) | @ N N B Z Z Z Z V * * * * * V i 7.c.x.x.x.e.e.e.7.e.e.:.7.6.6.6.-.6.-.=.=.=.@.=.X.=.| ) ; ( ; t t t y y j >     v.v.v.v.v.v.v.",
"v.v.v.v.6 y.g.p.-.-.-. . .] ] ] ) ) ) m # $ $ Z Z A V T * * * * * * 5 6.r.e.e.e.e.e.7.7.7.7.6.6.6.6.6.;.=.=.=.=.X. .} } { X.) ( ( ( t ( t 1 h g 2     v.v.v.v.v.v.v.",
"v.v.v.v.l a.p.:.-.-.-. . .} ] ) ) ) ; S # $ B B Z A V * * * * * * * 6 5.r.e.e.e.7.7.7.7.7.6.6.6.6.6.-.=.=.5.=.{ =.} X.X.X.) ` ; ( ( ( ( ( ( g g r     v.v.v.v.v.v.v.",
"v.v.v.v.l a.p.;.-.=. . .| ] | ) ) ) ) | N B Z Z Z V * * * R * * * * 8 a e.7.7.7.7.7.6.6.6.6.6.6.6.=.5.5.=.=.X.@.X.` ` ` ` t ` ( ( ( ( ( ( t t g g     v.v.v.v.v.v.v.",
"v.v.v.v.l a.a.6.-.-.|  . .] ) ] ] ; ; ; | m C Z Z A W * * * * * V V 8 8 %.e.7.7.7.7.6.6.7.6.6.6.=.=.5.5.=.5. .=.{ X.` ` ` t ` ( ( ( ( t ( t u d g     v.v.v.v.v.v.v.",
"v.v.v.v.l a.p.6.-.-. . .] ] ] ) ) ) ; ) ) S D J G G G ~ W W W Q W o x E q c 7.7.6.6.6.6.6.5.5.5.5.5.5.@.5.{ @.{ X.` ` _ u t ` ( ( ( ( t t t y g g       v.v.v.v.v.v.",
"v.v.v.v.l a.p.-.=. . . .| ] ) ) ) ) ; ) ; ) H J G L L L / ~ ~ ~ 8 o d.d.z . =.7.6.6.6.6.6.5.5.5.=.<.5. .5.{ { X.` X._ ) y t ( ( ( ( t t t t y g g       v.v.v.v.v.v.",
"v.v.v.v.l a.:.6.-.-. . .] ) ) ) ) ( ) ) ( (  .S 0.f.f.f.f.f.f.e X x q.q.n 7 < -.6.6.5.5.5.5.5.5.5.5.5.@.{ @.{ { { _ _ _ t t _ ( ( ( ; t t t y j d       v.v.v.v.v.v.",
"v.v.v.v.l a.:.-. .|  .] ] | ] ) ) ) ) ; ) ( e.%.p J f.f.f.h.n o 0 q.q.g.q.z o 5 5.5.5.5.5.5.5.5.<.@.@.@.@.{ { { { { _ y t t ` ( ( ( ( t t t y g g -     v.v.v.v.v.v.",
"v.v.v.v.l i.;.;.5. . .]  .] ) ) ) ) ) ( ) ) 7.r.-.s H K / F o o *.q.q.q.q.*.w < 5 5.5.5.5.5.<.<.5.@.5.@.@.@.{ [ _ _ _ t t t ( ( ( ( ( t t t u g g       v.v.v.v.v.v.",
"v.v.v.v.l a.p.-. .-. . .] ] ] ) ) ) ( ) ( ) ] r.r.q.:.7.v X O x :.g.q.g.q.q.n 0 X f <.5.<.5.5.<.<.@.@.+.X.+.{ { { _ _ ( t t _ ( ( ( ( ( t t _ g g       v.v.v.v.v.v.",
"v.v.v.v.i i.p.=. . . . .| ] ] ] ) ) ) ( ( ) ) | q.e.e.%.q o 0 9.d.q.q.q.g.q.n x o X a <.5.<.<.<.@.<.5.@.@.[ [ _ ' _ _ ( t t ` ; ( ( ( t t t t g d -     v.v.v.v.v.v.",
"v.v.v.v.5 y.p.;.-.-. .] ] ] ] ) ) ) ) ( ) ) ) ) ` X.%.7 o + K 9.w.q.q.q.q.9.q.v e o 4 X.<.<.5.<.<.<.+.<.>.@.[ [ _ ' ( _ ( t  .; ( ( ( t t t i d y -     v.v.v.v.v.v.",
"v.v.v.v.5 &.i.6.|  . . .| ] ] ) ) ) ) ) ) ( ) ) ( ` < o + x *.q.q.9.q.9.9.*.9.n z 0 X < X.<.<.<.<.<.<.>.[ [ [ _ _ _ _ ( _ t { ; ( ( t t t ( d j 2 -     v.v.v.v.v.v.",
"v.v.v.v.3 b i.;.-. . .] ] ] ] ] ) ) ) ) ) ) ( ) ) l 7 + 0 z 9.9.9.9.*.9.9.*.n 9.l x 9 o < <.<.<.<.,.,.>.+.+.[ [ ' _ ' _ ( t ( ; ( t ( t t y y g 2 -     v.v.v.v.v.v.",
"v.v.v.v.v.c i.#. . .| ] ] ] ) ) ) ) ) ) ) ) ) ) i o + 0 x n 9.9.9.u.K K 9.n 9.n n q w 9 o < +.,.,.,.,.>.+.+.[ [ [ _ _ ' _ _ ( ( ( ( ; t t y j g >     v.v.v.v.v.v.v.",
"v.v.v.v.v.5 i.;.-. . .] | ] ) ) ) ) ) ) ) ( ; p o + 0 e z 9.9.K 9.K K 9.K n n n n w w 0 o o 3 ,.,.,.,.,.+.+.[ [ [ ' _ ( _ ( ) ( ( ( ( t y y j y -     v.v.v.v.v.v.v.",
"v.v.v.v.v.3 y.i.=.=. .` ] ) ] ` ) ) ) ) ) ) a o O + P 6 n d.K u.K K K F K K K x x z q e + o . 3 ,.1.,.,.,.>.>.[ _ [ ' _ ( ( ( ( ; t t t t g j d -     v.v.v.v.v.v.v.",
"v.v.v.v.v.1 k i.;.X. . . .` ` ) ] ) ) ) ; ] q o + P w x K K ^ K ^ K ^ ^ ^ ^ x F x x w 5 e + o X X.1.1.,.,.+.>.[ [ [ _ ' _ _ ( ( ( t ( t u g g 2 -     v.v.v.v.v.v.v.",
"v.v.v.v.v.v.3 y.;.;.` ] } ] ] ) ` ) ) ; ) } o + % e w K n ^ ^ ^ ^ ^ ^ ! ! U ! x U x w 7 q P + o f 4.1.,.,.,.[ [ [ _ [ _ _ _ ( ( ( t t t y g g         v.v.v.v.v.v.v.",
"v.v.v.v.v.v.1 t.O.=.X.} ` ] ] ] ) ) ) ) ; %.+ % P q n K ^ ^ ! ! ^ ! ^ ! ! ! x E U e e o o e + O q 8.8.8.5.8.<.<.@.@.X.@.{ ` ( ( t t t t g j r       v.v.v.v.v.v.v.v.",
"v.v.v.v.v.v., f t.;. .X.] ] ] ) ) ) ) ) ( z + Y 0 w F F F ^ ! ! ! ! Q ! ! ! E U U e 0 o o 7 0 0 9 #.5.<.<.<.5.@.{ ` ` ) _ ` t t t t t y g g 2       v.v.v.v.v.v.v.v.",
"v.v.v.v.v.v.v., O.#.X.} ` ] ] ) ` ) ) ) ) e & 0 q x x U U ! ! ! Q ! Q Q Q E E E I P O O o X 8 P O a u ` _ a u a u u u u t ` ( ; t t y g g d         v.v.v.v.v.v.v.v.",
"v.v.v.v.v.v.v., h y.X.{ ` ] ) ) ) ) ) ) } % % 4 x x e U ! E E ! ! Q Q Q Q E E Y % % + O o o . 0 % X.) ) ( ( ) ; ; ( ( ( ( ( ( ( t t y g g 2       v.v.v.v.v.v.v.v.v.",
"v.v.v.v.v.v.v.v., O.#.X.} ` u ) ) ) ( ( $.& o q x e e U U E E Q Q Q Q Q R R & % % + + + o o . 4 % z ; ; ( ( ; ; ; ( ( ( t ( t t t t g j y -       v.v.v.v.v.v.v.v.v.",
"v.v.v.v.v.v.v.v.> d O.#._ _ ) ) ) ( ( ) n 9 < w e e e I I E Q R Q R R = = = = = % % + O O o . . 7 C ) ( ( ( ( ( ( ; ( ( ( t t t t y j j 2       v.v.v.v.v.v.v.v.v.v.",
"v.v.v.v.v.v.v.v.v.. j O.O.` ) ) ) ( ) ( e < q q 8 0 0 % % & & = = = = = = = = = & % + + o o o X . m ) ( ( ( ( ( ( ) ( ( t ( t t _ g g r         v.v.v.v.v.v.v.v.v.v.",
"v.v.v.v.v.v.v.v.v.v.> O.O.X._ ) ) ( ( ` 7 < < o o + + 0 & Y Y Y R R R = R R R = Y % + m O 9 4 4 4 . ) ( ( ( ( ( ( t ( t t t t t g g d         v.v.v.v.v.v.v.v.v.v.v.",
"v.v.v.v.v.v.v.v.v.v.  d o.k ` _ ) ( ( ) c z z z z n F K F K K J / ^ / ^ ^ ^ ^ ^ F K K J H x z z z i ( ( ( ( ( ( ( ( t t t t t i g ..2         v.v.v.v.v.v.v.v.v.v.v.",
"v.v.v.v.v.v.v.v.v.v.v.- d o.o._ _ ) t ( ) ) | ) ` } ` ` ) | ) | ) ] ) } X.` ` ` ) ] ] ) | ) ) ) ` ) ) ( ( ( t ( ( t t t t t d g g r         v.v.v.v.v.v.v.v.v.v.v.v.",
"v.v.v.v.v.v.v.v.v.v.v.v.> d o..._ ( ( t ( ( ( ( ; ; ; ; ( ( ( ( ) ( ( ) ( ( ( ; ) ( ) ( ; ( ) ( ; ; ( ( ( t ( ( ( t t t t g g g r         v.v.v.v.v.v.v.v.v.v.v.v.v.",
"v.v.v.v.v.v.v.v.v.v.v.v.v.  d o.y _ u t t ( ( ( ( ( ) ; ( ( ( ( ( ( ( ; ; ; ; ( ( ( ( ( ( ( ( ( ( ( ( ( t ( t t t t t y y h g r         v.v.v.v.v.v.v.v.v.v.v.v.v.v.",
"v.v.v.v.v.v.v.v.v.v.v.v.v.v.  g O.g u ) t ( t ( ( ( ( ( ( ( ( ( ( ( ( ( ( ) ; ( ( ( ( ( ( ( ( ( ( ( t ( ( t ( t t t y y j g r           v.v.v.v.v.v.v.v.v.v.v.v.v.v.",
"v.v.v.v.v.v.v.v.v.v.v.v.v.v.v.- d o.j _ ) t t ( t ( ; ( ( ( ( ( ( ( ( ( ( t ( ( t ( ( ( ( t ( ( t ( t t t t t t t y g j y r           v.v.v.v.v.v.v.v.v.v.v.v.v.v.v.",
"v.v.v.v.v.v.v.v.v.v.v.v.v.v.v.v.  d j j g y t t t t t t ( ( t t t ( t ( ( ( ( ( ( ( t ( ( ( ( t ( t t t t t t t y g j g r           v.v.v.v.v.v.v.v.v.v.v.v.v.v.v.v.",
"v.v.v.v.v.v.v.v.v.v.v.v.v.v.v.v.v.  2 d ..j y y u ( t t ( t t ( ( t t t ( ( ( ( ( ( ( ( ( ( t ; t ( t t t t i d j g d 2           v.v.v.v.v.v.v.v.v.v.v.v.v.v.v.v.v.",
"v.v.v.v.v.v.v.v.v.v.v.v.v.v.v.v.v.v.  - r j j g y y y t t t t t t ( ( t ( t ( ( ( - ( ( ( ( t t ( t t t y y g g y r             v.v.v.v.v.v.v.v.v.v.v.v.v.v.v.v.v.v.",
"v.v.v.v.v.v.v.v.v.v.v.v.v.v.v.v.v.v.v.    2 g g j y y y t t t t t t t t t t ; t ( ( t t t t t t t y _ y j g g y 2           v.v.v.v.v.v.v.v.v.v.v.v.v.v.v.v.v.v.v.v.",
"v.v.v.v.v.v.v.v.v.v.v.v.v.v.v.v.v.v.v.v.v.    r d j j y u r y y y t t t t t t t ( ( t t y u y y g g j g j d 2             v.v.v.v.v.v.v.v.v.v.v.v.v.v.v.v.v.v.v.v.v.",
"v.v.v.v.v.v.v.v.v.v.v.v.v.v.v.v.v.v.v.v.v.v.    - 2 d ..j g h g g y y y d _ y y t u y d y g g j g g g d 2               v.v.v.v.v.v.v.v.v.v.v.v.v.v.v.v.v.v.v.v.v.v.",
"v.v.v.v.v.v.v.v.v.v.v.v.v.v.v.v.v.v.v.v.v.v.v.v.      - 2 d g g g j j h g g g g i t g g j j g d d 2                 v.v.v.v.v.v.v.v.v.v.v.v.v.v.v.v.v.v.v.v.v.v.v.v.",
"v.v.v.v.v.v.v.v.v.v.v.v.v.v.v.v.v.v.v.v.v.v.v.v.v.v.          > 2 r d y g g g g y g y d r 2 >                   v.v.v.v.v.v.v.v.v.v.v.v.v.v.v.v.v.v.v.v.v.v.v.v.v.v.",
"v.v.v.v.v.v.v.v.v.v.v.v.v.v.v.v.v.v.v.v.v.v.v.v.v.v.v.v.      -     -                   -   -               v.v.v.v.v.v.v.v.v.v.v.v.v.v.v.v.v.v.v.v.v.v.v.v.v.v.v.v.",
"v.v.v.v.v.v.v.v.v.v.v.v.v.v.v.v.v.v.v.v.v.v.v.v.v.v.v.v.v.v.v.                                        v.v.v.v.v.v.v.v.v.v.v.v.v.v.v.v.v.v.v.v.v.v.v.v.v.v.v.v.v.v.v.",
"v.v.v.v.v.v.v.v.v.v.v.v.v.v.v.v.v.v.v.v.v.v.v.v.v.v.v.v.v.v.v.v.v.v.v.v.                    v.v.v.v.v.v.v.v.v.v.v.v.v.v.v.v.v.v.v.v.v.v.v.v.v.v.v.v.v.v.v.v.v.v.v.v.",
"v.v.v.v.v.v.v.v.v.v.v.v.v.v.v.v.v.v.v.v.v.v.v.v.v.v.v.v.v.v.v.v.v.v.v.v.v.v.v.v.v.v.v.v.v.v.v.v.v.v.v.v.v.v.v.v.v.v.v.v.v.v.v.v.v.v.v.v.v.v.v.v.v.v.v.v.v.v.v.v.v.v.",
"v.v.v.v.v.v.v.v.v.v.v.v.v.v.v.v.v.v.v.v.v.v.v.v.v.v.v.v.v.v.v.v.v.v.v.v.v.v.v.v.v.v.v.v.v.v.v.v.v.v.v.v.v.v.v.v.v.v.v.v.v.v.v.v.v.v.v.v.v.v.v.v.v.v.v.v.v.v.v.v.v.v.",
"v.v.v.v.v.v.v.v.v.v.v.v.v.v.v.v.v.v.v.v.v.v.v.v.v.v.v.v.v.v.v.v.v.v.v.v.v.v.v.v.v.v.v.v.v.v.v.v.v.v.v.v.v.v.v.v.v.v.v.v.v.v.v.v.v.v.v.v.v.v.v.v.v.v.v.v.v.v.v.v.v.v.",
"v.v.v.v.v.v.v.v.v.v.v.v.v.v.v.v.v.v.v.v.v.v.v.v.v.v.v.v.v.v.v.v.v.v.v.v.v.v.v.v.v.v.v.v.v.v.v.v.v.v.v.v.v.v.v.v.v.v.v.v.v.v.v.v.v.v.v.v.v.v.v.v.v.v.v.v.v.v.v.v.v.v.",
"v.v.v.v.v.v.v.v.v.v.v.v.v.v.v.v.v.v.v.v.v.v.v.v.v.v.v.v.v.v.v.v.v.v.v.v.v.v.v.v.v.v.v.v.v.v.v.v.v.v.v.v.v.v.v.v.v.v.v.v.v.v.v.v.v.v.v.v.v.v.v.v.v.v.v.v.v.v.v.v.v.v.",
"v.v.v.v.v.v.v.v.v.v.v.v.v.v.v.v.v.v.v.v.v.v.v.v.v.v.v.v.v.v.v.v.v.v.v.v.v.v.v.v.v.v.v.v.v.v.v.v.v.v.v.v.v.v.v.v.v.v.v.v.v.v.v.v.v.v.v.v.v.v.v.v.v.v.v.v.v.v.v.v.v.v."
};
