/* XPM */
static char *Free_Converter_com_btn_save_1_86282732[] = {
/* columns rows colors chars-per-pixel */
"82 82 256 2 ",
"   c #000C0E",
".  c #000E10",
"X  c #001214",
"o  c #001619",
"O  c #00191D",
"+  c #00252A",
"@  c #002F36",
"#  c #003B44",
"$  c #00434D",
"%  c #0F434A",
"&  c #024953",
"*  c #0D4B54",
"=  c #065A66",
"-  c #006473",
";  c #036978",
":  c #00616F",
">  c #316269",
",  c #565475",
"<  c #5B5A68",
"1  c #615F74",
"2  c #6A6A6B",
"3  c #656567",
"4  c #696975",
"5  c #757575",
"6  c #7A7A7B",
"7  c #777679",
"8  c #4E7176",
"9  c #170F86",
"0  c #170F88",
"q  c #180F8C",
"w  c #161383",
"e  c #161B83",
"r  c #171389",
"t  c #18118E",
"y  c #191988",
"u  c #1B1292",
"i  c #1B1B94",
"p  c #231C8B",
"a  c #201795",
"s  c #231A96",
"d  c #261E98",
"f  c #281F98",
"g  c #162383",
"h  c #152B83",
"j  c #17278B",
"k  c #153485",
"l  c #153B84",
"z  c #15378A",
"x  c #1A2795",
"c  c #183A97",
"v  c #2B239A",
"b  c #2A2799",
"n  c #342D96",
"m  c #30279D",
"M  c #322B9D",
"N  c #26379F",
"B  c #393399",
"V  c #362EA0",
"C  c #3B33A2",
"Z  c #3D3BA4",
"A  c #3336A1",
"S  c #2D38A0",
"D  c #433D9E",
"F  c #433BA5",
"G  c #154C8A",
"H  c #154687",
"J  c #15538B",
"K  c #155B89",
"L  c #174A96",
"P  c #155895",
"I  c #375A96",
"U  c #344A98",
"Y  c #15658B",
"T  c #156F8F",
"R  c #007A8C",
"E  c #007485",
"W  c #16758C",
"Q  c #156593",
"!  c #166A99",
"~  c #157C92",
"^  c #157898",
"/  c #007B8E",
"(  c #3C6299",
")  c #337A84",
"_  c #1A57A2",
"`  c #2A4AA4",
"'  c #3747A7",
"]  c #2A5CA5",
"[  c #3A55AB",
"{  c #186FA6",
"}  c #2C63A7",
"|  c #3163A6",
" . c #3A6AAB",
".. c #3574B3",
"X. c #4B469B",
"o. c #4E499D",
"O. c #46409E",
"+. c #5B5796",
"@. c #525496",
"#. c #615E8B",
"$. c #4B6C9E",
"%. c #43669B",
"&. c #53709B",
"*. c #666486",
"=. c #7F7F80",
"-. c #4542A8",
";. c #4B44AA",
":. c #4D4BAC",
">. c #4546A6",
",. c #524CAD",
"<. c #4857A8",
"1. c #5451AE",
"2. c #545CAB",
"3. c #5A55B1",
"4. c #5D5AB3",
"5. c #5556B1",
"6. c #4C5AB0",
"7. c #625EB5",
"8. c #496AA3",
"9. c #4B71A9",
"0. c #5979A9",
"q. c #4869B4",
"w. c #5865B5",
"e. c #4B76B3",
"r. c #547DB5",
"t. c #597CBC",
"y. c #5861AD",
"u. c #6462B7",
"i. c #676BB9",
"p. c #6874BB",
"a. c #7076BF",
"s. c #637BA9",
"d. c #737BC1",
"f. c #6B7EC0",
"g. c #008295",
"h. c #008A9E",
"j. c #00869A",
"k. c #15849B",
"l. c #168599",
"z. c #328895",
"x. c #068DA5",
"c. c #158BA3",
"v. c #1488A7",
"b. c #0195AB",
"n. c #019BAE",
"m. c #0991AB",
"M. c #1595AB",
"N. c #1889B3",
"B. c #019DB4",
"V. c #0A9AB5",
"C. c #149CB4",
"Z. c #1696B6",
"A. c #389DAD",
"S. c #2B8EB1",
"D. c #00A2BA",
"F. c #08A4B9",
"G. c #14A4BA",
"H. c #33A1B1",
"J. c #508D96",
"K. c #5981B6",
"L. c #5D84BB",
"P. c #5582BB",
"I. c #4B90B0",
"U. c #648ABC",
"Y. c #6B8EBD",
"T. c #6384B5",
"R. c #7388B8",
"E. c #7091AF",
"W. c #57ACB8",
"Q. c #58ABB7",
"!. c #6FABB4",
"~. c #6A969C",
"^. c #3A9CC2",
"/. c #04ACC2",
"(. c #14ACC2",
"). c #1BA5C2",
"_. c #05B7CB",
"`. c #16B6CA",
"'. c #05BDD1",
"]. c #17BED1",
"[. c #32AFCB",
"{. c #5392C3",
"}. c #6787C2",
"|. c #7687C5",
" X c #6C94C4",
".X c #7395C3",
"XX c #7B9BC5",
"oX c #7A99C8",
"OX c #48A8CB",
"+X c #54B3D0",
"@X c #7AA3CE",
"#X c #66B4D3",
"$X c #78B9D7",
"%X c #73AFCB",
"&X c #0AC4D6",
"*X c #1AC5D7",
"=X c #28CADB",
"-X c #39CADB",
";X c #2DC1CF",
":X c #35D4E2",
">X c #48C7D9",
",X c #58C8DB",
"<X c #52CCD8",
"1X c #69C8DA",
"2X c #76C7DD",
"3X c #73D4DD",
"4X c #4AD7E4",
"5X c #5ADAE6",
"6X c #67DBE7",
"7X c #77DAE5",
"8X c #7ACCE0",
"9X c #69E1EA",
"0X c #7CE1EA",
"qX c #74E2EB",
"wX c #898989",
"eX c #949494",
"rX c #9D9D9D",
"tX c #93A4BD",
"yX c #A4A4A4",
"uX c #ABABAB",
"iX c #B4B4B4",
"pX c #BBBBBB",
"aX c #A9B2BE",
"sX c #8E9CB1",
"dX c #829EC7",
"fX c #9091CC",
"gX c #85A2CA",
"hX c #8AA6CC",
"jX c #93ADD1",
"kX c #99A8D3",
"lX c #81BAD8",
"zX c #93AED0",
"xX c #ACB8C9",
"cX c #83C3DC",
"vX c #BDC4CE",
"bX c #83DBE8",
"nX c #82CEE1",
"mX c #83E2EC",
"MX c #C4C4C4",
"NX c #CCCCCC",
"BX c #C3C6CA",
"VX c #D3D1CE",
"CX c #D4D4D4",
"ZX c #DBDBDB",
"AX c #D7D7D7",
"SX c #CECFD0",
"DX c #E0DFDD",
"FX c #E3E2DF",
"GX c #E3E3E3",
"HX c #EBEBEB",
"JX c #E9E7E4",
"KX c #F4F4F3",
"LX c #F9F9F9",
"PX c #F1EFEC",
"IX c #DFE0E1",
"UX c None",
/* pixels */
"UXUXUXUXUXUXUXUXUXUXUXUXUXUXUXUXUXUXUXUXUXUXUXUXUXUXUXUXUXUXUXUXUXUXUXUXUXUXUXUXUXUXUXUXUXUXUXUXUXUXUXUXUXUXUXUXUXUXUXUXUXUXUXUXUXUXUXUXUXUXUXUXUXUXUXUXUXUXUXUXUXUX",
"UXUXUXUXUXUXUXUXUXUXUXUXUXUXUXUXUXUXUXUXUXUXUXUXUXUXUXUXUXUXUXUXUXUXUXUXUXUXUXUXUXUXUXUXUXUXUXUXUXUXUXUXUXUXUXUXUXUXUXUXUXUXUXUXUXUXUXUXUXUXUXUXUXUXUXUXUXUXUXUXUXUX",
"UXUXUXUXUXUXUXUXUXUXUXUXUXUXUXUXUXUXUXUXUXUXUXUXUXUXUXUXUXUXUXUXUXUXUXUXUXUXUXUXUXUXUXUXUXUXUXUXUXUXUXUXUXUXUXUXUXUXUXUXUXUXUXUXUXUXUXUXUXUXUXUXUXUXUXUXUXUXUXUXUXUX",
"UXUXUXUXUXUXUXUXUXUXUXUXUXUXUXUXUXUXUXUXUXUXUXUXUXUXUXUXUXUXUXUXUXUXUXUXUXUXUXUXUXUXUXUXUXUXUXUXUXUXUXUXUXUXUXUXUXUXUXUXUXUXUXUXUXUXUXUXUXUXUXUXUXUXUXUXUXUXUXUXUXUX",
"UXUXUXUXUXUXUXUXUXUXUXUXUXUXUXUXUXUXUXUXUXUXUXUXUXUXUXUXUXUXUXUXUX) z.A.A.A.A.A.S.S.z.; = % UXUXUXUXUXUXUXUXUXUXUXUXUXUXUXUXUXUXUXUXUXUXUXUXUXUXUXUXUXUXUXUXUXUXUXUX",
"UXUXUXUXUXUXUXUXUXUXUXUXUXUXUXUXUXUXUXUXUXUXUXUXUXUXUXUXUXJ.W.+X<X4X5X4X4X4X4X4X4X:X:X=X-X*X`.{ ; % UXUXUXUXUXUXUXUXUXUXUXUXUXUXUXUXUXUXUXUXUXUXUXUXUXUXUXUXUXUXUXUX",
"UXUXUXUXUXUXUXUXUXUXUXUXUXUXUXUXUXUXUXUXUXUXUXUXUXUXJ.W.5X5X5X1X,X,X+X+XOXOXOXOXOX[.OX;X;X-X=X*X=X&Xh.; @ UXUXUXUXUXUXUXUXUXUXUXUXUXUXUXUXUXUXUXUXUXUXUXUXUXUXUXUXUX",
"UXUXUXUXUXUXUXUXUXUXUXUXUXUXUXUXUXUXUXUXUXUXUXUXQ.1X9X9X6X1X#X+X X{.P.P.e.e.q.q. .q.........^.).`.;X=X&X_.R # UXUXUXUXUXUXUXUXUXUXUXUXUXUXUXUXUXUXUXUXUXUXUXUXUXUXUX",
"UXUXUXUXUXUXUXUXUXUXUXUXUXUXUXUXUXUXUXUXUXUX!.6X9XqX1X#X%X{.L.t.w.w.6.6.6.<.>.>.[ ' ' ' ` ' ] ] } N.Z.].*X&X'./ # UXUXUXUXUXUXUXUXUXUXUXUXUXUXUXUXUXUXUXUXUXUXUXUXUX",
"UXUXUXUXUXUXUXUXUXUXUXUXUXUXUXUXUXUXUXUX~.3X9X7X2X#X X}.t.i.w.5.6.6.:.:.-.F ' Z Z Z C A S N N N N ` _ { N.(.].&X/.; UXUXUXUXUXUXUXUXUXUXUXUXUXUXUXUXUXUXUXUXUXUXUXUX",
"UXUXUXUXUXUXUXUXUXUXUXUXUXUXUXUXUXUXUX%X9X0X2X$X@X}.f.w.4.5.5.:.:.-.' F F F C C C V V m m m v x x x x c _ _ N.(.*X'.h.$ UXUXUXUXUXUXUXUXUXUXUXUXUXUXUXUXUXUXUXUXUXUX",
"UXUXUXUXUXUXUXUXUXUXUXUXUXUXUXUXUX~.3X0X7X$X@X}.f.i.u.4.3.,.:.-.F F F C C C C V m V m m m v v d d s i x x c L ! Z.`.'._.- UXUXUXUXUXUXUXUXUXUXUXUXUXUXUXUXUXUXUXUXUX",
"UXUXUXUXUXUXUXUXUXUXUXUXUXUXUXUX!.7X0X8X$XoXf.a.i.u.4.1.:.;.-.F F C C V V V M M m m m m m v d s a a i u i j j c P { G.*X'.R UXUXUXUXUXUXUXUXUXUXUXUXUXUXUXUXUXUXUXUX",
"UXUXUXUXUXUXUXUXUXUXUXUXUXUXUX!.qXmXcX@X|.d.p.u.4.5.5.;.;.F F C V V M m m m m m m m v v v d d d a a u u t t j i x L ! Z.`.&Xj.UXUXUXUXUXUXUXUXUXUXUXUXUXUXUXUXUXUXUX",
"UXUXUXUXUXUXUXUXUXUXUXUXUXUX!.mXbXlX@X|.a.i.u.7.3.,.;.-.:.1.<.I U I <.<.F b b v v v v v v d d s a u u u t t r y j j z Q v.`.'.h.UXUXUXUXUXUXUXUXUXUXUXUXUXUXUXUXUXUX",
"UXUXUXUXUXUXUXUXUXUXUXUXUX!.0XmXlXoX|.d.i.u.4.3.,.;.;.5.I ( 0.XXgXXXT.9.I <.D f d d d v d d d i a u u u t q r r e e g z P v.(.'.h.UXUXUXUXUXUXUXUXUXUXUXUXUXUXUXUXUX",
"UXUXUXUXUXUXUXUXUXUXUXUX!.mXbXlXoX|.d.i.u.4.3.;.F ,.<.8.dXzXjXjXzXjXzXzXzXT.I :.d d d d d d s s a a u u t t q q 0 0 e g k P x.(.'.j.UXUXUXUXUXUXUXUXUXUXUXUXUXUXUXUX",
"UXUXUXUXUXUXUXUXUXUXUX~.bXmXcXgX|.d.i.u.4.3.,.;.,.%.s.kXkXjXjXhXhXhXhXgXXXhXgX( ' d d d d s s a a i u u t q q q 0 0 w e e k P v.`.'./ UXUXUXUXUXUXUXUXUXUXUXUXUXUXUX",
"UXUXUXUXUXUXUXUXUXUXUX3XmXnX@X|.d.a.7.4.3.;.F F %.R.fXkXgX.XdXjXjXhXgX@XXXXXXXzX( :.s d d s s s s a u u t t q q 0 9 9 w e g k P M.`._.: UXUXUXUXUXUXUXUXUXUXUXUXUXUX",
"UXUXUXUXUXUXUXUXUXUXlXmXnXhX|.d.i.u.4.,.;.;.F u.p.fXR.$.<.I @.( T.jXhXXXXXXX.XoXhXI C d d s s s s s u u t t t q 0 0 9 9 w e h l ! C._.n.& UXUXUXUXUXUXUXUXUXUXUXUXUX",
"UXUXUXUXUXUXUXUXUX!.7XbXlXfXd.a.u.4.1.:.;.F ,.@.fX%.<.C v d d V I ( zXdXXX.X.XY.gXY.<.d s s s a s u a u u u t t 0 0 9 9 w w e g G ^ (.'.h.UXUXUXUXUXUXUXUXUXUXUXUXUX",
"UXUXUXUXUXUXUXUXUX8XmXlXoXd.a.i.7.1.,.-.F V 7.R.8.>.s d d d s s d 6.8.jX.X.X.XY.U.hX( F s s s a a s a u u u t t 0 0 9 9 w w e e h P v.`._.; UXUXUXUXUXUXUXUXUXUXUXUX",
"UXUXUXUXUXUXUXUX%X0X8X@X|.d.i.7.3.,.-.F B F i.s.<.f d d s s s s u i <..X@X.XY.Y.U.XXK.2.a a a i a a i a u u t u q q 0 9 9 9 w e g z Q C._.n.# UXUXUXUXUXUXUXUXUXUXUX",
"UXUXUXUXUXUXUXUX7XmXlXfXd.a.u.4.,.;.F C M 1.i.4.d d d n n B n B n B o.$.hXY.Y.U.U.Y.gX%.n n n n m m m m s u t t t q 0 9 w w w w e j J ^ (.'.R UXUXUXUXUXUXUXUXUXUXUX",
"UXUXUXUXUXUXUX!.0XnX@X|.a.u.7.,.;.F F V m 5.w.C s m 1 4 6 6 6 6 6 6 5 %.hXY.Y.U.U.K.hX( 4 6 7 7 6 6 7 7 3 ;.u u t t q q q q 0 9 e e z Q C._.B.$ UXUXUXUXUXUXUXUXUXUX",
"UXUXUXUXUXUXUX3XmX$XoXd.i.7.3.,.F F V m m ,.;.s a +.wXLXLXKXKXKXKXKXLXR..XR.U.U.L.K.@X0.vXKXKXPXHXHXHXKXMX1 a u t t t t q q 0 9 9 e h G v.G._.E UXUXUXUXUXUXUXUXUXUX",
"UXUXUXUXUXUX~.qX8X@X|.i.7.3.,.;.F V V f m F m a s *.ZXPXAXFXIXIXGXIXJXE.Y. XU.L.K.K.XXK.aXFXAXAXAXAXAXCXKX5 O.a u u u t q q 0 9 w e g z Q C._.b.@ UXUXUXUXUXUXUXUXUX",
"UXUXUXUXUXUX$X0X$XoXd.i.7.1.;.F C V m d d m s a D 4 LXGXT.( $.$.$.$.$.I .X.XK.K.K.r.XXE.( $.$.$.$.8.I tXPXyX+.a u u u t q q q 0 9 r e h G c.(.F.- UXUXUXUXUXUXUXUXUX",
"UXUXUXUXUXUX3X7X$X|.p.7.3.,.;.F V m v d s a a a +.rXLXGXSXI K.XX.X.X.XXXgXU.K.K.K.e.Y.zXgXgXdXXXjX8.s.ZXGXCX1 f a u u u t t q q 9 r e h H ^ C._.h.O UXUXUXUXUXUXUXUX",
"UXUXUXUXUX~.qX3XoXf.i.4.,.;.F C V m d s a a u a 1 CXHXFXHXvX( XX.XK.U.L.T.K.K.r.K.e.e.e.e.e. .XXY.%.AXFXCXKXwXX.a u u u t t q q 9 9 r e z Q M._.B.# UXUXUXUXUXUXUXUX",
"UXUXUXUXUX%XqX2X Xp.u.3.,.F F V f f d a a a u F =.LXFXGXIXHXxXI XXU.P.K.K.r.r.r.P.e.9. . .} K.XX( SXDXAXCXJXpX+.a a u u u t t q 9 9 r e h J c.(.D.- UXUXUXUXUXUXUXUX",
"UXUXUXUXUX1XqX%X}.i.4.,.;.F V m m d s a u u u +.iXKXZXGXGXHXPXtX%.gXL.r.r.K.e.9. . .| } ] 9.dXI xXJXZXZXAXAXIX1 V a u u u t t q q 9 w r g H ^ G././ o UXUXUXUXUXUXUX",
"UXUXUXUX8 6X6X@Xf.u.3.,.F Z V m f d s a u u f 1 GXHXGXGXGXGXGXHXE.%.XXe. . .| | | | | ]  .hX%.sXJXZXZXZXZXAXHXwXo.a a a u u q q q 9 9 w g l ^ C./.b.+ UXUXUXUXUXUXUX",
"UXUXUXUXJ.9X2X Xp.7.1.:.F C m m d d a u u u X.=.LXZXGXGXGXGXGXIXDX0.$.T.] } | | | | | | dX9.E.FXZXAXZXZXZXAXGXMX*.s a a u u u q q q 9 w e l Q M.F.D.$ UXUXUXUXUXUXUX",
"UXUXUXUXI.qX1X Xp.w.5.;.F C m m d d s u u u #.iXKXZXGXGXGXZXZXZXZXVX%.K.L.] | | | | | Y.T.&.CXAXCXCXAXZXZXZXAXGX4 F s u u u t q q 9 9 w e k K c./.D.& UXUXUXUXUXUXUX",
"UXUXUXUXQ.6X1X}.i.5.,.F Z C m v d s u u u v 4 HXGXIXGXZXZXZXCXAXCXZXBXI Y.K.] | | ] T..X( MXCXSXCXCXCXAXAXAXAXHXeX+.a a u u t t 9 9 9 w e h J l.G.D.; UXUXUXUXUXUXUX",
"UXUXUXUXQ.qX$X}.w.5.,.-.C V m v d s a u u o.wXKXZXIXZXZXAXCXCXCXCXCXZXaXI XXe.} ] e.gXI aXNXNXSXSXCXCXCXCXAXAXZXBX1 s u u u t q q 0 9 9 e h G k.G.D.E   UXUXUXUXUXUX",
"UXUXUXUXQ.9X#X}.w.5.;.-.C V m v d a a a t #.MXHXCXGXZXCXCXAXAXCXCXVXNXVXsX( gX . .hX( sXVXNXNXNXNXSXCXCXCXZXAXCXJX=.F u u u u q 0 0 9 9 w h G k.G.D./ . UXUXUXUXUXUX",
"UXUXUXUXW.9X#Xt.w.,.;.Z C m m d s s u u m 7 PXZXZXZXGXZXAXAXAXCXVXSXVXNXVX~.%.gXgX8.~.VXMXNXSXNXSXVXCXCXAXGXCXCXGXyX+.u u t t q 0 0 w 9 e h G ~ C.B./ o UXUXUXUXUXUX",
"UXUXUXUXOX9X#Xt.w.,.;.F V V m v d s a a o.rXKXZXZXAXGXGXZXAXAXCXCXVXVXNXNXVXs.0.s.&.NXNXNXNXSXSXSXCXCXAXGXAXCXCXZXCX1 d u u t t 0 9 w w e g G k.G.B.h.o UXUXUXUXUXUX",
"UXUXUXUXW.5X#Xt.w.,.;.F V V m d d d a a #.SXHXAXZXZXAXIXHXDXAXCXCXCXVXSXSXVXNX%.I BXSXSXSXSXVXSXCXCXIXHXAXCXCXCXCXGX6 D a u q q q 9 9 w w h G ~ C.B.j.o UXUXUXUXUXUX",
"UXUXUXUXQ.5X#XL.q.:.-.F V V m m d d s C 7 HXZXZXZXZXZXZXZXHXHXGXZXCXCXSXVXSXVXvXMXVXSXVXSXCXCXZXGXHXGXAXCXCXCXAXCXIXyX#.u u u q q q 9 w e h J k.F.B.g.X UXUXUXUXUXUX",
"UXUXUXUXI.5X+XL.w.:.-.F C V m v v d d +.rXHXZXHXHXZXZXZXZXZXZXHXHXHXHXIXIXZXZXZXZXZXZXZXIXGXHXHXGXAXCXCXCXCXGXHXGXCXZX4 f u u q q q w w e h J l.Z.B./ X UXUXUXUXUXUX",
"UXUXUXUXJ.5X,X{.w.:.;.F V V m v d d s #.NXGXZXGXGXZXZXZXZXZXZXZXZXIXHXHXHXHXHXHXPXPXHXHXHXHXZXAXCXAXAXAXCXCXAXGXZXCXGXwXF u u q q 9 w w e k Y l.F.D.E . UXUXUXUXUXUX",
"UXUXUXUX) 4X<XP.q.,.-.C V V m v v d s , IXHXZXZXZXZXDXIXZXGXZXFXZXZXZXIXIXIXGXGXGXGXIXZXZXZXZXZXZXAXZXAXZXAXAXAXAXAXPXwXD u q q q 9 9 w g k Y c.V.D.-   UXUXUXUXUXUX",
"UXUXUXUX> >X<X{.q.:.-.Z V V m m v f d , ZXHXHXHXHXHXHXHXHXHXHXHXHXHXHXHXHXHXHXJXHXHXGXHXHXHXHXHXHXHXHXHXGXJXHXGXJXGXDX5 D u u q q 9 9 w g l T c.D.D.= . UXUXUXUXUXUX",
"UXUXUXUXUX>X5XOXq.6.-.Z V V m v m f f , CXMXpXpXpXpXpXpXpXiXiXiXiXiXiXiXiXiXuXiXuXuXuXuXuXuXuXyXyXyXyXyXyXyXyXrXrXyXiX5 F u u q 9 9 w e h H ^ M.n.B.# UXUXUXUXUXUXUX",
"UXUXUXUXUXA.4X+Xe.6.-.Z C V V m m v f , CXBXpXpXpXpXiXpXiXpXiXiXiXiXiXuXuXuXuXuXuXuXyXuXyXyXyXyXyXyXyXrXyXrXrXrXrXrXiX7 F u q q q w w e h J ~ Z.n.b.@ UXUXUXUXUXUXUX",
"UXUXUXUXUX) 4X>XP.[ ' -.C V V m m v d , VXBXpXpXuXeXrXrXyXyXuXuXuXuXuXiXuXuXuXiXuXuXuXyXuXpXyXpXyXpXyXpXyXuXuXiXrXrXiX7 F u q q 9 9 w g k Y l.V.D.g.O UXUXUXUXUXUXUX",
"UXUXUXUXUX> -X4X^.q.>.Z C V m m m v f , CXMXpXpXrXwXwXeXeXrXyXyXuXuXuXuXiXiXuXuXuXuXuXuXyXMXyXpXyXpXyXpXyXuXyXpXrXrXiX7 D q q q 9 w e g H T c.n.D.;   UXUXUXUXUXUXUX",
"UXUXUXUXUXUXH.4XOXq.' Z A V V m m d d , CXMXpXpXrXwXeXeXrXrXyXyXyXuXuXuXuXuXuXuXuXyXuXyXuXMXyXpXyXMXyXpXyXiXyXiXrXrXiX7 D q q q 9 w e h J l.M.b.n.$ . UXUXUXUXUXUXUX",
"UXUXUXUXUXUX) :X>XI.[ ' C V m m m f d , SXMXpXpXuXeXeXeXeXrXrXyXyXuXuXuXiXuXuXuXuXuXuXyXyXMXyXpXyXpXyXpXyXiXyXiXeXrXuX7 D q q 9 w e g l Y l.m.B.h.+ UXUXUXUXUXUXUXUX",
"UXUXUXUXUXUX% ;X>X^. .' A V m m v d d *.MXMXpXpXiXuXiXuXyXyXrXyXyXuXuXuXuXuXiXuXuXuXyXuXyXMXyXpXyXpXyXpXyXuXyXpXrXrXuX5 D q 9 9 e e h G ~ c.n.D.- . UXUXUXUXUXUXUXUX",
"UXUXUXUXUXUXUXz.:X-X..[ S A m m v d d *.NXMXpXiXMXNXBXNXNXMXMXiXiXuXuXuXuXuXuXuXuXyXuXyXyXMXyXpXyXpXyXpXyXiXyXiXrXrXuX5 X.q 9 w w g l Y l.m.B.b.# X UXUXUXUXUXUXUXUX",
"UXUXUXUXUXUXUX* =X-X^.} ' A b v f v m *.NXMXpXpXpXpXpXpXpXiXpXiXiXiXiXuXuXuXuXuXuXuXyXuXyXuXyXuXyXyXyXuXrXyXyXyXrXrXuX5 X.9 9 w e h J ~ v.b.D.R X UXUXUXUXUXUXUXUXUX",
"UXUXUXUXUXUXUXUXk.=X;X..` N N v d v v #.wXDXAXCXVXSXSXSXSXNXNXNXNXMXNXMXMXMXMXMXpXpXpXpXpXiXpXiXiXuXuXuXuXuXuXuXuXuXrX3 B r w e g l Y l.m.b.B.$ . UXUXUXUXUXUXUXUXUX",
"UXUXUXUXUXUXUXUX% ].:X^.} ` m d d d v -.1 2 2 2 2 2 2 2 2 2 2 2 2 2 2 2 2 2 2 3 2 3 3 3 2 3 3 3 3 3 3 3 3 3 3 3 3 3 < #.p p w g k J ~ c.B.D.R o UXUXUXUXUXUXUXUXUXUX",
"UXUXUXUXUXUXUXUXUXW *X;XN.] N x i i d d n F o.o.o.o.o.o.o.o.o.;.o.o.o.o.X.X.X.X.X.;.o.o.o.o.o.o.o.o.X.X.X.X.X.o.X.X.D p w w e h H W l.m.B.b.# X UXUXUXUXUXUXUXUXUXUX",
"UXUXUXUXUXUXUXUXUXUXM.=X]...` x i i t i s s f b M m m M V M m V M M M m m n n m m m m m M M M M M m b n n n f p p p p e p e h l Y l.m.h.D.; o UXUXUXUXUXUXUXUXUXUXUX",
"UXUXUXUXUXUXUXUXUXUX* &X=X).{ c x i i t t i u a s d f s s d a a f s d s s f s s d s s a f d f s s s a p p p p 9 e w w w e g k ; l.v.B.D.j.+ o UXUXUXUXUXUXUXUXUXUXUX",
"UXUXUXUXUXUXUXUXUXUXUX; '.*XZ._ c x i t u t t t q q u q u t t u q u t t q u u u t u t t u u q u t t t q 9 9 9 9 w w e e g k J ~ k.b.D.b.&   UXUXUXUXUXUXUXUXUXUXUXUX",
"UXUXUXUXUXUXUXUXUXUXUXUX/ &X*XZ._ L x y y t 0 0 q q q q t q t t u u t t q q q q q u t t u q u u t q q q 9 w 9 9 w w e g l > ~ k.m.b.D.: . UXUXUXUXUXUXUXUXUXUXUXUXUX",
"UXUXUXUXUXUXUXUXUXUXUXUXUXj.&X].N._ c x y y r 0 q q q q q q q q q q q q t q q t q u u u t q q q q q q 9 w w w w w e g l K ~ k.h.b.D.E O UXUXUXUXUXUXUXUXUXUXUXUXUXUX",
"UXUXUXUXUXUXUXUXUXUXUXUXUXUXx.'.`.Z.P L j j y r 0 0 q q q q q q q q q q q q q q q q q q q q q q q q 9 9 w w w e g h H K ~ k.x.b.D.E + o UXUXUXUXUXUXUXUXUXUXUXUXUXUX",
"UXUXUXUXUXUXUXUXUXUXUXUXUXUXUXx.'.].Z.{ L z g y y y r 0 0 9 r 0 9 9 9 9 9 0 9 0 0 q 0 q 0 0 0 0 0 9 9 w w w e g k H Y l.k.b.b.D./ + X UXUXUXUXUXUXUXUXUXUXUXUXUXUXUX",
"UXUXUXUXUXUXUXUXUXUXUXUXUXUXUXUXj.'.].G.{ P z j g y e w 9 9 9 9 9 9 9 9 9 9 9 w 0 9 0 0 0 9 0 9 9 w w e e g h l K W l.v.b.b.D.E + X UXUXUXUXUXUXUXUXUXUXUXUXUXUXUXUX",
"UXUXUXUXUXUXUXUXUXUXUXUXUXUXUXUXUXR _._.).M.! G z j g e e w w w w w w 9 9 9 9 9 9 9 9 9 w w w r w e e g h l = Q ~ k.x.n.B.B.E + o UXUXUXUXUXUXUXUXUXUXUXUXUXUXUXUXUX",
"UXUXUXUXUXUXUXUXUXUXUXUXUXUXUXUXUXUX- B.'.`.C.v.Q G z h g e e w w w w w 9 w 9 9 w w 9 9 w w e e g g h l G K W l.v.m.x.D.b.: o o UXUXUXUXUXUXUXUXUXUXUXUXUXUXUXUXUXUX",
"UXUXUXUXUXUXUXUXUXUXUXUXUXUXUXUXUXUXUX& h._._.(.C.c.Q G H k h g g e e e e e w y e e e e g g h h k H J Y W l.c.m.n.B.D.h.$ . UXUXUXUXUXUXUXUXUXUXUXUXUXUXUXUXUXUXUXUX",
"UXUXUXUXUXUXUXUXUXUXUXUXUXUXUXUXUXUXUXUXUX; n._.`.G.C.c.^ Q J H H l k h h h h h g h h k l l H J Y W l.l.c.Z.V.b.D.b.; +   UXUXUXUXUXUXUXUXUXUXUXUXUXUXUXUXUXUXUXUXUX",
"UXUXUXUXUXUXUXUXUXUXUXUXUXUXUXUXUXUXUXUXUXUX# R B._.'.(.G.M.c.^ T Q K J G G G G G J J Y Y T ~ k.l.c.N.V.B.n.D.B.R # X o UXUXUXUXUXUXUXUXUXUXUXUXUXUXUXUXUXUXUXUXUXUX",
"UXUXUXUXUXUXUXUXUXUXUXUXUXUXUXUXUXUXUXUXUXUXUXUX$ E b.D._./.(.G.C.M.c.l.l.k.k.^ k.l.l.l.c.c.M.m.V.n.b.B.D.b.R $ o . UXUXUXUXUXUXUXUXUXUXUXUXUXUXUXUXUXUXUXUXUXUXUXUX",
"UXUXUXUXUXUXUXUXUXUXUXUXUXUXUXUXUXUXUXUXUXUXUXUXUXUX@ - h.B.D./././.F.(.F.C.Z.G.C.C.V.V.V.B.B.b.D.D.B.h.- # X . UXUXUXUXUXUXUXUXUXUXUXUXUXUXUXUXUXUXUXUXUXUXUXUXUXUX",
"UXUXUXUXUXUXUXUXUXUXUXUXUXUXUXUXUXUXUXUXUXUXUXUXUXUXUXUXO # : g.b.B.D.D.D.D.B.D.B.D.D.D.D.D.B.b.g.- $ + . X UXUXUXUXUXUXUXUXUXUXUXUXUXUXUXUXUXUXUXUXUXUXUXUXUXUXUXUX",
"UXUXUXUXUXUXUXUXUXUXUXUXUXUXUXUXUXUXUXUXUXUXUXUXUXUXUXUXUXUXUXX + # = : E R / / g.g.R E ; = $ @ o . . UXUXUXUXUXUXUXUXUXUXUXUXUXUXUXUXUXUXUXUXUXUXUXUXUXUXUXUXUXUXUX",
"UXUXUXUXUXUXUXUXUXUXUXUXUXUXUXUXUXUXUXUXUXUXUXUXUXUXUXUXUXUXUXUXUXUXUXUX  . o o o X .       UXUXUXUXUXUXUXUXUXUXUXUXUXUXUXUXUXUXUXUXUXUXUXUXUXUXUXUXUXUXUXUXUXUXUXUX",
"UXUXUXUXUXUXUXUXUXUXUXUXUXUXUXUXUXUXUXUXUXUXUXUXUXUXUXUXUXUXUXUXUXUXUXUXUXUXUXUXUXUXUXUXUXUXUXUXUXUXUXUXUXUXUXUXUXUXUXUXUXUXUXUXUXUXUXUXUXUXUXUXUXUXUXUXUXUXUXUXUXUX",
"UXUXUXUXUXUXUXUXUXUXUXUXUXUXUXUXUXUXUXUXUXUXUXUXUXUXUXUXUXUXUXUXUXUXUXUXUXUXUXUXUXUXUXUXUXUXUXUXUXUXUXUXUXUXUXUXUXUXUXUXUXUXUXUXUXUXUXUXUXUXUXUXUXUXUXUXUXUXUXUXUXUX",
"UXUXUXUXUXUXUXUXUXUXUXUXUXUXUXUXUXUXUXUXUXUXUXUXUXUXUXUXUXUXUXUXUXUXUXUXUXUXUXUXUXUXUXUXUXUXUXUXUXUXUXUXUXUXUXUXUXUXUXUXUXUXUXUXUXUXUXUXUXUXUXUXUXUXUXUXUXUXUXUXUXUX",
"UXUXUXUXUXUXUXUXUXUXUXUXUXUXUXUXUXUXUXUXUXUXUXUXUXUXUXUXUXUXUXUXUXUXUXUXUXUXUXUXUXUXUXUXUXUXUXUXUXUXUXUXUXUXUXUXUXUXUXUXUXUXUXUXUXUXUXUXUXUXUXUXUXUXUXUXUXUXUXUXUXUX",
"UXUXUXUXUXUXUXUXUXUXUXUXUXUXUXUXUXUXUXUXUXUXUXUXUXUXUXUXUXUXUXUXUXUXUXUXUXUXUXUXUXUXUXUXUXUXUXUXUXUXUXUXUXUXUXUXUXUXUXUXUXUXUXUXUXUXUXUXUXUXUXUXUXUXUXUXUXUXUXUXUXUX",
"UXUXUXUXUXUXUXUXUXUXUXUXUXUXUXUXUXUXUXUXUXUXUXUXUXUXUXUXUXUXUXUXUXUXUXUXUXUXUXUXUXUXUXUXUXUXUXUXUXUXUXUXUXUXUXUXUXUXUXUXUXUXUXUXUXUXUXUXUXUXUXUXUXUXUXUXUXUXUXUXUXUX"
};
