/* XPM */
static char *_77w0_imuqa[] = {
/* columns rows colors chars-per-pixel */
"35 35 8 1 ",
"  c None",
". c black",
"X c gray24",
"o c #3E3E3E",
"O c gray75",
"+ c gray76",
"@ c #C3C3C3",
"# c #D7D7D7",
/* pixels */
"   .............................   ",
" ................................. ",
" ................................. ",
"...X+#########################+X...",
"...+###########################+...",
"...#############################...",
"...#############################...",
"...#############################...",
"...#############################...",
"...#############################...",
"...#############################...",
"...#############################...",
"...#############################...",
"...#############################...",
"...#############################...",
"...#############################...",
"...#############################...",
"...#############################...",
"...#############################...",
"...#############################...",
"...#############################...",
"...#############################...",
"...#############################...",
"...#############################...",
"...#############################...",
"...#############################...",
"...#############################...",
"...#############################...",
"...#############################...",
"...#############################...",
"...+###########################@...",
"...o@#########################Oo...",
" ................................. ",
" ................................. ",
"   .............................   "
};
