/* XPM */
static char *lqyns_2ci8a[] = {
/* columns rows colors chars-per-pixel */
"35 35 133 2 ",
"   c None",
".  c black",
"X  c gray24",
"o  c #3E3E3E",
"O  c #0D3576",
"+  c #0E3677",
"@  c #0F3678",
"#  c #0F3778",
"$  c #103878",
"%  c #113878",
"&  c #103879",
"*  c #113879",
"=  c #113979",
"-  c #123978",
";  c #133978",
":  c #123979",
">  c #113A79",
",  c #123A79",
"<  c #123A7A",
"1  c #133A7A",
"2  c #143A79",
"3  c #143B79",
"4  c #143B7A",
"5  c #143B7B",
"6  c #153B7B",
"7  c #143C7A",
"8  c #153C7B",
"9  c #163C7B",
"0  c #173D7B",
"q  c #163C7C",
"w  c #173C7C",
"e  c #163D7C",
"r  c #173D7C",
"t  c #183E7C",
"y  c #193E7C",
"u  c #193F7C",
"i  c #183E7D",
"p  c #193F7D",
"a  c #1A3F7D",
"s  c #19407C",
"d  c #1A407D",
"f  c #1B417E",
"g  c #1C427F",
"h  c #1D427F",
"j  c #1D437F",
"k  c #1E427F",
"l  c #1D4280",
"z  c #1E4280",
"x  c #1E4380",
"c  c #1F4380",
"v  c #1F4480",
"b  c #1F4580",
"n  c #1F4481",
"m  c #204481",
"M  c #204581",
"N  c #214581",
"B  c #224782",
"V  c #284B85",
"C  c #294D85",
"Z  c #2C4E87",
"A  c #35558B",
"S  c #3A5A8D",
"D  c #3A5B8E",
"F  c #426092",
"G  c #436193",
"H  c #476595",
"J  c #496695",
"K  c #496596",
"L  c #57719D",
"P  c #59749D",
"I  c #5B749F",
"U  c #617AA3",
"Y  c #6980A6",
"T  c #6981A6",
"R  c #6F85A9",
"E  c #7187AB",
"W  c #7287AA",
"Q  c #7287AB",
"!  c #788CAE",
"~  c #798DAF",
"^  c #7A8EAE",
"/  c #7C8FAF",
"(  c #7F92B1",
")  c #8395B3",
"_  c #8396B4",
"`  c #8496B4",
"'  c #8697B5",
"]  c #8C9CB8",
"[  c #90A0BA",
"{  c #90A1BB",
"}  c #91A1BB",
"|  c #92A2BC",
" . c #95A4BD",
".. c #9BA8BF",
"X. c #9CA9BF",
"o. c gray75",
"O. c #9FACC2",
"+. c #A3AFC3",
"@. c #A4B0C4",
"#. c #A5B1C4",
"$. c #A8B3C6",
"%. c #AAB4C6",
"&. c #AEB9C9",
"*. c #AFB9C9",
"=. c #B1BBCA",
"-. c #B4BDCC",
";. c #B6BFCD",
":. c #B9C1CE",
">. c #BCC3CF",
",. c #BEC4D0",
"<. c gray76",
"1. c #C3C3C3",
"2. c #C3C8CF",
"3. c #C3C9D2",
"4. c #C3C9D3",
"5. c #C7CCD4",
"6. c #C8CDD4",
"7. c #CDD1D7",
"8. c #CFD2D7",
"9. c #D7D7D7",
"0. c #D1D3D8",
"q. c #D1D4D8",
"w. c #D4D6D9",
"e. c #D5D7D9",
"r. c #D6D8DA",
"t. c #D7D8DA",
"y. c #D8D8D8",
"u. c #D8D8D9",
"i. c #D8D9D9",
"p. c gray85",
"a. c #D8D8DA",
"s. c #D8D9DA",
"d. c #D9D9DA",
/* pixels */
"      . . . . . . . . . . . . . . . . . . . . . . . . . . . . .       ",
"  . . . . . . . . . . . . . . . . . . . . . . . . . . . . . . . . .   ",
"  . . . . . . . . . . . . . . . . . . . . . . . . . . . . . . . . .   ",
". . . X <.9.9.9.9.9.9.9.9.9.9.9.9.9.9.9.9.9.9.9.9.9.9.9.9.9.<.X . . . ",
". . . <.9.9.9.9.9.9.9.9.9.9.9.9.9.9.9.9.9.9.9.9.9.i.~ P 8.9.9.<.. . . ",
". . . 9.9.9.9.9.9.9.9.9.9.9.9.9.9.9.9.9.9.9.9.9.9.+.+ 0 b *.y.9.. . . ",
". . . 9.9.9.9.9.9.9.9.9.9.9.9.9.9.9.9.9.9.9.9.9.0.t x m j @ { 9.. . . ",
". . . 9.9.9.9.9.9.9.9.9.9.9.9.9.9.9.9.9.9.9.9.u.L e v m M y G 9.. . . ",
". . . 9.9.9.9.9.9.9.9.9.9.9.9.9.9.9.9.9.9.9.9.#.$ M v M n 1 ,.9.. . . ",
". . . 9.9.9.9.9.9.9.9.9.9.9.9.9.9.9.9.9.9.9.w.l h M M M 5 R 9.9.. . . ",
". . . 9.9.9.9.9.9.9.9.9.9.9.9.9.9.9.9.9.9.y.I q m M m f V r.9.9.. . . ",
". . . 9.9.9.9.9.9.9.9.9.9.9.9.9.9.9.9.9.9.*.= m M m M : =.9.9.9.. . . ",
". . . 9.9.9.9.9.9.9.9.9.9.9.9.9.9.9.9.9.e.c j M v m 6 U y.9.9.9.. . . ",
". . . 9.9.9.9.9.9.9.9.9.9.9.9.9.9.9.9.y.Y 8 m M v j B w.9.9.9.9.. . . ",
". . . 9.9.9.9.9.9.9.9.9.9.9.9.9.9.9.9.;.$ v M m v % $.9.9.9.9.9.. . . ",
". . . 9.9.9.9.9.9.9.9.9.9.9.9.9.9.9.t.C g M m v e L u.9.9.9.9.9.. . . ",
". . . 9.9.9.9.2.9.9.9.9.9.9.9.9.9.9.E 7 M M m x s q.9.9.9.9.9.9.. . . ",
". . . 9.9.y.| 9 Q i.9.9.9.9.9.9.9.>.- m m m M , O.9.9.9.9.9.9.9.. . . ",
". . . 9.9. .# v > T u.9.9.9.9.9.s.Z d M m m r K u.9.9.9.9.9.9.9.. . . ",
". . . 9.&.* n m m < W p.9.9.9.9./ 2 M v M z d 7.9.9.9.9.9.9.9.9.. . . ",
". . . 9.J r M v m M = ^ y.9.9.4.: x M v M * } 9.9.9.9.9.9.9.9.9.. . . ",
". . . 9.3.w j v M v m : ( y.s.A d M m m p H i.9.9.9.9.9.9.9.9.9.. . . ",
". . . 9.9.:.4 k M m v M = ` _ 3 M M M c 5 6.9.9.9.9.9.9.9.9.9.9.. . . ",
". . . 9.9.9.-.4 h v M m v t i N m m M - ] 9.9.9.9.9.9.9.9.9.9.9.. . . ",
". . . 9.9.9.9.%.: c M M M M m m M M u S i.9.9.9.9.9.9.9.9.9.9.9.. . . ",
". . . 9.9.9.9.9.$.: v m m m M M m v 9 5.9.9.9.9.9.9.9.9.9.9.9.9.. . . ",
". . . 9.9.9.9.9.9.X.& c M m M M m ; ) 9.9.9.9.9.9.9.9.9.9.9.9.9.. . . ",
". . . 9.9.9.9.9.9.9...& n m M M a D a.9.9.9.9.9.9.9.9.9.9.9.9.9.. . . ",
". . . 9.9.9.9.9.9.9.9.[ * c m n 4 3.9.9.9.9.9.9.9.9.9.9.9.9.9.9.. . . ",
". . . 9.9.9.9.9.9.9.9.y.[ % f O ' 9.9.9.9.9.9.9.9.9.9.9.9.9.9.9.. . . ",
". . . <.9.9.9.9.9.9.9.9.9.@.F ! d.9.9.9.9.9.9.9.9.9.9.9.9.9.9.1.. . . ",
". . . o 1.9.9.9.9.9.9.9.9.9.9.9.9.9.9.9.9.9.9.9.9.9.9.9.9.9.o.o . . . ",
"  . . . . . . . . . . . . . . . . . . . . . . . . . . . . . . . . .   ",
"  . . . . . . . . . . . . . . . . . . . . . . . . . . . . . . . . .   ",
"      . . . . . . . . . . . . . . . . . . . . . . . . . . . . .       "
};
