/* XPM */
static char *_zyh6_p7t1q[] = {
/* columns rows colors chars-per-pixel */
"82 82 42 1 ",
"  c None",
". c #121212",
"X c #131C1D",
"o c #1B1B1B",
"O c #161727",
"+ c #151E24",
"@ c #16152A",
"# c #18172C",
"$ c #151B2A",
"% c #1B1A2E",
"& c #131E31",
"* c #1D1E30",
"= c #201F30",
"- c #162227",
"; c #1B2425",
": c #162429",
"> c #1C232E",
", c #17282C",
"< c #1C2A2D",
"1 c #132436",
"2 c #1C2433",
"3 c #1C2935",
"4 c #122739",
"5 c #152B3C",
"6 c #1C2B39",
"7 c #17303E",
"8 c #1D323E",
"9 c #232323",
"0 c #252C2D",
"q c #232331",
"w c #242B33",
"e c #282D35",
"r c #222E3A",
"t c #282E38",
"y c #263032",
"u c #293133",
"i c #25323C",
"p c #2C353D",
"a c #2F383E",
"s c #33363D",
"d c #34393E",
"f c #3C3D3E",
/* pixels */
"                                                                                  ",
"                                                                                  ",
"                                                                                  ",
"                                                                                  ",
"                                 oooooooooo.o.                                    ",
"                             o9;0<y<w<y<<0,<,-o...                                ",
"                          990yy003<q0>3<<2>><<,,<-...                             ",
"                        900yww030qqq2q>>%>>>>:>>,,,-X..                           ",
"                      90eeqtrqq=>*q%==%%=%%%%%%$&:,,,,+..                         ",
"                    900eetqt=qq=q*q%==%=%%%%%%%$%$#$-::-X.                        ",
"                   90ueeeq========%==%%%%%%%#%####$#$$::,-..                      ",
"                 9u0ueewqqt=====%=%%%%%%%%%%%#%####@O$$$::-X.                     ",
"                9uuueqeqqq====%==%%%%=%%%%%#%####@#@@@@O$:::-.                    ",
"               9eeeeee=qqq==**%%%%%%%#%%#%%%%#####@@@@@O#$+--X.                   ",
"              9ueeeqq=qq====%**%%%%#%%%#%#%##%#####@@@@OOOO$:--.                  ",
"             9uueeeeqqq===%=%*#*%########%#######@#@@@@@O#$$+--X.                 ",
"            0seeeqqqq===***%%%%#%%####%1#########@@@#@@@@@@@@OO+X.                ",
"           90ueeeqqqqq==***%%******r268i6*#######@@#@@@@@@@@OO++-+.               ",
"           0sueeqqq===eeiiiapssdsdffffffssr*%#%#####@#@@@@@@OOO+--X.              ",
"          9u0ee9eqqq==sfffffffffffffffffsffsi6*%####@@@@@@@@@OO$+--..             ",
"         9sueeeqq=====6ffffffffdfddddddassffffdi&#####@@@@@@@OO@+:-+.             ",
"         eueeeqq===%===sfffp88888i8ai8aaaisfffffd82#@@@@@@@@@OOOOO-:X.            ",
"        9eeeqqqqq==%%%*iffd877777788iasdddisffffffi%@@@@@@@@O@@OO$:--..           ",
"        eeeeeqqq===%%%%6dffa77788adddfffffdidfffasd2@@@@@@@OO@@@O$O--X.           ",
"       9uueweqq===%%###2iffsadffffdffddfdddaidsisff8###@@@@@@@@@@@OO--..          ",
"       0ueqwqq====%%###%8sffffdaddddddddsassaaadfffs%#@#@@@@@@@@@OOO--X.          ",
"      9yeee======%%#####6dfffdaddaddssssssssaiadfsff6###@@@@@@@@@OOO---..         ",
"      9ueqeq====%%%#####*iffdfasfddaaaasaaaapssiffffi*##@@@@@@@@@O@@O--..         ",
"      0ueqqq===%%########6ffdfdsaaaaaasssssssffpsffff6##@@@@@@@@O@@OO:-X..        ",
"     9yueqqq==%%%%%######*sffddaddsssssdssssppiiaffffi%#@@@@@@@@@@OO$--+..        ",
"     9uwqeqq===%##########8sfdfsafsadaaaaaasssffpafsfs%@@@@@@@@@@O@OO$--..        ",
"     0ueqq====%%#%########6sfdddaaaaaaassssssssa8afffs6@@@@@@@@@@O@O#+--X..       ",
"    90wwq====%%%###@@##*%#&8ffsfppfdsdssddpaiaaaspdfffp2*&#@@@@@@O@OOO--X..       ",
"    o0wwq===%=%######*&#1145ffdsaafddaaapapsffffdiadffd61**%@@@@@@O@O@--+..       ",
"    9yweqq===##%##@#*&441144afssda8paaassssfdaiiippddffpri2##@#@@@@@OOO--..       ",
"    9ywqq===%==#####%&&411458ffsdsafdssdsdaappsssspadffd6r1*@@#@@@O@O@+++..       ",
"    9yw0qq===%#######*&&&1114sfssspffdsappassddsdadddssq&%2%@@@@@@O@@O+--...      ",
"    ;ywqq===%%%##%####*&*2*&1*ttrirr888sstttsttrqr2qq03326##@@@@@@@@O$$--...      ",
"    9wwq===%%%%%######@*&&124644666*6=662222233qtessdst2*%##@@#@@OO@O$$-:...      ",
"    9wwq====%%######@##@*###@&#&%***66=636q332qpsssssr2$%#@#@@@@@@@@OO$--...      ",
"    9yw2===*%%%##########&##&#@@##&&&@&$&@&&$&3pttst*&&&####@@@@O@@OO@+:-...      ",
"    oyw0===*%%%###########1#44&&&&&@@&@&@&&$$%wtstss6&##@###@@@@@@O@OO+--...      ",
"    oyw2====%%#############&&444411121261311ripssssi**######@@@@@@@@OOO-+...      ",
"    o<0q==%%*%%%###########@#&4&114164446665iupsss8*##@@@###@@@@@@@@@OO-+...      ",
"    ;<ww==**%%%#&############*#41441&4625366iippi6*###@@##@@@###@@O@$O--+...      ",
"    o9w<=****%#%#######&######&&&41144415366rtii6*####@##@@@@##@@O@OO$--X...      ",
"     ;<w===%%%%#%#############@&&&41&4411436rii1%%#####@##@@@@@@O@OOO$--X..       ",
"     ow<*=*=%%%%#%###############&44444443666r22#####@@@#@@@@@@@@@@#$+-+...       ",
"     o<<2q=%%%%%%#%#########@@###&&14411155654*%########@@#@##&@@O@@O+-+...       ",
"     o;w>>>%%=%%#%%#########&@@##@*@&&1111&&&#*@####@#@@##@#@@@@@OOO$::X...       ",
"      o<<>%=%%#%%#%#####@#@#@#####&&&&&&&&12&&#@@#@@@####@@@@@@@O@$O+-+....       ",
"      o<02%%%%%#%########@@#@###@@@&1411&166&%%@@@@##@@#@@#@@@@@#OOO:--...        ",
"      o;<q>%%%#%#######@@#@@@@##@@%&111111464&#@##@@#@@@@@@@@@@@OO$$--X...        ",
"       o<>>%%%#%#####@##@@@@@@@@#@&@11111466&#@####@@@@#@@@@@@@@@OO--+....        ",
"       .;<<%%%%###@@###@&#@@##@#@@%&14111162&&#@#@@@##@@@@@@@@@@$O$--X...         ",
"        .<<>%#%%###@&#@@##@###@@@@%#266641r4&%@###@#@@@@@@@@@@@@O$--+....         ",
"        .;<<:%#$####@##@@@#####@#@#&6r2426r5&%@@@@@@@@@@@@@@@@@@O---X...          ",
"         .-<:%$%#@@@@@#@@@#####@@#@&rrrr66r6&*@#@@@@@@@@@@@@@@@@$---....          ",
"          o,2:%@#@@@@#@@@@@@@@@@###&ttttrrt6&&##@@@@@@@@@@@@O@@@-:+....           ",
"          .-,,:#$@@@@@@#@@@@@@@@#@@#taspttpr*&##@@@@@@@O@@@@@@@X:-X....           ",
"           .-,:$OO@@@@@@@@@@@@@@@@@*qssspiir@@@@@@@@@@@@@OO$OO&+-X....            ",
"            .-,,$&@@@@@@@@@@@@@@@@@@*&%%&&%%@@@@@@@@@@O@O@O$X$-++....             ",
"             .-:-$@@@@@@@@@@@@@@@@@@@@@@@@@@@@@@@@@@@@O@OO$$---X....              ",
"              .-&&&@@@@@@@@@@@@@@@@O@@@@@@@@@@@@@@@@@@OOO@+--&X.....              ",
"               .---:$@O@@O@@O@@@@@@@@@@@@@@@@O@@@@@@@@OOO+:--+.....               ",
"                .+::::OO$@O@@O@@@@@@O@@@@@@@@@@O@@OOOOOO+--:X.....                ",
"                 .X----$O$OOOO@@@OO#@OO@@.@@@O@@@O@OOOO+--+X.....                 ",
"                  ..--:-+$O$O@OOO@OOOOO@@@@@@OOOOOOO$----+......                  ",
"                   ..X-:::-$OOOOOO#OO@@O@@OOOO$$$$+-----X.....                    ",
"                     ..X----+O:OO$OOOOO$@@O$$$+$------X......                     ",
"                      ...X--:----+:++$+$OO+-$-:-----X.......                      ",
"                        ....X+--::--:---++:-----+X........                        ",
"                          .....XX++---+---++XXX.........                          ",
"                            ..........................                            ",
"                               ....................                               ",
"                                    ..........                                    ",
"                                                                                  ",
"                                                                                  ",
"                                                                                  ",
"                                                                                  ",
"                                                                                  ",
"                                                                                  "
};
