/* XPM */
static char *_os4o_6tpcc[] = {
/* columns rows colors chars-per-pixel */
"82 82 237 2 ",
"   c None",
".  c #000000",
"X  c #0C0C0C",
"o  c #171717",
"O  c #011F22",
"+  c #01353A",
"@  c #082A2C",
"#  c #282828",
"$  c #383838",
"%  c #023B44",
"&  c #023B46",
"*  c #063F54",
"=  c #16157F",
"-  c #161B7E",
";  c #15237D",
":  c #152B7C",
">  c #15347D",
",  c #153C7C",
"<  c #02444A",
"1  c #054856",
"2  c #0D535B",
"3  c #0A4A68",
"4  c #0A5768",
"5  c #15447C",
"6  c #154A7C",
"7  c #114F76",
"8  c #0D5472",
"9  c #15537B",
"0  c #155B7A",
"q  c #105776",
"w  c #15566B",
"e  c #15647A",
"r  c #15687B",
"t  c #1C6B76",
"y  c #0B6271",
"u  c #2C6B70",
"i  c #4B4B4B",
"p  c #585858",
"a  c #6A6A6A",
"s  c #757575",
"d  c #496566",
"f  c #170F86",
"g  c #170F88",
"h  c #180F8C",
"j  c #161283",
"k  c #161A82",
"l  c #171288",
"z  c #18108E",
"x  c #181C8B",
"c  c #1C1393",
"v  c #1C1A94",
"b  c #001E93",
"n  c #201795",
"m  c #221A96",
"M  c #261E98",
"N  c #172786",
"B  c #173687",
"V  c #002696",
"C  c #012B99",
"Z  c #1C2795",
"A  c #01319E",
"S  c #0C339F",
"D  c #16349B",
"F  c #2B239B",
"G  c #2D2A9C",
"H  c #252499",
"J  c #30279D",
"K  c #332B9E",
"L  c #29399A",
"P  c #33369F",
"I  c #0638A5",
"U  c #163AA2",
"Y  c #362EA0",
"T  c #2739A3",
"R  c #3534A2",
"E  c #3B33A2",
"W  c #3C3AA3",
"Q  c #353DA9",
"!  c #2D2DA2",
"~  c #433BA6",
"^  c #174686",
"/  c #19508E",
"(  c #2C509C",
")  c #166985",
"_  c #187689",
"`  c #17708F",
"'  c #287098",
"]  c #0343AE",
"[  c #1746AB",
"{  c #014AB7",
"}  c #1352B8",
"|  c #2848AA",
" . c #3945A6",
".. c #3854A7",
"X. c #3447B3",
"o. c #275AB8",
"O. c #3657B9",
"+. c #234DB1",
"@. c #356EAE",
"#. c #4642A8",
"$. c #4B44AA",
"%. c #4C4AAB",
"&. c #4446A7",
"*. c #524CAD",
"=. c #4956A9",
"-. c #5552AF",
";. c #5459AE",
":. c #5A55B1",
">. c #5D5AB2",
",. c #555EB6",
"<. c #4950B1",
"1. c #625EB5",
"2. c #5B6AB3",
"3. c #4D71AF",
"4. c #6563B6",
"5. c #6C6AB9",
"6. c #6569B7",
"7. c #6875B7",
"8. c #7273BC",
"9. c #757BBD",
"0. c #706FBB",
"q. c #467D82",
"w. c #0058C5",
"e. c #0064CD",
"r. c #0467CC",
"t. c #0066D1",
"y. c #006CD2",
"u. c #0271D4",
"i. c #0C74D4",
"p. c #1779D6",
"a. c #1D72CF",
"s. c #3869C5",
"d. c #3C71C7",
"f. c #277CD5",
"g. c #2D74CE",
"h. c #1C69D1",
"j. c #4369C2",
"k. c #4577C9",
"l. c #4F77CA",
"z. c #7A7FC0",
"x. c #34889B",
"c. c #288698",
"v. c #388CA2",
"b. c #1C8196",
"n. c #4D8E94",
"m. c #6D9495",
"M. c #4A99A9",
"N. c #5A95B1",
"B. c #528EAC",
"V. c #6789B8",
"C. c #7584BE",
"Z. c #6A97B9",
"A. c #7497BE",
"S. c #779FA0",
"D. c #5DA5B2",
"F. c #79A8AB",
"G. c #67ABB7",
"H. c #75AAB9",
"J. c #77AFB5",
"K. c #2884DB",
"L. c #388ADB",
"P. c #3F92DF",
"I. c #0893F8",
"U. c #3890E3",
"Y. c #0FA5FF",
"T. c #31AFFE",
"R. c #1E80DA",
"E. c #438ADA",
"W. c #4B95DE",
"Q. c #588FD6",
"!. c #7A8AC2",
"~. c #7B98C4",
"^. c #6A93D3",
"/. c #7CA8C1",
"(. c #7BB2C8",
"). c #4794E3",
"_. c #569BE4",
"`. c #49BBFF",
"'. c #58BBFC",
"]. c #52A7F0",
"[. c #66A7E7",
"{. c #76ADE7",
"}. c #7AB4EA",
"|. c #76BAF4",
" X c #66B5F4",
".X c #5AC2FF",
"XX c #69C7FD",
"oX c #79C7FB",
"OX c #76D1FF",
"+X c #81B4BB",
"@X c #8199C4",
"#X c #82A6C4",
"$X c #83B5C5",
"%X c #92ABDA",
"&X c #8DA9D9",
"*X c #8CB7EB",
"=X c #A7BCEA",
"-X c #AAB9DE",
";X c #89CBFB",
":X c #98CBF7",
">X c #8AD4FF",
",X c #94D3FD",
"<X c #9CD5FD",
"1X c #99D8FD",
"2X c #97C3EC",
"3X c #B5CBEB",
"4X c #B7CAFB",
"5X c #A4DBFE",
"6X c #ABDCFF",
"7X c #A7D3F9",
"8X c #BCD4FE",
"9X c #B3DDFE",
"0X c #BBDCFE",
"qX c #B4D3F9",
"wX c #AECEF0",
"eX c #BCE2FF",
"rX c #B4E4FF",
"tX c #A9E0FF",
"yX c #C3D4FF",
"uX c #C8D7FD",
"iX c #CCD3F7",
"pX c #C3E3FE",
"aX c #CAE4FE",
"sX c #C9EBFF",
"dX c #D4EBFE",
"fX c #DBEDFF",
"gX c #D3E4FB",
"hX c #DDF1FF",
"jX c #D7F1FF",
"kX c #CBF3FF",
"lX c #E4F2FF",
"zX c #ECF6FF",
"xX c #EDF9FF",
"cX c #F3F9FF",
"vX c #FEFEFF",
"bX c #F1F7FD",
"nX c #EEEEF6",
/* pixels */
"                                                                                                                                                                    ",
"                                                                                                                                                                    ",
"                                                                                                                                                                    ",
"                                                                                                                                                                    ",
"                                                                  $ $ $ $ $ $ $ # # # # o X                                                                         ",
"                                                          i i d n.n.M.M.D.M.M.M.v.n.v.c.u y $ X X X                                                                 ",
"                                                    p p m.M.G.D.Z.N.B.B.B.n.3.@.3.x.@.' v.x.c.c.r 2 . . .                                                           ",
"                                                a n.G.G.G.V.N.7.3.2.3.=.=.=.=.=...=.......' ( ' ' b.b.b.< . .                                                       ",
"                                            a m.G.H.Z.V.V.2.2.2.2.;.=.=.%.%.&.&.W W W P L L L ( | / ` ` _ _ 1 . .                                                   ",
"                                        a m.G.H.A.A.V.7.2.2.:.-.*.%.$.$.~ ~ ~ W W P P P P G G H Z Z D ^ / ) _ y + .                                                 ",
"                                      s S.(.H.A.V.7.6.2.>.:.-.*.$.$.~ ~ ~ ~ E E E Y Y K J F M M Z v v Z B ^ / ) _ 2 . .                                             ",
"                                  a S.J./.~.V.9.0.4.4.:.-.*.$.$.~ ~ E ~ E E E Y K Y J F J F M M m v v x x Z B ^ ) ) 4 < .                                           ",
"                                a F.$X/.A.C.8.5.4.1.:.-.*.$.~ ~ ~ E E P Y Y K J J J J J F F F n m c c x z x x N B 6 ) ) 1 .                                         ",
"                              s F.$X/.!.9.8.5.4.1.:.:.$.$.~ ~ E E Y K K J J J F J F F F F M M n m c c c z z l k k B 5 0 r 1 .                                       ",
"                            s F.#X@X!.9.0.5.1.1.:.*.$.#.~ W E Y J J F F F F F F F F F F F F M M n n c z h l l l k k ; , 0 r 2 .                                     ",
"                          s F.$X@X@X9.8.4.4.1.:.*.$.~ ~ E Y Y Y F F F M F F F M M F M F M M x M n c c z c l l l j j - ; , 9 r 1 .                                   ",
"                        s +X$X@X@X0.0.5.1.:.:.*.$.~ ~ E Y Y F F F M M m M M m m M M M M M M m m n n c c z z z h g f = = = > q e 1 .                                 ",
"                      a +X$X@X@Xz.0.0.1.:.:.*.~ ~ W Q Q Q Q X.X.O.O.s.k.g.E.).[.k.Q M M M M m n n c c c z z h h f f = = = - , q r < .                               ",
"                      @X+X#X@Xz.0.5.1.:.:.1.Q._.[.[.}.oX;X<X6X0XeXdXhXlXcXcXvXvXfX:XW.O.! m m n m n c c z z h h g f f = = = ; , 0 r < .                             ",
"                    s +X#X@X9.0.0.1.1.*.~ l.oXvXvXvXvXvXvXvXvXvXvXvXvXvXvXvXvXxXfXcXvXpX Xd.Q n m n c c z z h h g g f f = = - : 5 e 4 . .                           ",
"                  a +X$X@Xz.8.5.1.1.:.*.~ *.].hXvXcXcXcXvXcXxXlXhXkXdXsXkXsXsXkX:X7XcXvXvXlX,X_.O.M n c c z z z g g f f = = = = : 9 e 1 .                           ",
"                  +X+X#X@Xz.0.5.1.:.$.~ ~ ~ l.5XvXcXhX.X`.`.`.'.'..X.XXXXXXXOXOX>X XwXvXvXvXvXcX0X'.j.v c z z z h g f f = = = = ; , 0 r + .                         ",
"                a +X#X@Xz.0.5.1.:.*.~ ~ Y Y X. XvXcXxX.XI.Y.Y.Y.Y.T.T.`..XOX>XtXsXdX|.7XvXvXvXvXvXvX'.R c h z z h h g f f f = = - ; 6 e 4 . .                       ",
"                @X$X@Xz.8.5.1.1.:.~ ~ E Y F ! ).pXvXxXrXI.I.Y.T..X>XtXsXhXxXcXvXvXvXpX|.uXvXvXzX7XuXeXO.c c z z h h g f f f f = j ; > 0 e & .                       ",
"              a +X#XA.9.0.5.1.*.~ ~ ~ Y J F M O.;XvXzXfX9XpXlXbXxXcXzXzXlXfXfXjXdXsXsX:X*XeXyXoX:XcXvX].M c c c z z z z h g g f j = ; 5 r 4 . .                     ",
"              S.$X~.C.8.4.1.*.*.~ ~ Y Y F M m R ].lXvXfXzXhX9X9XeXeXeXeX0X0XqXqX4X4X3X4X:X;X;X7XzXvXvX<XX.c c c z z z z h h f f j = ; > 0 e + .                     ",
"            a J.#XC.9.5.1.:.*.$.~ Y Y M M m m m k.9XvXfXfXfX5XfXhX8X8X8X8X8X8XyX8X0X8X0X7X;X:XdXcXzXvXcX).m c c c c z z h h g g j j j : 6 r 4 . .                   ",
"            a (./.C.8.4.1.:.$.~ E Y J M m n n n Q ].bXbXdXfX9X5XhX0X0X0X9X6X5X5X5X<X5X7X:XqXqX:XjXzXbXvX|.X.m c c c c z h h g g f j k ; B e 0 . .                   ",
"            m.(.A.8.5.1.:.*.~ ~ Y Y F M m n n n v U.dXvXdXfXdX5X,X5X6X6X,X<XqXyX8X8X4X=XiXnXbX;X6XcXlXvXjXk.m v c c c c z z z h f f j - B 9 e & . .                 ",
"          a H.H.C.8.4.>.*.$.~ ~ Y F M m n n c n n O.:XvXfXdXdX<XeXfX8XqX8XyXyXyXyXyXqX6X:X;XoXXX:XlXlXcXxX[.! v n c c c z z h h f l j k : 6 r 4 . .                 ",
"          a H.A.9.5.1.:.*.~ ~ K F M M n n c c c c ! ].zXzXaXfX5X6XhXpXeX0X9X5X,X,X,X,X:XwXiXnXnX:X9XlXlXvX8Xs.m n n c c z c z h g f j = - , e 0 . .                 ",
"          m.H.A.7.6.>.*.$.~ K K F M m n c c c n n c d.0XvXaXaXaX,X,X,X1X<X6X9X8XyXiXiXiXyXpXeX1X X5XlXfXvXfX_.M n n c c z z z h f f l = - > 0 e O . .               ",
"        i m.H.C.5.1.:.*.~ ~ K J M M n c c n v Q Q D w.'.vXlXpXdX<X<XzXuX0XyXyXuXyXqX<X>X;XoX:X3XgX2XpXjXlXvX,Xo.Q ! m v c z z z h f f = = : 9 r % . .               ",
"        p Z.H.V.6.1.*.*.~ E K J M M n n F X.I I w.w.t.I.zXcXeXaXqX<XcXdXeX9X5X>X>X,X7X0XbXvXvXzXpX.X1XjXdXvXjXU.a.+.T Y c z z z h h f = - ; 6 r 1 . .               ",
"        p G.Z.V.4.>.*.~ ~ P K J M M n c  .I t.t.e.t.y.u.;XvXgX0XpX,X;X;X,X<X6X0XyXuXiXgXjX6X;X XXX-XoXpXaXlXvXoX].|.s.U c c z z h f f = = ; 5 r 3 . .               ",
"        p G.Z.7.4.:.*.~ ~ ~ J J M M n n X.A w.t.t.t.t.y.T.vXzX0XpX7X>XlXgX8XuXuXuX0X<X;XoX,X7XiXiXiX;XwXdXfXvXsX`.E.} ..c c z z h f f f = ; 5 e 8 . .               ",
"        p G.Z.7.2.-.%.~ ~ K J M M n n c c 2.[ [ { { w.r.i.rXvXfXpXaX,XcXzXsXrX1X;X>X6X8XuXgXuX8XtXtXeXaXuXiX-X!.o.T l.E c z z z h g f = = ; , e 0 . . .             ",
"        p G.Z.7.>.-.$.~ ~ K J M M n n c c m ,.o.j.j.o.o.} s.^.^.^.{._._.[.]. X2XwX*X*X=X=X&X_.Q.Q.V.Q.3.3.3.l.E.s.l.M c c z z z h f f f = ; , 0 0 . . .             ",
"        p G.Z.2.>.*.$.~ K K J F M n c c c c c *.V [ o.k.l.E.k.k.k.k.k.d.d.@.j.j.s.s.@.k.d.d.k.Q.~.&X=X3XfXuX{.o.X.M c c c z z z h f f j = - , e 0 . . .             ",
"        p G.V.2.;.*.$.~ P J J M M M m n v c c c <.V V C C I I U [ o.o.s.s.d.k.k.k.k.k.k.d.d.l.-X3X3X3XiX3XQ.} | ! n c c c z z z h f f f = ; , 0 0 . . .             ",
"        p G.N.2.;.*.#.~ K K J M M M n n c c n m n <.C I C C b V V V V V V V V V C A A A A ^ k.%X&X&X-X%XO.I T ! n n c c c c c z h h f f = ; , e 0 . . .             ",
"        i D.N.2.;.$.$.~ E K J F M M M n n n m c n n <.I w.w.w.{ ] A I A A A A A A A A I ] +.^.&X&X-X3X:X^.O.! n n n n c c c c z h f f j j ; 5 e q . . .             ",
"        i D.V.2.;.*.~ ~ E K K J M M M m m n n n n n m Q I t.t.u.y.u.i.i.i.a.a.f.g.K.L.E.W.}.wX7X9XpX6X}.O.E n n c n c n c z z z h h j j - ; 5 e 8 . . .             ",
"        i M.N.3.;.%.#.~ E K J J M M M m m m m m m m n n <.{ t.t.y.u.u.i.p.p.K.K.L.U.).).].2X:X:XwX<X[.X.Y n c n n c c c c z z z h f f j j : 6 r 3 . . .             ",
"        $ n.N.3.;.%.&.W Y Y J F F M M m m m m m m n n c n <.I t.y.y.y.u.i.i.p.R.K.K.U.L.[.}.2X2X:XW.| P c c n n c c c c c c z z h f f j j : 9 r 1 . . .             ",
"        # q.D.3.=.%.~ W Y Y Y J F F M M m m m m n n c n c n <.I w.y.y.y.u.i.p.p.R.K.K.P.[.}.}.}.L.| P c c c c n c c c c c z z z h f f j k > 0 e & . . .             ",
"          d D.3.;.<.~ ~ Y Y J F ! F M M M m m m m n c n n c c $.] w.y.y.y.u.i.i.R.R.K.W._.[.[.L.| Y c c c c c c c c c c z z z z h f j j ; , 0 0 O . .               ",
"          $ M.B.=.$.~ ~ Y Y Y J F F M M M M m m n n c c c n n c $.[ w.y.y.y.u.u.i.i.K.P.).].R.+.M c c c c c c c c c c c z z z z l j j k ; 5 e q . . .               ",
"          $ n.N.3.=.&.W P K K K J F F M M m m m n n c c n c n n v E +.w.y.u.u.u.i.p.R.K.L.a.O.J c c c c c c c c c c c c z c z z l h j - : 9 e 3 . . .               ",
"          # u M.3...&.W E K K K F F M M M m m n n n c c c n c n c v  .S ] { w.e.r.r.r.} ] S R c c c c z c c c c c c c c z z z z l j j ; > 0 e & . . .               ",
"            # M.3.=.&.W E K K J J F M M m m m n n c c n n c n c m c  .I w.] ] ] I ] o.h.{ I v c z c c z c c c c c z z z z z z z j j k ; 5 r 9 . . . .               ",
"            # x.v.@. .P E K K J F F M m m m n n n c c c c n c n n v Z I t.t.t.t.e.t.P.L.w.U ! z c c c c c c z c c c z z z h h h j j - : 9 r 3 . . .                 ",
"            o u M.' ..P P K J J F F M m m m c c n c c c n c n c n c ! I r.r.t.r.e.t.L.K.w.D M c c c c z z c c z z h b h h h h g j - ; 5 e 0 + . . .                 ",
"              # x.n... .P K J F F M M m m n n c c c c c c c c n n n R I y.i.t.t.e.t.E.f.w.S v c c c c c c z z c z h h h h h g g j - : 9 e 3 . . . .                 ",
"              o u x.' =.P J J J F M m m c n c c c c c c n c n c c n ! I a.p.i.y.y.y.E.K.w.T n n c c c c z c z z z z g g g f f f = ; , e 0 & . . .                   ",
"                # _ x.( L L F M M m m n n c c c c c c n c n c n n n n I g.K.f.f.i.i.W.p.{ D c c c c c c z z c z z z g g f f j j N > 9 e 3 . . . .                   ",
"                X 2 x.' ( L F H v v c v c c c c c c c c n c c n c n M U k._.L.L.K.f.Q.R.{ U c c c c z c z z h h h h f f f f = = : 6 e 9 + . . .                     ",
"                  o t x.' L H H v v c c c c z c c c c c c c n c c c M U W.[._.).E.L.[.L.{  .v c c c c z z z h h h h f f f = = - , 0 e 1 . . . .                     ",
"                    o ' ' ( B H v v c z c z z c c c c c c c c c c c n D ^.*X&X[._._.{.W.} L v c c z z z z z g g h g f f j = - > q t 3 . . . .                       ",
"                    X 2 b.' / Z v v z z c z z z z z z c z c c z c c c C &XeXwX*X*X{.*X[.o.Z c c c z z z z z g f g f f = = - > 7 r / < . . . .                       ",
"                      X y b.` ^ Z x v z h h h h z z z z z c h z z c c | 3.wX3XqX:X*X*XQ.U Q z z z z z z g g g f f = = = ; : 7 e 9 1 . . . .                         ",
"                        . y ` ` B Z x x z h h h z z z z z h c h z h h H Q T | ..X.| | L R c z h z z h z f f f f = = = - : 7 e 0 1 . . . .                           ",
"                          . 4 ` ` B N N l l g g h h z z h h h h z z h h h h z z z z z z c c h h h h h h f f f = = = ; > 6 e 0 * . . . .                             ",
"                            . 4 ` ) ^ N k x g g g h h h h h h h h h h h h h h l h z z z z z h h h h g g f f = = - - > 9 e 0 * . . . . .                             ",
"                              . 2 _ ) ^ N N - j j j j l g f g f f f g g g g g g h g h h h h h h f f j j j j = - : , 9 r q < . . . . .                               ",
"                                . 1 _ ) ) B ; N k j j j f f f f f f f f g g f f g g g g f f f j f j j = - - ; > 6 0 e 9 < . . . . .                                 ",
"                                  . < 4 ) e ^ B N k - j j j j f f = = f f f f f f f f f j f f j = j - - ; : 5 9 e e 3 % . . . . .                                   ",
"                                    . . 2 r r 0 6 > : ; - = = = f = = = f = f = f f f f j j = = - - ; : , 9 e e 6 1 . . . . . .                                     ",
"                                      . . + 4 r r 0 6 B > : - - - = = - = = = j = = = - - k N ; : , 5 9 e e 0 3 + . . . . .                                         ",
"                                          . . < q e r e q 5 5 > : : ; ; ; - ; ; - - ; : : > , 5 9 0 e r q 8 & . . . . . .                                           ",
"                                            . . . + 4 e e r e q 9 7 5 5 , , , , , , 5 6 9 0 e e r e 9 3 + . . . . . . .                                             ",
"                                                . . . . % 3 q e e r e e e e 0 e e e r r e e 0 7 3 & . . . . . . . .                                                 ",
"                                                    . . . . . O % 1 3 8 q 9 0 0 q 8 8 3 1 % O . . . . . . . . .                                                     ",
"                                                        . . . . . . . . . . . . . . . . . . . . . . . . . .                                                         ",
"                                                              . . . . . . . . . . . . . . . . . . . .                                                               ",
"                                                                        . . . . . . . . . .                                                                         ",
"                                                                                                                                                                    ",
"                                                                                                                                                                    ",
"                                                                                                                                                                    ",
"                                                                                                                                                                    ",
"                                                                                                                                                                    ",
"                                                                                                                                                                    "
};
