/* XPM */
static char *ck7ey_w3vo3[] = {
/* columns rows colors chars-per-pixel */
"82 82 242 2 ",
"   c #000C0E",
".  c #000E10",
"X  c #001214",
"o  c #001619",
"O  c #00191D",
"+  c #00252A",
"@  c #002F36",
"#  c #003B44",
"$  c #00434D",
"%  c #0F434A",
"&  c #084A54",
"*  c #065A66",
"=  c #006473",
"-  c #036978",
";  c #00616F",
":  c #316269",
">  c #4E7176",
",  c #170F86",
"<  c #170F88",
"1  c #180F8C",
"2  c #161383",
"3  c #161B83",
"4  c #18118E",
"5  c #17178A",
"6  c #1C1393",
"7  c #1B1B94",
"8  c #001E93",
"9  c #201795",
"0  c #221A96",
"q  c #261E98",
"w  c #162383",
"e  c #152B83",
"r  c #17278B",
"t  c #153485",
"y  c #153B84",
"u  c #15378A",
"i  c #012998",
"p  c #1B2797",
"a  c #03319E",
"s  c #173899",
"d  c #25239A",
"f  c #2B239B",
"g  c #2B299D",
"h  c #30279D",
"j  c #332B9E",
"k  c #28379F",
"l  c #0638A5",
"z  c #163AA2",
"x  c #362EA0",
"c  c #2839A3",
"v  c #3434A2",
"b  c #3B33A2",
"n  c #3A3CA6",
"m  c #2D2DA2",
"M  c #423BA6",
"N  c #154C8A",
"B  c #154687",
"V  c #15538B",
"C  c #155B89",
"Z  c #155895",
"A  c #174A96",
"S  c #15678C",
"D  c #007A8C",
"F  c #007485",
"G  c #16758C",
"H  c #156796",
"J  c #157C92",
"K  c #157898",
"L  c #007B8E",
"P  c #0343AE",
"I  c #1846AA",
"U  c #014AB7",
"Y  c #1555B1",
"T  c #2949A8",
"R  c #3847A8",
"E  c #3447B3",
"W  c #275AB8",
"Q  c #3657B9",
"!  c #2F54AC",
"~  c #186FA6",
"^  c #3767B6",
"/  c #2D70B3",
"(  c #337A85",
")  c #4542A8",
"_  c #4B44AA",
"`  c #4C4BAC",
"'  c #4349AA",
"]  c #524CAD",
"[  c #4953AE",
"{  c #5551AF",
"}  c #5D5AB3",
"|  c #5856B1",
" . c #4A53B0",
".. c #625EB5",
"X. c #4869B5",
"o. c #5865B6",
"O. c #577ABD",
"+. c #4A74B9",
"@. c #6462B7",
"#. c #686BBA",
"$. c #6974BD",
"%. c #7076BF",
"&. c #0058C5",
"*. c #0064CD",
"=. c #0467CC",
"-. c #0066D1",
";. c #006CD2",
":. c #0773D4",
">. c #1779D6",
",. c #1D72CF",
"<. c #3869C5",
"1. c #3C71C7",
"2. c #277CD5",
"3. c #2D74CE",
"4. c #1C69D1",
"5. c #4369C2",
"6. c #4577C9",
"7. c #4F77CA",
"8. c #737BC1",
"9. c #6B7EC0",
"0. c #008A9E",
"q. c #008397",
"w. c #15849B",
"e. c #168599",
"r. c #328895",
"t. c #068DA5",
"y. c #158BA3",
"u. c #1488A7",
"i. c #0195AB",
"p. c #019BAE",
"a. c #0991AB",
"s. c #1595AB",
"d. c #019DB4",
"f. c #0A9AB5",
"g. c #1599B5",
"h. c #1889B3",
"j. c #3296AF",
"k. c #00A2BA",
"l. c #08A4B9",
"z. c #14A4BA",
"x. c #33A1B1",
"c. c #508D96",
"v. c #5A82BE",
"b. c #4B90B0",
"n. c #659BA3",
"m. c #57ABB7",
"M. c #6FABB4",
"N. c #6A969C",
"B. c #2884DB",
"V. c #388ADB",
"C. c #3B99CC",
"Z. c #04ACC2",
"A. c #15ABC2",
"S. c #05B7CB",
"D. c #16B6CA",
"F. c #05BDD1",
"G. c #17BED1",
"H. c #32AFCB",
"J. c #0893F8",
"K. c #3890E3",
"L. c #0FA5FF",
"P. c #31AFFE",
"I. c #1E80DA",
"U. c #438ADA",
"Y. c #5391D2",
"T. c #6788C5",
"R. c #7588C5",
"E. c #7897CB",
"W. c #6A97CE",
"Q. c #4FAFCE",
"!. c #66B5D3",
"~. c #78B9D7",
"^. c #76AACE",
"/. c #4794E3",
"(. c #569BE4",
"). c #51B1F7",
"_. c #66A7E7",
"`. c #76BAF4",
"'. c #71B2ED",
"]. c #0AC4D6",
"[. c #1AC5D7",
"{. c #28CADB",
"}. c #36C8D8",
"|. c #35D4E2",
" X c #51C9D9",
".X c #69C8DA",
"XX c #75CDDD",
"oX c #4AD7E4",
"OX c #5ADAE6",
"+X c #5AC2FF",
"@X c #67DBE7",
"#X c #77DAE5",
"$X c #79C7FB",
"%X c #6FC9F6",
"&X c #7AE1EB",
"*X c #69E1EA",
"=X c #92ABDA",
"-X c #86B1D8",
";X c #8CB7EB",
":X c #A7BCEA",
">X c #AAB9DE",
",X c #83DBE8",
"<X c #89CBFB",
"1X c #98CBF7",
"2X c #8AD4FF",
"3X c #94D3FD",
"4X c #9CD5FD",
"5X c #99D8FD",
"6X c #8FC7E8",
"7X c #B7CAFB",
"8X c #A4DBFE",
"9X c #ABDCFF",
"0X c #A7D3F9",
"qX c #B3DDFE",
"wX c #BBDCFE",
"eX c #B8D4FC",
"rX c #B0CDEE",
"tX c #83E2EC",
"yX c #BCE2FF",
"uX c #B4E4FF",
"iX c #A9E0FF",
"pX c #83C4DC",
"aX c #C3D4FF",
"sX c #C8D7FD",
"dX c #CCD3F7",
"fX c #C3E3FE",
"gX c #CAE4FE",
"hX c #C9EBFF",
"jX c #D4EBFE",
"kX c #DBEDFF",
"lX c #D3E4FB",
"zX c #DDF1FF",
"xX c #D7F1FF",
"cX c #CBF3FF",
"vX c #E4F2FF",
"bX c #ECF6FF",
"nX c #EDF9FF",
"mX c #F3F9FF",
"MX c #FEFEFF",
"NX c #F1F7FD",
"BX c #EEEEF6",
"VX c None",
/* pixels */
"VXVXVXVXVXVXVXVXVXVXVXVXVXVXVXVXVXVXVXVXVXVXVXVXVXVXVXVXVXVXVXVXVXVXVXVXVXVXVXVXVXVXVXVXVXVXVXVXVXVXVXVXVXVXVXVXVXVXVXVXVXVXVXVXVXVXVXVXVXVXVXVXVXVXVXVXVXVXVXVXVXVX",
"VXVXVXVXVXVXVXVXVXVXVXVXVXVXVXVXVXVXVXVXVXVXVXVXVXVXVXVXVXVXVXVXVXVXVXVXVXVXVXVXVXVXVXVXVXVXVXVXVXVXVXVXVXVXVXVXVXVXVXVXVXVXVXVXVXVXVXVXVXVXVXVXVXVXVXVXVXVXVXVXVXVX",
"VXVXVXVXVXVXVXVXVXVXVXVXVXVXVXVXVXVXVXVXVXVXVXVXVXVXVXVXVXVXVXVXVXVXVXVXVXVXVXVXVXVXVXVXVXVXVXVXVXVXVXVXVXVXVXVXVXVXVXVXVXVXVXVXVXVXVXVXVXVXVXVXVXVXVXVXVXVXVXVXVXVX",
"VXVXVXVXVXVXVXVXVXVXVXVXVXVXVXVXVXVXVXVXVXVXVXVXVXVXVXVXVXVXVXVXVXVXVXVXVXVXVXVXVXVXVXVXVXVXVXVXVXVXVXVXVXVXVXVXVXVXVXVXVXVXVXVXVXVXVXVXVXVXVXVXVXVXVXVXVXVXVXVXVXVX",
"VXVXVXVXVXVXVXVXVXVXVXVXVXVXVXVXVXVXVXVXVXVXVXVXVXVXVXVXVXVXVXVXVX> r.c.j.x.x.j.j.y.r.- : % VXVXVXVXVXVXVXVXVXVXVXVXVXVXVXVXVXVXVXVXVXVXVXVXVXVXVXVXVXVXVXVXVXVXVXVX",
"VXVXVXVXVXVXVXVXVXVXVXVXVXVXVXVXVXVXVXVXVXVXVXVXVXVXVXVXVXc.m.Q.oXoXoXoXOXoXoXoXoX|.|.{.[.[.A.w.- % VXVXVXVXVXVXVXVXVXVXVXVXVXVXVXVXVXVXVXVXVXVXVXVXVXVXVXVXVXVXVXVX",
"VXVXVXVXVXVXVXVXVXVXVXVXVXVXVXVXVXVXVXVXVXVXVXVXVXVXc.m.OXOX@XOX X XQ. XQ.Q.Q.m.Q.C.Q.H.H.{.|.{.{.].q.= @ VXVXVXVXVXVXVXVXVXVXVXVXVXVXVXVXVXVXVXVXVXVXVXVXVXVXVXVXVX",
"VXVXVXVXVXVXVXVXVXVXVXVXVXVXVXVXVXVXVXVXVXVXVXVXm..X*X*X@X.X!.Q.Y.T.v.+.+.X.X.^ +.^ / ^ / j.g.x.G.{.{.].S.D $ VXVXVXVXVXVXVXVXVXVXVXVXVXVXVXVXVXVXVXVXVXVXVXVXVXVXVX",
"VXVXVXVXVXVXVXVXVXVXVXVXVXVXVXVXVXVXVXVXVXVXM.@X*X#XXX!.!.T.T.O.O.o.X.[ [ [ [ ' R R R R R ! Z ! ~ / g.D.[.].F.D # VXVXVXVXVXVXVXVXVXVXVXVXVXVXVXVXVXVXVXVXVXVXVXVXVX",
"VXVXVXVXVXVXVXVXVXVXVXVXVXVXVXVXVXVXVXVXn.XX*X#XXX!.W.v.O.o.o.| { [ ` ` ) ) M n M n v v v k k k T T Y ~ h.A.G.].Z.- VXVXVXVXVXVXVXVXVXVXVXVXVXVXVXVXVXVXVXVXVXVXVXVX",
"VXVXVXVXVXVXVXVXVXVXVXVXVXVXVXVXVXVXVXM.*X&XXX^.W.v.$.#.o.| | ` ` ) ) M M b b b b x v j j f g d p p p s I ~ h.A.[.F.0.$ VXVXVXVXVXVXVXVXVXVXVXVXVXVXVXVXVXVXVXVXVXVX",
"VXVXVXVXVXVXVXVXVXVXVXVXVXVXVXVXVXN.#X&X#X~.^.R.%.%.o.} | ] _ _ M M M b b b b b j j j g f f d q 0 7 7 p r s A ~ g.D.F.S.= VXVXVXVXVXVXVXVXVXVXVXVXVXVXVXVXVXVXVXVXVX",
"VXVXVXVXVXVXVXVXVXVXVXVXVXVXVXVXM.#X,XXXE.-Xv.%.#.@.} { ] _ M M M b b b j j j j j f j f f f q 0 0 0 6 7 7 r r s Z ~ z.G.F.D VXVXVXVXVXVXVXVXVXVXVXVXVXVXVXVXVXVXVXVX",
"VXVXVXVXVXVXVXVXVXVXVXVXVXVXVXM.#X,XpX^.R.%.%.@.@.| { _ _ M M b b j h h h h h f f f f f f f q 0 9 6 6 6 6 5 5 r s A H g.D.].q.VXVXVXVXVXVXVXVXVXVXVXVXVXVXVXVXVXVXVX",
"VXVXVXVXVXVXVXVXVXVXVXVXVXVXM.tXpXXX-XR.%.#.@...| ] _ _ M M x x h h h f h f f f f f f f f f q 0 6 6 6 4 4 4 5 5 5 e u H u.D.F.0.VXVXVXVXVXVXVXVXVXVXVXVXVXVXVXVXVXVX",
"VXVXVXVXVXVXVXVXVXVXVXVXVXM.&X,X-X=Xv.%.#.@...{ ] _ ) M b x x x f f f f f d f 0 f q f q q q 0 0 0 6 6 4 4 1 < 5 3 5 r u Z u.A.F.t.VXVXVXVXVXVXVXVXVXVXVXVXVXVXVXVXVX",
"VXVXVXVXVXVXVXVXVXVXVXVXM.tX,X=X^.R.%.#.@.} { ] _ M M b x m g f q d q 0 q q q q q q q q q q 0 0 0 9 6 6 4 4 1 1 < , 1 5 r Z u.A.F.q.VXVXVXVXVXVXVXVXVXVXVXVXVXVXVXVX",
"VXVXVXVXVXVXVXVXVXVXVXn.tXtXpXE.R.8.#.....{ ] _ M n n n n n E E Q Q <.6.3.U./._.6.n q q q q 0 9 6 7 6 6 4 4 1 1 , , 1 4 w t Z u.D.F.D VXVXVXVXVXVXVXVXVXVXVXVXVXVXVX",
"VXVXVXVXVXVXVXVXVXVXVX#XtXpX-XR.8.#.@.} ] @.T.(._._.`.`.<X4X9XyXfXhXkXvXmXMXMXmXkX3X/.Q m 0 0 9 9 9 6 6 4 4 1 1 < , , & 3 w u Z s.D.S.= VXVXVXVXVXVXVXVXVXVXVXVXVXVX",
"VXVXVXVXVXVXVXVXVXVXM.tX6X-Xv.8.%.....] ] 7.$XMXMXMXMXMXMXMXMXMXMXMXMXMXMXMXMXmXlXmXmXyX`.1.n 9 q 9 6 6 6 4 1 1 < < , , & 3 w B H g.S.d.$ VXVXVXVXVXVXVXVXVXVXVXVXVX",
"VXVXVXVXVXVXVXVXVXM.,X,X=X=X8.%.@...{ ] M _ /.vXMXnXmXMXnXnXnXnXkXxXxXcXcXyXcXcX1X0XMXMXMXvX3X(.Q d 9 9 4 4 4 4 1 , , , 4 < , w B K A.F.t.VXVXVXVXVXVXVXVXVXVXVXVXVX",
"VXVXVXVXVXVXVXVXVX#XtXpXR.8.%.#...{ ] M M M 7.8XMXnXzX+X+X).+X).).+X+X+X%X%X%X&X5X).rXMXMXMXMXmXfX).5.6 6 4 4 4 1 1 , , 1 1 2 3 e Z u.D.S.- VXVXVXVXVXVXVXVXVXVXVXVX",
"VXVXVXVXVXVXVXVXM.&X~.=Xv.8.#...| ] _ n b m E `.MXMXnX+XJ.L.L.L.L.P.P.).+X%X3XiXhXjX`.0XMXMXMXMXMXMX).m 6 4 4 4 1 1 1 , , , 2 3 w u H g.S.p.# VXVXVXVXVXVXVXVXVXVXVX",
"VXVXVXVXVXVXVXVXXX,X-X=X8.%...} { M M x x f m /.fXMXnXuXJ.J.L.P.+X2XiXcXxXnXMXmXMXMXfX`.fXMXMXmX0XsXyX5.6 4 4 4 1 1 1 , , 2 2 2 3 e N w.A.S.D VXVXVXVXVXVXVXVXVXVXVX",
"VXVXVXVXVXVXVXM.tXpX^.R.%.@...{ ] M M x h f q Q <XMXbXkXqXgXvXbXmXnXbXbXvXzXxXkXjXhXhX4X;XfXsX`.1XNXMX).d 6 6 6 4 4 4 1 1 1 , , 2 w u H g.S.d.$ VXVXVXVXVXVXVXVXVXVX",
"VXVXVXVXVXVXVX#X,X~.E.8.#...{ ] M M x f f q 0 x (.vXMXvXbXvXqXqXyXyXfXwXwXwXeX0XrX7X7X:X1X<X<X0XbXMXMX4XE 6 6 6 4 4 4 4 1 1 , , 2 3 e N K A.S.F VXVXVXVXVXVXVXVXVXVX",
"VXVXVXVXVXVXn.&XpX^.R.#.@.} { _ M x x f q q 0 9 5.qXMXkXkXjX8XkXvXeXeXeX7XeXaXaXwXwXaXwX0X<X1XjXmXbXMXmX/.0 6 6 6 6 4 6 1 1 , , 2 3 w u H g.S.p.@ VXVXVXVXVXVXVXVXVX",
"VXVXVXVXVXVX!.tXXXE.%.#...{ _ M M x f q 0 9 9 9 E ).nXbXjXkXqX8XzXwXwXyXyX9X8X8X8X4X8X0X1XeXrX3XkXbXNXMX`.E 9 9 6 6 4 4 4 1 1 < < 2 3 e V u.A.k.- VXVXVXVXVXVXVXVXVX",
"VXVXVXVXVXVX@X#X^.R.#.@.| ] M M x h f q 0 9 9 9 0 K.jXMXjXjXjX8X4X8X9X8X3X4XeXwXeXaX:X:XaXBXNX<X9XNXvXMXxX6.0 7 6 6 6 6 4 4 4 1 , 2 2 e B K z.S.0.O VXVXVXVXVXVXVXVX",
"VXVXVXVXVXn.#XXXE.8.#.} { _ M b x f q 0 9 9 9 6 6 Q 1XMXkXjXjX4XyXkXeXeXeXaXaXaXaXwXaX9X4X6X$X%X1XvXvXmXnX_.m 6 9 6 6 6 4 4 1 1 < , 5 3 u S s.Z.d.# VXVXVXVXVXVXVXVX",
"VXVXVXVXVXM.&XXXW.$.@.| ] M M j f q q 0 6 9 6 9 6 m ).bXNXgXkX8X8XvXaXyXwXqX0X4X4X3X4X1X1XdXBXBX1XqXvXvXMXwX<.0 9 9 6 6 4 4 4 1 < , 2 3 e A y.A.k.- VXVXVXVXVXVXVXVX",
"VXVXVXVXVXXX*X~.T.#.} ] M M M h f q 0 9 6 6 6 6 9 6 <.fXMXgXgXgX5X3X5X5X4X8XqXwXaXaXdXdXsXsXyX2X`.8XvXkXMXkX(.q 9 9 6 6 6 4 4 1 < , , 3 e B K z.Z.L X VXVXVXVXVXVXVX",
"VXVXVXVX> @X#X^.$.@.| ] M M j h q q 9 9 6 9 q n c z &.).mXvXfXjX3X4XvXgXwXaXaXsXaXqX4X3X<X$X1XrXlX6XhXxXvXMX3X4.j j 7 6 6 4 4 4 < < , 2 w y H g.Z.i.+ VXVXVXVXVXVXVX",
"VXVXVXVXc.*X.XW.$.@.| _ M b j h q 0 9 6 f E l l &.&.=.J.nXNXfXfX9X4XmXjXwXqX8X2X2X3X4XwXNXMXMXBXlX).4XxXjXMXkXK.,.T n b 6 4 4 4 1 < , 2 w t S s.Z.k.$ VXVXVXVXVXVXVX",
"VXVXVXVXN.@X.XT.$.o.{ _ M b j f q q 9 6 R l -.-.-.-.*.:.2XMXjXwXgX4X<X<X2X8X9XeXaXsXdXlXkX9X<X%X`.rXXXfXjXvXMX$X).'.3.s 6 4 4 4 < < 2 2 3 t C y.Z.k.& VXVXVXVXVXVXVX",
"VXVXVXVXm.*X.XT.o.} ] M M b h f q 0 9 9 E a &.-.-.-.;.;.P.MXbXwXaX9X2XzXlXwXsXsXsXwX4X<X$X3X0X7XdXdX<X0XjXjXMXhX).V.Y ! 6 6 4 4 < , , 2 3 e V y.z.k.= VXVXVXVXVXVXVX",
"VXVXVXVXm.*X~.T.#.| ` ) M j h f q 0 9 9 6 o.I U U U &.*.>.uXMXjXyXsX3XnXbXhXuX5X<X2X9X7XsXdXsXwX8X8XwXgXgXdX>XR.W c 7.b 6 6 4 4 1 < , , 3 e N e.z.k.F   VXVXVXVXVXVX",
"VXVXVXVXm.*X!.T.o.| _ M b j h f q 0 9 6 6 9 } W 5.6.^ W &.3.R.W.W.-X(.(._.(.'.6XrX;X;X:X:X~.(.Y.Y.T.O.+.+.O.7.U.<.7.q 6 6 4 4 4 1 < , 2 3 e N w.z.k.D X VXVXVXVXVXVX",
"VXVXVXVXm.@X!.v.o.] _ M j j g f q 9 6 6 6 6 6  .a z W 6.7.7.6.6.6.6.6.6.1.<.6.5.<.<.5.6.6.1.6.T.E.=X:XrXlXeX'.W E q 6 6 6 4 4 4 < < , 2 2 e N J g.d.q.X VXVXVXVXVXVX",
"VXVXVXVXm.@X!.v.o.] _ M b h h q q q 9 9 9 6 9 6 ' 8 8 i i l l z I W W ^ <.1.1.6.1.6.6.6.6.1.6.>XrXrXdXdXrXT.W c h 6 6 6 6 6 4 4 < , , 2 2 e N J z.d.q.O VXVXVXVXVXVX",
"VXVXVXVXm.OX!.O.o.` ) b b j h f q q 9 9 6 6 9 9 6  .a l a a i i i a i i i i 8 i i i a l l l 7.=X=X=X=X=XQ l c m 9 6 6 6 6 6 6 4 1 < < , 2 3 N e.g.d.q.o VXVXVXVXVXVX",
"VXVXVXVXm.OX!.v.o.` _ M b j h f q q q 9 9 9 9 9 0 0 ` l &.&.U &.l l l a a l i a a a a l l T W.=X=X>XrXrX(.Q m 9 9 0 9 6 6 6 6 4 1 1 , , 3 e V e.f.d.q.X VXVXVXVXVXVX",
"VXVXVXVXb.OX!.v.o.` M M b j h h q q q 9 9 9 9 9 6 6 6 ' l ;.;.;.:.:.;.4.:.,.,.2.3.B.V.V./.'.rXrXyXfX9X'. .x 9 9 6 6 0 6 6 4 4 4 1 1 4 4 3 e V e.z.k.D o VXVXVXVXVXVX",
"VXVXVXVXr.OX Xb.o.` _ M b j h g q q q q q 9 q 9 0 0 0 6 _ l -.;.;.:.:.:.>.I.I.B.V.K././._.6X1X1XrX4X_.E x 6 9 9 0 6 6 6 6 6 4 4 1 1 1 & 3 t C e.f.k.F   VXVXVXVXVXVX",
"VXVXVXVX( oX XT.o.[ ) M x h h f f q q 0 9 9 q 9 0 0 6 6 0 ` l -.;.;.;.;.:.>.>.B.B.B.V.K.'.~.6X1X<X/.! j 6 6 9 9 6 6 6 6 6 4 4 4 1 < , , 3 t S y.l.k.-   VXVXVXVXVXVX",
"VXVXVXVX:  X XQ.X.` ) b x x x f h f q q q q 0 9 0 6 6 0 6 0 ] l &.;.;.;.:.:.:.>.I.B.B.K._.'.'.;XU.T b 4 6 6 6 6 6 6 6 6 6 4 4 4 < < , , r B S y.d.k.*   VXVXVXVXVXVX",
"VXVXVXVXVX X XQ.+.[ M M M x h h f f q q q 0 0 q 0 0 6 0 6 0 9 M l &.;.;.;.:.:.>.I.I.B./.(._.'.B.I j 6 6 6 6 6 9 6 6 6 6 4 4 4 4 1 , 1 6 e B G s.d.k.# VXVXVXVXVXVXVX",
"VXVXVXVXVXb.oXQ.+. .M M x x m m h f q q q 0 0 9 6 0 6 6 6 6 6 9 ` I *.-.;.;.;.:.:.>.B.V./.(.>.W d 6 6 6 6 6 6 6 9 6 6 4 4 4 4 1 < < 1 & e V J g.d.i.+ VXVXVXVXVXVXVX",
"VXVXVXVXVX( oX Xb. .) n b x j j m f q q q q 0 0 6 6 9 6 6 9 6 9 6 n E &.;.:.;.;.:.>.>.B.V.,.Q g 6 6 6 6 6 6 6 6 6 6 6 6 4 6 4 4 , 2 5 3 t S e.f.k.q.O VXVXVXVXVXVXVX",
"VXVXVXVXVX: }.oXY.^ ' M b x j h f f q q q q 0 0 0 6 9 6 9 6 9 9 7 6 R a P U &.*.*.=.=.Y P l v 6 6 6 6 6 4 6 6 6 6 6 6 6 4 4 4 4 , , 3 w B G y.d.k.=   VXVXVXVXVXVXVX",
"VXVXVXVXVXVXx.oXH.X.' R b b j h h f q q 0 9 0 0 9 9 6 6 6 9 9 6 6 9 R l &.U P P l P W 4.U l p 6 6 6 6 6 4 6 6 6 6 6 6 4 4 1 4 1 2 5 3 e N e.u.i.d.$ X VXVXVXVXVXVXVX",
"VXVXVXVXVXVX( |.Q.j.Q R v j j f h f q 0 0 0 9 6 9 6 6 9 9 6 6 9 0 6 p l -.*.-.*.-.;./.V.&.z h 6 6 4 6 4 6 4 6 6 6 6 4 4 1 1 1 1 2 3 w y S e.f.d.0.+ VXVXVXVXVXVXVXVX",
"VXVXVXVXVXVX% }.|.m.^ R v j g h f q q 0 0 0 9 6 6 6 6 6 9 6 9 6 6 9 d l ;.;.*.*.&.-.V.B.&.p q 6 6 6 6 4 4 6 6 6 4 4 4 4 1 1 1 < 6 1 5 N J u.p.k.=   VXVXVXVXVXVXVXVX",
"VXVXVXVXVXVXVXr.|.H./ ! v v g f f q q 0 9 9 6 6 9 6 6 6 6 6 6 9 7 9 n l =.;.;.*.-.-.U.2.&.l 6 6 6 6 6 6 4 4 4 4 4 4 4 4 1 1 < < & w u C e.a.p.i.# X VXVXVXVXVXVXVXVX",
"VXVXVXVXVXVXVX& {.}.C.^ R v g h f q q 0 9 6 6 6 6 6 6 6 9 6 9 6 9 9 x l ,.>.:.:.;.;.U.B.U T 0 9 6 6 6 6 4 4 6 4 4 4 < < < 2 , , 3 e N J y.d.k.D X VXVXVXVXVXVXVXVXVX",
"VXVXVXVXVXVXVXVXe.{.H.r.! k g f d 0 0 0 6 9 6 6 6 6 6 6 6 6 6 9 6 9 7 l 3.V.B.,.:.>./.>.U z 6 6 6 6 6 6 6 4 4 4 4 1 < < < , 2 2 w y S e.a.i.d.$   VXVXVXVXVXVXVXVXVX",
"VXVXVXVXVXVXVXVX% G.|.x./ c g d q 7 6 0 6 6 6 6 6 6 6 6 9 6 6 6 9 6 d z V./.U.V.B.2.(.B.U s 6 6 6 6 6 4 4 4 4 1 1 1 , , , 4 1 4 t V J y.k.k.D o VXVXVXVXVXVXVXVXVXVX",
"VXVXVXVXVXVXVXVXVX- [.{.h.! k d 7 7 6 6 6 6 4 6 6 6 6 6 6 6 9 6 9 6 f z Y._.(.Y.U.U.(.V.U R 6 6 6 6 4 6 4 4 1 1 < < , , 2 $ 5 w B G e.a.d.i.# X VXVXVXVXVXVXVXVXVXVX",
"VXVXVXVXVXVXVXVXVXVXj.{.H./ A s p 6 6 4 4 6 4 4 4 4 6 6 6 6 6 6 6 6 6 p W.;X'._.(.(.'.U.Y c 6 6 6 6 4 4 4 4 < < < , , , 2 3 w y S e.a.t.k.- X VXVXVXVXVXVXVXVXVXVXVX",
"VXVXVXVXVXVXVXVXVXVX& ].{.A.~ z p 7 7 4 4 4 4 4 4 6 4 6 6 6 6 6 6 6 6 i -XsX1X:X;X-X;X_.W p 6 6 6 4 4 4 4 1 < , < < , 2 3 w y S J u.d.k.q.+ O VXVXVXVXVXVXVXVXVXVXVX",
"VXVXVXVXVXVXVXVXVXVXVX- ].[.g.Y s p 7 7 5 4 1 1 4 4 4 4 4 4 4 4 4 4 4 R X.rXrXrX1X;X;XY.z n 4 4 1 6 1 1 1 < < , , 2 2 3 & t C J y.i.d.i.$   VXVXVXVXVXVXVXVXVXVXVXVX",
"VXVXVXVXVXVXVXVXVXVXVXVXD ].[.h.Y s r 5 5 4 4 4 1 4 4 4 4 4 4 4 4 4 4 f n c R ! E T T c v 6 4 1 4 1 1 1 < , , 2 & 2 3 5 p A J w.i.i.d.= X VXVXVXVXVXVXVXVXVXVXVXVXVX",
"VXVXVXVXVXVXVXVXVXVXVXVXVXq.].D.h.H s p 5 5 < < 1 1 1 1 1 1 1 4 4 4 1 1 4 4 4 4 4 4 4 4 6 6 1 1 1 1 1 1 , , 2 2 4 1 & p C J w.t.i.d.F O VXVXVXVXVXVXVXVXVXVXVXVXVXVX",
"VXVXVXVXVXVXVXVXVXVXVXVXVXVX0.].D.g.Z A r r < 1 1 1 1 1 1 1 1 1 1 1 < < , , 4 4 1 4 4 4 4 4 1 1 1 < < 1 2 2 2 2 3 5 B C J w.t.i.k.D + o VXVXVXVXVXVXVXVXVXVXVXVXVXVX",
"VXVXVXVXVXVXVXVXVXVXVXVXVXVXVX0.].G.g.H A u w r 5 , , , < , 4 , 1 < < < < < < 1 1 < 1 1 < < < < < < 2 2 2 4 1 5 t B S e.w.t.i.k.D + X VXVXVXVXVXVXVXVXVXVXVXVXVXVXVX",
"VXVXVXVXVXVXVXVXVXVXVXVXVXVXVXVXq.F.G.z.~ Z u r w 3 3 5 , , 2 2 1 1 < < , < < < < < < < < < < 2 , 2 5 3 3 & w u C G e.u.i.p.k.D + X VXVXVXVXVXVXVXVXVXVXVXVXVXVXVXVX",
"VXVXVXVXVXVXVXVXVXVXVXVXVXVXVXVXVXD F.F.z.s.H N u e 3 3 3 2 2 2 4 1 , 2 , 6 6 < , , , , 2 2 2 2 2 & 4 3 & y N S J w.t.p.d.d.- + X VXVXVXVXVXVXVXVXVXVXVXVXVXVXVXVXVX",
"VXVXVXVXVXVXVXVXVXVXVXVXVXVXVXVXVXVX= d.F.G.g.u.H A u e w 3 3 3 & 2 2 2 , % 1 < , , , , 2 2 3 3 w w 7 r s S G e.u.a.t.k.p.; O o VXVXVXVXVXVXVXVXVXVXVXVXVXVXVXVXVXVX",
"VXVXVXVXVXVXVXVXVXVXVXVXVXVXVXVXVXVXVX& 0.S.S.A.s.y.H V y t w w w 3 3 3 3 2 2 3 & 4 3 3 w w e e t B V S K e.y.a.p.d.k.0.$ . VXVXVXVXVXVXVXVXVXVXVXVXVXVXVXVXVXVXVXVX",
"VXVXVXVXVXVXVXVXVXVXVXVXVXVXVXVXVXVXVXVXVX- i.F.G.z.g.y.K H V B y t t e e e e e 5 6 e t u y B V S G J e.h.h.d.i.k.i.- +   VXVXVXVXVXVXVXVXVXVXVXVXVXVXVXVXVXVXVXVXVX",
"VXVXVXVXVXVXVXVXVXVXVXVXVXVXVXVXVXVXVXVXVXVX# D d.S.S.A.z.s.y.J G S C V V N N N N N V S S G J J e.y.h.d.p.d.k.d.D # X o VXVXVXVXVXVXVXVXVXVXVXVXVXVXVXVXVXVXVXVXVXVX",
"VXVXVXVXVXVXVXVXVXVXVXVXVXVXVXVXVXVXVXVXVXVXVXVX# F d.k.Z.S.A.z.g.s.s.w.w.w.w.w.w.w.e.e.y.s.u.g.f.d.i.d.k.i.D $ o . VXVXVXVXVXVXVXVXVXVXVXVXVXVXVXVXVXVXVXVXVXVXVXVX",
"VXVXVXVXVXVXVXVXVXVXVXVXVXVXVXVXVXVXVXVXVXVXVXVXVXVX@ - t.d.k.Z.Z.Z.l.A.l.g.g.g.g.g.f.f.f.d.d.d.k.k.d.0.= # o   VXVXVXVXVXVXVXVXVXVXVXVXVXVXVXVXVXVXVXVXVXVXVXVXVXVX",
"VXVXVXVXVXVXVXVXVXVXVXVXVXVXVXVXVXVXVXVXVXVXVXVXVXVXVXVXO # = L i.k.k.k.k.k.d.d.k.k.k.k.k.k.d.i.q.= $ +   X VXVXVXVXVXVXVXVXVXVXVXVXVXVXVXVXVXVXVXVXVXVXVXVXVXVXVXVX",
"VXVXVXVXVXVXVXVXVXVXVXVXVXVXVXVXVXVXVXVXVXVXVXVXVXVXVXVXVXVXVXX + # & = F D L q.q.q.D F = * $ + o     VXVXVXVXVXVXVXVXVXVXVXVXVXVXVXVXVXVXVXVXVXVXVXVXVXVXVXVXVXVXVX",
"VXVXVXVXVXVXVXVXVXVXVXVXVXVXVXVXVXVXVXVXVXVXVXVXVXVXVXVXVXVXVXVXVXVXVXVX  X X o X X X       VXVXVXVXVXVXVXVXVXVXVXVXVXVXVXVXVXVXVXVXVXVXVXVXVXVXVXVXVXVXVXVXVXVXVXVX",
"VXVXVXVXVXVXVXVXVXVXVXVXVXVXVXVXVXVXVXVXVXVXVXVXVXVXVXVXVXVXVXVXVXVXVXVXVXVXVXVXVXVXVXVXVXVXVXVXVXVXVXVXVXVXVXVXVXVXVXVXVXVXVXVXVXVXVXVXVXVXVXVXVXVXVXVXVXVXVXVXVXVX",
"VXVXVXVXVXVXVXVXVXVXVXVXVXVXVXVXVXVXVXVXVXVXVXVXVXVXVXVXVXVXVXVXVXVXVXVXVXVXVXVXVXVXVXVXVXVXVXVXVXVXVXVXVXVXVXVXVXVXVXVXVXVXVXVXVXVXVXVXVXVXVXVXVXVXVXVXVXVXVXVXVXVX",
"VXVXVXVXVXVXVXVXVXVXVXVXVXVXVXVXVXVXVXVXVXVXVXVXVXVXVXVXVXVXVXVXVXVXVXVXVXVXVXVXVXVXVXVXVXVXVXVXVXVXVXVXVXVXVXVXVXVXVXVXVXVXVXVXVXVXVXVXVXVXVXVXVXVXVXVXVXVXVXVXVXVX",
"VXVXVXVXVXVXVXVXVXVXVXVXVXVXVXVXVXVXVXVXVXVXVXVXVXVXVXVXVXVXVXVXVXVXVXVXVXVXVXVXVXVXVXVXVXVXVXVXVXVXVXVXVXVXVXVXVXVXVXVXVXVXVXVXVXVXVXVXVXVXVXVXVXVXVXVXVXVXVXVXVXVX",
"VXVXVXVXVXVXVXVXVXVXVXVXVXVXVXVXVXVXVXVXVXVXVXVXVXVXVXVXVXVXVXVXVXVXVXVXVXVXVXVXVXVXVXVXVXVXVXVXVXVXVXVXVXVXVXVXVXVXVXVXVXVXVXVXVXVXVXVXVXVXVXVXVXVXVXVXVXVXVXVXVXVX",
"VXVXVXVXVXVXVXVXVXVXVXVXVXVXVXVXVXVXVXVXVXVXVXVXVXVXVXVXVXVXVXVXVXVXVXVXVXVXVXVXVXVXVXVXVXVXVXVXVXVXVXVXVXVXVXVXVXVXVXVXVXVXVXVXVXVXVXVXVXVXVXVXVXVXVXVXVXVXVXVXVXVX"
};
