/* XPM */
static char *aess8_xguwn[] = {
/* columns rows colors chars-per-pixel */
"82 82 90 1 ",
"  c None",
". c #00BCBE",
"X c #02BEC0",
"o c #06BFE0",
"O c #03C2C4",
"+ c #08C4C6",
"@ c #0BC6C9",
"# c #01CACE",
"$ c #0ECACC",
"% c #10CCCE",
"& c #01CDD3",
"* c #06C2DE",
"= c #05CCDD",
"- c #14CFD2",
"; c #03D1D6",
": c #0BD4D7",
"> c #05D4DD",
", c #0AD5D9",
"< c #05D8DF",
"1 c #0CDADD",
"2 c #15D2D4",
"3 c #18D4D6",
"4 c #14D7D9",
"5 c #1BD6D9",
"6 c #12DCDF",
"7 c #1DD9DB",
"8 c #06C0E2",
"9 c #0AC3E5",
"0 c #03CAE5",
"q c #0EC9E7",
"w c #0BC7E8",
"e c #02CCEA",
"r c #0CCCE9",
"t c #12CCE9",
"y c #06D5E2",
"u c #0CD3E6",
"i c #06DAE2",
"p c #0BDCE5",
"a c #02D1EE",
"s c #0CD3ED",
"d c #0FDDE8",
"f c #16DEE1",
"g c #19DFE1",
"h c #15D2EA",
"j c #19D5EC",
"k c #14DAEB",
"l c #1CDBEE",
"z c #00D6F3",
"x c #0CD6F0",
"c c #02D9F4",
"v c #0BDCF5",
"b c #03DDF9",
"n c #10D4F0",
"m c #12DBF2",
"M c #18DEF2",
"N c #10DFF8",
"B c #20DFEF",
"V c #0FE0E7",
"C c #13E1E5",
"Z c #1DE3E6",
"A c #14E3EA",
"S c #1CE4ED",
"D c #1DE8EE",
"F c #0FE0F7",
"G c #03E4FF",
"H c #0EE6FC",
"J c #0CE9FF",
"K c #14E2F7",
"L c #1BE2F4",
"P c #1FEAF0",
"I c #14E3F9",
"U c #1AE6F9",
"Y c #15EBFE",
"T c #1CEBFC",
"R c #1DF0FF",
"E c #20E5EE",
"W c #20E9ED",
"Q c #22E5F2",
"! c #22EAF1",
"~ c #2AEAF7",
"^ c #23ECFB",
"/ c #2BEEFB",
"( c #33EEFE",
") c #25F1FE",
"_ c #2CF3FE",
"` c #32F4FF",
"' c #38F6FF",
"] c #35F8FF",
"[ c #3CFAFF",
"{ c #41FDFF",
/* pixels */
"                                                                                  ",
"                                                                                  ",
"                                                                                  ",
"                                                                                  ",
"                                 %$$$$$$@@+++O                                    ",
"                             224fCAAAAAAAVVi1:#OXO                                ",
"                          22fAASAAAkCkkkkVdpppsp<;...                             ",
"                        5gSDSSSkkkhkhhhuttrhuusnpip<#X.                           ",
"                      5ZDSSSkjjjjjhhjtttttttnttnqyyiii&..                         ",
"                    5ZD!SSjjjjjjhtttttojottooooo90q=yyi>#.                        ",
"                   7ZWESlljjjhtttttqonotttwwonot909000y,i;..                      ",
"                 5ZWDLlljjjjhhttttqqttttotowtoto88889*0>>i>#.                     ",
"                5WWEBBlljjjhtttttqtototoottotooo8988888**>>i;.                    ",
"               7WQEBlljjjjhtttttqqqqotwtnoottoto989888*8*0=><&.                   ",
"              7WQEBBljjhjttttqqqqqqqttoootoooooo9ooo88o*9**=>>;.                  ",
"             7EWQljBjjjjttttqqwq99ooootoooototto99o9o88*****=>>&.                 ",
"            7WEEBBjjjjtjttwqqqww99999899999999899o9oeoooooo98==>;.                ",
"           7W!BBBBjjjttttttqwwrrrmxmvKKUmw999998o99ooooooooo800>>&.               ",
"           E!!BBBjjjhjlMUTTT)__``''[[[{{')Ihqo8qowoooowoooeo***=>>#.              ",
"          7W!BBBjjjttM^{{{{{{{{{{{{{{{[['[{`Umr9ooowoooooooo****>>;..             ",
"         7W!~BjjjjttttI'{[[[[[[[']]]]]_])_[{{'_Inw9oooooooo***o**=>;.             ",
"         EWEjBjjjjttttm_{{[RYYYYYYYRRRR))T_{{{{[_Unoo9ooo*o**oo*==>>#.            ",
"        5WB~BjjjjtttqwrT[[[YGGGGGJJYYR)_]]T_{{{{{[Twoooo88oo*o****=>;X.           ",
"        B~BBBjjjtttqqwwN'{[_GGJJY)_][[[{{{`T`{{[_`_mo9ow88*ooooo**=>>&.           ",
"       7WQlljjjjtttooton/{{'_][[[['[[[[]''])^`_T){{I9o98888o8o88***=>;..          ",
"       Z!EBljtjtttotooojM'{'[[___]]`____//_/_^^_[[{_n98o8o8o888ooo*=><#.          ",
"      5SEBlljjttottoonoom_{']]_][_```_``_`___^)'{[{[N99o8888888o****=>>..         ",
"      7!QllljjttttotototrU[{][__[_`_________^___'[[{Tr9o88o8oo888***=>>..         ",
"      ZPlllhhttttooootoo9N'{''')____)__`(/((([[)_{'{'m9ooeow888o8*o**>>&..        ",
"     5SPlljhjtttotonooooos^{''')_'___((```__))PT)'[[{Uw9oooo8o88oo**=y>;..        ",
"     7PSlljjtttottooonooowI[[]')_[]``__))))__`[{)_['{`Noooooo8o8o*o**=>>..        ",
"     7DSljjtttqqoooooooo9oN`{']]))))____`(`(``_)R_'[{'Nwow9988o88oo8o=>>O..       ",
"    2ZDljjjttttt99898o9ww0eY[[`')_[]__```__^)))_`^]][{)sq999o88oo*o***>>#..       ",
"    2SSSjjjjttoo999owteezzzG[[``_)[']__)))__[[{[`T_]][[Hcurw8o8888o***>>&..       ",
"    2DSljjjotojo999orezzzzzc){'`')))^___`(``'_RUT/P]]'{RYTse98o88ooo*==<;..       ",
"    2ASljjjtttot9998r0zzzzccJ{[`]))'`````__^))_```))''{]YNuro8o8oo****=>>..       ",
"    3PMjjtttotoo9o9o9nreeezzb_{'`])[['_)^)_``'`___]]`_~Lnann9owo88oo**=>>...      ",
"    -Pljtjjojoto99wo89hxmmssaxMMLQLITIT)^~^//ULLLlkjklkmnMowooooo8*o*=0>>...      ",
"    5MMjjtttottoowooo88t0esxmmnNvmmmmxkksmmmkxmML!//``Uswwooooooo8oo**=>>...      ",
"    5Mljjjttttotwowo9o99r800e9eeessssmxmsmmmmxm/`~(`_Msrwooooeoooo****=>y...      ",
"    2DAjjtttotoowooownootjoaoeow008080808000eeh!Q~~Qnewnoooooooo88oo**=>>...      ",
"    2ASkjttttwtowowooooooonwzzaaee000ee00000euLQ~///Nnwoowwowoooo8*o**=>>...      ",
"    -AAjjttttotowowoooooooojezzzcczzcvcvvvvNK^~_/``^nwowooooooooo8*o**>>=...      ",
"    %CSkjtttotonowowooontooowazzzzcccvvbvNINU^^__)Utwoowwowoooow8ooo**=<;...      ",
"    $CAktttojottotooooototooonazczccccvvvvFFU^^^^Isqoowowowoooooo88*8=>>&...      ",
"    $6SkjtttotoooototoooooooootwzcczzcccvbvFUT^TNrqooooooooowoooo*o***>>&...      ",
"     4AkntjotototoototooooooootjezzzccccvvbIIUUvrwooowwoooooooow8o***=>>O..       ",
"     %AkjjtjojotottooootonooooootezzzcccccvFKIvswo9oooooowwooooo8o***=>>X..       ",
"     $CAhutqqqq9ototoootoootoooo9wrzzcccccbNNcnwo889owowooooooooo****>>;...       ",
"     @1Akhttqqqqtooootooooooooto99w0eezzzzzaeeroo8oooooowooooooo8oo*=>>#...       ",
"      $Akhrrqq99oonooootooootooo89rezeeeeeaxaewoow89oooooooaowoo8***=y>....       ",
"      @kVutrqq9qnoowotooonooooot989ezzzzzzNNawwoooooowooooooooooo**=>,=...        ",
"      O:Vkuqtqq9wwooooowooooooooo9wezzzzzzvvaeooooooooooooooooow***=>>#...        ",
"       @Vphq99q9owwowwooooonoooo9ow0cczzzzNvae9oowwooowooaoooooo**=>>=....        ",
"       O:Vhuqq9qwoowooo9oooooooo9owecccczzNvawo9oooooooooooooooo8*=>>#...         ",
"        +1ptqqqowowoow9ootooonoooo90vvvvczIvae9oowoowooooooooooe*=>>;....         ",
"        O;Viu09998988889owooowow9oweNNmvvvIvawo9o9o8o888oooooooo=0>>#...          ",
"         X>Vur0999888988ooowooooo9oeN^UNNNIvar989o9888ooooooeo99=>>&....          ",
"          Opiuq*98888888ooooowo99oweL^^UMU^Ns0oooo8o8oo8oooooo8e>>=....           ",
"          X;p1q0888*8888wooooo9oooowQ(/^U^^Us0o9oo8o88o*ooow*=0=>>#....           ",
"           O>ii00*88ooooooooo88888orn_`/^^UMwnaowoooo8ooooo**==>>&....            ",
"            .;iy009*oaooooao88o8oo89twrunnwwwoooooooo**o*****;>>&....             ",
"             .>iy0wooooooooo8o8o88o9oo88oaooooooooeoooo*o**==>>&....              ",
"              .;aueewooooooo8o888o88o*88oooooooooooo*o****=>>>&.....              ",
"               .;i>0=8*9**o*oo8**oooo8o8oo88oo8o8ooo*****=>>>&.....               ",
"                .;<<>0******o8oooo8*8oo*888oo**oo**o***==><>&.....                ",
"                 .#>1>=0**8****ooo*ooooooo*ooooo******=>>>=#.....                 ",
"                  ..&<<>>=****o***o**o*o*o*o*o*0***==>>:>&......                  ",
"                   ..#;<>>>=******o****8*o******==0>>>>=#.....                    ",
"                     ..&>>>>>====*********=**====>>>>>#......                     ",
"                      ...#>>><>>>>>========>>>>>>>>;#.......                      ",
"                        ....#;>>>>>>>>>>><>>>>>>;#........                        ",
"                          .....O&&&=;y>>;;==&&O.........                          ",
"                            ...X..X.....X.....X.......                            ",
"                               ....................                               ",
"                                    ..........                                    ",
"                                                                                  ",
"                                                                                  ",
"                                                                                  ",
"                                                                                  ",
"                                                                                  ",
"                                                                                  "
};
