/* XPM */
static char *_551w_ti7h7[] = {
/* columns rows colors chars-per-pixel */
"82 82 247 2 ",
"   c #000000",
".  c #0C0C0C",
"X  c #171717",
"o  c #011D2B",
"O  c #01353A",
"+  c #082A2C",
"@  c #383838",
"#  c #282828",
"$  c #023B44",
"%  c #022859",
"&  c #043852",
"*  c #16157F",
"=  c #161B7E",
"-  c #001F64",
";  c #022C68",
":  c #013268",
">  c #15237D",
",  c #152B7C",
"<  c #003878",
"1  c #15347D",
"2  c #153C7C",
"3  c #153872",
"4  c #002E78",
"5  c #0B244B",
"6  c #054856",
"7  c #064A51",
"8  c #0A4A68",
"9  c #0A5768",
"0  c #15447C",
"q  c #154A7B",
"w  c #15537B",
"e  c #155B7A",
"r  c #105776",
"t  c #11506E",
"y  c #2A4874",
"u  c #15647A",
"i  c #15687B",
"p  c #1C6D7A",
"a  c #0E6E74",
"s  c #2E6A72",
"d  c #214251",
"f  c #585858",
"g  c #4B4B4B",
"h  c #6A6A6A",
"j  c #757575",
"k  c #546D58",
"l  c #6F9E61",
"z  c #7A872C",
"x  c #A49C2B",
"c  c #D6B504",
"v  c #D7B61E",
"b  c #DAC80A",
"n  c #E4C804",
"m  c #EAD701",
"M  c #F6DA00",
"N  c #EFCB0A",
"B  c #F5E800",
"V  c #FAF700",
"C  c #EFE300",
"Z  c #E6D12D",
"A  c #CFC126",
"S  c #91B15A",
"D  c #D7B656",
"F  c #EBCB48",
"G  c #E8D46E",
"H  c #170F86",
"J  c #170F88",
"K  c #180F8C",
"L  c #161283",
"P  c #161A82",
"I  c #18108E",
"U  c #171689",
"Y  c #1C1393",
"T  c #1D1A93",
"R  c #201795",
"E  c #221A96",
"W  c #261E98",
"Q  c #172786",
"!  c #003D82",
"~  c #003A8A",
"^  c #16318E",
"/  c #2B239B",
"(  c #28279A",
")  c #30279D",
"_  c #332B9E",
"`  c #2A389A",
"'  c #36369E",
"]  c #362EA0",
"[  c #3B33A2",
"{  c #3938A3",
"}  c #2A34A4",
"|  c #423BA6",
" . c #00438B",
".. c #05488B",
"X. c #164687",
"o. c #004592",
"O. c #004A9C",
"+. c #024798",
"@. c #03549B",
"#. c #185497",
"$. c #17528C",
"%. c #2D5397",
"&. c #166985",
"*. c #187689",
"=. c #116D93",
"-. c #2C6E98",
";. c #014CA7",
":. c #0051AB",
">. c #0158A8",
",. c #0055B3",
"<. c #0258B9",
"1. c #1459A9",
"2. c #3D45A7",
"3. c #3A56A5",
"4. c #2E58B1",
"5. c #0367BA",
"6. c #0076B8",
"7. c #0869AD",
"8. c #346EAE",
"9. c #475692",
"0. c #4C738C",
"q. c #4643A9",
"w. c #4B44AA",
"e. c #4848A9",
"r. c #524CAD",
"t. c #4858A9",
"y. c #5552AF",
"u. c #5459AD",
"i. c #485BB6",
"p. c #5A55B1",
"a. c #5D5AB2",
"s. c #545DB5",
"d. c #625EB5",
"f. c #4965B7",
"g. c #5968B5",
"h. c #4C72AE",
"j. c #6563B6",
"k. c #6C6AB9",
"l. c #6569B6",
"z. c #6875B7",
"x. c #7377BD",
"c. c #6B74B3",
"v. c #005CC3",
"b. c #005BCC",
"n. c #005CD6",
"m. c #0063CD",
"M. c #026AC8",
"N. c #0175C9",
"B. c #006BD5",
"V. c #0166D4",
"C. c #007CD9",
"Z. c #0277D6",
"A. c #156FCB",
"S. c #3878C9",
"D. c #277CD5",
"F. c #2770CA",
"G. c #0070E5",
"H. c #4C73C4",
"J. c #7A7FC0",
"K. c #1A8F97",
"L. c #2F879A",
"P. c #0C90AE",
"I. c #368CA7",
"U. c #16AAB2",
"Y. c #1EA4AA",
"T. c #4C9195",
"R. c #6D9495",
"E. c #4A99A9",
"W. c #548EB1",
"Q. c #688AB8",
"!. c #7596BC",
"~. c #6F90B7",
"^. c #57AAB2",
"/. c #67ABB7",
"(. c #75AAB9",
"). c #78ABAF",
"_. c #5FB18E",
"`. c #0084DA",
"'. c #008CDB",
"]. c #0385D5",
"[. c #0094DC",
"{. c #009CDD",
"}. c #0595D6",
"|. c #108DD3",
" X c #328BD3",
".X c #02A3DD",
"XX c #06A9DE",
"oX c #16B4D8",
"OX c #10AAD3",
"+X c #2EAEDA",
"@X c #0397E2",
"#X c #0A8DE7",
"$X c #2D9AE2",
"%X c #03AAE2",
"&X c #0CB4E1",
"*X c #08B8E3",
"=X c #15BAE3",
"-X c #0FADEC",
";X c #2CB2E3",
":X c #5487C8",
">X c #458BD5",
",X c #4A98D8",
"<X c #5797D9",
"1X c #4F8ECB",
"2X c #7B89C1",
"3X c #749AC9",
"4X c #4AA6D8",
"5X c #56ADD0",
"6X c #7AA8C3",
"7X c #71ABD1",
"8X c #4F9AE2",
"9X c #57A5E6",
"0X c #4BB8E7",
"qX c #40A8E4",
"wX c #67A9E6",
"eX c #6AB6E9",
"rX c #76B9EA",
"tX c #76AFE9",
"yX c #1BCDD3",
"uX c #2BC6D3",
"iX c #08C4E3",
"pX c #17C7E5",
"aX c #1DD6E7",
"sX c #1EDBF2",
"dX c #24D9E7",
"fX c #32CBE5",
"gX c #2AEAE9",
"hX c #50CCE9",
"jX c #6BC6EC",
"kX c #79C8ED",
"lX c #74D5F0",
"zX c #6FE5F5",
"xX c #8FA8B7",
"cX c #8495A7",
"vX c #EFD990",
"bX c #F7E2B3",
"nX c #8199C4",
"mX c #83B5C5",
"MX c #86A8C7",
"NX c #83BAEA",
"BX c #ADBAC9",
"VX c #86C6ED",
"CX c #92CCF0",
"ZX c #ACE9F6",
"AX c #96E2F6",
"SX c #F3E8C2",
"DX c None",
/* pixels */
"DXDXDXDXDXDXDXDXDXDXDXDXDXDXDXDXDXDXDXDXDXDXDXDXDXDXDXDXDXDXDXDXDXDXDXDXDXDXDXDXDXDXDXDXDXDXDXDXDXDXDXDXDXDXDXDXDXDXDXDXDXDXDXDXDXDXDXDXDXDXDXDXDXDXDXDXDXDXDXDXDXDX",
"DXDXDXDXDXDXDXDXDXDXDXDXDXDXDXDXDXDXDXDXDXDXDXDXDXDXDXDXDXDXDXDXDXDXDXDXDXDXDXDXDXDXDXDXDXDXDXDXDXDXDXDXDXDXDXDXDXDXDXDXDXDXDXDXDXDXDXDXDXDXDXDXDXDXDXDXDXDXDXDXDXDX",
"DXDXDXDXDXDXDXDXDXDXDXDXDXDXDXDXDXDXDXDXDXDXDXDXDXDXDXDXDXDXDXDXDXDXDXDXDXDXDXDXDXDXDXDXDXDXDXDXDXDXDXDXDXDXDXDXDXDXDXDXDXDXDXDXDXDXDXDXDXDXDXDXDXDXDXDXDXDXDXDXDXDX",
"DXDXDXDXDXDXDXDXDXDXDXDXDXDXDXDXDXDXDXDXDXDXDXDXDXDXDXDXDXDXDXDXDXDXDXDXDXDXDXDXDXDXDXDXDXDXDXDXDXDXDXDXDXDXDXDXDXDXDXDXDXDXDXDXDXDXDXDXDXDXDXDXDXDXDXDXDXDXDXDXDXDX",
"DXDXDXDXDXDXDXDXDXDXDXDXDXDXDXDXDXDXDXDXDXDXDXDXDXDXDXDXDXDXDXDXDX@ @ @ @ @ @ @ # # # # X X DXDXDXDXDXDXDXDXDXDXDXDXDXDXDXDXDXDXDXDXDXDXDXDXDXDXDXDXDXDXDXDXDXDXDXDX",
"DXDXDXDXDXDXDXDXDXDXDXDXDXDXDXDXDXDXDXDXDXDXDXDXDXDXDXDXDXg g f T.T.T.E.^.E.E.E.E.L.L.L.p 9 @ . . . DXDXDXDXDXDXDXDXDXDXDXDXDXDXDXDXDXDXDXDXDXDXDXDXDXDXDXDXDXDXDXDX",
"DXDXDXDXDXDXDXDXDXDXDXDXDXDXDXDXDXDXDXDXDXDXDXDXDXDXf f R.E./.^.~.W.W.W.h.T.h.8.8.h.8.L.I.L.L.K.a 6       DXDXDXDXDXDXDXDXDXDXDXDXDXDXDXDXDXDXDXDXDXDXDXDXDXDXDXDXDX",
"DXDXDXDXDXDXDXDXDXDXDXDXDXDXDXDXDXDXDXDXDXDXDXDXh T./././.Q.W.Q.c.h.h.g.t.t.t.t.t.9.3.3.3.%.#.-.L.K.K.&.$     DXDXDXDXDXDXDXDXDXDXDXDXDXDXDXDXDXDXDXDXDXDXDXDXDXDXDX",
"DXDXDXDXDXDXDXDXDXDXDXDXDXDXDXDXDXDXDXDXDXDXh R./.(./.Q.W.c.g.g.u.u.r.t.e.e.e.q.2.{ 2.' ` ` ` %.%.#.=.=.*.*.7     DXDXDXDXDXDXDXDXDXDXDXDXDXDXDXDXDXDXDXDXDXDXDXDXDX",
"DXDXDXDXDXDXDXDXDXDXDXDXDXDXDXDXDXDXDXDXh R./.(.(.~.z.c.l.d.p.y.u.t.e.q.| | | { { ' _ ' ' ( _ ( ( ^ ` ^ $.&.*.a O   DXDXDXDXDXDXDXDXDXDXDXDXDXDXDXDXDXDXDXDXDXDXDXDX",
"DXDXDXDXDXDXDXDXDXDXDXDXDXDXDXDXDXDXDXj ).6X(.2XQ.k.l.j.p.u.r.r.e.w.| | | | [ ] ' _ _ _ / ) W ( T T T ^ ^ X.$.&.*.6     DXDXDXDXDXDXDXDXDXDXDXDXDXDXDXDXDXDXDXDXDXDX",
"DXDXDXDXDXDXDXDXDXDXDXDXDXDXDXDXDXh R.(.(.!.2XQ.k.k.d.a.y.r.r.| | | | [ [ [ [ ] _ _ _ ) / / W W T T T T T Q ^ X.&.&.r 7   DXDXDXDXDXDXDXDXDXDXDXDXDXDXDXDXDXDXDXDXDX",
"DXDXDXDXDXDXDXDXDXDXDXDXDXDXDXDXj ).(.nX2XJ.x.k.l.d.a.r.r.w.| | | [ { ] ] ] ] ] _ ) ) ) / / W E E T Y Y U U U Q 2 $.i &.7   DXDXDXDXDXDXDXDXDXDXDXDXDXDXDXDXDXDXDXDX",
"DXDXDXDXDXDXDXDXDXDXDXDXDXDXDXj ).mXMX!.2Xx.k.d.a.a.y.w.| | | | ' _ _ _ ) ) ) ) ) ) / / / / W E R Y Y Y I I U P Q Q 0 e i 6   DXDXDXDXDXDXDXDXDXDXDXDXDXDXDXDXDXDXDX",
"DXDXDXDXDXDXDXDXDXDXDXDXDXDXj ).mXnX2Xx.k.l.d.d.p.y.w.w.| | [ _ g.4X5Xg.2.( / / / / / / / W W E E Y Y I K K U U * = > 2 e i 6   DXDXDXDXDXDXDXDXDXDXDXDXDXDXDXDXDXDX",
"DXDXDXDXDXDXDXDXDXDXDXDXDXj ).mX3X2Xx.x.l.j.a.p.r.w.| | [ ' a.4XfXpXpXpXfX1Xf.{ W W W / W W E E R T Y I I K J L L L = , ^ e i 7   DXDXDXDXDXDXDXDXDXDXDXDXDXDXDXDXDX",
"DXDXDXDXDXDXDXDXDXDXDXDXj ).MXnX2Xx.k.k.d.p.y.r.w.| | [ ] g.OXOXaXiXiXiXiX=XoX+X Xf.[ W / W E E R R Y Y I I K K J H * * = 1 r u 7   DXDXDXDXDXDXDXDXDXDXDXDXDXDXDXDX",
"DXDXDXDXDXDXDXDXDXDXDXh xXmXnXnXJ.x.k.d.d.r.r.| | | [ ] ] H.=.; @.1X4XpXiX*X%X%XoXOX$XS.f.{ E E R Y Y Y I I K K H H * * * > 2 e u 7   DXDXDXDXDXDXDXDXDXDXDXDXDXDXDX",
"DXDXDXDXDXDXDXDXDXDXDX).6XmX2XJ.x.k.d.d.r.r.| | [ ] ] ) ] :X>.; : e.} e.h.4XpX*X.X.X.XXX$X|.>X4.} R Y Y I I K K H H H * * = > 3 e a 7   DXDXDXDXDXDXDXDXDXDXDXDXDXDX",
"DXDXDXDXDXDXDXDXDXDXj xXmXnX!.x.k.d.d.r.r.| | | ] ] ) / W H.7.!  .q.R R W } i.H.,X;X%X{.[.[.'.|. XH.4.{ I I K K J H H H * * = , q u 8     DXDXDXDXDXDXDXDXDXDXDXDXDX",
"DXDXDXDXDXDXDXDXDXj xXmXnXJ.x.k.j.d.p.| | | ] ) ) ) / / W H.5.o.+.q.T Y Y R T E ' 4.H.4X;X%X@X`.G.`.|.S.H.4.( K K H H H * * * * , w u 6   DXDXDXDXDXDXDXDXDXDXDXDXDX",
"DXDXDXDXDXDXDXDXDX).(.MXJ.J.x.j.d.p.r.| | | ] ) ) ) W W W H.<.:.,.q.Y Y R R Y R T R E ' i.H.,X+X@X`.Z.V.V.D.S.H.} K H H H * * * > 2 e u O   DXDXDXDXDXDXDXDXDXDXDXDX",
"DXDXDXDXDXDXDXDXj ).MXnXJ.x.k.d.p.| | | | ) ) / W W W E E H.b.<.b.q.E Y R Y R R R } } _ Y R } i.:X,X+X[.G.V.V.n.F.] J H H * * * = , q u 9     DXDXDXDXDXDXDXDXDXDXDX",
"DXDXDXDXDXDXDXDXcXMXnXJ.x.k.d.d.p.| | | ) ) / W W W E E E s.b.V.V.q.T E Y R Y } i.,X8X1XH.} / E E ) 2.1X+X'.V.V.b.i.K H H H H H L = 1 e u $   DXDXDXDXDXDXDXDXDXDXDX",
"DXDXDXDXDXDXDXj (.mX!.x.k.k.d.y.r.| | | ) / W E E E E E E f.n.Z.Z.q.T T Y ] i.>X$XeXCXeX9X<XH.s.} ( Y T 3.;XZ.b.b.4.K K K K J H L = > q u 9     DXDXDXDXDXDXDXDXDXDX",
"DXDXDXDXDXDXDXR.mX6XJ.x.d.d.y.w.| | ) / / W E E E E E E E f.M.`.`.q.T W { >X+X0XCXCXCXCXCXNXwX8X XH.i.{ E 1X}.<.b.4.I K K K H H L * = 1 e u O   DXDXDXDXDXDXDXDXDXDX",
"DXDXDXDXDXDXh mXnXnXx.k.d.d.r.w.| | ) ) W E E R R E E E E s.M.{.{.q.} H.+X;XkXCXVXkXVXNXNXNXVXNXtX<XH.S.f.1X}.,.;.4.Y Y K K J J H L L , q i 9     DXDXDXDXDXDXDXDXDX",
"DXDXDXDXDXDXj 6X3X~.k.k.d.p.w.| ] ] ) W W R R R R E E E E t.6.XX%X:X4X;XjXVXVXkXkXrXrXrXrXtXtXtXtXNXNXtX:X|.].:.;.i.R R I K J J L L P > ^ u u     DXDXDXDXDXDXDXDXDX",
"DXDXDXDXDXDXR.6X!.x.k.d.p.r.| | ] ) / W E R R R R E E E E r.6.iXoXfXhXVXkXkXjXrXjXeXeXeXwXtXwXtXwXwX3XwXtX4XN.:.>.@.t.e.[ Y J J J H L = 1 w u $     DXDXDXDXDXDXDXDX",
"DXDXDXDXDXh (.6X~.x.j.d.y.| | [ ) / W E R R Y R R R T E E f.OXfXhXlXlXlXlXjXjXeXeXeXeXeXwXwXwXwXwXwXwX3X3X,XN.O.O.8.8.! ! i.K K J H L P > q i 9     DXDXDXDXDXDXDXDX",
"DXDXDXDXDXh (.!.x.k.d.p.r.| | ] ) W W E Y R Y Y Y Y R _ :XfXhXhXhXhX;X;X;XoX-X$X$X$X$XwXwX9XwX8X8X<X<X<X<X X5.+.+.#.$.o.5.D.I K J L L = > 2 u e     DXDXDXDXDXDXDXDX",
"DXDXDXDXDXR.(.~.k.j.d.r.| | | ) / W E R Y Y Y R R R s.0XdXdXfXpXpXpX&X&X%X.X{.{.@X|.C.#X$X9X8X8X8X8X<X:X1X X5.o.o.o.7.].C.D.I K J H H L = 1 e u o     DXDXDXDXDXDXDX",
"DXDXDXDXg R.6X~.k.d.d.r.| | _ ) / W R R Y Y T U 3.5XuXsXaXaXaXpX=X*X&X&XXX.X{.{.[.'.`.`.C. X,X8X8X>X>X>X<XD.,. .! >.#X#X|.F.Y I J J H L = , w i $     DXDXDXDXDXDXDX",
"DXDXDXDXf /./.z.l.d.r.w.| [ _ ) W E R Y Y U e.^.uXyXaXgXdXaXpXpXpX=X=XXXXX.X{.{.[.'.`.C.G.Z.G. XD. X>X>X8.A.:.! 0 @.#XrX9XF.I I J J H L * , q i 6     DXDXDXDXDXDXDX",
"DXDXDXDXf /.!.Q.j.a.r.w.| ' _ ) W E T Y T f.gXK.a uXgXgXdXaXpXpXpXoX*X&XXX.X{.{.'.'.`.`.C.B.B.B.m.m.A.A.:.,.O.; - 1.CXCXH.F.I I J J H H * > q u t     DXDXDXDXDXDXDX",
"DXDXDXDXf /./.z.j.u.r.| | [ ) / W E T Y ( hXgXyXY.K.Y.U.yXsXsXpX=X*X*X&X%X@X{.{.{.'.`.C.C.Z.B.V.m.b.v.,.N.M.~ =.=.I.AXBXH.A.I I J H H * * > 0 u r     DXDXDXDXDXDXDX",
"DXDXDXDXf /.!.z.g.u.r.| [ _ ) ) W E R Y W hXAXAXgXyXU.Y.K.Y.U.iXpXpX*X*XXX.X{.{.[.'.`.`.C.Z.B.B.m.b.v.N.@X6.7.oXaXdX5XMX>XA.K K J J H H * > 2 u r       DXDXDXDXDXDX",
"DXDXDXDXk /.~.g.a.r.w.| | _ ) W W E R Y W hXZXZXZXAXhXyXOXP.P.Y.OXOX*X*X&X%X{.{.[.'.`.C.C.C.B.m.b.A.].{.&X X].*XpXoXW.7X>XF.I K K H H H * = 2 u e       DXDXDXDXDXDX",
"DXDXDXDXf /.Q.g.p.y.w.| [ _ ) / E E Y Y / hXZXZXZXZXAXAXzXfX&XP.P.P.P.P.OX.X@X@X'.'.`.`.Z.B.V.V.].{..X;XeX,XB.'.C.5.D.h.8.4.I I J J H H L > 2 e e       DXDXDXDXDXDX",
"DXDXDXDXf /.Q.l.p.y.| | _ _ ) W W E R R Q 0XlXhXfXhXhXhXVXlXhXhXoXP.6.P.P.].}.{.@X@X`.N.N.M.Z.[.%X&X;XjXCXW.:.V.O.].@XS.8.4.I I J H H H * > 2 u e       DXDXDXDXDXDX",
"DXDXDXDXf ^.Q.g.u.r.q.| _ _ ) W W W E R W +X=X*XiXiX*X%X&X0XjXkXjX0X-XXX|.6.P.N.].].6.6.N.'.%X&XoXhXVXNX6XW.$.<.~ |.$X<X8.1.Y I K K H H * > 2 u e       DXDXDXDXDXDX",
"DXDXDXDXg /.W.g.u.r.w.| | _ ) / W W E E W ;XiXdXgXaXpX*XXX.X@X+XkXCXVX0X-X@XP.6.6.6.N.].@X*X&X;XjXVXrX7X3XwX8.#.1. X:XW.$.4.I I K J J L L > 0 u r       DXDXDXDXDXDX",
"DXDXDXDXg ^.Q.h.u.w.q.| ' _ ) ) / W W W w.fXgXdXaXiX=XoXXX.X[.].#XqXVXCXNX9X$X#X].].[.&X=X=X;XkXVXeX!.5X$X X1.#.F.F.-.0.#.4.I I K J L L P > 0 u t       DXDXDXDXDXDX",
"DXDXDXDXg _.W.g.u.r.| | [ ) ) ) W W / t.&.l S l ^.oX&X-X.X}.'.`.C.C.|.eXVXVXrXwX$X`.oXpXfXhXVXrX5XQ.,X#X5.! o.b.,.; ; #.#.%.I I J H H L * , q u 8       DXDXDXDXDXDX",
"DXDXDXDX@ T.W.h.u.e.q.[ ] ] ) / W / 9.5 o x bXvXG S _.}.@X'.`.C.B.V.C.|.9XwXtXtXtXZ.*XfXjXkXrX/.5X$XC.,. .<.B.>.: < ;.: % #.I I K J H L = , w u 6       DXDXDXDXDXDX",
"DXDXDXDX# 0.^.h.u.e.q.| [ _ ) ) / w.5 ; d D SXbXbXvXF l |.#XC.Z.V.m.<.B.C.9XwXwX9XD.XXhXlX5X5X5X|.N.@.@.V.m.o.: O.+.% % 4 %.I I J J H L = 1 e u $       DXDXDXDXDXDX",
"DXDXDXDXDXf ^.h.t.t.| | [ _ ) ) / 9.% ; d D vXvXG vXvXF x Y.G.Z.m.m.:.>.V.D.8X8X8XB.%XhX5X1X5X@X6...>.B.5.< < >.o.% <  .4 3.I K J H L L = 2 u e o     DXDXDXDXDXDXDX",
"DXDXDXDXDX@ E.W.t.e.| | [ _ ] ) ) %.% , > x vXG G G G G F A -.G.m.<.:.;.:.V.D.>X XA.XX1X5X0X#X@.@.M.G.<.< +.<.< %  .~ 4 u./ I K J L L P > 0 u w       DXDXDXDXDXDXDX",
"DXDXDXDXDX@ I.W.h.t.2.' ' _ _ _ ] 3.4 ~ ! x D v Z Z Z Z Z N A -.b.,.>.O.+.,.M.F.S.A..XqX0X|.@.5.Z.Z.;.< ,.:.: :  .~ $.e.T I I I J L L * , w u 8       DXDXDXDXDXDXDX",
"DXDXDXDXDX# s E.h.t.q.q.' [ _ _ / s.4  .~ k c c c c n N m m m A ,.:.+.+.-.#.<.A.5.5.{.;XP.@.N.C.m.o.+.<. .: ! o.~ t.{ Y I I K K J L L Q 1 e u $       DXDXDXDXDXDXDX",
"DXDXDXDXDXDX@ E.0.t.3.' | _ _ ) ) | ~ +.;.%.c c c b n m m C C M l ,.#.#.h.%.O.,.1.5.[.7.7.Z.C.<. .:.v. .4  .~ ~ t.( K I I I K K L L P > 0 i w         DXDXDXDXDXDXDX",
"DXDXDXDXDXDX# L.I.t.2.' _ _ ) ) / / f.+.;.,.x c c n m m B B B B m %.h.h.Q.R.! :.:.7.}.N.C.C.>.+.<.:. .< ;.+.;.t.( I K I I K J J L L = 1 w i 8       DXDXDXDXDXDXDXDX",
"DXDXDXDXDXDXX s E.8.9.' _ _ _ ) / W | 1.,.<.1.x N n m M B V V V B x 8.~.~.~.y O.O.:.].'.N.>.;.5.>.< ~ O.~ 4.q.T I I I K K K J H L * > 2 u e O       DXDXDXDXDXDXDXDX",
"DXDXDXDXDXDXDX# L.I.3.2.' _ ) / / W W s.,.v.n.8.x N m m C V V V B n s ~.cXcXy ~ o.@.C.M.@.,.m.+. .+.;.;.3.{ Y I I I I K K J J H * = 1 w u 8         DXDXDXDXDXDXDXDX",
"DXDXDXDXDXDXDXX s L.8.%.` ' ) / / W E W H.b.V.G.8.S c M C B V V B M k W.xXxX3  . .@.Z.>.<.m.O.~ ;.;.;.t./ I I I I I K K K L H L = > ^ u e $       DXDXDXDXDXDXDXDXDX",
"DXDXDXDXDXDXDXDXX L.L.3.` ( ( / W E R R W S.V.B.G.`.l A m M B B M N x h.BXcX&  .< o.Z.B.v.+. .<.:.4.t.R Y Y I I I I J J U L L L > 1 e u 8         DXDXDXDXDXDXDXDXDX",
"DXDXDXDXDXDXDXDX. d L.-.%.` ( E E E T Y Y ] S.G.C.#X#XE.S A b m n b z R.xXy : ! <  .B.<. .@.<.;.4.[ Y Y I I K K I K J H H * H * , q i w O       DXDXDXDXDXDXDXDXDXDX",
"DXDXDXDXDXDXDXDXDXX p L.-.` ( ( E T T Y Y Y { S.|.'.@X#X-XY._.l S _.p 9.y ; < < :  .V.+.,.v.,.i.] Y I Y I I K K K K H H H * * = 2 e u 6         DXDXDXDXDXDXDXDXDXDX",
"DXDXDXDXDXDXDXDXDXDXX K.-.#.^ Q T Y Y Y I I I Y i.|.}.@X%X-X-X-XiX*X1.; ; < < : : < m.m.<.<.f.Y Y Y I I I K J K J H H H * = > 1 w u 8         DXDXDXDXDXDXDXDXDXDXDX",
"DXDXDXDXDXDXDXDXDXDX. 9 K.-.X.( T T I I I I I I Y [ H.OX%X-X&XoX=XH.' 2.%.3 : ; % < v.v.4.2.R Y I Y I I K K J H J H * * * = , w u w 7         DXDXDXDXDXDXDXDXDXDXDX",
"DXDXDXDXDXDXDXDXDXDXDX. 9 K.=.^ ^ T U U I I I K I I I { i.H.1XS.q.K Y Y Y | %.3 5 : <.4.] Y I I I I I I J J J H H * * * = 1 q u w 7         DXDXDXDXDXDXDXDXDXDXDXDX",
"DXDXDXDXDXDXDXDXDXDXDXDX. 9 *.=.^ ^ T U J I K K I I I I I I K K I Y K Y K Y H ) e.Q s.R Y I I I I I I K J H H H * * * = , q u e 6         DXDXDXDXDXDXDXDXDXDXDXDXDX",
"DXDXDXDXDXDXDXDXDXDXDXDXDX  9 *.=.^ Q U U U J J K K I I K K K K K K K K K K H K I I I I I I K K K K K K H H H * * * > 1 q u e 7         DXDXDXDXDXDXDXDXDXDXDXDXDXDX",
"DXDXDXDXDXDXDXDXDXDXDXDXDXDX  9 *.&.X.^ P P L J J J J K K K K K K K K K K K K K I I I I I I K K K K J J * H * * = > 1 w u e &           DXDXDXDXDXDXDXDXDXDXDXDXDXDX",
"DXDXDXDXDXDXDXDXDXDXDXDXDXDXDX  6 *.&.X.^ , = P L L L U J H H J H H H J J J H J J K K K J J J J J J L L L L = = , 2 w i w 7           DXDXDXDXDXDXDXDXDXDXDXDXDXDXDX",
"DXDXDXDXDXDXDXDXDXDXDXDXDXDXDXDX  9 *.i e ^ , P P L L L H H H H H H H H H J H H J J J J J J J L L L L L = = > 1 q e u w 7           DXDXDXDXDXDXDXDXDXDXDXDXDXDXDXDX",
"DXDXDXDXDXDXDXDXDXDXDXDXDXDXDXDXDX  7 9 &.&.w Q Q P P L * L L H H H H * H H H H H H H H L L L L L * = = > , 0 w u u 8 $           DXDXDXDXDXDXDXDXDXDXDXDXDXDXDXDXDX",
"DXDXDXDXDXDXDXDXDXDXDXDXDXDXDXDXDXDX    6 &.i e q 1 , > = * * * * * * * H H * H * H H H L L L P P = > , 3 w u u q 6             DXDXDXDXDXDXDXDXDXDXDXDXDXDXDXDXDXDX",
"DXDXDXDXDXDXDXDXDXDXDXDXDXDXDXDXDXDXDX    O 9 u u &.q 2 , , = = = = * * * * * * * * L P = = = > , 2 0 w u i e 8 O           DXDXDXDXDXDXDXDXDXDXDXDXDXDXDXDXDXDXDXDX",
"DXDXDXDXDXDXDXDXDXDXDXDXDXDXDXDXDXDXDXDXDX    7 r u u u w q 0 1 , > > > > = > = = = > , , 1 2 q w e u i e t $             DXDXDXDXDXDXDXDXDXDXDXDXDXDXDXDXDXDXDXDXDX",
"DXDXDXDXDXDXDXDXDXDXDXDXDXDXDXDXDXDXDXDXDXDX      O 9 u i i u e w w 0 0 2 2 2 2 2 2 0 q w e u u u u w 8 O               DXDXDXDXDXDXDXDXDXDXDXDXDXDXDXDXDXDXDXDXDXDX",
"DXDXDXDXDXDXDXDXDXDXDXDXDXDXDXDXDXDXDXDXDXDXDXDX        $ 8 r e u i u u u u u u u u i i i u e q 8 $                 DXDXDXDXDXDXDXDXDXDXDXDXDXDXDXDXDXDXDXDXDXDXDXDX",
"DXDXDXDXDXDXDXDXDXDXDXDXDXDXDXDXDXDXDXDXDXDXDXDXDXDX          o $ 6 8 t r e e w r r t 8 6 $ o                   DXDXDXDXDXDXDXDXDXDXDXDXDXDXDXDXDXDXDXDXDXDXDXDXDXDX",
"DXDXDXDXDXDXDXDXDXDXDXDXDXDXDXDXDXDXDXDXDXDXDXDXDXDXDXDX                                                    DXDXDXDXDXDXDXDXDXDXDXDXDXDXDXDXDXDXDXDXDXDXDXDXDXDXDXDX",
"DXDXDXDXDXDXDXDXDXDXDXDXDXDXDXDXDXDXDXDXDXDXDXDXDXDXDXDXDXDXDX                                        DXDXDXDXDXDXDXDXDXDXDXDXDXDXDXDXDXDXDXDXDXDXDXDXDXDXDXDXDXDXDX",
"DXDXDXDXDXDXDXDXDXDXDXDXDXDXDXDXDXDXDXDXDXDXDXDXDXDXDXDXDXDXDXDXDXDXDXDX                    DXDXDXDXDXDXDXDXDXDXDXDXDXDXDXDXDXDXDXDXDXDXDXDXDXDXDXDXDXDXDXDXDXDXDXDX",
"DXDXDXDXDXDXDXDXDXDXDXDXDXDXDXDXDXDXDXDXDXDXDXDXDXDXDXDXDXDXDXDXDXDXDXDXDXDXDXDXDXDXDXDXDXDXDXDXDXDXDXDXDXDXDXDXDXDXDXDXDXDXDXDXDXDXDXDXDXDXDXDXDXDXDXDXDXDXDXDXDXDX",
"DXDXDXDXDXDXDXDXDXDXDXDXDXDXDXDXDXDXDXDXDXDXDXDXDXDXDXDXDXDXDXDXDXDXDXDXDXDXDXDXDXDXDXDXDXDXDXDXDXDXDXDXDXDXDXDXDXDXDXDXDXDXDXDXDXDXDXDXDXDXDXDXDXDXDXDXDXDXDXDXDXDX",
"DXDXDXDXDXDXDXDXDXDXDXDXDXDXDXDXDXDXDXDXDXDXDXDXDXDXDXDXDXDXDXDXDXDXDXDXDXDXDXDXDXDXDXDXDXDXDXDXDXDXDXDXDXDXDXDXDXDXDXDXDXDXDXDXDXDXDXDXDXDXDXDXDXDXDXDXDXDXDXDXDXDX",
"DXDXDXDXDXDXDXDXDXDXDXDXDXDXDXDXDXDXDXDXDXDXDXDXDXDXDXDXDXDXDXDXDXDXDXDXDXDXDXDXDXDXDXDXDXDXDXDXDXDXDXDXDXDXDXDXDXDXDXDXDXDXDXDXDXDXDXDXDXDXDXDXDXDXDXDXDXDXDXDXDXDX",
"DXDXDXDXDXDXDXDXDXDXDXDXDXDXDXDXDXDXDXDXDXDXDXDXDXDXDXDXDXDXDXDXDXDXDXDXDXDXDXDXDXDXDXDXDXDXDXDXDXDXDXDXDXDXDXDXDXDXDXDXDXDXDXDXDXDXDXDXDXDXDXDXDXDXDXDXDXDXDXDXDXDX",
"DXDXDXDXDXDXDXDXDXDXDXDXDXDXDXDXDXDXDXDXDXDXDXDXDXDXDXDXDXDXDXDXDXDXDXDXDXDXDXDXDXDXDXDXDXDXDXDXDXDXDXDXDXDXDXDXDXDXDXDXDXDXDXDXDXDXDXDXDXDXDXDXDXDXDXDXDXDXDXDXDXDX"
};
