/* XPM */
static char *qvhnc_t415s[] = {
/* columns rows colors chars-per-pixel */
"82 82 253 2 ",
"   c None",
".  c #000C0E",
"X  c #001214",
"o  c #00171A",
"O  c #000E10",
"+  c #00252A",
"@  c #003037",
"#  c #00193D",
"$  c #003B44",
"%  c #022859",
"&  c #00254E",
"*  c #022C68",
"=  c #013268",
"-  c #003878",
";  c #0E3574",
":  c #082351",
">  c #01434C",
",  c #084A54",
"<  c #0D4F68",
"1  c #2B4C71",
"2  c #006473",
"3  c #036978",
"4  c #0E6D76",
"5  c #2E5C69",
"6  c #5A7358",
"7  c #6F9E61",
"8  c #7A872C",
"9  c #A49C2B",
"0  c #D6B504",
"q  c #D7B61E",
"w  c #DAC80A",
"e  c #E4C804",
"r  c #EAD701",
"t  c #F6DA00",
"y  c #EFCB0A",
"u  c #F5E800",
"i  c #FAF700",
"p  c #EFE300",
"a  c #DECC2B",
"s  c #91B15A",
"d  c #D7B656",
"f  c #EBCB48",
"g  c #E8D46E",
"h  c #170F86",
"j  c #170F88",
"k  c #180F8C",
"l  c #161383",
"z  c #161B83",
"x  c #18118E",
"c  c #17178A",
"v  c #1C1393",
"b  c #1C1B94",
"n  c #201795",
"m  c #221A96",
"M  c #261E98",
"N  c #162383",
"B  c #152B83",
"V  c #17278B",
"C  c #003D82",
"Z  c #003A8A",
"A  c #153886",
"S  c #1A2795",
"D  c #143B98",
"F  c #2B239B",
"G  c #28279B",
"H  c #30279D",
"J  c #332B9E",
"K  c #2F369E",
"L  c #362EA0",
"P  c #2C37A5",
"I  c #3B33A2",
"U  c #3738A3",
"Y  c #252EA2",
"T  c #423BA5",
"R  c #00438B",
"E  c #05488B",
"W  c #154989",
"Q  c #15538B",
"!  c #165B89",
"~  c #004592",
"^  c #004A9C",
"/  c #024798",
"(  c #165696",
")  c #0C5197",
"_  c #2E5694",
"`  c #15678C",
"'  c #00798B",
"]  c #007485",
"[  c #16758C",
"{  c #156796",
"}  c #157B94",
"|  c #036F95",
" . c #327091",
".. c #014CA7",
"X. c #0155AA",
"o. c #0055B3",
"O. c #0258B9",
"+. c #1758A5",
"@. c #3A47A8",
"#. c #2856A9",
"$. c #3255AF",
"%. c #0367BA",
"&. c #0076B8",
"*. c #0E6BAA",
"=. c #326DB1",
"-. c #475692",
";. c #4543A9",
":. c #4B44AA",
">. c #494AAA",
",. c #524CAD",
"<. c #4856AC",
"1. c #5452AE",
"2. c #485BB5",
"3. c #5A57B2",
"4. c #625EB5",
"5. c #4967B6",
"6. c #5765B7",
"7. c #4676B7",
"8. c #5477B6",
"9. c #6668B9",
"0. c #6974BD",
"q. c #6E77BA",
"w. c #4F6F91",
"e. c #005CC3",
"r. c #005BCC",
"t. c #005CD6",
"y. c #0063CD",
"u. c #026AC8",
"i. c #0175C9",
"p. c #006BD5",
"a. c #0166D4",
"s. c #007CD9",
"d. c #0277D6",
"f. c #156FCB",
"g. c #3878C9",
"h. c #277CD5",
"j. c #2770CA",
"k. c #0070E5",
"l. c #4C73C4",
"z. c #737BC1",
"x. c #6B7EC0",
"c. c #00869A",
"v. c #15849B",
"b. c #168699",
"n. c #199D98",
"m. c #338796",
"M. c #078CA7",
"N. c #158BA3",
"B. c #1488A8",
"V. c #0195AB",
"C. c #0499AC",
"Z. c #1595A9",
"A. c #019DB4",
"S. c #0A99B5",
"D. c #1599B5",
"F. c #1187B6",
"G. c #3294B0",
"H. c #00A2BA",
"J. c #09A6B9",
"K. c #15A5BA",
"L. c #1CA0A0",
"P. c #25A3AC",
"I. c #4D9097",
"U. c #5983BA",
"Y. c #4E8DB6",
"T. c #6D93AD",
"R. c #55ADB7",
"E. c #6FABB4",
"W. c #64A395",
"Q. c #0084DA",
"!. c #008CDB",
"~. c #0385D5",
"^. c #0094DC",
"/. c #009CDD",
"(. c #0595D6",
"). c #108DD3",
"_. c #338CD1",
"`. c #04ABC3",
"'. c #15AAC2",
"]. c #05B7CB",
"[. c #16B6CA",
"{. c #04A6DE",
"}. c #05BBD4",
"|. c #17B6D7",
" X c #15A7D9",
".X c #2FAED3",
"XX c #0397E2",
"oX c #0A8DE7",
"OX c #2D9AE2",
"+X c #03AAE2",
"@X c #0CB4E1",
"#X c #08B8E3",
"$X c #15BAE3",
"%X c #0FADEC",
"&X c #2CB2E3",
"*X c #5488C6",
"=X c #4A98D8",
"-X c #5797D9",
";X c #4C8ECD",
":X c #7687C5",
">X c #7998CA",
",X c #6892C9",
"<X c #4AA6D8",
"1X c #51AECF",
"2X c #67B5D4",
"3X c #79B8D7",
"4X c #71A8D0",
"5X c #4F9AE2",
"6X c #57A5E6",
"7X c #4BB8E7",
"8X c #40A8E4",
"9X c #67A9E6",
"0X c #6AB6E9",
"qX c #76B9EA",
"wX c #76AFE9",
"eX c #0AC4D6",
"rX c #1AC6D8",
"tX c #1ACCD0",
"yX c #28CADB",
"uX c #31C7D4",
"iX c #08C4E3",
"pX c #17C7E5",
"aX c #1DD6E7",
"sX c #1EDBF2",
"dX c #25D8E6",
"fX c #34CEE5",
"gX c #2AEAE9",
"hX c #51C9D9",
"jX c #70CBDC",
"kX c #4AD8E5",
"lX c #59D7E7",
"zX c #4FC8E9",
"xX c #6BC6EC",
"cX c #79C8EB",
"vX c #67DBE7",
"bX c #77D8E7",
"nX c #6FD9F5",
"mX c #7AE1EB",
"MX c #6EE3EF",
"NX c #5BE1F2",
"BX c #8D9EB0",
"VX c #EFD990",
"CX c #F7E2B3",
"ZX c #86B5D5",
"AX c #83BAEA",
"SX c #ADBAC9",
"DX c #85C7EB",
"FX c #83DBE8",
"GX c #92CCF0",
"HX c #8AE5F2",
"JX c #ACE9F6",
"KX c #8DC8E4",
"LX c #F3E8C2",
/* pixels */
"                                                                                                                                                                    ",
"                                                                                                                                                                    ",
"                                                                                                                                                                    ",
"                                                                                                                                                                    ",
"                                                                   .m.I.G.R.P.G.L.m.b.4 5 ,                                                                         ",
"                                                          I.R.1XlXkXkXkXkXkXkXkXhXkXfXfXtXrX'.v.4 ,                                                                 ",
"                                                    I.2XlXvXlXvXlXhX1X1X1X1X1XY.<X.X1X.X.XuXfXyXtX].M.2 @                                                           ",
"                                                R.jXvXvXjXhX2X1X,XY.U.8.7.7.7.=.7.=.=.=.=.G.G.K..XrXtXiX].' >                                                       ",
"                                            E.vXMXbXjX2X,X,X*X8.8.6.6.<.<.<.>.>.@.@.@.@.@.#.#.#.=.*.'.[.rXeX].' $                                                   ",
"                                        T.jXnXbXjX2X,X,X8.0.6.3.1.<.>.>.;.;.@.U U U U U K K Y K +.P #.*.F.'.|.rX`.3                                                 ",
"                                      E.MXbXjX3X,XT.0.6.6.6.1.,.>.;.;.T T T T I U L L J H G G G M S S D ( *.F.K.rXeXc.>                                             ",
"                                  W.bXFXbXjX>XT.x.x.9.3.3.,.:.:.T T T I I I L J J J J H F F M M m m b S S K +.{ D.'.eX].2                                           ",
"                                E.bXFXjX4X:Xz.z.4.4.3.1.,.:.T T T I I L L L J J H H H F H F M n m n v b b V S D ( *.K.rX}.'                                         ",
"                              E.mXFXjXZX:Xz.x.9.4.3.,.,.:.T T I I J J H J H H F F G F G F M M M b v v v x c z V S ) { D.[.eXc.                                      ",
"                            E.HXFX3X>X:Xz.x.4.4.3.,.:.T T I T J 6.<X<X6.@.H G F F F F F F F M m m v v x x j c c N V A { B.'.}.c.                                    ",
"                          E.mXFXAX>X:Xz.9.4.4.3.,.,.T T T L 3.<XyXaXaXpX&X;X6.@.F M M F M M m n n v v x x x x c c z V A ( N.[.}.M.                                  ",
"                        E.FXFXAX>X:Xz.9.9.4.,.,.T T T I L 3. X'.aXiXiXiXiX$X$X&X;X5.J M M F m m n n v v x x k j j h h z A ( B.'.}.c.                                ",
"                      T.FXFXAX>Xz.z.9.4.3.,.,.T T T T L L *X| = ! ;X<XpXiX}.{.+X{. XOX_.l.U m m n v v v x x x k h h h j N A ( B.[.}.'                               ",
"                      bXHXZX4XBXz.9.9.4.3.,.T T I L L L L l.*.* - ;.P >.l.<X$X#X{.{.{./.).OX;X$.P m v v x x k k j h h ; l c A ( Z.[.}.2                             ",
"                    jXFXFXZXT.z.9.9.4.,.T T T T L L F M M l.X.C R U m v M L 2.l.<X&X{./.^.Q.^.)._.l.$.U x x x x j h h l l ; B A { D.].V.>                           ",
"                  T.HXbXAXBXz.z.4.4.,.,.T T T J L M M L m l.O./ ^ ;.v b n v n m K $.8.<X&X+X!.s.k.Q.).g.l.$.G x j j h h l ; h z W } '.}.M.                          ",
"                  bXFXKXBXz.z.9.4.3.,.T T T J H L M M M m l.%.X.X.;.n n n n v n n n b L 2.l.=X&XXXQ.d.p.k.f.g.l.U j h h h h l z B ( B.[.].3                         ",
"                E.bXAXZXz.z.9.4.3.,.T T T H H H M M M M m l.r.O.r.;.v n n v v v v P P G n n Y 2.*X=X.XoXd.a.a.r.j.I j j h h l z N A { D.].A.$                       ",
"                cXDXAXZXz.9.4.4.,.T T I H H F M M M m m m 6.r.a.a.;.m v n v n P 2.=X6X;Xl.Y Y n b G @.;X&XQ.a.a.r.2.j j h h l l z B Q v.K.].'                       ",
"              E.mXFX>X:Xz.4.4.3.,.T T J H F M M m m m m m 5.t.d.d.;.b n v H 2.;XOX0XGX0X6X-Xl.6.Y G v n @.&Xd.r.r.$.x x k j j h z z A { Z.].A.$                     ",
"              bXFX3X>Xq.9.4.3.T T T L H F M m n m m m m m 6.u.Q.Q.;.v G @.;XOX7XGXGXGXGXGXAX9X5X=Xl.2.I G ;X(.O.r.$.x x k k h h l z V Q } '.].'                     ",
"            W.mXDX4X:X0.4.4.,.T T L J H M M n n m m m m m 2.u././.;.Y l.&X&XcXGXGXcXDXqXAXAXAXAXwX5X_.g.5.*X(.o.o.$.n v k k j j l l N A { D.].V.@                   ",
"            3XFXjX>Xq.9.4.4.T T T J H M m n n n n m m m m <.&.{.+X*X<X&XxXGXcXcXcXqXqXqXqXwXqXwXwXAXZXwX*X).~.X...$.m n x k h j h c z B ( N.'.H.2                   ",
"            bXbX4XT.9.4.3.T T T J H F m m n n n n n m m m <.&.#XpX&XzXFXcXcXxXcXxX0X0X0XwXwX9XwX9XwX>X9XZX5Xi...X.( <.<.I b k j j l l V W { K.].c.o                 ",
"          T.mXjX>Xz.z.3.3.T T L H H F m n n n n v n n b m 5.(.dXlXnXcXxXxXxXxX0X0X0X0X0X9X9X9X9X-X9X9X,X4XOXi...^ =.=.- - 5.k k j h l N A { Z.].A.$                 ",
"          E.MXjX>Xx.3.3.,.T T T H M M n n v v v n n m H *XfXkXnXlXzXfX&X&X X XOXOXOXOX6X6X6X9X5X5X-X-X-X,X_.%.~ / ( W ~ %.h.x k j l l z B Q N.'.H.2                 ",
"          jXmX2Xx.x.3.,.T T T L F M m n v v n v v m 3.7XyXdXfXpXpX@X@X#X+X+XXXXXXX!.oXh.OX6X5X5X5X;X-X-X;X_.%.~ ~ ~ %.~.s.h.x k k j l l N W } K.H.c.o               ",
"        6 vXbX4X0.9.3.,.T T L H M M n n v v k n <.hXyXsXaXaXpXpX$X$X@X@X{.{././.^.Q.Q.Q.s._.=X5X5X5X;X;X;X_.o.Z C X.Q.Q.).j.v x k k h k h B { D.`.V.+               ",
"        I.vXjX,X0.9.1.:.T I J F M m n v v v :.1XuXtXaXsXdXaXpXpXpX$X@X+X{.{././.^.!.Q.Q.k.d.k._.h._._.g.l.%.X.C < X.OXwX6Xj.x x k h h ; N B ` Z.'.H.>               ",
"        I.nXjX,X0.3.1.:.T I J F F m n v n 7.gXn.4 [.gXgXdXaXpXpX$X$X@X@X+X/././.!.!.Q.Q.s.d.a.a.t.r.f.f.X.O.^ * * _ GXJXl.j.x x k h h h z B ` N.J.H.,               ",
"        R.MXjX,X8.3.,.T T I H F M M n n M hXgXtXn.n.L.P.aXsXsXaXiX$X@X@X{.+X/././.!.Q.s.s.d.p.a.r.r.e.e.u.i.R ) | _.GXZXl.f.x x k h h k z B Q N.'.H.3               ",
"        R.nX2X:X6.3.>.T I L J F m m n v F zXHXHXkXtX[.n.Z.Z.K.pXpXiX$X{.+X{./.^.^.Q.Q.Q.s.d.p.a.y.r.e.i.+X&.*.}.dXdX1XZX5Xj.k k k h h ; z V W v.J.H.] .             ",
"        R.MX2XU.9.1.>.T I J H F M m n v M hXJXJXJXmXNXtX'.Z.Z.Z.'. X$X#X+X+X/././.!.Q.Q.s.s.p.y.r.f.~./.+X_.~.#XpX|.Y.4Xg.j.x k k k h h l ; W v.K.H.' X             ",
"        R.vX2X*X3.1.:.T I J F M m n n v F hXJXJXJXJXJXMXNXfX XS.M.M.M.(.`.{.+XXXXXQ.Q.Q.d.p.y.a.~./.{.&X0X=Xp.!.d.%._.=.5.$.x k k h k ; z B W v.D.A.c.X             ",
"        R.lX2Xx.6.1.:.T I J F F M m n n F 7XnXzX&XzXzXvXDXnXlXkX|.).M.M.F.~.(.^.XX!.Q.i.i.u.d./.+X@X&XxXGX*X..u./ ~.XX7.=.e.x k k k h l l B W v.D.H.c.X             ",
"        R.vX2X8.6.,.;.T J J H F M M n n F .X$X#XiXeX#X#X+X7XxXcXxXfX&X/.F.&.&.i.~.~.i.&.d.~.+X@X|.7XDXDX4XY.W O.C )..X-X=.#.v x k k h h z N Q } D.A.c.o             ",
"        R.lX2XU.6.,.;.T I J H F M M n n M &XiXsXgXaXpX#X{././.OXcXGXcX7X%X%X~.M.&.| i.Q.XX@X$X&XxXGXqX4X4X9X=.Q +.g.;XY.Q #.v x k j h l z B Q v.S.A.c.o             ",
"        Y.lX2X*X2.1.:.T I J J H M M M F >.uXgXdXaXiXpX{.{.{.^.!.!.6XDXGXqX6XOXoX~.~./.@XpX$X&XcXDX3X,X1XOX_.#.( f.g. .-.Q #.x x k j l l z B Q b.S.H.' X             ",
"        I.lXhXY.6.,.;.I I J H F F M M 1.! 7 s 7 R.|.#X}.{./.!.s.s.d.oX0XAXDXAX9XOXQ.$XpX$XxXFXqX2X,X=X).%.- / r.O.= * +.) #.x x j h h z z A ! b.S.H.] .             ",
"        5 kXhX*X5.>.;.T L L H H M L -.# # 9 CXVXg s W.{.XX!.Q.s.p.p.d.).6X0XwXwXwXf.$XfXxXcXxXR.;XOXQ.X.R O.p.X.= - ..= : ( k k k j h l N A ` b.J.H.2 .             ",
"        5 kXhX1X6.2.T T L L H F F ,.: * , d CXCXCXVXf 7 ).oXs.d.a.y.O.p.d.6X6X9X9Xs.@XzXxX2X,X<XXXi.) / p.p.R = ^ ^ % % Z _ x k j j h l N A [ Z.H.H., .             ",
"          hXlX1X8.>.T T L L H H F -.% * 1 d VXVXg VXVXf 9 G.k.p.a.y.o.X.a.h.5X5X5Xd.+XhX2X;X<XoX&.E X.s.%.- - O.~ & - Z ; @.x k j j l z B W [ B.C.H.>               ",
"          G.kX1X7.<.;.T L L L H H _ * ; : 9 g VXg g g g f q m.k.e.O.X.....a.h.=Xl.d.{._.1X7X).*.^ p.k.O.- ~ O.- % R Z - <.F x k j h l z B Q v.S.C.V.@               ",
"          m.kXhXY.$.;.U I L J J F _ ; C C 9 f f q q a f a y a m.r.o.X.^ ) O.y.g.g.u.XX.X7X).X.%.d.d...- o.X.= = R Z W >.b x x k k l l N A ` b.S.H.c.o               ",
"          5 uXhX;X5.>.U U L J J F 3.Z R D 6 q 0 0 e e t r r r 9 o.o./ Z _ ) O.%.j.%.{.&X=.| &.s.u.R / O.~ = - / Z <.U b x x k k h h z N A [ N.C.H.2 .               ",
"            G.kX1X5.>.T I J J H F T ^ Z ..! 0 0 0 w y r p r t u 7 ..( { U._ ..o.*.O.(.*.&.d.Q.O.Z o.O.R - R / Z <.G k x x x k k h z ; B Q b.B.V.A.> X               ",
"            m.fXuXG.$.@.U L H H L M 5.D ....8 0 0 e r t p u u u e  .7.U.T.w.E ..X.X.!.i.s.d.X.^ O.O.Z < ^ D / <.G c k x k k j j h l c A ` b.D.H.c.+                 ",
"            , uXfXR.=.@.K L H H F F T O.o.O.+.9 y e e p u i i i u 9 =.T.T.T.; / ^ X.!.!.i.^ X.e.X.- C ..Z $.;.m v x x k k k j h l z B W } B.A.H.3 .                 ",
"              m.fX.X7.@.U K J F F F m 3.o.r.t.=.9 y r p u i i i u e _ T.BXBX1 Z ~ ^ Q.%.X.o.%.^ C / ....$.U x x x x x k k k j l l N A ` b.M.A.V.$ X                 ",
"              , yXuXG.=.@.K G G F m m m l.r.a.k.=.s 0 p p u i i p t 6 T.BXBX< R R ^ d.X.%.r...Z ..o...<.F v x x x x k k j l h l l B Q } B.C.H.' X                   ",
"                n.yXuX=.#.K G F M m m n M g.a.p.k.Q.7 q r t u t r e 9 w.SXBX% R R E d.p.e.~ Z o...$.<.n x x v k x k k j j h l z ; A ` b.M.A.A.> .                   ",
"                , .XyX.X#.@.S G M b n v m L h.d.Q.k.oXI.s a a r e e 8 T.BX1 ; C - R p.o.R ^ e...$.T v v v k k k k k k h h h ; h ; ! } B.C.H.' o                     ",
"                  4 rXuXG.#.Y S b b v v v v L g.).XXXXoX+X[.7 7 s W.4 -.1 % - - - R y./ O.O.e.2.L v x k v k k k k k h h h h l z W ` b.C.A.A.$ O                     ",
"                    Z.yX[.=.+.G S b x v x x x v g._.)./.+X%X%X%XiXiX+.; * - - = = - r.r.O.+.2.v v x v v k k k h h h h h j l N W ` b.M.M.A.3 X                       ",
"                    , eXyX'.+.D S b v x v x x x x L g. X%X+X|.@XpX=.U ;._ ; = * % ; e.O.*.>.n v x x v k k k h h h h h ; z ; A ! b.B.H.H.c.+ o                       ",
"                      3 eXtXD.#.D S b c x k k k x x x L 2.l.;Xl.T k v v v T _ ; : ; o.=.L v x x x x x x k k h h l l l l ; A ! } N.V.A.V.> .                         ",
"                        c.eX[.D.#.W S b c k k k k k x x x k k k v v k k k v h J :.B 2.m v x x x x x x x k h h h ; l z ; B Q } b.V.V.A.2 X                           ",
"                          c.eX[.F.+.D V V c c c j k k k k k x k x k k k k k h k x x x x x x k k k k k k h h h h h h B A ! } b.N.V.H.] o                             ",
"                            M.eX[.D.( ) V b c j j j k k k k k k k k k k k k k k x x x x x x k k k j j j h k ; k ; N ; ` } v.M.V.H.' + X                             ",
"                              c.eX[.D.{ ( S V z c l l x l h j j h j j j j j k k k k k k k k j k h h h h h h l N ; W ` } N.M.V.H.' + X                               ",
"                                c.}.rXK.} ( D B V z l l l h h h h h h h h j k k h h h k j h h l h l k ; ; h ; A Q [ b.B.V.A.H.' + X                                 ",
"                                  ' }.].K.B.{ W A V V z z l l l h h h h h h h k h h h h l l x l l l z N B A W ` } v.M.H.A.A.3 + X                                   ",
"                                    2 A.}.[.K.N.{ W A V N z z l h ; l l h h * k h h k ; l l z l ; c B A W ` [ b.N.V.M.H.C.2 o o                                     ",
"                                      > M.].].'.D.N.{ Q W A V N N N ; z z l z l ; h N z N N ; B A A ! ` [ b.N.B.C.A.H.c.> O                                         ",
"                                          3 A.].[.K.D.B.} ! Q W A A V N B B B B z c B B A A W Q ` [ b.b.N.D.A.C.H.V.3 + .                                           ",
"                                            $ ' A.].].'.K.Z.N.} [ { ( Q Q W Q W W _ Q ` ` [ } b.b.b.F.S.C.A.H.A.' $ X o                                             ",
"                                                > ] A.A.].`.'.K.Z.Z.Z.b.v.v.} v.b.} v.b.Z.b.Z.F.C.H.V.A.H.V.' > o O                                                 ",
"                                                    @ 2 c.A.H.`.H.`.J.'.J.K.D.D.D.D.S.S.A.A.A.A.H.H.A.c.2 $ X O                                                     ",
"                                                        o > 2 c.V.H.H.H.H.A.A.A.H.H.H.H.H.H.A.V.c.2 > + . X                                                         ",
"                                                              X + > , 2 ] ' ' c.c.c.c.3 2 < > + o . X                                                               ",
"                                                                        . X o o X . X . . .                                                                         ",
"                                                                                                                                                                    ",
"                                                                                                                                                                    ",
"                                                                                                                                                                    ",
"                                                                                                                                                                    ",
"                                                                                                                                                                    ",
"                                                                                                                                                                    "
};
