/* XPM */
static char *cc8h6_6dxoa[] = {
/* columns rows colors chars-per-pixel */
"82 82 148 2 ",
"   c None",
".  c #00BCBE",
"X  c #37E7BE",
"o  c #37EABE",
"O  c #3AEEBE",
"+  c #3CF3BE",
"@  c #3FF9BE",
"#  c #40F3BE",
"$  c #41FBBE",
"%  c #02BEC0",
"&  c #06BFE0",
"*  c #03C2C4",
"=  c #08C4C6",
"-  c #00C2CE",
";  c #0BC6C9",
":  c #01CACE",
">  c #0ECACC",
",  c #10CCCE",
"<  c #1CDCCC",
"1  c #00C5D5",
"2  c #01CDD3",
"3  c #08CCD2",
"4  c #06C2DE",
"5  c #03CBDD",
"6  c #0ACEDC",
"7  c #14CFD2",
"8  c #03D1D6",
"9  c #0BD4D7",
"0  c #05D4DD",
"q  c #0CD3DB",
"w  c #05D9DE",
"e  c #0CDADD",
"r  c #15D2D4",
"t  c #18D4D6",
"y  c #19DCD3",
"u  c #13D6DC",
"i  c #1BD6D9",
"p  c #12DCDF",
"a  c #1DD9DB",
"s  c #24DEC3",
"d  c #20DECE",
"f  c #2FDFCA",
"g  c #1CE0D3",
"h  c #1CE4DA",
"j  c #1BEBDD",
"k  c #2EEAC7",
"l  c #24E4CA",
"z  c #2AE3CA",
"x  c #2CE8CB",
"c  c #34EBC4",
"v  c #39EDC4",
"b  c #32E6CB",
"n  c #31EDC8",
"m  c #39EDCA",
"M  c #3AF1C1",
"N  c #3CF2CB",
"B  c #22E6D4",
"V  c #22EAD6",
"C  c #2AE9D5",
"Z  c #36E9D2",
"A  c #3BEED2",
"S  c #38ECD9",
"D  c #3DF2D4",
"F  c #3BF2DB",
"G  c #06C0E2",
"H  c #0AC4E5",
"J  c #01CDE3",
"K  c #0EC9E7",
"L  c #08C7E8",
"P  c #00CFEA",
"I  c #0DCBE9",
"U  c #12CDE6",
"Y  c #12CCE9",
"T  c #04D3E4",
"R  c #0BD3E5",
"E  c #05DAE3",
"W  c #0BDCE5",
"Q  c #01D2EC",
"!  c #0CD3EB",
"~  c #01DBED",
"^  c #0CDAEB",
"/  c #11D3E3",
"(  c #16DDE3",
")  c #19DEE4",
"_  c #14D3EB",
"`  c #19D5EC",
"'  c #13DBEB",
"]  c #1CDBEE",
"[  c #00D5F2",
"{  c #09D6F1",
"}  c #01DCF5",
"|  c #0BDCF3",
" . c #00D5F9",
".. c #00DCF9",
"X. c #11D7F0",
"o. c #13DDF2",
"O. c #20DFEF",
"+. c #05E3E6",
"@. c #0FE0E7",
"#. c #04E2EB",
"$. c #0DE4ED",
"%. c #05E8EE",
"&. c #08EDEF",
"*. c #13E3E5",
"=. c #1DE3E6",
"-. c #1EEBE0",
";. c #14E3EA",
":. c #1CE4ED",
">. c #11ECEB",
",. c #1DE8EE",
"<. c #01E3F6",
"1. c #0BE4F6",
"2. c #03EAF6",
"3. c #0BECF6",
"4. c #02E4F9",
"5. c #0BE5F8",
"6. c #04ECF9",
"7. c #0BEBF8",
"8. c #14E3F4",
"9. c #1BE5F4",
"0. c #14EAF5",
"q. c #1CE9F4",
"w. c #15E5F8",
"e. c #19E6F9",
"r. c #13ECF9",
"t. c #1DEBFA",
"y. c #0AF2F5",
"u. c #06F1F9",
"i. c #09F2F9",
"p. c #0AF8FB",
"a. c #14F0F7",
"s. c #14F2FA",
"d. c #1CF1FB",
"f. c #1DF9FD",
"g. c #21E0E6",
"h. c #22E5ED",
"j. c #20E9ED",
"k. c #3DF3E3",
"l. c #3EF6ED",
"z. c #21E5F1",
"x. c #22EAF0",
"c. c #2CEBF1",
"v. c #22EDFA",
"b. c #23F1FB",
"n. c #2AF4FC",
"m. c #24F8FD",
"M. c #2EF8FD",
"N. c #41F5EB",
/* pixels */
"                                                                                                                                                                    ",
"                                                                                                                                                                    ",
"                                                                                                                                                                    ",
"                                                                                                                                                                    ",
"                                                                  , , , , > > > ; ; ; = * *                                                                         ",
"                                                          r r u p *.*.;.;.;.*.;.*.@.@.W e 9 : * % %                                                                 ",
"                                                    r r *.*.:.;.:.;.;.' ' ' ' ' ' W W ' W W W W w 8 % . .                                                           ",
"                                                i ( :.,.:.:.;.] ' ` _ ' / _ _ R I _ / ! / R ! E E W E E : . .                                                       ",
"                                            i =.,.,.:.:.] ` ` ` ` _ _ _ Y Y Y Y Y Y K Y K K K I J R E E E w 2 . .                                                   ",
"                                        i =.:.x.:.] ] ` ' ` _ ` _ Y U U Y Y Y Y K K Y H H Y H H H H L J R E w 0 : .                                                 ",
"                                      a =.j.h.:.] ] ` ` _ _ ` Y Y Y Y Y Y H Y Y K K H H H H H H H H L G H 5 w w E 8 . .                                             ",
"                                  i =.h.,.9.] ] ] ` ` ` ` Y Y Y Y Y K Y Y Y H H K K K H Y H H H H G G G 5 H H J 0 E 0 : .                                           ",
"                                a j.j.h.O.O.] ` ` ` ` Y Y Y Y Y Y K K K K K H K H H K H H H H & G G G L G G G 5 H 0 w E 8 .                                         ",
"                              a h.z.h.9.O.] ` ` _ _ ` Y Y Y Y K K H K H H H K H H H H H H H H H H G G G G G 4 G 4 G 6 0 0 8 .                                       ",
"                            a j.z.z.O.O.` ` ` ` Y ` Y Y Y K K K ` 0.8.' Y K H H H H K H H H H & G H G G G G G G 4 4 4 5 0 0 2 .                                     ",
"                          a h.j.z.O.] ] ` ` ` Y ` Y Y Y K K _ 8.7.u.u.3.7.o.X.Y H H H H H H H H H G H G G G G 4 G 4 4 4 5 0 0 8 .                                   ",
"                        a j.x.z.O.] ] O.` ` Y Y Y Y Y Y Y ` 1.%.u.u.6.6.6.6.6.7.8.! Y H H H H H G H & & & & & & L & G 4 5 5 0 0 8 .                                 ",
"                      a j.j.O.O.O.` ` ` Y ` Y Y Y Y K & K ` ~ 1 T ' 0.6.2.6.4.4.2.5.1.| X.K H G H G & L & L & & & & G G & 4 5 0 0 8 .                               ",
"                      h.c.z.z.O.O.` ` ` Y Y Y Y Y H H Y H o.[ 1 5 I L _ X.8.5.6.<.<.<.<.4.| | _ I H & & & & & & & & G G 4 4 4 5 0 0 2 .                             ",
"                    a j.z.h.] O.` ` ` Y Y Y Y Y K Y H H H ` Q J J U L G H I X.o.8.3.4.<.<.<.} 1.| X.{ I & & H & & & G & 4 4 4 4 5 0 8 . .                           ",
"                  a j.x.O.O.O.` ` ` ` Y Y Y & Y H H H H H X.Q J J Y G H & H & & K ! o.8.5.4.4.} ....| | X.I K & & G & 4 4 4 & 4 5 0 w 2 .                           ",
"                  g.x.z.O.O.` ` ` ` Y Y Y Y Y & K H H H H X.~ P Q Y H G H & & L G G L K X.o.8.5.4...} [ } } | X.K & 4 & & & & 4 4 5 q 0 : .                         ",
"                a h.c.O.O.` ` ` Y ` Y Y Y Y & Y H H H H H X.[ P [ Y G G H & L G H K L H & H H X.o.8.1.<.} [ [ [ | K & & 4 & 4 & 4 4 5 0 0 . .                       ",
"                O.z.O.O.` O.` ` ` & Y Y & Y & & & H H H & X.[ [  .Y G H & H G H _ 8.8.8.X.I H & H H Y 8.7.} [  .[ _ 4 & & & 4 & 4 4 5 0 0 : .                       ",
"              i j.z.:.O.` ` ` Y ` & ` & Y & & & & & & & G X.[ } } Y G G H K _ o.w.t.v.t.w.9.o.` L H H & U 3.} [ [ I L & & & & & 4 4 4 6 0 0 . .                     ",
"              =.x.z.O.` ` ` ` Y & ` ` & & Y Y & Y & & Y H _ [ ....Y L H I o.5.r.b.v.v.v.v.v.e.o.o.o.Y K H 8.} Q Q { & & & & G G & & 4 5 0 0 : .                     ",
"            i j.z.O.] ` ` ` Y Y & ` & & & & & & & & & & H _ [ 4.<.Y L _ 5.7.d.b.v.v.v.v.v.v.v.v.t.e.o.| ' X.<.P P ! & & & G G G 4 4 4 4 0 0 0 . .                   ",
"            a j.z.O.O.` ` ` Y Y ` & ` & Y & & & Y & & Y & _ ~ 4.4.8.0.3.t.b.v.v.v.t.t.t.t.t.v.e.e.v.v.q.o.1.} Q Q _ H & L G G & G 4 4 4 5 0 0 . .                   ",
"            =.q.] ] ` ` _ Y Y K & & & & & & ` & & & I & & ` ~ 6.6.3.r.b.d.d.t.t.t.t.t.t.t.t.e.e.e.e.z.e.9.8.} Q Q T _ / K & & & 4 & 4 4 4 0 0 2 . .                 ",
"          i ,.h.] ] ` ` _ Y Y K ` & ` & ` & & & & & & & & X.<.p.s.d.d.d.d.t.d.t.r.t.t.t.e.e.e.e.e.e.9.e.9.8.} J J ! ' 5 J _ G & G & & 4 4 0 0 0 . .                 ",
"          a q.:.] ` ` ` Y Y Y K & & & & & & & & Y & & I o.r.s.s.d.a.7.7.3.6.5.5.5.5.5.w.e.e.w.e.e.e.o.9.9.| ~ J J Q J J [ | G G G G 4 G 5 5 0 0 . .                 ",
"          a ,.:.] ] ` Y Y Y Y H & ` & & & & & & & & O.e.r.p.i.7.6.6.2.6.<.<.<.<.} 1.....w.w.w.o.w.o.e.o.8.| Q J J J ~ } ....& G & 4 G 4 4 4 0 0 * . .               ",
"        r =.:.:.` ` ` Y Y Y Y Y H H H & G G G H ! 0.y.i.i.y.u.6.6.6.2.6.<.<.<.<.<.} } } } | w.w.o.w.o.w.8.| Q J 5 Q ..} ..| & & G & G 4 4 4 0 0 : . .               ",
"        r ,.:.] ` ` ` Y Y Y & & H H & & H G _ ;.&.y.i.i.i.u.u.6.6.6.2.2.2.<.<.<.4.} 4.} } ....| | | o.| o.Q P 5 5 T 5.t.e.| & G G G 4 & 4 4 0 0 2 % .               ",
"        r :.:.] ` ` ` Y Y & & Y H H G L G ' y.+.w &.p.p.p.u.u.u.6.6.2.2.<.2.<.<.<.} 4.} } ..[ [ [ { [ } Q Q J 5 1 R b.v.9. .L & & G & & 4 5 5 w 0 . .               ",
"        r >.:.] ` Y Y Y Y Y K Y H H H G H r.p.&.+.+.+.%.y.u.u.u.6.2.2.6.2.<.<.<.4.} } } } [ } [ [ [ [ P [ ~ J T ~ ^ n.c.X.{ & & & & 4 4 4 4 6 0 0 . .               ",
"        r ,.:.` ` ` Y Y Y & H & & & & L H a.m.m.s.y.%.+.+.+.%.7.6.6.2.2.2.4.<.<.} ..<.} } } } [ [ [ [ } <.~ T 2.u.u.q.z.o.{ G G G G & & 4 4 6 w 0 . . .             ",
"        r 9.] ] ` Y Y Y Y H Y & H H & & H a.M.M.M.m.s.2.2.#.E #.%.2.2.6.4.<.<.<.<.<.} } } ..[ [ [ [ } <.6.^ } 6.7.6.;.9.o.{ G G G G 4 & 4 4 4 0 0 . . .             ",
"        t :.] ` ` Y Y Y H Y H H & L & I H r.M.M.M.n.M.f.f.7.2.#.#.E +.<.<.4.6.<.<.} } } } [ [ [ } <.4.6.t.8.} <.} ~ | ^ _ { & G G & & 4 4 4 5 w 5 . . .             ",
"        t 9.o.` ` Y Y Y Y Y H H I & & & H r.d.a.3.r.r.d.d.b.s.s.6.#.~ ~ #.~ <.<.4.4.} } [ [ } <.4.2.7.t.b.o.P [ J } 4.' ^ P L G G G & 4 4 4 J 0 0 . . .             ",
"        r ,.' ' _ Y Y Y K K H H & I & & Y 5.7.6.6.6.6.2.2.3.t.t.t.r.6.5.} ~ ~ #.} } ~ ~ } } <.2.6.r.b.v.x.' J Q J <.1.8.^ Q & & H & & 4 G 4 6 0 0 . . .             ",
"        r :.:.` ` _ Y Y K K Y H & & & I & w.u.u.i.y.6.6.2.<.<.3.d.b.t.r.5.4.} ~ ~ ~ } } 4.6.6.7.t.b.x.9.9.9.' J Q o.8.' R R H & & G & & 4 4 5 0 0 . . .             ",
"        r ;.' ` Y Y Y Y K H H H Y Y & & _ 3.i.p.6.6.6.2.<.<.<.} } r.v.b.v.w.5.4.<.} <.<.6.6.r.d.v.q.9.9.w.} R T ! ^ R / J ! & & G G & & 4 4 0 0 5 . . .             ",
"        > *.=.' _ U Y Y Y H Y & & & & ` T y C -.>.6.6.6.<.<.<.} } } ..t.v.v.v.e.1.} 6.6.7.r.d.t.9.:.8...~ 5 J [ Q 5 5 T Q ! & & & & 4 & 4 4 5 w 0 . . .             ",
"        > *.;.' _ Y Y Y K K K H H H U 1 - z N.k.S C *.<.4.<.} ..} [ } } w.t.e.v.v.} 2.7.d.d.t.;.8.1.} Q J [ [ P 5 5 T 5 1 R G G & G & 4 4 5 0 0 2 . . .             ",
"        > ( ;.' _ Y Y Y K K H K H U 1 1 > Z l.l.l.k.N B <...} [ [ [ [ [ } e.e.w.w.{ 2.a.s.q.9.8.4.} J J [ [ J 5 J J 1 1 5 K G G & 4 G 4 4 H 0 0 : . . .             ",
"          r ;.' Y Y Y Y K H H H H / 1 5 3 Z l.k.k.k.k.D x ^ ..} [ [ Q Q [ | w.w.8.} 4.r.q.9.8.4.Q J Q } Q 5 5 Q J 1 5 J 5 ! G G G G 4 4 4 5 0 0 * . .               ",
"          , ;.' ` Y Y H Y Y H Y H / 1 5 5 b F S F F D D N n W  .[ [ P J P [ | o.o.[ <.8.8.r.<.T T [ ..Q 5 J Q 5 1 5 G 5 _ H G & & G 4 4 4 5 0 0 . . .               ",
"          > *.;._ _ Y K K Y H H K / 5 5 5 z A m m m N N N M c W [ Q P J J Q [ | | [ <.8.0.<.T Q } [ T J Q P 1 5 J 5 J Y H G & G G 4 4 4 4 0 0 8 . . .               ",
"          ; e ;._ R U Y K H Y H H _ G T J r v X X O O + M + + k P Q J J ! T Q [ ^ ~ <.5.^ Q ~ ..} J J Q P 1 J J 5 ! K L & & G G G G 4 4 5 0 0 2 . . .               ",
"            > *.' _ Y K K K H H H Y L J P 0 X X o o O + + + @ + y Q T R ' / J Q ~ Q 4.~ ~ } } Q J Q Q J 5 J J J _ H G G & & L & 4 4 4 4 5 0 6 . . . .               ",
"            ; @.@.W I Y K K H K H H _ J Q Q d O o o + + + @ @ @ M R ' ' :.) J P P Q } ~ } } Q J Q Q 5 5 J J J _ G & G G & & & & G 4 4 4 0 w 5 . . .                 ",
"            * 9 *.' R K K H H H H H Y P P Q ! z + O + + @ @ $ @ $ l ! :.h.=.6 J J Q } ..} J T [ P 5 J J P ! Y L & G G & L & & & 4 4 4 5 0 0 : . . .                 ",
"              ; W ^ / Y K K H K H H H X.Q [ [ ^ z O M + @ @ $ $ $ O u :.g.h.6 J J J } ~ Q Q [ J 5 J P P _ H G G G G G G & & & & 4 4 5 q 9 5 . . . .                 ",
"              = 9 @./ ! K K K H H H H H X.[  . .^ B O # + @ @ $ + # y ' h.h.5 5 J J } Q [ Q P J Q P P _ H G G G G G G G G G G G 4 4 5 0 0 2 . . .                   ",
"                = W ^ R K K H H H H & H H X.[  ...} h c + # + # + # s ( c.g.1 J 5 J } } Q J J P P R _ & G G G G L & G & G G G G 4 5 0 w 5 . . . .                   ",
"                * 8 W ' R H H H H H G G G K | ..} ..4.;.V n M v O v d ) h.q 4 5 5 5 [ Q J P [ P { Y & & H G G G & & G & 4 & 4 4 4 0 0 T : . . .                     ",
"                  * w W R K H H G L L G H G I | } <...4.4.$.j j V j w u 6 1 5 5 5 J [ J Q Q Q _ I & & & & G & G & & G G & 4 & 5 5 0 0 2 . . . .                     ",
"                    * W E R 0 G G G G G & L & & _ 5.<.<.<.6.4.6.6.6.Q 5 1 1 5 5 1 J  .[ [ Q _ & & & L & & & & G & G G G 4 4 4 5 0 w 5 . . . .                       ",
"                    . 8 W E T L G L G G G & & & G K ! 1.6.4.5.6.6.' H Y ! 5 5 1 1 5 P Q ! I H & & & & G G & G & & & G G 4 4 4 5 0 0 : . . . .                       ",
"                      % 0 E T J H 4 G G G G G G G G G I { X.o.o.Y & G G & Y K 5 & G [ !  .& & & & L & & & 4 & & 4 & 4 4 4 4 0 0 0 2 . . . .                         ",
"                        . 0 w R J H H 4 G G & G G & G & L & & & L G G & & G 4 K ` { _ L & & & & & & & & & & & 4 & & 4 4 5 0 0 0 2 . . . .                           ",
"                          . 8 +.0 J H G G G G G & G G & & & & L & & G G G G & G & & & & & & & L & & & & & 4 4 & 4 4 4 5 5 0 0 2 . . . .                             ",
"                            . 8 E T 0 J G G G G G G G G & & & & & & G & G G & G & & & & & & & & & & L & & & 4 4 4 4 5 6 w 0 2 . . . . .                             ",
"                              . 8 E 0 J 6 4 4 G 4 G G 4 & 4 & & 4 & & G G G G G G G G G G & G & G G 4 4 4 & 4 4 4 5 0 0 0 2 . . . . .                               ",
"                                . 8 E w w H G 4 4 4 4 4 & G G & & & & G 4 & & & G & G & G & 4 & 4 & 4 4 4 4 4 5 0 0 0 0 2 % . . . .                                 ",
"                                  . : 0 E 0 5 5 4 G 4 4 & 4 G 4 & 4 & & & 4 & & 4 & 4 & & & 4 4 4 4 4 4 4 4 6 0 0 0 2 : . . . . .                                   ",
"                                    . . 2 w w 0 0 5 4 4 4 4 4 & 4 & & 4 & & & 4 & & 4 & 4 & 4 4 4 4 4 4 5 0 0 0 0 1 % . . . . .                                     ",
"                                      . . : 0 0 0 0 5 5 4 5 4 4 4 4 4 4 4 4 & 4 4 & G 4 4 4 H 4 4 5 5 0 0 0 0 5 : . . . . .                                         ",
"                                          . . 2 0 0 w 0 q 5 5 5 4 4 4 5 4 4 4 4 4 4 5 4 4 5 5 6 0 0 0 0 0 0 : . . . . . .                                           ",
"                                            . . . : 0 0 0 9 w 0 0 0 0 5 5 6 5 5 6 5 5 6 0 0 0 w 0 0 0 0 : . . . . . . .                                             ",
"                                                . . . . 2 5 0 0 0 0 0 0 0 0 0 0 0 0 w w 0 w 0 5 0 : . . . . . . . .                                                 ",
"                                                    . . . . . * : 2 5 0 0 0 0 0 0 0 5 2 2 : : . . . . . . . . .                                                     ",
"                                                        . . . . . . . . . . . . . . . . . . . . . . . . . .                                                         ",
"                                                              . . . . . . . . . . . . . . . . . . . .                                                               ",
"                                                                        . . . . . . . . . .                                                                         ",
"                                                                                                                                                                    ",
"                                                                                                                                                                    ",
"                                                                                                                                                                    ",
"                                                                                                                                                                    ",
"                                                                                                                                                                    ",
"                                                                                                                                                                    "
};
