/* XPM */
static char *pp0oe_yfy6r[] = {
/* columns rows colors chars-per-pixel */
"62 62 206 2 ",
"   c None",
".  c #00C12D",
"X  c #03C333",
"o  c #02C43B",
"O  c #0BC03D",
"+  c #00F325",
"@  c #00F32C",
"#  c #00F433",
"$  c #0BF434",
"%  c #00F43C",
"&  c #11F43D",
"*  c #12BF44",
"=  c #31BC65",
"-  c #3CBC6C",
";  c #3ABD71",
":  c #36AE70",
">  c #48A378",
",  c #46B878",
"<  c #56A97D",
"1  c #02C643",
"2  c #0CC441",
"3  c #00CA4D",
"4  c #13C344",
"5  c #1BC24D",
"6  c #00C952",
"7  c #00CD5B",
"8  c #19C754",
"9  c #20C24B",
"0  c #22C252",
"q  c #27C45B",
"w  c #39C15F",
"e  c #35C25C",
"r  c #00F544",
"t  c #01F64B",
"y  c #0AF64E",
"u  c #0DF446",
"i  c #10F64D",
"p  c #1DF445",
"a  c #01F553",
"s  c #0CF651",
"d  c #01F65B",
"f  c #0AF55B",
"g  c #13F753",
"h  c #1BF756",
"j  c #1DF856",
"k  c #1EF75A",
"l  c #14F75B",
"z  c #20F857",
"x  c #22F75A",
"c  c #24F85B",
"v  c #2AF85F",
"b  c #2FF65C",
"n  c #2CF652",
"m  c #02CE61",
"M  c #05CF67",
"N  c #18CE69",
"B  c #00D16D",
"V  c #08D065",
"C  c #1FD06F",
"Z  c #02D373",
"A  c #00D378",
"S  c #0FD271",
"D  c #12D272",
"F  c #1BD57D",
"G  c #2EC668",
"H  c #37C866",
"J  c #38C970",
"K  c #39D37B",
"L  c #2DD177",
"P  c #01F664",
"I  c #00F66B",
"U  c #00F96D",
"Y  c #04F867",
"T  c #1BF866",
"R  c #00F974",
"E  c #00F97B",
"W  c #00F779",
"Q  c #15FB7F",
"!  c #2DF863",
"~  c #25F96A",
"^  c #28F866",
"/  c #34F965",
"(  c #34F86A",
")  c #3BF96B",
"_  c #35F661",
"`  c #3BF973",
"'  c #38F976",
"]  c #41C566",
"[  c #45C46B",
"{  c #4BC474",
"}  c #52C473",
"|  c #5AC87C",
" . c #47D07C",
".. c #63C47F",
"X. c #41FA6E",
"o. c #45F76F",
"O. c #44FA72",
"+. c #4BFA75",
"@. c #4DFB7A",
"#. c #43F97C",
"$. c #54FB7C",
"%. c #58FB7F",
"&. c #4EBF82",
"*. c #5ABA83",
"=. c #55A782",
"-. c #66A38A",
";. c #07D886",
":. c #01D98B",
">. c #06D784",
",. c #00DB93",
"<. c #00DE9D",
"1. c #1ED780",
"2. c #00F983",
"3. c #09FB84",
"4. c #00F98B",
"5. c #1BFB82",
"6. c #00F994",
"7. c #00FA9C",
"8. c #00F797",
"9. c #24FB83",
"0. c #2EFC86",
"q. c #34FC8C",
"w. c #3BFD93",
"e. c #3CFC9C",
"r. c #00DEA0",
"t. c #00E0A4",
"y. c #00E1AB",
"u. c #00F6A1",
"i. c #00F9A5",
"p. c #02F1AC",
"a. c #00FAAB",
"s. c #0FF2AA",
"d. c #14F3A9",
"f. c #1BF1AC",
"g. c #00E3B4",
"h. c #00ECB4",
"j. c #00E5BD",
"k. c #08E7BA",
"l. c #01EBBC",
"z. c #0CE9B9",
"x. c #13EBB5",
"c. c #1CEAB2",
"v. c #00F3B4",
"b. c #00F6BC",
"n. c #00F9B7",
"m. c #35F3AE",
"M. c #3BF8A9",
"N. c #21ECB1",
"B. c #30EEB1",
"V. c #3BEFB0",
"C. c #37F0B1",
"Z. c #57D385",
"A. c #4CD683",
"S. c #6CD692",
"D. c #47FB86",
"F. c #54FB83",
"G. c #5CFC83",
"H. c #5CFB8A",
"J. c #53FB8A",
"K. c #47FD99",
"L. c #57FD96",
"P. c #61FC86",
"I. c #65FC8A",
"U. c #6BFD8D",
"Y. c #66FD93",
"T. c #6DFD91",
"R. c #68FD99",
"E. c #73FE94",
"W. c #78FE97",
"Q. c #74FE9A",
"!. c #7BFE9B",
"~. c #48FBA8",
"^. c #59FDA8",
"/. c #5AFAB3",
"(. c #6DFFA2",
"). c #67FFA7",
"_. c #70FDA1",
"`. c #6AFEB3",
"'. c #72FFB2",
"]. c #00E7C1",
"[. c #00EBC2",
"{. c #00F4C1",
"}. c #81FF9F",
"|. c #85FEA2",
" X c #8AFFA6",
".X c #8EFEA9",
"XX c #93FEAC",
"oX c #9CFDB2",
"OX c #A4FDB9",
"+X c #A7FCBA",
"@X c #AEFDC1",
"#X c #B3FDC4",
"$X c #BBFECB",
"%X c #C0FDCF",
"&X c #CDFDD9",
"*X c #C8FED4",
"=X c #D3FEDE",
"-X c #D7FEE1",
";X c #DDFEE5",
":X c #E5FEEB",
">X c #E9FEEE",
",X c #E0FEE7",
"<X c #ECFEF1",
"1X c #F2FFF5",
"2X c #F7FFF9",
"3X c #FFFFFF",
/* pixels */
"                                                                                                                            ",
"                                                                                                                            ",
"                                                                                                                            ",
"                                                                                                                            ",
"                                                [ J C D D S N N G ]                                                         ",
"                                          K ;.t.g.j.j.].[.[.].j.j.t.,.Z q                                                   ",
"                                     .;.t.j.].k.z.f.f.f.d.d.p.p.h.h.[.[.j.,.V ]                                             ",
"                                Z.;.g.].k.N.m.M.e.w.q.0.9.9.Q E 2.4.6.u.h.l.j.<.V [                                         ",
"                              F y.[.x.C.~.L.K.D.q.#.' ' ~ ~ T T Y P P U E 6.p.j.j.:.8                                       ",
"                            ,.].k.C./.L.L.J.F.@.+.O.` ) ( / ^ k l d d a d d U 4.p.[.y.7 }                                   ",
"                         .r.].c./.).R.L.H.H.%.%.@.+.O.) ) / ! x k g a t t t a d R 6.k.j.V H                                 ",
"                      A.r.].B.`.(.R.Y.I.I.P.P.%.$.@.+.X.) / / v x h s t t r r t t d 2.h.].Z H                               ",
"                    Z.t.].V.'.(.R.T.T.T.U.I.P.%.%.$.$.+.O.) ) / v k g y r r r % r r d E p.].Z H                             ",
"                    <.].V.'.(.Q.Q.W.E.E.U.U.U.P.P.%.%.+.+.X.) / ! x h g a t r r % # # r R v.j.m ..                          ",
"                  ,.j.B.'._.Q.!.W.!.W.Q.W.E.U.U.P.P.%.%.+.O.) ) / ! x h y t r # # b E. X~ E h.g.3                           ",
"                1.j.c.`._.Q.Q.!.|.!.|.!.!.W.W.U.U.P.%.%.$.+.o.) / _ c k y r g I.&X3X3X3X;Xf 4.[.<.4                         ",
"              S.y.k./.(.Q.Q.!.}.|.|.|.|.}.!.W.W.U.I.P.%.$.+.+.X.) / v g x Q.:X3X3X3X3X3X=Xu d u.[.B }                       ",
"              ;.].m.`.R.E.Q.!.}.|. X X X|.|.!.W.E.U.I.P.%.$.+.o.) / x P.-X3X3X3X3X3X3X&Xp # r W v.g.1                       ",
"            Z.k.z.`.R.Y.E.Q.!.|. X.XXX.X X|.}.!.E.U.U.P.%.$.+.+.) / OX3X3X3X3X3X3X3X#X& + + % d 6.[.A [                     ",
"            ;.].m.^.Y.T.T.W.!.|. XXXXXXX.X X|.!.W.T.U.P.G.%.$.X.+.&X3X3X3X3X3X3X3X.X# @ # + # r R n.y.2                     ",
"            t.k.^.L.P.U.T.E.W.}.|. XXXXX.X X|.!.W.T.U.I.G.%.+.%.;X3X3X3X3X3X3X1XH.# % # @ + @ # d 7.].m *.                  ",
"          K ].N.^.J.H.I.U.E.W.!.|. X X.X X X|.!.!.E.U.I.P.$.G.,X3X3X3X3X3X3X:X' # r % # # @ + # t 2.{.,.0                   ",
"          ;.[.m.K.F.G.P.I.T.E.W.W.}.|.|.|.|.}.!.W.T.U.I.G.%.=X3X3X3X3X3X3X,X! r r r % % # @ + @ % U v.g.1                   ",
"          r.k.~.J.F.G.G.P.U.U.U.E.Q.}.}.}.}.!.W.W.T.U.P.%.#X3X3X3X3X3X3X1XO.y t t r % # @ + + @ % P u.l.6 <                 ",
"        | g.x.K.D.+.F.G.G.G.E.OXOX XE.W.!.Q.W.W.E.U.U.%.}.3X3X3X3X3X3X3X!.i g y t r % % # @ + + # a 6.[.B -                 ",
"        K j.x.e.D.@.+.@.$..X:X3X3X2X%X}.U.W.E.E.U.U.I.P.,X3X3X3X3X3X3X=Xx h g y t r % # # + + + # t 4.{.A q                 ",
"        C j.f.w.' +.O.$.$X3X3X3X3X3X3X>XXXI.T.U.U.I.%.XX3X3X3X3X3X3X3X}.h x g t t r % % # + + + # t E b.,.*                 ",
"        D j.f.q.' ) $.-X3X3X3X3X3X3X3X3X2XoXG.I.I.P.%.,X3X3X3X3X3X3X>X/ x h g y r r % % # @ + + @ r E b.<.4                 ",
"        D ].f.0.( ` &X3X3X3X3X3X3X3X3X3X3X3XoX%.G.%.W.3X3X3X3X3X3X3X+Xx c j g t t r % # # + + + @ r E b.<.O                 ",
"        D [.f.9.~ F.3X3X3X3X3X3X3X3X3X3X3X3X3XOX$.+.+X3X3X3X3X3X3X3XE.h x l s t r r % % # @ + + @ r E b.<.O                 ",
"        N [.d.5.~ ( -X3X3X3X3X3X3X3X3X3X3X3X3X3X+X+.=X3X3X3X3X3X3X3X@.k j g y t r % % # # + + + # r E b.,.*                 ",
"        C ].p.5.T ^ ) OX2X3X3X3X3X3X3X3X3X3X3X3X3X-X1X3X3X3X3X3X3X1X) j h g t t r r % # @ + + + # t 2.{.:.4                 ",
"        J j.v.3.T T k j H.,X3X3X3X3X3X3X3X3X3X3X3X3X3X3X3X3X3X3X3X<X_ h g s t t r % % # @ + + + # t 4.{.A q                 ",
"        } r.l.4.Y l k x j / #X3X3X3X3X3X3X3X3X3X3X3X3X3X3X3X3X3X3X<X! g s t t r % % # # @ + + @ % d 7.[.7 ;                 ",
"          ,.[.8.Y f g h k x j E.>X3X3X3X3X3X3X3X3X3X3X3X3X3X3X3X3X<X! s y t r r % % # @ + + + @ % P a.l.1 =.                ",
"          Z ].u.R d a s g h x h ) %X3X3X3X3X3X3X3X3X3X3X3X3X3X3X3X2X! t t t r % % % # @ + + + @ r E n.t.X                   ",
"          G g.v.2.d a t y g g k h h .X3X3X3X3X3X3X3X3X3X3X3X3X3X3X2X^ r r r r % % # # # + + @ # d 4.{.A 0                   ",
"            ,.[.6.P a t t t y g g g i H.<X3X3X3X3X3X3X3X3X3X3X3X3X2X^ r r r % % # # @ + + + @ % I a.j.1 *.                  ",
"            V l.p.R d t r t t t s s s u ` :X3X3X3X3X3X3X3X3X3X3X3X1Xk r r r # % # @ + + + + # a 4.b.,.o                     ",
"            } <.[.4.d t t r r t t t t y t ( >X3X3X3X3X3X3X3X3X3X3X<Xg % % % % # # + + + + # % I a.j.6 J                     ",
"              V j.p.R a r r % r r r r t t r #.3X3X3X3X3X3X3X3X3X3X-Xr % % % # # @ + + + @ % a 6.{.,.X                       ",
"              | :.[.8.P t r % % r r r r r r %  X3X3X3X3X3X3X3X3X3X+X# % # # @ @ + + + @ # r E v.g.1 {                       ",
"                8 y.b.2.d r r % % % % r % r % i >X3X3X3X3X3X3X3X3Xo.@ # # @ + + + + @ # r U i.{.Z 4                         ",
"                  7 j.h.E a r % % # # # # % % # |.3X3X3X3X3X3X1XXX# # # @ + + + + @ # r I 7.{.,.. -.                        ",
"                  ..B j.p.E a % # # # # # # # # _ 3X3X3X3X2X+Xp + # @ + + + + + @ % r I 8.{.r.X &.                          ",
"                    ] Z [.v.E d r # # # # @ # @ $ oX,X;X+Xn + + + + + + + + @ # % r U 7.{.r.o G                             ",
"                      H Z j.v.4.P r # # @ @ @ @ + + $ $ + + + + + + + + + # # % a E a.{.<.o G                               ",
"                        e m g.[.7.W d r % # @ @ + + + + + + + + + @ @ # # % a I 4.v.[.:.X G                                 ",
"                          } 3 <.[.v.6.R d t r # # # # # @ @ @ # # % % r a I 4.i.{.h.Z X ,                                   ",
"                              4 B g.[.v.7.2.U P a t r r r r r t a d P E 6.a.{.l.,.3 O >                                     ",
"                                , 1 A h.[.b.v.u.6.4.E E E E E 2.4.7.p.n.{.l.,.6 O ;                                         ",
"                                    w O m ,.g.l.[.{.{.b.b.b.b.{.[.{.l.t.A 1 o G                                             ",
"                                        , 9 o 6 B >.:.<.<.<.,.:.A 7 o o * &.                                                ",
"                                              > = 0 * O O O 2 4 * = >                                                       ",
"                                                                                                                            ",
"                                                                                                                            ",
"                                                                                                                            ",
"                                                                                                                            ",
"                                                                                                                            ",
"                                                                                                                            ",
"                                                                                                                            ",
"                                                                                                                            "
};
