/* XPM */
static char *x8gm2_gcurv[] = {
/* columns rows colors chars-per-pixel */
"82 82 238 2 ",
"   c None",
".  c #000000",
"X  c #0C0C0C",
"o  c #171717",
"O  c #00151D",
"+  c #001D26",
"@  c #01212B",
"#  c #022C3D",
"$  c #002435",
"%  c #01353A",
"&  c #17353D",
"*  c #2C2B2B",
"=  c #272424",
"-  c #312C2D",
";  c #322F30",
":  c #343333",
">  c #3C3B3C",
",  c #201E1F",
"<  c #073344",
"1  c #023B44",
"2  c #03364A",
"3  c #043A4D",
"4  c #0A3A4C",
"5  c #093547",
"6  c #1B3746",
"7  c #093D53",
"8  c #053D54",
"9  c #193754",
"0  c #223B47",
"q  c #253E50",
"w  c #16157F",
"e  c #161B7E",
"r  c #15237D",
"t  c #152B7C",
"y  c #15347D",
"u  c #153C7C",
"i  c #403F40",
"p  c #02444A",
"a  c #0A445C",
"s  c #064557",
"d  c #174658",
"f  c #0D535B",
"g  c #284957",
"h  c #24414E",
"j  c #0A4A64",
"k  c #0B4D6A",
"l  c #054663",
"z  c #0A526C",
"x  c #095768",
"c  c #15447C",
"v  c #154A7C",
"b  c #114F76",
"n  c #0C5472",
"m  c #0D5A77",
"M  c #15537B",
"N  c #155B7A",
"B  c #105776",
"V  c #184F67",
"C  c #2A5565",
"Z  c #285568",
"A  c #365A69",
"S  c #295C74",
"D  c #324E6F",
"F  c #15647A",
"G  c #15687B",
"H  c #1C6B76",
"J  c #0B6271",
"K  c #2D647C",
"L  c #296179",
"P  c #3C6474",
"I  c #2F6970",
"U  c #4A4849",
"Y  c #595959",
"T  c #434C52",
"R  c #4A6D7C",
"E  c #446978",
"W  c #4E6D77",
"Q  c #696969",
"!  c #747475",
"~  c #6A7278",
"^  c #43567A",
"/  c #170F86",
"(  c #170F88",
")  c #180F8C",
"_  c #161282",
"`  c #191485",
"'  c #161A82",
"]  c #171288",
"[  c #19118D",
"{  c #181C8B",
"}  c #1C1393",
"|  c #1C1A93",
" . c #201795",
".. c #231A96",
"X. c #261E98",
"o. c #281F98",
"O. c #21188E",
"+. c #172786",
"@. c #173687",
"#. c #1B2792",
"$. c #1A3692",
"%. c #2A2296",
"&. c #2B239A",
"*. c #282799",
"=. c #30279D",
"-. c #332B9E",
";. c #29399A",
":. c #37359D",
">. c #362EA0",
",. c #3B33A2",
"<. c #3C3AA3",
"1. c #3732A0",
"2. c #423BA6",
"3. c #174686",
"4. c #1A518C",
"5. c #315194",
"6. c #166985",
"7. c #187689",
"8. c #1B7593",
"9. c #146A8C",
"0. c #2A6D89",
"q. c #317191",
"w. c #3954A2",
"e. c #3B43A2",
"r. c #3B77A3",
"t. c #494A9B",
"y. c #4C569A",
"u. c #4A538C",
"i. c #4C7282",
"p. c #447987",
"a. c #537583",
"s. c #557C8B",
"d. c #5B7C8B",
"f. c #597887",
"g. c #497C96",
"h. c #556B93",
"j. c #627B8B",
"k. c #4442A5",
"l. c #4741A8",
"z. c #4B44AA",
"x. c #4D4AAB",
"c. c #4948A6",
"v. c #524CAD",
"b. c #4858A7",
"n. c #5552AE",
"m. c #565AAA",
"M. c #5A55B1",
"N. c #5D5AB2",
"B. c #625EB5",
"V. c #5668AA",
"C. c #5C6AB2",
"Z. c #4B73AB",
"A. c #6563B6",
"S. c #6C6AB9",
"D. c #6569B5",
"F. c #6875B7",
"G. c #7273BC",
"H. c #747ABD",
"J. c #6D6EB5",
"K. c #7A7FC0",
"L. c #34889B",
"P. c #288698",
"I. c #388CA2",
"U. c #1C8196",
"Y. c #5D828E",
"T. c #4D869B",
"R. c #5A8496",
"E. c #4A8F96",
"W. c #63818E",
"Q. c #678489",
"!. c #648593",
"~. c #6C8C9A",
"^. c #688997",
"/. c #728D98",
"(. c #6A939A",
"). c #71919D",
"_. c #78979D",
"`. c #4986A5",
"'. c #558AA6",
"]. c #4A99A9",
"[. c #5898A9",
"{. c #5A95B1",
"}. c #5E88B4",
"|. c #6695AA",
" X c #7595A2",
".X c #7C9AA6",
"XX c #799AA7",
"oX c #6789B7",
"OX c #7786BC",
"+X c #6B9AB5",
"@X c #7499B9",
"#X c #6C8DA8",
"$X c #5DA5B2",
"%X c #7AA5AC",
"&X c #67ABB7",
"*X c #7BA6B9",
"=X c #77A7B8",
"-X c #77AFB5",
";X c #32BBEE",
":X c #7B89C1",
">X c #7D99C2",
",X c #7CA8C1",
"<X c #7BB6C3",
"1X c #5AB4D6",
"2X c #7FC6E2",
"3X c #8C9092",
"4X c #849EA9",
"5X c #8E9BAF",
"6X c #85A2AE",
"7X c #83ACBD",
"8X c #8BA8B5",
"9X c #93ADB8",
"0X c #9AB3BD",
"qX c #95B0BC",
"wX c #92AAB0",
"eX c #A6B4BA",
"rX c #B3B4B6",
"tX c #8499C4",
"yX c #83A7C4",
"uX c #85B5C5",
"iX c #99B7C4",
"pX c #9AA7C3",
"aX c #A4BBC5",
"sX c #A5BAC8",
"dX c #A0ABC6",
"fX c #ACC3CC",
"gX c #BAC1C5",
"hX c #B5CAD3",
"jX c #BDD3DB",
"kX c #A4D1E3",
"lX c #C6C7C9",
"zX c #DCDCDD",
"xX c #D4D5D7",
"cX c #C7CFD3",
"vX c #E6E6E7",
"bX c #F7F7F8",
"nX c #F0EFEF",
"mX c #DCDFE1",
/* pixels */
"                                                                                                                                                                    ",
"                                                                                                                                                                    ",
"                                                                                                                                                                    ",
"                                                                                                                                                                    ",
"                                                                  > q i i > : : ; * = , o o                                                                         ",
"                                                          U U W Y.Y.[.].].].].].].I.L.P.H H & O X X                                                                 ",
"                                                    Y Y ^.[.$X$X[.].{.`.`.`.Z.Z.Z.r.r.L.L.L.P.P.G f . . .                                                           ",
"                                                Q Y.$X&X&X+X{.}.Z.C.V.V.b.b.b.b.w.w.w.w.w.5.w.8.8.P.U.7.p . .                                                       ",
"                                            Q (.&X&X+XoX}.F.C.C.C.m.b.x.x.x.k.l.e.<.<.<.;.;.e.;.e.4.9.8.7.7.p . .                                                   ",
"                                        Q (.=X&X>X:XoXF.C.C.M.n.n.x.x.z.2.2.e.<.<.,.1.-.-.-.*.#.#.#.$.3.4.9.7.J % .                                                 ",
"                                      ~ %X<X,X>XoXF.D.C.M.M.v.v.v.2.l.<.,.2.,.>.1.-.-.-.=.*.*.X.#.| | #.$.3.4.9.7.f . .                                             ",
"                                  Q _.-X-X@XOXF.S.S.A.M.n.v.v.z.2.2.<.<.,.,.,.>.-.-.-.=.=.X.X.X...| | { { #.@.3.6.6.x p .                                           ",
"                                Q %X<X,X:XK.S.K.S.N.N.n.v.z.2.2.2.,.>.>.>.>.>.>.-.=.=.=.&.&.X..... .} } ] { { +.@.v 6.6.s .                                         ",
"                              ! -X<XyX:XF.K.S.B.N.M.n.x.z.2.2.,.,.>.>.>.&.>.&.>.*.=.&.=.&.X.X... . .} } [ [ ] ' ' @.c N G f .                                       ",
"                            ! %X,X>XK.K.F.S.B.B.M.v.z.2.2.,.1.>.>.>.&.&.&.&.&.&.&.&.&.&.&.&.X...} } } } [ [ ] ` ' ' r u N G s .                                     ",
"                          ! -XuX>X:XK.K.S.A.N.M.v.v.2.2.,.>.>.>.o.o.X.X.X.X.&.X.X.X.X.&.X.X.X.| | } } } ) ) ] ] ` _ e r u N G s .                                   ",
"                        ! -XyX>X:XH.S.S.B.B.v.v.z.2.2.,.>.>.=.&.o.o.x.G.tXsXsXaXpX.XD.t.-..... . .} } } ) ) ) ) ( / w w e y n F s .                                 ",
"                      ! %XuXtXtXK.G.S.B.B.v.v.2.2.<.,.>.=.=.&.&.N.dXjXhXhXfXgXfXsXeXeX9X4Xh.t. . . .} } } ) ) ) / / w w w r y N G p .                               ",
"                      %XuXyX:XK.G.S.B.B.v.v.2.2.,.,.>.=.=.&.k.pXcXjXhXhXhXsXfXaXaXiX0X9XwX4Xj.h.1...} } } ) ) ) ( / / w w e r u N G p .                             ",
"                    ! -XuXtX:XG.S.A.B.v.v.2.2.2.1.-.=.=.&.N.hXjXjXhXhXhXhXgXsXiXeX0X9XwX5X4X4Xf.D e. .} ) } ) ) ( ( / / w w e t c F x . .                           ",
"                  ~ 6XuXtXK.K.K.B.B.M.v.2.2.,.-.=.=.&.X.D.fXhXhXhXhXfXfXsXaXaXeXqX9XwX8X4X.X X XR g t.} ) ) ) ) ( ( / / w w w w t M G s .                           ",
"                  _.uXyXtXK.B.B.B.v.v.2.2.,.-.=.=.&.X.A.fXfXfXfXfXfXfXfXaXaXiX0X9X8X8X4X4X X).~.!.A 0 y.} } } ) ) ( / / w w w w e u N F % .                         ",
"                ! -XtX:XK.K.S.B.M.v.2.2.>.>.=.&.X.X.k.qXiXiXsXsXfXaXfXiXiX0XqXwX8X6X4X.X X).^.!.W.a.0 q ,.) ) ) ) ) ( ( / w w w e t c G x . .                       ",
"                XXuXtXK.K.B.B.B.M.2.2.,.>.=.&.o.X.X.5X9X0XiXiXiX0XiX0X0X0X9X8X8X6X4X.X X).~.^.!.d.Y.A & ^  .} } ) ) ( / / / / / w e y N G 1 .                       ",
"              Q -XyX:XK.S.S.M.v.2.2.2.>.>.X.X.X...N.6X8X8X8X8XqXqXqX9X8X8X8X6X6X4X.X X X~.^.^.Y.d.j.W 0 & t.O.[ ) ) ) ) ) ) ( ( w w r c G n . .                     ",
"              _.uX,X:XG.S.B.M.v.2.2.>.>.o.o.X. .X.OXXX.X%X6X%X.X%X%X8X8X8X6X6X4X.X X X).~.^.!.j.d.f.a.h & D ..[ ) } } ) ) ) ( ( _ w r y N F % .                     ",
"            Q -X,X:XG.S.B.M.v.z.2.>.>.o.o..... .k.(.s.R.R.R.#XXXXXXX|.%X6X6X.XXX X X X~.^.!.j.d.f.f.a.A : 6 :.O.} } ) ) ) ( ( ( _ _ _ t v G z . .                   ",
"            ~ <X>X:XG.A.B.n.z.2.>.>.=.o..... . .b.P _.eXeXwX).d.~.XX#X XXX4X.X X X).~./.!.!.!.d.f.a.a.A 0 6 :.} } } } } ) ( ( ( ] _ _ r u F N . .                   ",
"            %X-X>XF.S.B.M.v.2.2.>.>.X.X..... . .h.mXnXvXzXxXvXxXR.s.~.(.^. X X X).).^.!.!.!.d.f.a.a.i.A 0 6 D  .} } } } ) ) ) ) / / _ e y M F 1 . .                 ",
"          Q &X,X:XF.A.N.v.z.2.,.>.&.X.....} } t.gXbXnXmXxXlXlXzXbXXXp.(.R.^.).#X~.~.!.!.d.d.d.a.a.R R P 0 0 9 } } } } } ) } ) ) ( / _ ' r v G x . .                 ",
"          Q -X@XF.S.A.M.v.2.2.>.&.o.X...} } } V.zXnXbXvXzXlXlXrXxXbX Xi.Y.Y.R./.^.!.!.!.d.d.f.a.R R R A 0 0 t ..}  .} } } ) ) ) / ` _ w r u F B . .                 ",
"          Q.<XOXF.A.N.v.z.2.,.>.&.o.....} } } h.vXmXrXwXlXzXlXlXlXmXbXs.p.s.s.!.!.!.Y.d.d.f.a.a.R R W A q 0 9 X. . .} } } } } ) ) / / ' ' y N F @ . .               ",
"        T (.,XOXK.B.M.v.<.,.>.=.X.X. .} } } } d.mXY = * i 3XcXlXgXlXnXmXP a.p.s.!.Y.d.f.f.a.a.R R E P A h 6 9  . . . .} } } ) ) ) ( / _ e t N F 1 . .               ",
"        Y |.&XoXB.N.M.z.2.,.-.=.X.X. . .} } } j.rX= - : = 0.uXcXgXgXlXbX4XP i.R f.d.f.a.a.a.R E E E P C h $ D  ... . . .} } } ) ( ( / _ e r v F a . .               ",
"        Y &X=XF.B.N.v.z.2.,.-.=.X.X. .} } } } y.3X= ; : - L ;XhXlXlXrXzXvXS P P R s.a.a.i.R E E E ^ A C C A m. ....... .} } ) ) ( ( / / w r v F z . .               ",
"        Y &X+XF.C.n.v.z.<.,.=.&.X...} } } } } t.3X- ; : - g ;XkXxXlXlXlXbX~.I P P i.i.R R E E P E A A A W W z.X. ... . .} } } ) ( / / w w r c F n . .               ",
"        Y &X+XF.B.M.x.e.,.>.=.=.X. . .} } } } &.j.i - - : - q.;XjXxXlXlXbXaXZ A A S R R R j.d.i.A A E f.W h.&. . ... . .} ) ) ) ) / / / w r u F B . . .             ",
"        Y 1XoXF.N.n.z.<.,.-.=.X.X... .} } } } } V.Q * - : - : 8.1XzXxXxXzXeXV A Z C A R /.4X4X3XQ.j.^.R C y... ... . .} } } } ) ) / / _ w r u N N . . .             ",
"        Y &XoXC.N.v.z.2.,.>.=.X.X. . .} } } } } :.j.i - - : - = T zXvXzXzXeXV C C C A Q./././././.Q.R C u.o... ..... . .} ) } ) ) ) / _ w e u F N . . .             ",
"        Y 1XoXC.N.v.z.2.>.=.=.&.X... . . .} }  .O.m.! : - - : - U vXnXvXvXwXd C V A R f.!.W.j.j.f.W C Z 2.....o.X.X. .} } } } ) ) / / _ w r u N N . . .             ",
"        Y &X{.C.n.v.e.<.,.>.=.X.X... . . .}  . .| ..h.! > * - , ! nXnXnXnX5Xd d C P P P a.a.W W P C d v. .X.X.&.X.X... . .} } } ) / / _ _ r u F N . . .             ",
"        U &X{.C.n.v.x.<.,.>.=.&.X.X.X. . . . . ...} >.h.3XY U Y lXzXmXnXvXW.s g C g C C W E E A d s m.} %.&.&.%.X.X.X. . .} } } ) ) / ` w r c F n . . .             ",
"        U $X}.C.n.v.z.2.,.>.=.=.&.X..... . . . ...} } =.h.5XrXlXcXlXxXvXeXd a d d d d d C C d 7 d c. .&.&.&.&.&.X.X.X...} } } ) ) ) _ _ _ r c G n . . .             ",
"        i ].{.C.M.z.z.<.,.>.=.&.&.X.X. .X. .X. ...} .. ...y.j.5XrXlXrX_.g 4 4 9 4 4 5 1 4 5 5 k k.} X.&.&.&.&.&.X.X.X...} } } } ) / / _ e r v G k . . .             ",
"        > E.$XZ.N.w.2.<.>.>.=.&.&.X.X.X. . .X. ... .} }  .o.y.q.i.P d 8 4 4 4 4 5 4 4 4 3 a z m N y.k.*.%.%.&.&.X.X... .} } } } ) / / _ e t M F a . . .             ",
"        : p.$XZ.b.x.z.,.,.=.=.=.&.X.X.X.X... .X... .} ..b.@X7X*X|.0.@ # 8 4 3 3 5 % < + 8 m n n z k n y.=. .&.&.&.X.X... .} } } ) / / _ e y N F 1 . . .             ",
"          Y [.`.b.v.2.<.,.=.=.=.=.&.X.X.X. .X. ...| *.oXiXuX7X=X+XT.# $ 3 l s 2 # @ + O l m z z z z z l 5.t...=.&.X.X... . .} } [ ` _ _ e u F N @ . .               ",
"          q ].'.b.x.z.,.,.>.=.=.=.&.X.X.X.X.X. ...:.@XiXiX7X*X+X{.`.3 + 2 l s 2 # @ O + z k k j j j k j s M 2.X.&.&.X... .} } } ] ` _ ' r c F b . . .               ",
"          : ].].Z.c.e.<.,.>.>.>.=.&.X.X.X.X.....>.,XsXuX7X*X=X|.'.`.F 2 2 l s 2 < @ @ 7 k j j j j j j j j 8 5.&.&.&.o... . .O.[ ` ` ` ` t M F k . . .               ",
"          = I ].Z.b.l.2.,.>.>.&.&.&.&.X.X. .....:XuXiXuX*X=X|.[.+X7X|.g.m m n z j j k j j j j j a a a a 7 j j c.o.o.%..... .O.O.O.` e r u N F 1 . . .               ",
"            : ].`.b.e.<.>.>.>.&.=.&.X.X.X... .,.iXuX,X,X=X=X7X7XiX%X'.'.z n z n k j j j a a j 7 a a s a j a 8 y. .o.o.....O.O.[ { ` ' r c F M . . . .               ",
"            * L.I.w.w.<.>.>.>.&.&.&.X... . . .v.*X,X*X*X*X9X7X7X*Xg.+Xg.n z k j j j a j a 7 7 7 7 7 7 s 8 7 2 y. .o.o.....O.O.O.` _ e t M H j . . .                 ",
"            o A I.r.w.<.>.-.=.*.&.&...X... . .n.*X*X7X*X*X*X*X*XT.g.XXq.S V k j l j a 7 7 7 7 7 7 7 7 4 7 7 < y. .%.%...O.O.O.` ' _ r c F N % . . .                 ",
"              * I.I.w.;.1.-.=.=.&.X.X..... . .z.*X*X@X=XXX+X@XT.0.|.'.K 0.S j l a 7 a 7 7 7 7 4 4 5 4 4 4 2 d :.o.%.%.%.%.O.` _ _ e y M G k . . . .                 ",
"              o I I.r.w.;.=.*.=.&.X... . . .} X.@X+XXX#X[.|.`.0.r. Xg.K K K Z l a 7 7 7 4 4 5 5 2 < 5 5 < $ y.o.%.%.o.O.[ ` _ _ _ r u F N < . . .                   ",
"                , 7.P.w.e.=.*.*.X..... . .} } } m.[.{.[.'.T.q.0.R.~.0.K K K S V 7 7 7 7 4 5 5 < < < < < $ 5.=.%.%.%.O.] ` ` _ _ e y N F k . . . .                   ",
"                o f L.r.5.-.*.X.| ..| }  .} } }  .V.`.'.T.q.q.q.R.T.K K K S S A d 8 4 4 < < 5 < # < # $ ^ -.=.%.O.O./ / / _ _ e t v F N % . . .                     ",
"                  o H L.9.;.*.#.| | } } } } } ) } } b.g.q.0.q.g.R.q.K K S A A S Z 7 4 < < < # # $ + 9 u.%.%.%.[ / / / / / _ w r u N F s . . . .                     ",
"                    o 7.8.w.$.| | | } [ } } } } ) } } =.r.0.q.g.s.0.K K S S S C C d 2 < < # $ + 0 u.,.o.o.[ ) ( / / / _ _ w r y B G k . . . .                       ",
"                    X f P.8.4.#.{ } } [ } ) ) ) ) ) } ) } &.V.h.p.0.S S S S S Z C d # # $ 9 D t.:. . . .) ] ( / ` / _ w e r t M F 4.p . . . .                       ",
"                      X m U.9.3.+.{ | [ [ [ ) ) } ) } } ) [ } } =.;.e.5.u.D D P u.u.u.t.t.,.o.} } } ) ) ( ( ( / / w w w e y v F N p . . . .                         ",
"                        X x 8.9.$.#.{ { ] [ ) ) ) ) ) ) } ) [ [ [ [ ) ) ] [ ) ) ) } ) ) ) ) } } ) ) ) ) / / / / w w w e t v F N s . . . .                           ",
"                          . n 8.9.$.+.{ ] ] / ( ) ) ) ) ) ) ) ) ] ) ) ) ) } ) ) } ) ) } } ) ) ) ) ) ) ) / / / w w w r y v F N p . . . .                             ",
"                            . x 7.9.3.+.+.' ] ( ( ( ) ) ) ) ) ) ) ) ) ) ) ) ) ) ) ) ) ) ) ) ) ) ) ) / / / / w w e e y M F N 7 . . . . .                             ",
"                              . f 7.9.3.y +.' _ _ _ _ ] ( / ( ( / / / ( ( ( ) ) ) ) ) ) ) ( ( / / / ] _ w w w e t u M F M p . . . . .                               ",
"                                . s 7.6.4.@.t +.' _ _ _ / / / / / / / / ( ( / / / / ) / / / ( ] / ] _ w w e r y v N G N p . . . . .                                 ",
"                                  . p x 6.F v @.+.' e _ _ w _ / / / / _ / / / / / / / / _ / ] _ w _ e e r t c N F N j 1 . . . . .                                   ",
"                                    . . f 6.G N v y t r e w w w w w w w / w / w / w / / _ _ w ' e e r t c M N F M s . . . . . .                                     ",
"                                      . . % x G G N v @.t r r e e e w w w w w _ w w ' w e e r r t u c M F F M j % . . . . .                                         ",
"                                          . . p m F G F B v u y t t r r r e r r e w r t t y y v M N F G B n 1 . . . . . .                                           ",
"                                            . . . % x F G G F N M b c c u u u u u u c v M N N F G N M k % . . . . . . .                                             ",
"                                                . . . . 1 j n F F F F F F F F N F F G G G F N M k 1 . . . . . . . .                                                 ",
"                                                    . . . . . + 1 s j n B N N N B B n j 8 1 @ . . . . . . . . .                                                     ",
"                                                        . . . . . . . . . . . . . . . . . . . . . . . . . .                                                         ",
"                                                              . . . . . . . . . . . . . . . . . . . .                                                               ",
"                                                                        . . . . . . . . . .                                                                         ",
"                                                                                                                                                                    ",
"                                                                                                                                                                    ",
"                                                                                                                                                                    ",
"                                                                                                                                                                    ",
"                                                                                                                                                                    ",
"                                                                                                                                                                    "
};
