/* XPM */
static char *at67p_pqrxz[] = {
/* columns rows colors chars-per-pixel */
"62 62 188 2 ",
"   c None",
".  c #BE1215",
"X  c #BF1619",
"o  c #BD1B1E",
"O  c #BD1F22",
"+  c #BD2225",
"@  c #BD2529",
"#  c #BD2C32",
"$  c #BC343C",
"%  c #BC3639",
"&  c #C0171A",
"*  c #F40202",
"=  c #F50B01",
"-  c #F30B0C",
";  c #F61302",
":  c #F61807",
">  c #F6140B",
",  c #F61A0B",
"<  c #F30E10",
"1  c #F31114",
"2  c #F61D12",
"3  c #F3171A",
"4  c #F41A1C",
"5  c #F62115",
"6  c #F7241B",
"7  c #F6291E",
"8  c #F8241D",
"9  c #F31E22",
"0  c #C02226",
"q  c #C1272A",
"w  c #C23437",
"e  c #F42326",
"r  c #F72B23",
"t  c #F82C25",
"y  c #F32429",
"u  c #F4292D",
"i  c #F82F28",
"p  c #F7322B",
"a  c #F8322C",
"s  c #F73024",
"d  c #F32D34",
"f  c #F53432",
"g  c #F93631",
"h  c #F93A35",
"j  c #F3333B",
"k  c #F93E39",
"l  c #F73C36",
"z  c #F7413C",
"x  c #F9423D",
"c  c #F84639",
"v  c #BD3C43",
"b  c #BB3F48",
"n  c #F43A42",
"m  c #B9484C",
"M  c #BC4751",
"N  c #BC4E57",
"B  c #B55255",
"V  c #BC525C",
"C  c #B9575B",
"Z  c #BC5562",
"A  c #BD5A65",
"S  c #B85C66",
"D  c #9C6367",
"F  c #997175",
"G  c #B7666B",
"H  c #BD6D7D",
"J  c #BC6372",
"K  c #B57174",
"L  c #A66E72",
"P  c #C14446",
"I  c #C1444B",
"U  c #C44B4D",
"Y  c #C24D52",
"T  c #C24F59",
"R  c #C45054",
"E  c #C3535A",
"W  c #C45D5F",
"Q  c #FA4542",
"!  c #FA4946",
"~  c #F4434D",
"^  c #FA4D4A",
"/  c #F74541",
"(  c #FB514E",
")  c #F34752",
"_  c #F54A55",
"`  c #FB5552",
"'  c #FB5955",
"]  c #FC5C5A",
"[  c #F6535B",
"{  c #FC605E",
"}  c #C65E63",
"|  c #F55663",
" . c #F65865",
".. c #FB5F61",
"X. c #F65D6B",
"o. c #C76569",
"O. c #C26674",
"+. c #CE6D71",
"@. c #C16A78",
"#. c #CF7376",
"$. c #FC6463",
"%. c #FD6966",
"&. c #FD6C6B",
"*. c #FD716E",
"=. c #F66472",
"-. c #F66C7C",
";. c #F86E72",
":. c #FE7473",
">. c #FE7976",
",. c #FD7679",
"<. c #FE7C7B",
"1. c #F57277",
"2. c #FF807F",
"3. c #9D7F83",
"4. c #BE7384",
"5. c #BF7A8C",
"6. c #BC7E91",
"7. c #C07C8E",
"8. c #C07181",
"9. c #D27F81",
"0. c #C07D90",
"q. c #EC7F89",
"w. c #F47283",
"e. c #F57B8D",
"r. c #FC7E82",
"t. c #F17E91",
"y. c #BD8295",
"u. c #BC8A9E",
"i. c #BC8CA1",
"p. c #BD91A6",
"a. c #BC95AB",
"s. c #BB98AF",
"d. c #BD9DB5",
"f. c #BDA2BA",
"g. c #C18194",
"h. c #FF8483",
"j. c #FD878A",
"k. c #FE8C8B",
"l. c #FD8886",
"z. c #E58596",
"x. c #EA8995",
"c. c #E28B9C",
"v. c #EC8E99",
"b. c #E88895",
"n. c #F4899E",
"m. c #F78795",
"M. c #E5929E",
"N. c #FB9494",
"B. c #FC969C",
"V. c #FF999C",
"C. c #F9989A",
"Z. c #FB928E",
"A. c #FDA29F",
"S. c #CA96AC",
"D. c #CC98AE",
"F. c #C395AB",
"G. c #DB92A2",
"H. c #D496A9",
"J. c #C29DB5",
"K. c #C99DB4",
"L. c #D29DB4",
"P. c #DD9EB6",
"I. c #D98FA2",
"U. c #E18EA3",
"Y. c #E391A3",
"T. c #E594AA",
"R. c #EB93A9",
"E. c #F294AA",
"W. c #E59EB6",
"Q. c #E99BB2",
"!. c #C4A1B9",
"~. c #CCA1B9",
"^. c #D4A1B9",
"/. c #DEA1B9",
"(. c #FEA4A2",
"). c #FEACAB",
"_. c #FCACA7",
"`. c #E0A1B9",
"'. c #FEB8B6",
"]. c #FFC0BF",
"[. c #FDC4C3",
"{. c #FECBCB",
"}. c #FEDCDC",
"|. c #FED5D4",
" X c #FEE5E5",
".X c #FFECEB",
"XX c #FFF3F3",
"oX c #FFFFFF",
/* pixels */
"                                                                                                                            ",
"                                                                                                                            ",
"                                                                                                                            ",
"                                                                                                                            ",
"                                                E E T T E T Y I U Y                                                         ",
"                                          } O.6.a.d.f.f.f.f.f.d.s.u.4.E P                                                   ",
"                                    o.O.i.d.f.K.H.G.c.b.x.x.z.c.I.S.K.f.a.4.M Y                                             ",
"                                +.@.a.f.K.G.v.j.r.:.&.$...[ ] ] ..$.1.q.I.~.d.6.I E                                         ",
"                              o.p.J.D.Y.N.r.:.&.{ ' ( ^ ^ / / k k k k c ` =.z.J.d.4.w                                       ",
"                            8.d.K.Y.N.h.:.%.$.] ' ( ^ ! / k l f a i t t r l / =.c.K.i.v o.                                  ",
"                        o.g.f.H.B.k.<.;.&.$.{ ] ' ( ^ ! Q k l f a t 7 6 5 5 7 d ) w.L.s.V m                                 ",
"                      +.u.d.G.B.j.,.:.*.&.%.$.{ ] ` ( ( ! Q k h a i r 6 5 , , 3 9 n =.G.J.Z P                               ",
"                    +.i.d.M.V.h.<.,.>.*.&.&.%.$.] ] ' ( ^ ! x k g a t 8 6 , : > < 4 j  .U.J.Z U                             ",
"                    y.d.Y.V.l.<.<.<.>.>.:.*.&.%.$.] ] ' ^ ^ ! k k a a r 6 2 : ; - - 3 d  .T.d.M o.                          ",
"                  4.d.G.V.l.r.2.<.<.<.<.>.>.:.*.&.$.] ] ` ^ ^ x x h a t 2 , > ; = = - 3 d X.H.a.%                           ",
"                o.d.H.B.l.h.2.h.l.h.h.h.<.>.*.&.&.%.$.] ' ` ^ ! x h i t ^ ' t ; ; * - - 3 j -.L.6.@                         ",
"              #.p.F.B.k.2.<.2.h.l.l.l.h.h.V.{.).*.&.$.$.] ` ( ^ k l %.[.oXoX|.7 ; = * * < 9 n t.!.V W                       ",
"              @.f.M.N.<.<.<.h.h.j.k.l.(. XoXoXoX].%.%.$.] ' ( Q >.{.oXoXoXoXXXt ; = = * - 1 y | T.p.@                       ",
"            #.s.D.B.<.,.>.<.h.l.k.k.[.oXoXoXoXoXoX).$.%.{ ] ^ 2.oXoXoXoXoXoXA.> : = = * * - 3 n w.~.A N                     ",
"            O.f.M.j.:.:.>.<.<.l.l.).oXoXoXoXoXoXoXXXh.$.$.' %.XXoXoXoXoXoXXXl , : ; = * * * < y | T.F.0                     ",
"            i.D.N.,.*.*.:.>.<.h.h.{.oXoXoXoXoXoXoXoX}.&.{ ' |.oXoXoXoXoXoXh.2 5 , ; = * * * - 3 n e.~.M K                   ",
"          o.d.G.r.*.%.&.*.>.<.2.2.'.oXoXoXoXoXoXoXoXoX'.` (.oXoXoXoXoXoX[.r r 6 2 : = = * * * < u =.P.4.w                   ",
"          @.f.n.,.$.$.%.&.:.>.<.h.h.}.oXoXoXoXoXoXoXoXoX[.XXoXoXoXoXoX.X/ t t 6 2 : ; * * * * - 9 _ R.i.0                   ",
"          y.D.m.&.$...$.%.&.:.>.<.<.h..XoXoXoXoXoXoXoXoXoXoXoXoXoXoXoX>.t p t 6 2 : ; * * * * - 4 n m.K.$ L                 ",
"        +.p.S.h.$.] ] ] $.&.&.:.>.<.>.Z.XXoXoXoXoXoXoXoXoXoXoXoXoXoX[.a g a t 8 2 : ; = * * * * 3 j w.^.V B                 ",
"        o.d.G.,.] ' ' ] ] $.%.&.*.:.>.*.k.XXoXoXoXoXoXoXoXoXoXoXoXXX] g g a t 8 2 : ; * * * * - < d =.P.J v                 ",
"        E f.c.*.' ( ( ' ] ..$.%.&.&.*.:.&.k.XXoXoXoXoXoXoXoXoXoXoX[.h h g a r 8 2 , ; = * * * * < y X.W.4.@                 ",
"        E f.b.%.` ^ ^ ` ' ] { $.$.&.&.*.&.%.l.oXoXoXoXoXoXoXoXoXoX(.a k g a r 8 5 > ; * * * * * - y  .W.5.O                 ",
"        E f.x.$.^ ! ^ ^ ( ' ' ] { $.$.%.%.%.{ V.oXoXoXoXoXoXoXoXoX.X` g a a r 6 , : ; = * * * * - e | Q.6.o                 ",
"        T f.x.X.! Q Q ! ^ ( ` ' ] ] { { $.$.{ ' [.oXoXoXoXoXoXoXoXoX[.a a t 7 5 2 : ; * * * * * - e | Q.7.o                 ",
"        Y f.x...Q k x x ! ^ ( ( ` ' ] ] ] ] ] ` <.oXoXoXoXoXoXoXoXoXoXZ.8 t 7 5 , ; = * * * * * < u X.Q.8.O                 ",
"        I d.c...Q k h x x Q ! ( ( ( ` ` ' ' ' ^ ).oXoXoXoXoXoXoXoXoXoXXX] 2 6 5 , ; = = * * * * < u =.`.H @                 ",
"        Y s.G.$./ g g l k x Q ! ! ^ ( ( ( ( ^ $.XXoXoXoXoXoXoXoXoXoXoXoX}.p 2 2 ; ; = * * * * * < d w.P.A v                 ",
"        } u.D.%./ f a a f h k x Q Q ! ! ^ ^ Q [.oXoXoXoXoXoXoXoXoXoXoXoXoX'.> : ; = = * * * * - 1 n e.L.b S                 ",
"          4.K.1./ a i i a g h h k x x Q x h Z.oXoXoXoXoXoXoXoXoXoXoXoXoXoXoX>.= ; = * * * * * - 9 ~ n.D.+ F                 ",
"          E f.q.! a t t t i a g h h k k g &.XXoXoXoXoXoX.X|.oXoXoXoXoXoXoXoXXXc * = * * * * * < y | Q.6.X                   ",
"          Y s.I.' p 7 7 7 r t i a g g i ' XXoXoXoXoXoXoX( t [.oXoXoXoXoXoXoXoX|.- * * * * * - 1 j w.W.A w                   ",
"            5.K.;.l 7 5 6 6 8 r t i r ^  XoXoXoXoXoXoXl.r 7 z XXoXoXoXoXoXoXoXoXC.* * * * * < 9 ) n.K.# K                   ",
"            I J.z.! 7 5 2 2 5 6 8 6 l  XoXoXoXoXoX}.{ 6 t t 2 <.oXoXoXoXoXoXoXoXoX! * * * - 1 d =.W.8.&                     ",
"            W 0.!.=.f 5 , , , 2 5 2 p  XoXoXoX XZ.t 5 e 8 8 6 , '.oXoXoXoXoXoXoXoXN.* * * < 9 ) n.L.v C                     ",
"              P s.c.) e , > : : : 2 > a N.A.*.s : 5 6 6 6 5 2 ; c oXoXoXoXoXoXoXoXf * * < 3 j -.W.4..                       ",
"              o.H !.w.n 4 > = ; ; ; : ; ; ; ; , 2 5 , 2 , : : ; ; _.oXoXoXoXoXoX1.* * - 1 u  .T.S.# G                       ",
"                w u.H.=.d 4 - - = ; = ; ; ; ; ; : ; ; ; ; ; ; = = - N. XXXXX{._ * * - 1 y _ n.L.V 0                         ",
"                  m d.U. .d 4 - - * = = = = ; = ; ; ; = ; = = = * * * 1 u 4 * * * - 1 e ~ e./.H . 3.                        ",
"                  O.V J.Y. .d 4 < - * * * = * * * * = * * * * * * * * * * * * * - 1 y ) e.W.6.o K                           ",
"                    U A J.Y.X.j 9 < - * * * * * * * * * * * * * * * * * * * - < 3 u _ e.W.g.+ V                             ",
"                      I Z d.G.-.~ u 4 < - * * * * * * * * * * * * * * * - < 3 9 j | m.`.6.+ N                               ",
"                        I M F.L.e.| j e 3 1 - - - * * * * * * - * - - < < 9 d ) -.E.L.H o N                                 ",
"                          W w 6.!.T.w.[ n d 9 3 1 1 < - < - - < 1 3 9 9 j ) =.n.`.S.V . G                                   ",
"                              @ V p.~.Y.e.=._ n j d y y y y y u d n )  .w.n.W.L.H # 0 F                                     ",
"                                N q A F.!.P.R.m.w.=.X. .| | X.=.-.e.n.Q./.D.8.v . S                                         ",
"                                    m 0 M 4.i.K.^.^.W.Q.Q.Q.Q.W.P.^.D.g.S @ X N                                             ",
"                                        S # 0 % N J 4.5.0.7.8.H A b @ X $ G                                                 ",
"                                              D B % + o o o O @ $ B D                                                       ",
"                                                                                                                            ",
"                                                                                                                            ",
"                                                                                                                            ",
"                                                                                                                            ",
"                                                                                                                            ",
"                                                                                                                            ",
"                                                                                                                            ",
"                                                                                                                            "
};
