/* XPM */
static char *_g5lv_gsv5t[] = {
/* columns rows colors chars-per-pixel */
"62 62 44 1 ",
"  c None",
". c #279697",
"X c #279799",
"o c #289B9D",
"O c #2AA1A2",
"+ c #2EACAE",
"@ c #2EAFB1",
"# c #2EB3B5",
"$ c #2FB7B9",
"% c #2FBCBE",
"& c #30B7B9",
"* c #31BCBE",
"= c #3EBCBE",
"- c #3EC1BE",
"; c #32BFC1",
": c #3EBFC0",
"> c #33C2C4",
", c #3EC4C4",
"< c #3FC8C7",
"1 c #34C6C8",
"2 c #3FC7C8",
"3 c #35CACC",
"4 c #3FCACB",
"5 c #35CED0",
"6 c #3FCFD0",
"7 c #3FD3D4",
"8 c #3FDADC",
"9 c #3FDFE0",
"0 c #3FEEF0",
"q c #40C6C5",
"w c #40C7C8",
"e c #40CDCE",
"r c #40CFD0",
"t c #40D3D4",
"y c #40D7D8",
"u c #41DADC",
"i c #41DEE0",
"p c #40E2E4",
"a c #41E7E9",
"s c #41EBED",
"d c #41EEF0",
"f c #41F3F5",
"g c #41F7F9",
"h c #41FDFF",
/* pixels */
"                                                              ",
"                                                              ",
"                                                              ",
"                                                              ",
"                        >>;;;;*;>*                            ",
"                     1;*%%***%*%****;                         ",
"                  1;***;>1212,,>***%***;                      ",
"                3**%;14eee444wqq,,,-=****>                    ",
"               >;;>4ttrteeeeew44,q,=-==*;*;                   ",
"              **;47yttttrtreew4w2,,q--===*%*;                 ",
"            1**178yttttttteeee4ww2q,---===*%**                ",
"           3**4u88yyutytttterr4442,,----====*%;               ",
"          3**4uu8yuuyyytttttree44w<qq---====***;              ",
"          **5uuuyuuuuuyytttttere444,,q-=======***             ",
"         **3uuuuiuuuuuuuuttttere4e<<q-,-=======**             ",
"        >*>uuuuuiiuiuuutuutttttee4<w67<-==:=====**            ",
"       5;;tuuiuiiiiiuafautyyttee44ushhf<--======*%*           ",
"       ;%4yuuuuiiiiaghhhsuyyttteufhhhhg<--=======**           ",
"      3*;yyuuuiiiidhhhhhhayytttuhhhhhha,--=======***          ",
"      ;*4yyyuuuiiahhhhhhhhuyttughhhhhg4,--========**          ",
"      *>tyyyuuuiidhhhhhhhhfuttfhhhhhh9,q,--=======**#         ",
"     1%>ttyyyuuiushhhhhhhhhstahhhhhh0,q,q--======-=*;         ",
"     ;;4tttyyuuuiifhhhhhhhhhshhhhhhh7,4,----=======%*         ",
"     %;6tttyyyuuuuighhhhhhhhhhhhhhhu,4w,,---=======*;O        ",
"    1%>etrtttuuuuuupghhhhhhhhhhh0h044<,qq-::=======**@        ",
"    1*1retttytyyuuuuphhhhhhhhhhhhhu444<,q-==========**        ",
"    >%,eeretttyytuuuuughhhhhhhhhhse4w<<q--==========;$        ",
"    ;;,eeetttttytytuuyphhhhhhhhhha4444<,q-==========**        ",
"    ;%1w4ertrttttutytutphhhhhhhhhgtwwwqqq--=========*&        ",
"    ;%,e4eerrrttttytttttfhhhhhhhhhdwwwqqq--========**%        ",
"    **1w44eeerrtttttttttuhhhhhhhhhh9wwqq---=========**        ",
"    ;*,w4weeeerertttttttahhhhhhhhhhgtqqq---=========*&        ",
"    >%>qqww446errrtrtrtth0hhhhhhhhhhg<,q--=-=======**&        ",
"    >%*qqw44w44eeterrref0hhhhhhhhhhhha,--=-=========*#        ",
"     *%,qq,2w4e444eeeephhhhhhhhhhhhhhhu--==========**o        ",
"     %%,q,,q<4w4weeew8h0hhhhgfhhhhhhhhhe=-=-=======**         ",
"     >*=--q,,,4wwweqtghhhhhht,fhhhhhhhhf===========**         ",
"      **---q,q,2qqqtghhhhhhpq,4ghhhhhhhhi=========**+         ",
"      **==---q,qqqeghhhhhft,4,,uhhhhhhhhhe======-=**          ",
"      >;*==---,,qqwghhhgp<,w,qq,shhhhhhhhi=======**&          ",
"       **==------q-wpayw-qqqqqq:ehhhhhhhhw=======**           ",
"       1**====----------qq--q-::qahhhhhhi=======*%$           ",
"        -%*-===-=--=--------=-=---igggdr========**            ",
"         %**========---------======:ww=========**o            ",
"         ;**============--====================&;#             ",
"          >%*================================*;&              ",
"           ;;*==============================**&               ",
"            %***==========================*%*$                ",
"             &***=:======================*%%@                 ",
"               *%%*==-=================&***.                  ",
"                ***%*===-============;***#                    ",
"                  $*******========*****#                      ",
"                    @****%**********&+                        ",
"                       o#$$$$*&$&+X                           ",
"                                                              ",
"                                                              ",
"                                                              ",
"                                                              ",
"                                                              ",
"                                                              ",
"                                                              ",
"                                                              "
};
