/* XPM */
static char *_yimm_wjloe[] = {
/* columns rows colors chars-per-pixel */
"82 82 245 2 ",
"   c None",
".  c #000C0E",
"X  c #000E10",
"o  c #001214",
"O  c #00161A",
"+  c #00191D",
"@  c #001C28",
"#  c #00232B",
"$  c #022C3D",
"%  c #002634",
"&  c #09323B",
"*  c #2B2829",
"=  c #312C2D",
"-  c #363334",
";  c #322F30",
":  c #201E1F",
">  c #073344",
",  c #003B44",
"<  c #03364A",
"1  c #0A3A4C",
"2  c #06374B",
"3  c #1B3746",
"4  c #093D53",
"5  c #043D54",
"6  c #193754",
"7  c #223B47",
"8  c #253E50",
"9  c #01434C",
"0  c #0A445C",
"q  c #064357",
"w  c #174658",
"e  c #0B4A54",
"r  c #284957",
"t  c #254852",
"y  c #0A4A64",
"u  c #064A65",
"i  c #0B516C",
"p  c #025569",
"a  c #0C5674",
"s  c #1A4F65",
"d  c #295567",
"f  c #365A69",
"g  c #295C74",
"h  c #324E6F",
"j  c #006473",
"k  c #036978",
"l  c #00606E",
"z  c #2D647C",
"x  c #296179",
"c  c #3C6474",
"v  c #3B6B76",
"b  c #4E4D4F",
"n  c #4A6D7C",
"m  c #446978",
"M  c #50717D",
"N  c #6A6C6F",
"B  c #43567A",
"V  c #403F40",
"C  c #170F86",
"Z  c #170F88",
"A  c #180F8C",
"S  c #161383",
"D  c #161B83",
"F  c #19128E",
"G  c #181688",
"H  c #1C1393",
"J  c #1B1B94",
"K  c #201795",
"L  c #231A96",
"P  c #261E98",
"I  c #281F98",
"U  c #21188E",
"Y  c #162383",
"T  c #152B83",
"R  c #17278B",
"E  c #153485",
"W  c #153B84",
"Q  c #15378A",
"!  c #1A2795",
"~  c #183A97",
"^  c #2B239A",
"/  c #292598",
"(  c #30279D",
")  c #332B9E",
"_  c #39359C",
"`  c #26379F",
"'  c #362EA0",
"]  c #3B33A2",
"[  c #3939A3",
"{  c #2D38A0",
"}  c #423BA6",
"|  c #154C8A",
" . c #154687",
".. c #15538B",
"X. c #165B88",
"o. c #155895",
"O. c #174A96",
"+. c #39538A",
"@. c #15678C",
"#. c #007A8C",
"$. c #007485",
"%. c #16758C",
"&. c #156796",
"*. c #157C92",
"=. c #157797",
"-. c #007A8C",
";. c #2A6D89",
":. c #34728D",
">. c #1A57A2",
",. c #3747A7",
"<. c #2C50A7",
"1. c #186FA6",
"2. c #3270B2",
"3. c #494A9B",
"4. c #4C569A",
"5. c #4A538C",
"6. c #4C7282",
"7. c #41758C",
"8. c #537583",
"9. c #5B7C8B",
"0. c #577A89",
"q. c #497C96",
"w. c #556B93",
"e. c #627B8B",
"r. c #4542A8",
"t. c #4B44AA",
"y. c #4948A8",
"u. c #524CAD",
"i. c #4955AB",
"p. c #5656AB",
"a. c #5D5AB3",
"s. c #5855B1",
"d. c #4C5AB0",
"f. c #625EB5",
"g. c #4869B4",
"h. c #5865B6",
"j. c #5373B4",
"k. c #6462B6",
"l. c #686BBA",
"z. c #6974BD",
"x. c #7075BD",
"c. c #666EA8",
"v. c #737BC1",
"b. c #6B7EC0",
"n. c #00869A",
"m. c #15849B",
"M. c #168599",
"N. c #328895",
"B. c #068DA5",
"V. c #158BA3",
"C. c #1488A7",
"Z. c #0195AB",
"A. c #019BAE",
"S. c #0991AB",
"D. c #1595AB",
"F. c #019DB4",
"G. c #0A9AB5",
"H. c #1599B5",
"J. c #1889B3",
"K. c #3296AF",
"L. c #00A2BA",
"P. c #08A4B9",
"I. c #14A4BA",
"U. c #33A1B1",
"Y. c #5E808E",
"T. c #4B879A",
"R. c #598595",
"E. c #57929B",
"W. c #63818E",
"Q. c #6B818D",
"!. c #648593",
"~. c #6A8B98",
"^. c #73919D",
"/. c #6E8F9A",
"(. c #538AAC",
"). c #6696A9",
"_. c #7998A6",
"`. c #6C9CB1",
"'. c #7393B2",
"]. c #57ABB7",
"[. c #7BA6B9",
"{. c #77A6B7",
"}. c #72A7B2",
"|. c #04ACC2",
" X c #15ABC2",
".X c #05B7CB",
"XX c #16B6CA",
"oX c #05BDD1",
"OX c #17BED1",
"+X c #32AFCB",
"@X c #32BBEE",
"#X c #3A9CC2",
"$X c #5392C3",
"%X c #7687C5",
"&X c #7998CA",
"*X c #688EC5",
"=X c #50AFCE",
"-X c #66B5D3",
";X c #78B9D7",
":X c #76AACD",
">X c #0AC4D6",
",X c #1AC5D7",
"<X c #28CADB",
"1X c #36C8D8",
"2X c #35D4E2",
"3X c #51C9D9",
"4X c #69C8DA",
"5X c #75CDDD",
"6X c #4AD7E4",
"7X c #5ADAE6",
"8X c #67DBE7",
"9X c #77DAE5",
"0X c #7CCAE1",
"qX c #7AE1EB",
"wX c #69E1EA",
"eX c #8C9092",
"rX c #849EA9",
"tX c #8E9BAF",
"yX c #85A2AE",
"uX c #88AAB8",
"iX c #93ADB8",
"pX c #99B2BD",
"aX c #9BA6AB",
"sX c #AEB4B8",
"dX c #99B7C4",
"fX c #89B2CB",
"gX c #A4BBC5",
"hX c #A5BAC8",
"jX c #A0ABC6",
"kX c #929BC4",
"lX c #ACC3CC",
"zX c #BAC1C5",
"xX c #B5CAD3",
"cX c #BDD3DB",
"vX c #83DBE8",
"bX c #89CEE1",
"nX c #83E2EC",
"mX c #92C9DE",
"MX c #C6C7C9",
"NX c #D8D8DA",
"BX c #C7CFD3",
"VX c #E6E6E7",
"CX c #F7F7F8",
"ZX c #F0EFEF",
"AX c #DCDFE1",
/* pixels */
"                                                                                                                                                                    ",
"                                                                                                                                                                    ",
"                                                                                                                                                                    ",
"                                                                                                                                                                    ",
"                                                                  v T.K.U.(.U.U.K.N.M.z s w                                                                         ",
"                                                          E.].=X6X6X6X6X6X6X6X6X6X2X2X2X<X,X XC.k 9                                                                 ",
"                                                    E.].7X7X7X8X4X3X=X3X=X=X=X#X=X+X+X+X1X<X<X<X<X>Xn.k &                                                           ",
"                                                ].4XwX8X4X4X-X=X$X$X(.j.j.g.j.2.g.2.g.2.2.2.#X XXX<X,X>X.X#.9                                                       ",
"                                            }.8XqXwX4X-X-X*X*Xj.j.h.d.d.d.i.i.i.,.,.,.,.<.<.<.<.2.J.H.OX,X>XoX-.,                                                   ",
"                                        ).8X8X9X4X-X*X*Xh.j.a.d.s.i.u.y.r.r.[ [ [ ] [ [ { ` ` ` ` ` >.1.J. XOX>X|.k                                                 ",
"                                      :X9X9X5X;X&X*Xb.l.h.a.s.u.u.t.r.[ } [ ] ' ' ' ' ' ( ( ( ! ! ! ! ~ >.>.J.|.,XoXn.9                                             ",
"                                  /.9XqX9X5X&X'.b.b.h.a.s.u.u.t.} } } [ ] ] ] ' ' ' ( ( ( ^ P P P L J ! ! ~ O.1.H.XX>X.Xj                                           ",
"                                `.9XnX0X;X%Xv.v.f.f.a.u.u.t.} } ] ] ' ' ' ' ' ( ( ( ( ( ^ ^ P L K J H H J R R Q o.1.I.,XoX#.                                        ",
"                              {.qX9X0X&X%Xb.v.k.a.s.u.u.t.} } ] ] ' ' ' ( ( ( ( ( ( ^ ( ^ P P L K K H H F J J R Q O.&.H.XX>Xn.                                      ",
"                            {.qXvXbX&Xv.v.b.k.f.a.u.t.} } ] ' ' ' ( ^ ^ ^ ^ ^ ^ P ^ ^ ^ ^ P P L J H H H F F G G D R ~ o.C.XXoXn.                                    ",
"                          {.qXnX;X&Xv.v.v.a.a.s.u.u.} } ] ' ' ' ^ ^ ^ P P ^ ^ P P P ^ P P P P L K H H H A A F G D G Y E o.C.XXoXB.                                  ",
"                        }.qX9XfX&X%Xv.k.f.a.s.u.u.} } ] ' ' ' I / I u.x.kXhXhXpXpX'.c.3.) I L L K K H H H A A A Z Z S D Q o.C. XoXn.                                ",
"                      ^.qXnX0XkX%Xv.v.f.a.u.u.} } ] ] ' ' ^ ^ ^ p.jXBXxXxXxXzXlXhXgXgXaXrXw.3.L K K H H A A A A Z Z Z A Y E o.C.XX.X#.                              ",
"                      9XnXbX&X%Xv.v.a.a.a.} } } [ ] ' ( ^ ( t.jXBXcXxXxXlXlXlXgXhXsXiXiXiXrXe.5.' K H H H A A A Z C C A D Y Q o.D.OX.Xj                             ",
"                    ;X9XbXfX%Xv.v.f.s.u.u.} } } ' ( ( ( P a.lXcXcXcXxXxXxXhXgXlXjXiXiXiXyXrXrXe.h ,.H H A H A A Z Z 6 A S D T W &.H..XF.9                           ",
"                  `.nXvXfXkXv.v.k.f.a.} } } } ( ' ^ ^ ^ l.lXxXxXxXxXlXlXlXlXpXpXpXiXiXyXrX_._.^.6.8 3.H H A H A Z Z C C S 6 A J  .=. XoXB.                          ",
"                  0XnXbX&Xv.v.l.f.f.} } } } ( ( ^ ^ P k.gXlXlXlXlXlXlXlXgXgXpXpXiXiXyXyX_._.^.~.!.f 7 4.H H A A Z Z Z C C S S G T o.C.XX.Xk                         ",
"                :XqXbXfXv.v.l.f.a.} } } ' ' ( ^ P P y.iXdXgXlXgXgXlXdXdXdXpXiXiXiXyXrX_._./.~.!.e.8.8 8 _ A A H A Z Z Z C C S D Y Q &.H..XA.,                       ",
"                9XvX;X%Xv.v.f.a.u.u.} } ' ( ^ P P P yXiXpXpXpXdXdXgXpXpXiXiXiXyXyXyXrX^.^.~.~.!.!.e.f & B K H A A A Z Z C C C S D T | m. X.X#.                      ",
"              }.qXbX:X%Xv.k.a.u.} } } } ( ^ I P L a.yXiXuXuXiXuXiXiXiXiXiXuXyXyX_._._.^./.~.~.Y.9.9.n - * 3.H A F F A A A A Z Z S Y E &.D..XF.,                     ",
"              9XqX;X%Xv.l.f.s.u.} } } ( I P L L L '._._._.yX}.yX{.yXuXuXyXyXyX_._._.^././.!.!.Y.9.0.8.t 3 h L U H F H A A A Z Z G D T O.m. X.X#.                    ",
"            /.qX9X&X%Xx.f.a.s.} } } ( P I L L K y.~.0.q.R.R./._._._._.yXyX_.yX_._._.^.~.~.~.e.9.9.8.8.f 3 7 _ A H H A A A A Z Z S S R Q &.H..XZ.$                   ",
"            4XnX;X&Xv.l.f.u.u.} ' ( ( P L L K K i.m _.sXsXaX/.9./.).)./._.rX_._.^._.~.~.!.e.Y.e.0.8.M f 7 3 _ H H H H H A Z Z Z S S D T ..V. XL.j                   ",
"            9X9X:X%Xl.k.a.u.} } ' ( ^ P K K K L w.AXZXVXNXNXVXNXR.Y./.~./._._._.^./.~.~.!.e.9.9.8.8.6.f 7 3 h H H H H H A H A A Z S S Y W =.I..Xn.+                 ",
"          ).9X5X&X%Xl.a.s.} } ' ( ( P L K K F } zXCXZXNXNXMXzXNXCX_.7.~.R.!./././.~.!.!.Y.e.9.8.8.n 8.f 7 8 6 H H H H H A A A A Z C S Y E @.D..XL.,                 ",
"          -XqX5X*Xz.h.s.u.} } ' ( I P K K H H w.NXZXCXZXNXBXMXzXNXCX_.7.R.R.R./.~.!.!.W.9.9.0.8.M n n f 8 7 6 K H J H H A H A A Z C S D T o.V. XL.p                 ",
"          4XqX-X*Xl.a.u.} } } ' ^ P L K H H H c.VXAXsXaXBXNXMXzXMXAXCX9.6.0.8.!.!.!.Y.9.9.0.8.6.n n n f 6 6 s P K J H H H H A A Z Z S D Y  .m.I.L.n.O               ",
"        n 8X8X:Xb.l.s.u.} ] ' ( P P L K H H H 9.VXb * * V eXBXMXzXMXZXAXv 8.M 0.R.Y.9.9.8.8.8.n n m c f 7 3 6 K K K K K H H A A Z Z C S Y W =.H.|.Z.#               ",
"        R.8X5X&Xz.f.u.u.} ] ' ( P P K H H H H w.aX* * - * g bXBXMXsXMXCXyXc 7.n 0.Y.0.8.8.M n m m m m d t & h H L K K K H H H A A Z C S D W @.D.|.F.,               ",
"        E.wX4X*Xz.h.u.t.[ ] ( ( P P K H H H H w.eX= = - * x @XBXMXzXsXAXVXx v v 6.8.0.M 6.n n m m m f r r f p.L L L K H H H H A Z Z C S D E X.V.|.L.p               ",
"        ].wX-X*Xh.s.s.} } ] ( ^ P L H H H H H 3.eX; = - = r @XmXNXMXMXMXCX/.f c v M M n n m m c f f f f M M t.L K L K K H H A A Z C C S D T ..V.I.L.j               ",
"        ].8X-X*Xh.s.u.} ] ' ( ^ P L K H H H H ^ e.V * = - = =.@XcXNXBXMXZXpXd c f g n n n e.e.n c f n 8.M 8.I L K K K K H A H A A Z C S D T | m.I.L.$..             ",
"        -XwX-X'.h.a.u.} ] ' ( ^ P K K H H H H H c.N * = - = ; ;.-XAXNXBXAXsXs f g d f n Q.rXrX^.Q.e.Q.M d u.L K K K K H H H A A Z Z C C S T | m.H.L.#.o             ",
"        =X8X=Xb.h.s.t.] ] ( ( ^ P K K H H H H K _ Q.b * = - = * r AXAXAXNXsXs d d r f Q.eX^././.~.Q.n d 5.I K L P P K K H A H A Z Z C S D T | *.I.L.n.o             ",
"        =X7X-Xz.h.s.t.[ ] ( ^ P P L K K K H H J F p.N = = ; ; = V VXZXVXVXaXs d s f n 0.!.W.W.e.e.m d d } U L / P K K H H H H A Z C C S S T | *.H.F.n.o             ",
"        ].8X-Xj.h.u.} [ ] ' ( ^ P P L K K H K K K P w.N - = * : N CXZXZXZXrXw t d c c c M M N 8.f d w u.K P I ^ P P K K K H H H A Z Z C S Y ..M.H.F.n.O             ",
"        ].7X-X$Xd.d.t.] ] ' ( ^ P P L L K K K K K K ( c.eXN b b MXVXVXVXVXW.w w r d d d m m m f w e p.K I ^ ^ I P P P K K H H H A Z Z C D T ..m.G.A.n.O             ",
"        (.7X-X(.h.u.t.} ] ' ( ^ P P P L K K K K K H H ' w.aXsXzXMXMXNXAXsXw w w w w e w d d 6 5 s y.H ^ ^ ^ ^ ^ ^ P P P H H H A A Z A A 6 R ..M.G.L.#.O             ",
"        K.6X-X$Xh.u.t.} ] ' ( ( ^ P L L K L L K K K H H J 3.e.aXsXMXsXeXw 1 6 4 1 1 1 > 2 2 5 s r.F I ^ ( ^ / ^ P P P K H H H H A Z Z A H R o.n.G.L.$..             ",
"        v 6X3X(.g.u.[ ] ] ) ( ^ ^ P P P P K P K K K K K K L 3.:.M m w 4 1 1 1 1 > 1 1 1 < u i a x i.r./ ^ / ^ ^ ^ P L K H H H H F C C A D W @.M.P.L.j .             ",
"        f 6X7X$Xg.d.t.[ ] ) ( ( ( P P P K P P K L K H K i.{.fX[.).;.# $ 1 4 < < 2 & > @ 4 a a i p u p 4.) J ^ ^ I P P L K H H H F C C 6 Y Q %.V.L.L.p .             ",
"          =X7X=Xg.d.t.] ] ) ( ( ^ ^ P P P P K P L J / '.iXfX:X}.`.T.$ % < u 5 < $ # + O y a i i i i u u +._ L ^ ^ I P L L H H H F C S D T | %.D.A.L.9               ",
"          U.6X=Xj.d.r.] ] ) ( ( ( ^ P P P P K K J [ `.dXdXuX[.`.).K.< @ < u u < $ # + @ i i y i y i y u u g [ P ^ ^ P L L H H H F S S D T ..M.H.Z.Z.%               ",
"          N.6X3X(.2.r.[ [ ' ' ( ( ^ P P P P L L ' kXdXfXfX[.}.).).T.x 5 < u q < > @ % 4 i y y y y y y y y 5 +./ ^ P I K L K U F C U 6 G E @.M.G.L.n.O               ",
"          d 1X6X$Xd.y.[ ] ' ( ' ( ^ P P P P L L %XfXpXfX[.{.).).).:X).:.a a a i y y i i y y y y 0 0 0 0 0 y y y.L ^ / L L U K U U G H F  .%.V.A.L.j .               ",
"            U.6X+Xg.,.,.[ ' ' ( ( ^ P P K K K ' dXfX[.[.}.`.[.uXdX{.(.~.p a i a i y y 0 4 y y 4 0 0 0 e 0 0 5 4.H / L L L U U F G D Z i ..*.J.Z.F.9 o               ",
"            z 2X=XK.g.[ [ ) ( ( ^ P P P P K K d.[.[.[.[.uXuXfXfX[.:.`.q.a i i y y y 0 0 0 4 4 4 4 4 4 4 4 0 < 4.K ^ I L U U U U U C G W @.m.F.L.n.#                 ",
"            e 1X2X#X2.,.[ ) ( ( ^ ^ P P L K K d.{.[.:XuX[.[.[.[.T.q.`.:.z i u y 0 0 0 4 4 4 4 4 4 4 4 1 4 4 < 4.U I I I I U U G S D T | *.V.A.L.j .                 ",
"              N.2X=X2.,.{ ) ) ^ ^ P P K L K K r.[.[.{.`.`.`.'.T.:.).~.;.z g y y 0 0 0 4 4 4 4 1 < 1 1 1 1 < 6 _ I / I I U U G S S Y W @.m.S.F.A., O                 ",
"              w <X1X+X2.,.{ ` ^ P P P K K K H P }.`.`.).).).T.;.7.).q.x z z d u 0 4 4 4 1 1 > > 2 > 2 > > $ 4.I / / / U U C S S Y T | %.C.A.L.$.o                   ",
"                M.<X+X2.<.{ ( P P P K K K H H H h.).).E.(.T.:.;.T.~.:.z x +.g s 4 4 4 4 1 1 > > > > > > % +.^ ^ / I U F C C S D Y W @.M.S.A.F.9 .                   ",
"                w XX1X+X<.<./ / L K K K H H H H H h.T.(.T.:.;.:.R.q.z z z c g h w 4 1 1 < > > > > > % % B ) / / U 6 A A C A A A E ..*.V.A.L.$.O                     ",
"                  %.,X<XK.>.` ! J J H H H H A H H H i.q.:.;.:.q.q.7.z ;.g g g d d 4 2 > > > & $ % @ 8 3.( / I F A H A A C 6 G Y  .%.M.S.F.A.9 o                     ",
"                    D.<XXX2.<.! ! J J F H H A H F H H ( 2.:.:.T.q.6.g g g g f g d w 2 > > $ % @ 3 5._ I I F A Z A A C A S D Y  .@.M.B.B.L.j o                       ",
"                    e >X<X X1.~ ! J F F H A A H A A H A F / d.w.q.;.g g g d g d d w $ % % 6 h 3._ K K K Z Z Z C A A 6 A D Y W X.*.C.L.L.n.% O                       ",
"                      k oX,XH.>.~ ! J A F A A A A H H A H A H H / _ ,.+.5.g h h 5.5.5.4.t.' I H H H A A A Z Z C S S S G u E ..*.V.Z.F.A.9 .                         ",
"                        -.>X,XJ.>.~ ! J G F F A A A H A F F A H F A A A G F H H H A Z F A A H H A A A A Z C C S 6 S D D R ..%.V.Z.A.F.l o                           ",
"                          B.>XOXJ.>.~ R J G G F A A A A A A A A F F A A H A A A A F H H A F A A A A A C C C S S A A u R X.%.V.B.A.L.k +                             ",
"                            B.oXXXG.&.O.R R D Z Z Z Z A Z A A Z Z Z A A A A A A A A A A A A A A A A C C C S S S D R  .X.*.m.B.Z.L.#.# O                             ",
"                              B.oXOXH.&.O.Q R G G G Z Z S Z Z Z Z Z Z Z Z Z Z Z Z Z A Z A A Z Z C C C S S S D u i Q @.M.C.B.Z.L.n.# o                               ",
"                                n.oXOXI.1.o.Q T R Y G D S C C C Z Z Z Z Z Z Z Z Z Z Z Z Z Z Z C C S G Z D Y Y ! ..%.*.J.Z.Z.L.#.# .                                 ",
"                                  #.oXoXI.D.&.| Q R Y G D S S S Z Z Z Z C A A Z C C Z Z S S S S S S 6 D T E | @.*.m.V.A.L.L.k # o                                   ",
"                                    j F..XOXH.C.&. .E T Y D D D A A 6 Z 6 A Z Z C C C C S S D D Y Y ! Q | @.%.m.C.Z.Z.L.Z.p + O                                     ",
"                                      9 B..X.X XH.V.&... .E T T Y D 6 G D D S S S 5 D D Y Y T T E W ..@.%.M.V.B.A.F.L.n.9 X                                         ",
"                                          k F..X.XI.H.V.=.o... . .Q ! R T T T T G J T E W W  ...@.%.M.M.V.G.F.Z.L.Z.j % .                                           ",
"                                            , #.F..X.X XI.D.V.=.%.@.o...| | | | O.| ..@.@.@.*.m.M.V.J.F.A.F.L.F.#., o O                                             ",
"                                                9 $.A.L..X|. XI.D.D.D.M.m.m.V.=.*.B.m.M.V.D.D.S.G.L.Z.F.L.Z.#.9 O X                                                 ",
"                                                    $ j n.F.L.L.|.P.|.I.P.I.I.H.H.H.G.F.F.F.A.A.L.L.L.n.j , O .                                                     ",
"                                                        + 9 j n.Z.F.L.L.|.F.F.F.L.L.L.P.P.L.L.Z.#.j 9 # . O                                                         ",
"                                                              o # , p j $.-.-.-.n.#.#.$.j p 9 % O . X                                                               ",
"                                                                        . X O O O o X . . .                                                                         ",
"                                                                                                                                                                    ",
"                                                                                                                                                                    ",
"                                                                                                                                                                    ",
"                                                                                                                                                                    ",
"                                                                                                                                                                    ",
"                                                                                                                                                                    "
};
