/* XPM */
static char *k0gl9_4coa3[] = {
/* columns rows colors chars-per-pixel */
"82 82 82 1 ",
"  c None",
". c #00BCBE",
"X c #02BEC0",
"o c #06BFE0",
"O c #03C2C5",
"+ c #0AC4C7",
"@ c #00C5CC",
"# c #0BC6C9",
"$ c #02CACE",
"% c #0DC9CB",
"& c #11CCCE",
"* c #02CCD3",
"= c #09CCD2",
"- c #06C2DE",
"; c #05CCDD",
": c #0DCDDA",
"> c #13CFD2",
", c #04D1D6",
"< c #0BD1D7",
"1 c #04D3DC",
"2 c #0CD3DB",
"3 c #05D8DF",
"4 c #0CDADD",
"5 c #15D2D4",
"6 c #18D4D6",
"7 c #11D6DC",
"8 c #1AD6D9",
"9 c #14D9DF",
"0 c #1DD9DC",
"q c #06C0E2",
"w c #0AC4E5",
"e c #06CCE2",
"r c #0EC9E7",
"t c #0FCAE8",
"y c #12CDE6",
"u c #12CCE9",
"i c #06D5E2",
"p c #0CD3E6",
"a c #06DAE2",
"s c #0CDBE4",
"d c #0FDDE8",
"f c #13D3E4",
"g c #18D7E7",
"h c #15DBE2",
"j c #19DDE3",
"k c #15D2EA",
"l c #19D5EC",
"z c #14DBEA",
"x c #1CDBED",
"c c #21DEE2",
"v c #20DFEF",
"b c #0FE0E7",
"n c #13E1E5",
"m c #1DE1E6",
"M c #15E2E9",
"N c #1DE4EB",
"B c #1DE8EE",
"V c #0CEBFB",
"C c #17EAF5",
"Z c #1FEAF0",
"A c #10ECFB",
"S c #23E1E4",
"D c #22E5EB",
"F c #2AE7E9",
"G c #24E9EE",
"H c #2AEAEE",
"J c #30EDEF",
"K c #21E4F0",
"L c #29E7F0",
"P c #23EAF0",
"I c #2BEDF1",
"U c #20EEF8",
"Y c #32EEF1",
"T c #2EF0F4",
"R c #26F0F8",
"E c #2DF2F8",
"W c #34F2F4",
"Q c #39F4F7",
"! c #37F5F8",
"~ c #3AF6F9",
"^ c #3DF9FB",
"/ c #41FCFE",
/* pixels */
"                                                                                  ",
"                                                                                  ",
"                                                                                  ",
"                                                                                  ",
"                                 &=%%%%%##+++O                                    ",
"                             5579nMMMMMMMdss41*XXO                                ",
"                          55nMNNBMMzMzzzzddddsVa3,...                             ",
"                        8jNBNNMzlzzkkkkppkptppppsaaa$XX                           ",
"                      6mBCNNxlllgkkkuuuuutttttttpiiaa3*..                         ",
"                    8mBZNvxlllllkuutuuuttttttotwwweeia31$.                        ",
"                   0NGBNxxllkkuuuuuuututttwttttowqqweeisa,..                      ",
"                 8mZBBxxlllkkkuuuuurttttwtwwototwqqoeqq;331$.                     ",
"                0NKKvvxlllkkuuuurrtttttotwototoowwqqqq-ee;33,.                    ",
"               0ZLKNxxlllkkkuuutrrwrtotttwtttotoqqwqqqq-q-;33*.                   ",
"              0DUvvvxlllluuuuuttrwrwwtoootoootooowqwqqq----;11,.                  ",
"             0BGvvxxlllluuuuuuotwwwwottotototootwowoqqqqq---;13*.                 ",
"            0DPKvxlllluuuutttwtowwuxKIIHFvgywwwwwowoooooooqqq;11*.                ",
"           0DPKvxxlllluuttttottokLWWYIIIIIHGDguoowoowoowowqqq;e11*.               ",
"           NPZvxxlllluuurrrrttuLWEEIIIIHHHGGGDh8twwoooooowoo---;13$.              ",
"          0PGZxxlllluuuurrwwolYEWTTWIIIIIGFFDDDhpuwowoowoooo----;3,..             ",
"         0DPvvlllllluuuorwrwlTTTTTIEIIGIGDDDDjSDp;yqqqooooo-----;;1*.             ",
"         DPDvvvlllolououwwwlIIIIIIIIHIHGGFGDDDjjj<=foqowqo--oooo-;33$.            ",
"        gDLvvllllluouuuowwuGGIIIIIIPHGGGGDDDDjjjjh==rooooqooo-----;31..           ",
"        vLvvvllllouloouowwDGHGGHGHGHGGFDDSDjmmjjjj:#7wooqqo-oooo--;11$.           ",
"       0GKNxxllllolootooolLLDDGDGGGGGDDDDmmDjjjjhh9%=uowqqwooooo---;31..          ",
"       mBDvxllluollotoottvNvDNDDDDDDFDDmDmmjjjjh0h9=#:woqqooowqooo-;11$.          ",
"      8BKvxlluuuolooototumlzjjjDNmNDDDDmDmmmSjjjjhh<=*uoqqqoqoqo----;3*..         ",
"      0ZKxvlllutlolotoook7mIHGmhmmmmSNDmmmjmjjjh999<==uoqqwoqqqqq---;31..         ",
"      mZNxllluutoooooooohW^QQWQ!hhmmmmNmmmjjjjhhh997=$:oowwowoowq-o-e11*..        ",
"     8BZxxlluuttlololoouI/^QQYJQ^mhmhjmmmjjjjj9h9975==$owooooooooo---;3*..        ",
"     0BNxxlluuutolooooolQ^^^QYYJ!^m9hhjmjjjj0j999972==wwwowowoooo-o--;31..        ",
"     0ZNxlluuuttooooooovQQHFYQYJWQ^j9hhjjjjjh9h99777*;ewwwwoooowqqoo-;13O..       ",
"    5jCNllllutttwwwoqwwhQ5+#&SQHHW^Q299hjj9j9999777<=#*wowwoooowooq---11$..       ",
"    5NZxlltuuuotwwwwqqqlF##%#<UWJJW/D799hhh90997777<:$;wowwowooo-qo---;1,..       ",
"    5NBllluuuttowwwowookS#%%#4AWWJJQ^2279h9hh977777<><kwwwwotoooqo-o-;;31..       ",
"    5BBllllttttowoowoookc#+%+:VRWJJJ/m<42997977777<<99uowoowooowqooo--;31..       ",
"    6Bxlluuuttotwwowooowj&##&#sVTQWY^H<<4<h740075<9999wwowwwooowqoqoo-;31...      ",
"    6ZNluluutttowowowowog8#&###iCQWWQH:4<<<hjDDmjjj9:kwowwooooooooq---e11...      ",
"    6Nxlluuutoototowqwoww0&##&##5!Q!!H*<<<<jSmmmjj9<9wwwwwwowoooq-o---;11...      ",
"    :Axllluttttotowowqowwg0#%###>Q^QQF<<<<9hjjjjj7<<rowwwwwwooowoqoo--e11...      ",
"    5BMgklutttotooooooowwwkj&+#+0^^^^D*<<227999041;uwwwwwwwowoooqqoo--;11...      ",
"    5MMlkuutttttottotoowwowzc6&6YQQQQ0*<<<<<777<**kwwwwtwwwwwowoqo-o--;11...      ",
"    5MNlkkuutttotooowowwowwwgFJYWYWQF:*==*=<:=**:uwwwwwwwwoowwooqqoo-;;31...      ",
"    >MzzkuuutootottowwwowwowqfgSJJJD******$****;uqwwwtwwwwwwoowooqqo--;4*...      ",
"    %nMzkkttttototooowowwqwowwph74***=**$*****111ktwwwwtwwwwwowoq-o--;;3*...      ",
"    %hMzkutttttotottwwowwqowkNKDmi@@****$$@@*1*11*1fwwwwwwwoowooqoo---11*...      ",
"     7MzkuuttotttowototoqwwxPGBNNn@@@***@@OX*1;1*11*ptottoowwowooq---;11@..       ",
"     >MzluutttottotoootowrBIPDNNNz*@****$@X@1*1*1*1*eptotwwwwwowoo---;31...       ",
"     %nMkputrrwrotootototULLKGBNMz1*****@@@*1*;**1****pwwwwqwqqqq---;;11...       ",
"     #4MzkutrrrwttwwwwowxCLUDNNMNDNh;1111*1****;*;*1*;,uwwwwwwqwq-o-;13$...       ",
"      %MzktttrrwtowwoowtPKKZNBZDGBhM*i1**1;1***********fwwwwwqqqq-e-e1;....       ",
"      +ndppurrwrwwwwtookDZKNBPKLBhNdi*1*****1**********fqwwwwwqqoo--14;...        ",
"      O<bzptrwrwwwwwwowkKDBDBDBNhhms2;,1*1*************uqqrqqww----;31$...        ",
"       #bbptrwtwtwwowwwuBKBNNNNhiNz4s2************@*@**rrrqwwqq---;13*....        ",
"       O4dpurwwwwwwwowwwNNNNzMz4hxh1p<3******@$$**@**@fwwwrqqo----;11*...         ",
"        +sdprrrwwwowooowkNMjNhsshhh4412;*******$*@*@Xrrwrwqqo-oo-e;3*....         ",
"        O,bspewwwwqqqqoowzzzhsishz42122<****$*$$$@@@:ywwooooqo---;31$...          ",
"         O1birwwwwwqwqwooqfzssszzhp22222<**@*@$@@@=yrwwq-o-o-o--;11*....          ",
"          Oaipewwqqwqwooooorfishh444242<<:@*@@@@=yuwwo-oo-oo---:33*....           ",
"          .<dipeqwqqqqwoowqqwwkds4122<1::*@*@=:yuqowooqqoqo----11i*....           ",
"           X1aiewqqqooooowooqqoqrrtpfp:7pfyfurwqowoooo-ooo---;;41*....            ",
"            X1aieeqqwwowoowoqoqqqqqqooooowqqowqqoqoo-oooo--q;;11*....             ",
"             .1aieqqooooooooqqqoqqoqwqooqoqqoqqoqqqq-oo----;;11*....              ",
"              .1aaeewqowowooqoqqqqooooooqqoqoqqqoqoqoo----;;31*.....              ",
"               .,a3ee---q-qqooqqoo-qoqqqoqoqq-oqq-oo----e-13;*.....               ",
"                .,a31e-q-----o-o-oooo-qoqqo-qooooo-o---;;131*.....                ",
"                 .$1311--q---ooooooooooo-ooqoqo-----;-:;31*$.....                 ",
"                  ..*3331;-------o--o--ooo-oo------;;;331*X.....                  ",
"                   ..$1131;;-----------q-o-------;e1331;$.....                    ",
"                     ..*1331<1;;;-----------;;;;113i1*$......                     ",
"                      ...@113i311;;;;;e;;;;1;113311*$.......                      ",
"                        ....**11131331113131331;*$........                        ",
"                          .....O$*11*111111**$@.X.......                          ",
"                            .........X................                            ",
"                               ....................                               ",
"                                    ..........                                    ",
"                                                                                  ",
"                                                                                  ",
"                                                                                  ",
"                                                                                  ",
"                                                                                  ",
"                                                                                  "
};
