/* XPM */
static char *_y37l_98iqx[] = {
/* columns rows colors chars-per-pixel */
"82 82 38 1 ",
"  c None",
". c #121212",
"X c #131C1D",
"o c #1B1B1B",
"O c #161727",
"+ c #141C24",
"@ c #181D26",
"# c #16152A",
"$ c #18172C",
"% c #161B29",
"& c #1B1A2E",
"* c #1F1E30",
"= c #201F30",
"- c #162227",
"; c #1B2425",
": c #15232B",
"> c #1C232D",
", c #17282C",
"< c #1C2A2D",
"1 c #122435",
"2 c #1D2431",
"3 c #122837",
"4 c #1D2A33",
"5 c #122738",
"6 c #122A39",
"7 c #1A2C39",
"8 c #232323",
"9 c #20202F",
"0 c #252C2D",
"q c #232331",
"w c #242B33",
"e c #282D34",
"r c #242F39",
"t c #263032",
"y c #283133",
"u c #25313A",
"i c #2A323A",
"p c #31353A",
/* pixels */
"                                                                                  ",
"                                                                                  ",
"                                                                                  ",
"                                                                                  ",
"                                 oooooooooooo.                                    ",
"                             8;8<040w<t4w<,,,;X...                                ",
"                          8;0<t<t0w<<q<<4>><<<<,,-...                             ",
"                        800tw0www292q92>&>2>&::4<,,-X..                           ",
"                      80teeewqqq>q2*=*&&*&&&&:*%:::,,,+..                         ",
"                    80eywwwqqqq=q&q&=&**&&&&$&$$$%$1:---X.                        ",
"                   8yyeq0qqqq>==**&&=*=&&&&&*$*$$$#%%+:,,-..                      ",
"                 80eyee0wqq=q===**&*$=$=*&&$$$$$$$$##$%+-,-X.                     ",
"                8eyeeqeqq=q==*&&&&&&&&$$&$$*$$$$$$$$####%--,+.                    ",
"               8pee0ee=qqq==***&&&&&$&*$&$$$*$$$$$$$###O%%%---.                   ",
"              8yeeeqq=qq===**&$*&&&$$&$&$$&*$$$$#$$######O%%-,+.                  ",
"             8yyeeeeqqq==**&*$*&&$$$&$&$$&$$$$$$$######O##OO%--X.                 ",
"            8pyeeqqqqq==****$&$&$$$$$$$$$=$$$$$$#$###########O++X.                ",
"           8yyeeeqqqqq==**$&&$$*$$$$$$$$$=q=$$$$$#$###########++,X.               ",
"           0yeeeqqqq====&$*$&&$$$$$$$$#$$=pr&$$$$$$$###########+--X.              ",
"          8yypqqqqqq=&=&*&$$$$$$$$$$$$##$=ppq&$$$$$$########O##++--..             ",
"         8pyeeeq======&&$$$$*$$$$$$$$#$#$=ippr$$$#$##########OOO%---.             ",
"         8peeeqeq===&&&&*$*$$$$$$$$$$$##$=ippir$#$$$##$$###O#OOOO%--X.            ",
"        8peeqq======&&&$$$$$$$$$$$$$$$$$$=ppppiu$$$$###$###O##OOOO---..           ",
"        qpeeqee====$$&&$$$$$$$$$$$$$$$$$$=ipppppq$$$###$#########%%--X.           ",
"       8yyeee=====$$&$&$$$$$$$$$$$$$$$$$$*iipppiiq$$$#$$########OOO%--..          ",
"       0yyeqq=q====&$$$$$$$$$$$$$$$$$$$$$*iipipiiiq$$$$$#########O#O--X.          ",
"      8teeqq=====&$$$$$$$$$$$$$$$$$$$$$$&*iiipippieq$#$$########O#O#%--..         ",
"      8yeeeq===&&&==eqrqqrqreqrqq7rqrqrquuipiiiiiiii=$$$##########OO%--..         ",
"      0tqeqqq===$&$eiiiiiiiiriiiiiiiuiiiiiiipupuiiiir=$$#########O#O%--X..        ",
"     8teeqqq===$&$=qieiiiiiiiiiriiiiiiiiiiiiupupipiiir=&#########O#O%--+..        ",
"     8yeqe======&&$eiieiiiiiiiiiiuiiuiiuuiiiiiuuiuiiiii=#########O#O#%--..        ",
"     0yeqq====&$$$$qiieiiiririiiuiiuiiuiiiuuiuiuiiiurii7$##########OO%--X..       ",
"    ;0e0qq==&**$$$#rririuuuuuuuuuiuuuuuiuuuuuiuuupuuuuuut<$$$#####OO#O--X..       ",
"    o0ewqq=***$&$$$2ruruiuruuuuuuuuuuiuuuuuuuuuuuuuuuuuuuuq$#$##O##O#O+-+..       ",
"    8twwqq==*$&$$$$rrerrrruuuuuuuuuuuuuuuuuuuuuuuuuuuuuuuu42######O#OO+--..       ",
"    8twwqq==*&&&$$$qrrrrrrutuuuuurrruuuuuuuuuuuuuuuuuuuuttrw*#######O#O--..       ",
"    ;teqqq=*&&&$$$$rrr7rrrrr7uuuuuuuuuuuuuuuuuuuuuuuuuuurrwww=$$O###O%---...      ",
"    8t0q===&&&&$$$#*1*77777766677767777766u66u6uu6u6666677311:*######%%--...      ",
"    8twqq==*&&&$$$#*51&1151115166665666666666666666666661%1%%+%$##O#OO%--...      ",
"    otwq===&*&$&$$$155515115516665666666666666666666666611:1++*$####O%%--...      ",
"    8tw2q&*&&&$$$$$11115515555565666666666666666663311111%1++&&####OO#%--...      ",
"    otwqq=*&&&&$$$$1&5115151555556656666666666666333511111%+&#######OOO--...      ",
"    ot02q&&**&&&*$$&5111551111555566666666666666663355111++>$$####O##O+:+...      ",
"    ;<wqq==*&&&$$$$1111111115555555566656666666666351111++%$$#######OO+-+...      ",
"    o00>q*&&*$&$$$#1#1111111115156555555666666666633111+O*$$$####O#O%%--+...      ",
"    o<40q&&*$*&&$$$#111%111111115555555566666666633511++&$$$#######OOO--X...      ",
"     ;04>=***$$$$*#1+11%1%111111555551556666666635551:+9$$$######O#O#%--X..       ",
"     o0422&*$**$$$#1+1%%1%+1:::1&51#1:1:336666663515%+@$$$#$#####O#OO%--...       ",
"     o<<2>2&&&&&$&$*&&#%%%%%$%%#@@%%%%$$-,666663311:O&$$#$###$####O#O%--...       ",
"     o;w>q&*&&&&&$$&***$**@&&$**&*$****$&7666665351X=$$#$$######O#OO%--X...       ",
"      o<4q&&&&&&$&$$$$$$$$$$#$$$$$#$#$#$$*6666555:X%$$$$########O#O%%--....       ",
"      o<<>>&&&&$$$$$$$$$$$$$$$$#$$$#$##$$*666655:+&$###$#$#######O#%---...        ",
"      o;<>&*&&&$$$$$$$$$$#$$$$##$##$$###$*53656:+%&$#$###########O%%--X...        ",
"       o<4>*&&&&$$$$$$$$###$$$##$$###$$$#*66551+>$##############OOO--+....        ",
"       .;<>:&$$$$$$$$#$$$####$#$$#$#$####*6651+>&#$##############O%--X...         ",
"        o<<>&&&&$$$$##$$####$#$#$$##$$###$56:+@$$#$#$###########O%---....         ",
"        .-<<:%&$###1##$####$$###$$######$&51O%$$################O-,-X...          ",
"         .-,>&%$########$#$$$###$$######$&&#>&$$################%+-+....          ",
"          o->>&$###########$$$##$$#$$$###$#$&#$$############OO.#-,-....           ",
"          .-,,1%#########$$#########$$#$$$&$##$###########.###O#--X....           ",
"           .-,-+##########$#########$##################O#O#%O%+--X....            ",
"            .-,:1##########$##########################O#OOOO++::+....             ",
"             .-,1######################################O#OO%:--+....              ",
"              .-#15###################################OO#OO---X.....              ",
"               .----%O%##O#O#####################OO#O#OOO%---+.....               ",
"                .-,,-%%O##%##O#OO############O#O####OO#O----X.....                ",
"                 .X---%OOOOO##O#O##O#O#O####O#O##OOO#%++--+X.....                 ",
"                  ..-,--%%%OO#OO#OO#O#O##.###O#OOOOO+--:-+......                  ",
"                   ..X-,---%O%#O%$OOO#%O####OOOOO%%----+X.....                    ",
"                     ..X-,--++%OO%OOOO%O##%%O%%%---,-:X......                     ",
"                      ...X--------%-%%O%O++:---,---+X.......                      ",
"                        ....X-----------++--,--+-X........                        ",
"                          .....XX+--+-----++XXX.........                          ",
"                            ..........................                            ",
"                               ....................                               ",
"                                    ..........                                    ",
"                                                                                  ",
"                                                                                  ",
"                                                                                  ",
"                                                                                  ",
"                                                                                  ",
"                                                                                  "
};
