/* XPM */
static char *nrxoo_0njus[] = {
/* columns rows colors chars-per-pixel */
"82 82 222 2 ",
"   c None",
".  c #000000",
"X  c #0C0C0C",
"o  c #171717",
"O  c #011F22",
"+  c #01353A",
"@  c #082A2C",
"#  c #282828",
"$  c #383838",
"%  c #023B43",
"&  c #023B46",
"*  c #00255C",
"=  c #00295E",
"-  c #063F53",
";  c #16157F",
":  c #161B7E",
">  c #022C61",
",  c #15237D",
"<  c #152B7C",
"1  c #1F3D71",
"2  c #15347D",
"3  c #153C7C",
"4  c #0C3873",
"5  c #203D6F",
"6  c #02444A",
"7  c #054856",
"8  c #0D535B",
"9  c #0A4A68",
"0  c #0A5768",
"q  c #15447C",
"w  c #154A7C",
"e  c #184877",
"r  c #0D5572",
"t  c #15537B",
"y  c #155B7A",
"u  c #105776",
"i  c #15566B",
"p  c #2D4479",
"a  c #15647A",
"s  c #15687B",
"d  c #1C6B76",
"f  c #0B6271",
"g  c #2C6B70",
"h  c #4B4B4B",
"j  c #585858",
"k  c #496566",
"l  c #6D6D6D",
"z  c #646464",
"x  c #757575",
"c  c #170F86",
"v  c #170F88",
"b  c #180F8C",
"n  c #161283",
"m  c #161A82",
"M  c #171288",
"N  c #18108E",
"B  c #181C8B",
"V  c #1C1393",
"C  c #1C1A93",
"Z  c #201795",
"A  c #221A96",
"S  c #261E98",
"D  c #281F98",
"F  c #172786",
"G  c #173687",
"H  c #1B2792",
"J  c #0D388D",
"K  c #2B239B",
"L  c #282798",
"P  c #30279D",
"I  c #332B9E",
"U  c #29399A",
"Y  c #3C349E",
"T  c #35369F",
"R  c #362EA0",
"E  c #3B33A2",
"W  c #3C3AA3",
"Q  c #3732A0",
"!  c #423B9E",
"~  c #423BA6",
"^  c #004589",
"/  c #174786",
"(  c #004A97",
")  c #00539A",
"_  c #19508F",
"`  c #3B4B84",
"'  c #2B519B",
"]  c #166985",
"[  c #187689",
"{  c #1C7794",
"}  c #146A8C",
"|  c #287098",
" . c #0054A3",
".. c #0059AA",
"X. c #1D58AB",
"o. c #005BB4",
"O. c #005ABA",
"+. c #0F54AA",
"@. c #3955A2",
"#. c #3B43A2",
"$. c #0062BC",
"%. c #006BB5",
"&. c #0063AA",
"*. c #3B77A3",
"=. c #306CB1",
"-. c #434E8B",
";. c #4B5092",
":. c #4342A6",
">. c #4541A9",
",. c #4B44AA",
"<. c #4D4AAB",
"1. c #494BA6",
"2. c #524CAD",
"3. c #4857A9",
"4. c #5552AE",
"5. c #5459AE",
"6. c #5A55B1",
"7. c #5D5AB2",
"8. c #625EB5",
"9. c #4778A9",
"0. c #5C68B2",
"q. c #506DAC",
"w. c #6563B6",
"e. c #6C6AB9",
"r. c #646AB6",
"t. c #6876B8",
"y. c #7273BC",
"u. c #747BBD",
"i. c #797CBF",
"p. c #706FBB",
"a. c #467D82",
"s. c #005CC3",
"d. c #0065C3",
"f. c #006AC5",
"g. c #006DCB",
"h. c #0065CB",
"j. c #0072CD",
"k. c #006CD3",
"l. c #0065D1",
"z. c #0074D4",
"x. c #007AD5",
"c. c #007CDB",
"v. c #0076D9",
"b. c #0079E3",
"n. c #2E7AC8",
"m. c #7A7FC0",
"M. c #1C8196",
"N. c #34889B",
"B. c #288698",
"V. c #388CA2",
"C. c #4D8E94",
"Z. c #6D9495",
"A. c #4985AA",
"S. c #4A99A9",
"D. c #569DAA",
"F. c #5A95B1",
"G. c #5989B2",
"H. c #6888B8",
"J. c #7585BE",
"K. c #6A97B9",
"L. c #7497BE",
"P. c #779FA0",
"I. c #5DA5B2",
"U. c #79A8AB",
"Y. c #67ABB7",
"T. c #75AAB9",
"R. c #77AFB5",
"E. c #0083DD",
"W. c #0088DF",
"Q. c #2E89DB",
"!. c #2E89D7",
"~. c #0085E1",
"^. c #008BE2",
"/. c #0081E9",
"(. c #0092E6",
"). c #0096E8",
"_. c #0099E9",
"`. c #2D94E2",
"'. c #2D9AE5",
"]. c #5A84C2",
"[. c #6D8AC6",
"{. c #6A8BC8",
"}. c #7C8BC1",
"|. c #7B83C0",
" X c #6898CB",
".X c #7D99C2",
"XX c #6F9CD4",
"oX c #7CA8C1",
"OX c #6BA3DA",
"+X c #77A9DA",
"@X c #7BB6C3",
"#X c #67ABE6",
"$X c #6BAAE6",
"%X c #6AAEE8",
"&X c #68A9E5",
"*X c #75ADE5",
"=X c #67B3EB",
"-X c #6CB3EA",
";X c #7DB2E6",
":X c #72B5EA",
">X c #7BB5E9",
",X c #7DB9EB",
"<X c #73B0E7",
"1X c #81B4BB",
"2X c #8199C4",
"3X c #82A6C4",
"4X c #83B5C5",
"5X c #8BB3DC",
"6X c #84B4E5",
"7X c #8AB6E3",
"8X c #8CB9E5",
"9X c #84BBEA",
"0X c #8BBDEA",
"qX c #84B7E8",
"wX c #91BBE4",
"eX c #92BBE5",
"rX c #9CC4EC",
"tX c #96C1E9",
"yX c #8EC0EC",
"uX c #A6C6E8",
"iX c #B3CCE8",
"pX c #ABC3DD",
/* pixels */
"                                                                                                                                                                    ",
"                                                                                                                                                                    ",
"                                                                                                                                                                    ",
"                                                                                                                                                                    ",
"                                                                  $ $ $ $ $ $ $ # # # # o X                                                                         ",
"                                                          h h k C.C.D.S.D.D.S.S.S.V.V.B.g g % X X X                                                                 ",
"                                                    j j C.D.I.I.D.F.G.G.A.9.9.9.*.*.*.*.V.N.B.M.s 8 X . .                                                           ",
"                                                z Z.I.Y.T.K.H.G.q.0.q.q.5.3.3.@.3.@.@.@.' @.' | { M.{ [ % . .                                                       ",
"                                            z Z.Y.T.Y.H.t.t.0.0.0.5.4.1.1.1.>.:.W W W U U U ' ' _ X.} { [ [ 7 . .                                                   ",
"                                        z Z.T.T.T.[.t.t.0.0.6.2.2.1.1.1.>.~ :.W W E Q E I I K L L H H / _ ] [ f + .                                                 ",
"                                      x U.@XT.L.J.t.e.7.7.5.6.2.,.,.~ ~ ~ ~ E E R R R I P K L K L C C H J / _ ] [ 8 . .                                             ",
"                                  z P.T.oXL.[.y.e.r.0.7.4.2.2.~ ~ ~ E ~ E E E R R R I L K K A S C C C C B F G / ] ] 0 6 .                                           ",
"                                l U.@XoX.X|.y.e.w.8.6.4.2.~ ~ ~ ~ E E R R R R P P P P P K K S A A V V C N B B F G t s ] 7 .                                         ",
"                              x U.4XoX}.y.y.e.8.8.6.2.<.~ ~ ~ ~ E I I P P P P K L K K K K K S A A V V N N M n B F F / y s 7 .                                       ",
"                            x U.4XoX}.m.p.e.8.8.6.2.<.~ ~ ~ E R P P P K K K K K K K K K K K A C A V V V b N M n n : , 3 y s 8 .                                     ",
"                          x U.4X.X|.u.p.r.w.8.6.2.2.~ ~ E R R R K K K D K K S S K S K S S S A A V V V V V b M M n n : , 3 t s 7 .                                   ",
"                        x U.3X2X2Xy.p.e.8.8.6.2.~ ~ ~ E R R P K S K S A S S S A A E Y K S S A A A V V V N N N b v c ; ; ; 4 t a 7 .                                 ",
"                      l 1X4X2X2Xi.p.e.8.6.2.2.~ ~ ~ ~ R R K K K D A A A A A A A A 1.J.I S A A A A V V V N N b b c c ; ; ; : 3 u s 6 .                               ",
"                      1X4X3X2Xm.y.p.8.8.2.2.~ ~ E R R R K K K S A A A Z Z A Z A A ,.pXJ.R A A A A A V V N N b b v c c ; ; ; , 3 u s 6 .                             ",
"                    x 1X3X2Xi.y.p.8.7.2.~ ~ ~ ~ R R K K S K S A A A A V Z Z A A A <.iXuX|.S A A A A V V N N N b v v c c ; ; : < e a 0 . .                           ",
"                  l 1X4X2Xm.m.p.8.8.6.~ ~ ~ ! P R K K K S S S A A Z V V V A V V Z <.uXiXuXy.A C A V V V V V N N v v c c ; c ; ; < t a 7 .                           ",
"                  P.4X2X|.m.p.e.8.6.2.~ ~ ~ I P K K S S S S A A V A V A Z V V A V ,.uXiXiXuXy.L V A A V V V N N b v c c ; ; ; ; , 2 y s + .                         ",
"                x R.2X2Xm.y.8.8.6.2.~ ~ ~ P P P S S S A S S A A A V A V V Z Z V V ,.uXuXuXiXuX[.S V V V V N N N b b v v c ; ; ; : < q s r . .                       ",
"                P.4X2Xm.m.p.8.8.6.~ ~ ~ P P K D S S A S A A A A A A A C Z V Z V Z ,.uXuXuXuXuXrXm.C C V V V N N b b v v c c c ; ; , 2 y a % .                       ",
"              x R.3X}.J.p.8.8.6.~ ~ ~ R P K D S A A A A A S A A A A Z Z V Z V V A ,.eXuXrXuXuXuXwXt.A V V V V V b b N N b b c c ; ; , w s r . .                     ",
"              Z.4X.X|.y.e.8.6.,.~ ~ R R D D A A A A A A Z S S Z A A A Z A V V Z V ,.tXuXrXrXrXrXuX5Xt.V A V V V N N N N b b c c n ; : 2 u s + .                     ",
"            l R.oX}.y.e.8.6.2.,.~ R P K S A Z Z Z A A A S S A S A A Z A Z S Z V A ~ yXrXrXrXrXrXtXtX5Xr.V V A V V V V N b b v v n n m < w s 9 . .                   ",
"            l @X.XJ.y.r.8.6.<.~ R R P e.[.[.[.[.[.[.[.[.[.[.[.[.{.{.[.{.{.{.{.{.[.XXyXtXrXyXyXyXtXwXeX+Xm.S V Z V V V N b b b v c c m : 3 a a . .                   ",
"            Z.@X.Xy.e.w.6.2.~ ~ R R K [.wXwX8XeXeXeXeXeXeXeXeXeX8XeXeXeXeX8XeX0XyXyXyXyXyXyXyXyXeX0XeXwX5Xr.Z V V V V V N N N b c M n : G t a & . .                 ",
"          z T.oXJ.t.w.7.2.,.~ R R K A [.5X5X7X7X7X7X6XqX6X6X6X0X8X8X9X9X0X0X0X8X9XyX0X9XyX9X0XyX0X0X8X8X5X+Xr.V V V V V N b b b v c n : , w a 0 . .                 ",
"          z T..Xu.e.w.4.<.~ ~ R K D S {.6X6X6X6X6X6X6X6X6XqXqXqX6X9XqX9X9X9XqX9XyX,X9XyX9X9X9X9X9XqX9XqX6X6XXXm.A Z V V N N N b v c c ; , 3 a y . .                 ",
"          Z.T.L.t.w.7.2.,.~ R R K S A {.6X+X6X;X6X;X;X6X6XqX;X>XqX,XqX,X,X,X9X,X,X,X,X,X,X,X,X,X9X,X,X>X6X*X*XXX7.A V V V N N b v c n m : 2 y a O . .               ",
"        h Z.T.J.e.8.6.2.~ E R R K S S ].6X*X>X*X*X*X>X;X;X:X>X>X>X>X>X>X>X,X,X,X,X,X,X,X,X:X,X,X,X,X,X:X>X;X*X*X X0.C V V V N N b c c n : < t s % . .               ",
"        j I.T.H.e.8.2.,.~ R R K S A A ].$X*X$X*X*X<X<X<X<X<X<X:X:X-X:X:X-X:X:X-X:X:X:X:X:X:X:X:X=X:X:X:X<X<X*X+X+X X0.V V V N N b v c n ; < w s 7 . .               ",
"        j Y.Y.t.0.7.6.,.~ E R K S A Z t.XX$X$X$X$X$X$X$X$X%X%X=X-X%X-X-X-X-X-X-X-X-X-X-X=X:X=X:X-X-X=X=X%X%X%X$XOXOX X0.V N N V b v c ; ; , q s 9 . .               ",
"        j Y.K.t.0.6.2.~ ~ R R K S A Z e.XX&X#X#X$X$X#X#X#X%X#X#X%X=X=X=X=X=X=X=X=X=X-X=X=X=X=X=X-X=X=X=X%X#X#X#X&XOXOXG.4.V V b v c c n ; , q a r . .               ",
"        z Y. Xt.0.6.2.~ E R R S S A Z n.&X&X&X%X&X&X&X%X$X%X%X%X%X%X=X=X=X=X=X=X=X=X=X=X=X=X=X=X=X=X%X=X=X#X%X#X&X&XOX XG.3.N b b c c c ; , 3 a u . . .             ",
"        j Y.H.r.7.2.,.~ R R K S S A A n.n.n.n.n.Q.Q.Q.Q.Q.`.`.`.`.`.'.'.'.'.'.'.'.'.'.'.'.'.'.'.'.'.`.'.`.`.Q.Q.!.n.n.=.=.' :.b b v c n ; : 3 a a . . .             ",
"        j Y.H.r.7.2.,.~ E R R S S A A X.s.l.l.l.l.k.k.k.v.z.v.v.c.c.c.c.E.b.^.~.~.E.c.~.~.c.c.~.~.c.c.c.v.v.k.g.s.O.O.( ( 4 3 K v v c c n , 3 y y . . .             ",
"        j Y.F.0.5.2.,.~ R R K D S A A X.s.l.l.k.k.k.k.b.z.v.c.c.c.b.E.~.~.~.^.^.^.~.^.^.^.~.E.W.~.E.c.c.v.v.z.g.d.O. . .4 = ;.Z v c c n ; : 3 a y . . .             ",
"        j Y.G.0.5.2.,.~ E R D D S A A X.l.l.l.l.k.z.v.v.v.v.c.E.E.E.~.~.W.^.^.^.^.^.^.^.^.^.W.~.~.E.E.E.c.x.z.f.$.....4 > ;.S N b v c c ; , 3 a u . . .             ",
"        h Y.F.0.5.<.~ ~ R R R K S S S X.s.l.l.l.z.k.z.v.v.c.c.E.E.E.W.W.W.(.^.^.^.^.(.^.(.^.^.^.~.W.E.E.x.j.g.$.o.o.q = ;.L V N b v c n m , q a u . . .             ",
"        h D.F.0.5.<.~ ~ E R R K K S A X.O.h.l.k.k.z.z.z.v.c.c.c.E.E.W.W.W.W.^.^.^.^.(.^.^.^.(.^.^.~.W.x.x.j.%.O.o.^ = ;.K V N N b v c n n , q a r . . .             ",
"        h D.F.0.5.,.,.~ R R K K K S A X.O.h.l.k.g.g.z.z.z.x.x.c.x.c.E.E.W.W.W.W.(.(.(.(.(.(.(.W.^.W.E.x.z.f.$.$.^ = -.I V V N N b c c n ; < w a 9 . . .             ",
"        $ C.D.q.5.1.:.~ Y I P K K D Z X.+.O.s.d.h.f.f.j.j.j.j.z.x.x.E.E.E.E.E.W.W.(.(.(._.(.(.(.^.W.E.j.f.%.$.^ > 1.S V V V V b b c c n m < t s 7 . . .             ",
"        # C.D.q.5.<.#.W Y I P P K D S X. .O.O.O.$.$.$.f.f.f.j.j.j.j.j.x.x.j.x.E.W.W.(.(._._.(.(.^.E.E.j.f.f.^ = ;.K V V N V N b b c c ; : 2 t a & . . .             ",
"          k D.9.3.<.>.~ E I P P K K S X.( ....O.o.o.$.O.%.h.h.f.j.j.z.z.x.x.c.E.^.(.(._._.(.(.(.W.E.j.f.f.^ * ;.P V V V V N N b b c c m , 3 y y O . .               ",
"          $ S.G.3.1.:.E E I I P K K S ' J ^ ( ^ ( ( ( ( ) )  .( )  . . .) ....&.&.%.(.(._._.(.(.E.E.j.f.( * -.I Z V V V N N N b v c n m , q s t . . .               ",
"          $ V.S.q.1.:.W E R P P P K S ,.1 1 1 1 1 1 1 1 1 1 1 5 1 p 1 1 1 p 1 1 5 / (.)._._.(.W.E.j.j.) * ` R V V V V N N N N b b c n : < t a 9 . . .               ",
"          # g D.9.3.:.W R R I R K K K S ~ ~ E ~ ~ R Y E R ~ R ! T Y Y Y Y E E E I 4.^.)._.(.^.E.j.j.) > -.R V V V V V V N N b b c c ; : 3 y a & . . .               ",
"            $ S.9.3.#.W E R P P P K S S S Z Z Z V Z V Z V V Z V V V V A V C V V V :.^.).(.(.W.v.x.) = -.S V V V V V V N b b b b c m m , q a t . . . .               ",
"            # N.V.3.@.W E R P P K K S S S Z Z V Z V V V Z V V Z C V Z V Z V V V V >.~.(.(.^.c.c.) * -.I V N V V V V V N b b b b c m : < t s 9 . . .                 ",
"            o g V.*.@.W T I P P K K S A A Z A V V Z V Z Z V Z V Z V V A V V V V V >.~.(.^.b.b.&.= p I V V N V N V N N b b b b b n m , q a y + . . .                 ",
"              # N.V.@.#.I I P L K S A A A Z C V V V V V Z V V Z V A V V V V V V V >.b.~.~.b.&.= ` ! V N N V N N N N b b b b v v m : < t s 9 . . . .                 ",
"              o g V.*.' U I L L K S A A Z Z V V Z V V V V V V V V V V Z V V V V V >.b.b.b.%.> 5 ! Z V V V V V N N N b b c c c c m , 3 s t & . . .                   ",
"                # { N.' #.I L K S A Z Z Z V V V V V V V V Z Z Z Z A V V V V N V V ~ b./...> -.! Z Z V N N N N N N N v c c c c c m 2 t a 9 . . . .                   ",
"                X 8 N.| ' I L L S C V V V V V V V V V V V V V V Z V V V V N V V N ~ b...* ` Y V V V V N N N b b b b c c c c ; ; < w a t + . . .                     ",
"                  o d N.| U L C C C V V V V N V V V V V V V V V Z V V V N V N V V >...> p E V V V V N N N N b b v v c c c ; ; , 3 y a 7 . . . .                     ",
"                    o { { ' U H C C C N V N N V V V V V V V V V V V V V V V N N V R < 1 ~ Z V V V V V N N N v b v c c c n ; , 2 u d 9 . . . .                       ",
"                    X 8 M.{ _ H C C N N V N N N V V V V V V V V V V V V V N V N N N :.~ A V V V N V N N N b v c c c c ; ; , < t s _ 6 . . . .                       ",
"                      X 0 M.} _ H B N N b b b b N N N N N N N N V N N N N N V N N N V V V V N N N N N N v v v c ; ; ; ; , < w s t 6 . . . .                         ",
"                        X 0 { _ / H B N N b b v N N N N N b N N N N N N N N N N N N N V V N N b N N b b c c c c c ; ; : < w s u 7 . . . .                           ",
"                          . 0 { } G F B M M v v b b N N b b N N N N b b b N N N N N N N N N b b b b b b c c ; ; ; ; , 2 w a u 7 . . . .                             ",
"                            . 0 } } / J B m v v v b b b b b b b b N b b b N N N N N N N N N b b b b v v c c ; ; : : 2 t a y - . . . . .                             ",
"                              . 8 [ ] / G F m m M c c v c c v v c c c v v v c v v b b b v b b c v M c n n ; ; : < 3 u a u - . . . . .                               ",
"                                . 7 [ ] y G F : m m m n c c c c c c c c c v c c v v v v v c c c c c n ; ; : , 2 w y a t 6 . . . . .                                 ",
"                                  . 6 0 ] ] / 2 , F ; ; n ; n c c c c ; c c c c c c c c c n n M ; ; ; : , < q u a a 9 % . . . . .                                   ",
"                                    . . 7 s s ] q 2 , , : ; ; ; ; ; ; ; c c ; c ; c c c n ; n m : : , 2 3 t a a w 7 . . . . . .                                     ",
"                                      . . + 0 s s u / 3 < < : : : : ; ; ; ; ; ; ; ; m ; ; : , , < 3 q t a a y 9 + . . . . .                                         ",
"                                          . . 6 u s s a t w q 2 < < , , , : , : : ; , < < 2 2 q t y a s u r & . . . . . .                                           ",
"                                            . . . + 0 a a s a u t w q q 3 3 3 3 3 3 q w t y y s s a t 9 + . . . . . . .                                             ",
"                                                . . . . % 9 u a a s a a a a a a s s s s s s y u 9 & . . . . . . . .                                                 ",
"                                                    . . . . . O % 7 9 r u y y t u u r 9 - % O . . . . . . . . .                                                     ",
"                                                        . . . . . . . . . . . . . . . . . . . . . . . . . .                                                         ",
"                                                              . . . . . . . . . . . . . . . . . . . .                                                               ",
"                                                                        . . . . . . . . . .                                                                         ",
"                                                                                                                                                                    ",
"                                                                                                                                                                    ",
"                                                                                                                                                                    ",
"                                                                                                                                                                    ",
"                                                                                                                                                                    ",
"                                                                                                                                                                    "
};
