/* XPM */
static char *_wwqq_v472a[] = {
/* columns rows colors chars-per-pixel */
"82 82 232 2 ",
"   c None",
".  c #000C0E",
"X  c #000E10",
"o  c #001214",
"O  c #001619",
"+  c #00191D",
"@  c #00252A",
"#  c #003037",
"$  c #003B44",
"%  c #00265C",
"&  c #1F3D71",
"*  c #08346C",
"=  c #203D6F",
"-  c #00434D",
";  c #0F434A",
":  c #084A54",
">  c #0B5569",
",  c #2E4975",
"<  c #006473",
"1  c #036978",
"2  c #00606E",
"3  c #31656C",
"4  c #4E7176",
"5  c #170F86",
"6  c #170F88",
"7  c #180F8C",
"8  c #161383",
"9  c #161B83",
"0  c #18108E",
"q  c #17178A",
"w  c #1C1393",
"e  c #1B1B94",
"r  c #201795",
"t  c #221A96",
"y  c #261E98",
"u  c #281F98",
"i  c #162383",
"p  c #152B83",
"a  c #17278B",
"s  c #153485",
"d  c #153B84",
"f  c #15378A",
"g  c #1A2795",
"h  c #183A97",
"j  c #003987",
"k  c #2B239B",
"l  c #28279A",
"z  c #30279D",
"x  c #332B9E",
"c  c #26379F",
"v  c #3C349E",
"b  c #3F389F",
"n  c #362EA0",
"m  c #3B33A2",
"M  c #3838A3",
"N  c #2D38A0",
"B  c #423B9E",
"V  c #423BA5",
"C  c #004589",
"Z  c #154C8A",
"A  c #154687",
"S  c #15538B",
"D  c #155B89",
"F  c #004A97",
"G  c #174B97",
"H  c #00539A",
"J  c #155895",
"K  c #374E88",
"L  c #15658B",
"P  c #156F8F",
"I  c #00798B",
"U  c #007485",
"Y  c #16758C",
"T  c #156796",
"R  c #157C92",
"E  c #157898",
"W  c #007A8C",
"Q  c #0057A7",
"!  c #1B59A8",
"~  c #005BB7",
"^  c #1251A8",
"/  c #3747A7",
"(  c #2D51A6",
")  c #0062BC",
"_  c #006BB5",
"`  c #106BA8",
"'  c #326FB2",
"]  c #337A85",
"[  c #434E8B",
"{  c #4B5092",
"}  c #4442A9",
"|  c #4A44AA",
" . c #4D4BAC",
".. c #4648A7",
"X. c #524CAD",
"o. c #4953AD",
"O. c #5451AE",
"+. c #565AAD",
"@. c #5A55B1",
"#. c #5D5AB3",
"$. c #5556B1",
"%. c #4C5AB0",
"&. c #625EB5",
"*. c #4869B4",
"=. c #5965B5",
"-. c #5178BA",
";. c #6462B7",
":. c #676BB9",
">. c #6875BC",
",. c #7076BF",
"<. c #005CC3",
"1. c #006AC5",
"2. c #006DCB",
"3. c #0065C6",
"4. c #0072CD",
"5. c #006CD3",
"6. c #0065D1",
"7. c #0074D4",
"8. c #007AD5",
"9. c #007CDB",
"0. c #0076D9",
"q. c #0079E3",
"w. c #2E7AC8",
"e. c #737BC1",
"r. c #6B7EC0",
"t. c #008295",
"y. c #008A9E",
"u. c #00869A",
"i. c #15849B",
"p. c #168699",
"a. c #328895",
"s. c #068CA5",
"d. c #158BA3",
"f. c #1488A8",
"g. c #0195AB",
"h. c #019BAE",
"j. c #0991AB",
"k. c #1595AB",
"l. c #019DB4",
"z. c #0A9AB4",
"x. c #149CB4",
"c. c #1696B6",
"v. c #1988B4",
"b. c #389DAD",
"n. c #2B8EB1",
"m. c #00A2BA",
"M. c #08A4B9",
"N. c #14A4BA",
"B. c #33A1B1",
"V. c #508D96",
"C. c #5A83BD",
"Z. c #4B90B0",
"A. c #6D8FB2",
"S. c #57ABB7",
"D. c #6FABB4",
"F. c #6A969C",
"G. c #0083DD",
"H. c #0088DF",
"J. c #2E89DB",
"K. c #3492CC",
"L. c #04ACC2",
"P. c #15ABC2",
"I. c #05B7CB",
"U. c #16B6CA",
"Y. c #05BDD1",
"T. c #17BED1",
"R. c #32AFCB",
"E. c #0085E1",
"W. c #008BE2",
"Q. c #0081E9",
"!. c #0092E6",
"~. c #0098E9",
"^. c #2D9AE5",
"/. c #2D94E2",
"(. c #5887C2",
"). c #5198C5",
"_. c #6D8AC6",
"`. c #6989C5",
"'. c #7687C5",
"]. c #6897C9",
"[. c #7998CA",
"{. c #6F9CD4",
"}. c #48A8CB",
"|. c #54B3D0",
" X c #7AA3CE",
".X c #6BA3DA",
"XX c #78AAD7",
"oX c #66B5D3",
"OX c #78B9D7",
"+X c #6FB1C7",
"@X c #6BAAE6",
"#X c #68ABE6",
"$X c #75ADE5",
"%X c #67B3EB",
"&X c #6CB3EA",
"*X c #7DB2E6",
"=X c #72B5EA",
"-X c #7BB5E9",
";X c #7DB9EB",
":X c #73B0E7",
">X c #0AC4D6",
",X c #1AC5D7",
"<X c #28CADB",
"1X c #36C8D8",
"2X c #35D4E2",
"3X c #51C9D9",
"4X c #69C8DA",
"5X c #76C7DD",
"6X c #73D4DD",
"7X c #4AD7E4",
"8X c #5ADAE6",
"9X c #67DBE7",
"0X c #77DAE5",
"qX c #7BCCE0",
"wX c #7AE1EB",
"eX c #69E1EA",
"rX c #83B6DA",
"tX c #8CB3DA",
"yX c #84B4E5",
"uX c #8CB9E5",
"iX c #84BBEA",
"pX c #8BBDEA",
"aX c #89B6E4",
"sX c #91BBE4",
"dX c #92BBE5",
"fX c #89C5E8",
"gX c #99C3EB",
"hX c #83DBE8",
"jX c #A6C6E8",
"kX c #B3CCE8",
"lX c #83E2EC",
"zX c #90C3DC",
/* pixels */
"                                                                                                                                                                    ",
"                                                                                                                                                                    ",
"                                                                                                                                                                    ",
"                                                                                                                                                                    ",
"                                                                  4 a.b.b.b.b.b.B.d.a.1 > ;                                                                         ",
"                                                          V.S.|.7X7X7X7X7X7X7X7X7X2X2X2X2X,XP.i.1 ;                                                                 ",
"                                                    V.S.8X8X9X8X3X3X|.|.|.}.}.}.}.}.}.R.R.1X2X<X<XI.s.1 #                                                           ",
"                                                S.4XeXeX9X4XoX|.].(.C.-.-.*.*.*.' *.' ' ' n.c.K.U.<X,X>XI.I -                                                       ",
"                                            D.9XeX0X4XoX].].`.-.-.=.%.%.o.o.o...../ / / / ( ( ! ` ' K.T.,X>XY.I $                                                   ",
"                                        F.6X9X0X5XoX].`.-.=.=.$.O.o. ...| } M / M M M M N N c c ( G ^ ` v.N.,X>XL.1                                                 ",
"                                      D.eX0XqXOX{.`.r.:.=.#.O.X. .| } } V M m m M n n x z l l l g g g h G ` v.N.,XY.y.-                                             ",
"                                  F.0XwX0X5X X_.r.:.=.#.$.O.X.| V V m m m m m n x x z z z k y t y e t g g h G ` c.U.Y.I.<                                           ",
"                                D.0XwXfXXX_.r.e.;.;.#.O.X.| V V m m n n n n x x x z z z k k y t t w w e e a g h G E N.T.Y.I                                         ",
"                              D.wXhX5X X'.e.e.;.#.#.O.| V V V m m m x z z x z k z k k l k k y y t w w w q q q a h G ` c.U.>Xu.                                      ",
"                            D.lXhXrX X'.r.:.;.&.@.X. .V V V n n x k z k k k k k k k k k y y y t w w w w 0 0 q q q p f T f.U.Y.y.                                    ",
"                          D.wXhXrX[.'.e.:.:.&.@.X. .V V m n n n k k k k k k y y y y y k k y t e t w w w 0 7 0 q 9 q i f J f.P.Y.s.                                  ",
"                        D.lXhXrX[.A.,.:.;.@.@.V V V V n n n n k k k t t t u y y t v V u y y t t w t w w 0 0 7 7 6 6 8 i s J f.P.Y.t.                                ",
"                      F.lXhXrXrX'.,.:.&.&.@.@.V V V V n n z k k u t t t t t t t t X.,.n y y t t t w w w 0 0 7 7 6 6 5 5 9 s J f.U.Y.U                               ",
"                      6XlXzX X'.e.:.;.@.@.X.V V m n n k k n y y t t t r t t r r r  .jXA.z y y e w t w w 0 0 7 7 6 6 5 5 9 i d J k.T.I.<                             ",
"                    5XlXzXXX[.,.:.;.&.@.V V V V n n z n y y t t t t r r r r r r t | kXjXe.k t t t t w w 0 0 7 0 6 6 * 7 8 9 p d T c.I.h.:                           ",
"                  D.hXhXtXtXe.e.;.&.@.V V V V B n k k u y y y t t w t w r e r r r | jXkXkXe.w w t t w w w w 0 0 7 5 5 5 8 * 7 q A E P.Y.s.                          ",
"                  0XlXrXe.e.e.:.&.@.X.V V V z u z k y y y y y t w t t w w r r w r | jXkXkXgXe.z t w t w w w 0 0 7 5 5 5 5 8 8 9 p J f.U.I.1                         ",
"                D.wXrX[.e.e.:.;.@.V V V V z z k y y y y y t t t t t w w r w w r w | jXkXkXjXjX_.k w w w w 0 0 0 7 7 7 5 5 5 8 9 i f T x.I.h.$                       ",
"                0XhXrXtXe.,.;.@.@.X.V V z z k u y y t t t y t t w w t t w r r w w V jXjXjXjXjXjXr.t w w w w 0 0 w 7 7 5 5 5 8 8 9 p Z i.P.I.I                       ",
"              D.wXhX[.A.e.;.#.X.V V V V z u u t t t t t t t y t t t t w e t w w r V gXjXjXjXjXgXsX>.r w r w w w 7 0 0 7 7 5 5 5 8 i f T c.I.l.-                     ",
"              0XlXOX[.e.:.;.@.X.V V n z k y t t t t t t t y t t t t t w t w t w t V dXjXgXgXgXgXjXtX>.w w w w w 0 0 0 0 7 7 5 5 8 9 p Z E P.I.U                     ",
"            F.wXqX Xe.e.;.@.O.| V n z k t t r r t t t t t t t t t t t t r w w w w V pXgXgXgXgXgXgXzXtX:.r e w w w w w 0 7 7 7 5 8 8 i f T x.I.h.#                   ",
"            oXlXOX[.e.;.#.@.| V V n z :.'.`.'.`._._._._._._._.'._._._._._._._.{._.$XpXgXgXgXgXgXgXsXdXtX>.t r w w w w 0 0 7 7 5 8 8 9 p S f.P.m.<                   ",
"            9X0XXX'.:.;.@.X.V V n k u '.sXsXdXdXdXdXdXdXdXdXdXdXdXuXuXdXpXuXuXdXpXpXpXgXgXpXpXfXdXpXdXdXrX:.r w w w w w 0 0 0 7 6 8 8 a A E N.I.s.+                 ",
"          D.0XqX Xr.:.#.O.| V n n k u `.aXtXtXyXaXaXaXiXyXyXiXiXuXuXuXiXpXpXpXpXiXpXpXpXiXpXpXpXpXpXpXaXuXXX:.e r w w w 0 0 7 7 6 8 8 i s T d.I.l.$                 ",
"          D.wX5X_.>.;.@.X.V V n k u y `.yXyXyXyXyXyXyXyXyXyXiXyXiXiXiXiXiXiXiXiXiXiXiXiXiXiXiXiXiXiXiXyXyXtXXX;.t r w w 0 0 0 7 6 5 8 9 p S d.P.m.1                 ",
"          4XwXoX_.:.#.X.| V n n k u t `.yXyX$XyX*XyX*X*XyXyX-XiX-X-XiX-XiX;X-XiXiXqX;XiX;X;X;XiX;X;XiX-X*X*X*X{.#.r w w w 0 0 7 6 6 8 8 a A E N.L.W o               ",
"        4 9X0X+Xr.;.@.X.} m n z y y w {.yX$X$X-X*X$X*X*X-X:X-X-X-X-X-X-X;X;X;X;X;X;X;XqX;X;X;X;X=X;X;X=X-X*X$XXX{.=.e e w 7 7 7 6 6 5 8 i d P x.L.g.@               ",
"        V.9X5X].r.=.O.| V n n z y t r -.@X$X$X@X:X:X:X:X:X:X=X=X=X=X=X=X&X=X=X&X=X=X%X=X&X&X=X=X=X=X&X;X:X=X$XXX.X].=.e w w 0 0 7 6 5 8 i s L k.L.m.$               ",
"        F.9X4X`.:.#.O.| V m x k y y r r.{.@X#X@X@X@X@X@X@X&X%X&X&X&X&X&X&X&X&X&X5X%X%X=X&X&X&X&X&X&X&X&X&X@X&X.X@X.X].=.w w 0 0 6 6 8 8 9 s D d.L.m.:               ",
"        S.eX4X`.>.$.X.| m m x k y t w :.{.@X#X#X#X@X#X#X#X#X#X#X#X%X#X%X%X%X%X%X%X%X%X%X%X%X%X%X%X%X%X%X#X#X#X#X#X.X{.C.$.w 0 0 6 5 5 8 9 p S d.P.m.1               ",
"        S.eXOX`.=.$. .V m n x k y t r -.@X#X#X#X#X#X#X#X#X#X&X#X%X#X%X%X%X%X%X%X%X%X%X%X%X%X%X%X%X%X&X&X#X%X%X#X#X#X.X{.C.O.7 7 7 6 5 5 9 p Z i.M.m.U .             ",
"        S.9XoX`.=.$. .V n n k k y t w w.w.w.w.w.w.J.J./.J./././././.^.^.^.^.^.^.^.^.^.^.^.^.^.^././././././.J.J.w.w.w.' ' J ..7 6 6 5 8 9 p Z i.N.l.W X             ",
"        S.9XoX(.=.O. .V n n z y t t r <.<.<.6.6.6.6.5.q.7.0.0.0.0.9.9.9.9.G.W.Q.G.G.E.G.E.G.G.9.q.9.9.0.7.7.7.5.6.~ ~ F F * = k 6 6 5 8 8 p Z R x.l.W o             ",
"        |.9X|.r.#.O.V V n n z k y t t ( <.6.5.5.5.6.q.5.0.0.0.9.G.q.G.E.E.E.W.W.E.W.E.E.W.E.W.G.Q.Q.q.G.0.0.7.2.3.~ Q Q * % { r 6 5 5 8 8 p Z R P.l.s.o             ",
"        S.8XoX-.#.o.} V n n z y y t t <.<.6.6.6.5.7.7.0.0.q.9.G.G.G.E.E.H.H.W.H.W.W.W.W.H.H.H.H.G.G.G.G.8.8.4.1.) Q Q j % { u w 7 7 5 8 8 p Z i.x.l.t.O             ",
"        S.8XoXC.=.o.| V n n z k k y y ! <.6.5.5.5.7.7.0.0.0.0.G.G.G.G.E.H.W.!.W.!.W.!.W.!.W.!.W.W.G.G.9.8.7.2.) ~ ~ > % { k w 0 7 6 6 8 9 p S p.z.m.t.O             ",
"        Z.8XoX(.%.O.| V m n z z k y t ! <.3.6.5.5.7.7.7.0.0.G.G.G.G.G.H.H.H.W.W.W.!.W.!.W.W.W.W.W.H.G.G.8.4.1.~ ~ C % { z w 0 0 7 6 8 8 9 p D p.z.m.I o             ",
"        V.7X3X(.=. .| V n n z k y y y ! ^ 3.6.6.2.2.7.7.8.8.8.8.8.G.G.H.H.H.W.H.W.W.!.!.!.!.!.!.W.H.G.G.4.1.~ _ C % [ x w 0 0 0 6 6 8 8 9 s D p.z.m.U .             ",
"        4 7X3XZ.=.o.V M n z n u u u u ! ~ ~ <.3.1.1.2.2.4.4.7.8.8.8.G.G.G.G.G.H.H.!.!.!.~.!.!.W.W.H.G.8.2.) ) C % ..y w 0 w 0 0 7 5 5 8 i s L d.M.m.1 .             ",
"        3 2X3X).*.o.} m n n n z n u u ! ^ ~ ~ ~ ~ ) ) 1.1.1.2.2.4.4.4.7.4.8.G.G.H.W.!.!.~.~.~.W.W.G.8.4.1._ C % { k w w w 0 0 0 6 6 5 8 i A P d.M.m.> .             ",
"          }.8X}.*.%.} m n n k k u u u G F Q ~ ~ ~ ~ ~ ) ) 1.3.2.4.4.4.4.8.8.9.H.W.~.~.~.~.~.!.!.H.G.4.1.) F % { x r w w 0 7 0 0 6 5 8 9 i A R f.h.l.$               ",
"          b.8X|.-.%.} V n n n z n k k ( j C F C F F H F H H H H H Q Q Q H Q Q Q Q _ !.~.~.~.~.W.G.8.4.4.F % [ x r w w w w 0 0 0 5 5 8 9 p D R c.h.g.#               ",
"          ] 7X|.Z.' ..M m n n n z k y | & & & & & & & & = = = = & & & & & = & & = A !.~.~.~.!.H.G.4.4.H % B x r w w w 0 0 w w 7 6 8 9 i s L p.z.m.t.+               ",
"          3 1X7X).%...M m n x x z k y k V V V m m m m m m m m m v v b b m V m m x o.W.~.~.~.W.G.4.4.H % K n w w r 0 w 0 0 0 7 7 6 8 8 i A P d.h.m.< .               ",
"            B.7XR.*./ / n x x z z y k y t t r t r w w r r w w r w e r r r w w w r V W.~.~.!.E.0.8.H % { y w w w r 0 0 0 0 7 7 7 8 8 9 p S p.f.g.l.- o               ",
"            a.2X|.K.o./ M n x k z y y t t t r w w r w w w w r w t w w r w r w w w } E.!.!.H.9.9.H % K v w 0 w w 7 w w 7 7 7 7 6 8 8 i d L p.z.m.u.@                 ",
"            ; 1X2X}.' / N n z z k y y t r r r r r w w w r r w r w w t w w w w w w } E.W.W.G.q.Q % K x w w 7 w 0 w 0 0 7 7 7 6 5 9 9 & Z R d.m.m.1 .                 ",
"              a.2X}.' / M N x k k y y t t r r w r w w w w w r w t w t w w w w w w } E.Q.q.Q.` % , B w w 7 w w w 0 0 0 7 7 7 5 5 8 i s J p.j.g.g.$ o                 ",
"              : <X1XR.' / N l l k y t t r r w w w w w w w w r r w w w w w w w w w } q.q.q._ % = B r w 0 w w 7 w 0 0 7 7 6 6 5 5 9 p Z R f.h.m.I o                   ",
"                p.<XR.' ( c z k y t t r r w w w w w w r r w w r t t w w w w 0 w 0 } q.q.~ % [ B r r w w w 7 0 7 0 7 6 6 5 8 8 8 i d L p.j.g.l.- .                   ",
"                ; T.<XR.' c l l y t e t w w w w w w w w w w w w w w w w 0 w 0 0 w V q.~ % K n r w w w 0 7 7 7 7 7 7 5 7 5 7 5 5 * S E f.M.m.I O                     ",
"                  3 ,X<Xn.( c g e e w w w w 0 w w w w w w w w w t w w w w 0 w w w V Q % , B r w w w w 0 w 7 7 7 7 7 7 5 5 * 9 i A Y p.j.l.g.$ X                     ",
"                    x.<XR.' G l e e w 0 0 w 0 0 w w w w w w w w w w w w w 0 0 w w n = s B r w w w w w 7 w 7 7 7 5 5 5 7 5 5 i d L p.s.s.m.1 o                       ",
"                    : >X,XP.` h g e e w 0 0 0 0 0 w w w w w w w w w w w 0 w 0 0 7 7 | V r w w 0 w 0 7 w 7 7 5 5 5 5 5 * 8 & d L p.f.m.m.u.@ +                       ",
"                      1 >X,XP.! h g q q q 7 0 7 0 0 0 0 0 0 0 0 0 0 0 0 0 w 0 w 0 0 w w 0 w 0 0 0 0 0 7 7 7 5 5 8 8 8 9 i & D R d.g.l.g.- .                         ",
"                        t.>XT.v.! G g q q 7 7 7 0 0 0 0 0 0 0 0 0 0 0 0 0 0 0 0 0 0 0 0 0 w 0 7 0 0 7 7 5 5 5 5 * 8 9 9 d S Y f.j.g.m.2 o                           ",
"                          u.Y.T.v.! h a e q 7 6 7 7 0 0 7 7 7 0 0 0 7 7 0 7 0 0 0 0 0 0 0 w 7 7 7 7 7 7 7 5 8 8 7 5 * s D R i.s.g.m.U +                             ",
"                            s.Y.U.k.Q G a a 7 6 7 7 7 7 7 7 7 7 0 0 7 7 7 7 0 0 7 0 7 0 0 0 7 7 7 7 5 7 7 7 * 9 9 i A D R i.s.g.m.U @ O                             ",
"                              y.Y.U.c.E G h a 9 q q 0 q 5 5 5 7 7 5 5 5 7 5 7 5 7 7 7 7 7 5 7 5 5 5 7 5 5 5 8 i s A L R i.g.g.m.I @ o                               ",
"                                u.>XT.x.E J f a q 9 9 8 8 5 5 5 5 5 5 7 7 5 5 5 5 7 5 5 7 5 5 5 5 8 7 * * 7 & d D Y p.f.g.h.m.I @ o                                 ",
"                                  I Y.Y.P.f.T Z f a i 9 9 5 8 5 5 5 5 8 5 7 5 5 5 5 5 5 8 q 8 8 8 9 9 i p d A L R i.s.h.l.l.1 @ o                                   ",
"                                    < l.Y.U.x.d.T Z f p i 8 7 * 7 * 8 8 * 7 5 5 * 5 5 5 8 8 9 8 9 i p d A L E E f.j.s.m.h.2 + O                                     ",
"                                      : y.I.I.P.k.d.T S A s p i i 9 9 9 8 9 8 9 7 5 9 9 i i & a s A S L R i.i.j.h.l.m.y.- X                                         ",
"                                          1 l.I.I.N.x.d.E J S A d s s p p p p p i 9 s s d d A S L Y p.p.d.c.l.g.m.g.1 @ .                                           ",
"                                            $ I l.I.Y.P.N.k.d.E P L D S S Z Z Z Z S S D L Y E p.p.d.f.z.l.g.m.l.I $ o O                                             ",
"                                                $ U h.m.L.U.P.N.x.k.k.p.p.i.E d.E p.p.d.d.d.k.v.z.h.g.m.m.h.I - O X                                                 ",
"                                                    $ < y.l.m.L.L.L.M.P.M.x.c.x.x.x.z.z.l.l.l.l.m.m.l.y.1 $ o .                                                     ",
"                                                        + $ < W g.m.m.m.m.m.l.l.l.m.m.m.m.m.l.g.t.< - @ . o                                                         ",
"                                                              o @ $ : < U W W t.u.t.I U 1 > - @ O . .                                                               ",
"                                                                        . o o + O o . . . .                                                                         ",
"                                                                                                                                                                    ",
"                                                                                                                                                                    ",
"                                                                                                                                                                    ",
"                                                                                                                                                                    ",
"                                                                                                                                                                    ",
"                                                                                                                                                                    "
};
