/* XPM */
static char *a1qho_1hlmo[] = {
/* columns rows colors chars-per-pixel */
"82 82 78 1 ",
"  c None",
". c #00BCBE",
"X c #02BEC0",
"o c #06BFE0",
"O c #03C2C4",
"+ c #08C4C6",
"@ c #0BC6C9",
"# c #01CACE",
"$ c #0ECACC",
"% c #10CCCE",
"& c #00C6D6",
"* c #01CDD3",
"= c #06C2DE",
"- c #05CCDD",
"; c #09CCDB",
": c #14CFD2",
"> c #03D1D6",
", c #0BD4D7",
"< c #05D4DD",
"1 c #0AD5D9",
"2 c #05D8DF",
"3 c #0CDADD",
"4 c #15D2D4",
"5 c #18D4D6",
"6 c #14D7D9",
"7 c #1BD6D9",
"8 c #12DCDF",
"9 c #1DD9DB",
"0 c #06C0E2",
"q c #0AC3E5",
"w c #03CDE2",
"e c #0EC9E7",
"r c #0FCAE8",
"t c #11CBE6",
"y c #12CCE9",
"u c #03D3E4",
"i c #0CD3E6",
"p c #06DAE2",
"a c #0BDCE5",
"s c #00D3EC",
"d c #0AD4EA",
"f c #00D8ED",
"g c #0EDBE9",
"h c #12D0E3",
"j c #16DEE1",
"k c #19DFE1",
"l c #15D2EA",
"z c #19D5EC",
"x c #14DBEA",
"c c #1CDBEE",
"v c #00D6F2",
"b c #00DCF5",
"n c #0CDEF5",
"m c #00DEF8",
"M c #17DDF0",
"N c #1CDFF0",
"B c #20DFEF",
"V c #0FE0E7",
"C c #13E1E5",
"Z c #1DE3E6",
"A c #14E3EA",
"S c #1CE4ED",
"D c #1DE8EE",
"F c #0BE0F7",
"G c #00E1F8",
"H c #0BE3F8",
"J c #1CE5F5",
"K c #1FE9F4",
"L c #1BE7F8",
"P c #1CE9FA",
"I c #20E5EE",
"U c #20E9ED",
"Y c #21E5F0",
"T c #22EAF3",
"R c #2AEDF7",
"E c #23EBF9",
"W c #2AEEF9",
"Q c #2DF0FA",
/* pixels */
"                                                                                  ",
"                                                                                  ",
"                                                                                  ",
"                                                                                  ",
"                                 %$$$$$$@@++OO                                    ",
"                             446jCAAAAAACgVa3,#OOX                                ",
"                          44jAASAAAxAgxgxggjggaa2>...                             ",
"                        7kSDSSSxzxxllllhiliiiiiapaa2#..                           ",
"                      7ZDJJNNMzzzllyyyyyytterrewwiipp2*X.                         ",
"                    7ZDIJNczzzzylllyyryrtteerqqqqwquuup>#.                        ",
"                   9ZKDSczzzzyzyyyryrrrrryqqqqrqqqw0q<<pp>..                      ",
"                 7IUDYccczzzzyyzytrrrrrrqqrqrqqq0qq000qwu2>*.                     ",
"                9IUIBBBzzcllyyyytrrrqrrqqrrqqqqoq000000-q<22>.                    ",
"               9UYIBzBzzlllyyyyoeerqrqrqrqqqrqqq0qq0o=0===-22>.                   ",
"              9UTYBcBzzzzyyyyyyyeqqqqqqrqqqqqqqoq000000====--2*.                  ",
"             9IUBBczzzzzyyyyyyooqqqeqqqqqqqeqqqq0q000000====-<2*X                 ",
"            9UYYBBBzzyzyyyryoyoyororroooqyroqqqoqqq0ooooooooqwwp>.                ",
"           9UTBBBBzzyzyyyyoyyorooorooorroyBtqqqq00q0ooooovoooq-<>*.               ",
"           ITYYBBzzzyyyyrrrrooyyroooorooqyRBqqoqqoqooooooooo===-<2*.              ",
"          9UUBBBzlzyyyyyrroryoooooroooroqyQWBqqqqqqooooooooo====-2>..             ",
"         9UTBBBzzzzyyzoyrrooorrorrooooroqyQQWcqqoqqooooo0oo=oo==-->*.             ",
"         ITIBBzzzzyyyoyoorrooooooooooooooyQQQWcqqqoqoqoo=00oo=o==-22#.            ",
"        9YBBBzzzzyzyyyoyroorroorooororrooyWQWQWJqoqoooovo0o=ooo===<><..           ",
"        BYRBBzzzyyozooyoorooorororooooooqyWWWWWEMooqoqoo0ooo==oo=0--2#.           ",
"       7UYIczzzzyyoyrooorororororoooooooqyWWWWEQEcqooooo000o0o00===-2<..          ",
"       ZTIBczzzyyyyororooooooooooorororo0yEEWWQQWEMororo000000o0o==-<>#.          ",
"      7DYBczzzyyyzoyrooooorooroorooorooo0yEEEEQEEWEzoooq0ooo0000o===-2*..         ",
"      9TYBczzyyyoooBNNBBBBLBBNNcNNLBNNNNJPWQEQEEWEEENoqo0q0000o00===-2<X.         ",
"      ZIccczlyyryooBWWEEEEEEREEEEEEEEEEEEEEEEEEEEWEEYcooqoqoo0o0o0===<<#..        ",
"     7DDBczllyyyzooBEEEEEEELEEEEEEEEEEEEEEEEEEEEEEEEEYcooqoo0000oo===-2<..        ",
"     9KScczzyyyroooBEEEEEEEEEEEEEEEEEEEEEEEEEEEEEPEEEELzqqqo00o00==0=-<<..        ",
"     9DSczlyyyyooyoREBEBEEEEEBEEEEPEPEEEEPEPEEEPEEEEPEPNnq0q0o000o===-2<O..       ",
"    4ZDcBzzyyrrqqqoMNEELEPEPEPPPEPPEPEPEPPPPEPPPPEPEPPEKJlq00000o0====<2#..       ",
"    4SSczzylrrrrqqqNELLELPPPPPPPPPPPPPPPPPPPPPPPPPPPPPLKKJlqq00o00oo=-<2&..       ",
"    4DSczyyyyrrqqqoNLNPPLLLLPPPPPPPLPPPPPPPPPPPPPPPPPLLLLJJlqo00o0oo==->>..       ",
"    4ASczzyrrrqrqooMLLnLLLLLLLLLLLLLPPPPPPPPPPPPPPPPLLLLLJJxloqooo====-2<..       ",
"    7SSxzyyyrrqqqqoMNLLLLLLPLLLPPLPLPPPPPPPPPPPLPPLLPLLLLLJJMlo00o0o==-<<...      ",
"    4SSzzyyyrqroqqonynnnnnnnnnnnHHHHHHHGHHHHHHHHHGHHHHHnnnddddro00=o=0-<<...      ",
"    4DclzyyyreqqooovvvvvvbvbbbbbbbbbmmGGbbmmGmbmGGGbbbvvfssww-wq0ooo==-<<...      ",
"    4ScBzylyrrqerroyvvvvvvbbbvbbbbmbmmmGGGbbGbmGGGbbbbbvvsss-&hqoo====;<<X..      ",
"    4AAzlyyyreqroqolvvvvvbbbbbbbbbmmbGbGmbGmGGGbbmmbbbvvssu-&hq000oo==w2<...      ",
"    4DSxllyyeeqrorovvvvvvbvbbbbbmmmmGGGGGGGGGGbGmmbbbbvsss-&hq000o0===-><...      ",
"    :AxzlyyyqqrqqqodvvvvbvbbbbbbmbmbGbbGGbmGGGGGmbbbbvfssw&tq00000oo==<2-...      ",
"    %ASxllyryqqqqqrvsvvbvvvvvbbbbbbmGbGGGGGGGGGGGGbbbfsfw&heq000oo=o==-2>...      ",
"    $CAxlrlrrrrqqqqrqsvvvvvvvvvbbbbbGbbGGGGGGGGGmbbbvffw0dro0ooo0=o==--2*...      ",
"    $8SxllrrrrqqqqqdssssssfvvvvvvvbbbbbbGbGGGGGGbGbvvv-&rroo0qoqo0o===<<*...      ",
"     6AxlryrrqeqeqqwsssssvsvfvvvvvbvfbbbbGGGGGGGGGbfvw&rr0qoqooo00===-<<O..       ",
"     $Axlyyyrrqeqqqd0ww0wuwwuuwsusususussfGGGGGGbbvvu&hroqoooooqoo===-2<...       ",
"     $CAlllrrqrqrqqnqq-;;;-;rqww;--e-qsq;wGGGGGmbvbuorrq00ooqoqo0o===<2<...       ",
"     @3AxirerrqeqqqqrrrrrretryrrtrryyrrrrlGGGGGbbfu&dr0000oqoooo0o==;<>#...       ",
"      $Axhreeeeqrqqq0qqqq0o0orooooqoooro0yGGGGmbvu&hrooqqqoooqoq====-<-....       ",
"      +agglreeqeqqqqq00qo0oqooooqooqoqoo0yGGGGbbu&eroqoooooooooo0===<2-...        ",
"      +,Vxieeeqqrqqqqoqqqooqoqoooqoqoroo0ymmGbmu&1qqqooooqoqoooo===-2>#...        ",
"       @Vggeeqqqqqqoqqoooqqqqoovqoroqooooymmmbs&eyoooooqooooqooq==-<2-....        ",
"       O,Vgerrrqqqqoqooqqqooooqoorooqooooybbms&rtq0qqoqooooooooq0=-2<#...         ",
"        +aaierqqqqqqqoqoqoqoqooqooooqooooybms&yr0000oooooqqooqoo=-<>-....         ",
"        X>Vaieqqq000000qoooooroooooooroooyms&;roqoooo0o0ooqooo00=-2-#...          ",
"         O1giwwqqq0qq000ooroooororoooooooyvo;yoroqoq0000oqoooqow-<2*....          ",
"          Oaaiqqq0000qo0ooooooooooooorooor0ryqoooo0o00oooooo==0w<2-....           ",
"          .>aiww0w000000ooorooooooorooooooynoooooq00o0=ooqoq==--2<#....           ",
"           X>ppwq000oooorooooooooooooooooooooooooooo=ooo=o===&-2<*....            ",
"            X>puwq00oooooooooooooooooooooooooqoooqoqoo=ooo===<2<*....             ",
"             .<puwroovoooooooooooooooovooooovooqooooo=o====--2<*....              ",
"              .<dssoooooooovoooovoooooooooooooooqoqooo====--2-*.....              ",
"               .>p2w=====oo0=o00oooo00o00oo0o00o0ooo=====-22>*.....               ",
"                .>u2u;;q===oooo==o=o=o0o=o000o=oo==o===;-<>u*.....                ",
"                 .#>2<<==0==o=o=ooooo=oooo=ooo======;=-<2<*#.....                 ",
"                  ..>u22---====o==ooooo===oo==o====---2<<&X.....                  ",
"                   ..#>2<<--;============o=======--2<>2-#.....                    ",
"                     ..*<222----=-=-===0==-==---<<2><-#......                     ",
"                      ...#<>2>2>---------w;-<<<22><-#.......                      ",
"                        ....*-<222>2<2<<2>222<<--*........                        ",
"                          .....O#*-><<<<<-<-**O.........                          ",
"                            ..................X.......                            ",
"                               ....................                               ",
"                                    ..........                                    ",
"                                                                                  ",
"                                                                                  ",
"                                                                                  ",
"                                                                                  ",
"                                                                                  ",
"                                                                                  "
};
