/* XPM */
static char *xqxtw_y2vjd[] = {
/* columns rows colors chars-per-pixel */
"82 82 37 1 ",
"  c None",
". c #121212",
"X c #131C1D",
"o c #1B1B1B",
"O c #161727",
"+ c #151D25",
"@ c #16152A",
"# c #18172C",
"$ c #161B29",
"% c #1B1A2D",
"& c #1F1E30",
"* c #201F30",
"= c #162227",
"- c #1B2425",
"; c #15232A",
": c #1D232D",
"> c #17282C",
", c #1C2A2D",
"< c #122435",
"1 c #1D2331",
"2 c #122837",
"3 c #1D2A33",
"4 c #122738",
"5 c #122A39",
"6 c #1A2C39",
"7 c #232323",
"8 c #20212E",
"9 c #252C2D",
"0 c #232331",
"q c #242B33",
"w c #282D34",
"e c #242F39",
"r c #263032",
"t c #293133",
"y c #25313B",
"u c #2A323A",
"i c #31363B",
/* pixels */
"                                                                                  ",
"                                                                                  ",
"                                                                                  ",
"                                                                                  ",
"                                 ooooooooo.oo.                                    ",
"                             o7-,93,q,r39,,,==o...                                ",
"                          779rrqq9q9q1,,:3;,,,,>>=...                             ",
"                        799rqq,qq181:0::1*1::;<2;,>=X..                           ",
"                      79rrqee000801%*%*&%&%%%%%%&;><>=+..                         ",
"                    799www0000**8&0**%%&&%%%&###$$$$=>;=X.                        ",
"                   7ttwww0000****&%%%**%%%%%#&######$$;;>=..                      ",
"                 79ttww90000*&&&%&*%*%#%#%%%##&####$@$$$>==X.                     ",
"                7wtww00w00***&&&&%&%%%%%%%#%##%##@#@@@@$$$=>=.                    ",
"               7wwwww000000*&&%%%%%%%##%##%%#%#####@@@@@$$$==X.                   ",
"              7tiww0000*0*&%&%&#%%%%##%%#%%#######@@@@@OOO$$===.                  ",
"             7ttww0w000***%&%&#&####%#######%####@#@@@@@OOO$$==X.                 ",
"            7iwww00000**&&#&#&##%%##&##############@@@@@@@@@@@$+X.                ",
"           79iwww00000**&&&###&####8:*#@#######@###@@@@@@@@@@@++=+.               ",
"           9iwww0000****&#&#######0i::##########@##@@@@@@@@@O@@+==X.              ",
"          799ww00000**%%#&#&#&##O0ii:8###########@#@@@@@@@@@@@@$===..             ",
"         7iii0w00***%%%%&#######&uii:8$#############@@@@@@@@OOO@$$=X.             ",
"         wi90w00*****%%%#######*uiii:8#@######@##@##@@#@@@@O@OOOO$=>X.            ",
"        7www0ww0*****#%%&#####*uiiii<%##########@#@#@@@@@@@@@OO@O$===..           ",
"        wwwww000***##%#######0uiuiii<%###########@#@@@@@@@@@O@@OOO$==X.           ",
"       7ttwww*****#*########&uuiiuii1%####@#@#########@#@@@@@@@@OOO+==..          ",
"       9ttw00*****#########*uiiuuiui3:O###@@######@###@@@@@@@@@@@O@O==X.          ",
"      7rww00******########*eiuiuuuii;%@##############@@@@@@@@@@@@@OO+==..         ",
"      7tww00****###*#####%eiuuuuiuuueq00000011000100010*@&1&@@@@@@OO$==..         ",
"      9tw000***%*#######*0uuuuuuuuuuuuuuuuuuuuuuyuuuuuwutuw;@@@@@@@O$==X..        ",
"     7rww000***%*######*euuuuuuuuuuuuuuuuuuuuuuuyuuuuuuuuut$@@@@@@@O$==+..        ",
"     7tq0000***%######*wuuuuuuuuuuuuuuuyuueuuuueuuuuuuuuuuw$@@@@@@@OO$==..        ",
"     9tw0000**%%#####**ueuuyuuuyyuuuyuyuyyyuueuueeuuueueuwe$%@@@@@@OO$==X..       ",
"    79qq00**&&&#####%qyyyyyyyyyyyyyuuuyuyyyyyuyyyyyyeueeyew=%#@@@@@OO@=;X..       ",
"    o9qq0**&%&#####%qeeeyyyyyyyyyyyyyyyyyyyyuyyyyyyyuyeueee$%#@@@@@@OO$=+..       ",
"    7rqw00*&&##&##@qeeeyyyyyyyyyyyyyyyyyyyyyyyyyeyyyeeeeeew$%@@@@@OO@OO==..       ",
"    7rq000*&&%%%#&qeeeyeyyyyyyyyyyyyyyyyyyyyyyyyyeyyeeeeew0%&@@@@OO@OOX==..       ",
"    7rqq00*&#&##&1eeweeeyyyyyyyyyyyyyyyyyyyyyy66yeeeeeeeee3;%@@@@@@@O$$==...      ",
"    7r910*&&&%##&<166<6666666666566566y56566666566666664161$%@@@@@@@O$$==...      ",
"    7rq0**&%%%&#1$;<<<<444554455555555554545554244<<<<<<<<$$##@@@@@@OO$==...      ",
"    oqq00*&&&###@&$<<<444454545555555555255525424444<<4<<<$%%@@#@@@OOO$==...      ",
"    7rq10&%&%%&#$#1$<<44<225555555555555555555254444<<<<<$$+$@@@@@@@OO+==...      ",
"    orq00*%*%%#####1$4<4422555555555555555555542444<<<<<<<<+#@@@@@@@OO$==...      ",
"    or91*&&&%#%%&###%<<<4445555555555555555552224444<<<<<<$$%#@@@@OO@OO=+...      ",
"    -,q0&&%%%&#%@###%1$<444555555555555555552222444<<<<<<$$$%@@@@@OOOO$=+...      ",
"    o,9:&&&&%%%%%###O#0<<<45555555y555555522222<44<<<<<<<<$+%@@@@@O@$$==+...      ",
"    o9390&&&%%#%##%###%%<<445555555555555522222<<<<<<$<<<<$$%@@#@@@OO$==X...      ",
"     -q,1&%&&%%#&@####O#1<555655555555555552<<<<<<<<<<+<+$@$#@@@@@OOO$==X..       ",
"     o,q&&&%%%%@&#%#####&155555555555555552<<<;;<<+<<$<<+<<$%#@@@@@O$$=$...       ",
"     o,,1:&%%%%#%########@&444555555;$$&%&%#%4##X$$=%#&&%;%%%@@@@@@OO$==...       ",
"     o-q:0&&%&%%#%%######<#&44455555<&%#%%%#%###@@@&#####&%%##@@@@OO$==X...       ",
"      o93:&%%%%%%#######@###14445555;%@@@@@@##@###@@@@@@@@@@@@@@@@O$$==....       ",
"      o,,::%%%%###########@##&445554;:@@##@@##@#@##@@@@@#@@@@@@@OOO$===...        ",
"      .-,11%&%%#########@#@@@#445555$&@@@@@@#@@@@@@#@@@#@@@@@@@@@@O$==X...        ",
"       o,,:%%##%########@@@@###45555<&@@@@##@@#@@#@#@@@@@@@@@@@@OO$$=+....        ",
"       o-,1:&%%%######@@@##@####1455<&##@@###@##@@@@#@@@@@@@@O@OO$$==X...         ",
"        o>1;#%%@####@##@@######@#655#%@@@@@@@#####@@@##@@@@@@OOO$$==+....         ",
"        .=,>;%%%###@#@@@##@#@@@@#&44%%@@@@@@@@@#@@@@@@@@@@@@@@@@$$==X...          ",
"         .=,;%$@#@#@@@#@##@@@@@@###&<&@@@@@@###@@@@@@@@@@@@@.@@@$===....          ",
"          o-;<%$@@@@@@#@@@#@##@@#@@#%%@@@@@@##@@@@@@@@@@@@@@@OOO==+....           ",
"          .=,>%#@@@@@@@##@@@#@@@#@@@%*@@@@@@##@#@@@@@@@@@@@@O@@X>=X....           ",
"           .=>>$@@@@@@@@@@#@@@@@#@#@%@@@@@@@@@@@@@@@@@@@@@@OO$+;=X....            ",
"            .=>=<@@@@@@@@@@@@@@@@@@@O@@#@@@@@@@@@@@@@@@@O@OOO+==+....             ",
"             .=>$$@@@@@@@@@@@@@@@@@@@@@@@@@@@@@@@@@@OO@OO@$$=;=X....              ",
"              .=<<@@@@@@@@@@@@@@@@@@@@@@@@@@@@@@@@@@OOO@OO$=;;X.....              ",
"               .====$OOOO@@O@@@@@OO@@@@@@@@@@@@@@OOO@O@O$$=>=X.....               ",
"                .+>>>$$OOOO@@@@@@OOO@@@@@@@@@@@@O@@OOOOO$===+.....                ",
"                 .X===$$O$O@@O@@@@@@@@O@@@@@@@@OO@O@O$X$==+X.....                 ",
"                  ..====$$OOOO@@O@@@@@@O@@.@@@OOO@OO$==;=X......                  ",
"                   ..X=>==$+O$OO#OOOOOOO@@OOOO$O$$$====+X.....                    ",
"                     ..X=>==+++$O$$OO$O$O@$$$$$====;==X......                     ",
"                      ...X==>======$$$$$O$+$$;=====+X.......                      ",
"                        ....X+==========++=======X........                        ",
"                          .....XX++===+===++XXX.........                          ",
"                            ..........................                            ",
"                               ....................                               ",
"                                    ..........                                    ",
"                                                                                  ",
"                                                                                  ",
"                                                                                  ",
"                                                                                  ",
"                                                                                  ",
"                                                                                  "
};
