/* XPM */
static char *bj03b_izypt[] = {
/* columns rows colors chars-per-pixel */
"82 82 223 2 ",
"   c None",
".  c #000000",
"X  c #0C0C0C",
"o  c #171717",
"O  c #011F22",
"+  c #01353A",
"@  c #082A2C",
"#  c #282828",
"$  c #383838",
"%  c #023B44",
"&  c #023B46",
"*  c #063F54",
"=  c #16157F",
"-  c #161B7E",
";  c #15237D",
":  c #152B7C",
">  c #15347D",
",  c #153C7C",
"<  c #143C70",
"1  c #02444A",
"2  c #054856",
"3  c #0D535B",
"4  c #0A4A68",
"5  c #0A5768",
"6  c #14437B",
"7  c #1A477E",
"8  c #154A7C",
"9  c #114F76",
"0  c #0D5472",
"q  c #15537B",
"w  c #155B7A",
"e  c #105776",
"r  c #15566B",
"t  c #30497F",
"y  c #15647A",
"u  c #15687B",
"i  c #1C6B76",
"p  c #0B6271",
"a  c #2C6B70",
"s  c #4B4B4B",
"d  c #585858",
"f  c #496566",
"g  c #6D6D6D",
"h  c #646464",
"j  c #757575",
"k  c #170F86",
"l  c #170F88",
"z  c #180F8C",
"x  c #161283",
"c  c #161A82",
"v  c #171288",
"b  c #18108E",
"n  c #181C8B",
"m  c #1B1393",
"M  c #1C1A93",
"N  c #201795",
"B  c #231A96",
"V  c #261E98",
"C  c #172786",
"Z  c #173687",
"A  c #1B2792",
"S  c #0D398E",
"D  c #2B239B",
"F  c #292899",
"G  c #30279D",
"H  c #332B9E",
"J  c #29399A",
"K  c #39329E",
"L  c #35349E",
"P  c #362EA0",
"I  c #3B33A2",
"U  c #3C3AA3",
"Y  c #3733A0",
"T  c #423BA6",
"R  c #413C9F",
"E  c #174686",
"W  c #004A9C",
"Q  c #004496",
"!  c #164E8D",
"~  c #314981",
"^  c #2C4F94",
"/  c #166985",
"(  c #187689",
")  c #1C7794",
"_  c #146A8C",
"`  c #396A9D",
"'  c #296F99",
"]  c #004DA3",
"[  c #0052A3",
"{  c #0056AC",
"}  c #0059AE",
"|  c #005CB4",
" . c #005AB7",
".. c #3954A2",
"X. c #3B43A2",
"o. c #0063BC",
"O. c #0063B9",
"+. c #0060A7",
"@. c #3965AA",
"#. c #3B77A3",
"$. c #3765B2",
"%. c #2869AF",
"&. c #4C5196",
"*. c #4A5198",
"=. c #494D99",
"-. c #4342A6",
";. c #4741A8",
":. c #4B44AA",
">. c #4D4BAB",
",. c #484CA7",
"<. c #524CAD",
"1. c #495AA8",
"2. c #5552AF",
"3. c #5359AA",
"4. c #5A55B1",
"5. c #5D5AB2",
"6. c #575AB2",
"7. c #625EB5",
"8. c #4663A8",
"9. c #5468AD",
"0. c #4778A9",
"q. c #5D6CB5",
"w. c #5C67B2",
"e. c #5476AF",
"r. c #6563B6",
"t. c #6C6AB9",
"y. c #6569B6",
"u. c #6775B8",
"i. c #7273BC",
"p. c #747BBD",
"a. c #797CBF",
"s. c #706FBB",
"d. c #467D82",
"f. c #0064C3",
"g. c #006AC6",
"h. c #006BCB",
"j. c #0064CC",
"k. c #0072CD",
"l. c #0072C2",
"z. c #006DD3",
"x. c #006AD8",
"c. c #0074D4",
"v. c #007AD5",
"b. c #0076D9",
"n. c #007CDB",
"m. c #2E7BC7",
"M. c #0076E6",
"N. c #005BC1",
"B. c #7A7FC0",
"V. c #1C8196",
"C. c #34889B",
"Z. c #288698",
"A. c #388CA2",
"S. c #4D8E94",
"D. c #6D9495",
"F. c #4985AA",
"G. c #4A99A9",
"H. c #569DAA",
"J. c #5A95B1",
"K. c #5888B4",
"L. c #6789B8",
"P. c #7584BE",
"I. c #6A97B9",
"U. c #7497BE",
"Y. c #779FA0",
"T. c #5DA5B2",
"R. c #79A8AB",
"E. c #67ABB7",
"W. c #75AAB9",
"Q. c #77AFB5",
"!. c #0083DD",
"~. c #0087DB",
"^. c #2E89DB",
"/. c #0086E2",
"(. c #008BE2",
"). c #0082E8",
"_. c #0092E6",
"`. c #0097E8",
"'. c #2D94E2",
"]. c #2D9AE5",
"[. c #2D8FE0",
"{. c #5B87C5",
"}. c #5D90C4",
"|. c #7C8BC1",
" X c #7B83C0",
".X c #7D99C2",
"XX c #699BD3",
"oX c #6796C9",
"OX c #7BA6C6",
"+X c #6AA4DD",
"@X c #76A5D8",
"#X c #7BB6C3",
"$X c #6BABE6",
"%X c #6AAEE8",
"&X c #67AAE5",
"*X c #77AEE4",
"=X c #67B5EB",
"-X c #6BB3EA",
";X c #7DB2E5",
":X c #74B5EA",
">X c #7CB5E9",
",X c #7DB9EB",
"<X c #81B4BB",
"1X c #8199C4",
"2X c #82A6C4",
"3X c #83B5C5",
"4X c #8CB3DC",
"5X c #8CB2DC",
"6X c #84B5E6",
"7X c #8BB6E3",
"8X c #8AB9E5",
"9X c #84BAEA",
"0X c #89BDEA",
"qX c #84B7E8",
"wX c #91BEE8",
"eX c #A0BEDD",
"rX c #94C1EC",
"tX c #9BC4EB",
"yX c #8FC0EC",
"uX c #A7C9EB",
"iX c #B4CDE8",
"pX c #BBD2EA",
"aX c #C4D7EB",
/* pixels */
"                                                                                                                                                                    ",
"                                                                                                                                                                    ",
"                                                                                                                                                                    ",
"                                                                                                                                                                    ",
"                                                                  $ $ $ $ $ $ $ # # # # o o                                                                         ",
"                                                          s s f S.S.H.G.H.H.G.G.G.A.A.Z.a a + X X X                                                                 ",
"                                                    d d S.H.T.T.H.J.K.F.K.0.0.0.0.#.#.#.C.C.Z.V.u 3 X . .                                                           ",
"                                                h D.T.E.W.I.L.K.e.9.9.9.1.1.1...........^ ..%.' ) V.V.u 1 . .                                                       ",
"                                            h D.E.W.E.L.L.q.q.w.w.3.3.>.,.,.-.-.X.U U J J J ^ J ^ ! _ _ ( ( 2 . .                                                   ",
"                                        h D.E.W.U.U.u.u.w.w.6.2.2.>.:.:.;.T T U U I Y P H H F F F A J ! ! / ( p + .                                                 ",
"                                      g R.#XW.U.L.u.y.w.5.4.<.<.:.:.-.T T T I I P P P H D D D D B A M A S E ! / ( 3 . .                                             ",
"                                  h Y.Q.OXU.P.p.t.t.r.4.2.<.<.:.T T T K I I I P P H H G F D V V B M M n n A Z E / / 5 1 .                                           ",
"                                g R.#X2XU.P.i.t.r.7.5.2.<.:.T T T K I I H P P G G G G D D D V B N m m m n v n C Z 8 / / 2 .                                         ",
"                              j R.3XOXU.a.i.t.7.7.4.<.:.T T T I I H G G G G D D G F D D D D V B N M m m b b x n c Z 6 w u 2 .                                       ",
"                            j R.3X1XP.a.i.t.7.7.4.<.<.T T T I P G G G D D D D D D D D D D V V B M m m m b v v x c c ; , w u 3 .                                     ",
"                          j R.3X.X|.a.s.t.7.7.4.<.:.;.T I P P P D D D D D D D V D V V D D V B M N m m m m b v v x x - ; , q u 2 .                                   ",
"                        j <X2X1X1Xa.s.t.7.4.4.<.:.T T I P H G D D D B B -.V B V V V V V V V B B N N m m b b b z l k = = = > 0 p 2 .                                 ",
"                      g R.3X1X1Xa.s.t.7.4.4.<.T T T I H H G D D V B B 7.` <.B B B V V V V V B N N N m m b b b z l k k = = ; > w u 1 .                               ",
"                      Y.3X2X1Xa.s.s.7.4.<.<.T T I I H G D D V V B B w.iX` &.M N N B B V V B B B N N N m b b b b l k k = = - ; , w u % .                             ",
"                    j <X3X1Xa.s.s.7.4.4.T T T T I H G D D D V V B 6.eXaX` &.B m N B B V V B B B N N N m b b b b l l k = = = - : 8 y 5 . .                           ",
"                  g <X3X1XB.B.s.t.7.4.<.T T T H G G D D V V V B >.eXiXpX` *.M m N N B B B B B N N N m m m m b b l l k k = = = = : 9 u 2 .                           ",
"                  Y.3X1X1XB.s.7.7.4.T T T T H G G D V V V V B :.4XpXiXpX` *.M m N N B B B N B N N N N m m m b b z l k k k = = = ; , w u + .                         ",
"                j <X1X1XB.s.t.7.4.T T T T H G D V V V V V V 4.7XuXuXuXiX@.*.m N N N N N N N N N N m N m m b b b z z l l k = = = - : 6 u 5 . .                       ",
"                Y.2X1XB.B.t.7.7.4.<.T K G G D V V V B B B 4.wXuXuXuXuXiX@.,.N m m m N N N N m N N N m N m m b b z z l k k k k k x - > w u % .                       ",
"              j Q.2X|.a.s.r.7.2.T T T T G D V V B B B B >.6XuXuXuXuXtXuX#.=.m m m N m N N m N N N N N m m m m m z z b z z z k k x - ; 8 y 0 . .                     ",
"              D.3X.XP.i.t.7.4.:.T T P D D V B B N B B :.6XuXwXtXtXtXtXuX` =.M m N m N m m N N N N N m N N N m m b b b b z z k k x - - > w y + .                     ",
"            h Q.OX|.p.t.7.4.<.:.T T G D V B B B N N T 5XtXtXtXtXrXtXtXuX%.=.m m M M m m N N N N N N M M m N m m m m m m z z k k x x x : 9 u 4 . .                   ",
"            j #X.XP.i.y.7.2.:.T P P G V V B m N N I XXwXrXwXrXrXrXrXrXtXK.e.u.q.q.q.q.y.q.q.q.q.q.q.q.q.y.q.q.q.6.w.6.I b z l l k x x ; , y y . .                   ",
"            D.#XU.p.t.7.4.<.;.T P D D V B N m B T XXwXwXwXwX0XyXyXyXyXyXrXyX8X8X8X8X8X8X8X7X7X7X0X7X7X7X7X7X7X4X4X5XOX^ B b z l l x x - > e y & . .                 ",
"          h Q.OXP.s.y.5.<.:.T I G D V B N N m T @X7X8X0X0X0X0X0XyX0X9XyX9X0X8X0X0X9X8X8X8X8X0X6X0X6X7X7X7X7X7X7X4X4X2X6 H m z z l l x c ; E y 5 . .                 ",
"          h W..XP.y.r.4.<.T T P G D V N m m T XX6X6X6XqX9X9X9X9X,X9XyX,X9X9X9X9X9XqX9XqXqXqXqXqX6XqXqX6X6X6X6X6X4X4X@X7 P b z z l x x x ; , y w . .                 ",
"          D.W.U.u.r.4.<.:.T P G D V B N N P XX6X6X6X>X>X,X,X9X,X,X,X9X,X,X,X9X,X9X,X,XqX,XqXqX>XqX>X6XqX;X;X;X6X6X@X.XE K b m z l k x c c > w y O . .               ",
"        s D.OX Xy.r.4.<.T U P G V V N N D oX*X;X*X>X:X:X:X,X,X:X,X,X,X,X,X,X,X,X,X,X:X,X:X,X>X>X>X:X>X*X>X*X>X6X@X@X.XE K m z z z k k x = : q y & . .               ",
"        d H.E.L.y.7.<.>.T I P G D B N G {.+X*X;X:X:X>X:X:X:X:X:X:X:X:X:X:X:X:X=X:X:X:X:X:X:X:X:X*X*X:X:X*X*X*X$X@X@XoX7 K m m z z z k = - ; 9 u 2 . .               ",
"        d E.W.u.y.4.<.:.T I G D V B G {.+X%X$X%X%X*X-X:X:X-X-X-X=X:X=X:X:X=X=X:X-X-X-X-X:X=X-X%X%X%X$X$X$X$X$X$X$X@XoX7 P m b z z k k x = ; 8 y r . .               ",
"        d E.I.u.y.4.<.T T I G D V I {.XX+X$X&X&X%X=X%X%X%X=X=X%X=X=X=X=X=X=X=X=X=X-X-X%X%X%X%X%X%X$X$X$X$X+X$X&X+XXX{.E P m b b z k k x = ; 6 y 0 . .               ",
"        d E.E.u.w.2.>.T I P G D I K.XX&X&X&X&X%X&X=X=X%X%X=X=X=X=X=X=X=X=X=X=X=X=X=X=X-X=X%X%X%X%X$X%X%X&X&X&XXX+X+X}.E K m b z z l k x = ; , y e . . .             ",
"        d E.I.y.5.2.:.T I P G D 8.%.m.m.^.^.^.^.[.[.'.[.'.].].].].].].].].].].].].].].'.'.'.'.'.[.[.[.^.^.^.^.^.^.$.%.6 K m b z l l k x x - , y w . . .             ",
"        d E.L.q.5.<.:.T P H D D ,.S ]  .f.j.x.c.b.b.b.n.n.n.n.n./.!.!.!./.!.`.(.n.n.n.n.n.b.b.b.b.x.b.z.x.z.j.j. .{ Q , P b m z z l k x = ; , w w . . .             ",
"        d E.L.q.6.<.:.T I H D D D 2.]  .o.h.c.b.b.n.n.n././././././././././.(.(././././.!.n.n.n.b.b.b.z.x.x.x.j.N. .W , P m b b l k k x = - , y w . . .             ",
"        d E.J.q.2.<.:.T I G G D V M 1.]  .h.z.c.n.n.n.!./.!./././.(.(./.(.(.(.(.~./.~./.!.!.n.n.n.b.b.b.c.z.x.h.N. .W 6 K b b z z z l k x ; , y w . . .             ",
"        s E.K.q.6.>.;.T I H G D D V V 3.[  .g.k.v.n.!.!././.(.(.(.(.(.(._.(.(.(.(.(././.!.!.!.n.n.v.n.c.z.c.z.j.N.} W 6 K m b b z l k x = ; 6 y e . . .             ",
"        s H.J.w.6.>.;.T I H G G D V B M 3.[ f.h.c.v.!./.~.(.(.(.(.(._.(.(.(.(.(.(././.~.~.!.!.v.n.c.c.c.c.z.z.h.f.} ] , P m m b z l x x x ; 6 y 0 . . .             ",
"        s H.J.e.2.>.;.U I H G D V V V B B 3.{ g.k.v.n.~.(.(.(.(._._._._._.(.(.~.(.~.~.!.!.!.v.~.v.c.c.z.c.h.h.j.N.} W , P m b z v k k x - : 8 u 4 . . .             ",
"        $ S.J.e.3.>.T T K H G D D V V V B V 3.{ h.v.v.~.(.(._._._._._._.~.(.~.!.!.!.~.v.v.v.v.k.c.k.k.g.g.g.g.o. .[ W 6 K b b b z k k x c : q u 2 . . .             ",
"        # d.H.e.1.>.;.I K H G G D D V V B B V 8. .k.v.~.(.(._._.`._._.(.~.~.~.~.v.v.v.v.v.k.k.k.k.g.g.g.g.o.o. .} ] Q < K b b b l l k x - > w y % . . .             ",
"          f H.e.3.,.T T I K G G G D V V V B B V 8. .k.~.~.(._._.`.`._.(.~.n.n.n.v.c.c.k.k.h.g.g.g.f.O.o. . .| } [ W S 6 P m b b l l x x - , w w O . .               ",
"          $ H.F.8.,.;.I I H H G G V V V V B B B D 1.f.c.~.(._.`.`._._.(.~.l.o.o.O.o.O.O.O.| | } { { { [ [ [ W W Q Q S < H b b z l x x c ; 6 u q . . .               ",
"          $ A.G.9.,.-.U I P G G G D V V V B B B m V 3.j.v.~.(.`.`.`._.(.[ < ~ ~ t t t t t Z ~ J t t t t J t t t ~ ~ t ~ H b z z v k x c : q y 4 . . .               ",
"          # a H.0.1.-.U I P P G G D V V V V B B B m M 1.h.n.(._.`.`._.(.[ &.G K K H H G K P P G H H H H P D H H H H G G B b z z v x x ; > w y % . . .               ",
"            $ G.0...-.U I P G G G D V V B B N B M N m V 1.c.!.(.`.`._./.[ &.m m m m m m b m m m m m m b b m m m m m b m m z z z k x c ; 7 y q . . . .               ",
"            # C.A.8.X.X.Y P G G D D V B B B m N N m m m D 8.c./._.(._.(.[ &.m m m m m m m m m m m m m m m m b m z m b b z z z k x x - > q u 4 . . .                 ",
"            o a A.#...U L H G F D D V B B B N m m N m N m G $.M.)._.(.).[ &.N m m m m m m m m m m m b m b m b m z m z z z z k k x - ; , y w + . . .                 ",
"              # C.C.@.U L H G G D V V B B B m m m m m m m m P $.n.).(.M.] =.m m m m m m m m m m m m m m m b m m m m z z z z k x x - > q u 4 . . . .                 ",
"              o a A.#.^ J H F D D V B B N m m m N m m m N N m P 8.M.).M.] =.m m m m m m m m m m m N m m b m m b z z z z z x k x c ; , u q % . . .                   ",
"                o ) A.^ X.H F D V B B N B m m m m m m N m m N m D 8.M.M.] =.b m m b m b m m m m N m m m b b b b b z z z v x x x c > q y 4 . . . .                   ",
"                o 3 C.' ^ H F F M B M M m m m m m m m m m m m m N G $.x.] =.m m m m m m m m m m m m m b b b z z z z k k k k = - : 6 y q + . . .                     ",
"                  o i C.' J F A M M m m m m m m m m m m N m m m N m G $.Q =.b m m m b m m m m m m m b b b z z z z z k k k = = ; , y y 2 . . . .                     ",
"                    o ) ) ^ A A M M m b m m b b m m m m m m m m m m m P E =.m m m m m m m m m m m m b m b b z z k k k k = - - > w y 4 . . . .                       ",
"                    X 3 Z.' ! A M b M b m b b b b m m m m m m m m m m b T T m b b b b m m m m m m m b b b z k k k k x = = - > q u ! 1 . . . .                       ",
"                      X p V._ ! A M M b z z z z b b b b b b m m m m b m z B z m b m m m m m b b b b b z z k k k = = = = - : 9 y q 1 . . . .                         ",
"                        X 5 ) _ E A n v b l z z b b b b b z b b b b b b m z m z b b b b b b b b b b z z z k k k k = = ; : 8 y w 2 . . . .                           ",
"                          . 0 ) ! E C c x v z z z z z b z z z z z z z z z z z z b b b b b b z z z z z z k k = = = = - > 8 y w 2 . . . .                             ",
"                            . 5 ( _ E Z n n k l l z z z z z z z z z z z z z z z b b b b b b z z z l l l k k = = - - > q y w * . . . . .                             ",
"                              . 3 ( / E C C - x x x x v l k l k k k l l l l l l l z z l l z l l k k x x x x - - : 6 q u w * . . . . .                               ",
"                                . 2 ( / / Z ; C c x x x k k k k k k k l l k l k l l l l l k l k k x x = = - ; > 7 w y q 1 . . . . .                                 ",
"                                  . 1 5 / y E Z C c - x x x x k k = = k k k k k k k k k x k x x x x - - ; : 6 e y w 4 % . . . . .                                   ",
"                                    . . 3 u u w 8 > : ; - = = = k = = = k = k = k k k k x = x = - - ; > , q y y 9 2 . . . . . .                                     ",
"                                      . . + 5 u y w 8 Z > : - - - - = = = = = x = = x - - - C ; : , 6 q y y e 4 + . . . . .                                         ",
"                                          . . 1 e u u y e 6 6 > : : ; ; ; - ; ; - - ; : : > , 6 q w u u w 9 & . . . . . .                                           ",
"                                            . . . + 5 y u u y w q 8 8 , , , , , , , 6 8 q w w u u w q 4 + . . . . . . .                                             ",
"                                                . . . . % 4 0 y i y y y y y y w y y u u u u w 9 4 & . . . . . . . .                                                 ",
"                                                    . . . . . O & 2 4 0 e w w w 0 0 0 4 * % O . . . . . . . . .                                                     ",
"                                                        . . . . . . . . . . . . . . . . . . . . . . . . . .                                                         ",
"                                                              . . . . . . . . . . . . . . . . . . . .                                                               ",
"                                                                        . . . . . . . . . .                                                                         ",
"                                                                                                                                                                    ",
"                                                                                                                                                                    ",
"                                                                                                                                                                    ",
"                                                                                                                                                                    ",
"                                                                                                                                                                    ",
"                                                                                                                                                                    "
};
