/* XPM */
static char *_ysq4_a86sq[] = {
/* columns rows colors chars-per-pixel */
"82 82 236 2 ",
"   c None",
".  c #000C0E",
"X  c #000E10",
"o  c #001214",
"O  c #001619",
"+  c #00191D",
"@  c #00252A",
"#  c #002F36",
"$  c #003B44",
"%  c #133D73",
"&  c #00434D",
"*  c #0F434A",
"=  c #084A54",
"-  c #16437C",
";  c #065A66",
":  c #304D79",
">  c #006473",
",  c #036978",
"<  c #00616F",
"1  c #31656C",
"2  c #4E7176",
"3  c #170F86",
"4  c #170F88",
"5  c #180F8C",
"6  c #161383",
"7  c #161B83",
"8  c #18108E",
"9  c #17178A",
"0  c #1B1393",
"q  c #1B1B94",
"w  c #201795",
"e  c #231A97",
"r  c #261E98",
"t  c #162383",
"y  c #152B83",
"u  c #17278B",
"i  c #153485",
"p  c #153B84",
"a  c #15378A",
"s  c #1A2795",
"d  c #183A97",
"f  c #003B8A",
"g  c #2B239B",
"h  c #29289B",
"j  c #30279D",
"k  c #332B9E",
"l  c #26379F",
"z  c #39329E",
"x  c #37319D",
"c  c #362EA0",
"v  c #3B33A2",
"b  c #3939A3",
"n  c #2D38A0",
"m  c #423BA6",
"M  c #413C9F",
"N  c #154C8A",
"B  c #154687",
"V  c #15538B",
"C  c #155B89",
"Z  c #00489A",
"A  c #155895",
"S  c #134995",
"D  c #314981",
"F  c #2D4C86",
"G  c #15678C",
"H  c #007A8C",
"J  c #007485",
"K  c #16758C",
"L  c #156796",
"P  c #157C92",
"I  c #157898",
"U  c #007B8E",
"Y  c #396A9D",
"T  c #30738D",
"R  c #004DA3",
"E  c #0052A3",
"W  c #0056AC",
"Q  c #005AB6",
"!  c #1A57A2",
"~  c #3747A7",
"^  c #2C50A7",
"/  c #0063BB",
"(  c #156DA6",
")  c #3865AA",
"_  c #3868B1",
"`  c #2D72B2",
"'  c #4C5196",
"]  c #4A5198",
"[  c #494D99",
"{  c #4542A8",
"}  c #4B44AA",
"|  c #4D4BAC",
" . c #4547A8",
".. c #524CAD",
"X. c #4957AB",
"o. c #5551AF",
"O. c #5158A5",
"+. c #5A55B1",
"@. c #5D5AB3",
"#. c #5657B1",
"$. c #4C5AB0",
"%. c #625EB5",
"&. c #4869B4",
"*. c #5D6CB6",
"=. c #5865B5",
"-. c #587BBA",
";. c #4A6CB1",
":. c #6462B7",
">. c #686BBA",
",. c #6874BD",
"<. c #7076BF",
"1. c #0064C3",
"2. c #006BCB",
"3. c #0069C7",
"4. c #0072CD",
"5. c #0072C2",
"6. c #006DD3",
"7. c #006AD8",
"8. c #0074D4",
"9. c #007AD5",
"0. c #007CDB",
"q. c #0076D9",
"w. c #2E7BC7",
"e. c #0076E6",
"r. c #005BC1",
"t. c #737BC1",
"y. c #6B7EC0",
"u. c #008A9E",
"i. c #008397",
"p. c #15849B",
"a. c #168599",
"s. c #328895",
"d. c #068DA5",
"f. c #158BA3",
"g. c #1488A7",
"h. c #0195AB",
"j. c #019BAE",
"k. c #0991AB",
"l. c #1595AB",
"z. c #019DB4",
"x. c #0A9AB5",
"c. c #149CB4",
"v. c #1696B6",
"b. c #1889B3",
"n. c #389DAD",
"m. c #2B8EB1",
"M. c #00A2BA",
"N. c #08A4B9",
"B. c #14A4BA",
"V. c #33A1B1",
"C. c #508D96",
"Z. c #5A82BE",
"A. c #4B90B0",
"S. c #659BA3",
"D. c #57ABB7",
"F. c #6FABB4",
"G. c #6A969C",
"H. c #0083DD",
"J. c #0087DB",
"K. c #2E89DB",
"L. c #3A9CC2",
"P. c #04ACC2",
"I. c #15ABC2",
"U. c #05B7CB",
"Y. c #16B6CA",
"T. c #05BDD1",
"R. c #17BED1",
"E. c #32AFCB",
"W. c #0086E2",
"Q. c #008BE2",
"!. c #0082E8",
"~. c #0092E6",
"^. c #0097E8",
"/. c #2D94E2",
"(. c #2D9AE5",
"). c #2D8FE0",
"_. c #5989C3",
"`. c #5496C5",
"'. c #6688C4",
"]. c #7687C5",
"[. c #6997C8",
"{. c #7998CA",
"}. c #699BD3",
"|. c #48A8CB",
" X c #54B3D0",
".X c #7AA2CD",
"XX c #6AA4DD",
"oX c #77A7D7",
"OX c #66B5D3",
"+X c #78B9D7",
"@X c #6FB1C7",
"#X c #6BABE6",
"$X c #6AAEE8",
"%X c #67AAE5",
"&X c #77AEE4",
"*X c #67B5EB",
"=X c #6BB3EA",
"-X c #74B5EA",
";X c #7CB5E9",
":X c #7DB9EB",
">X c #7DB2E5",
",X c #0AC4D6",
"<X c #1AC5D7",
"1X c #28CADB",
"2X c #36C8D8",
"3X c #35D4E2",
"4X c #51C9D9",
"5X c #69C8DA",
"6X c #76C7DD",
"7X c #73D4DD",
"8X c #4AD7E4",
"9X c #5ADAE6",
"0X c #67DBE7",
"qX c #77DAE5",
"wX c #7BCCE0",
"eX c #7AE1EB",
"rX c #69E1EA",
"tX c #87B6DB",
"yX c #8AB1DA",
"uX c #84B5E6",
"iX c #8BB6E3",
"pX c #8AB9E5",
"aX c #84BAEA",
"sX c #89BDEA",
"dX c #84B7E8",
"fX c #91BEE8",
"gX c #A0BEDD",
"hX c #8AC6E8",
"jX c #9BC4EB",
"kX c #94C1EC",
"lX c #83DBE8",
"zX c #A7C9EB",
"xX c #B6CFE8",
"cX c #83E2EC",
"vX c #83C4DC",
"bX c #C4D7EB",
/* pixels */
"                                                                                                                                                                    ",
"                                                                                                                                                                    ",
"                                                                                                                                                                    ",
"                                                                                                                                                                    ",
"                                                                  2 s.n.n.n.n.n.V.a.s.K ; *                                                                         ",
"                                                          C.D. X8X8X8X8X8X8X8X8X8X8X3X1X1X1XB.i., *                                                                 ",
"                                                    C.D.9X9X0X9X4X4X X X X|.|.|.|.E.E. X2X2X1X1X<XU.d., #                                                           ",
"                                                D.5XrXrX0X5XOX X[._.Z.Z.;.&.&.&._ ;._ ` ` ` K.E.Y.1X<X,XU.H &                                                       ",
"                                            F.0XrXqX5XOX}.[._.-.;.=.$.$.$.|  .| ~ ~ ~ ~ ~ ^ ^ ! ( ` I.Y.<X,XT.H $                                                   ",
"                                        S.7XrXqX6XOX}.'.-.*.=.#.#.$.|  . .m ~ b b b b b n n l l ^ l ! ( b.I.<X,XP.,                                                 ",
"                                      F.rXqX6X+X[.'.,.*.=.+.o.....{ { { m m v v c c c n j h h h s s s d ! ! b.B.<XT.u.&                                             ",
"                                  G.eXeXqX+X.X].t.,.:.@.#...| } m m b v v v c c c j c j g g r g e e q s s d S ( v.Y.,XU.>                                           ",
"                                F.qXcX6XoX{.t.,.>.:.@.o...} m m m v c c c c c k j j j g g g r e e w 0 q q u s d A I B.<XT.H                                         ",
"                              F.qXlXvX.X].t.,.>.%.+.o.} } m m v v k c k c j k g j g g g g g e e w w 0 0 0 9 9 u s S ( c.Y.T.i.                                      ",
"                            F.cXcX6X.X].<.<.:.@.+...} { m v c c k j g g g g g g g g g g g r r e w 0 0 0 5 8 9 9 u u a A g.Y.T.u.                                    ",
"                          F.eXlXtX{.].<.>.:.@.+...} { m v c c c g g g r r r g r r g r g g r e q w 0 0 0 5 5 9 4 7 9 t i A g.Y.T.d.                                  ",
"                        F.cXlXtX{.].<.>.:.+.+...} m m v c c c g g r e e { g r r r r r r r r e e w w 0 0 8 8 5 4 4 4 3 7 f A g.I.T.i.                                ",
"                      G.lXlXyXyX].<.>.:.%.+...m m m v c j g g g r e e =.Y | e e e r r r r e e e w 0 0 0 8 8 8 5 4 3 3 3 7 y A g.Y.T.H                               ",
"                      7XcXtX.Xt.<.>.:.+.....m m v v c k g g g r r w @.xXY ' e 0 e e e r r r e e w w 0 0 8 8 5 5 4 3 3 % 7 t i A l.Y.U.>                             ",
"                    6XcXlXyXF.t.>.:.%.o.m m m m c k j g g g r e r O.gXbXY ' e e w e e r r e e e e w w 0 8 8 8 8 4 4 3 3 6 7 t B L c.U.z.&                           ",
"                  F.lXlXyXyXt.<.:.+.....m m m k j j g g r r r e ..yXxXxXY ] 0 0 w w e e e e e w w w 0 0 0 0 8 8 4 4 3 3 6 % 3 9 B I I.T.d.                          ",
"                  7XcXvXyXt.<.>.%.+...m m m k j j g r r r r e { gXxXxXxXY ] q 0 w w w e e e w w w w w 0 0 0 8 8 5 4 3 3 6 6 6 6 y A g.Y.U.,                         ",
"                F.cXtXyX>.>.>.:.+...m m z j j j r r r r r r +.iXxXzXxXxXY ] 0 w w w w w w w w e w w 0 0 0 0 0 8 5 5 4 3 3 3 6 7 t a L c.U.j.$                       ",
"                7XlX.XyXt.>.:.+.+.m m m k j j r r r e e e +.fXzXzXzXzXzX)  .w 0 0 w w w w w w 0 q w w 0 0 0 8 0 8 5 4 3 3 6 6 6 7 y N p.I.U.H                       ",
"              F.eXhX.X].<.:.%.o.m m m m c r r e e e e e ..uXzXzXjXzXzXzXY ] q q 0 w 0 0 w 0 0 e q w 0 w q 0 0 0 8 8 5 5 5 4 3 6 7 7 a L c.U.z.&                     ",
"              7XcX+X{.<.>.%.+...m m c j g r e e e e e | uXjXfXzXjXjXjXzXY ] 0 0 0 w w w 0 w 0 e w w w 0 q 0 0 0 8 8 8 5 5 4 3 3 3 7 t N I I.U.J                     ",
"            S.eXwX.X].,.:.+...} m m j j r r e w w 0 b oXjXjXjXjXjXjXjXjX) [ q 0 q q 0 0 w 0 e 0 w w 0 q w w 0 0 0 0 8 5 5 5 4 4 3 7 t a L c.U.j.#                   ",
"            +XeX6X{.<.:.@.o...m k k j r e w w w w c yXfXkXfXkXjXkXkXkXjXZ.;.y.*.*.*.*.>.*.*.*.*.*.*.*.>.*.*.>.:.=.=.=.v 8 5 5 4 3 7 7 y V g.I.M.,                   ",
"            0XqXoX].>.:.+...m m c j g r e w w w m }.fXfXfXsXsXsXhXkXkXsXhXkXiXpXpXpXiXpXpXpXiXiXpXiXiXiXiXiXiXyXyXyXyXF e 8 5 5 4 6 7 u p I B.U.d.+                 ",
"          S.qXwX.XZ.>.@.o.} m v j j r e w w 0 m oXiXsXaXsXsXsXsXsXsXsXsXaXaXsXsXdXsXpXpXpXpXpXdXpXiXiXiXiXuXiXuXyXyXyX- z 8 5 5 4 3 6 7 a G l.U.z.$                 ",
"          F.eX6X].<.:.+...m m z j g e e 0 w m [.uXuXdXdXaXaXaXaXaXaXhXaXaXaXaXaXaXaXaXdXdXdXdXdXdXuXdXdXuXuXuXuXyXyX.X- c 8 5 5 4 3 3 7 y V f.I.M.>                 ",
"          7XeXOXZ.<.@.o.m m v k g r e w w k }.uXuX>X;XdXdX:XaX:X:X:X:X:X:XaX:X:X:XaX:XaX;XaXdX;X;XuX;XuX>XuX>XuX+X.X.XB c 8 8 5 4 3 6 7 u B I B.P.U o               ",
"        2 0XqX.Xy.y.+...m v c k g r e 0 g }.oX>X;X-X;X;X-X:X:X-X:X:X:X:X-XwX-X:X:X:X-X:X:X-X;X;X;X-X-X&X&X;X&X&X&XyX[.B z 5 5 5 5 4 3 % 4 u I c.P.h.@               ",
"        C.0X5X[.y.=.o.} m v c g r e e j _.oX-X-X-X&X-X-X-X-X-X-X-X-X-X:X-X-X-X-X-X-X-X-X-X-X-X-X&X&X&X&X&X&X&X&XXXXX[.F z 0 0 5 4 4 3 3 7 u G l.P.z.$               ",
"        S.0X5X[.@.@.o.} m v k g r e c -.#X#X#X#X#X&X=X=X=X-X=X-X*X-X*X-X*X-X*X*X=X=X=X-X=X-X$X=X$X$X$X$X#X#X#X#XXX{.}.B v 8 0 5 5 4 3 4 7 i C f.P.M.=               ",
"        D.0X5X'.>.o...} b v j g r v _.}.}.#X#X%X$X$X$X$X*X*X*X*X*X*X*X*X*X*X*X*X$X*X=X*X*X$X$X$X#X$X$X#X#X#XXX%XXX}.'.p z 0 0 5 5 4 3 % 7 y V a.I.M.,               ",
"        F.0XOX'.*.#.| m v c j g v -.}.}.%X%X%X$X*X*X%X$X=X*X*X*X*X=X=X=X*X*X*X*X*X*X*X*X$X$X$X$X$X$X$X#X#X%X%X%X%X}.'.- z 0 8 5 5 4 3 3 6 y V p.N.M.J .             ",
"         X0XOX'.=.#.| m v k j g &.` w.w.K.K.K.K.).)./././././.(.(.(.(.(.(.(.(.(.(./././././././.).).K.K.K.K.).w.w.` ` B z 8 8 8 4 4 3 3 7 y N p.B.z.U o             ",
"        D.0XOX_.=.o.} m v c g r | Z W r.r.2.6.6.q.0.q.0.0.0.0.H.W.W.H.H.W.!.!.!.0.W.0.0.0.0.0.q.7.q.7.7.7.7.2.1.r.Q f p c 0 8 5 5 4 4 % 6 y N P c.z.U +             ",
"         X0XOX-.@.o.m m c c j g e ..R Q 1.2.8.q.q.0.0.0.H.H.W.W.H.W.W.W.W.Q.Q.~.W.W.W.0.W.0.0.0.0.q.q.q.6.6.7.3.r.Q R % k 0 0 5 5 4 4 6 6 y N P I.z.U +             ",
"        D.0XOX-.=.| { m v c j g r e ' R Q 3.2.8.q.0.H.H.H.H.W.W.W.W.Q.Q.Q.W.Q.Q.J.W.W.H.H.0.H.0.0.0.q.8.8.6.7.2.r.Q Z % v 0 8 8 5 4 4 6 6 u N a.c.z.i.O             ",
"        D.9X XZ.=.| { m c c j g g r r O.E / 3.8.9.0.H.H.W.W.W.Q.Q.Q.Q.Q.Q.~.Q.Q.Q.Q.W.W.H.H.0.0.0.q.q.q.q.6.7.2.r.Q R B v 8 8 8 5 4 3 6 % y V p.x.z.i.O             ",
"        A.9XOX_.$.o.} m v c g g g r e e O.W 1.5.4.9.H.H.W.Q.Q.Q.~.Q.~.~.Q.Q.Q.Q.Q.Q.J.W.H.H.H.0.0.9.8.8.6.6.6.2.1.Q Z % c 0 0 8 5 4 6 6 3 y V a.x.M.H o             ",
"        C.9X4X_.=.o.m m v c j g r r r e e O.W 3.4.9.H.H.W.Q.Q.~.~.~.~.Q.~.Q.Q.J.W.J.J.H.H.J.9.9.9.8.4.8.6.2.2.3.Q Q Z % c 8 8 8 4 4 6 6 7 u C a.N.M.J .             ",
"        1 8X4XA.&.| { b c c k g g r r e e r O.W 5.4.J.H.W.Q.~.~.~.~.~.Q.J.Q.J.J.J.J.J.9.9.9.9.9.8.4.4.2.3.3.3./ Q E Z p z 0 8 8 5 4 3 6 7 p G f.x.M.> .             ",
"        1 8X9X`.&.| { b v c j j g g r r r e r O./ 4.9.H.J.Q.~.~.^.~.~.~.J.J.J.H.9.9.9.9.9.4.4.4.5.2.3.3.3./ / Q W R Z % z 8 8 5 4 3 3 6 t p K f.N.M.; X             ",
"          4X8X`.&.X.{ m v k j g g g r r e w e r X./ 8.9.J.~.~.~.^.^.Q.Q.W.J.H.0.9.8.8.4.4.5.3.5.3.1./ / / W Q W E Z f % c 0 8 8 4 3 7 9 y B P g.z.z.$               ",
"          n.8X X-.X. .v v k k j j g g r e r r r h X.1.9.J.W.~.^.^.^.~.W.J./ / / / / / / / Q Q W W W E E E R R Z Z Z f % k 8 8 5 4 6 6 7 y V P v.j.h.#               ",
"          T 8X4XA.X. .b b c c j g g r r r e r w w r $.3.0.H.~.^.^.^.~.Q.E % D D D : D D D D D l : : D D n : D D D D D D k 0 5 5 5 3 6 6 i G a.x.M.i.O               ",
"          1 2X8X`._  .m b c j c j g g r r e w w w w q $.3.H.J.^.^.~.~.Q.E ' k k k k k j k k j j k k k k j g k k k k k j e 5 5 5 9 6 % 9 B L f.j.M., .               ",
"            V.8XE.&.X.b v c j j j g r r e e e w w q 0 r X.4.H.W.^.~.~.W.E ' w 0 0 0 0 0 8 0 0 0 0 0 0 0 0 0 0 0 0 0 8 8 0 5 5 5 6 6 7 i V a.g.h.z.& o               ",
"            T 3X Xm.) b b c j j g g r e e e w w w 0 0 0 g ) 8.W.~.~.~.Q.E ' 0 0 0 0 0 0 0 8 0 0 0 0 0 8 8 0 0 0 0 5 8 8 5 5 5 3 3 6 t a G a.x.z.u.@                 ",
"            * 2X3XL._ ~ b k j h g r r r e w w 0 0 0 0 0 w r ) e.Q.~.W.!.R ' w 0 0 0 0 0 0 0 0 0 0 0 0 0 0 8 0 8 8 8 5 5 5 5 3 3 6 7 % N P g.z.M.> .                 ",
"              s.3X X` ^ n c j j g r r e e w w 0 w 0 0 0 w w c _ e.!.W.!.R [ 0 0 0 0 0 0 0 0 0 0 0 0 0 0 0 8 0 0 0 8 5 5 5 5 3 3 6 t i C a.k.z.h.$ o                 ",
"              = 1X2XL._ ~ n h h g r e w w w 0 0 0 0 0 0 w w 0 c _ q.e.!.R [ 0 8 0 0 0 0 0 0 0 0 0 0 0 0 8 8 0 8 8 8 5 5 9 3 3 6 7 y N P f.j.M.H o                   ",
"                a.1XE.w.^ n h g r r w w w 0 0 0 0 w 0 w 0 0 w 0 j &.7.e.R [ 8 0 0 0 0 0 0 0 0 0 0 w 0 0 8 8 8 8 5 5 5 5 3 3 6 7 t p G a.k.h.z.& .                   ",
"                * <X3XV.` ^ h h r q 0 e 0 0 0 0 0 0 0 0 w 0 w 0 w j ) 7.R [ 8 0 0 8 0 0 0 0 0 0 0 0 0 0 5 0 5 5 5 5 4 3 3 3 % 3 % N P g.j.M.H O                     ",
"                  , <X2Xb.^ l s q q 0 0 0 0 8 0 0 0 0 0 0 w 0 0 0 w j _ Z } 0 8 0 0 0 0 0 0 0 0 0 0 8 8 8 8 5 5 5 5 4 3 3 3 6 9 B K f.k.z.h.$ X                     ",
"                    l.1XE.` S h q q 0 0 0 8 8 0 0 0 0 0 0 0 0 0 0 0 0 k F [ 8 0 0 0 0 0 0 0 0 0 0 0 0 8 8 5 4 5 3 3 3 3 6 7 % a G a.d.d.M., o                       ",
"                    = <X<XI.( l s q q 8 0 8 8 0 8 8 0 0 0 0 8 0 0 0 0 8 z } 5 0 8 8 8 0 0 0 0 0 0 8 8 8 5 5 4 3 3 3 3 % 7 t i V a.g.M.M.u.@ O                       ",
"                      , ,X<XI.! d s q 8 9 8 5 5 8 8 8 8 8 8 8 8 8 0 8 8 8 0 0 0 8 8 0 0 0 0 8 8 8 8 8 5 4 4 4 3 3 3 6 7 % i C P f.h.z.h.& .                         ",
"                        U ,XR.b.! d u u 9 8 8 4 8 8 8 8 8 8 0 8 8 8 8 8 8 8 8 8 8 8 8 8 8 8 8 8 8 8 5 5 3 3 3 3 3 % 7 t y V P p.h.h.z.< o                           ",
"                          d.T.R.b.! d u 9 9 4 4 5 5 5 8 5 5 5 8 8 8 5 5 5 5 5 5 8 8 8 8 8 8 5 5 5 5 5 5 3 3 3 6 3 % t p C P p.d.h.M.J +                             ",
"                            d.T.R.b.L S s u 4 5 4 5 5 5 5 5 5 5 5 5 5 5 5 5 5 5 8 8 8 8 8 8 5 5 5 4 4 4 3 6 6 6 6 6 % G P p.d.h.M.H @ o                             ",
"                              d.T.Y.c.L S d u 9 9 9 3 3 6 3 5 3 3 3 4 4 4 4 4 4 5 5 5 4 5 5 5 3 3 3 6 6 6 % 3 7 i N G a.p.d.h.M.H @ o                               ",
"                                i.,XR.B.I A a u t 7 7 6 6 5 3 3 3 3 3 3 3 4 4 4 4 4 4 4 9 3 3 3 3 6 6 6 7 t y i V K a.g.j.j.M.H @ o                                 ",
"                                  H T.T.I.f.L N a u t 9 7 6 6 6 3 3 6 3 3 3 3 3 3 3 3 3 3 6 6 6 6 % 3 7 % i N G P a.g.j.z.z., @ o                                   ",
"                                    > z.T.Y.c.g.L N a y t t 7 6 3 3 % 6 3 3 % 3 3 3 3 3 6 6 7 7 t t 7 a B G K a.g.h.d.M.h.< + O                                     ",
"                                      & d.U.U.I.v.p.L V B i y t t 7 7 7 6 7 6 7 % 3 7 7 t t y y i B V G I p.g.d.j.z.M.u.& X                                         ",
"                                          , z.U.Y.I.c.f.I C A B B i i y y y y u 7 7 i i p p N V G K a.a.g.l.z.h.M.h., @ .                                           ",
"                                            $ H z.U.U.I.B.l.p.I G G C V V N N N N V V C G K I I a.f.b.x.z.h.M.z.H $ o O                                             ",
"                                                $ H j.z.U.U.I.B.B.l.f.a.p.a.p.p.I p.a.f.f.f.l.k.x.j.h.M.M.h.H & O X                                                 ",
"                                                    # > d.z.M.P.P.P.N.I.N.c.v.c.c.c.x.x.x.z.z.z.z.M.z.u.> $ o X                                                     ",
"                                                        + $ < i.h.M.M.M.M.M.z.z.z.M.M.M.M.M.z.h.i.> & @ . o                                                         ",
"                                                              o @ $ = > J H U i.i.i.H J > ; & @ O . X                                                               ",
"                                                                        . X O O o o o . . .                                                                         ",
"                                                                                                                                                                    ",
"                                                                                                                                                                    ",
"                                                                                                                                                                    ",
"                                                                                                                                                                    ",
"                                                                                                                                                                    ",
"                                                                                                                                                                    "
};
