/* XPM */
static char *g5n54_0fm9m[] = {
/* columns rows colors chars-per-pixel */
"82 82 79 1 ",
"  c None",
". c #00BCBE",
"X c #02BEC0",
"o c #06BFE0",
"O c #03C2C4",
"+ c #08C4C6",
"@ c #0BC6C9",
"# c #01CACE",
"$ c #0ECACC",
"% c #10CCCE",
"& c #01CDD3",
"* c #06C2DE",
"= c #05CCDD",
"- c #0CCEDF",
"; c #14CFD2",
": c #03D1D6",
"> c #0BD4D7",
", c #05D4DD",
"< c #0AD5D9",
"1 c #05D8DF",
"2 c #0CDADD",
"3 c #15D2D4",
"4 c #18D4D6",
"5 c #14D7D9",
"6 c #1BD6D9",
"7 c #12DCDF",
"8 c #1DD9DB",
"9 c #06C0E2",
"0 c #0AC4E5",
"q c #03CDE4",
"w c #0EC9E6",
"e c #0FCAE8",
"r c #12CEE6",
"t c #12CCE9",
"y c #03D3E4",
"u c #0DD4E6",
"i c #06DAE2",
"p c #0BDCE5",
"a c #00D3EC",
"s c #0DD6EB",
"d c #00D9EF",
"f c #0EDBEC",
"g c #13D0E4",
"h c #16DEE1",
"j c #19DFE1",
"k c #15D2EA",
"l c #19D5EC",
"z c #14DBEA",
"x c #1CDBEE",
"c c #00D6F1",
"v c #00DCF6",
"b c #0CDEF5",
"n c #00D6F8",
"m c #00DEF8",
"M c #17DDF0",
"N c #18DEF1",
"B c #20DFEF",
"V c #0FE0E7",
"C c #13E1E5",
"Z c #1DE3E6",
"A c #14E3EA",
"S c #1CE4ED",
"D c #1DE8EE",
"F c #0BE1F7",
"G c #00E1F8",
"H c #0BE3F8",
"J c #1CE4F4",
"K c #1FE9F5",
"L c #1BE7F8",
"P c #1DE9FA",
"I c #20E5EE",
"U c #20E9ED",
"Y c #21E5F1",
"T c #23EAF4",
"R c #29ECF6",
"E c #23EBF9",
"W c #2AEEFA",
"Q c #2DF0FA",
"! c #31F2FA",
/* pixels */
"                                                                                  ",
"                                                                                  ",
"                                                                                  ",
"                                                                                  ",
"                                 $%%$$$$@@++OO                                    ",
"                             335hCCAAAAACVVp2<#OOX                                ",
"                          33hAASAAAzzfzzzspfpppp1:...                             ",
"                        6jSDSSSzzzkzkkkuukgtuuespip1#..                           ",
"                      6ZJYNNlNlllkkttttttttweeeawyypi1&..                         ",
"                    6ZDIDBNNllllltttttttw0t0ee00=0qyy1p,#.                        ",
"                   8ZUJSNxlllltttttteeeewww0eooe00090=y,i:..                      ",
"                 6ZUUJBxlllltttttttteeet0w0weoeo00q999=qy1:&.                     ",
"                8IUIBBBlllkktttttwee0ee00w00eooeo999999=0,11:.                    ",
"               8ITIBBlllllltttttw0w0000e00e0oeoe0o99oo99**=11:.                   ",
"              8URBBBllllttttttttw00we000000weooo00999*9****==1&.                  ",
"             8IUBBxBllltltttttoo000000000000oeeoo0999999****=,1&.                 ",
"            8UYYBBBlllttttettoot0000t000oeooeooo0o0oooooooo00qy,&.                ",
"           8URYBBBlltlttteeooeeo000lsto0ooeeooeo0o0oooooooo099=,,&.               ",
"           IUUBxBlltlttteeeetoet00lWkg00oeeoeooeo0ooonoooooo***=,1&.              ",
"          8UUBBBlltltttteeoeoeoo0gR!pg90ooooeooe00o0oooooooo****=1:..             ",
"         8UUBBBllllltttoeeoo000otRQ!st90eoeoooeo0oooooooo*o**o**==:&.             ",
"         BRIBBllltttotlooeeo00oeRWWQkt09ooooeooo00oooooeo99o*oo*o=,,#.            ",
"        8IRBBlllltltloooeo0000kR!WW!ktoeooeoooeoo0oooooo99*oooo**==1:X.           ",
"        BRBBBlllltolototoeo0olRQWWWQbloooeooeooo0oonoooo99oo**ooo*==1&.           ",
"       6UYSBxllttttooottoototEWWWWWQsg99o0o0oooooeoeeooo999o9o99***=1,X.          ",
"       ZTIBllllttotttoooooolEWWEWWWWug09o00oo0oooooooo0o99999999o**=,,O.          ",
"      6DYBxlltttttootoooootEEWEWWEWEut900ooo0ooooeooooooooo9ooo9****=,:..         ",
"      8TIBBlllttototootooeBWWEWEEWWWMzMllNllNNNllNllNNkllzle9o*99***=,1..         ",
"      ZIxxllkktetotoooootLEEWEEEWEEEWWEEEEEEEEEEEEEEEEEERTSu9999*o**=y:#..        ",
"     6DDBxllktteotootootEEEEEEEEEEEEPEEEEEEEEEEEEEEEYEEETTY-e99999o**=1=..        ",
"     8KSxllltttttootootBEEEEEEEEEEEEEEEEEEEEEEEEEEEEEEEETTJ,eoo9ooo**=1,..        ",
"     8DSxllttteootoootBRLELEEEEEEEEEPEPPEELEEBELEEBEELELEYJq0999o*o**=,1O..       ",
"    ;ZDxllltteto000o0JKPPPPPEPPPPPPPPEPEPPPPPEPPPPPPETLLTYJ=w9o99*oo**,1#..       ",
"    3SDxllttteee000wNLLLPPPPPPPPEPPPPPPPPPPPEPPPPPEPLLLELLS-wo99o9o**=,1&..       ",
"    3SSxlllteeeo0o0MKLLPPPPPPPPPPPPPPPPPPPPPPPPPLPPPLLLLLJN,eo9o99oo**=::..       ",
"    3DSxlltteeee0eMJJLLPPPPPPPPPPPPPPPPPPPPPPPPPPLLLLLLLLJNwe999oo*o**=1,..       ",
"    4DxzlttteeooeMJLJLLPPPPLPPPPPPPPPPPPPPPPPPPLLLLLLLJLLSS=eo0o99****=1,...      ",
"    4DSllttteeeosssbbbbFFFHHFFHHHHHHGHHHFFHHFFFFFFbbbbbbbbs*eoooo9ooo*=,,...      ",
"    3Sxllttte000tqaacvcvnvvvvvvvGvGGGGGGvmvvmvvvvncvvnccaaqqe0o0o9o***=,,...      ",
"    3JNllltteee00tqaaccnvvvvmvmmvGGGGGGGmmvmvvvvvvvnncvcaaaqeoooo*oo**=,y...      ",
"    3DAlkttttw0000kaaavnvvvvvvmvGGGvGvGGvvGvvGvvvvvvvccnaaq=e999999o**=1,...      ",
"    3Axzltttwww0000kaaavvvvvvGGvGvGGGGGvGGGvvvvvvvnccvncnaq=w9o99oo***=,,...      ",
"    ;SAzktttwe0w0099gaavvvvGGGmGGvGGGvGGvGvGvvvvvvvcvcccaaq*009999oo**,,,...      ",
"    %AAlkttew00000000gaadvvvvGGGGGGGGGvGGGvvvvvvvcvvncvcaaqqeo99oo*o**=1=...      ",
"    $CAzkttteee0000090kaavvGGGGGGGGGGGGvvvvvvvvvvavdccaccqq=eo0ooo9**==1&...      ",
"    $7Azltttee000000000gavvvGGGGGGGGvGvvvvdvvddvavvacaaaaqq=eoooo*9***,,#...      ",
"     5Azkteteo0e0000099wkdvvvGGGGGGGGvvvvvvvvavacaaaaaaaqqqq00o099***=,,O..       ",
"     %Aztttetee0e000000o0kavvGGGGGGGvddaadaaaaaaaayaaaqaqqqqeooooo***=1,...       ",
"     $CAkktwwwwweoeooeoeoelnvmmGGGGmy>uw-qwqweet-=--teewqw-wqoooo9***,,&...       ",
"     +2Azuwkeww9oeoeooooooolcvvGGGGmqr0ewwwe0eeeww0wetee0www0ooooo**=,1#...       ",
"      $Azuree0w0oo00eeoeooooznmmGGGmar0ooo0o99oeo0oooooo9999oo99o*9*=1=....       ",
"      @pfkwweww0n0o0ooooooeo0knnGGmmyr99ooooo0oooooooooo99999oo0***=,,=...        ",
"      +>Vzuwew0000000999noooeoNnGGmmar990oo0oooo0ooooooo99999999***=,,#...        ",
"       @Vpsew00w0000090oooooeoobmGmmato9ooooooooeoeooooo9o9o9o9o**=,,=....        ",
"       O<Vuewww0000o90o0oootoooesvvn0toooooeoeeooo0ooonoo9999o9***=1,#...         ",
"        +pfuew0000000o09ooooooeo0znmnNoooooooooooooooooo99oo*oo***,1&....         ",
"        O:ppww0009090990ooon9099oeknatoooonooooo9o9999999oo9*o***=1,#...          ",
"         X1piwq900999999oooo099oooenqtooooooooot909o99o999o*o***=,,&....          ",
"          Opiyw999999999oo0oo0o00ooeeko0ooooooooo099o99o999o***=,1=....           ",
"          .>piwq099o9999oooooo0ooo0oetoooooooooooo9o99ooo9*o**==1,#....           ",
"           X,piq999*oooooooo99o9o9999999oooooo99o999o9**oo***==:,&....            ",
"            .:iyq0q0oooooooo999999999999oooooo0o9oo9oooo*o**==,,&....             ",
"             .,iyq0onooooono9o9999999999ooo00oo9oo99o**o***==,,&....              ",
"              .:iaeeoooooooo99o99o999999nooooooo0oo0oo****==1,&X....              ",
"               .:i1q0****0oooo99oo*9*o9*o9o9999oo9oo*****=,,,&.....               ",
"                .:11,q*******o*o*oooooo9o999ooo*o**o***==,,,&.....                ",
"                 .#,i,,9*****oooooo*oo9oooo**oo*******=,1,=#.....                 ",
"                  ..&11,,=*******o***o*o**ooo******==,,,,&......                  ",
"                   ..#:11,==*=***********o******===,,1,=#.....                    ",
"                     ..&:,1,,====******9**=**====,,,,:#......                     ",
"                      ...#=111,,,===========,,,11,,=#.......                      ",
"                        ....#&,,,1,,1,,,:1111,,=&#........                        ",
"                          .....O#&=,:,,,,,=&&&O.........                          ",
"                            ...X..............X.......                            ",
"                               ....................                               ",
"                                    ..........                                    ",
"                                                                                  ",
"                                                                                  ",
"                                                                                  ",
"                                                                                  ",
"                                                                                  ",
"                                                                                  "
};
