/* XPM */
static char *qhbxj_1i9o1[] = {
/* columns rows colors chars-per-pixel */
"82 82 45 1 ",
"  c None",
". c #121212",
"X c #131C1D",
"o c #1B1B1B",
"O c #161727",
"+ c #151E24",
"@ c #1E1D24",
"# c #16152A",
"$ c #18172C",
"% c #161B28",
"& c #1B1A2E",
"* c #1F1E30",
"= c #201F2C",
"- c #201F30",
"; c #162227",
": c #1B2325",
"> c #162429",
", c #1B242C",
"< c #17282C",
"1 c #1C2A2D",
"2 c #162731",
"3 c #1F2230",
"4 c #172834",
"5 c #192B35",
"6 c #152D38",
"7 c #1B2F39",
"8 c #1F3039",
"9 c #242424",
"0 c #282827",
"q c #24232D",
"w c #28272F",
"e c #262A2B",
"r c #2A2A2A",
"t c #232331",
"y c #242B32",
"u c #2A2C34",
"i c #202F39",
"p c #253032",
"a c #283133",
"s c #23323A",
"d c #2A353B",
"f c #343434",
"g c #32363A",
"h c #36393B",
"j c #3B3B3B",
/* pixels */
"                                                                                  ",
"                                                                                  ",
"                                                                                  ",
"                                                                                  ",
"                                 o@oooooooooo.                                    ",
"                             @9:1e11p118e1<<::XX..                                ",
"                          9:ee8epe1yy3e1,53,<<<<<;...                             ",
"                        9epypye5q5t333,3*3,3,,<2<<<;X..                           ",
"                      9eyyiyyt--q3t**&**&*&&&&>&2>2><<+..                         ",
"                    0epyuuyttt--3*3&***&&&&&&&$$$##2>>>>X.                        ",
"                   9aayuuttttt---&*&*&*&&&&&$&$$$##%%%>><+..                      ",
"                 9eapyyuyttt----***&&*$&&&&&*$$$$####%%%;<;X.                     ",
"                0eayuuttt-t--&--&&&&*&$*&&$&$$$$$$$####%%%;<+.                    ",
"               0ayauuttttt-*--&&&&&&&$$*$&&&*$$$$$#####%OO+;;;.                   ",
"              0eduuutttt-***-&&&&&$$$&&$&&$$$$$$$$######$O%%<;+.                  ",
"             0aauuttttt--***&-&&&&$&$$$$$$$&$$$$$$$#####$OO%%;;X.                 ",
"            0yyuuttttt----$&-$&$$$$$$$$$$$$$$$$$$#$#######$OO%;;;.                ",
"           0aauututtt----&&&&$$&$$$$$$$$$$$$$$$$$$$#######OOOO%;;X.               ",
"           eaauuyttt----$--$$&$$$$$#$$$$$$$$$$$$$$$#$$$&&&$OOO%%;;X.              ",
"          0aauytttt--**&-$$$$&&$$$$$$$$$$$$$$=&&**33wfjj9@&OOOO%+;;..             ",
"         0aauuutt---*&&&$$$$$$$$$$$$$$=----t0fhju=oofjjro.$#O#OO%<;+.             ",
"         eauuuttt--*&&&&-$$-$$-=-tt-wrjjj0=o=jjj9ooofjf0..=O#O#OO%;<X.            ",
"        qyuttutt---*&=---uw0-0fhjf=oofjjfo.o9jjfo..orrf9o==##O##OO+;;..           ",
"        uduuu-tt--=-q=wjjj0oo=jjjrooofjjfo..0ffw@@qqwq&$$=######OO%;;X.           ",
"       0aauyu----*&-r9rjjj=oo=jjj9..offf=======&$$$$#$$###$#####OOO%;+..          ",
"       eaytyttt--*&ufjjjjjo..0jfr===0q-&$$O$$=#$$#$$#$$$#########O#%;;X.          ",
"      9auutt-----&&wjhjff0o==--==$$$$$$$$$##$$#$$$$$$##$#$########O%;;;..         ",
"      9autut----&&&wfjffw$$=$$$=$$$$$$$$$$$=$$$$$$$$$$$=$$######O##O%;;..         ",
"      eayuttt--&&$&thfffft00-ufuuq9qufuur=0=uufu-==rufu----#####O###O;<X..        ",
"     9aayytt---&&&$-09fjjuooorjjfooo=fjjrooorjjf=oo9fjjro.=#######OOO+;+..        ",
"     9aytttt--&&$&$-oowjjfoooojfjro.ofjffooo=jjj0.oofjjfoo=#########O;;;..        ",
"     eyyttt---&&&$$-..offf=..o0ffroo.offf9..orffro..offfo.#######O##$%;<...       ",
"    9eyyyt--&*&&$$$-990rrfr000rfffr000ffff000rffr0009rfr09&$$$#####OO#>;X..       ",
"    :eyytt-***&&$$$tfffffffjfjffjffjjjfffhfjjffffjffffffffw$######O#OO+>+..       ",
"    9eyyt--*&&&$&$$=ffrffffffffjffjffjjfhfhhjfjjffffffffffw#$########OX;+..       ",
"    9pattt-**$$*$$$qfrfffffffjhhfjfjjfjfhhhhffffhjfffffffrq$$$####O#OO%>;..       ",
"    :yettt-*$*$$$$$-ffffgggdgggdggghgggghhdhdhhhggggddafff-$$########%%;;...      ",
"    9pyy--***&$$$$$trfffddddddsdddddddddddddddsssddsddfffg-$########O%%>;...      ",
"    9eytt-**$&$$$$$-ffffd88s88sssdssssssssssssssss88sdffuf-$$######OO%;;;...      ",
"    :pyt--&**&&*$$$tfaffd686868888hds7si8s88888787688sffff-$$$#$#####O%;;...      ",
"    9pyt3*&*&&$$$$$-ffffp666666768jjjjd78777767666666yffrft$$#########%;;...      ",
"    opy3t-=*&&&$$$$trfff766666776sjjjjhd77777777766665ffff-$$$#$####OO+;+...      ",
"    @yy,****&$&&$$$-frffs66667777sjjjjjjhs877787777667ffff-###$###O##OO;;...      ",
"    o1yyt*&&&*$&&$$trfffy67777877djjjjjjjjhs8877777677frrfw###$$####OO;;+...      ",
"    o1p1****=&$&$&=-rfffi77677778sjjjjjjjjjjhd77777767fffr-$########O%;;+...      ",
"    oe5et**&$&&&$$$-0rrfs67777is7sjjjjjjjjjjhd8877777ufff=-$#####OOOOO;;X...      ",
"     9e5**-&&&&$&$$=rr0rp677i7s78sjjjjjjjjhds888i7777ifr00-#$$######O%>;...       ",
"     o5e-*-&-&&$&&=-0rrr35877sii7djjjjjjjhdsss8ssi77itr0rr-$$######$O;>;...       ",
"     o15q,*&&*&&$$*tq0rr,4577iiissjjjjjgdsssisis7i775,0r0rq$#####O##O+;;...       ",
"     o:pt,**&&&$&$$*0rrr,4455iisiyjjjgdsiisssssis7555;rrr0-##$####OO%;;X...       ",
"      o11,&=&&&&*$$q0rrr;45554477djhdssssdsssi7754552,0r0r=######OO%%;;....       ",
"      o15q&&&&&$$$$-0r0r,474457757s778ysiii7775556552<0rr0q######O#%;>;...        ",
"      .:53,&&&&&$$$q000r;2224454444555575555535244222:err0=#######%%;;X...        ",
"       o1<3&&&&$&$$trrrr,%::;;;;,,<,<y515,<,,=,<,,;:%;r00r=O####$O%;;+....        ",
"       o:1,3&&&$$$&q0r0r00e0wrerrrrrrrurrerrwr0rqrq0rrrrr0=$####OO+;;X...         ",
"        o<<,&&&$&$#&rrr0rrrrrrrrrrrerrrrrrrrrrrrr0rrrr0r0r$#####OO;;+....         ",
"        .:<<,&O&$$$*q0q0r00rrww-rrwrr0r0-uwrwrr00000000900q###OO%%;;X...          ",
"         .:<,&%$$$$2wwww-ww-wu--wuwtwwww-*wwwww-wwwtwwwqww$###OO%;;;....          ",
"          o<4%%$$$$####$=#$$#$#$$###$#$#$##$$$$$$$######$####OO%;;+....           ",
"          .;<<2&#$####$###$#$######$#$#$#$##$#$###########OOOO%+;;X....           ",
"           .;<<%%$$#######$#########$#$#####$###$##########OO%+:;+....            ",
"            .;<;%$#########$####$####################O##O#OO%+;;X....             ",
"             .;<;%###############$#########$$##########O#OO%+;;+....              ",
"              .;<%###########################$######O#O#O%O;;;+.....              ",
"               .;;;;%$O$%###OO########################OOO%<;;+.....               ",
"                .+<<;%OO%#O###O###O##O#############OOOOO+;;;X.....                ",
"                 .X;;;;%%%##O####O#$####O#####O###OO%%+;>;+X.....                 ",
"                  ..+<;;%%%OO#OO###OO#####O##OO#OOOO%+;;+X......                  ",
"                   ..X;;>;;%O#%#OO#O#OO#OOOOOO+%%%+>;;;+X.....                    ",
"                     ..X;;>;+++%OOOOO%OOO#%O%%%%;;>;>;X......                     ",
"                      ...X;;>>;;;;+%+%%+O%%>%;;;;>++X.......                      ",
"                        ....X+;;;;;<;;;;X>;;>;>;;X........                        ",
"                          ......X++;;;+;;+++XXX.........                          ",
"                            ..........................                            ",
"                               ....................                               ",
"                                    ..........                                    ",
"                                                                                  ",
"                                                                                  ",
"                                                                                  ",
"                                                                                  ",
"                                                                                  ",
"                                                                                  "
};
