/* XPM */
static char *_lra8_ckcp8[] = {
/* columns rows colors chars-per-pixel */
"82 82 73 1 ",
"  c None",
". c #121212",
"X c #1D1E13",
"o c #131C1D",
"O c #1C1C1B",
"+ c #2C1E14",
"@ c #221E1D",
"# c #2B1F1B",
"$ c #1E2113",
"% c #1F211A",
"& c #222513",
"* c #2E2314",
"= c #252A13",
"- c #292D13",
"; c #23241C",
": c #2E221B",
"> c #26291C",
", c #2A2E1D",
"< c #302716",
"1 c #312C13",
"2 c #30261B",
"3 c #302B1C",
"4 c #2A3013",
"5 c #2B301B",
"6 c #131626",
"7 c #151D24",
"8 c #1E1D24",
"9 c #16152A",
"0 c #18172C",
"q c #151A2A",
"w c #1B1B2D",
"e c #121630",
"r c #141D32",
"t c #1C1E31",
"y c #251F24",
"u c #211E2C",
"i c #201F30",
"p c #162227",
"a c #1B2324",
"s c #162429",
"d c #1C232E",
"f c #17282C",
"g c #1C2A2D",
"h c #152235",
"j c #1C2233",
"k c #1F2B30",
"l c #172639",
"z c #1C2538",
"x c #172839",
"c c #1C293A",
"v c #242424",
"b c #2D2424",
"n c #272923",
"m c #292B24",
"M c #24242A",
"N c #2D262A",
"B c #252B2C",
"V c #2B292C",
"C c #302624",
"Z c #302A24",
"A c #302728",
"S c #302A2C",
"D c #232432",
"F c #2A2734",
"G c #252B32",
"H c #2A2B33",
"J c #272738",
"K c #2A2A39",
"L c #302C34",
"P c #312F3A",
"I c #263032",
"U c #283133",
"Y c #31303C",
/* pixels */
"                                                                                  ",
"                                                                                  ",
"                                                                                  ",
"                                                                                  ",
"                                 OOO%OOOOO.OO.                                    ",
"                             O%vggGgkkkkGgggfao...                                ",
"                          vaBkIkBGGkgDkkdgggggjffp...                             ",
"                        vBBIKGgGDkMjDddjjdwwdssjgffpo..                           ",
"                      vBIKGGDFDidDMtiwwtiwtwwwttwsssff7..                         ",
"                    vBUUGGGDDDiiDwttiiiwwwwwww00qwwwspfpo.                        ",
"                   vUUGGGGDMMjiititu0iiiwwwwt00wqeqqqqssf7..                      ",
"                 vBUUGGGDDDDiiiiuiwtiw00ww0w0w000q099qq7sfpo.                     ",
"                vGUUHFFDMDiiiiiiwwwww0i00ww0w0000000999qqqfs7.                    ",
"               vUUUKFFDDDDiiiw0wwwww0ww00w00t0000e909999qqqspp.                   ",
"              vUUHGGFMDiDituiii0w0wwi00w00wt00000e9099999q6sps7.                  ",
"             vUUHGFDDDDiiiwt0i0iw0000000w0000000090999999966qpp%.                 ",
"            MUUHKGFMDDiiiiuiFSSFFyiw0000000t00000009999999999988p.                ",
"           vUUHGGFDDiiiwiALPPPPPPPLNy0000000000900999e999999996qpo.               ",
"           GUUHFFDDDiiiNFPPPPLPLLLLLSyw0000000000000099999999967ppo.              ",
"          mUUGHFDDiiiibHPPPLLPLLLSLSSLyw00000000099e0909999969987pp..             ",
"         nUUHFFDDiiiibHPLLLLLLLLLLSSSSNbw00000000000999999699969q7pp.             ",
"         BUUHFFDDiiuyNLLLLLLLLSSSSSSAmNby0000090000999999999968698ppo.            ",
"        nUHGFFDDiitibLLLLLLSSSLSSSSSAAAb#u0000000009990999996999qqqpp..           ",
"        BUKGFDDDiiuyASFSSSSSLSSSASAAbCCCy#000000000e909e999999999q7ppo.           ",
"       nUUKGFiDiiii#VSLNSSSSSSSSAAACC33C:+w009e000e000e0999999996687pp..          ",
"       BUKGDFiiiitu#SSASSNSAZZZZAAACbyuu87wttttttDtttttr0ittw999999qppo.          ",
"      vUGGFDDiiiwiu#AZNAAAAAAACCACCC9e9eerrrhrhlllhhrrrreeeeew9999867pp..         ",
"      vUHGFDiiwiwty#mZCANAAAACCZCACy9eeerrrhhhlllllhhhheeeeee0999999qpp..         ",
"      BUGHDDMiiwwwy#CCCbAACCCCZ32C2weeeerrrhhllxlxxlhrrrreeeee096996qspo..        ",
"     vUUGFDDitiww0y#C2CCCCCC23333329e6666eeqeqqwerqwqqrqqq66960999999pp7..        ",
"     vUGFDDDiiwww0u+::bC#A223<<<12;wKJJJFFJGDDDDDDkDDttMjtjuDiw99999q7pp..        ",
"     BGGDDMtitww00u+*:2#:22<1111118DYKKJJKKJGJJDDDDDDDDDjDDwti09999998ppo..       ",
"    %BGGJiiiiiiw00i++1<:3311111111OFKKJJJJGFJDJDDDDDMtjjwMdMrww9999696ppo..       ",
"    aUGGFiiiww00099y+<<*<311111111@DKJKGJDJJJDDDJzDzDjjujtwswww9999969ppp..       ",
"    vGGGDiiii00w000i+*2:2<11111111+wJJFJJJJDDDJDDDDjtDDwwwdwwqw99999898pp..       ",
"    vIGGDiiii0i00000y+#:2311141111&%MJJFJJDDzDDzDjDjDdjjdwwwwqw99969997p7..       ",
"    vGGDDiiii00000000yCCCCZ35355,&>,%aJJDDDzDzDDjjjjjttthwsw7qw999969qqsp...      ",
"    aIGBDituwww00000e0yCCACCZ5ZZ=$VV;$dJJDDJDDzDjDDttjdjwwwqw6q999999qqap...      ",
"    ;GGDiiit0w0w000099ivASSZSSZ>&vHHM&XDDzJDizztjjjjjtjwswwq96w99999687ss...      ",
"    aGGFiiutiww0000000FMbZSLSLm$;VGHVv$OzJtztJDjjjjjttrrrwwq66w9999999qpp...      ",
"    vIGkDiuwwww0000000iKDMvnAn$&vHHHHM;$ODzijDzjjjjjrjrrwqr7e6qq9999997sp...      ",
"    OGGDiittwww0000000iKKFFFv@&vVHHVHHv&$aDzjjtzzjjrjrjqwr6666r9999968qpp...      ",
"    8BkDiiiitww00000000iHHHM$&=BHHHHHVnv&Xwjtjjjjjhjjrsrrqe6e6w99996688p7...      ",
"    OgGkiiwwww0ww000000wwwM$&&vVVHVVVHVv;$Xdzzhzzhjjrjrrrqqeq6w0999996qp7...      ",
"    OBkMtittww0w0w00000000O&=vMHHVHVMVVM;;$Xdzzjjjzrhrpr7rqr66q999999qpp7...      ",
"    OgkkDiitwww0w00000000v$=>vmFVMMVVBmMv;&$Xjzjhhzrrrrreeqeqeq99969qqppo...      ",
"     akGitiwwwww000w0000O&&=;MHmBVBmMBMBv;;&XXhhhhhhhrrrrrq7qqe9999997ppo..       ",
"     Okkiiwiwww0ww000008&&=>vmmMBmMmmnmvnv;=$$Ohhhhhrrrrrreeeq099999q7p7...       ",
"     Ogkkwwtwtwww000008$&==vmBmBnBmBnnmvnn%>&&X%hlhhhrhrqrqqeqq0999987pp...       ",
"     OaGdjitwuww0w0w0w&&&-;vBBmmmmmmmmnnnv;%=&$Xsljhhhqhrrrqe6099966qapo...       ",
"      Oggdwwww0wt0000w&&=>;mnmnmmmmm,nmn>v%$%-$&axxllhjrrqqqqq099699qpp....       ",
"      OgBjdwwww000000u&--;vnmmmnmmm,m,,>,>>$$>-&%Jcxcjjzhjhrrr0999qqppp...        ",
"      OagDdwwww00t009v=4&vnnmmm,5m55,,mm>>=$$$=&$czzkrrwjwwwq8999687ppo...        ",
"       Oggdrww0w0w00q>-;&vnn>,,m5m5m,,4,>==$$$;-&a7wwww8q789ww9999q7p7....        ",
"       .aggwwww000q0w-=$;>n,,,,,55555,4====$$$X&-w900909099999999q7ppo...         ",
"        .fkwwww00009M-$%v>>>,,,,55554444====$$XX-v999099999999999qspp....         ",
"        .aggwwwq0009M$X;;;>,-,,555444444-&=&&$$XXb999999999999699qppo...          ",
"         Opgswqq0090;$%%;=>==--444444444--==&$$XX#099999999996967ppp....          ",
"          .gjsew000w$XX$&&==----44444444=>=*&&$XXX00999999999968pp7....           ",
"          .pffwq0900vvvvvnnnnmmNmmmUmB,4mmvy>v;vv@u9099999999987fpo....           ",
"           .pffqqq090wwwwwww0wi0wwwwdwwwi00i0wwwww999996999996appo....            ",
"            .pffqqq9999999999999000eq09999090909999999996690qppp7....             ",
"             .pspqq909999999999999999999990999999999699968qq7pp7....              ",
"              .7fpwq9999999999999999999999e09999999999699977fpo.....              ",
"               .ppppq99999999899999999999999999996996968q7ppp6.....               ",
"                .pffssqq996996999999699999999999999996997pps%.....                ",
"                 .oppp7q6q996999969999999999699996999q8ppp7o.....                 ",
"                  ..7pspaqq69699969699996999996989687pppp7......                  ",
"                   ..opfpss768999699699996999qq97qqpppp7o.....                    ",
"                     ..oppsp87q7qq8989qqO9q76qqsspppppo......                     ",
"                      ...oppppppppq77q7q9q7wapppasp7o.......                      ",
"                        ....o7pfpfpppppp7asapppp7o........                        ",
"                          .....oo77ppp7ppp77ooo.........                          ",
"                            ..........................                            ",
"                               ....................                               ",
"                                    ..........                                    ",
"                                                                                  ",
"                                                                                  ",
"                                                                                  ",
"                                                                                  ",
"                                                                                  ",
"                                                                                  "
};
