/* XPM */
static char *bdujn_74dbq[] = {
/* columns rows colors chars-per-pixel */
"82 82 73 1 ",
"  c #121212",
". c #12171E",
"X c #131C1D",
"o c #1B1B1C",
"O c #2B2916",
"+ c #23271D",
"@ c #27291A",
"# c #2D2C1B",
"$ c #372F12",
"% c #332D1B",
"& c #373214",
"* c #3A3513",
"= c #3C3A12",
"- c #34321A",
"; c #3A351B",
": c #141724",
"> c #141C24",
", c #191F24",
"< c #16152A",
"1 c #18172C",
"2 c #151C29",
"3 c #1B1A2E",
"4 c #121F30",
"5 c #1E1E30",
"6 c #201F30",
"7 c #162227",
"8 c #1B2325",
"9 c #15222B",
"0 c #1C232D",
"q c #152B2E",
"w c #1C2A2D",
"e c #1F302C",
"r c #122334",
"t c #1C2432",
"y c #132A35",
"u c #1D2A35",
"i c #122639",
"p c #132C38",
"a c #1B2D39",
"s c #163135",
"d c #1B3335",
"f c #1A3937",
"g c #153339",
"h c #1B333A",
"j c #17393B",
"k c #19393B",
"l c #232423",
"z c #252B22",
"x c #292F21",
"c c #21242E",
"v c #252C2D",
"b c #282B2D",
"n c #243127",
"m c #2B3122",
"M c #253329",
"N c #373120",
"B c #3A3624",
"V c #3B372B",
"C c #3C382B",
"Z c #232331",
"A c #232B33",
"S c #292D34",
"D c #222E39",
"F c #253033",
"G c #293133",
"H c #24333A",
"J c #2A343B",
"K c #243A3D",
"L c #2D3A3D",
"P c #303235",
"I c #3D3A32",
"U c #323B3D",
"Y c None",
/* pixels */
"YYYYYYYYYYYYYYYYYYYYYYYYYYYYYYYYYYYYYYYYYYYYYYYYYYYYYYYYYYYYYYYYYYYYYYYYYYYYYYYYYY",
"YYYYYYYYYYYYYYYYYYYYYYYYYYYYYYYYYYYYYYYYYYYYYYYYYYYYYYYYYYYYYYYYYYYYYYYYYYYYYYYYYY",
"YYYYYYYYYYYYYYYYYYYYYYYYYYYYYYYYYYYYYYYYYYYYYYYYYYYYYYYYYYYYYYYYYYYYYYYYYYYYYYYYYY",
"YYYYYYYYYYYYYYYYYYYYYYYYYYYYYYYYYYYYYYYYYYYYYYYYYYYYYYYYYYYYYYYYYYYYYYYYYYYYYYYYYY",
"YYYYYYYYYYYYYYYYYYYYYYYYYYYYYYYYYoooooooooooo YYYYYYYYYYYYYYYYYYYYYYYYYYYYYYYYYYYY",
"YYYYYYYYYYYYYYYYYYYYYYYYYYYYYo+8vwAwAwueAww788X   YYYYYYYYYYYYYYYYYYYYYYYYYYYYYYYY",
"YYYYYYYYYYYYYYYYYYYYYYYYYYl8bvFAvuwAwAvwtwwwwqw9qX   YYYYYYYYYYYYYYYYYYYYYYYYYYYYY",
"YYYYYYYYYYYYYYYYYYYYYYYYlvvFFAuvZvZZ5c3t0330000q0wq7X  YYYYYYYYYYYYYYYYYYYYYYYYYYY",
"YYYYYYYYYYYYYYYYYYYYYYlbFSSSAcZZ0ZZ36666303333239t99q77  YYYYYYYYYYYYYYYYYYYYYYYYY",
"YYYYYYYYYYYYYYYYYYYYlbbSSAAZZZZZZ36036333333333112297997X YYYYYYYYYYYYYYYYYYYYYYYY",
"YYYYYYYYYYYYYYYYYYYlFFFAvZZZZc66665536333333131311112,,9q7  YYYYYYYYYYYYYYYYYYYYYY",
"YYYYYYYYYYYYYYYYYlbFGSASZZZ6655636333333333333111111<<22797X YYYYYYYYYYYYYYYYYYYYY",
"YYYYYYYYYYYYYYYYlSGSSZSZZZZ66366533333333333111111<1<<221,777 YYYYYYYYYYYYYYYYYYYY",
"YYYYYYYYYYYYYYYlSPSSSS6ZZZ666633333333313113311111<<<<1<22,77X YYYYYYYYYYYYYYYYYYY",
"YYYYYYYYYYYYYYlGPZZSZ6ZZ66536333ZhDZ333311311111111<<<<<<<22977 YYYYYYYYYYYYYYYYYY",
"YYYYYYYYYYYYYzGGSSSSZZZ6656533Zdhgghhut331131311<111<<<<<<<2,77X YYYYYYYYYYYYYYYYY",
"YYYYYYYYYYYYlGSSSZS6ZZ66553336syggggggggut3311111<1<<<<<<<<<:<,7X YYYYYYYYYYYYYYYY",
"YYYYYYYYYYYlGGSSSZZS666655335Z4>9uhggggpgpaat511<11<<<<<<<<<<:277> YYYYYYYYYYYYYYY",
"YYYYYYYYYYYbGGSSZS66666653151A4:>355tagggypppaat5111<1<<<<<<<2<,79X YYYYYYYYYYYYYY",
"YYYYYYYYYYbGGSSZZZ66666615111Ar22t11155uuhppppiaai541<<<<<<<<<<:,77  YYYYYYYYYYYYY",
"YYYYYYYYYlGGSSZS6666363111115tr22t<1<1<13tuuhppiiiyut511<<<<<::<2,7> YYYYYYYYYYYYY",
"YYYYYYYYYbGSSSZZZ666333351511tr2r311111<11136Zahpiiriyu51<<<<::<2>77X YYYYYYYYYYYY",
"YYYYYYYYZPSPZZS66663331311151trrr5111<1115511115Aaapiiiit1<<<<<<2<,77  YYYYYYYYYYY",
"YYYYYYYYZPSZPZZZ6663313111111tiri5<1<111taDui551115Daprr4Z<<<:<<<<,77X YYYYYYYYYYY",
"YYYYYYYlGGSZS6666633111111111trii511155ahDJDDDZ651115diri5<<<<<<::1,77  YYYYYYYYYY",
"YYYYYYYbGSSZZZ666633111111111Zrii3113AaaJLJJJJDauu551uyrrt1<<<<<<:<277X YYYYYYYYYY",
"YYYYYYlFSSSZ66661613111111111tipp53tahJJJJJHJJJJDDattuyrr5<1<<<<<<:2,97  YYYYYYYYY",
"YYYYYYzGSZSZ663661311111111110yppuhhHKJJJJDJJJDJJJGDuuir45<<<<<<<<<<277  YYYYYYYYY",
"YYYYYYvFSZZZ666311111111111116igghKHJHHHHHDJDJDDDDDSGhi942t01<<<<<<:277X  YYYYYYYY",
"YYYYYlFSSZZZ666361611111111116pgHKHHJKHKHDHDJDDDDDDDAui24tw24t<<<<<<<77,  YYYYYYYY",
"YYYYYlGSSZZZ6663111111111111DhKKKhhhghpahhDDDDDDDDDADur44797ti<<:<<<<,77  YYYYYYYY",
"YYYYYbSAZZ66663311111111116aghhjggpggppppiiiaDDaADDAuyr2244iii<<<<<<<277X  YYYYYYY",
"YYYYovSASZ6663311111<<12cdjkjggjggpggppppyyyippaaaDtutr224ipyt1<<<<<:<79X  YYYYYYY",
"YYYYlvSAZ66663331111<<5Fdsjkjjjgdgggysppppyiiripauauty4>>4aHDi<<<<<<<<,77  YYYYYYY",
"YYYY8MAAZ666333111111tfq7dkkjjjjggggggppypipiiyrrrrt4r2>>9JLDi<1<<<<<>,77  YYYYYYY",
"YYYYlSSAZ66363331111<Kkfqqquhjjfggggpppppppiiirriir4yi29qyLGZ41<<<:<<<,7>  YYYYYYY",
"YYYYlMAZZ666333111113HLKfjsqqqsggggggppppppiiiir4iripiyygfAJDi<<<<:<1:277   YYYYYY",
"YYYYlFAZZ666333311111dLUULKjsqqqsyggggppppriirii4ipppyygggAAu5<<<<<<:1277   YYYYYY",
"YYYYlFAZ6666333311<11KLLULJKKdgyqqqppgppgpiiiiirypphHuiyyrput51<<<<11:277   YYYYYY",
"YYYYoSAZZ6633311111<1HHKddHKJKHhgpyqqyppyyyyryrppghHLA2i9yptt4<1<<<1:1277   YYYYYY",
"YYYYlFAZZ363331111111aggggggghHKjhggpiyyyiyyyypggHJJFA9r2ppDtt<<<<<<<:,97   YYYYYY",
"YYYYoFwZ6663333311111agjjfgggypgdJHHgiy94qyipgghHJHFDuq9tuAt7t<<<<<<<:,77   YYYYYY",
"YYYYoAAZZ666633111115hkjggggpppypaJJJDaayyygggdHHHADau44rtw095<<<<<<<<27>   YYYYYY",
"YYYYowvA6633331341568zmMdgggppppyipHJJDDpigghHJHHSuyr24r4:>994<<<<<<:<,7>   YYYYYY",
"YYYY8wAZ06353331130.:%IVBmMppiiririyaHJDHyghHHHAuay944r4>>4>:t<<<<<<<2777   YYYYYY",
"YYYYozAwZ663333316.>XNIIIC;myipirrrryDDDDysHHHHapr92ri4.44..22<1<<<:<277X   YYYYYY",
"YYYYY8vu0666333130.:,NVVCCC;-yiiir44iiDDDigHHFapr4rir>>4>.>425<<<<:<:,77.  YYYYYYY",
"YYYYYoAwc633333313>2>%BVBBBB;-wir4t44ruutipduda99rir>4r>>42201<<<<<<2,77   YYYYYYY",
"YYYYYowwtc63333310:22#B;&;;;;=&qrrr424yrtypadgr4rr42r4>>>4151<<<<<<<2,77   YYYYYYY",
"YYYYYo8Ac03336333t2278&$&&*===*&4422t,rrrypgy4rpr44r>>>44251<<<<<:<>279X   YYYYYYY",
"YYYYYYowu63c3331152127$&&&=*====z499u84rr9yq9ip4944>>241911<<<<<<<<<,77    YYYYYYY",
"YYYYYYowww33333315t4rr@&**&=====*0tvAc>r9ryyii4>r4>4449511<<<<<<<<<2,7>   YYYYYYYY",
"YYYYYY 8uw033313115r445x***======#wAbS,244iyr94r4>24295<<<<<<<<<<<<,77X   YYYYYYYY",
"YYYYYYYoww033313111Zr4it%**======*8ASb,424iy4rr4>4r2t3<<<<<<<<<<<<>,7>    YYYYYYYY",
"YYYYYYYo8ww331315111tiiiw#;=======+ZSG>44>i4rr22444t11<<<<<<<<<<<2,77X   YYYYYYYYY",
"YYYYYYYYo8w0331311111t4iiiz-*=====OwGv>>>9ryr24r44q<1<1<<<<<<<<<<2777    YYYYYYYYY",
"YYYYYYYY 7qw3131111111typppum-;&&*@vS822>4i44>r456<1<<<<<<<<<<:<2,77X   YYYYYYYYYY",
"YYYYYYYYY 8qw1214<<<113ipyppsunGmM98,:2>22r44r2t11<<<<<<<<<<<<:<777>    YYYYYYYYYY",
"YYYYYYYYYY wq3311<1<<<11tupppgggggt::2>>:24irrt111<<1<<<<<<<<:<:77>    YYYYYYYYYYY",
"YYYYYYYYYY 8qq921<<<<1<<<3tgpgppgt352>>>,144r211<1<<<<<:<<<<<2<279X    YYYYYYYYYYY",
"YYYYYYYYYYY 709,121<<<<<<<<53iD54<<<<52,<<4i1<1<<<<<<<<<<:<<<2>77X    YYYYYYYYYYYY",
"YYYYYYYYYYYY 7q922<<<<<<<<<<<<111<<<<<<51<51111<<<<<<<<<<<<::777>    YYYYYYYYYYYYY",
"YYYYYYYYYYYYY 79924<<<<<<<<<<<<<11<<<<<<<<<<11<<<<<<<<<<<:<2777>    YYYYYYYYYYYYYY",
"YYYYYYYYYYYYYY 7991<<<<<<<<<<<<<<<<<<<<<<<<<1<<<<<<<:<<<:<2777>     YYYYYYYYYYYYYY",
"YYYYYYYYYYYYYYY 777712<<:<<<<<<<<<<<<<:<<<<<<<<<<<<<:<<<22,77X     YYYYYYYYYYYYYYY",
"YYYYYYYYYYYYYYYY >q97,2<2<<<<<:<<<<<:<<<<<<<<:<:<<:<<<<27777>     YYYYYYYYYYYYYYYY",
"YYYYYYYYYYYYYYYYY X777,,<<:<::<:<<<<<<<<<<<<<<<<:<:<<2,777>X     YYYYYYYYYYYYYYYYY",
"YYYYYYYYYYYYYYYYYY  7997,22<<<<<:<<:<<<<<<<<<<<<<<<2,,777>      YYYYYYYYYYYYYYYYYY",
"YYYYYYYYYYYYYYYYYYY  X7977,72<2<<<<<<:<<<<:<1<<22,,7777>X     YYYYYYYYYYYYYYYYYYYY",
"YYYYYYYYYYYYYYYYYYYYY  X7997,,,222><2<2<<.22:2,,,79777X      YYYYYYYYYYYYYYYYYYYYY",
"YYYYYYYYYYYYYYYYYYYYYY   X77797777,,>:2,:22,,779977>X       YYYYYYYYYYYYYYYYYYYYYY",
"YYYYYYYYYYYYYYYYYYYYYYYY    X2,777997877,87798777>        YYYYYYYYYYYYYYYYYYYYYYYY",
"YYYYYYYYYYYYYYYYYYYYYYYYYY     XX>77>77777>>XXX         YYYYYYYYYYYYYYYYYYYYYYYYYY",
"YYYYYYYYYYYYYYYYYYYYYYYYYYYY                          YYYYYYYYYYYYYYYYYYYYYYYYYYYY",
"YYYYYYYYYYYYYYYYYYYYYYYYYYYYYYY                    YYYYYYYYYYYYYYYYYYYYYYYYYYYYYYY",
"YYYYYYYYYYYYYYYYYYYYYYYYYYYYYYYYYYYY          YYYYYYYYYYYYYYYYYYYYYYYYYYYYYYYYYYYY",
"YYYYYYYYYYYYYYYYYYYYYYYYYYYYYYYYYYYYYYYYYYYYYYYYYYYYYYYYYYYYYYYYYYYYYYYYYYYYYYYYYY",
"YYYYYYYYYYYYYYYYYYYYYYYYYYYYYYYYYYYYYYYYYYYYYYYYYYYYYYYYYYYYYYYYYYYYYYYYYYYYYYYYYY",
"YYYYYYYYYYYYYYYYYYYYYYYYYYYYYYYYYYYYYYYYYYYYYYYYYYYYYYYYYYYYYYYYYYYYYYYYYYYYYYYYYY",
"YYYYYYYYYYYYYYYYYYYYYYYYYYYYYYYYYYYYYYYYYYYYYYYYYYYYYYYYYYYYYYYYYYYYYYYYYYYYYYYYYY",
"YYYYYYYYYYYYYYYYYYYYYYYYYYYYYYYYYYYYYYYYYYYYYYYYYYYYYYYYYYYYYYYYYYYYYYYYYYYYYYYYYY",
"YYYYYYYYYYYYYYYYYYYYYYYYYYYYYYYYYYYYYYYYYYYYYYYYYYYYYYYYYYYYYYYYYYYYYYYYYYYYYYYYYY"
};
