/* XPM */
static char *vg046_w8g2i[] = {
/* columns rows colors chars-per-pixel */
"82 82 40 1 ",
"  c None",
". c #121212",
"X c #121718",
"o c #181718",
"O c #131B1E",
"+ c #1B1B1B",
"@ c #161727",
"# c #141E22",
"$ c #1A1E22",
"% c #16152A",
"& c #18172C",
"* c #161B28",
"= c #1B1A2E",
"- c #1F1E30",
"; c #201F2F",
": c #201F30",
"> c #152226",
", c #1B2325",
"< c #162429",
"1 c #1C242B",
"2 c #17282C",
"3 c #1D2A2D",
"4 c #1F2230",
"5 c #1F2B30",
"6 c #1B323B",
"7 c #232424",
"8 c #21252B",
"9 c #242A2C",
"0 c #2A2D2E",
"q c #232331",
"w c #252C32",
"e c #292E32",
"r c #253032",
"t c #2C3133",
"y c #2A3539",
"u c #333535",
"i c #333738",
"p c #383738",
"a c #373839",
"s c #3A3A3A",
/* pixels */
"                                                                                  ",
"                                                                                  ",
"                                                                                  ",
"                                                                                  ",
"                                 $+$$+++O+ooo.                                    ",
"                             $$,939595555532<,#Xo.                                ",
"                          7799rw55545w93424233222#...                             ",
"                        799rrww5w9q44144-14-1124222<#..                           ",
"                      7wwrwwwqqq8:q-:-==-====<=<*2<222#..                         ",
"                    79rrrwwqqqq:----=---====&-&&=&&<><<<#.                        ",
"                   ;0rtwwqqqq-::-=-==-=-==-=&&&&&&&&**<<2>..                      ",
"                 70etwwqqqq:q-::---=-=======-&&&&&%%****>>>O.                     ",
"                :ueteewqqqq:::======-&-&==&==&&&&&&%%%%***>2>.                    ",
"               7qyeeqqqqqq::::-=-=====&-&===-&&&&&%%%%%%**>>>#.                   ",
"              7tyeqeqqqq:::::==-==&&&-&&==&&&&&&&&%%%%%%%*@*>2>.                  ",
"             7rtqyeeqq:::---=====&=&&&&&&&=&&&&&&&&%%%%%%%@@#>>#.                 ",
"            7ttewqy:qq::--=-&==&&&8qettteq88=&&&&%%&%%%%%%@@@@#>>.                ",
"           7tttqqeqq::::=-===&&=:uiuiuuuuuu0e8=$&%%&%%%%%%%%%@##>O.               ",
"           eyeewqqq:::::=--===:eiiiyuuutuette09,&&&&%%%%%%%%@@%*>>O.              ",
"          9etwqwqqq:::::==&=&quuuiiuitututtt0e03<=&&&%&%%%%%@%*@>>>..             ",
"         7etyqqe::::::===&=&wtiiuuuytutteu0e00004*;%%&%%%%%%%@@%**>#.             ",
"         0yequqq::::=====&&qtuttuytuuttteet000999>O8&%%%%%%%%@@@*#>2O.            ",
"        ququqqe::::===&&&==ttutuutuettttt000099998+$=%%%%%%%%%%@@*>>>..           ",
"        :yyquqqq:::===&=&=ettttttutttt0t0ee9998938,O;%%%%%%%%%%@%**>>O.           ",
"       7ttwqqqq::::==&&&&:tt0tttettt0t0r000r999999,$+;&%%%%%%%%%@@%*>>..          ",
"       0reww::::::==&&&&&qeer0r0eet0t9e009999989888++$&%%%%%%%%%%@@@>>X.          ",
"      7ryqw:::::-==&&&&&=98q889eew9tt99e00999899898,#+=%%%%%%%%%@%@%>>>..         ",
"      7yttqq::::===&&&&&810tut97999e90t9099999979,8,+O=&%%%%%%%%%%@@*2>..         ",
"      9rwqqqq::==&&&&&&&8ssspppp999999e999999893787,+#$%&%%%%%%%%@%@*>>O..        ",
"     7rteqqq:::&==&&&&&:usspppups0899909999979873,8,+$@%%&&%%%%%%%%@*>>>..        ",
"     7twqe::::::==&&&&&:assspuuuas083989999799737,,,+O%&&%%%%%%%%@%@**>>..        ",
"     9rwqq:::::=&&&&&&&:sautppuuuss8398993999,9,937,@@%&&&%%%%%%%%%%%*>>X..       ",
"    ,wwwqq::--&-&&&&%&&8s7oo+0puuuss73799398799,,9,,$O#&&&&&%%%%%%%@@%>>O..       ",
"    7wwwq::--&-&&&&&%&%:0o++o>tpuups0,3,79739,7,,,,,+O$&&&&&%%%%%%%%@@>>>..       ",
"    79wwqq:-==-&&&&&&%%:0+o++,6puuups,,,3993,9,37,,$$,8&&&&&&&%%%%%%%%#>>..       ",
"    ,rwqqq:--=&&&&&&&%&:0++++$6yuuuus9,,,7,7,,,7,,,,71-&&&&&&%&%%%%%@@@>>..       ",
"    7wwwqq:-==&-&&&&&%&&7++++o76iupusu$,,,,,,99,7$,773=&&&%&%%%%%%@@%**>>...      ",
"    7rw4q:---&&&&&&&&&%%97+++++<rsppsu#,,,,,90009993,8&&%%&&%&%%%%%%@**>>...      ",
"    7rwq:---&-&=&&%&&&%&;0+++++o,ppppu$,,$$9090990,$8%&&&&&&&&&%%%@%@**>>...      ",
"    ,wwq:----&-&&&&&&&%%%77++++++ssspt##$,,,99797,>,=%=&&&&&&%&%%%%%@%*2>...      ",
"    7rwq::--&==&&&&&&&&&%&q7$o+o7ssss0O$,,,,78891<*-&&=&&&&&&&&&%%%@@%#>>...      ",
"    +r5q::--==&&&&&&&&&&&%-407+7ussss9#>#,$,3,,$#*4&&&=&&&&&&&%&%%%%@@>>>...      ",
"    ,5w4:-----&-&&&&&&&&%&&&80uuuusstO##O>O$>>#O#-&&===&&&&&&&&%%%%%%@@>#...      ",
"    +5wq---==&&&&&&&&&&&&&&%&;80uuu0####$OOOO#O>-&&=&==&&&&&&&%&%%%%@@@>#...      ",
"    +359----===&=&&&&&&&&&%&&=8<7,##OOOOOOOOOO#><4-&&&=&&&&&&%%%%@%%%@>>#...      ",
"    +9w96--=====&&&&&&&&&%&&1wetr>XO##O#OOOOO2>>##*1=&&=&&&&&%&%%%%@@*>2#...      ",
"     ,53---===&==&&&&&&&&&&wetrw03OOO##OOOX.O#>>>>>#=-&&&&&&&&%%%@%@@*>>X..       ",
"     +r5----=====&&&&&&&&-wyttrr93OXOO#OOOXX<>#####>&&-&&&&&&&%&%%%%*>>>...       ",
"     +3941-===&==&&&&&&&=yyewt9ww3>#O##OOXXO>#########<=&=&=&&%&%%@@*>>>...       ",
"     +3344=-=-==&=&&&&&&qyyetrw9wew2>>>>##>>###########=&&&&&&&%%%%@*>>O...       ",
"      +5541-===&=&=&&&&&eyeewwwttw39#>>#>#>############8&=&&%=%%%@***,>....       ",
"      +334-======&&&&&&6eeewrttte352>>>########$#O##O##8&&&&%%&%%%@*><>...        ",
"      .,541====&&&&&&&&4rerertww39w1,>>>######OOO##O#OO=&&=%=&%%%@@*>>X...        ",
"       +224=-&==&&&&&&&=rewww9w9<99,2,O###O##O#OOOO##O>=&&&=%%%%%@@>2>....        ",
"       o>32-==&=&&&&&&&&wwwwww3<993<,>>####OO#O##OOOOO1&=&=%%%%@%@*>>O...         ",
"        +254<=&&&&&&&&&&:www9332991<,>2###O##OOOOOOOO>&&=&%%@%%@**>>#....         ",
"        .>321=&&&&&&%%&%%q45311238,<,,<,###O#OOOOOoX;=%%&@%%@@@@*>2>O...          ",
"         o231&=&=&&&%%&%&&41212991<<,,,,$OOOOOOOXX#;&&%%%%%@@@@@*>>#....          ",
"          .22<=*%%&%%%%&%%%-812131,,,,,,,##OOOXX#;;&&@%%%%%%@%%%<>#....           ",
"          .>22<*&%%%%%&%%%%%&&441<,,>,>,$#OXX#$;=%%%%%%%%%%%@@%$>>#....           ",
"           .<2<&&%%%%%%%%%%%%%%%&=1=1$$===8;;=&&%%%%%%%%%@@%%*>>>O....            ",
"            X#22<%%%%%%%%%%%%%%%%&%%%%&%%%&%%&%%%%%%%%%%@@%%@#>>#....             ",
"             .<2<%%%%%%%%%%%%%%%&%%%%%%&%%%%%&%%%%%%%@%@%@%*#><#....              ",
"              .#22*%%%%%%%%%%%%%%%%%%%%%%%%%%%%%%%%%%%@@%@$<<>#.....              ",
"               .>2>***%%%%%%%%%%%%%%%%%%%%%%%%%%%%%%@@%@*#*>>#.....               ",
"                .#222*@*%@@%%%%%%@%%%%%%%%%%%%%%%%%@%@@@>>2>#.....                ",
"                 .O>>>>@@*%%%@%@%%@%%@%%%X%%%@%%%@%@**##>>>O.....                 ",
"                  ..#>22#***@@%@@%@%%%%@%%%%%@@%@@@@*>><>#......                  ",
"                   ..O>>>>>*@%*@*%@@@%@%%%@%@@*****>><>#X.....                    ",
"                     ..O>2>>##**@*@*@*@*%%*****>>>>><##......                     ",
"                      ...O>>>>>>>*#**#**@**<*>>><><>X.......                      ",
"                        ....O><>>>2>2>>>##>>>><>>O........                        ",
"                          .....XO##>>>>>>>#>#OX.........                          ",
"                            ..........................                            ",
"                               ....................                               ",
"                                    ..........                                    ",
"                                                                                  ",
"                                                                                  ",
"                                                                                  ",
"                                                                                  ",
"                                                                                  ",
"                                                                                  "
};
