/* XPM */
static char *e9wd6_8pbu1[] = {
/* columns rows colors chars-per-pixel */
"82 82 32 1 ",
"  c None",
". c #121212",
"X c #131C1D",
"o c #1B1B1B",
"O c #161727",
"+ c #151E24",
"@ c #16152A",
"# c #18172C",
"$ c #161B28",
"% c #1B1A2E",
"& c #1F1E30",
"* c #201F30",
"= c #162227",
"- c #1B2425",
"; c #162429",
": c #1C232E",
"> c #17282C",
", c #1C2A2D",
"< c #172237",
"1 c #1B2336",
"2 c #1E2934",
"3 c #172338",
"4 c #1B2639",
"5 c #1D293A",
"6 c #232323",
"7 c #252C2D",
"8 c #232432",
"9 c #242B32",
"0 c #282D34",
"q c #212839",
"w c #263032",
"e c #283133",
/* pixels */
"                                                                                  ",
"                                                                                  ",
"                                                                                  ",
"                                                                                  ",
"                                 oooooooooooo.                                    ",
"                             o6-7,w,9,w,,,>-;-X...                                ",
"                          667ww972,89:2,8,>,,,,>>=...                             ",
"                        677e999,9:88:8::1:%:%:>>>,>=X..                           ",
"                      67000080**888%*&&&%&%%%%$%;<;>>>+..                         ",
"                    67e0008**8**:%:**%%&%%%%%%%#$#$<=;;=X.                        ",
"                   6eee008*0*8**&&&%%*%%%%%%%%%#@@@$$$;;>+..                      ",
"                 67ee008880*****&&%&*%%%%%%%#%####@@@$$$;>=X.                     ",
"                6eee00088888**%*%%%%%%%%%%%#%######@@@@$$;=>+.                    ",
"               60000888888*&**%%%%%%%%#%%%%%%######@@@@@O$$===.                   ",
"              6e000088**8*&&*%%%%%#####%@#%##%###@#@@@@@OO$$>=+.                  ",
"             6ee0088088**&&%%%%%%%#%#%%##%######@##@@@@O@OOO$==X.                 ",
"            0e000608*8***%%%%%%##%################@@@@@@@@@@@@++X.                ",
"           6ee0080888*****%%%%%##**qqq*q*qqqq%###@#@@@@@@@@@@@$+==.               ",
"           0ee008088****%%%%%%###*qqqqq<qq<q4&######@@@@@@@@@OO+==X.              ",
"          6ee00088******%%%###%#%*q<<*q<<<q<<q####@@@@@@@@@@@OO$$==..             ",
"         6ee0008***%#*##%#%%#####*q4<11111114&#######@@@@@OO@@OOO==X.             ",
"         0ee00888****##*%########<q4q1q<q<<q41######@@@@@@OO@OO@$O=>X.            ",
"        6000880*****#*###%######%*q<<<q1q1<1<1###@@#@@@@@@@O@@OO$$$==..           ",
"        000008*0***#*##*#########*q<q1<<<1<q<<###@#@@@@@@@@@@@@@O$$==X.           ",
"       6ee000******##############<q<4*4<q<<&4q##@#@##@#@@@@@@@@@O@O+==..          ",
"       7ee0888*****##############*q<4444<qq<4&###@###@@@@@@@@@@@@OOO==X.          ",
"      6e0088******###############<q44<44<<<q4&###@###@@#@@@@@@@@@OOO+==..         ",
"      6e0808**%*##*##############&q<4*44q<q444######@###@@@@@@@@@@OO$==..         ",
"      7e0088***%#################&q<4*3444443<####@#####@@@@@@@@@@@@$;=X..        ",
"     6w08888***%#*###############*q444444q4433####@#####@@@@@@@@@@OOO==+..        ",
"     6e90888***%##*##############&q<<444444433@@#@##@@@@@@@@@@@@@@@OO$==..        ",
"     7e088****%%#################<q<qq44444443#@@###@@@@@@@@@@@@@@@O$$==X..       ",
"    6709q***&&%%#################&q&544444q44*######$##OO###@@@@@@@O@O==+..       ",
"    6w99***&%%%##&1*&4&%<&<&&<&<&5444544444455&&<&<<11111113&&@@@@@OOO+=+..       ",
"    ow99q**&*%%%#qqqqqqqq4qqqqqq5544444*q444445q554455554q5q53@@@@@O@@X==..       ",
"    6w988***&%%%#q44<<<<1444<<<q35444455444q454555545555455553@@@@@@OOO==..       ",
"    -79988**&%###8q4<4&44141444<355444444444553544454444555554#@@OOOO$$==...      ",
"    6w98****%%%##8q1444414141<q&444444*44344335344445535444554@@@@O@@$$=+...      ",
"    6708****%%&##qq<441444444444444434534434533544455553454541@@@@@@O$;=;...      ",
"    6908**%*%%###q4&<&414<&44q444&&343353445355345545555555554@@@@@@OO$==...      ",
"    6w92***&#%%##q1<qq<14444444<333433434434445554555555555555@@@@@@OO$==...      ",
"    ow78***&%%%##8q<<<11<<444<<<334343444444553554555555555555#@@@@@@O$==...      ",
"    o928****%%#%&*4q14q<4q<<<<<<&43434455344535555555555555554@@O@O@OOO=+...      ",
"    -,78**%%&%#%#qq<41113<<<<<4&33434445353353555455555555q555@#@OO@@O+++...      ",
"    o,7:****%%%##q4q4444<33<3333433335535554555555555555555554#@@@@OO$==+...      ",
"    o727***%%%#%#%111&<&<<<<<<33445353353545553&33443&34q44&4&@@@@@@O$==X...      ",
"     -72***%%%%%%#%#######@@#####&333333555553#@@@@@@@#####@@@@@@@OOO$==X..       ",
"     o9,****%%%#%#%######@##@####&55535553555&#@@###@######@@@@@@@@O$==$...       ",
"     o,2::*%%%%%%###%#######@#@##333445453553&@#@###@#@@###@@@@@@@@O$+=+...       ",
"     o-9:8%*%%%%#%%##########@#@#434353555555&@@@@##@#@####@#@@@@@@O$==X...       ",
"      o7,8%%%%%%%#%#####@###@####&355454555554@#@@#@#####@##@@@@@@O$$==....       ",
"      o>,::%%%%%%########@@##@@@<&534544555534@#@@##@@##@@@@@@@@OO$$===...        ",
"      o-,::%%%%%%#######@##@@#@#@3353555355555##@@@@@@#@@@@@@@@@OOO$==X...        ",
"       o,,:%%%%#######@@#@@@@@#@@%535555555534##@@@@@@@@@@@@@@@@OO$$=+....        ",
"       .;,::%#%###@@#@@@#@##<@@#@3535335555554##@###@#@#@@@@@@@@O$$>=X...         ",
"        o-:,%%%###@@@<#@@#@@@@@@#&55555555553&@#@##@@@@@@@@@@@@@OO==+....         ",
"        .-,>:%##@@@###@@@##@#@#@@3533355555555##@@@@@@@@@@@@@@@@O;==X...          ",
"         .;,;%%%@@@@@@@@@@@@##@#<&553555555555##@@@@@@@@@@@@@@@@$;=+....          ",
"          .,>;$$@<@@@#@@@#@#@@@@@#535555555555##@@@@@@@@@@@@@@@O===....           ",
"          .->;<$@@@@@@@@@@@#@@@@@<353355555555##@@@@@@OO@@@@@@@X==X....           ",
"           .=>>#@@@@@@@@@@@@@@@@@144555543553<@@@@@@@@@O@@@@XO+==X....            ",
"            .=>>;@@@@@@@@@@@@@@@@&33555533553@@@@@@@@@O@O+@@@O==+....             ",
"             .+;;@@@@@@@@@@@@@@@@@@@@@#@@@@@@@@@@@@@@@@O@O@++;=X....              ",
"              .=;<#@@@@@@@@@@@@@@@@@@@@@@@@@@@@@@@@@@@OO@O$;;;X.....              ",
"               .====$$$OO@@@@@@@@@@@@@@@@@O@O@@@@@@@O@OO$$===+.....               ",
"                .=>>=$O$@@O@@@@O@@@@OO@@@@@@OO@@O@@OOOOO$===X.....                ",
"                 .X===$O@$@OOOOO@@OOO@@@@.@@O@@@OO@O$$$+==+X.....                 ",
"                  ..=>==+$$$OOOO@@OOOO@@@@@@@OOO@OOO++===+......                  ",
"                   ..X=>;;=$@OOOOOOOOOO$@@@@OO$$$++=;;=+X.....                    ",
"                     ..X====$$+$$OOOOO$OO@$$$$$$==;;=++......                     ",
"                      ...X=;======$$$$$$O$++===;=;++X.......                      ",
"                        ....X+=;;;===>==++;;;=;++X........                        ",
"                          .....XX++===+===++XXX.........                          ",
"                            ..........................                            ",
"                               ....................                               ",
"                                    ..........                                    ",
"                                                                                  ",
"                                                                                  ",
"                                                                                  ",
"                                                                                  ",
"                                                                                  ",
"                                                                                  "
};
