/* XPM */
static char *h02qb_f67ej[] = {
/* columns rows colors chars-per-pixel */
"82 82 34 1 ",
"  c None",
". c #121212",
"X c #131C1D",
"o c #1B1B1B",
"O c #161727",
"+ c #151E24",
"@ c #16152A",
"# c #18172C",
"$ c #161B28",
"% c #1B1A2E",
"& c #171D36",
"* c #1C1E33",
"= c #171E38",
"- c #181F38",
"; c #201F30",
": c #162227",
"> c #1B2425",
", c #162429",
"< c #1C232E",
"1 c #17282C",
"2 c #1C2A2D",
"3 c #1D2135",
"4 c #1F2B30",
"5 c #172038",
"6 c #1A223A",
"7 c #1F283E",
"8 c #232323",
"9 c #252C2D",
"0 c #232331",
"q c #242B32",
"w c #282D34",
"e c #20283E",
"r c #263032",
"t c #283133",
/* pixels */
"                                                                                  ",
"                                                                                  ",
"                                                                                  ",
"                                                                                  ",
"                                 oooooooooo.o.                                    ",
"                             o8>22q2q2449211>:o...                                ",
"                          889rr4r99402422<1221111:...                             ",
"                        899rqq4q0400<0<30<%<3131221:X..                           ",
"                      89qrqww00;00<;;;;;;%%%%:%$$,,11,+..                         ",
"                    89wwwqq000;;%30%;%%%%%%%%%$%&$&$,,,,X.                        ",
"                   8ttwwqq000;;;;;%;%;%%%%%%#%#%@@@$$$,,1+..                      ",
"                 8ttwwwq0000;;;;%;%%%%%%%%%%%%##%@@&@$++:1:X.                     ",
"                8ttwwww000;0;;#;%%%%%%%%%%#%%###@@#@@@@O$::1+.                    ",
"               8twwww0;000;;;;;#%%%%%%#%%%%%%#%#@@#@@@@@$$$:::.                   ",
"              8twwww0;00;;*;;#;#%%#%%%%%#%#########@@@@O@@$$1:+.                  ",
"             8ttww;w00;;;;;*;*#;%%%###@####%%######@@@@@O@OO$::X.                 ",
"            9twwww00000;;#;;#;###%#######%#######@#@@@@@@@O@OO++X.                ",
"           8ttwww00000;;;;####;############%##%#*@#@@@@@@@O@OOO+::.               ",
"           tttww0000;;;;;#;###################@3-*##@@@@@@@@OOO+::X.              ",
"          8ttwww000;;;;##;###;#################3-*&@@@@@@@@@@@$$$::..             ",
"         8ttw0w00;;;;#;###;#%######@@#@#######*3-;0*##@@@@O@OOO@O::X.             ",
"         wtwwww00;;;#;;##;#########@@#@@######06---0%##@@@@O@OOO$O:1X.            ",
"        8www0w000;;%%#############@##@#######%36-*---%##@@@@@@@O$$$::..           ",
"        wwww0000;;;%%;###%####%%#%***0333333*36=-e---;##@@@@O@@@O$$::X.           ",
"       8ttwww;0;;;%%##%#######;;;-;6-6---35566-3-6--;-*%@@@@@@@@OOO+,+..          ",
"       9ttw00;;;%%%%#######%;3==--------3-3=6&3---66----@@@@@@@@@O@O::X.          ",
"      8tww00;;;;;%%#######;3;==;-*-*--;-----&---------6-@@@@@@@@O@O@:1+..         ",
"      8twww0;;;;%%%######;66====---------&&&----------==&%@@@@@@@@OO$::..         ",
"      9tw000;;;%%%%#####;6;=====&&&&*===&---------6-6=666-#@@@@@O@OO$::X..        ",
"     8rww000;;;#%#####*;6===;===&&&*&&&&&&------6-6-=66=66;*@@@@@@@O$::+..        ",
"     8tq0000;;;;%%###;;*==%==;=;**;%*;****-&-6-66-6-=66666-;@@@@@OO@@$::..        ",
"     9tww;;;;;%%####%;;====%=%#####@@@@@##*&6=-6--666=66=6&&#@@@@@@OO$::X..       ",
"    o9qq00;;;;%#####==&==*=#########@#@###==6==66=66666=;;######@@@OOO,:X..       ",
"    8rqq00;;%%%%###;==#=#####@###@@##@#@##=6666==666=;;=########@@@@OO+::..       ",
"    8rrq00;;;%%####=*;=@####@#@##@#@###@#*=666666=;;*#######@@##@@OO@OO::..       ",
"    8rq000;;%%%%*#;;%#@@##@#@#####@###@##;6==6=*;=##########@@#@@@O@OOO+:..       ",
"    89qq00;%%%%######@@@##@#######@@#####66==%=#############@@@@@@O@@@+::...      ",
"    8rq00;;;%%%%####@#@@#@###@##########*=**###############@@@@@@@@@O$$,:...      ",
"    8q9000%;%%%########@##@@######@@#@######################@@@@@@@OO$$,:...      ",
"    >4q00;;%%#%%########@@#@@@#############################@@@@@@@O@O@+::...      ",
"    8rq4;;;%%%%#########@##@#@###@@#;*#######@#################@@@O@OO+,:...      ",
"    orq00;%;%%#%*########@@#@####&;=6;#########@###@##########@#@@@OO@+::...      ",
"    >440;;;%%%%%##############*;66666;###########@@######@#=##@#@@@@OOO:+...      ",
"    o9930;%;%%%%###########%&;--6666=*#######@@#@########===##@@@@@@O@O:+...      ",
"    o294*;*%;##*;#######*;-e0-6666666;#####@####@@@#####;e6=##@@@O@@O$::+...      ",
"    o9930;%;#;########=;;6--66666666;#####@@##@@#@@@##*eee=###@@@@OOO$::X...      ",
"     >94;;;;;#;###*#;--;6-6--66666e;######@#@@@@###=6eeee6###@@@@O@OO$::X..       ",
"     o44;;##;*###;;6666=--66666663e;;####@@@@@@=*666eeeee;#@@@@@@@O@$::$...       ",
"     o244%%;%%%%%%*=*--;66-6666666e6e6e6;6=66=66eeeeeeee%##@@#@@@@O@O+:+...       ",
"     o>q4<;<%%%%%##;----66-6-66666666666e6e7eeeee6eeee6%##@@@@@@O@OO+,1X...       ",
"      o220%%%%%%%#%#;---e-6-66666e6e66766e766e6eeeeee6#####@@@@@O@$O$:+....       ",
"      o24*%%%%%%#%##%*---666666666666666666e6eeeeee6*######@@@@@@O@$:1+...        ",
"      o>23<%%%%##%###%*=--666--6666666ee6e6e6eeee6=###@#@@@@@@@@@OO$::X...        ",
"       o222%%%%%#%#####&-6---66666666666e66eeee=*=#@##@#@@@@@@@@O@O::+....        ",
"       .>22%%%#%######@&-=----6-==6666666666===####@##@@@@@@@@@@O$$1:X...         ",
"        o12>%%########@@;*--6666;*=;;;6;;;%=#@@########@@@@@@@@@OO::+....         ",
"        .X22$%$*@@@@###@#*===66=;####@@#@@@@@@##@@@@@@@@@@@@.@@@$:1+X...          ",
"         o>23:@@&@###@@@##;=6=6=####@@@@@@@@#@##@@@@@@@@@@@@@@@@$::+....          ",
"          .11<$&@@@@@@@#@@#==6=;###@#@#@@@@@####@@@@@@@O@@@@OO@O::+....           ",
"          .:11$#@@@@@@@@@@##;==####@@@#@@@@@###@@@@@@@@O@@@@OOOO:,X....           ",
"           .:11$$@@@@@@@@@@@@==#@@@@#@@@@@@@@@@@@@@@@@@@@@O@@O+::X....            ",
"            .:1:&@$@@@@@@@@@@@#@@@@@@@@#@@@@@@@@@@@@@@@@OOOOO+::+....             ",
"             .:1,$@@@@@@@@@@@@@@@@@@@@@@@@@@@@@@@@@@O@@OOO@$+::X....              ",
"              .+,$@@@@@@@@#@@@@@@@@@@@@@@@@@@@@@@@@@@@OOO@$:::+.....              ",
"               .::::$$$@@OO@O@@@@@@@@@@@@@@@@@@@@OO@O@OOO::::+.....               ",
"                .+11:$O$@@@@@O@O@@@@OO@@@@OO@O@OO@@@OO@O$:::X.....                ",
"                 .X:::$OO$@$@@@@@OO@@O@@.@@@O@@@OO@OOOO+::+X.....                 ",
"                  ..:1::+$OOO@OOO@OO@@@O@@@@@@@@@OOO+,:::+......                  ",
"                   ..X:1,,++OOOO$@O@OOO$@@@@OO$$++,:,,++X.....                    ",
"                     ..X:,,:+++$O$O$O@$O@@@$$+++,+:,,+X......                     ",
"                      ...X:,::,:::$:$$$$O$++,,+,,,,+X.......                      ",
"                        ....X:+,,>::::::X+,,,,,++X........                        ",
"                          .....XX++:::+:::++XXX.........                          ",
"                            ..........................                            ",
"                               ....................                               ",
"                                    ..........                                    ",
"                                                                                  ",
"                                                                                  ",
"                                                                                  ",
"                                                                                  ",
"                                                                                  ",
"                                                                                  "
};
