/* XPM */
static char *nvr3p_sj756[] = {
/* columns rows colors chars-per-pixel */
"82 82 51 1 ",
"  c #121212",
". c #13161D",
"X c #131B1D",
"o c #1C1C1D",
"O c #1F201F",
"+ c #121724",
"@ c #141C24",
"# c #1B1E23",
"$ c #16152A",
"% c #18172C",
"& c #161B29",
"* c #1B1B2D",
"= c #171E32",
"- c #1E1E30",
"; c #201F2C",
": c #201F30",
"> c #162227",
", c #1E2124",
"< c #162429",
"1 c #1C232D",
"2 c #17282C",
"3 c #1C2A2D",
"4 c #172235",
"5 c #1B2334",
"6 c #1E2A33",
"7 c #172738",
"8 c #182638",
"9 c #162B3A",
"0 c #192B3A",
"q c #17313D",
"w c #19313C",
"e c #232424",
"r c #272827",
"t c #282827",
"y c #23252A",
"u c #262A2B",
"i c #2B2C2C",
"p c #2F302F",
"a c #30312F",
"s c #232331",
"d c #242B32",
"f c #2A2D33",
"g c #263032",
"h c #2C3132",
"j c #333433",
"k c #373837",
"l c #383937",
"z c #363738",
"x c #373838",
"c c #3B3C3B",
"v c None",
/* pixels */
"vvvvvvvvvvvvvvvvvvvvvvvvvvvvvvvvvvvvvvvvvvvvvvvvvvvvvvvvvvvvvvvvvvvvvvvvvvvvvvvvvv",
"vvvvvvvvvvvvvvvvvvvvvvvvvvvvvvvvvvvvvvvvvvvvvvvvvvvvvvvvvvvvvvvvvvvvvvvvvvvvvvvvvv",
"vvvvvvvvvvvvvvvvvvvvvvvvvvvvvvvvvvvvvvvvvvvvvvvvvvvvvvvvvvvvvvvvvvvvvvvvvvvvvvvvvv",
"vvvvvvvvvvvvvvvvvvvvvvvvvvvvvvvvvvvvvvvvvvvvvvvvvvvvvvvvvvvvvvvvvvvvvvvvvvvvvvvvvv",
"vvvvvvvvvvvvvvvvvvvvvvvvvvvvvvvvvoooOOOooXo o vvvvvvvvvvvvvvvvvvvvvvvvvvvvvvvvvvvv",
"vvvvvvvvvvvvvvvvvvvvvvvvvvvvvOO,33u63633d323>>X   vvvvvvvvvvvvvvvvvvvvvvvvvvvvvvvv",
"vvvvvvvvvvvvvvvvvvvvvvvvvve,u3gdudd36y33133133622>   vvvvvvvvvvvvvvvvvvvvvvvvvvvvv",
"vvvvvvvvvvvvvvvvvvvvvvvveudggdd6d6sy55-y51*111<1322>X  vvvvvvvvvvvvvvvvvvvvvvvvvvv",
"vvvvvvvvvvvvvvvvvvvvvveugdddfss:1s--:-*---*-*=*%&<4<2<@  vvvvvvvvvvvvvvvvvvvvvvvvv",
"vvvvvvvvvvvvvvvvvvvvrugfddfssss:::s*:*-****%****==@<<2<>X vvvvvvvvvvvvvvvvvvvvvvvv",
"vvvvvvvvvvvvvvvvvvvydgfddfsss-::s****:*******%=%$$$=&&<<2>  vvvvvvvvvvvvvvvvvvvvvv",
"vvvvvvvvvvvvvvvvvygggfddssss:-::-::*:******%*%%%=$$$$&&><<>X vvvvvvvvvvvvvvvvvvvvv",
"vvvvvvvvvvvvvvvvsfffdfssss::::*:****%*****%*%%%%$%%$$$$%%><>> vvvvvvvvvvvvvvvvvvvv",
"vvvvvvvvvvvvvvvrfffddsfsss:::********%*%*%%-%-%%$$%%$$$$&&&>>O vvvvvvvvvvvvvvvvvvv",
"vvvvvvvvvvvvvvrufffff:s::::-*:*****%*%**%%*%%=*%%%%%$$$$$&&&>>@ vvvvvvvvvvvvvvvvvv",
"vvvvvvvvvvvvvrghff:f::s::---:*****%*-%%*:::%%:s-%%%%$$$+$$&&@>>O vvvvvvvvvvvvvvvvv",
"vvvvvvvvvvvvuhfffs:ss:::-*---*=%***sww5&4800d079888s$$$$$$+++@#<X vvvvvvvvvvvvvvvv",
"vvvvvvvvvvvyghffddfs::::--*s85s-$*5w0qq884=4=&80q95*ss$$$$$$$$&<>O vvvvvvvvvvvvvvv",
"vvvvvvvvvvvhhffsssss::::-s88889855888w004*%&==80ww9084*%$$$$+$$@>>X vvvvvvvvvvvvvv",
"vvvvvvvvvvuggfddss:::::::5=800qq784148==5888=&*48890==5%$$$+$$%@@>>  vvvvvvvvvvvvv",
"vvvvvvvvvyfhfffs::::::***s%=888874&&%=48798&&&====8884=s$$$$$$$+&@>> vvvvvvvvvvvvv",
"vvvvvvvvvsffsfss::::**::ss&&1555-*##5f6865541*54555y5141;$$$$+$$&@><X vvvvvvvvvvvv",
"vvvvvvvv:zffsfss:::*:*sjjirOeijjlcccccccclljjzliye;Oriajte#$$$$+$&>>>  vvvvvvvvvvv",
"vvvvvvvvszsffsss::*:%%fjjirOepzlcccccccccccjcclpteOOrijjit$$$$$$$&&>>X vvvvvvvvvvv",
"vvvvvvvrgfddfss::::%*%sjzpe;eilzlccccccccccjcclpteOetijjpt%$$$$$$.$@>>  vvvvvvvvvv",
"vvvvvvvuhfsds:::::**%%fzzpeOeillccccccccccckcclateOOtajait$$$$$$$$$#>>. vvvvvvvvvv",
"vvvvvvrgffss:::::*%%*%:satOOOtppfaajjjccjajiijiueOooeeaai;%$$$$$$$%@<>>  vvvvvvvvv",
"vvvvvvrgfsfs::*:****%%*%;ooooooOe;eeettieeOO,oOooooooo ;$%$$$$$$$$$+&>>  vvvvvvvvv",
"vvvvvvugfdf::::****%%%%%;oOOOeetiiijlllahjjpitrrOOOeooo;%%%$$$$$$$$$&>>X  vvvvvvvv",
"vvvvvegfdsss:::***%%%%$$%OoOe#@ii+$>lci++&pju++,t,+,tooy%%$%$$$$++$$&>>>  vvvvvvvv",
"vvvvvegfdss::::*%%%%%%%%;et;p#&ia,$1ccp$&#jjy&+iu#+itO;:%%$$$$$$$$$$$@>>  vvvvvvvv",
"vvvvvugdsss:::***%%%%%%%$;tttf1ijh+fczcy+fjjh#1ireyi;tO:%%%$$$$$$$$$&&>>.  vvvvvvv",
"vvvv,uddss:-:***%%%$%$$$+erreiirrjfciycjukf#auir;eitOeO;*$$%$$$$$$$$+$@<X  vvvvvvv",
"vvvvOdfds::*:**%%%%%$$%%$;ee#tue#izz@+hczj>$riueXet#;eO;$*%%$$$$$$$+$$<>>  vvvvvvv",
"vvvvegddss::****%%%%$%%%%;ey+ei>$yzi+&&zku&%#iu&$te##e#;%%%%%$$$$$$$$+#>>  vvvvvvv",
"vvvvOgddss:::**%%%%%%%%%%yefy,ii+dkj&&yczg&&yiu@#pe@ite**%%%%$$$$$$$$+#<>  vvvvvvv",
"vvvv,ddsss::****%%%%$$$$%;rthytjsppcg&zzhjy#juuefueuiOt%%%%%%$%$$$+$$&&<>   vvvvvv",
"vvvvefdds:::-*%%%%%%$$$$$;eeieeijp@jczcd#jjhi#etie,ttO;*%%%%%$$$$$$$$&@<@   vvvvvv",
"vvvvef0s:::**%-%%%%$%%$%$;;Ore+ypy+>ccj#+1jay++tr+#eOoy$%%%%$$$$$$$$$&&<<   vvvvvv",
"vvvv;fdss:-*-*%%%%%%%*$$%*eeri+,ay+&hcf&&#jh,&#ie+,i#ey%%%$$$$$$+$$+$$#>>   vvvvvv",
"vvvveg3s:::****%%%%%%%%%%*eitpyyaj#1ccc1+fjai$uir#itrt;%%%$$%$%%$$$$$+@<>   vvvvvv",
"vvvvOgds:::-**%*%%%%%%%%%%;ietaurpfjjecjujiriufeetp;tO;%%%$$%$%%$$$$$$&<>   vvvvvv",
"vvvvO6d5:::-*-%*=%%%%%%%%*;eO;ttXylly+dckj@+tir#ore#eo;%%%$$%$%$$$$$$+#<@   vvvvvv",
"vvvvOu6u::*****%%%%%%%%%$$tet+tt+&jj++#zlu++ri#+,io#ee*%%%$%$$%$+$$$$+#<@   vvvvvv",
"vvvvO3uu:----%%:%%%%%%%%%%ytjetay#jli+yckj&#iie+hteute*%$%%%%$$$$$$$$&>>>   vvvvvv",
"vvvvo2u5::-*:-%%%%%%%%%%%%;euaeujfupcyljujuiieriieep;;%%$%%%$$$$$$+$&&><X   vvvvvv",
"vvvvv,66:-:-%%%%=%=%%%%%%%yOeto#ppo#lcce.ijjy.eteoee%-%$%$%$%$$$$+$&$@>>   vvvvvvv",
"vvvvvO6u:::%:-=%%%%%%%%%$*yO;u;.ii.+icp+.#ji#Xeu#.te%=%$%=%%$$$$$$$$&@<<   vvvvvvv",
"vvvvvo33d1*-*****%%%%%%%%%-uitp#ijyojcc;+iji;#pt#ypet;%$%$$$%$$%$$++@#>>   vvvvvvv",
"vvvvvo,615--****%**%%%%%%%;;iepptujaltllilurtiiOejreey$%%$$$$%$$$$$$&>>X   vvvvvvv",
"vvvvvvO3u1-******%=%%%%%%%*;to;i#oaly.tlli.oti;.ero;O;$$%$$$$$$$+$$&#<&    vvvvvvv",
"vvvvvvo361*******%%%%%%%%$%eteopr.ia;.+zlu.oitooiOore;$$$%$$$$$$$$$&<<>   vvvvvvvv",
"vvvvvv ,u51*****%%%%%%%%%%%yypetiijjljjlljiiiytiiertO;%$$$$$$$$$$$+@>>.   vvvvvvvv",
"vvvvvvvo331=***%%=%%%%%%*#:teetiiijjlczzjjpiitteeeeeey;%$$$$$$$$$&&>>>    vvvvvvvv",
"vvvvvvvX>311=$*%%%%%%$%%*plptOepjjcccccccljlllieOOrijhu;$$$$$$$$$$@>>X   vvvvvvvvv",
"vvvvvvvvo23****%%%%%$%%$*fjatoejccccccccccllllpeeOrijht;$$$$$$$$&&>>>    vvvvvvvvv",
"vvvvvvvv O221*%%%%%%$$$$;alatO;jkzccccccccllllitOetijat;$$$$$$$$&<>>X   vvvvvvvvvv",
"vvvvvvvvv ,31&*&%$%$%%%*;alaeO;jkcccccccccllclptOOtijat;%$$$$$.$&>>@    vvvvvvvvvv",
"vvvvvvvvvvX26&&=%%$%%=**;;;;OO;;yryuiulf;t::ty;oooOetrO;%;;$$$$#>>>    vvvvvvvvvvv",
"vvvvvvvvvv >22<%%%$$$%$*;$%;$;%%*******::%:%:%;%****%*%$%$$$$%&#>>X    vvvvvvvvvvv",
"vvvvvvvvvvv >22&%$$$$$$$$$$$$$$$%$%$$$$$$%$$$$$$*%$$$$$$$+$$&@#>>X    vvvvvvvvvvvv",
"vvvvvvvvvvvv >2<<%%%$$$$$$$$$$$$$$$$%$$$%$$$$$$$$$$$$#$$$$$%+>>>@    vvvvvvvvvvvvv",
"vvvvvvvvvvvvv ><<&$$$$$$$$$$$$$$$$$$$$$$$$$$$$$$$$$$$$$$+$%@>>>@    vvvvvvvvvvvvvv",
"vvvvvvvvvvvvvv ><>&+$$$$$$$$$$$$$$$$$$$$$$$$$$$$$$$$$$+$+$@>>>@     vvvvvvvvvvvvvv",
"vvvvvvvvvvvvvvv >>><&%&$$$$$+$$$$$$+$$$$$$$$$$$$$$+$$+$$&@<><X     vvvvvvvvvvvvvvv",
"vvvvvvvvvvvvvvvv @2<>>&+$$$$$$+$$$$$$$$$$$$$$++$+$$$$$$#>><>@     vvvvvvvvvvvvvvvv",
"vvvvvvvvvvvvvvvvv X>>>&@&&$$$+$$$$$$$$.$+$+$$$$$$+$%%@@>>>@X     vvvvvvvvvvvvvvvvv",
"vvvvvvvvvvvvvvvvvv  ><<>&@&+$+$$$+$+$$$$$$$$$$$$$$$@#>>><X      vvvvvvvvvvvvvvvvvv",
"vvvvvvvvvvvvvvvvvvv  X>><<>&&&&$$$$$$$$$$$$$$&$&&&&><<>@X     vvvvvvvvvvvvvvvvvvvv",
"vvvvvvvvvvvvvvvvvvvvv  O>>>>@#&&&&&&+&&&$$&&&&#>>>>>>@X      vvvvvvvvvvvvvvvvvvvvv",
"vvvvvvvvvvvvvvvvvvvvvv   X>>>>>><@<#@@@&.@&#@><>>>>>X       vvvvvvvvvvvvvvvvvvvvvv",
"vvvvvvvvvvvvvvvvvvvvvvvv    X>><>><>><>>#>><>>>>>X        vvvvvvvvvvvvvvvvvvvvvvvv",
"vvvvvvvvvvvvvvvvvvvvvvvvvv     .X@>>>>@>>>>>XX.         vvvvvvvvvvvvvvvvvvvvvvvvvv",
"vvvvvvvvvvvvvvvvvvvvvvvvvvvv                          vvvvvvvvvvvvvvvvvvvvvvvvvvvv",
"vvvvvvvvvvvvvvvvvvvvvvvvvvvvvvv                    vvvvvvvvvvvvvvvvvvvvvvvvvvvvvvv",
"vvvvvvvvvvvvvvvvvvvvvvvvvvvvvvvvvvvv          vvvvvvvvvvvvvvvvvvvvvvvvvvvvvvvvvvvv",
"vvvvvvvvvvvvvvvvvvvvvvvvvvvvvvvvvvvvvvvvvvvvvvvvvvvvvvvvvvvvvvvvvvvvvvvvvvvvvvvvvv",
"vvvvvvvvvvvvvvvvvvvvvvvvvvvvvvvvvvvvvvvvvvvvvvvvvvvvvvvvvvvvvvvvvvvvvvvvvvvvvvvvvv",
"vvvvvvvvvvvvvvvvvvvvvvvvvvvvvvvvvvvvvvvvvvvvvvvvvvvvvvvvvvvvvvvvvvvvvvvvvvvvvvvvvv",
"vvvvvvvvvvvvvvvvvvvvvvvvvvvvvvvvvvvvvvvvvvvvvvvvvvvvvvvvvvvvvvvvvvvvvvvvvvvvvvvvvv",
"vvvvvvvvvvvvvvvvvvvvvvvvvvvvvvvvvvvvvvvvvvvvvvvvvvvvvvvvvvvvvvvvvvvvvvvvvvvvvvvvvv",
"vvvvvvvvvvvvvvvvvvvvvvvvvvvvvvvvvvvvvvvvvvvvvvvvvvvvvvvvvvvvvvvvvvvvvvvvvvvvvvvvvv"
};
