/* XPM */
static char *_wbc2_9r7yh[] = {
/* columns rows colors chars-per-pixel */
"82 82 43 1 ",
"  c None",
". c #00D5D7",
"X c #00D6D7",
"o c #00D6D8",
"O c #00D7D9",
"+ c #00D7DA",
"@ c #00D8D9",
"# c #00D8DA",
"$ c #00D9DB",
"% c #00D9DC",
"& c #00DADC",
"* c #00DBDC",
"= c #00DADD",
"- c #00DBDD",
"; c #00DCDD",
": c #00E0E1",
"> c #00E0E2",
", c #00E0E3",
"< c #00E1E4",
"1 c #00E3E6",
"2 c #00E4E5",
"3 c #00E4E6",
"4 c #00E5E6",
"5 c #00E4E7",
"6 c #00E5E7",
"7 c #00E7EA",
"8 c #00E8E9",
"9 c #00E9EA",
"0 c #00EBEE",
"q c #00ECEF",
"w c #00EFF2",
"e c #00F0F3",
"r c #00F1F4",
"t c #00F2F5",
"y c #00F7F8",
"u c #00F7FA",
"i c #00F8F8",
"p c #00FAFB",
"a c #00FBFB",
"s c #00FDFE",
"d c #00FCFF",
"f c #00FDFF",
"g c #00FEFF",
/* pixels */
"                                                                                  ",
"                                                                                  ",
"                                                                                  ",
"                                                                                  ",
"                                        dd                                        ",
"                                dddddddddddddddddd                                ",
"                             ddddffggggggggggggffdddd                             ",
"                           dddfgg4X#7dddddddd7#X2ggfddd                           ",
"                        dddfgio5dddddd  dd  dddddd5oigfddd                        ",
"                       ddfg:<dddd                dddd<:gfdd                       ",
"                     ddfg;uddd                      dddu;gfdd                     ",
"                    ddg8wdd                            ddw8gdd                    ",
"                  ddfaOdd                                ddOafdd                  ",
"                 ddf8ddd                                   dd8fdd                 ",
"                ddgOdd                                      ddOgdd                ",
"               ddgodd                                        ddogdd               ",
"              dds$dd                                          dd$gdd              ",
"             ddg=dd                                            dd&gdd             ",
"            ddgXdd                                              ddogdd            ",
"            df@dd                                                ddOfd            ",
"           df9dd                                                  dd9fd           ",
"          ddpdd                                                    ddpdd          ",
"          dgOd                                                      dOgd          ",
"         df3d                                                        d4fd         ",
"        ddgwd                                                        dwgdd        ",
"        df-d                                                          d*fd        ",
"        dgud                                                          dugd        ",
"       df:d                                                            d:fd       ",
"       dg>d                                                            d>gd       ",
"      ddyd                                                              dydd      ",
"      dfod                                                              dofd      ",
"      dg1d                                                              d5gd      ",
"     ddsdd                                                              ddsdd     ",
"     df6d                                                                d4fd     ",
"     dfod                                                                d.fd     ",
"     dg=d                                                                d&gd     ",
"     dg0d                                                                dqgd     ",
"     dgdd                                                                 dgd     ",
"     dgd                                                                  dgd     ",
"     dgd                                                                  dgd     ",
"    ddgdd                                                                ddgdd    ",
"    ddgdd                                                                ddgdd    ",
"     dgd                                                                  dgd     ",
"     dgd                                                                  dgd     ",
"     dgdd                                                                 dgd     ",
"     dg0d                                                                dqgd     ",
"     dg&d                                                                d&gd     ",
"     dfod                                                                dofd     ",
"     df6d                                                                d4fd     ",
"     ddsdd                                                              ddsdd     ",
"      dg5d                                                              d5gd      ",
"      dfod                                                              dofd      ",
"      ddyd                                                              dydd      ",
"       dg>d                                                            d>gd       ",
"       df:d                                                            d:fd       ",
"        dgud                                                          dugd        ",
"        df*d                                                          d*fd        ",
"        ddged                                                        dtgdd        ",
"         df3d                                                        d4fd         ",
"          dgOd                                                      dOgd          ",
"          ddpdd                                                    ddpdd          ",
"           df9dd                                                  dd9fd           ",
"            dfOdd                                                ddOfd            ",
"            ddgod                                                dogdd            ",
"             ddg=d                                              d=gdd             ",
"              dds-dd                                          dd-gdd              ",
"               ddgodd                                        ddogdd               ",
"                ddgOdd                                      ddOgdd                ",
"                 ddf8dd                                    dd8fdd                 ",
"                  ddfa+dd                                dd+afdd                  ",
"                    ddg2rdd                            ddr2gdd                    ",
"                     ddfg*uddd                      dddu*gfdd                     ",
"                       ddfg:,dddd                dddd,:gfdd                       ",
"                        dddfgyo5ddddd   dd   ddddd5oygfddd                        ",
"                          ddddfgs2.%qddddddddq%.2sgfdddd                          ",
"                             ddddffggggggggggggffdddd                             ",
"                                dddddddddddddddddd                                ",
"                                        dd                                        ",
"                                                                                  ",
"                                                                                  ",
"                                                                                  ",
"                                                                                  "
};
