/* XPM */
static char *_dz86_9c8yf[] = {
/* columns rows colors chars-per-pixel */
"82 82 215 2 ",
"   c None",
".  c #000000",
"X  c #0C0C0C",
"o  c #171717",
"O  c #011F22",
"+  c #01353A",
"@  c #082A2C",
"#  c #282828",
"$  c #3C3C3C",
"%  c #333333",
"&  c #023B44",
"*  c #023B46",
"=  c #063F54",
"-  c #16157F",
";  c #161B7E",
":  c #15237D",
">  c #152B7C",
",  c #15347D",
"<  c #153C7C",
"1  c #02444A",
"2  c #054856",
"3  c #07535C",
"4  c #1D5558",
"5  c #0B4B6B",
"6  c #0A4965",
"7  c #0A546B",
"8  c #0A5967",
"9  c #15447C",
"0  c #154A7C",
"q  c #114F76",
"w  c #0D5572",
"e  c #15537B",
"r  c #155B7A",
"t  c #105776",
"y  c #15566B",
"u  c #15647A",
"i  c #15687B",
"p  c #1C6B76",
"a  c #0B6271",
"s  c #2C6B70",
"d  c #4B4B4B",
"f  c #555555",
"g  c #5B5B5B",
"h  c #496566",
"j  c #6D6D6D",
"k  c #646464",
"l  c #757575",
"z  c #170F86",
"x  c #170F88",
"c  c #180F8C",
"v  c #161283",
"b  c #161A82",
"n  c #171288",
"m  c #18108E",
"M  c #181C8B",
"N  c #1C1393",
"B  c #1C1A93",
"V  c #201795",
"C  c #221A96",
"Z  c #261E98",
"A  c #172786",
"S  c #173687",
"D  c #1B2792",
"F  c #1A3692",
"G  c #2B239B",
"H  c #2D2B9C",
"J  c #242697",
"K  c #30279D",
"L  c #332B9E",
"P  c #29399A",
"I  c #33369F",
"U  c #362EA0",
"Y  c #3B33A2",
"T  c #3C3AA3",
"R  c #3733A1",
"E  c #423BA6",
"W  c #174686",
"Q  c #175888",
"!  c #1A4493",
"~  c #1E5496",
"^  c #2C509C",
"/  c #166985",
"(  c #187689",
")  c #1C7794",
"_  c #146A8C",
"`  c #287098",
"'  c #3B42A4",
"]  c #3954A2",
"[  c #2B53BF",
"{  c #3457BD",
"}  c #3B56BD",
"|  c #345ABD",
" . c #3B5BBE",
".. c #3B77A3",
"X. c #3D60BF",
"o. c #4342A6",
"O. c #4741A8",
"+. c #4B44AA",
"@. c #4D4AAB",
"#. c #474CA8",
"$. c #524CAD",
"%. c #4858A8",
"&. c #5552AF",
"*. c #5459AE",
"=. c #5A55B1",
"-. c #5D5AB2",
";. c #4159B9",
":. c #625EB5",
">. c #4765A8",
",. c #5369AD",
"<. c #4778A9",
"1. c #5277AE",
"2. c #5C6AB2",
"3. c #5978B1",
"4. c #6563B6",
"5. c #6C6AB9",
"6. c #6569B6",
"7. c #6875B7",
"8. c #7273BC",
"9. c #747BBD",
"0. c #797CBF",
"q. c #706FBB",
"w. c #467D82",
"e. c #1D5DD6",
"r. c #2455C2",
"t. c #2A55C1",
"y. c #2C59C1",
"u. c #345DC1",
"i. c #385AC1",
"p. c #255ED3",
"a. c #1D63DB",
"s. c #3B63C4",
"d. c #3B66C8",
"f. c #366ACB",
"g. c #2261D7",
"h. c #2E64D4",
"j. c #2565D9",
"k. c #2B6CDC",
"l. c #2669DC",
"z. c #3167D5",
"x. c #3369D7",
"c. c #356DDA",
"v. c #386FDA",
"b. c #2E70DF",
"n. c #3571DC",
"m. c #3A74DD",
"M. c #3B78D8",
"N. c #2E72E1",
"B. c #2D78E4",
"V. c #3275E1",
"C. c #357BE3",
"Z. c #3A7DE4",
"A. c #387BE4",
"S. c #5B77CA",
"D. c #5A76C9",
"F. c #4274DB",
"G. c #457FDA",
"H. c #506EC9",
"J. c #6179CC",
"K. c #7A7FC0",
"L. c #4B7EE2",
"P. c #457DE0",
"I. c #547FE0",
"U. c #1C8196",
"Y. c #27869B",
"T. c #34889B",
"R. c #2D848E",
"E. c #3888A2",
"W. c #3990A2",
"Q. c #49949C",
"!. c #51898D",
"~. c #749A9C",
"^. c #688E90",
"/. c #4985AA",
"(. c #4A99A9",
"). c #569DAA",
"_. c #5A95B1",
"`. c #5989B1",
"'. c #6789B8",
"]. c #7584BE",
"[. c #6A97B9",
"{. c #7497BE",
"}. c #779FA0",
"|. c #5EA5B4",
" X c #58A3AD",
".X c #79A8AB",
"XX c #67ABB7",
"oX c #75AAB9",
"OX c #7AB2B9",
"+X c #69A2A7",
"@X c #3C81DD",
"#X c #3B81E6",
"$X c #3683E9",
"%X c #3C85E9",
"&X c #3B8AED",
"*X c #3580E7",
"=X c #3D8EF0",
"-X c #3B92F5",
";X c #4781DB",
":X c #5381DD",
">X c #7C8BC1",
",X c #7B83C0",
"<X c #7D99C2",
"1X c #7CA8C1",
"2X c #7BB6C3",
"3X c #4287EA",
"4X c #418BEC",
"5X c #4F80E0",
"6X c #418FF0",
"7X c #6E92E6",
"8X c #81B4BB",
"9X c #8199C4",
"0X c #82A6C4",
"qX c #82B3C4",
"wX c #84BAC7",
/* pixels */
"                                                                                                                                                                    ",
"                                                                                                                                                                    ",
"                                                                                                                                                                    ",
"                                                                                                                                                                    ",
"                                                                  $ $ $ $ $ % % % # # o o X                                                                         ",
"                                                          d f h !.Q.Q.(.).(.(.(.(.W.T.R.s s & X X X                                                                 ",
"                                                    f g !.).XX_._._.`.`./.<.<.<.<.....E.E.T.T.R.i 3 . . .                                                           ",
"                                                k ^.XXXXXX[.'.`.3.,.,.,.>.%.%.%.] ] ] ] ^ ] ^ ` ) Y.U.( 1 . .                                                       ",
"                                            j ^.oXXX[.'.'.7.2.2.,.*.$.#.$.#.o.o.' E I ' I P ^ ! ^ ~ _ _ ( ( 2 . .                                                   ",
"                                        k ^.XXXX{.{.'.7.2.-.=.&.$.@.@.#.E E E E I I L I H H G J D D F ! Q _ ( t + .                                                 ",
"                                      j .X2X1X<X'.7.4.4.-.&.=.$.@.E E E E Y E T I L L L L G J Z B D D D S ! Q / ( 3 . .                                             ",
"                                  k }.OX1X<X,X7.q.4.2.-.&.$.$.E E E E T E Y L L L L L L G G Z Z Z N N B M A S W Q ( 8 1 .                                           ",
"                                j .X2X1X>X,X8.5.4.:.=.&.+.E E E E Y L Y L L L L L K K K G G Z V C C N N n M M A S W i i 2 .                                         ",
"                              l .XqX1X>X].8.5.:.:.-.&.+.E E E E L L L L L L K K K K G G G G Z Z N N N N m n n b A , W Q i 3 .                                       ",
"                            l .XqX1X>XK.7.5.:.:.-.$.+.+.E E E U L K K G K G G G Z G G G Z Z Z C N N N N m m n n - ; : < r i 2 .                                     ",
"                          l .XqX<X,XK.5.5.:.:.&.$.+.E E E U K K K G G Z Z G Z Z Z G Z G G Z Z V B N N m m m n n v v ; : < e i 2 .                                   ",
"                        l 8X0X9X9X8.q.5.:.=.=.$.E E E U U U K K G Z Z C Z C C C Z Z Z Z Z Z C C C N N N m m m c x z - - - , w u 3 .                                 ",
"                      l .XqX9X9XK.q.q.:.=.=.$.E E E E U K K G G Z R 2.J.J.J.J.D.D.D.D.D.H.R C V C N N N m m m c x z z - - ; < t i 1 .                               ",
"                      }.wX0X9XK.q.q.:.=.$.$.E E E U U K K G G Z Z ;.7XF.F.F.F.F.m.F.M.v.A.;.C C C C N N m m m m x z z - - ; : < r i & .                             ",
"                    l 8X0X9X0.q.q.:.-.&.E E E E U K K K Z G Z C C  .I.p.z.z.z.h.h.h.h.h.j.H.C C C N C N m m m m x x z - - - ; > 9 u 8 . .                           ",
"                  l .XqX9XK.K.K.4.=.=.$.E E E K K K G G Z Z Z C V i.:Xh.z.z.z.z.x.z.x.z.v.i.C C C N C N N N m m x x z z - - - - > q i 2 .                           ",
"                  ~.wX0XK.K.5.:.:.=.$.E E E L K K K Z Z Z Z C C V ;.I.h.z.z.z.z.x.x.x.x.m.i.C C N C N N N m m m c x z z - - - - : , r i + .                         ",
"                l OX0X,XK.K.5.:.=.$.E E Y L K K Z Z Z Z C C C C V } I.z.x.z.x.x.x.x.x.x.V.i.C C C N N N m m m m c c x x z - z - ; > 0 i 7 . .                       ",
"                }.qX9XK.K.5.:.:.=.E E Y L K G Z Z Z C C C Z C C V } I.h.x.x.x.x.x.x.x.x.V.i.N N N C C N N N m m c c x x z z z - - ; , r i * .                       ",
"              j OX0X>X].q.:.:.$.E E E U K G Z C C C C C C C Z Z C } :Xh.x.x.x.x.x.x.x.x.b.i.N C V V V N N N N N c c m m c c x z - ; : 0 i 7 . .                     ",
"              ~.qX<X].8.5.:.=.@.E E E K G Z C C C C C C Z C C C C  .L.h.x.x.x.x.x.x.c.c.m.s.N C N V V N N N N N m c m m c c z z v v ; , r u + .                     ",
"            k OX1X>X9.5.:.=.$.+.E E K Z G C V V C C C C Z C Z C C } :Xx.x.x.x.x.c.c.v.c.V.i.C N V V V V V V V N N N N m c c x z v v v > 0 u 7 . .                   ",
"            j 2X<X].8.4.:.&.@.E U L K Z C V V V V C C C C C C C C { G.x.x.x.x.v.n.v.v.c.m.i.V V V V V V V V V N N N N m c c c x z v b : < u r . .                   ",
"            ~.2X{.9.5.:.=.$.E E L K G Z V V V V V C C C C C C C C { L.z.c.x.c.c.c.c.v.c.A.i.N V N V N C V V V V N N N N m m c c x z v ; , e u * . .                 ",
"          k oX1X].q.4.-.$.+.E Y K K Z Z V N V V N V V V C C C C C { L.x.c.c.c.v.n.v.c.v.V.h.N N V N N V V V C V N N N N m m c c x v v b : 0 i 7 . .                 ",
"          k OX{.9.6.4.=.$.E E U K G Z V N N V N N V V V C C C C C { L.k.n.c.c.v.v.v.v.n.A.i.N V N V C V V C C C N V N N m m m c x z v ; : < u r . .                 ",
"          ^.1X{.7.6.-.$.+.E U L G Z C V V N N N V V V V V V C C B { L.x.v.c.v.v.n.v.n.v.P.i.V N V N C C C C C V V V N N N m m c x x v v b , r u O . .               ",
"        d ^.1X>X5.:.=.$.E T U K Z Z V N N N N V V N N N N N V V C { L.c.v.v.v.n.n.m.m.n.A.s.B V V C C C J C C C C C V N N N m m c z z - - > r u & . .               ",
"        g +XXX'.6.:.$.@.E Y U K Z L ;.;.} } } i.i.i.i.i.i.i.i.i.{ ;XP.x.c.n.n.n.m.V.m.m.C.;X{ [ [ [ t.t.[ [ y.y.t.u.u.y.i.H m m c x z z - > 0 u 2 . .               ",
"        g XX1X3.6.-.$.+.E Y L G G J.7XI.I.I.:XG.I.:XL.5XL.L.L.L.G.P.m.v.n.c.n.n.m.n.m.m.m.Z.#X#X#X%X3X3X3X3X3X3X3X3X3X3X4Xf.m m x x z z - : 0 u 7 . .               ",
"        g XX[.7.4.=.$.E E Y K G Z J.F.p.h.z.h.h.h.h.z.h.x.x.c.c.x.v.v.v.v.v.m.M.m.m.m.Z.Z.m.M.A.Z.Z.M.Z.Z.Z.Z.Z.Z.Z.P.Z.Z.x.m m x z z - - : 9 i w . .               ",
"        g XX<X7.2.&.+.o.T U K G Z J.F.u.x.x.h.x.x.x.x.x.c.c.c.c.v.v.n.n.m.m.m.m.m.m.C.n.m.V.n.C.m.C.C.C.m.C.Z.Z.Z.Z.Z.$X3Xf.N N c x x z - : < u r . . .             ",
"        g XX_.6.-.&.+.E Y L K Z Z J.F.h.z.z.h.x.x.x.x.x.c.c.c.m.v.v.v.n.m.n.n.k.k.k.k.b.b.b.N.N.V.V.V.b.b.C.V.C.A.A.A.C.$Xf.m c c x z - - ; < u r . . .             ",
"        g XX'.6.-.$.+.E Y L G Z Z S.F.z.z.z.x.x.x.x.x.c.c.c.c.n.n.n.c.k.h.k.l.l.l.k.k.b.N.N.N.V.V.V.C.C.C.C.C.M.A.C.C.Z.C.f.m m x x z v - ; < r r . . .             ",
"        f XX_.2.*.$.+.E Y L K G Z J.F.p.x.x.x.x.x.x.x.v.c.c.c.n.z.j.l.g.l.j.l.k.k.b.b.N.N.V.V.V.V.V.C.C.*XC.#XC.Z.Z.Z.Z.$Xc.m m x x z z - : < u r . . .             ",
"        f XX_.2.*.$.+.T Y U K G Z S.F.p.x.z.z.x.x.c.c.c.c.c.k.p.a.g.j.j.l.l.k.k.b.b.b.N.V.V.V.C.C.C.C.C.Z.Z.Z.A.#X#XZ.%X#XG.m m c x x z - : < u r . . .             ",
"        d |._.2.*.@.+.E U U K G Z S.M.z.x.x.x.x.x.c.c.v.x.p.p.a.g.j.j.j.l.k.k.b.k.V.b.V.V.V.C.C.C.A.A.Z.A.%XZ.%X#X#X%X%X$XG.m m c x x v - : < u t . . .             ",
"        d ).'.2.&.@.E E Y U G G Z D.m.z.x.x.x.x.c.c.k.p.e.p.a.p.j.j.j.k.k.k.b.b.k.V.V.V.V.C.C.C.A.$XZ.%X%X%XZ.%X%X%X%X%X=XM.m m c x x v - : 9 i w . . .             ",
"        d )._.1.&.@.+.E R U K G G S.v.z.x.x.x.x.c.p.e.e.p.e.p.a.j.j.k.j.k.k.k.N.V.V.V.V.C.C.C.C.Z.$XZ.Z.%X%X%X%X%X%X4X4X&XG.m m x x z v - > 0 i 5 . . .             ",
"        % Q._.,.*.@.O.E U U K G G D.m.k.v.v.n.c.p.a.a.a.a.l.a.l.l.b.l.k.b.b.N.V.V.V.n.*XC.$X*X*X$X%X&X&X&X&X=X=X=X=X=X=X-X@XN m x x z v b > e i 2 . . .             ",
"        % w.).1.%.@.o.T R U K K G T ;.s.X.X.i.i.u.i.y.u.h.u.u.p.| @XN.l.b.b.N.V.V.V.V.C.*X@Xs.f.f.d.s.d.d.d.d.d.d.d.d.d.d.T N c x x v - ; , e i * . . .             ",
"          s ).1.%.@.E E R U U G G G Z Z Z Z Z C C V N V V N V V B s.B.l.k.N.N.V.V.V.C.C.$Xs.m N m N N N N N N V N N N m N N c c x x v v : < r r O . .               ",
"          $  X/.%.#.o.T U U K K H G G Z C C C C V V N N N V N V C [ B.l.N.N.V.V.C.C.C.#X$Xs.m N N N N N N N N N V N N N m m m c n n v v : 9 u t . . .               ",
"          % Q._.>.#.o.T Y U U H K G Z Z Z Z C C N V N N V N V V N r.B.b.N.V.B.V.C.A.A.A.&Xu.m N N N N N N N N N N N N N m N m m x v v - > e u 5 . . .               ",
"          # s ).<.%.o.T Y U K U K G Z Z Z C C C C N N N N V N V N r.B.b.V.V.V.C.C.A.Z.Z.&Xu.N N N N N N N N N N N N N m m m m m x v - ; < r u * . . .               ",
"            % (.<.] o.T R U K K K Z Z Z C C C C C N N V N N V N B r.C.b.V.V.V.C.A.A.Z.&X&Xu.m m N N m N N N N N N m m N m m m m n v b : 9 u e . . . .               ",
"            # R.W.>.' ' U U U G K Z Z Z C C C N V N N N V N N V V r.B.N.V.V.B.C.A.$XZ.Z.&Xd.N m m N N m N m N N N N m m m m m m n v ; , e p 6 . . .                 ",
"            o s W...] T I L K G K Z Z C C V N N N N N N C N V N N r.C.B.V.V.A.C.A.Z.Z.%X&Xd.N N N N N N N m m m m m m c c c c x v - > < u r + . . .                 ",
"              # T.E.] ' R H L G K Z Z C C V V N V N N N N N N V V r.C.V.V.V.C.Z.$X%XZ.&X&Xd.N N N N N m N m N N m m m x c c x x v ; , e i 5 . . . .                 ",
"              o s T.` ' I H H G Z Z C C V N N N N N N N V N V N N r.C.V.V.V.A.Z.Z.Z.%X&X&Xd.N N N N N N m N N m m m x x x z z z b : < u e & . . .                   ",
"                o R.T.] ^ H G G Z C C V V N N N N N N N N V N V C r.A.N.B.C.A.Z.$XZ.3X%X=Xd.V N N N N N m m m m m m x x x z v v b , e i 6 . . . .                   ",
"                o 4 T.` ^ H J J B C B N C N N N N N N N C N N N N t.A.B.C.C.C.A.Z.%X3X%X6Xd.N N N N N N m m m c m c z z z v v - > 0 i e + . . .                     ",
"                  o p T.` P J J B B N N N N m N N N N N N N N N N t.C.V.C.C.A.A.Z.%X%X%X=Xd.N N N N m m m m c c c x z z z - - : < r u 2 . . . .                     ",
"                    o ( ` ~ F D B N m m N m N m m m N N N N N N N t.A.V.C.B.Z.Z.Z.%X%X4X6Xd.N N N m m m m m x x x x z z v ; ; , e i 5 . . . .                       ",
"                    X 3 Y.` ! D B B m M m m m m m m N N N N m N N t.A.V.C.C.A.Z.$X%X%X&X6Xd.N N N m m m m c x z x z z - - : A w u Q 1 . . . .                       ",
"                      X a U._ ! D M M m m c c c m m m N m m N m m s.C.B.B.B.$X$XC.$X&X=X-Xh.m m m m m m x x z z z z - - : A q u e 1 . . . .                         ",
"                        . a ) _ ! A M m c c c x m m m m m m m m m H f.G.M.;X@X;XG.G.;X@XF.Y m m m m m m z z z z - - - ; > 5 i t 2 . . . .                           ",
"                          . 7 ) _ F A M n n x x c c m m c c c c c m c c c c x x m m m m m m c c c c c c z z z - - - : , 0 u t 2 . . . .                             ",
"                            . 8 ( _ W A b M x x x c c c x c c c c c c c c c c c c c m m m m c c c x x x z z - - ; : , e u r = . . . . .                             ",
"                              . 3 ( / W S : b v b n v m z z z z z z z x x x z c c c c c x x x x x x v v v v - : > < e i r = . . . . .                               ",
"                                . 3 ( / Q < A ; b v v v z z z z z z z z z x z z z z c z x n x n z v v - - ; : , 0 r u e 1 . . . . .                                 ",
"                                  . 1 8 / / 0 S A ; b v v - v z z z z - z z z z z z z z v v n v - - - ; : > 9 e u r 6 & . . . . .                                   ",
"                                    . . 2 / i r 0 , > : ; - - - - - - - z - z z z - z z v v - v - ; : , < e u u e 2 . . . . . .                                     ",
"                                      . . + 7 i i Q 0 < > > ; ; ; ; - ; - - - v - - ; v ; ; : : > < 9 e u p r 6 + . . . . .                                         ",
"                                          . . 1 t u u u e 0 9 , > > : : : ; : : ; - : : > , < 9 e r i i r 5 * . . . . . .                                           ",
"                                            . . . + 7 u i i u r e 0 9 9 < < < < < < 0 0 e r r i i r e 5 + . . . . . . .                                             ",
"                                                . . . . & 6 w u u u u u u u u r u i i i i i r q 6 * . . . . . . . .                                                 ",
"                                                    . . . . . O & 2 6 w w r r r t w w 6 2 & O . . . . . . . . .                                                     ",
"                                                        . . . . . . . . . . . . . . . . . . . . . . . . . .                                                         ",
"                                                              . . . . . . . . . . . . . . . . . . . .                                                               ",
"                                                                        . . . . . . . . . .                                                                         ",
"                                                                                                                                                                    ",
"                                                                                                                                                                    ",
"                                                                                                                                                                    ",
"                                                                                                                                                                    ",
"                                                                                                                                                                    ",
"                                                                                                                                                                    "
};
