/* XPM */
static char *dvg97_e69zq[] = {
/* columns rows colors chars-per-pixel */
"82 82 226 2 ",
"   c None",
".  c #000C0E",
"X  c #000E10",
"o  c #001214",
"O  c #001619",
"+  c #00191D",
"@  c #00252A",
"#  c #002F36",
"$  c #003B44",
"%  c #00434D",
"&  c #0F434A",
"*  c #024953",
"=  c #0D4B54",
"-  c #065A66",
";  c #006473",
":  c #036978",
">  c #00606E",
",  c #316269",
"<  c #4E7176",
"1  c #170F86",
"2  c #170F88",
"3  c #180F8C",
"4  c #161383",
"5  c #161B83",
"6  c #171389",
"7  c #18118E",
"8  c #171B8B",
"9  c #1C1393",
"0  c #1B1B94",
"q  c #201795",
"w  c #221996",
"e  c #261E98",
"r  c #162383",
"t  c #152B83",
"y  c #17278B",
"u  c #153485",
"i  c #153B84",
"p  c #15378A",
"a  c #1A2795",
"s  c #183A97",
"d  c #2B239B",
"f  c #29289C",
"g  c #30279D",
"h  c #332B9E",
"j  c #26379F",
"k  c #362EA0",
"l  c #3434A1",
"z  c #3B33A2",
"x  c #3D3BA5",
"c  c #343CA3",
"v  c #2D38A0",
"b  c #423BA6",
"n  c #154C8A",
"m  c #154687",
"M  c #15538B",
"N  c #155B89",
"B  c #174A96",
"V  c #155895",
"C  c #15658B",
"Z  c #156F8F",
"A  c #007A8C",
"S  c #007485",
"D  c #16758C",
"F  c #156796",
"G  c #157C92",
"H  c #157898",
"J  c #007A8C",
"K  c #337A85",
"L  c #1A57A2",
"P  c #2A4AA4",
"I  c #3846A7",
"U  c #2B53BF",
"Y  c #345ABD",
"T  c #3B5BBE",
"R  c #3856BD",
"E  c #2F56A9",
"W  c #186FA6",
"Q  c #3B66B7",
"!  c #2F72B2",
"~  c #4542A8",
"^  c #4B44AA",
"/  c #4D4BAC",
"(  c #4348A9",
")  c #524CAD",
"_  c #4954AD",
"`  c #5551AF",
"'  c #5A55B1",
"]  c #5D5AB3",
"[  c #5556B1",
"{  c #4459B6",
"}  c #625EB5",
"|  c #4869B4",
" . c #5865B6",
".. c #597CBC",
"X. c #4974B7",
"o. c #6462B7",
"O. c #686BBA",
"+. c #6974BD",
"@. c #7076BF",
"#. c #1D5DD6",
"$. c #2956C1",
"%. c #355CC1",
"&. c #255ED3",
"*. c #1D63DB",
"=. c #3B63C4",
"-. c #3B66C8",
";. c #366ACB",
":. c #2261D7",
">. c #2E64D4",
",. c #2565D9",
"<. c #2B6CDC",
"1. c #2669DC",
"2. c #3167D5",
"3. c #3369D7",
"4. c #356DDA",
"5. c #386FDA",
"6. c #2E70DF",
"7. c #3571DC",
"8. c #3A74DD",
"9. c #3B78D8",
"0. c #2E72E1",
"q. c #2D78E4",
"w. c #3275E1",
"e. c #357BE3",
"r. c #3A7DE4",
"t. c #387BE4",
"y. c #5B77CA",
"u. c #5A76C9",
"i. c #4274DB",
"p. c #457FDA",
"a. c #506EC9",
"s. c #657BC7",
"d. c #737BC1",
"f. c #4A7DE2",
"g. c #547FE0",
"h. c #008295",
"j. c #008A9E",
"k. c #00869A",
"l. c #15849B",
"z. c #168599",
"x. c #328895",
"c. c #068DA5",
"v. c #158BA3",
"b. c #1488A7",
"n. c #0195AB",
"m. c #019BAE",
"M. c #0991AB",
"N. c #1595AB",
"B. c #1889B3",
"V. c #019DB4",
"C. c #0A9AB5",
"Z. c #149CB4",
"A. c #1696B6",
"S. c #389DAD",
"D. c #2B8EB1",
"F. c #00A2BA",
"G. c #08A4B9",
"H. c #14A4BA",
"J. c #33A1B1",
"K. c #508D96",
"L. c #5A82BE",
"P. c #4B90B0",
"I. c #659BA3",
"U. c #57ACB8",
"Y. c #58ABB7",
"T. c #6FABB4",
"R. c #6A969C",
"E. c #3B8CD2",
"W. c #04ACC2",
"Q. c #14ACC2",
"!. c #1BA6C2",
"~. c #05B7CB",
"^. c #16B6CA",
"/. c #05BDD1",
"(. c #17BED1",
"). c #32AFCB",
"_. c #3B81E6",
"`. c #3683E9",
"'. c #3C85E9",
"]. c #3B8AED",
"[. c #3580E7",
"{. c #3D8EF0",
"}. c #3B92F5",
"|. c #4781DB",
" X c #5381DD",
".X c #5392C3",
"XX c #6787C2",
"oX c #7687C5",
"OX c #6997C8",
"+X c #7998CA",
"@X c #48A8CB",
"#X c #54B3D0",
"$X c #7AA3CE",
"%X c #66B5D3",
"&X c #78B9D7",
"*X c #73AFCB",
"=X c #4287EA",
"-X c #4389EB",
";X c #418FF0",
":X c #6E92E6",
">X c #0AC4D6",
",X c #1AC5D7",
"<X c #28CADB",
"1X c #39CADB",
"2X c #2DC1CF",
"3X c #35D4E2",
"4X c #48C7D9",
"5X c #58C8DB",
"6X c #52CCD8",
"7X c #69C8DA",
"8X c #76C7DD",
"9X c #73D4DD",
"0X c #4AD7E4",
"qX c #5ADAE6",
"wX c #67DBE7",
"eX c #77DAE5",
"rX c #7BCCE0",
"tX c #69E1EA",
"yX c #7CE1EA",
"uX c #74E2EB",
"iX c #81BAD8",
"pX c #80A9D1",
"aX c #83C4DC",
"sX c #83DBE8",
"dX c #82CEE1",
"fX c #83E2EC",
/* pixels */
"                                                                                                                                                                    ",
"                                                                                                                                                                    ",
"                                                                                                                                                                    ",
"                                                                                                                                                                    ",
"                                                                  < x.S.S.S.S.S.S.x.z.: , &                                                                         ",
"                                                          K.Y.#X0XqX0X0X0X0X0X0X3X0X3X3X,X,XQ.v.: &                                                                 ",
"                                                    K.U.qXqXqX5X5X5X#X#X@X@X@X@X@X).).).2X1X<X<X<X/.j.: #                                                           ",
"                                                Y.7XtXuXwX7X%X#X.XL.L...X.X.| | Q X.Q Q ! D.D.!.).,X,X>X~.A %                                                       ",
"                                            T.wXtXeX7X%XOXOXL.+... . ._ _ / _ ( I I I I P E E E W :.!.(.,X>X~.J $                                                   ",
"                                        I.9XuXeX8X%XOXXXL. . .] _ _ / ( ~ ~ I x x x c c l j f j B j L W B.Q.(.>XW.:                                                 ",
"                                      *XtXyX8X&XOXXX+.+. .] ' ) / ~ ~ ~ b b z z l k h h g f f f f a a s L L B.Q.,X/.j.%                                             ",
"                                  R.9XyXeX&X$XXXd.+. .] ` ) ) b b b x z z z z h h h h g d d e e e 0 0 a a s B W A.^.>X~.;                                           ",
"                                T.eXyXrX*X+Xd.@.O.o.] [ ) b b b b z z h h z h h h g d d h d e w w 9 9 0 0 y a p V W H.,X/.A                                         ",
"                              T.yXsXaX$XoXd.+.o. .' ) ^ b b b b z h h h h h g g d d d d d d e w 0 q 9 9 7 8 8 y p B F N.^./.k.                                      ",
"                            T.fXsX&X+XoXd.d.} } ' ` / b b b z k h g d d d d d d d d d d d e e w q 9 9 9 7 6 6 8 8 y s F b.^./.j.                                    ",
"                          T.yXsXiX+XoXd.O.} } ' ) / b b z z h g d d d e e e d e d d e d e e w w q 9 9 7 7 7 6 6 6 8 r p V b.Q./.j.                                  ",
"                        T.fXsXiXpXd.@.O.o.' ' ) b b b z k h g g e e e w e w e w w e e e e w w w q 9 9 9 7 7 7 3 2 2 2 6 p V b.Q./.k.                                ",
"                      R.sXfXpXpXoX@.O.} } ' b ^ b b b h h g g e e k u.s.s.y.s.y.y.y.y.y.a.l w w q 9 9 9 7 7 3 3 1 1 3 7 5 p V b.^.~.A                               ",
"                      eXfXdXpXd.d.O.o.' ' ) b b b k g g g d e e w { :Xi.f.8.i.i.8.9.8.8.t.{ w w w 9 9 9 7 7 7 3 2 1 1 = 5 r u V N.(.~.;                             ",
"                    *XfXdXpXpX@.@.o.] ' ) b b b k h g g e g e e w { g.&.2.&.2.2.2.2.2.2.4.T w w w w w 9 7 7 3 7 2 2 1 1 4 5 t i F Z./.V.*                           ",
"                  I.fXsXpXpXd.@.o.} ' ' b b k k g g d d e e e w w T g.2.2.2.2.2.2.2.3.2.4.=.w w w 9 9 9 9 9 7 7 2 2 1 1 4 4 = 9 m W H.~.c.                          ",
"                  sXfXaXpXoX@.o.} ' b b b k k g g d e e e e w w q R g.>.2.3.2.2.2.2.3.3.4.=.w w 9 w w 9 9 9 7 7 3 2 1 1 1 4 2 7 t M N.^.~.:                         ",
"                T.sXiXpXd.@.O.} ' ) b b k h g g e e e w e w w w q { g.>.2.2.3.3.3.3.3.3.4.%.w w w w 9 9 9 7 7 7 3 3 2 2 1 4 1 4 r p F Z.~.n.$                       ",
"                sXfXpXpXd.O.} } ' ^ b z h g d e e e e e w e w w q R g.>.2.3.3.3.3.3.3.3.w.=.9 9 9 9 9 9 9 7 7 7 7 3 2 2 1 1 4 4 5 t n v.Q.~.A                       ",
"              T.yXdX$XoXd.o.} ' b b b k g e e e w w w w w e w w q %.g.>.2.3.3.3.3.3.3.3.0.%.w 9 q q q q 9 9 9 9 7 7 7 3 3 2 2 1 5 5 p F N./.V.%                     ",
"              eXyX&X+Xd.O.} ' ^ b b k g g e w w w w w w w w e w q %.f.>.3.3.3.3.3.3.4.4.t.%.9 q q q q 9 q 9 9 9 7 7 7 7 3 3 1 1 4 5 y n b.H.~.S                     ",
"            I.uXrX+XoXO.} ' ) / b k h g e w w q q w w w w e e w w R g.2.2.4.3.3.4.4.4.4.w.T q 9 q q q q q 9 9 9 9 9 7 7 3 3 2 2 4 4 y p F Z.~.n.#                   ",
"            *XyX8X+Xd.O.} ' ^ b z g g d w q q q q w w w w w w w w R g.2.4.4.3.5.4.5.5.4.8.T q q 9 q q q q q q 9 9 9 9 7 3 3 2 2 4 4 5 t n v.Q.G.:                   ",
"            eXeX$XoXO.o.' ) b b k g d e w q q q q w q q e e w e w Y f.2.2.4.4.4.4.5.5.5.t.%.9 9 9 q 9 q q q q q 9 9 9 9 7 7 7 3 2 4 4 r p H Z.~.c.+                 ",
"          I.tX9X+XXXO.] ` ^ b k h g e w q q 9 q q q q q q q e w q Y f.2.4.5.4.4.4.5.5.5.w.>.9 9 q 9 q q q w q q 9 9 9 9 7 7 3 3 2 1 4 r p F N.~.V.$                 ",
"          T.uX&XOX+.o.[ / b b k g e e w q q 9 9 q q q q q w q q q R f.4.4.4.3.5.5.5.5.5.t.%.9 q q q q q q w w q q q 9 9 7 7 7 3 2 2 4 5 t M v.Q.F.;                 ",
"          9XuX&XoXO.] ) ^ b k k g e w q 3 9 q 9 9 q q q w w w w 9 Y f.4.4.5.5.5.5.5.5.5.t.=.9 q q q q q w w w w w q 9 9 9 7 7 3 2 2 4 5 r n G H.W.J o               ",
"        < wXeX$XL.o.' ) b b h h e e q q 9 9 9 9 9 9 q 9 9 9 q q w Y f.3.7.5.5.5.7.7.8.7.t.a.0 9 w w w w w w w d w 0 w w 9 7 7 7 3 2 1 1 5 i Z Z.W.n.@               ",
"        K.wX7XOX+.o.` ^ b z h d e k { { { R R R %.%.%.%.%.%.%.%.Y |.f.3.7.5.5.7.7.8.8.8.7.9.Y U U U U U Y U $.$.$.%.$.$.Y g 7 7 3 3 1 1 5 u C N.W.F.$               ",
"        I.wX8XOX+.] ) ^ b z h d e s.:Xg.g.g.g.g.g.g.f.g.f.g.f.f.f.p.7.5.7.7.7.7.8.7.7.w.8._._._.'.'.=X=X=X=X=X=X=X=X=X-X;X;.9 3 3 3 7 7 5 u N v.W.F.*               ",
"        Y.wX7XXX .] ) ~ b z h d e y.i.&.2.&.>.2.>.>.2.2.2.2.4.4.2.5.7.5.5.7.8.7.7.8.t.f.r.8.8.r.r.9.r.r.r.r.r.r.r.r.f.r.r.3.3 3 3 3 7 & 5 t M v.Q.F.:               ",
"        U.tX7XXX+.[ ) ~ z k h d e s.i.>.3.2.2.2.2.3.4.2.3.4.4.4.5.7.7.7.7.8.8.8.t.w.8.w.t.w.w.w.8.e.e.e.9.e.e.r.r.r.r.'.=X;.9 7 3 2 1 1 5 y M l.G.F.S .             ",
"        U.tX%XXX .` ^ b z h d d e y.i.>.2.2.2.2.3.3.3.3.4.4.4.5.5.7.7.7.7.8.7.4.<.<.<.4.<.6.6.6.w.w.w.q.q.w.8.t.t.t.t.e._.3.9 6 3 2 1 1 5 t m l.H.V.J o             ",
"        U.tX%X+. .` ^ b z h d d w s.i.2.2.2.2.4.3.3.3.4.4.5.5.5.7.7.7.>.>.,.1.1.1.<.<.6.4.0.w.w.w.w.e.7.e.e.e.e.t.r.e.e.e.;.3 3 3 2 3 3 5 t n G Z.V.J o             ",
"        U.qX%X.. .` ~ b z h d d w y.i.>.2.2.2.3.3.3.4.4.4.4.5.w.2.,.,.,.1.1.1.<.<.<.6.6.0.e.w.w.w.w.e.e.e.e._.e.e.r.r.[.`.5.7 3 3 2 2 9 = r n G H.V.c.O             ",
"        U.qX%X.. ./ ~ b z h d d e y.i.>.2.2.4.3.3.4.4.4.5.4.<.&.:.:.,.,.,.<.<.1.6.6.6.0.0.w.w.e.t.q.t.t.r.r.r.r._._._._.`.9.9 7 3 2 2 4 4 y n l.Z.F.k.O             ",
"        Y.qX%XL. ./ ~ b z h h d e y.i.2.2.2.3.3.4.4.4.4.<.&.#.&.:.1.1.,.1.<.<.6.6.6.6.w.0.e.e.e.t.t.t.r.r.`.r.r._._.'.'.'.|.7 7 3 2 1 4 = t M z.C.V.h.o             ",
"        P.qX#XL. ./ ~ b z k h g d a.f.2.3.3.3.3.4.4.<.&.&.#.&.*.,.,.,.1.<.<.6.6.6.w.w.w.e.e.e.e.`.t.r.r.`.'.r.=X'.'.'.'.].9.7 7 3 2 4 4 7 y M z.C.F.A o             ",
"        K.qX5X.X ./ ~ b k h d d d y.4.&.2.3.3.3.4.&.#.#.#.&.*.&.,.1.1.>.1.6.6.6.6.w.w.w.e.e.e.e.r.`.'.r.'.'.].r.'.'.=X-X].|.7 7 2 2 4 4 7 y N z.C.F.S o             ",
"        < 0X6XP. ./ ( z z h h d e u.8.4.4.3.6.4.*.*.*.#.*.,.*.1.1.<.1.<.<.0.6.0.w.w.7.e.e.`.`.`.].`.].].].].].{.{.{.;X{.}.|.7 3 3 2 1 4 5 i Z z.G.F.; .             ",
"        , 1X0X.X| / ~ x z h h d d x =.=.%.a.%.%.%.%.%.%.%.%.>.&.Q _.0.<.<.0.0.w.w.w.e.e.[._.%.-.-.-.-.-.-.-.-.-.-.-.-.-.-.I 7 3 2 1 1 4 r i Z v.G.F.- .             ",
"          ).qX@XX._ ~ b z h h d d d e e e w e w q q 9 q q q q q 9 =.q.1.0.0.w.w.w.e.e.e.`.Q 7 9 7 9 7 9 9 9 9 9 9 9 9 7 7 9 7 7 2 1 4 5 y m H N.m.F.$               ",
"          P.0X#XX._ ~ x z h h h d d e e e w w w q q 9 9 q 9 9 q 9 $.q.1.0.0.w.w.e.e.t.t.`.=.7 9 9 9 9 9 9 9 q q 9 q 9 9 7 7 7 3 2 4 4 5 t N G Z.n.c.#               ",
"          K 0X#XP.T ( x z k h h g d e e e e w w q q 9 9 q 9 q q 0 $.q.6.0.w.q.w.q.t.t.r.`.-.7 9 7 9 9 9 9 9 9 9 9 9 9 7 9 7 7 7 6 1 4 5 i C z.C.F.h.O               ",
"          , 1X0X.X| ( b z h h g g d d e e w w q q q q 9 9 q 9 q 9 $.0.6.0.w.w.e.t.t.t.r.].%.9 7 9 9 9 9 9 9 9 9 9 9 9 7 7 7 7 7 6 4 4 t m Z v.m.F.: .               ",
"            J.0X).| ( I l k h g d d e e w w q q 9 9 9 9 9 9 9 9 9 $.q.6.w.w.w.e.`.t.r.'.`.-.9 7 9 9 9 7 9 9 9 9 9 7 9 7 7 7 7 7 6 4 5 t M z.b.n.V.% o               ",
"            x.0X4XD.T x z k g g d d e w w w q q w 9 9 9 9 9 w w 9 $.e.6.w.w.e.e.r.`.r.r.].-.9 7 9 9 9 9 9 7 7 9 9 9 7 7 7 7 7 7 4 4 r i C z.C.V.j.@                 ",
"            = 2X4XJ.Q I l h g g d e e e w q 9 9 9 9 9 9 w 9 9 9 9 $.q.6.w.w.e.e.e.r.'.'.].-.7 9 9 9 9 7 9 7 7 9 7 7 7 7 3 3 3 2 4 = 9 n G v.F.F.; .                 ",
"              x.3X4X! I c v g d d e e w w q 9 9 w 9 9 9 9 9 w 9 q &.e.0.0.e.e.e.r.`.'.'.].-.9 9 9 9 9 7 7 9 9 9 7 7 7 2 3 3 2 2 4 r a C z.M.n.n.$ o                 ",
"              = <X1XJ.Q I l f g f e w q q q 9 9 9 9 9 9 9 9 9 9 9 $.e.q.w.e.e.r.r.r.'.'.].-.9 9 9 9 9 9 9 7 9 7 7 7 2 2 2 2 1 1 5 t n G v.V.F.A o                   ",
"                z.<X).D.P j f f e w w q q 9 9 9 9 9 9 9 9 w 9 w 9 $.t.0.w.e.e.r.`.r.=X'.].-.w 9 9 9 9 9 7 7 7 7 7 7 2 2 4 1 4 4 r i C z.M.n.V.% .                   ",
"                & 2X3X).E P f f w q q q 9 9 9 9 9 9 9 9 q 9 9 q 9 $.t.w.w.w.e.r._._.'.'.;X-.9 9 9 9 9 7 7 7 7 3 7 3 1 1 1 7 3 3 - B H B.m.G.A O                     ",
"                  D ,X2XD.L j a 0 0 0 9 9 9 9 9 9 9 9 9 9 9 q 9 9 $.e.w.t.e.e.r._._.'.].{.-.9 9 9 9 7 7 7 7 3 3 2 2 1 1 4 % 4 y n Z H M.V.n.$ X                     ",
"                    N.,X).! P a a 9 7 7 9 7 7 7 9 7 7 9 9 9 9 9 9 $.t.w.e.e.`.r._._.].=X;X-.9 9 9 7 7 7 7 7 2 2 2 2 1 1 4 5 r m C z.c.c.F.: o                       ",
"                    = >X,X!.W s a 0 0 7 7 7 7 7 7 7 9 9 9 9 7 9 9 $.t.w.e.e.e.r._.'.'.'.;X-.9 9 9 9 7 7 7 3 2 1 2 2 1 4 5 r i N G v.F.F.k.@ +                       ",
"                      : >X,XA.W s a 0 0 7 7 3 7 7 7 7 7 7 7 7 7 7 Q t.q.q.e.`.`.`.`.].].{.>.7 7 7 7 7 7 2 2 2 1 1 4 4 5 * u N G b.n.V.n.* .                         ",
"                        J >X(.B.L s y 8 8 2 3 3 7 7 7 7 7 7 7 7 7 h 2.9.p.9.p.E.p.p._.|.i.x 7 3 7 7 3 3 1 1 1 1 = 4 5 8 a B D v.n.n.V.> o                           ",
"                          c.>X(.B.L s a 8 8 2 2 3 3 7 7 3 3 3 3 7 3 3 3 3 3 3 3 3 3 7 7 7 7 3 3 3 3 3 3 1 1 1 4 7 3 = a N G l.c.n.F.S +                             ",
"                            c./.^.A.F B y 8 2 2 3 3 3 7 3 3 3 3 3 3 3 3 3 3 3 3 3 3 7 7 7 7 3 3 3 3 2 2 4 4 4 4 5 8 m N G l.c.n.F.A @ o                             ",
"                              c./.(.N.W B t y 8 8 6 6 6 1 1 1 1 2 2 2 2 2 2 3 3 3 3 3 3 3 3 1 3 1 1 1 4 4 3 7 8 u m C z.l.c.n.F.A @ o                               ",
"                                k./.(.H.b.V p t y 5 4 6 6 1 1 1 1 2 1 1 1 2 3 3 3 2 2 2 1 1 1 1 4 4 4 6 5 = y u N D z.b.m.n.F.A @ o                                 ",
"                                  A ~./.!.b.F n p y r 5 5 4 4 4 3 2 1 1 1 1 1 7 1 1 1 1 6 1 4 4 4 = 7 5 8 - n C G l.c.m.F.V.: @ o                                   ",
"                                    ; V./.^.Z.b.F m p t r 5 5 4 3 3 = 4 1 1 & 9 1 1 1 1 5 4 5 5 5 t 9 p m C D z.b.M.c.F.n.> + O                                     ",
"                                      * j.~.~.Q.Z.l.F M m u t r r r 5 5 4 5 4 5 = 7 5 5 r r t t u m M C H l.b.c.m.V.F.j.% X                                         ",
"                                          : V.~.^.!.Z.b.H C M m i u u t t t t y 8 7 t u i i m M C Z G z.b.A.C.n.F.n.: @ .                                           ",
"                                            $ A V.~.~.Q.H.N.v.H Z C N M M n n n n M M C C Z G z.z.v.N.V.F.n.F.V.A $ o O                                             ",
"                                                $ A m.F.~.W.Q.H.H.N.v.z.z.l.l.l.H l.l.v.v.N.b.M.C.F.c.F.F.n.A % O X                                                 ",
"                                                    # ; c.V.F.W.W.W.G.Q.G.Z.A.Z.Z.Z.C.C.C.V.V.V.F.F.m.j.: $ o .                                                     ",
"                                                        + $ ; h.n.F.F.F.F.F.V.V.V.F.F.F.F.F.V.n.h.; % @ . o                                                         ",
"                                                              o @ $ * ; S J J h.h.h.A S ; - % @ O . X                                                               ",
"                                                                        . o O O O o o . . .                                                                         ",
"                                                                                                                                                                    ",
"                                                                                                                                                                    ",
"                                                                                                                                                                    ",
"                                                                                                                                                                    ",
"                                                                                                                                                                    ",
"                                                                                                                                                                    "
};
