/* XPM */
static char *_tz62_7sfh4[] = {
/* columns rows colors chars-per-pixel */
"82 82 67 1 ",
"  c None",
". c #00BCBE",
"X c #02BEC0",
"o c #06BFE0",
"O c #03C2C4",
"+ c #08C4C6",
"@ c #0BC6C9",
"# c #01CACE",
"$ c #0ECACC",
"% c #10CCCE",
"& c #01CDD3",
"* c #06C2DE",
"= c #05CCDD",
"- c #14CFD2",
"; c #03D1D6",
": c #0BD4D7",
"> c #05D4DD",
", c #0AD5D9",
"< c #05D8DF",
"1 c #0CDADD",
"2 c #15D2D4",
"3 c #18D4D6",
"4 c #14D7D9",
"5 c #1BD6D9",
"6 c #12DCDF",
"7 c #1DD9DB",
"8 c #06C0E2",
"9 c #0AC3E5",
"0 c #06CCE2",
"q c #0EC9E7",
"w c #0FCAE8",
"e c #12CCE9",
"r c #06D5E2",
"t c #0CD3E6",
"y c #06DAE2",
"u c #0BDCE5",
"i c #0DD2EF",
"p c #0FDDE8",
"a c #16DEE1",
"s c #19DFE1",
"d c #14D2EB",
"f c #19D5EC",
"g c #14DBEA",
"h c #1CDBEE",
"j c #07D3F5",
"k c #0CD6F4",
"l c #0DD9F6",
"z c #0EDCF9",
"x c #10D6F1",
"c c #13DBF5",
"v c #18DAF1",
"b c #11DDF9",
"n c #20DFEF",
"m c #0FE0E7",
"M c #13E1E5",
"N c #1DE3E6",
"B c #14E3EA",
"V c #1CE4ED",
"C c #1DE8EE",
"Z c #0FE1FC",
"A c #1FEAF0",
"S c #10E0FB",
"D c #1CE1F9",
"F c #20E5EE",
"G c #20E9ED",
"H c #21E4F0",
"J c #21EAF0",
/* pixels */
"                                                                                  ",
"                                                                                  ",
"                                                                                  ",
"                                                                                  ",
"                                 $%%$$$$@@++OO                                    ",
"                             224MMBBBBBBMumu1,&XOX                                ",
"                          22MBVBBBMgMggggpuuppuu<;...                             ",
"                        5sVCNVBhffgddddtdtdwtttjyuu<#..                           ",
"                      5NVAHnvfvvgdddeeeeee9ewwww0tyyy<&..                         ",
"                    5NVAVnvfffffdeeeeeqeqqe9weow9900rrr>#.                        ",
"                   5NJAhvhfffffoeeeeeewqee9qeooe990800r1y;..                      ",
"                 5NGAVhhfffefeffeeqqwwqw99q9oeoo99888800r<;&.                     ",
"                7GJHnnhfhfeffofoeqeq9ee99qq9woeo9898888==0<<;.                    ",
"               7FJFnhhfffffeeeofqq9q999q9999w9oo988888*88*=><&.                   ",
"              7GHHnnhhfefeeefeof99999e999q9qooww99888o88**==><&.                  ",
"             7FGnnnfffffeeeeoeeoq99q99999999wooo888888**8****><&.                 ",
"            7GHHnnffffefeeeeoefoeoooooooooooooeo999oojoooo9980>r&.                ",
"           7GJnnnnfffeeeeeoeeoooooDfDDDfDvvfDeoo989ooooooooo89=><#.               ",
"           FJHHnnfffffeeoeoeooeeoDDlvcvkcllcccoo9o9ooooooooo***=><#.              ",
"          7JHHnnfffeeeoefoeeoeooodvjkkkkllkkkxeo999ooooooooo****>>;..             ",
"         7GJnnnfffefefoeeoooeooookDjkkkkkxkklxoo9ooooooo*8o**o**==>;.             ",
"         FJHnnffffeeeoeooeeoooeeocckkkkkklkklxoo99oooooooo8oo*o**=>>#.            ",
"        7HnnnffffoeeoeoeeoojoooookDjkkkkkklklxooo9ooojooo8o*ooo***>>>..           ",
"        FHnnnnffffeeeeoooooooeoooevxkkkkllkklcoe9ojooooo88o*o*ooo*==<#.           ",
"       7GHnhneffofofooeeooeooeoeokckkllkkkckldooooeoojoo888o8888***=<>..          ",
"       NJFnhffeefoooeooooooooeoookcklklllkkklxooeooooooo88888o8ooo*=<;#.          ",
"      5VHnhfffeefofoeooooeoeoooooevklllxkllkleoooooooooo888oo888****=<&..         ",
"      7JHnhfffeeofooooeooooooeoeovvlkkkkkkcklxoooooeoooo8888888o8***=><..         ",
"      NAVvfffeeefoofoooeoeooeooooxckkklklllcccoojoooooooo99o8888o***=>>#..        ",
"     5VAnhfffee9fooeoooooooeooeooeckllclxlkllcooooeoojoj9o9o8o8o8oo*8=>>..        ",
"     7AVhfffeeqeoeooooooooeoooooolcklkkkcllllxeooooo9o999o9oo888*oo**=><..        ",
"     7CVhffeeeq9oooooooeooooeoeooxckckcllllllxoooeoo9o9o9989888o8o8**=>>O..       ",
"    2BVVffffkeeeoooooooooooooooookcllklkllclbd889899899889888o88ooo***>>#..       ",
"    2VVhffeeoeoooekekekekekxkklexcckkclclllllziiiiijiikiiikiiq8o*88***>>&..       ",
"    2CVhffeefooeeDDvDcDvDccccDcccclkllllcllzlbzbzbbbzbSzzbbbbk88o8*o*==<>..       ",
"    2CVhfffeeeeoofcjkkkkklkkkkkkkllckkcllllzblblzbllcbzzbzbbbz8o8ooo**=>>..       ",
"    3AhffeeeeoeeoDckkkkkklkkkckcllllclcklllllzzlllzlzzzlzbbbbk888o****=<>...      ",
"    -AVffeeeeeoooDckkkkkkkklkllkllllllllzlzjzjzzlzllllzllzlzzl8888ooo*=>>...      ",
"    3VDffeeeeooeoDcjkkkkkkkcklkllcllkjkkzjzjzjzjllzzzzlzzzzlzk888ooo**=>=...      ",
"    5vvffffoeoeoofkkkkkklkkkkclkkkjjkkjkjzjzzllzlzzlzzzzzzbzzl88oo****=>>...      ",
"    2CBffeeeeoeooDckkkkkkklcklkkjjkjjlljzjzzlzllzzzzzzzzbzbzzc8888oo**=<>...      ",
"    2BhgfeeeeeoeoDlkkkkklklkkjjjjkkkzjjzlljlllzzzzzzbzbzzbzzZb888o8***=>>...      ",
"    -VBffeeeooeooDckkkkkklljjjjjjljljzlzlzzzlzzzzzzbzzbbbZzbzb8888oo**>>=...      ",
"    %BBgfeeeeeowoDkxkkkkkkjjkkkjljljlzjjzjzzlzzzzzzbbSzzbbSbZz88oo*o**=<>...      ",
"    $MBgfeeoeeeooflkcclkkjjjjjlljljjjzzlljlzzzzzzbzSbzbbSSSSZb*8oo8**==<&...      ",
"    $6Bgkeeejoeowexcekexlcxkxkxcxblljzzjzzllzzdkkxxkklkcxxxkie88o*8***>>#...      ",
"     4Bgeefooooeooeooooooooooooooxllzjzlzlzzzko9o9889oo99888888888***=>>O..       ",
"     %Bgffeeeeweoeooeeooooeoooooojllllzzzzzzzk8ooo98oo9o9888o888oo***=<>...       ",
"     $MBddeqqqq9wowwowooeooooooe9jjzzzllzzzzzxooo9oooojooooooooo88***><&X..       ",
"     @1Mgttwqqq9owoooooeoooeeooo8jzjzjzzzzzzbbo9o99oooooooooooojoo**=>>&...       ",
"      $Bgdwwee9q9999joooojoooooo9izjjzlzzzbzzxooo9ooooooooooooooo*8*=<=....       ",
"      @aptdw99q9wow9ooooooooooeoojzzlzzlzzzbbko9oo9oooooooeooooo***=>>&X..        ",
"      O:mgtqe9q9joo99o89oooooooo8jlllllzzbzbSk9ooooooooooooooooo***=>>#...        ",
"       +mudwe9e9999o9999ooeoojoe9wzlzllzbzzzzkooowoooooooooooooo**=>>=....        ",
"       +,mttqq99999o9o99ooooooooojzlzzzzzbbbzc98ojooooojojoooooj**=<>#...         ",
"        +uptqq9999999o88oeoooooo8jzzzzzzzzbzbk88oooooooooooooooo**><&....         ",
"        O;uuw0q899898888oj9oo9988jllzlzzbzbzSl9o988o8o8ooooowoo9*=<>#...          ",
"         X1urwq999988888ooo99889oizllzzzzzSbSx8988888888oooooo89=>>&....          ",
"          Oyu00898898888ooooo9889jzllzzzzbzSSk8ooo888ooooooo**80><=....           ",
"          .:uu0089888888oo9ooo8oowzzlzzzbzZbSx89o9o888*ooooo**8r<>#....           ",
"           X>yy09988oooooooo88o88izzzzzzzzzZzl9oooooo*oooo***==>>&....            ",
"            X>ry0988oooooooo8o8880kkzzczzzbbzjooo9o9ooo**o**==>>&....             ",
"             .>yr09ojooooooo8888888888*8o9oooo9o9oooo**o***==<>&....              ",
"              .=yrj9ooooojoo8o8o888o8*88oo9oooooooo9oo****==<>&.....              ",
"               .;y<08*88*8*ooooooooo8*oo888o8o8ooooo*****=>>>&.....               ",
"                .;y<>==***8*8*88*o*ooo*8o888oo8*o**o***==>>>&.....                ",
"                 .#>r<==*******ooooooooooo*oo*********=><>=#.....                 ",
"                  ..&<<>>=****o***oo*o*o**ooo******=>=><>&......                  ",
"                   ..#>>>>==*************o*******==>>>>&#.....                    ",
"                     ..&><<>,===*=*=*********===>>>>>>&......                     ",
"                      ...#>><<<>;==========><>>>><=>#.......                      ",
"                        ....#&>><><<>>>>><><>>>>&#........                        ",
"                          .....O#&=>>>>=>=>=&&O.........                          ",
"                            ..................X.......                            ",
"                               ....................                               ",
"                                    ..........                                    ",
"                                                                                  ",
"                                                                                  ",
"                                                                                  ",
"                                                                                  ",
"                                                                                  ",
"                                                                                  "
};
