/* XPM */
static char *_gjb1_43ip0[] = {
/* columns rows colors chars-per-pixel */
"62 62 178 2 ",
"   c None",
".  c #00BB16",
"X  c #00BC1B",
"o  c #01BE22",
"O  c #06BF28",
"+  c #0BBD2C",
"@  c #10BE2D",
"#  c #12BC32",
"$  c #1DBB3B",
"%  c #20BE3E",
"&  c #00F217",
"*  c #00F41D",
"=  c #01C223",
"-  c #08C027",
";  c #00CA24",
":  c #06C32A",
">  c #0AC22B",
",  c #00CF2C",
"<  c #0AC82E",
"1  c #00D323",
"2  c #00DD22",
"3  c #00D02E",
"4  c #00D92D",
"5  c #0FC230",
"6  c #0FCF36",
"7  c #14C233",
"8  c #10CB34",
"9  c #1CC43D",
"0  c #00D934",
"q  c #0ED035",
"w  c #1BD03F",
"e  c #00E422",
"r  c #00EA22",
"t  c #00E32C",
"y  c #00F322",
"u  c #00F32C",
"i  c #0CF32A",
"p  c #00E431",
"a  c #04E13E",
"s  c #00EB3A",
"d  c #00F434",
"f  c #0BF434",
"g  c #00F53C",
"h  c #17F43D",
"j  c #3E9A53",
"k  c #24BC41",
"l  c #2ABE47",
"z  c #2EB149",
"x  c #2FBB49",
"c  c #31B54A",
"v  c #34BB4D",
"b  c #3BB653",
"n  c #39BD53",
"m  c #439E57",
"M  c #4D985D",
"N  c #47AE5B",
"B  c #45B25B",
"V  c #43BD5B",
"C  c #669D71",
"Z  c #56A266",
"A  c #4EB964",
"S  c #50BF66",
"D  c #56B268",
"F  c #54BF69",
"G  c #5EB771",
"H  c #1FC440",
"J  c #1BD140",
"K  c #16DA41",
"L  c #1FDA47",
"P  c #25C243",
"I  c #2DC64B",
"U  c #30C44E",
"Y  c #21DA49",
"T  c #36C452",
"R  c #3BC355",
"E  c #39CA56",
"W  c #30DE56",
"Q  c #07E643",
"!  c #0FE746",
"~  c #18E247",
"^  c #10E947",
"/  c #1BE54B",
"(  c #17E94B",
")  c #1CE94D",
"_  c #00F543",
"`  c #00F842",
"'  c #02F64B",
"]  c #0AF64E",
"[  c #00F94D",
"{  c #10F64D",
"}  c #0BF651",
"|  c #09FA52",
" . c #13F753",
".. c #1BF756",
"X. c #16FA56",
"o. c #1DF856",
"O. c #1EF759",
"+. c #1FF95A",
"@. c #26F548",
"#. c #36E65D",
"$. c #38E45E",
"%. c #20F857",
"&. c #22F75A",
"*. c #2FF658",
"=. c #24F85B",
"-. c #2AF85F",
";. c #33F657",
":. c #3BE360",
">. c #34EE60",
",. c #38EE63",
"<. c #27F864",
"1. c #2DF962",
"2. c #27F764",
"3. c #35F661",
"4. c #34F965",
"5. c #3DF76A",
"6. c #34F869",
"7. c #3BF96A",
"8. c #3CF971",
"9. c #41C25B",
"0. c #43CA5E",
"q. c #4EC564",
"w. c #4CCC65",
"e. c #54CB6C",
"r. c #59CD6F",
"t. c #51C469",
"y. c #5CC471",
"u. c #5BCE72",
"i. c #63C276",
"p. c #45F76F",
"a. c #41FA6E",
"s. c #45FA71",
"d. c #4BFA75",
"f. c #4FFB78",
"g. c #43F87A",
"h. c #58F67E",
"j. c #54FB7C",
"k. c #58FB7F",
"l. c #6CD281",
"z. c #5BF780",
"x. c #5CFC83",
"c. c #5EF988",
"v. c #61FC86",
"b. c #65FD89",
"n. c #6BFD8D",
"m. c #72F98C",
"M. c #6EFD90",
"N. c #73FE94",
"B. c #78FE97",
"V. c #7BFE9A",
"C. c #75FA9B",
"Z. c #81FF9F",
"A. c #8AFA9C",
"S. c #85FEA2",
"D. c #8AFFA6",
"F. c #8EFEA9",
"G. c #93FEAC",
"H. c #9CFDB2",
"J. c #A3FBB5",
"K. c #A4FDB9",
"L. c #AAFCBF",
"P. c #AEFDC1",
"I. c #B3FDC4",
"U. c #BBFECB",
"Y. c #C0FDCF",
"T. c #C4FFD2",
"R. c #CDFDD8",
"E. c #CBFDD6",
"W. c #D3FEDD",
"Q. c #D7FEE1",
"!. c #DDFEE5",
"~. c #E0FEE7",
"^. c #E5FEEB",
"/. c #E9FEEE",
"(. c #ECFEF1",
"). c #F2FFF5",
"_. c #F7FFF9",
"`. c #FFFFFF",
/* pixels */
"                                                                                                                            ",
"                                                                                                                            ",
"                                                                                                                            ",
"                                                                                                                            ",
"                                                0.T 9 7 7 5 7 9 U V                                                         ",
"                                          I - X X . X X X X X X X X X - P                                                   ",
"                                    w.> X . X < 6 w ( ( ( ^ Q a 0 , ; o X X + R                                             ",
"                                r.- . X < Y >.5.7.6.4.1.<.+.X.| ' _ _ s 4 ; o X = q.                                        ",
"                              9 . . 8 #.f.j.f.s.a.7.7.4.-.=.%.X.] ' _ _ g d t ; X X 7                                       ",
"                            = . < #.k.v.k.j.f.d.d.s.7.7.4.-.=.%.} ] ' _ _ g d u t = o X F                                   ",
"                        0.X X J h.n.v.k.k.k.k.j.d.d.a.7.4.4.1.=... .' ' _ g g d u u 1 X X n                                 ",
"                      w.. X W n.n.n.n.b.v.v.k.k.j.f.d.s.a.7.4.-.&...} ' _ _ g d u u y 2 = . R                               ",
"                    e.. X $.M.M.n.M.n.n.n.b.v.v.k.k.j.s.p.a.4.4.-.&. .] ' _ g g d u y * e o X 9.                            ",
"                    . X :.N.N.N.N.N.N.N.M.n.n.v.v.k.j.f.s.a.5.4.1.=.o. .' _ _ g d u * & & e o . y.                          ",
"                  = X #.N.N.N.B.B.B.V.B.N.N.n.n.v.v.k.j.f.s.a.4.4.1.&...} ' _ d g *.m.A.@.& 2 o X                           ",
"                9 . w n.N.N.N.V.V.Z.Z.Z.V.B.N.M.n.v.x.k.j.d.s.5.4.1.=.O.] _  .b.E.`.`.`.!.i * 1 X 7                         ",
"              l.. : z.M.M.B.V.V.Z.Z.D.Z.Z.V.B.N.n.n.v.k.k.f.s.a.7.4.=. .O.C.^.`.`.`.`.`.W.i * y = . S                       ",
"              - X $.n.n.N.B.V.S.D.D.D.D.D.Z.V.N.N.n.v.v.k.j.d.a.7.4.&.v.Q.`.`.`.`.`.`.R.h * y y e o o                       ",
"            u.. 8 x.b.n.N.N.V.S.D.F.G.G.D.S.Z.V.N.M.n.v.k.j.f.s.6.5.J.`.`.`.`.`.`.`.I.h y y r y y ; . 9.                    ",
"            > X #.b.v.n.N.N.B.S.D.G.G.G.G.D.Z.V.N.M.n.v.v.k.j.a.f.R.`.`.`.`.`.`.`.F.d u u y y y y r o +                     ",
"            . < j.x.x.b.n.N.B.S.Z.F.G.G.G.D.S.Z.B.N.n.b.x.k.d.k.!.`.`.`.`.`.`.(.c.d d d u u y * y y ; . G                   ",
"          E . Y k.k.x.b.n.N.B.V.Z.D.D.D.D.D.Z.V.B.N.n.b.v.f.v.~.`.`.`.`.`.`.^.8.g _ g d d r y y y y 2 X P                   ",
"          - X 3.j.k.x.v.b.M.N.N.V.Z.Z.D.Z.S.Z.V.N.N.n.b.k.k.W.`.`.`.`.`.`.~.6._ _ _ g g d u y y * y r = >                   ",
"          X < a.d.f.x.x.v.n.M.n.N.B.Z.Z.Z.Z.V.V.N.M.n.v.k.I.`.`.`.`.`.`.).p.] ' ' _ g d u u y y y y y ; . Z                 ",
"        e.. 6 a.s.f.k.k.x.x.N.K.K.D.N.B.V.V.B.N.N.n.n.k.Z.`.`.`.`.`.`.`.C.{  .' ' _ g g d u y y y y y 1 X b                 ",
"        0.. K 7.a.d.f.f.j.F.^.`.`._.T.V.N.N.N.N.M.n.v.v.~.`.`.`.`.`.`.W.&.&. .] ' _ g d d u y y y y * 2 X P                 ",
"        P X / 7.5.s.s.k.U.`.`.`.`.`.`.(.F.b.n.M.n.b.k.G.`.`.`.`.`.`.`.S...o. .' _ _ _ g u u y y y y y e o #                 ",
"        7 X ) 6.7.4.j.Q.`.`.`.`.`.`.`.`._.H.x.b.v.v.v.!.`.`.`.`.`.`.^.4.=.o. .] ' _ g d d u y y y y y e o #                 ",
"        7 o ) -.3.7.R.`.`.`.`.`.`.`.`.`.`.`.H.k.v.k.B.`.`.`.`.`.`.`.L.%.&...} ' ' _ g d d u r y y y y r = +                 ",
"        5 o ( -.=.k.`.`.`.`.`.`.`.`.`.`.`.`.`.K.j.s.L.`.`.`.`.`.`.`.M...&...} ' _ _ g g u u y y y y y r o +                 ",
"        7 X ^ +.&.6.Q.`.`.`.`.`.`.`.`.`.`.`.`.`.L.f.W.`.`.`.`.`.`.`.f.O.O. .] ' _ _ g d d u y y y y y r o +                 ",
"        9 o a X.O.&.7.K._.`.`.`.`.`.`.`.`.`.`.`.`.W.).`.`.`.`.`.`.).5.O... .' ' _ _ g d u u y y * y y e o #                 ",
"        T X 0 | X.&.=...c.~.`.`.`.`.`.`.`.`.`.`.`.`.`.`.`.`.`.`.`.(.6...X.} ' ' _ g d d u u * y y y y e X k                 ",
"        t.X 3 [ ]  ...=...4.I.`.`.`.`.`.`.`.`.`.`.`.`.`.`.`.`.`.`.(.1. . .' ' _ _ g d d u u y y r y y 1 X b                 ",
"          X = ' ' '  ...&.&...N./.`.`.`.`.`.`.`.`.`.`.`.`.`.`.`.`.(.1.] ' ' ' _ g d d d u y * y y y * ; X Z                 ",
"          O o s _ ' ' }  ...&...a.U.`.`.`.`.`.`.`.`.`.`.`.`.`.`.`.).>.' ' _ _ g g s d u u y y y y y r = o                   ",
"          I X 4 ` _ ' ' ] } ..O...o.F.`.`.`.`.`.`.`.`.`.`.`.`.`.`._.2.' ' _ _ g d d u u r y * y y y e X %                   ",
"            X ; g _ _ _ ' ' } } X...{ c.(.`.`.`.`.`.`.`.`.`.`.`.`._.2._ _ _ g g d d u u * y y y y y ; . D                   ",
"            > X p g g _ _ ' ' ' ' } } ] 8.^.`.`.`.`.`.`.`.`.`.`.`.).O._ _ g g g d d u * y y y r y r o O                     ",
"            w.X ; d g g g _ _ _ ' ' ' ] ' 6./.`.`.`.`.`.`.`.`.`.`.(. .g g g d d u u u y y y y y y ; . n                     ",
"              = = t d d g g g _ _ _ ' ' ' g g.`.`.`.`.`.`.`.`.`.`.W._ g g d d u u u y y y y y y e X o                       ",
"              y.. = u d d d g g g _ _ _ _ _ s D.`.`.`.`.`.`.`.`.`.L.d g d d u u u y y y y y y * ; X V                       ",
"                7 X 1 u u u d d d g g g _ g g { /.`.`.`.`.`.`.`.`.p.u d d u u y * y y r y y y 1 X +                         ",
"                  X o 2 u u u d d d g d g g g d S.`.`.`.`.`.`.).G.u d d u u u r y y y * y y e o X C                         ",
"                  i.. o e y y u u u u d d d d u 3.`.`.`.`._.J.@.u u u u u y y * y y y y y e o . A                           ",
"                    9.. = e y * y u u u u u u u f H.~.!.J.;.u y u u u y y y y y * y y y e = . v                             ",
"                      R . = 2 y y * * u u u u u u y f f * y y u u y * * * y y y y y y e = X x                               ",
"                        T . o 1 y y y * r * y y y y * r y y y y * y y r y y y y y r 1 o . x                                 ",
"                          S o X ; e y y y y y y y y y y y y y y y y y y y * y y e ; X X B                                   ",
"                              # . o ; e y y y * y y y * y y y * y y y y y y r 1 o X @ M                                     ",
"                                V o X o ; 2 r y y y y y y y y y y y * r 2 ; o X o b                                         ",
"                                    n O X X = ; 1 2 e e r r r e 2 1 ; = X X o c                                             ",
"                                        N % = X X X o o o o o o X X X = $ N                                                 ",
"                                              m c k # + + + + # % z m                                                       ",
"                                                                                                                            ",
"                                                                                                                            ",
"                                                                                                                            ",
"                                                                                                                            ",
"                                                                                                                            ",
"                                                                                                                            ",
"                                                                                                                            ",
"                                                                                                                            "
};
