/* XPM */
static char *kk0mx_0c02o[] = {
/* columns rows colors chars-per-pixel */
"82 82 55 1 ",
"  c None",
". c #121212",
"X c #171718",
"o c #181718",
"O c #131C1D",
"+ c #1B1B1C",
"@ c #201D19",
"# c #24211D",
"$ c #342C1E",
"% c #161727",
"& c #151E24",
"* c #1D1E21",
"= c #16152A",
"- c #18172C",
"; c #161B28",
": c #1B1A2E",
"> c #1F1E30",
", c #201F30",
"< c #162227",
"1 c #1B2425",
"2 c #162429",
"3 c #1C242E",
"4 c #17282C",
"5 c #1C2A2D",
"6 c #1F2230",
"7 c #142B35",
"8 c #1A2D36",
"9 c #132F39",
"0 c #1E2F38",
"q c #1E3337",
"w c #13313A",
"e c #1B333B",
"r c #232423",
"t c #21212F",
"y c #252C2D",
"u c #2D2E2C",
"i c #342F23",
"p c #353125",
"a c #393326",
"s c #34332C",
"d c #3B362C",
"f c #232331",
"g c #242B32",
"h c #292D34",
"j c #253133",
"k c #293133",
"l c #243239",
"z c #2B343A",
"x c #2E383E",
"c c #343635",
"v c #3A3730",
"b c #3B3932",
"n c #32353A",
"m c #353A3D",
"M c #3C3D3E",
/* pixels */
"                                                                                  ",
"                                                                                  ",
"                                                                                  ",
"                                                                                  ",
"                                 +++++*++X+XXX                                    ",
"                             +1ry5g5g5j5y554<1O.X.                                ",
"                          r1yjj5g5g5y855t5865555<<...                             ",
"                        ryyjhg5gfgtf3tt:33:>2227444<O..                           ",
"                      ryjhhhfhf,t6>>>:,>:::>::2::22744&..                         ",
"                    ryjjgggffff,3ff:>,>::::::---:--22222O.                        ",
"                   rkkhhyffff,,,>,:>,::>::::>---=-=;;;224<..                      ",
"                 rykkhhfffff,,,,:,::::::::::------===;;;22<O.                     ",
"                rykhhhhffff,,>>->:::::-::::-:------====;;<22<.                    ",
"               rhzkhhf,fff,,,,->:::::->-:-:-:------=-===;;;<<O.                   ",
"              rkhhhff,fff,,>-,-,::::::-:--::->-=--========;;<2<.                  ",
"             rkkhhfhfff,,>:>,,--:-------:---------========;;&<<O.                 ",
"            uhhhhfhff,,,,,,:::->------------,------=-=======%*%1<.                ",
"           rkkhhhfff,,,,,,:::----------,-------,--==--======%%&&<O.               ",
"           ykhhhhff,,,,fbMMMMMcMMbMMbMMMMnMMnMMMmMxmMMcf=-==%%%;<<O.              ",
"          rkkhgff,f,,,nMMMMMMMMMMMMMMMMMMMMMMMMMMMMMMMMM,-==%%;%&<<..             ",
"         rkkhhfhff,,>,MMMMMMMMMMMMMMMMMMMMMMMMMMMMMMMMMMM,=====%;&<<.             ",
"         hchhhfff,,:>nMMMMMMMMMMMMMMMMMMMMMMMMMMMMMMMMMMMu=====%%;<2O.            ",
"        rhhhh,fff,,,,MMMMMMMMMMMMMMMMMMMMMMMMMMMMMMMMMMMMc-=====%;<<<..           ",
"        hhhhh,ff,,,::MMMMMxzxmzlzznnzzllnhnnllzlxllznMMMMc-=%%===;;<<O.           ",
"       rkkhffff,,,::-MMMMng08898877777779777777977777zMMMM,=====%%%&2<..          ",
"       ykkfhff,,,::--MMMMMllzxzllhzxlllllz0ll0lz0llx0MMMMn-======%=;<<O.          ",
"      rkhhhff,,>:::-,nMMMMMMMMMMMMMMMMMMMMMMMMMMMMMMMMMMMn,=======%=&<<..         ",
"      rkhfhf,,>>:::--MMMMMMMMMMMMMMMMMMMMMMMMMMMMMMMMMMMMc,=======%%;2<..         ",
"      yjhfff,,>::::--MMMMMzzlzzzlzzlzzll0lllllllzlllznMMMn:=====%==%;<<O..        ",
"     rjhhfff,,>:::---bMMMm888878977777777777777777777zMMMn:-=======%=2<<..        ",
"     rkhhfff,>>:-----nMMMMzzlllllzllllllllll0l0ll00lhnMMMn:-=======%;&<<..        ",
"     ykgfff,,>:::----MMMMMMMMMMMMMmMMMMMMMMMMMMMMMMMMMMMMn-==-=======;<<X..       ",
"    1yhgff,,>-::-----MMMMMMMMMMMMMMMMMMMMMMMMMMMMMMMMMMMMm>=========%%22O..       ",
"    #yggf,,>>>-:-=---mMMMMzlzzzllllllllzlllllllllllllmMMmn>===-=====%%&<&..       ",
"    1yhyff,>>-->-----nmMMx889088888777977777877777779lMxzzf=-==-===%%%&<<..       ",
"    rjhfff>>>>-------mMMMxzlzlllllllllll0ll0lll0lllllxmmxxz>==-=====%=;2<..       ",
"    rggfff,>->::-----nMMMMMmMMMmmMMMMMmMMmMMMmMmmMMMyymmxmxn--=-====%;2<<...      ",
"    rgg8,,>>>>----=--mMmMMMMMMMMMMMMMMMMMMMMMMMMMMMn2XymMxxxl--=====%;;<<...      ",
"    rggf,,>>-------==mMmMMzllllllllllllllllllllllllee4&gMxxxxz--==%==%;<<...      ",
"    *lgg,>>>>>----=-:mmMMz090l98887878977977777777ewww2OzMmxxxf=====%=;<<...      ",
"    rjgf,,>>->>------mMMMmlllllllllllll0l00lllll0ewwww97=hmmmxx-=====%;<<...      ",
"    +jg6,,>>>--------mMmmMMMMMMMMMMmMmMMMMMMmMMn0wwww99w2%kmmxl======%;<<...      ",
"    *jg5,,>>:--------mmmmmmMmmmMmmmMmmMmMmmMMMxeewwwwwww92Ogmh=======%;2&...      ",
"    +5gf>>>:->->-----MmmMmzlxlllllllll0ll0l0ellewwwwwww999&Oh-====%=%%&<&...      ",
"    *yg5,,,>::-:-:---mmMMz80098898778777777779ewwwwewwww9w9>--=======;<<&...      ",
"    +1y8,,>>:::-:----nmmMxllzllllllllllll0l00ewwwwewewww990-===-==%%%;<2O...      ",
"     1y6,,,::::::-:--mMmmMmMMmMmMmMmMMmmMMmleww9eeeewwww90:-=--=====;;<<X..       ",
"     +y8,>:,:::-:----mmmmmMmMmMmmMmMmmMmmmnhwwweeeew999w0z-===-==%==;&<<...       ",
"     +558,>:::::-----mMmmxzlllzllllll0lllqpalweeeeew9w9qnn:=======%%;&<<...       ",
"     +1gt3:>::::::---mmmmx8880788877779775pdbxeeeewww9emMn>=======%=;2<O...       ",
"      +y5f>>:::::-:--mMmMxzllllllllllllleuadbbzeewww9emMmh>======%=;;<<....       ",
"      X4y2::::-:-----nmmmmMmmMmmmmmmmmMmc$abbbbzwwwwexmmmc---=====%;<<<...        ",
"      X1553::::::----mmmmmMmmmmMMmmmmmMmy+addvbbewwemMmmmz-======%%;2<X...        ",
"       +553:::-:-----nmmmmlllllllllllll0*X#addvdcl7elzMmmn:======%;&<<....        ",
"       o155::::-:---=nmmmz80088878977792++rradaipy777lmmmn-=====%;&2<O...         ",
"        o28<:::-----=mmmmnlllllllllllll1+@1+#$iskllllzmmmn-======;2<&....         ",
"        X<522:-:-----xmmmmmmmmmmmmmmmmn***o+@ummxmmmmmmmnn:=====;<<<O...          ",
"         .156::-----=lmmmmmmmmmmmmmmmmhoo*thnmxmmmmmmmmmmh====%=;<<&....          ",
"          o222;=;==-=>mmmmmmmmmmmmmmmmr+,nnmmmmmmmmmmmmmm,-=%%%%<2&....           ",
"          .<872;-=--==hxxmmmxmnnmmxmmnhnmmMnmmmmmmmmmmnm,--=%%;&<2O....           ",
"           .&42;=-===-=>znnnxxznnnnzznnnxxxnnnnnznnzczh,%=%==%1<<O....            ",
"            .<52;=======--====--======--==-=====-==-=====%=%;&<<&....             ",
"             .<22;==-=========-==-====-===-==============%;;&<<&....              ",
"              .<27-========================-=-=========%%%;<<<&.....              ",
"               .<<<<;;-===%=====================%=%=%%=%;&<<<&.....               ",
"                .&42<&;=%=======%==%=================%=%&<<<&.....                ",
"                 .O<<<<;;;=%%%=======%=%====%===%=%%;;&<<<&O.....                 ",
"                  ..<22<&;;=%%%%==============%=%%=%;&<2<&......                  ",
"                   ..O<22<<;%;====%%%=======%=;;;;;<<2<&O.....                    ",
"                     ..O<<2<&;;&;;;%;%;;.=;;;&;<<<<<<<O......                     ",
"                      ...O<<<<<<1<;&;&;&=;<&2<<<<<2&O.......                      ",
"                        ....O<<2<<22<<<<;2<2<<<;<O........                        ",
"                          .....XO&&<<<&<<<&&&OX.........                          ",
"                            ..........................                            ",
"                               ....................                               ",
"                                    ..........                                    ",
"                                                                                  ",
"                                                                                  ",
"                                                                                  ",
"                                                                                  ",
"                                                                                  ",
"                                                                                  "
};
