/* XPM */
static char *elnc1_2lboy[] = {
/* columns rows colors chars-per-pixel */
"82 82 236 2 ",
"   c None",
".  c #000000",
"X  c #0C0C0C",
"o  c #171717",
"O  c #101E22",
"+  c #01353A",
"@  c #072B34",
"#  c #29282A",
"$  c #383839",
"%  c #2A2D32",
"&  c #023B44",
"*  c #033848",
"=  c #063B4F",
"-  c #373B44",
";  c #16157F",
":  c #161B7E",
">  c #15237D",
",  c #152B7C",
"<  c #15347D",
"1  c #153C7C",
"2  c #02444A",
"3  c #054856",
"4  c #0D535B",
"5  c #3A4651",
"6  c #0A4A68",
"7  c #0A5768",
"8  c #15447C",
"9  c #154A7C",
"0  c #114F76",
"q  c #095674",
"w  c #15537B",
"e  c #155B7A",
"r  c #105776",
"t  c #15566B",
"y  c #15647A",
"u  c #15687B",
"i  c #1C6B76",
"p  c #0B6271",
"a  c #2F6A72",
"s  c #4A4A4B",
"d  c #585858",
"f  c #484D56",
"g  c #50676B",
"h  c #6A6A6A",
"j  c #757575",
"k  c #6A685D",
"l  c #5A4C33",
"z  c #BCA369",
"x  c #CCAB69",
"c  c #E4B96E",
"v  c #CB9F51",
"b  c #E3C27B",
"n  c #170F86",
"m  c #170F88",
"M  c #180F8C",
"N  c #161283",
"B  c #161A82",
"V  c #171288",
"C  c #18118E",
"Z  c #191A8A",
"A  c #1B1292",
"S  c #1C1A93",
"D  c #201795",
"F  c #231A97",
"G  c #261E98",
"H  c #20198B",
"J  c #172786",
"K  c #173687",
"L  c #1B2792",
"P  c #1A3692",
"I  c #2B239B",
"U  c #282899",
"Y  c #30279D",
"T  c #332B9E",
"R  c #322C97",
"E  c #29399A",
"W  c #34359E",
"Q  c #362EA0",
"!  c #3B33A2",
"~  c #3C3AA3",
"^  c #3732A1",
"/  c #433BA6",
"(  c #174686",
")  c #19508E",
"_  c #2E519A",
"`  c #166985",
"'  c #187689",
"]  c #106F90",
"[  c #287097",
"{  c #3954A2",
"}  c #3B43A2",
"|  c #3B77A3",
" . c #1475A1",
".. c #4741A8",
"X. c #4B44AA",
"o. c #4D4AAB",
"O. c #4445A6",
"+. c #524CAD",
"@. c #4858A8",
"#. c #5552AE",
"$. c #5659AE",
"%. c #5A55B1",
"&. c #5D5AB2",
"*. c #625EB5",
"=. c #5C6AB2",
"-. c #4D71AB",
";. c #6563B6",
":. c #6C6AB9",
">. c #6569B6",
",. c #6875B7",
"<. c #7273BC",
"1. c #767BBD",
"2. c #706FBB",
"3. c #5B7E86",
"4. c #7A7FC0",
"5. c #35899B",
"6. c #288698",
"7. c #388CA2",
"8. c #1C8196",
"9. c #4D8E94",
"0. c #6E9195",
"q. c #4A99A9",
"w. c #5A95B1",
"e. c #528EAC",
"r. c #6789B8",
"t. c #7785BE",
"y. c #6A97B9",
"u. c #7497BE",
"i. c #7298A2",
"p. c #5DA5B2",
"a. c #79A8AB",
"s. c #67ABB7",
"d. c #76A9B8",
"f. c #7AB3B9",
"g. c #69A2A7",
"h. c #7BA596",
"j. c #018BC9",
"k. c #078CC9",
"l. c #0D90CB",
"z. c #1593CD",
"x. c #1B96CE",
"c. c #1F98CF",
"v. c #0791D4",
"b. c #2399CF",
"n. c #299CCF",
"m. c #2B9DD1",
"M. c #259AD0",
"N. c #319FD2",
"B. c #34A3D4",
"V. c #35AFDC",
"C. c #02ACE4",
"Z. c #05ADE8",
"A. c #01B3EA",
"S. c #0AB6EA",
"D. c #18B9EC",
"F. c #00BAF2",
"G. c #24BBEC",
"H. c #2BBEED",
"J. c #35BBEA",
"K. c #10A7DA",
"L. c #7C88C2",
"P. c #7D99C2",
"I. c #5CB5DE",
"U. c #56B3DD",
"Y. c #4AB0D6",
"T. c #7CA8C1",
"R. c #62B7DE",
"E. c #64B8DF",
"W. c #68B9DD",
"Q. c #7BB6C3",
"!. c #51B7E2",
"~. c #65B9E0",
"^. c #6CBCE1",
"/. c #62B7E0",
"(. c #72BEE2",
"). c #4A8FCF",
"_. c #38C5F3",
"`. c #2FC1F0",
"'. c #4BC6EF",
"]. c #75C0E2",
"[. c #7BC2E4",
"{. c #79D3E5",
"}. c #6ECAD6",
"|. c #A8A98E",
" X c #8AA9B6",
".X c #8B9DA9",
"XX c #EED094",
"oX c #E7D6AC",
"OX c #F4E1B5",
"+X c #D2D2AF",
"@X c #8798CB",
"#X c #82A6C4",
"$X c #83B5C5",
"%X c #9EACDA",
"&X c #AFB3DC",
"*X c #8CB0E5",
"=X c #ADBCE3",
"-X c #B3BDE3",
";X c #A19FD0",
":X c #B1CBD9",
">X c #85C7E5",
",X c #95CFEB",
"<X c #B5CCEB",
"1X c #BEC3E6",
"2X c #B8D7EB",
"3X c #A1DAFD",
"4X c #B8DCF2",
"5X c #A9D3EF",
"6X c #AFE1FD",
"7X c #B8E2FB",
"8X c #C5C6E6",
"9X c #C7C9E6",
"0X c #DEDDEF",
"qX c #D7D6EC",
"wX c #C8DBF2",
"eX c #DFDDF0",
"rX c #D2DFF3",
"tX c #E0DFF0",
"yX c #C4E5F8",
"uX c #C9E7F9",
"iX c #CBEAFB",
"pX c #C6E6F7",
"aX c #D4ECFB",
"sX c #DBEFFB",
"dX c #D6E4F4",
"fX c #DDF2FD",
"gX c #D7F5FF",
"hX c #E4E7F4",
"jX c #E3F3FC",
"kX c #EAF5FC",
"lX c #EEF7FB",
"zX c #F3FAFE",
"xX c #FDFEFF",
"cX c #F3F4FA",
"vX c #DFE3C9",
"bX c #DFBE83",
/* pixels */
"                                                                                                                                                                    ",
"                                                                                                                                                                    ",
"                                                                                                                                                                    ",
"                                                                                                                                                                    ",
"                                                                  s $ $ - $ $ % $ # # o o X                                                                         ",
"                                                          s s g 9.9.9.q.p.q.q.q.7.7.5.6.a a + o X X                                                                 ",
"                                                    d d 0.q.s.w.w.e.e.e.e.e.-.| -.| | 5.7.5.6.8.u 4 X . .                                                           ",
"                                                h 9.g.s.s.y.r.e.=.=.-.$.@.@.@.@.{ { { { { _ _ [ 8.8.8.u 2 . .                                                       ",
"                                            h 0.d.s.y.r.,.,.=.=.=.$.@.o.o.O.O.O.} } ~ W E E } _ _ ) ] ] ' ] 3 . .                                                   ",
"                                        h 0.s.d.P.u.r.,.=.=.$.#.o.o.o.O./ / / / W ! W W T R U L L U L ( ` ` ' p + .                                                 ",
"                                      h g.Q.d.u.r.,.>.*.&.$.+.+.X./ O./ / / / / ^ ^ T Y I Y U G G L L L L ( ) ` ' 4 . .                                             ",
"                                  h i.f.T.u.L.1.,.;.=.&.#.+.+./ ../ / ~ ! ! T T T T T Y I I G G F S S C S J K ( ` ` 7 2 .                                           ",
"                                h a.Q.T.L.L.4.:.;.*.%.+.+.X./ / / W T ! T T T T Y Y Y I I I G F F D A A C Z Z J K ( y ' 3 .                                         ",
"                              j a.$X#XL.1.:.:.*.*.%.+.+./ / / / ! R T Y T T Y Y I Y I I I I G F D A A A C V Z B > , ( e u 3 .                                       ",
"                            j a.$XT.L.4.,.:.;.*.%.+.o./ / ! ! Q T Y Y Y Y Y Y G I I I I I G G F F A A A C C N V B B > 1 e u 4 .                                     ",
"                          j a.$XP.L.1.:.:.;.%.%.+.+./ / / ! T Y Y G G I G G G G G I G I I G F F D A A A A M V V N N : > < e u 3 .                                   ",
"                        j f. Xu.L.t.2.:.*.*.+.+.X./ / ! ! T Y Y I G G G G G G G G G G G G G F F D D A A A M M n n N ; ; : < w i 3 .                                 ",
"                      h a.$X@X@X1.<.:.*.*.+.+./ / / W T R Y I G G F F F F F F F F F G F G G F D D D A A M V M M n N ; ; ; > < e u 2 .                               ",
"                      a.$X#X@X1.<.2.*.%.+.+.X.:.&XtXtXtXtXtXtXtXtX0X0X0X0X0X0X0XtXtXtXtXtXtXtX0XeXeXrXeX0XqX;XX.V n n ; ; ; > 1 e u 2 .                             ",
"                    j  X$X@X1.2.2.*.*.+.+./ @XxXxXxXxXxXxXxXxXxXxXxXxXxXxXxXxXxXxXxXxXxXxXxXxXxXxXxXxXxXxXxXxXcX1.M n ; ; ; : , 8 y 7 . .                           ",
"                  h  X$X@X4.4.:.*.*.%.+./ :.cXxXxXxXxXxXxXxXxXxXxXxXxXxXxXxXxXxXxXxXxXxXxXxXxXxXxXxXxXxXxXxXxXxXcX#.n n ; ; ; ; , w y 3 .                           ",
"                  h.$X#XL.4.:.:.*.%.X./ / 1XxXxXxXxXxXxXxXxXxXxXxXxXxXxXxXxXxXxXxXxXxXxXxXxXxXxXxXxXxXxXxXxXxXxXxX;XH n ; ; ; ; > 1 e y + .                         ",
"                j f.#X@X4.<.:.*.%.+./ / / hXxXxXxXxXxXzXcXzXcXzXzXzXcXzXzXzXzXzXzXzXzXzXlXzXzXlXzXzXzXzXcXxXxXxXxX1XY n n ; ; ; ; > 9 y 7 . .                       ",
"                i.$XP.L.<.2.*.%.%./ / ! Y hXxXcXxXjX,X>X>X>X>X[.[.[.[.[.].].(.].W.(.(.(.(.(.(.(.(.(.W.(.[.iXxXxXcX8XY m n n n ; ; J < e y & .                       ",
"              h  X#XL.4.2.;.*.+./ / / Q Y hXxXxXxX5Xc.n.b.b.b.x.x.z.l.l.l.k.j.j.j.j.j.j.j.j.j.j.j.j.j.j.j.W.xXxXxX8X! M n n n n ; ; > 9 y 7 . .                     ",
"              i.Q.T.L.<.:.*.%.+./ / Q Q I hXxXzXxXaX[.].[.(.(.(.(.W.W.W.W.W.W.R.R.R.R.R.R.R.R.R.R.I.R.I.R.4XxXxXxX8XT M M n n n n ; : < e y + .                     ",
"            h f.T.L.<.:.*.%.+./ / Q Y I G hXxXzXzXxXxXxXcXxXxXxXxXzXxXxXxXzXzXxXxXzXxXxXxXxXxXzXxXxXxXxXxXxXxXzXcX8XT C M M M n n ; B , 9 u 7 . .                   ",
"            h Q.T.t.2.>.*.+.+./ / Q Y G F hXzXzXzXxXxXxXxXxXxXxXxXxXxXxXxXxXxXxXxXxXzXxXxXcXxXxXzXxXxXxXxXxXzXzXxX8XW C A M M n n n B : < y e . .                   ",
"            i.f.u.<.:.;.%.o.X./ Q Y I G F tXzXzXxXaX>X>X>X>X>X[.[.].].].].].].^.W.(.W.(.(.W.(.W.W.(.^.^.(.7XxXcXcX8XQ A A M M M m n B : < r u & . .                 ",
"          h s.T.t.2.;.&.+.X./ Q Q I G F D hXzXxXxX5Xc.n.n.b.x.x.z.z.l.l.k.k.j.j.j.j.j.j.j.j.j.j.j.j.j.j.j.W.xXcXlX8X! A A M M M m m N B > ( u 7 . .                 ",
"          k d.P.,.:.;.%.+./ / Q I G G D D hXcXlXzXuX>X(.].].(.W.].^.^.W.W.W.R.~.R.R.R.R.R.R.R.R.R.R.R.I.~.4XxXzXlX9X! A A M M M m N N B > 1 y r . .                 ",
"          0.T.y.,.>.&.+.X./ Q Q I G F D A tXkXlXlXzXlXkXkXkXlXlXkXkXkXkXkXkXkXkXkXkXkXkXlXlXjXlXlXkXkXkXkXzXlXlXkX8X! A A A A M m n N N B < e u O . .               ",
"        f 0.s.t.:.*.#.+./ ! Q Q G G D D A hXkXlXlXzXxXxXxXxXxXxXxXxXxXxXxXxXxXxXxXxXxXxXxXxXxXxXxXxXxXxXxXxXlXzXzX9X! S A A A C m m n N : , e y & . .               ",
"        d g.u.r.>.*.+.+./ Q Q I I G D A A dXkXkXlXaX>X(.(.(.(.(.^.W.^.~.W.R.R.R.I.I.R.R.R.R.R.I.R.R.R.I.R.7XzXaX7X-X! S A A C C m m n N : , 9 y 3 . .               ",
"        d s.y.r.>.&.#.X./ ! Q G G G D A A dXkXkXzX,Xm.N.N.N.m.M.M.c.x.z.z.z.l.l.l.l.l.l.l.l.l.l.l.l.l.l.j.^.jX7X3X5X..S A A A M m m n n ; > 8 u 6 . .               ",
"        d s.y.,.=.%.+./ / Q Q I G D D A A eXkXkXlXuX(.(.(.(.^.^.~.W.W./.R.I.R.I.U.I.I.U.U.I.U.I.U.I.I.U.^.6XgX6X6X3X*X! A A A M m n n ; ; > 8 y r . .               ",
"        g s.y.,.=.%.o./ ! Q Y I G F A A A rXjXkXkXkXjXjXkXjXjXjXjXjXjXjXjXjXjXjXjXkXjXjXjXjXjXjXjXjXkXkX.X0.aXiX7X6X6X*XI A A C M m n n ; > 1 y r . . .             ",
"        d s.r.,.%.#.+./ Q Q I I G D A F A dXjXjXkXkXzXkXzXzXcXlXzXzXzXzXzXzXzXzXzXzXzXzXzXzXzXzXzXzXxX5X` @ i.gXiX7X6X3X*XG A M m m n n ; > 1 e e . . .             ",
"        d T.r.>.&.+./ / ! Q Y G G F F A A rXfXjXkXdX[.(.(.(.(.^.].~.~.~.~./.I.I.I.I.I.I.I.I.I.I.I.I.R.V.D.] * i.gXiX7X7X3X*XF A M m n N ; : 1 y e . . .             ",
"        d s.w.=.$.+.X./ ^ Q I I G G F A D rXfXkXjX,XB.B.B.B.N.m.m.M.M.c.c.c.x.z.z.x.z.z.z.x.z.z.x.b.V.G.S.A.] * d.gXiX7X3X3XL.C m n n n ; > 1 e e . . .             ",
"        d s.w.=.$.+.X./ ^ Q I I G F F A A rXsXjXkXyX(.(.(.(.(.^.~.~.R.R.I.I.I.I.I.I.I.I.U.U.I.R.Y.V.G.S.C.Z.A.] = a.fXiX7X6X,XA M M m n ; : 1 y e . . .             ",
"        s s.w.=.$.o.X.~ Q Q Y I G G F F F rXsXsXsXjXjXjXjXjXjXjXkXjXkXjXkXkXjXjXjXkXjXjXkXkXzX7X!.G.S.C.C.A.F.A.] * d.aXiX6XL.C M m n N B > 8 y r . . .             ",
"        s p.w.=.#.o./ / ! Q Y I I G G F D rXsXsXsXsXsXjXjXsXsXsXsXfXfXfXsXsXsXsXsXsXjXsXfXjX4X!.D.S.C.Z.A.A.C.F.A.` *  XaX@XA A M m N N B > 8 u q . . .             ",
"        s q.w.=.#.o.X./ ! Q Y I G G F F D rXsXsXjXwX(.^.(.^.^.E.W.~.I.I.I.I.U.U.U.U.U.U.U./.V.G.S.C.A.D.S.A.A.C.Z.Z.6 @ L.A A A m m n N ; > 9 u 6 . . .             ",
"        $ 9.p.-.$.O.O.! Q Q I I I G G F F rXaXsXjX,Xm.N.N.N.n.M.c.x.x.z.z.z.l.l.l.l.k.l.x.M.G.S.C.Z.D.D.D.S.C.C.C.F.K.{ F A A M M m n N : , w y 3 . . .             ",
"        % g p.-.$.o.O.~ Q Q Q Q I I G G F wXaXsXsX4X(.^.^.^.^.~.~.~.R.R.R.I.I.I.U.I.I.Y.V.H.D.Z.Z.G.D.`.D.D.C.C.C.C.).I A A C M m n N N : K r y & . . .             ",
"          g p.-.@.@./ / Q Q I I I I G G F wXaXaXaXsXjXjXjXsXjXsXjXjXfXfXjXjXsXjXjXjXdX'.G.S.Z.Z.`.`.`.`.D.C.C.C.C.Y.Q A A A C M m n n B : < y e O . .               ",
"          5 q.e.@.o./ ~ Q Q Q Q I I G G G wXaXaXaXaXaXaXaXsXsXsXaXaXaXsXaXaXaXsXaXsX+Xf.S.A.Z.`.`.`.`.D.C.C.A.C.!.&XY A C A C M n n N B > 9 y w . . .               ",
"          $ 9.q.-.o.O.~ ^ Q Q Y Y I G G G wXaXaXaX4X[.(.(.(.(.^.^.~.~.W././././.U.R.z b }.S.`._._.`.`.Z.C.A.C.!.4X8XQ A C A M M M n N B , w y 6 . . .               ",
"          # a q.-.@.O.~ ! Q Q Y Y I G G G wXuXaXaX,Xm.m.M.m.b.x.x.z.z.z.l.l.j.j.v.7.x XXoX{._._.'.`.S.C.A.Z.Y.7XsX:XQ A C C M M N N N > < e y & . . .               ",
"            % q.| { O.~ ^ Q Y Y Y G G G F wXyXuXaX4X(.(.(.(.(.^.^.^.~.^.~.~././.I.z c +XOXvX,X_._.S.C.C.Z.V.4XjXuX=XQ M C C M M N V B > 8 u 9 . . . .               ",
"            # 5.7.-.} ~ Q Q Y Y Y I G F F wXiXiXuXaXaXsXaXaXaXaXaXaXiXaXaXaXaXgX:Xz c XXOXOXvX{.Z.C.C.C.V.4XfXiXuX=XQ A M M M m N N : < e u 6 . . .                 ",
"            o a 7.| { ~ ^ T U Y Y G G F D wXuXiXiXaXaXaXaXaXaXaXaXaXaXaXaXaXsXsX0.l x XXXXoXOXoXY.A.S.V.4XlXuXuXpX=XT M M M m n N ; > 1 y e + . . .                 ",
"              # 5.7.{ ~ ^ T Y I I G G F D 4XuXuXiX4X(.^.^.^./././.I.I.I.U.U.!.U.5 O k b XXXXoXoXbXY.K.B.W.,XaXuXyX=XT m M M n n N : < w y 6 . . . .                 ",
"              o i 5.| _ E T U Y I G F F D wXuXuXiX>XN.B.m.m.m.b.b.x.x.z.z.v.z. .# s s k c XXb c x h.x.l.j.I.gXuXyX=XT V m m n N ; > 1 y e & . . .                   ",
"                # [ 7.{ E T U U G F D F D <XyXuXuX4X(.(.^.^.^.^.~././././././.a # s f - l v x |.f.R.U.U.I.5XiXuXyX=XT m V N N N J < w y 6 . . . .                   ",
"                X 4 5.[ _ U U U S S F S A 4XyXuXyXiXiXyXyXyXyXyXyXyXyXyXyXiX:X5 $ 5 $ % 5 |.9XpX7XyXyXyXpXpXpXpXyX=XR n n N ; : , 9 y w + . . .                     ",
"                  o i 5.[ E U F S S A A A %XyXyXyXyXiXuXuXuXuXiXuXuXuXuXuXaX.X# # - h #X2XwXyXyXiXuXuXuXuXpXpXpXyX@XH n N ; ; > 1 e y 3 . . . .                     ",
"                    o 8. ._ P L S A A C A %.wXyXyXyXyXyXyXyXyXyXyXyXyXyXuX4Xg % 3.:XyXiXiXiXyXyXyXyXyXyXpXpXyX7XwX$.n n N : > < r u 6 . . . .                       ",
"                    X 4 6.[ ) L L C S C A A 4.yXwXyX4XyXyXyXyX4XyXyXyXyXpX<X.X:XiXyXyX4XyX4XyXyXyXyXyX7XwXyXyXyXL.V n ; : : < 9 u ) 2 . . . .                       ",
"                      X 7 8.] ( L Z S C C M S #.%X<X<X<X<X<X<X<X<X<X<X<X<X<X2X<X<X<X<X<X<X<X<X<X<X<X<X<X<X<X%X#.N N ; ; : < 9 y e 2 . . . .                         ",
"                        X 7  .] K L Z Z V C M M C C C C M M A M A M C C A C C A A M C C A C A A M M M M n n n N N ; ; : , 9 y e 3 . . . .                           ",
"                          . 7 ' ] P J Z V V N V M M M M M M A M M M M M M C C M A A M A M C C M M M M M n n n ; ; ; > < 9 y e 2 . . . .                             ",
"                            . 7 ' ` ( J J Z V V m m m M M M M M M M M M M M M M M M M M M M M M M m n n n n ; ; : > < w y e = . . . . .                             ",
"                              . 4 ' ` ( J J : N N N V N N m m m n n n m m m m m m M M M M M n n n N N N N ; ; : , 1 e y e = . . . . .                               ",
"                                . 3 ' ` ` K > J B V N N n n n n n n n n m m n n m m m m M n n n n N N B ; : > < 9 e y w 2 . . . . .                                 ",
"                                  . 2 7 ` y ( K , J ; N ; N N n n n n ; n n n n n n n n n n N N N B ; : > , 8 e y y 6 & . . . . .                                   ",
"                                    . . 4 u u e 8 < > > : ; ; ; ; ; ; ; n ; ; n n ; n m N N B B B : > , 8 w e y 9 3 . . . . . .                                     ",
"                                      . . + 7 u u e ( < , > > : : ; ; ; ; ; ; N ; ; B ; : B > > < K 8 w y y e 6 + . . . . .                                         ",
"                                          . . 2 q u u y r 9 1 < , , > > > : > > : ; > , , < 1 8 w e y u e 6 & . . . . . .                                           ",
"                                            . . . + 7 y u u y e e 9 8 8 1 1 1 1 1 1 8 9 w e e u y y w 6 + . . . . . . .                                             ",
"                                                . . . . & 6 r y y y y y y y y e y y u u u y e 0 6 & . . . . . . . .                                                 ",
"                                                    . . . . . O & 3 6 q r e e e r r 0 6 3 & O . . . . . . . . .                                                     ",
"                                                        . . . . . . . . . . . . . . . . . . . . . . . . . .                                                         ",
"                                                              . . . . . . . . . . . . . . . . . . . .                                                               ",
"                                                                        . . . . . . . . . .                                                                         ",
"                                                                                                                                                                    ",
"                                                                                                                                                                    ",
"                                                                                                                                                                    ",
"                                                                                                                                                                    ",
"                                                                                                                                                                    ",
"                                                                                                                                                                    "
};
