/* XPM */
static char *udxju_eu5jo[] = {
/* columns rows colors chars-per-pixel */
"82 82 244 2 ",
"   c None",
".  c #000C0E",
"X  c #000E10",
"o  c #001214",
"O  c #00171A",
"+  c #00252A",
"@  c #022E38",
"#  c #2C2D32",
"$  c #1E1D23",
"%  c #003B44",
"&  c #03364A",
"*  c #052E40",
"=  c #373B44",
"-  c #01434C",
";  c #084A54",
":  c #364953",
">  c #04596C",
",  c #006473",
"<  c #036978",
"1  c #00606E",
"2  c #376773",
"3  c #585E60",
"4  c #5A4C33",
"5  c #BCA369",
"6  c #CCAB69",
"7  c #E4B96E",
"8  c #CB9F51",
"9  c #E3C27B",
"0  c #170F86",
"q  c #170F88",
"w  c #180F8C",
"e  c #161383",
"r  c #161B83",
"t  c #18118E",
"y  c #181689",
"u  c #1B1292",
"i  c #1B1B94",
"p  c #201795",
"a  c #231A97",
"s  c #261E98",
"d  c #20198B",
"f  c #162383",
"g  c #152B83",
"h  c #17278B",
"j  c #153485",
"k  c #153B84",
"l  c #15378A",
"z  c #1A2795",
"x  c #183A97",
"c  c #2B239B",
"v  c #28289B",
"b  c #30279D",
"n  c #332B9E",
"m  c #322C97",
"M  c #2B359E",
"N  c #362EA0",
"B  c #3B33A2",
"V  c #3837A3",
"C  c #2D38A0",
"Z  c #423BA6",
"A  c #154C8A",
"S  c #154687",
"D  c #15538B",
"F  c #155B89",
"G  c #155895",
"H  c #174A96",
"J  c #15678C",
"K  c #007A8C",
"L  c #007485",
"P  c #16758C",
"I  c #156796",
"U  c #157B94",
"Y  c #00728F",
"T  c #2E7788",
"R  c #1A57A2",
"E  c #3747A7",
"W  c #2C50A7",
"Q  c #1870A6",
"!  c #3270B2",
"~  c #3D5A91",
"^  c #4542A8",
"/  c #4B44AA",
"(  c #4A49AB",
")  c #524CAD",
"_  c #4954AD",
"`  c #5551AE",
"'  c #5C58AC",
"]  c #5A55B1",
"[  c #5D5AB3",
"{  c #5556B1",
"}  c #4C5AB0",
"|  c #625EB5",
" . c #4869B4",
".. c #5865B6",
"X. c #5178BA",
"o. c #6462B7",
"O. c #696BBA",
"+. c #6974BD",
"@. c #7377BE",
"#. c #6F7F89",
"$. c #737BC1",
"%. c #6B7EC0",
"&. c #00869A",
"*. c #15849B",
"=. c #168599",
"-. c #348896",
";. c #068DA5",
":. c #158BA3",
">. c #1488A7",
",. c #0195AB",
"<. c #019BAE",
"1. c #0991AB",
"2. c #1595AB",
"3. c #019DB4",
"4. c #0A9AB5",
"5. c #1599B5",
"6. c #1889B3",
"7. c #3296AF",
"8. c #00A2BA",
"9. c #08A4B9",
"0. c #14A4BA",
"q. c #33A1B1",
"w. c #508D96",
"e. c #6E8E98",
"r. c #5488B8",
"t. c #6D96A7",
"y. c #57ABB7",
"u. c #72ABB5",
"i. c #7BA596",
"p. c #018BC9",
"a. c #078CC9",
"s. c #0D90CB",
"d. c #1593CD",
"f. c #1B96CE",
"g. c #1F98CF",
"h. c #0791D4",
"j. c #2399CF",
"k. c #299CCF",
"l. c #2B9DD1",
"z. c #259AD0",
"x. c #359ECA",
"c. c #04ACC2",
"v. c #15ABC2",
"b. c #05B7CB",
"n. c #16B6CA",
"m. c #05BDD1",
"M. c #14B2D6",
"N. c #34A3D4",
"B. c #33AFD1",
"V. c #02ACE4",
"C. c #05ADE8",
"Z. c #01B3EA",
"A. c #0AB6EA",
"S. c #18B9EC",
"D. c #00BAF2",
"F. c #25BCEC",
"G. c #35BBEA",
"H. c #5291C5",
"J. c #7787C5",
"K. c #7998CA",
"L. c #688EC5",
"P. c #5CB5DE",
"I. c #57B5DA",
"U. c #4AADD0",
"Y. c #62B7DE",
"T. c #64B8DF",
"R. c #67B7D8",
"E. c #78B9D7",
"W. c #76AACD",
"Q. c #51B7E2",
"!. c #65B9E0",
"~. c #6CBCE1",
"^. c #62B7E0",
"/. c #72BEE2",
"(. c #0AC4D6",
"). c #1AC5D7",
"_. c #28CADB",
"`. c #36C8D8",
"'. c #38C5F3",
"]. c #33CDE7",
"[. c #52C8D8",
"{. c #71CBDC",
"}. c #4AD7E4",
"|. c #5ADAE6",
" X c #4BC6EF",
".X c #75C0E2",
"XX c #7BC2E4",
"oX c #7BCCE0",
"OX c #67DBE7",
"+X c #77D9E5",
"@X c #7AE1EB",
"#X c #69E1EA",
"$X c #A8A98E",
"%X c #8CA7B5",
"&X c #8B9DA9",
"*X c #EED094",
"=X c #E7D6AC",
"-X c #F4E1B5",
";X c #D2D2AF",
":X c #8D98D2",
">X c #8CB3D8",
",X c #AFB3DC",
"<X c #8CB0E5",
"1X c #ADBCE3",
"2X c #B3BDE3",
"3X c #A19FD0",
"4X c #B1CBD9",
"5X c #84C8E5",
"6X c #82DAE8",
"7X c #97CEEC",
"8X c #B5CCEB",
"9X c #BEC3E6",
"0X c #B8D7EB",
"qX c #A1DAFD",
"wX c #B8DCF2",
"eX c #A9D3EF",
"rX c #83E2EC",
"tX c #B8E2FB",
"yX c #AFE1FD",
"uX c #83C4DC",
"iX c #C5C7E6",
"pX c #DEDDEF",
"aX c #D7D6EC",
"sX c #C8DBF2",
"dX c #DBDEF1",
"fX c #E0DFF0",
"gX c #C4E5F8",
"hX c #C9E7F9",
"jX c #CBEAFB",
"kX c #C6E6F7",
"lX c #D4ECFB",
"zX c #DBEFFB",
"xX c #D6E4F4",
"cX c #DDF2FD",
"vX c #D7F5FF",
"bX c #E4E7F4",
"nX c #E3F3FC",
"mX c #EAF5FC",
"MX c #EEF7FB",
"NX c #F3FAFE",
"BX c #FDFEFF",
"VX c #F3F4FA",
"CX c #DFE3C9",
"ZX c #DFBE83",
/* pixels */
"                                                                                                                                                                    ",
"                                                                                                                                                                    ",
"                                                                                                                                                                    ",
"                                                                                                                                                                    ",
"                                                                  2 -.w.7.q.q.7.q.=.-.T 2 ;                                                                         ",
"                                                          w.y.[.}.}.}.}.|.}.}.}.}.`.]._.).).v.;.< -                                                                 ",
"                                                    w.U.OX|.|.|.OX[.I.I.U.U.U.y.x.U.B.B.B.`._._._.(.&.< @                                                           ",
"                                                y.{.#XOXOX{.R.H.H.r.X.X.X. . .!  . .! ! ! 7.7.k.n._.).(.b.K -                                                       ",
"                                            u.OX#X+X{.R.W.L.L.X.X... .} _ _ _ ( E E E E E W W W Q ! f.M.).(.b.K %                                                   ",
"                                        t.OX#X+X{.R.L.L.X.....{ ' ` ( ( ^ Z V ^ V V V V C C M x W H R Q 6.v.).(.c.<                                                 ",
"                                      u.#X@XoXW.K.L.%...[ { { ) ( ^ Z ^ Z Z Z B B N C N b v v v z z z x H Q 6.v.).m.&.-                                             ",
"                                  e.+X@X+XE.W.t.%.O...[ { ` / / Z Z Z B B B N n b b N c c c s s a a i i z x H Q 5.n.(.b.,                                           ",
"                                u.+X@XuXW.K.$.$.o...[ { ) / Z Z Z B B n N N n n b b b v c c s a a p u u i h z x G Q 0.).m.K                                         ",
"                              u.@X6XXXW.J.$.O.o.[ [ ` / / Z Z B B n n n b n b b b b c c c c s a p u u u t y y h l H I 5.n.(.&.                                      ",
"                            u.@X6X5XK.J.%.$.o.| ] ` / Z Z B B n n b b c c c c c c c c c c c a a a u u u t t y y y h x G >.n.m.&.                                    ",
"                          u.rX6XE.K.J.$.O.| [ ] ) / / Z Z B n n c c s s c s c s c s s c s s a a i u u u t w y y y r f j G >.n.m.;.                                  ",
"                        u.rX6X>XW.J.$.o.| [ ` ) / Z Z B B m b c s c s a s s s s s s s s s s a a a u p u t q q q y e e f j G >.v.m.&.                                ",
"                      t.rX6X>X:XJ.$.$.| ] ` ) Z Z Z B n n b c c s a a a a a a a a a s s s s a a p p u u t q w q q e 0 w r l G :.n.m.K                               ",
"                      +XrXoXK.t.$.O.| [ ] Z Z $.,XfXfXfXfXfXfXpXfXfXfXpXpXpXfXpXpXpXfXfXpXpXfXpXpXdXdXdXfXaX3X/ t 0 & w r f l G 2.n.b.,                             ",
"                    E.rXuX>XK.@.$.| ] ` Z Z :XBXBXBXBXBXBXBXBXBXBXBXBXBXBXBXBXBXBXBXBXBXBXBXBXBXBXBXBXBXBXBXBXVX@.d u w e r g k I 5.b.3.-                           ",
"                  t.@X6X>X:X@.$.o.[ ] ) Z O.BXBXBXBXBXBXBXBXBXBXBXBXBXBXBXBXBXBXBXBXBXBXBXBXBXBXBXBXBXBXBXBXBXBXVX' 0 0 e & p a S U v.m.;.                          ",
"                  +XrXuXJ.@.$.| | ` ) Z Z iXBXBXBXBXBXBXBXBXBXBXBXBXBXBXBXBXBXBXBXBXBXBXBXBXBXBXBXBXBXBXBXBXBXBXBX3Xd 0 0 e e y g G >.n.b.<                         ",
"                u.rX5X>XJ.$.$.| ] ) Z Z Z bXBXBXBXBXNXBXNXNXNXMXNXVXNXNXNXNXMXMXNXMXNXNXMXMXNXNXMXNXNXNXNXBXBXBXBX9Xm e 0 0 0 r f k I 5.b.<.%                       ",
"                +X6XE.J.$.$.| | ] Z Z B b bXBXVXBXnX7X5X5X5X5X5XoXXXXXXX.X.X.X.X.X.X/./..X.X.XR./././.T.XXhXBXBXBXiXn 0 0 0 0 e y g A *.v.b.K                       ",
"              u.@X5XW.J.$.| ] [ Z Z Z Z b bXBXBXBXeXg.k.l.z.j.f.f.d.d.s.s.a.a.p.p.p.p.p.p.p.p.p.p.p.p.p.p.R.BXBXVXiXn q q q e e e f l I 2.b.3.-                     ",
"              +X@XE.K.@.$.| ) Z Z Z N c c bXBXNXBXlXXX.X/./.E.~.E.T.~.T.T.T.T.Y.Y.P.Y.Y.Y.Y.Y.Y.Y.Y.Y.Y.T.wXBXBXBXiXB w w q q 0 e r f A >.v.b.L                     ",
"            t.@X6XK.t.$.o.[ ] Z Z N N c s bXBXNXNXBXBXBXVXBXBXBXBXNXBXNXBXBXBXBXBXBXBXBXBXBXBXNXBXNXBXNXBXBXBXNXBXiXn w w w q q e r f k I 2.b.3.@                   ",
"            E.@X/.J.$.| | [ Z Z Z N b s a bXNXNXNXBXBXBXBXBXBXBXBXBXBXBXBXNXBXBXBXNXBXBXBXNXBXBXBXBXBXBXBXBXNXNXNXiXB w u w w q e y y h A :.v.8.,                   ",
"            +X+XW.J.$.] ) Z Z Z N c c s a fXNXNXBXlX5X5X5X5X5X/.XXXXXXXX/./.~./.R..X~.~..XR./.R.T.R./.~./.tXBXVXVXiXN u w t w w q e e f S U 5.b.&.O                 ",
"          t.#XoXK.$.$.[ ) ) Z N b c s a p bXNXBXBXeXg.k.z.j.f.f.d.d.s.s.a.a.p.p.p.p.p.p.p.p.p.p.a.p.p.p.p.!.BXNXMXiXB u u t w w q e e f l J 2.b.8.%                 ",
"          y.@X{.K.%.] ` ) Z Z N b c a a p bXVXMXNXhXuX.X/.XX/./.~.~.T.R.T.T.T.T.P.Y.T.T.^.^.Y.Y.Y.Y.^.Y.T.wXBXNXMXiXB u u t w w q 0 e r h D :.v.8.1                 ",
"          {.@XE.L.%.] ) Z Z Z N c s a p u fXmXMXMXNXMXmXmXmXMXmXMXMXmXmXMXmXmXmXmXmXmXmXmXmXmXmXmXmXmXmXmXNXmXMXmXiXB u u u t w q q e y f S U 0.c.&.o               ",
"        2 OX+XW.%.o.] ) Z Z N b s s a p p xXNXmXmXNXBXBXBXBXBXBXBXBXBXBXBXBXBXBXBXBXBXBXBXBXBXBXBXBXBXBXBXBXmXNXNXiXV a u u u w w q 0 e f k I 5.c.,.+               ",
"        e.OX{.L.+.o.` / Z B N c s a p u u xXmXmXNXxX5X/./././././.!.~.T.T.T.T.T.P.P.Y.Y.Y.Y.P.P.T.P.T.P.T.tXBXlXtX2XB u u u u w q q 0 e f j J 2.c.8.-               ",
"        w.#X{.L.+.[ { / Z B b v s s a u u pXmXmXMX7Xl.N.N.l.l.j.j.j.f.f.d.d.s.s.s.s.s.s.s.s.s.s.s.s.s.s.p.!.nXyXqXeX^ u u t u w w q e e r j F :.c.8.;               ",
"        y.#XR.L.O.} ) Z Z N N c s a p u u xXnXmXmXjX/./././.~.~.T.T.T.T.Y.P.P.P.I.P.P.P.P.P.I.P.I.P.P.I..XyXvXtXyXqX<XV u u u w q 0 0 e r g D :.0.8.<               ",
"        y.OXR.L...[ ( ^ B N c c s a u p u xXnXnXmXmXnXnXnXnXnXnXnXnXnXnXnXnXnXnXnXnXnXnXnXnXnXnXnXnXnXmX&Xe.cXjXtXyXqX<Xb u u w w q 0 0 r g D =.0.8.L .             ",
"        y.OXR.L...{ ( Z B N b c s a p u u xXnXnXnXmXNXNXNXVXVXNXNXNXNXNXNXNXNXNXNXNXNXNXNXNXNXNXNXMXBXeXT + t.cXvXtXyXqX<Xs t t q q 0 e r g S *.0.8.K o             ",
"        y.OXR.H...` ( Z B n c s s a u p u xXnXnXmXhXXX/./././.~..X!.!.!.!.P.P.P.P.P.P.^.P.P.P.P.P.P.Y.G.S.Y * t.vXjXtXtXqX<Xs u q q 0 e e g A U 5.3.&.o             ",
"        y.OXR.%.[ ` Z Z N N b c s a a u u aXnXnXmX7XN.N.N.N.N.l.l.z.j.j.g.f.f.f.d.d.f.d.d.d.d.d.f.z.N.F.A.Z.Y & u.vXjXwXqXqXK.w q 0 0 e e g A U 5.8.&.o             ",
"        y.OXI.r.{ _ ^ Z B N c c s a p p p dXzXnXnXgX/././.~.~.~.!.!.T.T.P.P.P.P.P.P.I.P.P.P.P.^.U.B.F.A.C.Z.Z.Y & %XcXjXtXyX7Xu w w 0 e e g A *.5.3.&.O             ",
"        y.|.I.+...` / Z B b N c s s a a p sXzXzXzXnXmXmXnXnXmXnXmXnXmXnXmXnXmXmXnXmXmXnXmXnXmXwXQ.F.A.V.V.C.D.Z.Y & u.vXjXwXJ.t w q q e r g D =.4.3.&.O             ",
"        w.|.R.r...( / Z B N c c c s a a i dXzXzXzXzXzXzXnXzXzXzXcXcXcXzXzXzXzXzXzXzXzXzXzXnXwXQ.S.D.V.C.Z.Z.Z.Z.Z.F @ %XjX:Xu u w q e e r g F =.4.8.K o             ",
"        w.|.[.r...( / Z N N b c c s a a a sXzXzXnXhX/./.~.~.~.!.T.^.P.P.P.P.I.I.I.Q.I.I.I.R.G.F.A.C.Z.S.A.Z.C.V.C.C.> * J.u t u q q e e r j F =.4.8.L .             ",
"        -.}.[.r..._ Z V N N N c c s s a s sXzXzXzX7Xk.l.l.l.l.z.j.f.f.d.d.d.s.s.a.s.s.s.d.l.F.A.C.C.S.S.S.A.C.V.V.D.V.~ s u w w w q 0 e f j J :.9.8., .             ",
"        2 [.[.H. ._ ^ B N N b c c s s s a sXlXzXzXsX/././.~.~.!.T.T.^.Y.Y.P.P.P.P.P.^.U.G.F.A.C.C.F.'.S.S.A.V.V.C.V.H.s u u t w q 0 0 e f S J :.9.8.> .             ",
"          U.}.U. .} ^ B N N N s b c s s s sXlXlXlXzXnXzXnXnXnXzXnXnXnXnXzXnXzXnXnXnXxX XF.A.C.C.F.'.F._.S.V.C.C.V.U.N u u u t t q 0 e r f A P 2.3.8.-               ",
"          q.|.U.X.} ^ Z N N N c N s s s s sXlXlXjXlXzXzXlXlXzXzXlXlXlXlXlXzXlXzXlXzX;Xu.A.C.C.G.'.'.F.S.C.V.C.C.Q.,XN u u t t w q e e r g D U 5.<.,.+               ",
"          -.}.[.r.W ^ V V N N b s s s s s sXlXlXlXwX/././././.~.~.~.~.T.^.P.^.^.P.R.$X7 [.A.'.'.'.'.F.C.V.V.V.Q.tX9XN u t u w w t e e u l J =.4.8.&.o               ",
"          : `.}.H. ._ V B B N b N b s s s sXjXlXlX7Xl.l.k.z.j.f.d.d.d.s.s.s.h.p.h.-.6 *X=X+X'. X'.'.C.C.Z.V.Q.wXcX1XN u t t w w 0 0 & a S I :.<.8.< .               ",
"            q.}.B. .E V V n b b c s s s s sXjXlXlXwX/././././.~./.~.~.T.^.~.^.^.^.$X7 *X-X-X+X'.'.C.V.C.V.U.wXnXkX1XN t t w w q 0 r r j D =.6.,.3.- o               ",
"            -.`.[.7._ E V N N c N s s s a sXhXhXhXlXzXzXlXlXlXlXlXlXjXlXlXlXlXlX4X8 7 =X=X-XCX+XC.V.V.C.G.wXzXjXkX2Xn t t w w q 0 e f l J =.4.3.&.+                 ",
"            ; `.`.y. .E V N b c b s s a p wXhXjXhXlXzXlXlXlXzXxXlXlXlXlXjXlXzXnXe.4 6 *X*X=X-X-XI.Z.C.Q.0XnXjXhXkX1Xn w w w q 0 u u h A U :.<.8.< .                 ",
"              -.].`.! W C C b c c s a a a sXhXhXlXeX/.!.!.!.!.^.Y.P.P.P.P.P.Q.U.= $ 3 7 *X*X=X=XZXU.M.N.P.7XlXhXkX1Xn t w q q e & f j F =.1.3.<.% o                 ",
"              ; ).`.x.! E C b c c s a p p sXgXjXjX5XN.N.N.l.l.z.j.f.f.d.d.s.h.Q # = : #.9 *X9 7 6 &X5.s.p.P.lXhXgX1Xm t q q 0 e r g A U >.<.8.K o                   ",
"                =._.B.! W C v c s a p p u wXhXgXjXwX/./.~.~.~.!.^.^.^.^.^.^.^.2 # 4 : 4 4 8 8 $XW.[.I.I.P.qXlXkXgX1Xn q q e e r f k J =.1.,.3.- .                   ",
"                ; B._.B.! C v v s a u a u wXgXgXgXhXhXgXgXgXgXgXkXkXkXgXgXjX8X: # : = # : $X0XsXgXtXgXkXkXhXkXkXtX1Xb 0 0 u w d j F U >.<.8.K o                     ",
"                  < )._.7.R x v i i u u u 3XsXhXgXgXhXgXhXhXhXhXhXhXhXhXjXlX&X$ $ = 3 3X0XjXjXjXjXhXhXhXhXkXgXkXgX:Xp w & u d r S P =.1.3.<.% o                     ",
"                    2._.B.Q x M z i t u u ] gXgXgXgXgXgXgXgXgXgXkXgXgXgXkX0X3 # #.4XgXgXjXkXgXkXgXgXgXgXkXkXkXgXgX' e u r r & M J =.;.;.8.< o                       ",
"                    ; )._.j.Q x z i i t u u J.gXgXgXgXgXgXgXgXwXsXtXgXgXkX0X%X4XjXgXgXwXtXkXgXtXgXgXgXtXsXgXtXgX@.e & u r f l G U :.8.8.&.+ O                       ",
"                      < (.).5.R H z i t t w u ] <X9X8X8X8X8X8X8X8X8X8X8X8X8X0X8X8X8X8X8X8X8X8X8X8X8X8X8X8X8X3X` u w e e f > S U >.,.3.,.- .                         ",
"                        &.(.n.5.R x z y y t y q w w w u u w w u u t t t t t t u w u u u u t u t t t w q 0 0 y e 0 p & f k F U Q ,.,.8.1 o                           ",
"                          &.(.n.6.R x h i y y q t w q w w w w w w w w w w t t w t t w u w u t w w w w q 0 0 0 0 0 & r j F U =.1.,.3.L O                             ",
"                            ;.(.n.5.I x h h y y y q q q w w w w w w w w w w w w w w w w w w w w w q q 0 0 0 r t d s > J U =.;.1.8.K + O                             ",
"                              &.(.n.5.Q G l h y r y e q q 0 q q 0 0 0 q q q w w w w w w q q w q 0 e u w w e & a > l F U *.1.,.8.K + o                               ",
"                                &.m.n.0.Q G l h h r y e e 0 0 0 0 0 0 0 q q w w w q q q q q q 0 0 e u & 0 r f x D P =.6.<.,.3.K + o                                 ",
"                                  K (.b.v.:.I A l h f r r e e e e 0 0 0 0 0 0 u u u q 0 q 0 u u e r r r g j A J U =.;.8.3.3.L + o                                   ",
"                                    , 3.m.n.5.>.I S l g f r r r e e e 0 e 0 & u w & 0 0 e q w & r g g k A J P =.>.1.;.8.,.1 O O                                     ",
"                                      - ;.b.b.v.5.*.I D S j g f f f & y r r e r w 0 y f r f g g j S D J P =.>.;.<.3.8.&.- X                                         ",
"                                          < 3.b.n.v.5.:.I I D S k j z z g g g g f f g j j S S D F P =.=.:.5.3.,.8.,.< + .                                           ",
"                                            % K 3.b.b.v.0.2.:.U P I F D A A A A A A D J J P U =.=.:.6.4.3.<.8.3.K % o O                                             ",
"                                                % K <.8.c.b.v.0.5.2.:.:.=.*.U *.=.=.=.=.:.:.2.6.3.<.,.3.8.<.K - O X                                                 ",
"                                                    @ , ;.3.8.8.c.c.9.v.9.5.5.5.5.5.4.9.3.<.3.3.8.8.3.&., % o X                                                     ",
"                                                        O - 1 &.,.8.8.8.8.8.3.3.8.8.8.8.8.8.8.,.&., - + . o                                                         ",
"                                                              o + % ; , L K K &.&.&.K < < > - + O . o                                                               ",
"                                                                        . o O O o X . . . .                                                                         ",
"                                                                                                                                                                    ",
"                                                                                                                                                                    ",
"                                                                                                                                                                    ",
"                                                                                                                                                                    ",
"                                                                                                                                                                    ",
"                                                                                                                                                                    "
};
