/* XPM */
static char *_eh8h_wab8x[] = {
/* columns rows colors chars-per-pixel */
"82 82 105 2 ",
"   c None",
".  c #00BCBE",
"X  c #02BEC0",
"o  c #06BFE0",
"O  c #04C2C5",
"+  c #08C4C6",
"@  c #02C7CE",
"#  c #0BC6C9",
"$  c #01CACE",
"%  c #0ECACC",
"&  c #11CCCD",
"*  c #1AD2CE",
"=  c #01CDD3",
"-  c #0CCCD2",
";  c #06C2DE",
":  c #05CCDD",
">  c #12CED2",
",  c #03D1D6",
"<  c #0BD4D7",
"1  c #05D4DD",
"2  c #0CD5DB",
"3  c #05D8DF",
"4  c #0CDADD",
"5  c #15D2D4",
"6  c #1AD5D6",
"7  c #1FD9D6",
"8  c #14D7D9",
"9  c #1AD6D9",
"0  c #12DCDF",
"q  c #1DD9DB",
"w  c #32E2CF",
"e  c #2CE7DE",
"r  c #32E5D6",
"t  c #32E6D9",
"y  c #37E9DA",
"u  c #3AECDC",
"i  c #06C0E1",
"p  c #0AC4E5",
"a  c #06CCE2",
"s  c #0EC9E7",
"d  c #0FC9E8",
"f  c #12CCE9",
"g  c #05D5E2",
"h  c #0CD3E6",
"j  c #05DAE2",
"k  c #0BDCE5",
"l  c #0FDDE8",
"z  c #10D3E3",
"x  c #16DEE1",
"c  c #1CDEE2",
"v  c #15D2EA",
"b  c #1AD5EC",
"n  c #14DBEA",
"m  c #1CDBEE",
"M  c #00DFF1",
"N  c #1FDFF2",
"B  c #20DEEF",
"V  c #20DDF0",
"C  c #0FE0E7",
"Z  c #13E1E5",
"A  c #1DE3E6",
"S  c #14E3EA",
"D  c #1CE4ED",
"F  c #1DE9ED",
"G  c #05E1F2",
"H  c #0AE4F3",
"J  c #0EE8F6",
"K  c #00E7F8",
"L  c #02E9F9",
"P  c #0BECFB",
"I  c #13E5F4",
"U  c #16EAF6",
"Y  c #1AEBF7",
"T  c #12EDFA",
"R  c #1DECF8",
"E  c #1FF2F8",
"W  c #29E6E5",
"Q  c #2EE8E2",
"!  c #22E5ED",
"~  c #20E9ED",
"^  c #35EFE4",
"/  c #3DEFE0",
"(  c #3DF1E5",
")  c #33F0ED",
"_  c #3CF4EB",
"`  c #22E4F1",
"'  c #2AE6F4",
"]  c #21EAF0",
"[  c #2BEAF6",
"{  c #23E7F8",
"}  c #21EDF8",
"|  c #2CECF9",
" . c #30EBF7",
".. c #32EEF9",
"X. c #20F1F7",
"o. c #2DF1F7",
"O. c #25F1F9",
"+. c #2DF2FC",
"@. c #32F2F5",
"#. c #3BF7F0",
"$. c #32F6FD",
"%. c #39F5FB",
"&. c #36F8FE",
"*. c #3CFAFE",
"=. c #40FDFF",
/* pixels */
"                                                                                                                                                                    ",
"                                                                                                                                                                    ",
"                                                                                                                                                                    ",
"                                                                                                                                                                    ",
"                                                                  % % 5 % % % % # # + + O O                                                                         ",
"                                                          > 5 8 Z Z Z S S S S S S C C k 4 < $ O X X                                                                 ",
"                                                    5 5 Z Z D F D Z S n n n n n n l l l k k C C 3 , X . .                                                           ",
"                                                6 x F F F D n m b n v v n z v h h v d z h h h h k j k 3 $ . .                                                       ",
"                                            6 A F F D D c b b V v v v v f f f f f s s s f d s a a h g j j 3 , . .                                                   ",
"                                        6 A F ` F D b b b b v f v v f d f f f d s s s s p d p p a p a a g j 3 1 $ .                                                 ",
"                                      q F ` F D b b b b v v b f f f f f f d p f s s s p p p p p p p a i a a g 1 j , . .                                             ",
"                                  9 A ~ F D m m b N b b b f f f f f s d d d f d p s p s d p p p p i p i i i a a 1 j 1 $ .                                           ",
"                                q A ] ` B N b b b b v v f f f f s s s d p d d p p s d p p p p o p o o p i i p ; a : 1 j , .                                         ",
"                              q F ~ ! D m V b b b v b f f f f d s s s d p p p d p p p p p p p p o p o o i i i ; ; a : 1 1 , .                                       ",
"                            q ~ ` ` B V m m b b b f f f f d d s s p p p p p p p p p p p p p p o p o p o o i i ; i ; ; : 1 1 , .                                     ",
"                          q ~ ~ V B m m b b b b f f f f d d p s p p p p p p p p p p p p p p o p p p o o i i i i ; ; ; ; : 1 1 = .                                   ",
"                        q ! ] ` B m V b b b f f f f s s s s p p p p p p p p p p p p o p p p o p o o p o i o i i o ; ; ; ; : 1 1 , .                                 ",
"                      7 ~ ] ` B B m b b b f b f f s s s s p p p p p o p i p i i o p p p o p p o p o p o o o i i o o o ; ; ; : 1 1 , .                               ",
"                      ~ ] ` B B m b b b b b f b  .%.%.%.%.%.%.%.%.%.%.%.%.%.%.%.=.%.%.%.%.%.%.%.%.%.$.$.%.%.' f i o o o ; ; ; : 1 3 $ .                             ",
"                    q ~ ] ` B m b b b f f f V =.=.=.=.=.=.=.=.=.=.=.=.=.=.=.=.=.=.=.=.=.=.=.=.=.=.=.=.*.=.=.=.=.B o ; o ; ; ; ; : 1 , . .                           ",
"                  q ~ ] V V V b b b f f f b =.=.=.=.=.=.=.=.=.=.=.=.=.=.=.=.=.=.=.=.=.=.=.=.=.=.=.=.=.=.=.=.=.*.=.b o ; ; ; ; ; ; : 1 , .                           ",
"                  A ] ! V V b b b b f f d  .=.=.=.=.=.=.=.=.=.=.=.=.=.=.=.=.=.=.=.=.=.=.=.=.=.=.=.=.=.=.=.=.=.=.=.' ; o o o o o : : 1 1 $ .                         ",
"                7 ! ' V V V b b b f f f o %.=.=.=.=.=.*.=.*.*.*.=.*.=.=.*.=.*.*.*.*.=.=.*.*.=.*.*.*.=.%.=.=.=.=.=. .s ; o ; ; ; ; ; : 1 , X .                       ",
"                ! ! B V V b b b f f f d d =.=.=.=.*.O.} O.] } } } R R { R } R R { { Y Y R R R R R R R R } $.=.=.=. .; ; o o o o ; ; : 1 1 = .                       ",
"              q ~ ` N m b b b b f f o f p =.=.=.=.| G H H H H H G G M M M M M M M M M M M M M M M M M M M R =.=.=. .d o o i i i ; ; ; : 1 , . .                     ",
"              A ] ! m m b b f f f f f o p %.=.=.=.%.R R R R Y Y R R R R R R Y Y Y Y U D Y Y Y U Y Y Y Y Y +.=.*.=...d o o o i o o ; ; : g 1 $ .                     ",
"            9 F ! V m m b b f f o b o f p *.=.=.*.=.=.=.=.=.=.=.*.=.=.*.=.*.=.=.=.%.=.=.=.=.=.=.*.=.=.=.*.=.=.=.=...s o o i i i i ; ; ; 1 1 , . .                   ",
"            q ] D B m b b b f f b o f o o %.*.%.=.=.=.=.=.=.=.*.=.=.=.=.=.=.=.=.=.=.=.=.=.=.*.=.=.=.=.=.=.=.*.=.=. .s o i i i o o ; ; ; : 1 g . .                   ",
"            A ` D N V v v f f d o f o o o =.=.=.*.%.} } X.} } } } R } R R { R Y R R Y R Y R R R R R Y Y R $.*.*.*...d o i o i i o i ; ; a 1 g = . .                 ",
"          6 F D N m b v b f f f f o f o o =.%.=.*.+.H H H H H G G G G G M M G G M M M M M M M M M M M M M Y =.=.*...d o i i o i o ; ; ; ; 1 1 , . .                 ",
"          9 F ! m b b b f f f d o o o o o =.=.=.*.&.} R R R R R Y Y Y Y Y Y U U Y Y Y U Y U U Y U Y Y U Y +.=.*.*...d o o o i i i o o o ; : 1 1 . .                 ",
"          c F D m b v f f f d o o f o f o =.=.%.*.=.*.*.*.*.*.*.*.*.*.*.*.*.*.*.*.*.*.*.=.%.*.*.*.*.*.*.*.=.*.=.*...d p o p o i o o ; o ; : 1 1 O . .               ",
"        > A F D b b b f f d d d p p p o i %.*.*.*.*.=.=.=.=.=.*.=.=.=.=.=.=.=.=.=.=.=.=.=.=.=.=.=.=.=.=.=.=.*.*.*.@.d o o o o o i i o ; ; ; 1 1 $ . .               ",
"        5 D D b b b b v f f p p p p p o i $.*.*.*.*.X.R } Y R R Y Y Y Y Y Y Y Y Y Y Y U U Y Y Y Y U U Y T $.*.*.$.| d p p o o p i o i ; ; ; 1 1 = . .               ",
"        5 F D N b b f f f p d p p o o p i %.*.*.*.O.H H H H H H H H H G G G G G M G G M M G M M M M M G G Y *.+.+.O.v o p o o o i i o o ; : : 3 1 . .               ",
"        5 F F b b f f f f d p p p o p i o &.*.*.*.%.} Y } R R Y Y Y Y Y Y U Y U U U Y U Y U Y U Y U Y U Y $.&.+.+.+.} d o o p o o o ; ; ; ; : 1 , . .               ",
"        5 F D n b b f f f p s p p p o p i %.*.*.*.*.*.*.*.*.*.*.*.*.%.*.*.*.*.*.*.*.%.*.*.*.*.*.*.%.*.*.! q &.$.$.+.O.O.d o o o i i ; o ; ; : 1 1 . . .             ",
"        5 F D b b f f f d p p p p o o o o &.*.*.*.*.*.*.*.*.*.*.*.*.*.*.*.*.*.*.*.*.*.=.*.*.*.*.=.*.*.+.j @ A &.$.$.$.O.Y p o o o i o o a ; : 1 1 . . .             ",
"        6 D m b b f f f s s p p o o d o i %.*.*.*.$.E R } R R R R R Y Y Y Y Y U Y U Y Y Y Y Y Y Y Y Y J P j @ D $.$.$.+.+.{ d o i i o o o ; a 1 1 . . .             ",
"        5 F n b b f f f f p d p d d o o o $.&.*.*.+.H H H I H H H H H H G G H G G G G G G G G G G H J P L L g = F &.$.+.+.O.N o o o ; ; ; ; : 1 1 X . .             ",
"        5 F S v v f f f f p p p o d o d o $.&.%.*.$.R Y R Y Y Y Y Y Y Y Y U U U U U U U U U U U J J P L L L L g , F &.$.$.+.+.i i i o ; o ; : 1 1 . . .             ",
"        > D D n v v f f d d p d d o o o o %.&.*.&.*.*.*.*.*.*.*.*.*.*.*.*.*.*.*.*.*.*.*.*.*.*.$.T P L L L L L L g $ ! &.$.+.U i i o i i ; ; : 1 1 . . .             ",
"        > S n b v f f f d p p p o o d d o $.&.*.&.&.*.%.&.&.*.&.&.*.&.&.&.&.&.*.*.&.%.*.&.*.$.I K P L L L L L L L 1 @ ! &.{ i i i i o o ; : : 3 : . . .             ",
"        & S D n v f f d p d s p d o o o i %.&.&.*.$.R R R R Y Y Y Y U Y Y U U U U U U U U Y J P L K L L L L L K L L 1 @ m p o i o o ; o ; ; : 1 , . . .             ",
"        & Z S n v f f f d p d p p p p i p %.&.&.*.} J H H H J H G H G G G G M G M M G G G H P L K K P P L L L K L L L f i p o o i ; o ; ; ; 1 1 = . . .             ",
"        # x D n v f f f d d p p p p p p p $.&.&.*.+.R Y R Y Y Y Y Y Y Y U Y U U U Y T I J P L L L P P P P L L K L L M d i o o o o i o ; ; a 1 1 = . . .             ",
"          8 S n v f d f d p d p p p p p i ..&.&.&.*.&.*.*.&.*.%.*.*.&.*.%.*.&.*.%.*.&.Y P L L L P P L L L L K L L I d o o p p o i i ; ; ; : 1 1 O . .               ",
"          % S n v f f d f d p d p p p p p $.&.&.&.&.&.&.%.&.&.&.$.&.&.&.*.&.&.&.&.&.) F L L L P T P P P K K L K T  .d o o o o o o o ; ; ; : 1 1 X . .               ",
"          # Z S n f f f d s p p p p p p p %.&.&.&.$.} R R R Y R R R R Y U Y Y U U U e u E L P T P T P L L L L T +.o.s o o p o o i ; ; ; ; 1 1 , X . .               ",
"          # 0 S n h h f d p s s p p p p p ..&.$.&.} H H H H H G G G M G K M G M M Z t ( _ E T T T P L L L L I $.*.| s i o i o o i i ; ; : 1 1 $ . . .               ",
"            # S n n d d s s p p p p p p p $.&.&.&.+.R R R R R R R R Y Y Y Y Y Y Y W y ( #.#.E P P L L L L I +.*.$.| d i o i p o ; ; ; ; : 1 1 . . . .               ",
"            # C n h d d s d p s p p p p o +.$.&.&.&.&.&.&.$.&.&.&.&.%.&.&.&.&.&.| r u ( _ _ #.E P K L L T O.*.&.$.| p ; i o o o i ; ; ; 1 1 : . . .                 ",
"            O < C l h d d s p p p p p p i $.$.&.$.&.&.&.&.&.&.&.&.%.&.&.&.&.&.&.c & y / ( _ _ _ I L L J +.*.$.$.$.| p i i o i i ; ; ; : 1 1 $ . . .                 ",
"              + k Z h d s p d p p p p o i $.$.$.&.+.R R Y Y Y Y U U U Y U Y U U % + 7 / ( ( _ _ ^ U H H Y O.&.&.$.| s i i i o i ; ; : 1 1 : . . . .                 ",
"              + 2 C l d d f p p p p p i i $.$.$.&.} H H H H H H H G G G M G K j # % > 7 u u / y r A G G G Y &.$.$.| s i i i i i i ; : 1 1 $ . . .                   ",
"                + k k h d p p p p i p p i $.$.$.$.+.} R R R Y Y Y Y Y Y Y U Y 2 # 5 5 % * r r Q F Y Y U U O.&.$.+.| p i i i i i ; : 1 1 , . . . .                   ",
"                O , j l a a s p p p i o p | $.$.$.$.$.$.$.$.$.$.$.$.$.$.$.$.O.5 % 5 % % > W @.$.$.$.$.$.$.$.$.$.$.[ s o ; o ; ; : a 1 1 = . . .                     ",
"                  X 4 k h d a p i p i p p { $.$.$.$.$.$.$.$.$.$.&.$.$.$.$.&.! + # % 8 ! +.$.$.$.$.$.$.$.$.$.$.$.$.` i o o ; ; ; : 1 1 = . . . .                     ",
"                    + k h h s i i i o o o v +.+.$.$.$.$.$.$.$.$.$.$.$.$.$.$.5 # x | $.$.$.$.$.$.$.$.$.$.$.$.$.$.$.b o o ; ; ; : 1 1 : . . . .                       ",
"                    . , C j g i p p o o o p N $.+.$.$.$.$.$.$.+.$.+.$.$.$.@.! o.$.$.$.+.$.$.$.+.$.+.$.$.$.+.$.$.V i o ; ; ; ; 1 1 1 $ . . . .                       ",
"                      X 1 j j a a i i a i i i v } +.+.+.+.| +.+.+.| | +.+.+.| $.| +.| +.+.| $.| +.+.O.+...+.' v ; ; ; ; ; : : 1 1 = . . . .                         ",
"                        . 1 j g : p i i i i i i i i o i o i o i p o p o o o o o p o i i i o o i i i i i o ; ; o o ; ; ; : : 1 1 = . . . .                           ",
"                          . , k g a a i i i i i i i i i i i i i o o i i o p o i o o o o i i i i i i i i o o ; o ; ; ; ; 1 1 1 $ . . . .                             ",
"                            X , j g a ; a ; i i o i o i o i i o o o o o o i o i o p o o p o o i i i ; i o o ; ; ; ; : 1 1 1 = . . . . .                             ",
"                              . , j 1 a a ; ; ; ; ; o o o o o i o ; o ; o o i ; o i i i o o i i o i o o ; ; ; ; ; : 1 1 1 = . . . . .                               ",
"                                . , j 3 1 a p ; ; ; ; ; i ; o i o ; o o o ; i o o o i o o ; i i o ; ; o ; ; ; : : 1 3 1 = . . . . .                                 ",
"                                  . $ 1 3 1 a a ; a o ; ; o ; o o o o ; o o o o ; o i i o i ; ; ; ; ; ; ; ; : 1 1 1 : $ . . . . .                                   ",
"                                    . . = 3 3 1 : : ; ; ; ; ; ; ; o ; ; o ; ; o o o o ; ; ; ; ; ; ; ; : : 1 1 1 1 = . . . . . .                                     ",
"                                      . . $ , 1 1 1 1 : ; ; ; ; ; ; ; ; ; ; ; ; ; ; ; ; ; ; p ; : : : 1 1 1 1 = $ . . . . .                                         ",
"                                          . . = 1 1 1 1 1 : : : : ; ; ; ; ; ; ; ; ; ; ; : : : : : 1 1 1 1 1 = . . . . . .                                           ",
"                                            . . . $ 1 1 1 1 3 1 1 : : : : : : : : : : 1 1 1 1 1 1 1 1 : $ . . . . . . .                                             ",
"                                                . . . . $ , 1 1 3 1 3 3 1 1 1 1 1 1 3 1 1 1 1 : , $ . . . . . . . .                                                 ",
"                                                    . . . . . O $ = : 1 1 1 1 : 1 1 , : = $ O . . . . . . . . .                                                     ",
"                                                        . . . X . . . . . . . . . . . . X . X . . . . . . .                                                         ",
"                                                              . . . . . . . . . . . . . . . . . . . .                                                               ",
"                                                                        . . . . . . . . . .                                                                         ",
"                                                                                                                                                                    ",
"                                                                                                                                                                    ",
"                                                                                                                                                                    ",
"                                                                                                                                                                    ",
"                                                                                                                                                                    ",
"                                                                                                                                                                    "
};
