/* XPM */
static char *biip0_oi9it[] = {
/* columns rows colors chars-per-pixel */
"82 82 225 2 ",
"   c None",
".  c #000000",
"X  c #0C0C0C",
"o  c #171717",
"O  c #011F22",
"+  c #01353A",
"@  c #082A2C",
"#  c #282828",
"$  c #3C3C3C",
"%  c #333333",
"&  c #023B44",
"*  c #023B46",
"=  c #063F54",
"-  c #16157F",
";  c #161B7E",
":  c #15237D",
">  c #152B7C",
",  c #15347D",
"<  c #153C7C",
"1  c #02444A",
"2  c #054355",
"3  c #054B57",
"4  c #07535C",
"5  c #1D5558",
"6  c #0B4B6B",
"7  c #0A4965",
"8  c #0A546B",
"9  c #0A5967",
"0  c #15447C",
"q  c #154A7C",
"w  c #114F76",
"e  c #0D5472",
"r  c #15537B",
"t  c #155B7A",
"y  c #105776",
"u  c #15566B",
"i  c #15647A",
"p  c #15687B",
"a  c #1C6B76",
"s  c #0B6271",
"d  c #2C6B70",
"f  c #4B4B4B",
"g  c #555555",
"h  c #5B5B5B",
"j  c #496566",
"k  c #6D6D6D",
"l  c #646464",
"z  c #757575",
"x  c #170F86",
"c  c #170F88",
"v  c #180F8C",
"b  c #161283",
"n  c #161A82",
"m  c #171288",
"M  c #18108E",
"N  c #181C8B",
"B  c #1C1393",
"V  c #1C1A93",
"C  c #201795",
"Z  c #221996",
"A  c #261D98",
"S  c #281F9A",
"D  c #172786",
"F  c #173687",
"G  c #1B2792",
"H  c #1A3692",
"J  c #2B239B",
"K  c #282799",
"L  c #30279D",
"P  c #332B9E",
"I  c #29399A",
"U  c #33369F",
"Y  c #2E27A0",
"T  c #342CA1",
"R  c #3027A0",
"E  c #3B33A2",
"W  c #3C3AA3",
"Q  c #3B35AA",
"!  c #3F3AAC",
"~  c #3732A2",
"^  c #3F3CB3",
"/  c #423BA6",
"(  c #413EAD",
")  c #413EB3",
"_  c #174686",
"`  c #175888",
"'  c #1A4493",
"]  c #1E5496",
"[  c #274699",
"{  c #2F569D",
"}  c #166C83",
"|  c #176588",
" . c #187689",
".. c #196492",
"X. c #1C7794",
"o. c #0C7383",
"O. c #287098",
"+. c #3B43A2",
"@. c #3954A2",
"#. c #3C49BA",
"$. c #3B47B7",
"%. c #2D45BF",
"&. c #3B77A3",
"*. c #4342A6",
"=. c #4541AA",
"-. c #4B44AA",
";. c #4D4AAB",
":. c #474CA8",
">. c #524CAD",
",. c #4858A8",
"<. c #5552AF",
"1. c #5459AE",
"2. c #4344B3",
"3. c #444BBB",
"4. c #4648B8",
"5. c #5A55B1",
"6. c #5D5AB2",
"7. c #4A50BF",
"8. c #625EB5",
"9. c #4765A8",
"0. c #5369AD",
"q. c #4778A9",
"w. c #5277AE",
"e. c #5C6AB2",
"r. c #5978B1",
"t. c #6563B6",
"y. c #6C6AB9",
"u. c #6569B6",
"i. c #6875B7",
"p. c #7273BC",
"a. c #747BBD",
"s. c #797CBF",
"d. c #706FBB",
"f. c #467D82",
"g. c #163CCE",
"h. c #153CD1",
"j. c #183FD2",
"k. c #1B43D4",
"l. c #1F49DA",
"z. c #1B48D7",
"x. c #1A40CF",
"c. c #2747CA",
"v. c #334BC4",
"b. c #364CC5",
"n. c #3B54CB",
"m. c #3B53C7",
"M. c #2146D5",
"N. c #264AD5",
"B. c #294CD6",
"V. c #224CDB",
"C. c #2A4FD9",
"Z. c #2651DE",
"A. c #2C52DC",
"S. c #2B51D5",
"D. c #3353D4",
"F. c #3255DC",
"G. c #3958D7",
"H. c #314FD5",
"J. c #2653E1",
"K. c #2A56E2",
"L. c #2C59E4",
"P. c #2F5DE8",
"I. c #325CE4",
"U. c #325CE5",
"Y. c #3463EB",
"T. c #3B65EC",
"R. c #3764EA",
"E. c #3A6CF3",
"W. c #3768F0",
"Q. c #3D71F7",
"!. c #3E73FA",
"~. c #2F60EB",
"^. c #3E61DE",
"/. c #4453C5",
"(. c #4B53C4",
"). c #4355CB",
"_. c #4757CD",
"`. c #435BD4",
"'. c #454FC2",
"]. c #4262DA",
"[. c #7A7FC0",
"{. c #476AE5",
"}. c #4771EE",
"|. c #4175FA",
" X c #467BFE",
".X c #4A7EFE",
"XX c #4874F3",
"oX c #1C8196",
"OX c #27869B",
"+X c #34889B",
"@X c #2D848E",
"#X c #3888A2",
"$X c #3990A2",
"%X c #49949C",
"&X c #51898D",
"*X c #749A9C",
"=X c #688E90",
"-X c #4985AA",
";X c #4A99A9",
":X c #569DAA",
">X c #5A95B1",
",X c #5989B1",
"<X c #6789B8",
"1X c #7584BE",
"2X c #6A97B9",
"3X c #7497BE",
"4X c #779FA0",
"5X c #5EA5B4",
"6X c #58A3AD",
"7X c #79A8AB",
"8X c #67ABB7",
"9X c #75AAB9",
"0X c #7AB2B9",
"qX c #69A2A7",
"wX c #7C8BC1",
"eX c #7B83C0",
"rX c #7D99C2",
"tX c #7CA8C1",
"yX c #7BB6C3",
"uX c #4E81FF",
"iX c #81B4BB",
"pX c #8199C4",
"aX c #82A6C4",
"sX c #82B3C4",
"dX c #84BAC7",
/* pixels */
"                                                                                                                                                                    ",
"                                                                                                                                                                    ",
"                                                                                                                                                                    ",
"                                                                                                                                                                    ",
"                                                                  f $ $ $ $ % % # # # o o o                                                                         ",
"                                                          f g j &X&X%X;X;X;X;X;X;X$X$X@Xd 5 & X X X                                                                 ",
"                                                    g h &X6X8X>X>X>X,X-X-X-Xq.q.q.&.&.#X$X#X@XOXp 4 . . .                                                           ",
"                                                l =X8X8X8X2X<X,Xw.0.0.0.1.,.,.,.@.@.@.@.@.{ { O.X.OXoXo.1 . .                                                       ",
"                                            k =X8X9X2X<Xi.i.e.e.0.1.<.:.;.:.*.*.+./ U +.I I I [ [ ] .. .X.o.3 . .                                                   ",
"                                        l =X8X9X3X3X<Xi.e.e.5.<.>.;.;.*.-./ / W E U U P U K P K G G H ' ` |  .s + .                                                 ",
"                                      k 7XyXtX3X<Xd.u.e.6.1.<.>.-.-.*./ / E / E U P P P L L K A G V G G H _ ` |  .4 . .                                             ",
"                                  l *X0XtXrX1Xi.d.u.8.6.<.>.>./ / / E / / E P P P P P P J J A A Z Z V M N G F _ | } s 1 .                                           ",
"                                k 7XdXrX3X1Xp.d.u.8.6.>.>.>./ / / U P U P E P L P L L L J J A Z Z Z B B N m N D F r | } 3 .                                         ",
"                              z 7XsX9XpXs.p.y.8.6.5.<.;./ / / E P P P P P L L L L L L J J A A Z B B B B M M m n n D 0 t p 3 .                                       ",
"                            z 7XsXpX1Xs.d.y.8.8.<.<.-./ / / E P P L L J L L J J S J J J J J A Z B B B B M m m b n n > < t p 3 .                                     ",
"                          z 7XsXaX1Xs.d.y.8.6.5.>.-.-./ E E P L L L S S A S A A A S A J A A Z Z V B B M B M m m b b ; : , r p 3 .                                   ",
"                        z iXaXpXpXs.d.y.8.5.5.>.-./ / E P P L J S A A A A A A A A A A S A A A C Z B B B M M v v x x - - ; , y i 3 .                                 ",
"                      k iXsXpXpXs.d.y.8.5.5.>./ / E E E L L J J S A Z Z Z Z Z Z Z Z A A A A Z S Q Z B B M M v v x x x - - : < t p 1 .                               ",
"                      *XiXaXpX[.d.d.8.8.>.>./ / E E P L L J J A A C Z B Z Z Z Z Z Z Z A A A A 4.D.4.B B M M v v x x x - - - : < t p 1 .                             ",
"                    z iXaXpXs.d.d.8.5.>./ / / / E P L J J J A A Z C Z B Z B C C Z Z Z A A Z J n.F.D.) B M M M v c c x - - - ; > 0 t 9 . .                           ",
"                  k iXsXpX[.p.d.t.5.5.>./ / E P L L J J S S S Z C C C B B C B Z C C Z Z Z Z 2.D.B.C.n.! B v M M c c x x - - - - > r p 3 .                           ",
"                  *XsXaXpX[.d.y.8.5.>./ / / E L L J A A A S Z Z C C Z B C B C B C C Z Z Z A /.F.N.B.F.n.~ M M M v c x x - - - - ; < t i + .                         ",
"                z iXpXpX[.d.y.8.5.>./ / E P L J A A A A Z Z A Z C C B V B C C B B B C C C Q D.A.C.C.C.F.n.T M M v v c c x - - - ; > q i 8 . .                       ",
"                4XsXpX[.[.y.8.5.5./ / E P L J A A A A Z A Z Z Z C Y ) 4.7.(.(./.)././.(.'.(.F.C.A.C.A.C.F./.A M v v c c x x x - - ; , t p & .                       ",
"              k 0XaXwX1Xd.8.8.5./ / / E R S S Z Z Z Z Z C Z Q 4.(.`.H.D.H.C.C.C.C.C.C.C.A.I.C.C.A.A.A.A.A.F.4.C v M M M v c x x - - : q i 8 . .                     ",
"              *XsXrX1Xp.y.8.5.-./ / P L S A Z Z Z Z Z Z ) (.`.H.B.N.N.B.B.B.N.C.C.C.C.C.C.B.C.C.C.C.C.C.Z.K.F.4.B M M M v c x x x - ; , t p + .                     ",
"            l 0XtXwXa.y.8.5.>.-./ E P L S A Z C C C ) (.n.H.N.M.N.N.B.B.C.C.B.B.V.M.M.M.V.M.V.M.V.V.V.V.V.M.V.H.) B B M v v v x x - n > q i 8 . .                   ",
"            k yXrX1Xp.t.8.5.-./ E L L A A C C C S (.`.H.N.N.B.B.B.N.N.k.M.k.j.j.j.l.j.z.M.z.z.V.l.V.V.V.V.V.V.J.C.) B M v v v v m b b : < i t . .                   ",
"            *XyX3Xa.y.8.5.>./ / E L J A Z C B T (.H.N.N.N.N.M.M.x.j.j.k.j.j.M.k.l.z.l.l.V.V.V.V.V.V.J.V.J.Z.J.Z.K.G.Q B M M M v x x b ; , r i * . .                 ",
"          l 9XtX1Xd.t.6.>.-./ E L J A Z C C Q _.H.N.N.k.x.g.h.h.j.g.g.j.j.j.j.j.j.z.l.V.V.V.V.V.V.V.C.J.J.J.Z.J.J.A.H.T M M v v x x b n : q p 8 . .                 ",
"          l 0X3Xa.u.t.5.>./ / ~ L J A C C ( ).H.M.j.g.g.g.c.%.2.2.=.( ( ( ) ) 2.#.v.c.V.V.V.J.V.C.J.J.J.J.J.J.J.K.K.U.n.R M M v c m b n : < i t . .                 ",
"          =XtX3Xi.u.6.>.-./ ~ L J S Z C L (.M.g.g.g.c.$.) / T S Z Z B C C B C B B Z ) V.J.V.J.J.J.J.J.J.K.L.L.L.K.J.C.b.T M M v c x b b n , t i O . .               ",
"        f =X9X<Xy.8.5.>./ / P L S A Z Z m.j.g.g.c.2.Q Y Z C C Z Z V B B Z Z B B B B m.Z.J.V.J.J.K.K.K.K.L.L.J.Z.b.$.Q J B B v v v x x b ; > r p & . .               ",
"        h qX9X1Xu.8.<.-./ E P L S Z C 4.c.h.^ ) ~ A C C C C Z C Z Z Z B B V Z B B R B.J.J.J.J.J.K.K.L.K.Z.b.2.! L J Z B B B M v v c x b - > q i 3 . .               ",
"        h 8X2X<Xu.6.>.-./ E L L S A ! v.c.$.T C C B C B C C C C Z C C Z V B B B B 2.V.J.K.K.K.J.J.Z.H.4.( T A Z Z Z V C B M B v c c x b - : q i 8 . .               ",
"        h 8X2Xi.t.5.>./ / E L J A C 4.$.Q Z B B B C B C C C C C C C B B Z Z B Z B '.J.K.K.J.J.H.$.! L Z Z Z A A Z Z C B B B M M c x x - - : 0 i e . .               ",
"        h 8X2Xi.e.<.-.*./ P L J A A A S C B B B B B B B C B C C B Z Z B B B Z B R B.J.V.c.#.! R A Z Z Z Z A Z Z Z C C B B B M M v c x x - : < i y . . .             ",
"        h 8X2Xi.6.<.-./ E P L J A C B B B B B B B C B C B C B C Z Z B B Z Z Z Z ! c.b.( ~ A Z Z C V B Z C Z Z C C C C B B M M M v c x x - : < t t . . .             ",
"        g 8X<Xe.6.>.-./ E L L S A Z Z B B B B B C B B B B B C C B Z B Z B Z Z Z A Y A Z Z Z B Z C Z C Z Z Z C Z C C B B B M M M c c x b - ; < i t . . .             ",
"        g 8X2Xe.1.>.-./ U P L S A A Z B C B B C B B C B C C C C Z B B Z Z Z A Z Z Z Z B Z Z Z B C B C B B Z Z C C C B B B M M M c x x x - : < t t . . .             ",
"        g 5X>Xe.1.>./ / U P L S A Z Z B Z B B Z C B C B C B C C Z Z Z Z ! Q Z Z Z Z Z C Z Z B Z B C C C C C B Z C C B B B B B M v c x x - : < i t . . .             ",
"        f 8X>Xe.1.>.-./ E P L S S A Z Z B Z Z Z C C B C B C C Z Z Q '.`.F.7.S Z A Z C Z Z B Z B C B C C B C Z C C C B B B B B M v c x m - : 0 i y . . .             ",
"        f :X<Xe.1.;./ / E P P L J A A Z B Z B Z C C B C C B T ) _.I.L.P.U.2.A Z Z C C C Z Z B B B C B Z B Z B Z C B Y ) C B M M v c x b b : 0 p e . . .             ",
"        f :X>Xw.1.>./ / P P P L S A Z Z Z Z Z Z C C C R ) ).I.I.I.U.U.U.G.Q A Z C C C C B B B B B B B B B B B B C ^ {.F.S B M v v x x b ; : q p 6 . . .             ",
"        % %X>X0.,.;.*./ E P L J J S S Z A A Z Z T 4.'.G.F.F.A.I.I.I.U.{.'.Y Z Z Z C Z B B B B B B B B B B B C / (.XXXX) C B B M v x x b ; > r i 2 . . .             ",
"        % f.:Xw.1.-./ / U P P J J S A A Z R ) (.n.F.A.K.L.L.I.I.U.U.U.U.) A A C Z B B B C B B B B B B B B / (.}..X.X(.S B B M M v x x - ; , r i * . . .             ",
"          d :Xw.1.:./ E E P P L J J R ) '.`.F.C.K.C.A.L.F.I.L.I.U.U.{.).R A C Z B Z B B B B B B B B S ^ _.XX.X.X.X{.R B B M B v c x b b : < i t O . .               ",
"          $ 6X-X9.:./ / / P P L J P '.H.C.C.C.C.C.F.K.A.F.L.I.I.U.U.}.b.( R A B C B B B B B Z Y ^ _.{.|..X.X.X.X}./ B B M M M v c m b n : 0 i r . . .               ",
"          % %X;X0.:.=.! E ~ P P L L 4.c.C.C.C.C.K.F.K.K.I.I.I.I.U.U.T.T.R.`.`.).).(.(._._.`.{.}.|. X.X.X.X.X.X{.2.A B B M M M M x m b ; > q i 7 . . .               ",
"          # d :Xq.:.+.W E P P P L S S 2.c.C.C.A.F.K.A.I.A.I.I.I.U.R.U.R.W.W.W.W.E.E.E.E.Q.Q.|. XXX X X.X X.X{./ A B B M M M v v x b n ; < t i * . . .               ",
"            % %Xq.@.:.W E P P J L S S A 4.N.C.K.A.K.I.F.L.I.U.U.R.U.Y.Y.Y.Y.Y.W.W.W.E.Q.Q.Q.|.|. X X.X.X.X`.T C B B B M M M v v x b n : 0 p r . . . .               ",
"            # +X$X9.+.W U P P L L S S A S b.B.C.A.A.F.K.L.I.P.L.U.U.P.P.Y.Y.W.W.W.E.E.Q.Q.!.|.|. X X.X{.'.R B B M M M M v v v v m n ; > r p 7 . . .                 ",
"            o d $X&.@.U P P P L J S A Z A R v.Z.K.I.L.K.K.K.K.L.L.P.P.U.Y.~.W.W.W.E.|.E.|.|.|. X X}./.Q Z B B M M M M v v v c x b n : 0 i t + . . .                 ",
"              # +X#X@.+.U P P J S S A Z Z C R c.C.C.C.V.C.K.K.K.L.U.P.Y.~.W.W.W.E.E.E.|.|.|.|.`.7.Q Z B B M M M M M M v v v x x n ; > r i 6 . . . .                 ",
"              o d $X&.+.U P L K S S Z Z C B B Y c.V.V.J.J.J.K.L.A.Z.J.L.P.P.Y.Y.Y.U.U.{.F.'.^ Y A C B B M B M B M M v v x x x x n : < i t & . . .                   ",
"                #  .+X{ [ L K K S Z Z Z C B B B Q c.V.J.C.K.K.K.v.( $.2.2.3.2.2.2.) ! R S B B B B B B M M M M M M M c c b x x x ; , r i 6 . . . .                   ",
"                X 5 +XO.{ I K K Z Z V B B B B B B $.k.Z.Z.J.J.V.$.B B B B B M M M B B B B B B B B B B M M M v v M v x x x x - - > q i r + . . .                     ",
"                  o a +X{ [ K V V V B B B B B M B B 2.z.J.J.K.H.U C B B M M B M B B B B B B B B B B M M M M v v c c x x x - - : < t i 2 . . . .                     ",
"                    o  .O.] H G V V B B B M B M M M B #.z.K.V.#.A B B M B B B B M B M B B B B B B M M M M M c c c x x x b - : , r p 6 . . . .                       ",
"                    X 4 OXX.[ G N B N M M M M M M M B B #.l.M.Q C B M B M M B M B M M B B B B B B B M M M M c x x x x - - : > r i ` 1 . . . .                       ",
"                      X 9 oX..' G N N M M v v v M M M M B v.#.A B M M M M B M M M B B M B B M M M M M M c c c x x - - - : > w i t 1 . . . .                         ",
"                        X 9 X...H D N M M m v v M M M M M B Z B B M M M M M M M M M M M M M M M M M M v c x x x - - - ; > q i t 2 . . . .                           ",
"                          . 9  ...' D N m m m c v v v v v v M v M M v v M M M M M M M M M M v v v v v v x x - - - - : , q i t 2 . . . .                             ",
"                            . 9  .| _ D D n m x x v v v v v v v v M v v v M M M M M M M M M v v v c c c x - x - ; ; , r i t = . . . . .                             ",
"                              . 4  .| _ F D b n b m m m x x x x x x x v c v c c c v v v v c v c x m b b b - - ; > < t p t = . . . . .                               ",
"                                . 3  .} t F > n n b b b x x x x x x x x x x x x c c c c x x x x x b b b ; ; : , q t i r 1 . . . . .                                 ",
"                                  . 1 9 } | q F D n ; b - b b x x x x - x x x x x x x x b x x b b - ; ; : > 0 r i t 7 & . . . . .                                   ",
"                                    . . 3 } p t q , > : ; - - - - - - - x - - x - x x x b b - - ; ; : > 0 w i i r 2 . . . . . .                                     ",
"                                      . . + 8 p p ` q < > > ; ; ; ; - - - - b - - - b n ; ; D : > < 0 r i p t 7 + . . . . .                                         ",
"                                          . . 1 y i i i r q < < , > : : : : ; : ; - : > > , < 0 r t i p t 6 * . . . . . .                                           ",
"                                            . . . + 8 i p p i t w q 0 < < < < < < < 0 q r t i i i i r 6 + . . . . . . .                                             ",
"                                                . . . . & 7 e i i p p i i i i i i i p p p i t w 7 * . . . . . . . .                                                 ",
"                                                    . . . . . O & 2 7 e y t t r y y e 7 2 & O . . . . . . . . .                                                     ",
"                                                        . . . . . . . . . . . . . . . . . . . . . . . . . .                                                         ",
"                                                              . . . . . . . . . . . . . . . . . . . .                                                               ",
"                                                                        . . . . . . . . . .                                                                         ",
"                                                                                                                                                                    ",
"                                                                                                                                                                    ",
"                                                                                                                                                                    ",
"                                                                                                                                                                    ",
"                                                                                                                                                                    ",
"                                                                                                                                                                    "
};
