/* XPM */
static char *_ggou_llg76[] = {
/* columns rows colors chars-per-pixel */
"82 82 231 2 ",
"   c #000C0E",
".  c #000E10",
"X  c #001214",
"o  c #001619",
"O  c #00191D",
"+  c #00252A",
"@  c #002F36",
"#  c #003B44",
"$  c #00434D",
"%  c #0F434A",
"&  c #024953",
"*  c #0D4B54",
"=  c #065A66",
"-  c #006473",
";  c #036978",
":  c #00616F",
">  c #316269",
",  c #4E7176",
"<  c #170F86",
"1  c #170F88",
"2  c #180F8C",
"3  c #161383",
"4  c #161B83",
"5  c #171389",
"6  c #18118E",
"7  c #171B8B",
"8  c #1C1393",
"9  c #1B1B94",
"0  c #201795",
"q  c #221996",
"w  c #261D98",
"e  c #281F9A",
"r  c #162383",
"t  c #152B83",
"y  c #17278B",
"u  c #153485",
"i  c #153B84",
"p  c #15378A",
"a  c #1A2795",
"s  c #183A97",
"d  c #2B239B",
"f  c #28279B",
"g  c #30279D",
"h  c #332B9E",
"j  c #26379F",
"k  c #342CA1",
"l  c #3027A0",
"z  c #3434A1",
"x  c #3B33A2",
"c  c #3D3BA5",
"v  c #3B35AA",
"b  c #3F3AAC",
"n  c #343CA3",
"m  c #312EA4",
"M  c #423BA6",
"N  c #413EAD",
"B  c #413EB3",
"V  c #154C8A",
"C  c #154687",
"Z  c #15538B",
"A  c #155B89",
"S  c #174A96",
"D  c #155895",
"F  c #15658B",
"G  c #156F8F",
"H  c #007A8C",
"J  c #007485",
"K  c #16758C",
"L  c #156593",
"P  c #166A99",
"I  c #157C92",
"U  c #157898",
"Y  c #007B8E",
"T  c #337A85",
"R  c #1A57A2",
"E  c #2A4AA4",
"W  c #3747A7",
"Q  c #3B48B9",
"!  c #2E51AF",
"~  c #186FA6",
"^  c #3270B2",
"/  c #4442AA",
"(  c #4B44AA",
")  c #4D4BAC",
"_  c #4348A9",
"`  c #524CAD",
"'  c #4954AD",
"]  c #5551AF",
"[  c #4344B3",
"{  c #444BBB",
"}  c #4648B8",
"|  c #5A55B1",
" . c #5D5AB3",
".. c #5556B1",
"X. c #4A53BA",
"o. c #625EB5",
"O. c #4869B4",
"+. c #5865B6",
"@. c #597CBC",
"#. c #4974B7",
"$. c #6462B7",
"%. c #686BBA",
"&. c #6974BD",
"*. c #7076BF",
"=. c #163CCE",
"-. c #163DD1",
";. c #1B43D4",
":. c #1F49DA",
">. c #1B48D7",
",. c #1A40CF",
"<. c #2747CA",
"1. c #354BC5",
"2. c #3B54CA",
"3. c #264AD5",
"4. c #294CD6",
"5. c #224CDB",
"6. c #2A4FD9",
"7. c #2146D5",
"8. c #2651DE",
"9. c #2C52DC",
"0. c #2B51D5",
"q. c #3353D4",
"w. c #3255DC",
"e. c #3958D7",
"r. c #314FD5",
"t. c #2653E1",
"y. c #2A56E2",
"u. c #2C59E4",
"i. c #2F5DE8",
"p. c #325CE4",
"a. c #325CE5",
"s. c #3463EB",
"d. c #3965EB",
"f. c #3A6CF3",
"g. c #3768F0",
"h. c #3E72F8",
"j. c #2F60EB",
"k. c #3E61DE",
"l. c #4453C5",
"z. c #4755C9",
"x. c #435BD4",
"c. c #454FC2",
"v. c #4262DA",
"b. c #737BC1",
"n. c #6B7EC0",
"m. c #476AE5",
"M. c #4771EE",
"N. c #467BFE",
"B. c #4A7EFE",
"V. c #4474F7",
"C. c #008295",
"Z. c #008A9E",
"A. c #00869A",
"S. c #15849B",
"D. c #168599",
"F. c #328895",
"G. c #068DA5",
"H. c #158BA3",
"J. c #1488A7",
"K. c #0195AB",
"L. c #019BAE",
"P. c #0991AB",
"I. c #1595AB",
"U. c #1889B3",
"Y. c #019DB4",
"T. c #0A9BB5",
"R. c #0C93B1",
"E. c #149CB4",
"W. c #1696B6",
"Q. c #389DAD",
"!. c #2B8EB1",
"~. c #00A2BA",
"^. c #08A4B9",
"/. c #14A4BA",
"(. c #33A1B1",
"). c #508D96",
"_. c #5A82BE",
"`. c #4B90B0",
"'. c #659BA3",
"]. c #57ACB8",
"[. c #58ABB7",
"{. c #6FABB4",
"}. c #6A969C",
"|. c #3A9CC2",
" X c #04ACC2",
".X c #14ACC2",
"XX c #1BA6C2",
"oX c #05B7CB",
"OX c #16B6CA",
"+X c #05BDD1",
"@X c #17BED1",
"#X c #32AFCB",
"$X c #5392C3",
"%X c #6787C2",
"&X c #7687C5",
"*X c #6997C8",
"=X c #7998CA",
"-X c #48A8CB",
";X c #54B3D0",
":X c #7AA3CE",
">X c #66B5D3",
",X c #78B9D7",
"<X c #73AFCB",
"1X c #4E81FF",
"2X c #0AC4D6",
"3X c #1AC5D7",
"4X c #28CADB",
"5X c #39CADB",
"6X c #2DC1CF",
"7X c #35D4E2",
"8X c #48C7D9",
"9X c #58C8DB",
"0X c #52CCD8",
"qX c #69C8DA",
"wX c #76C7DD",
"eX c #73D4DD",
"rX c #4AD7E4",
"tX c #5ADAE6",
"yX c #67DBE7",
"uX c #77DAE5",
"iX c #7BCCE0",
"pX c #69E1EA",
"aX c #7CE1EA",
"sX c #74E2EB",
"dX c #81BAD8",
"fX c #80A9D1",
"gX c #83C4DC",
"hX c #83DBE8",
"jX c #82CEE1",
"kX c #83E2EC",
"lX c None",
/* pixels */
"lXlXlXlXlXlXlXlXlXlXlXlXlXlXlXlXlXlXlXlXlXlXlXlXlXlXlXlXlXlXlXlXlXlXlXlXlXlXlXlXlXlXlXlXlXlXlXlXlXlXlXlXlXlXlXlXlXlXlXlXlXlXlXlXlXlXlXlXlXlXlXlXlXlXlXlXlXlXlXlXlXlX",
"lXlXlXlXlXlXlXlXlXlXlXlXlXlXlXlXlXlXlXlXlXlXlXlXlXlXlXlXlXlXlXlXlXlXlXlXlXlXlXlXlXlXlXlXlXlXlXlXlXlXlXlXlXlXlXlXlXlXlXlXlXlXlXlXlXlXlXlXlXlXlXlXlXlXlXlXlXlXlXlXlXlX",
"lXlXlXlXlXlXlXlXlXlXlXlXlXlXlXlXlXlXlXlXlXlXlXlXlXlXlXlXlXlXlXlXlXlXlXlXlXlXlXlXlXlXlXlXlXlXlXlXlXlXlXlXlXlXlXlXlXlXlXlXlXlXlXlXlXlXlXlXlXlXlXlXlXlXlXlXlXlXlXlXlXlX",
"lXlXlXlXlXlXlXlXlXlXlXlXlXlXlXlXlXlXlXlXlXlXlXlXlXlXlXlXlXlXlXlXlXlXlXlXlXlXlXlXlXlXlXlXlXlXlXlXlXlXlXlXlXlXlXlXlXlXlXlXlXlXlXlXlXlXlXlXlXlXlXlXlXlXlXlXlXlXlXlXlXlX",
"lXlXlXlXlXlXlXlXlXlXlXlXlXlXlXlXlXlXlXlXlXlXlXlXlXlXlXlXlXlXlXlXlX, F.Q.Q.Q.Q.Q.!.!.D.; > % lXlXlXlXlXlXlXlXlXlXlXlXlXlXlXlXlXlXlXlXlXlXlXlXlXlXlXlXlXlXlXlXlXlXlXlX",
"lXlXlXlXlXlXlXlXlXlXlXlXlXlXlXlXlXlXlXlXlXlXlXlXlXlXlXlXlX).[.;XrXtXrXrXrXrXrXrXrXrX5X7X3X3X/.G.; % lXlXlXlXlXlXlXlXlXlXlXlXlXlXlXlXlXlXlXlXlXlXlXlXlXlXlXlXlXlXlXlX",
"lXlXlXlXlXlXlXlXlXlXlXlXlXlXlXlXlXlXlXlXlXlXlXlXlXlX).].tXtXtX9X9X9X;X;X-X-X-X-X-X#X#X#X6X5X4X4X4X2XZ.; @ lXlXlXlXlXlXlXlXlXlXlXlXlXlXlXlXlXlXlXlXlXlXlXlXlXlXlXlXlX",
"lXlXlXlXlXlXlXlXlXlXlXlXlXlXlXlXlXlXlXlXlXlXlXlX[.qXpXsXyXqX>X;X$X_._.@.#.#.O.O.O.^ O.^ ^ !.!.(.#X3X3X2XoXH $ lXlXlXlXlXlXlXlXlXlXlXlXlXlXlXlXlXlXlXlXlXlXlXlXlXlXlX",
"lXlXlXlXlXlXlXlXlXlXlXlXlXlXlXlXlXlXlXlXlXlX{.tXsXyXeX>X>X_._.@.@.+.+.' ' ' ' _ W W W W E E E ^ ^ ~ W.@X3X2XoXH # lXlXlXlXlXlXlXlXlXlXlXlXlXlXlXlXlXlXlXlXlXlXlXlXlX",
"lXlXlXlXlXlXlXlXlXlXlXlXlXlXlXlXlXlXlXlX'.eXsXuXqX<X*X_.&.%.+...' ' ) _ / / M c c n n n z j j j =.E R ~ U..X@X2X X; lXlXlXlXlXlXlXlXlXlXlXlXlXlXlXlXlXlXlXlXlXlXlXlX",
"lXlXlXlXlXlXlXlXlXlXlXlXlXlXlXlXlXlXlX<XpXaXwX,X=X%X&.&.+...| ` ( ( / / M x M x x h h h g g f w a a a s R R U..X3X+XG.& lXlXlXlXlXlXlXlXlXlXlXlXlXlXlXlXlXlXlXlXlXlX",
"lXlXlXlXlXlXlXlXlXlXlXlXlXlXlXlXlX}.eXaXuX,X:X%Xn.&.+. .] ] ( ( / M c x x x x h h h h h g d w w w 9 9 a a s S ~ R.OX2X X- lXlXlXlXlXlXlXlXlXlXlXlXlXlXlXlXlXlXlXlXlX",
"lXlXlXlXlXlXlXlXlXlXlXlXlXlXlXlX{.uXkXwX:X=Xb.&.%.$. .] ` ( M M x x x x h h h h h g g d d d w w q 8 9 8 9 y a p D ~ /.3X+XH lXlXlXlXlXlXlXlXlXlXlXlXlXlXlXlXlXlXlXlX",
"lXlXlXlXlXlXlXlXlXlXlXlXlXlXlX{.uXhXwX:X*Xb.&.$. .| ..( ( M M x x h g g h g g d g d g d d d w w 0 8 8 8 6 7 7 y a S P W.OX2XA.lXlXlXlXlXlXlXlXlXlXlXlXlXlXlXlXlXlXlX",
"lXlXlXlXlXlXlXlXlXlXlXlXlXlX{.kXhXdX=X&Xb.%.$.o.| ] ( / M M x h h g d d d d d d d d d d d w w w 8 8 8 8 6 6 5 7 y y p L J.OX+XZ.lXlXlXlXlXlXlXlXlXlXlXlXlXlXlXlXlXlX",
"lXlXlXlXlXlXlXlXlXlXlXlXlX{.aXhXdXfX&X*.%.%.o.| ` ( M M x x h g g d d d d d d q w w w d w w w 7 q 8 8 6 6 2 5 5 4 4 r p D J..X+XG.lXlXlXlXlXlXlXlXlXlXlXlXlXlXlXlXlX",
"lXlXlXlXlXlXlXlXlXlXlXlX{.kXjXdXfX*.*.%.$.| | ` ( M M x x h g g e w w w w w w w w e w e w w q q q 8 8 8 6 6 6 1 1 3 4 r u D J..X+XA.lXlXlXlXlXlXlXlXlXlXlXlXlXlXlXlX",
"lXlXlXlXlXlXlXlXlXlXlX}.kXkXdXfXfX*.%.o.o.| ( ( M M x h h g d e e q q q q q q q 0 q w w w w w w v q 8 8 6 6 2 2 < < 3 4 r u D J.OX+XH lXlXlXlXlXlXlXlXlXlXlXlXlXlXlX",
"lXlXlXlXlXlXlXlXlXlXlXeXkXgXfXb.%.%.$.| | ( ( M M h h g g d d w w 0 0 0 q 0 0 0 0 w 0 w w w w } q.} 8 8 6 6 2 2 1 < 3 3 4 r u D I.OXoX- lXlXlXlXlXlXlXlXlXlXlXlXlXlX",
"lXlXlXlXlXlXlXlXlXlX<XkXjXfXfX*.%.$.o.| ( M M x h h g g d e w w 0 0 0 0 0 q 0 0 0 0 w w w 0 d 2.w.q.N 8 6 6 2 2 1 1 < 3 3 4 t i P E.oXY.$ lXlXlXlXlXlXlXlXlXlXlXlXlX",
"lXlXlXlXlXlXlXlXlX{.hXhXfXfXb.*.o.o.| ` ( M x g g g d e e w w q q 0 0 0 0 8 0 8 0 0 w q w w B e.4.6.2.b 8 6 6 2 1 1 < < 3 * 6 6 C ~ /.+XG.lXlXlXlXlXlXlXlXlXlXlXlXlX",
"lXlXlXlXlXlXlXlXlXjXkXgXfX&X*.$.o.| ( M M x h g g e e e w w w q 0 0 0 0 0 0 8 0 0 0 0 0 0 w l.9.4.4.w.2.m 6 6 2 2 1 < < < 3 < 7 u Z H.OXoX; lXlXlXlXlXlXlXlXlXlXlXlX",
"lXlXlXlXlXlXlXlX{.kXdXfXb.*.%.o.| ` ( M x g g g e e w w w q q q 0 0 8 0 0 8 8 8 0 8 0 0 0 v q.6.4.4.6.w.2.k 8 6 2 2 1 1 < < < 3 r p L E.oXY.# lXlXlXlXlXlXlXlXlXlXlX",
"lXlXlXlXlXlXlXlXjXhXdXfXb.%.o.o.` ( M x g g d w w w q q w q w q 0 d N } X.z.l.z.z.l.l.z.X.l.w.6.9.9.9.6.w.l.w 6 6 2 1 1 < 3 3 3 4 t V J./.oXH lXlXlXlXlXlXlXlXlXlXlX",
"lXlXlXlXlXlXlX{.aXjX:X&X*.$.o.` ( M x g l e e w q q q q q q x } z.z.r.r.w.6.4.6.4.6.6.6.9.y.9.6.6.y.9.6.y.w.} q 6 6 6 6 2 1 1 < 3 r p L W.oXY.# lXlXlXlXlXlXlXlXlXlX",
"lXlXlXlXlXlXlXuXaX,X=Xb.$.o.| ` ( M x g e w w q q q q q N c.x.q.3.4.3.3.3.4.4.6.4.4.6.6.6.6.6.6.6.6.6.6.6.6.w.} 8 6 6 6 2 2 < < 5 4 t V J./.oXJ lXlXlXlXlXlXlXlXlXlX",
"lXlXlXlXlXlX'.sXiX=X&X%.o.o.] ( M x g g e w 0 0 q q B z.e.r.3.3.3.4.4.6.4.6.3.3.5.5.5.;.5.7.5.7.5.5.5.5.5.5.5.9.} 8 6 6 2 2 < < 3 3 r p L I.oXY.@ lXlXlXlXlXlXlXlXlX",
"lXlXlXlXlXlX<XaXwX=Xb.%.o.] ) M x g g w w q 0 0 e } x.r.3.3.4.4.3.4.7.7.7.;.;.;.;.;.;.:.7.5.;.5.:.5.5.5.5.5.5.t.6.[ 6 6 6 2 1 1 3 3 4 t Z H..X^.- lXlXlXlXlXlXlXlXlX",
"lXlXlXlXlXlXuXuX:X&X%.$.| ` M M x g d w 0 0 8 l c.r.3.3.3.3.;.;.-.;.;.-.-.;.7.;.;.>.:.:.5.5.5.5.5.5.5.t.t.8.8.8.t.e.v 6 6 6 2 2 1 3 3 y C U /. XG.O lXlXlXlXlXlXlXlX",
"lXlXlXlXlX'.pXeX=X%X%. .] ( M x g d e q 0 0 N z.r.3.5.7.;.-.-.-.-.=.=.=.-.;.-.-.;.>.:.:.5.5.5.5.5.5.6.t.t.t.t.9.t.y.q.k 8 6 2 2 1 3 3 r p L I.oXY.# lXlXlXlXlXlXlXlX",
"lXlXlXlXlX{.sX,X*X&.$...) M M k g d w 0 2 M z.r.7.,.=.-.=.<.b 1.} / N N N B [ } Q 1.3.5.5.5.5.8.t.9.t.t.t.t.t.t.y.y.a.2.l 6 6 2 1 1 3 4 t Z H..X~.: lXlXlXlXlXlXlXlX",
"lXlXlXlXlXeXsX,X&X%. .` ( M x g d w q 0 h c.r.=.-.=.<.b [ M m e w q 8 0 0 8 8 8 8 q / :.8.5.t.8.t.t.t.y.u.t.u.u.u.t.6.1.k 8 6 2 1 5 3 3 r C U /. XC.X lXlXlXlXlXlXlX",
"lXlXlXlX, yXuX:X_.$.| ` M M h h e w 0 q { ,.=.=.<.[ v l q q 0 q q 0 q 8 9 8 0 8 8 8 2.8.8.8.t.t.y.t.y.y.u.u.t.8.1.Q x d 0 6 6 6 1 1 < 3 r i G E. XP.+ lXlXlXlXlXlXlX",
"lXlXlXlX).yXqX*X&.o.| ( M x h d e q 0 } <.=.<.B x q 0 0 0 0 0 q q 0 8 q 0 0 0 8 8 l 4.t.8.t.y.t.y.u.t.u.8.1.} v h w 0 0 8 6 6 6 2 1 < 3 4 p F I. X~.# lXlXlXlXlXlXlX",
"lXlXlXlX}.yXqX*X&. .] ( M x h d e w v 1.<.B k q 0 6 8 0 0 0 0 q 0 0 0 8 8 q 8 0 8 [ 5.t.t.u.t.t.t.8.r.} N k e q q q q 9 8 6 6 6 1 1 3 3 4 u A H. X~.= lXlXlXlXlXlXlX",
"lXlXlXlX[.pXqX*X%. .` M M x g d e 0 } Q M w 8 8 0 0 0 8 8 0 0 q 0 0 8 0 9 8 q 8 8 l.t.y.t.t.t.r.Q M d w q w q w q q 0 8 8 8 6 6 1 < < 3 4 t A H./.~.- lXlXlXlXlXlXlX",
"lXlXlXlX].pX>X%X+. .) / x x g d w 0 e d q 8 8 8 6 8 8 0 8 q 8 0 q 8 q 8 q 8 q 8 l 4.t.5.3.} B l w q q q q q q q q q q 8 8 6 6 6 2 1 < < 4 t V D./.~.J   lXlXlXlXlXlX",
"lXlXlXlX].pX>X%X+...( / x h d d w 0 8 8 8 8 8 8 0 8 8 8 0 8 0 0 8 q 8 8 q q q q N <.Q B k w 0 q 0 0 0 0 q q q 0 0 q 8 8 8 8 6 6 1 1 < 3 4 t V D./.Y.Y X lXlXlXlXlXlX",
"lXlXlXlX].pX<X_.+.] ( M x g d d w q q 8 8 8 8 8 8 8 8 8 8 q 8 0 q 8 8 q 8 q q q w l e 0 0 0 0 8 0 q 0 q q q 0 q 0 8 8 8 8 6 6 6 1 1 < 3 3 t V U E.~.Y X lXlXlXlXlXlX",
"lXlXlXlX].yX>X@.+.] M M x h g w w q q 8 8 0 8 8 0 0 8 8 8 8 0 8 q q 8 q q w q q w 0 0 0 0 0 q 8 0 8 0 8 8 q q 0 0 q 8 8 8 6 6 6 1 < < 3 3 t V I E.Y.G.o lXlXlXlXlXlX",
"lXlXlXlX].tX>X@. .' ( M h h g d e w 0 0 8 8 0 q 0 8 8 0 8 q q 0 q q 8 w N v w w q q q q 0 q 0 q 8 0 0 0 0 0 0 0 0 0 0 8 8 8 8 6 2 1 < < 3 t V D.E.Y.A.o lXlXlXlXlXlX",
"lXlXlXlX[.tX>X_.+.' ( M x h g d e w w 0 0 0 q 8 0 0 0 8 8 8 8 q q v c.x.w.{ e q q q q 0 0 0 0 8 0 0 8 8 0 0 0 0 0 0 0 8 8 8 6 6 2 1 < 3 4 t Z D.T.~.C.X lXlXlXlXlXlX",
"lXlXlXlX`.tX;X_...' ( M x h h g e e q 0 q q q 8 0 0 0 8 0 8 m } z.p.p.i.a.[ w q q q 0 0 0 0 8 8 8 0 8 0 0 8 0 0 0 0 l B 0 8 8 6 2 1 3 3 4 t A D.T.~.H X lXlXlXlXlXlX",
"lXlXlXlX).tX9X$X+.) / M x h g d e e w q q q q q 0 0 8 l B z.p.p.p.a.a.a.q.M w w 0 0 0 8 0 8 8 8 8 8 8 8 8 0 0 0 0 v m.w.e 6 6 6 2 1 3 3 4 u A D.T.~.J . lXlXlXlXlXlX",
"lXlXlXlX> rX0X$XO.' M x x h h d d e w 0 q 0 q q k } l.e.w.w.w.p.p.p.a.d.{ l q q 0 0 0 8 0 8 8 8 8 8 8 8 8 8 0 M z.M.V.B q 8 8 6 2 < < 3 r u F H.^.~.-   lXlXlXlXlXlX",
"lXlXlXlX> rX0X$X+.' ( M x h g d d e e w w k B z.2.w.9.y.y.u.u.p.a.a.a.p.N w 0 q 0 0 8 0 8 8 8 8 8 8 8 8 8 M z.m.B.B.c.e 8 8 6 6 2 1 3 3 r i G H.^.~.=   lXlXlXlXlXlX",
"lXlXlXlXlX;XtX-X#.' / c x h g g d d l B c.x.r.6.9.9.w.y.w.p.u.p.a.a.m.x.k w 0 q 0 8 8 8 8 8 8 8 8 8 e B z.B.B.B.B.m.l 8 8 6 6 6 1 < 3 4 r C I I.L.Y.# lXlXlXlXlXlXlX",
"lXlXlXlXlXQ.rX;X#.' / M x h h h d g c.r.r.6.6.y.w.y.9.y.9.p.p.p.a.a.M.1.N l w 0 8 0 8 8 8 8 0 l B z.m.V.B.B.B.B.M.M 8 8 6 6 6 6 5 3 3 4 t Z I R.Y.K.@ lXlXlXlXlXlXlX",
"lXlXlXlXlXT rX;X`.! _ M x z h g g d } <.6.6.6.y.w.y.y.w.u.p.p.p.a.a.d.d.d.x.x.x.z.z.c.z.x.x.m.M.V.B.B.B.B.B.B.m.[ w 8 8 6 6 6 6 1 < 3 4 i F D.T.~.C.o lXlXlXlXlXlXlX",
"lXlXlXlXlX> 5XrX-XO._ M x h h g g d e [ 3.6.9.6.6.y.w.p.w.u.p.p.d.a.d.s.g.d.d.g.f.f.f.f.f.h.h.N.V.V.B.B.B.B.m.M q 8 6 8 6 6 6 2 5 3 3 t C G H.Y.~.-   lXlXlXlXlXlXlX",
"lXlXlXlXlXlX(.rX-X#.Q W x z h g g e w e } 3.6.9.9.w.y.y.w.p.p.p.a.d.s.s.s.s.g.g.g.f.f.h.h.h.V.V.N.N.N.N.N.x.m 8 0 8 6 6 2 2 2 2 1 3 6 * Z D.J.K.Y.$ X lXlXlXlXlXlXlX",
"lXlXlXlXlXlXF.7X;X!.! _ x h g g g e w q e Q 4.t.9.y.y.w.u.p.p.i.p.p.i.i.s.s.s.g.g.f.f.h.h.V.V.N.N.B.B.m.c.l 8 8 6 6 6 6 2 2 2 2 < < 9 i F D.T.Y.Z.+ lXlXlXlXlXlXlXlX",
"lXlXlXlXlXlX% 6X7X|.^ W z h g g d e e q q l 1.5.y.y.y.y.y.y.t.u.y.u.i.s.i.s.g.g.g.f.f.V.h.V.V.N.N.M.z.v 0 8 8 8 6 6 6 2 2 2 2 1 4 4 t V K J.Y.~.-   lXlXlXlXlXlXlXlX",
"lXlXlXlXlXlXlXF.7X;X^ ' n z g g e e e q q 0 l <.6.9.9.9.9.t.y.y.u.i.u.s.s.g.g.g.f.f.h.h.V.V.V.a.X.v q 8 8 6 6 6 6 6 6 2 2 2 1 < 3 r i F D.R.Y.K.# X lXlXlXlXlXlXlXlX",
"lXlXlXlXlXlXlX* 4X5X(.! W n f f d e w 0 0 0 8 l 1.:.5.t.t.t.y.u.8.8.y.u.y.i.s.s.s.s.a.k.w.c.B l q 0 8 8 6 8 8 6 6 6 2 2 1 3 < < 4 t Z K J.L.~.H X lXlXlXlXlXlXlXlXlX",
"lXlXlXlXlXlXlXlXD.4X#X!.E j f d e q 0 0 0 8 8 8 v 7.5.5.t.y.y.y.1.M Q [ Q } } [ [ B v k e 8 8 8 8 8 8 6 6 6 6 6 6 6 1 1 < < 3 3 r i F D.P.L.Y.$   lXlXlXlXlXlXlXlXlX",
"lXlXlXlXlXlXlXlX% 6X7X#X^ E f f w 9 8 q 8 8 8 8 8 [ ;.t.t.t.y.t.W 0 8 8 8 8 6 8 8 8 8 8 8 8 8 8 8 8 8 6 2 2 2 2 2 2 2 2 < < * 6 = S G J.L.~.H o lXlXlXlXlXlXlXlXlXlX",
"lXlXlXlXlXlXlXlXlXK 3X6XU.E s f 9 9 8 8 8 8 6 8 8 8 [ >.t.t.y.<.x 0 8 8 6 6 8 8 6 8 6 8 8 8 8 8 8 8 8 6 6 2 2 2 2 2 2 2 < < 3 8 C K J.J.Y.L.# . lXlXlXlXlXlXlXlXlXlX",
"lXlXlXlXlXlXlXlXlXlXI.3XOX^ E a 9 9 8 6 8 6 6 8 6 6 8 Q :.t.5.Q w 8 8 8 8 6 6 6 8 8 8 6 8 8 8 8 8 8 6 6 6 6 2 2 1 < < 6 3 4 r p F D.G.G.~.; X lXlXlXlXlXlXlXlXlXlXlX",
"lXlXlXlXlXlXlXlXlXlX* 2X4XXX~ s a 9 9 6 6 6 6 6 6 6 8 8 Q :.7.v 0 6 8 6 6 6 8 6 6 6 6 8 8 8 8 6 8 6 6 6 2 2 < < < < < * 4 r i A D.J.~.~.A.+ o lXlXlXlXlXlXlXlXlXlXlX",
"lXlXlXlXlXlXlXlXlXlXlX; +X3XW.R s a 9 7 6 6 2 2 6 6 6 6 8 1.Q w 6 6 6 6 6 6 6 8 6 6 6 6 6 8 6 6 6 6 6 6 2 2 < < 6 * 3 3 * p Z I J.K.Y.K.&   lXlXlXlXlXlXlXlXlXlXlXlX",
"lXlXlXlXlXlXlXlXlXlXlXlXY 2X@XW.R s y 9 7 5 6 6 6 6 6 6 6 8 q 8 8 6 6 6 6 6 6 6 6 6 6 8 8 6 6 6 6 6 6 2 2 2 < < 2 3 4 7 a Z K J.K.K.Y.: . lXlXlXlXlXlXlXlXlXlXlXlXlX",
"lXlXlXlXlXlXlXlXlXlXlXlXlXG.+X@XW.R s a 7 7 5 5 2 1 6 2 2 2 6 6 6 6 2 2 6 6 6 6 6 6 6 6 6 6 2 2 2 2 2 2 2 2 < 3 2 < * a A I S.G.K.~.J O lXlXlXlXlXlXlXlXlXlXlXlXlXlX",
"lXlXlXlXlXlXlXlXlXlXlXlXlXlXG.+XOXU.L S y 7 5 5 1 1 2 2 2 2 2 6 6 6 2 2 6 6 6 6 6 6 6 6 6 6 2 2 2 1 1 1 2 6 * 4 4 r C A I S.G.K.~.H + X lXlXlXlXlXlXlXlXlXlXlXlXlXlX",
"lXlXlXlXlXlXlXlXlXlXlXlXlXlXlXG.+X@XW.P S p y 4 7 3 3 5 1 1 1 1 2 2 2 2 < 2 2 2 2 2 2 2 1 2 1 1 < < 3 3 3 3 4 * u C F D.S.G.K.~.H + X lXlXlXlXlXlXlXlXlXlXlXlXlXlXlX",
"lXlXlXlXlXlXlXlXlXlXlXlXlXlXlXlXA.+X@X/.~ D p y r 7 3 3 3 1 < < 2 2 < < < < 1 1 < 1 1 < 1 < 1 < < 3 4 3 4 r y a A K D.J.K.L.~.H + X lXlXlXlXlXlXlXlXlXlXlXlXlXlXlXlX",
"lXlXlXlXlXlXlXlXlXlXlXlXlXlXlXlXlXH oX+X/.I.P V p y r 7 3 1 * 6 6 2 < < < 8 6 1 < < < < < < 2 6 3 * 6 4 t u V F I S.G.L.~.Y.; + X lXlXlXlXlXlXlXlXlXlXlXlXlXlXlXlXlX",
"lXlXlXlXlXlXlXlXlXlXlXlXlXlXlXlXlXlX- Y.+XOXE.J.L V p t r 3 2 2 * 3 3 5 < % 2 2 < < < < 3 3 5 6 r r 9 y V F G S.J.P.G.~.K.: O o lXlXlXlXlXlXlXlXlXlXlXlXlXlXlXlXlXlX",
"lXlXlXlXlXlXlXlXlXlXlXlXlXlXlXlXlXlXlX& Z.oXoX.XE.S.L Z C u t t r r * 5 4 3 4 3 * 6 4 4 4 r t * u C Z F I D.H.G.L.Y.~.Z.$ . lXlXlXlXlXlXlXlXlXlXlXlXlXlXlXlXlXlXlXlX",
"lXlXlXlXlXlXlXlXlXlXlXlXlXlXlXlXlXlXlXlXlX; Y.oXOX.XE.H.U D Z C i u 8 y t t t t 7 6 u u u C C Z F K D.D.J.R.~.K.~.K.; +   lXlXlXlXlXlXlXlXlXlXlXlXlXlXlXlXlXlXlXlXlX",
"lXlXlXlXlXlXlXlXlXlXlXlXlXlXlXlXlXlXlXlXlXlX# H Y.oXoX.X/.I.H.U G L A Z Z V V V V Z Z L F G K S.D.H.U.Y.L.Y.~.L.H # X o lXlXlXlXlXlXlXlXlXlXlXlXlXlXlXlXlXlXlXlXlXlX",
"lXlXlXlXlXlXlXlXlXlXlXlXlXlXlXlXlXlXlXlXlXlXlXlX# J L.~.oX.X.X/.E.I.I.S.S.S.S.S.U S.S.D.H.I.I.R.T.L.K.Y.~.K.H $ o . lXlXlXlXlXlXlXlXlXlXlXlXlXlXlXlXlXlXlXlXlXlXlXlX",
"lXlXlXlXlXlXlXlXlXlXlXlXlXlXlXlXlXlXlXlXlXlXlXlXlXlX# : G.Y.~. X X X^..XT./.W.E.E.E.T.T.T.Y.Y.K.~.~.Y.Z.- # X . lXlXlXlXlXlXlXlXlXlXlXlXlXlXlXlXlXlXlXlXlXlXlXlXlXlX",
"lXlXlXlXlXlXlXlXlXlXlXlXlXlXlXlXlXlXlXlXlXlXlXlXlXlXlXlXo # - Y K.Y.~.~.~.Y.Y.Y.Y.Y.~.~.~.~.Y.K.C.- $ +   X lXlXlXlXlXlXlXlXlXlXlXlXlXlXlXlXlXlXlXlXlXlXlXlXlXlXlXlX",
"lXlXlXlXlXlXlXlXlXlXlXlXlXlXlXlXlXlXlXlXlXlXlXlXlXlXlXlXlXlXlXX + # = - J H Y A.A.Y H J - = $ @ o     lXlXlXlXlXlXlXlXlXlXlXlXlXlXlXlXlXlXlXlXlXlXlXlXlXlXlXlXlXlXlX",
"lXlXlXlXlXlXlXlXlXlXlXlXlXlXlXlXlXlXlXlXlXlXlXlXlXlXlXlXlXlXlXlXlXlXlXlX  X X o o o X       lXlXlXlXlXlXlXlXlXlXlXlXlXlXlXlXlXlXlXlXlXlXlXlXlXlXlXlXlXlXlXlXlXlXlXlX",
"lXlXlXlXlXlXlXlXlXlXlXlXlXlXlXlXlXlXlXlXlXlXlXlXlXlXlXlXlXlXlXlXlXlXlXlXlXlXlXlXlXlXlXlXlXlXlXlXlXlXlXlXlXlXlXlXlXlXlXlXlXlXlXlXlXlXlXlXlXlXlXlXlXlXlXlXlXlXlXlXlXlX",
"lXlXlXlXlXlXlXlXlXlXlXlXlXlXlXlXlXlXlXlXlXlXlXlXlXlXlXlXlXlXlXlXlXlXlXlXlXlXlXlXlXlXlXlXlXlXlXlXlXlXlXlXlXlXlXlXlXlXlXlXlXlXlXlXlXlXlXlXlXlXlXlXlXlXlXlXlXlXlXlXlXlX",
"lXlXlXlXlXlXlXlXlXlXlXlXlXlXlXlXlXlXlXlXlXlXlXlXlXlXlXlXlXlXlXlXlXlXlXlXlXlXlXlXlXlXlXlXlXlXlXlXlXlXlXlXlXlXlXlXlXlXlXlXlXlXlXlXlXlXlXlXlXlXlXlXlXlXlXlXlXlXlXlXlXlX",
"lXlXlXlXlXlXlXlXlXlXlXlXlXlXlXlXlXlXlXlXlXlXlXlXlXlXlXlXlXlXlXlXlXlXlXlXlXlXlXlXlXlXlXlXlXlXlXlXlXlXlXlXlXlXlXlXlXlXlXlXlXlXlXlXlXlXlXlXlXlXlXlXlXlXlXlXlXlXlXlXlXlX",
"lXlXlXlXlXlXlXlXlXlXlXlXlXlXlXlXlXlXlXlXlXlXlXlXlXlXlXlXlXlXlXlXlXlXlXlXlXlXlXlXlXlXlXlXlXlXlXlXlXlXlXlXlXlXlXlXlXlXlXlXlXlXlXlXlXlXlXlXlXlXlXlXlXlXlXlXlXlXlXlXlXlX",
"lXlXlXlXlXlXlXlXlXlXlXlXlXlXlXlXlXlXlXlXlXlXlXlXlXlXlXlXlXlXlXlXlXlXlXlXlXlXlXlXlXlXlXlXlXlXlXlXlXlXlXlXlXlXlXlXlXlXlXlXlXlXlXlXlXlXlXlXlXlXlXlXlXlXlXlXlXlXlXlXlXlX"
};
