/* XPM */
static char *apsxf_65r7r[] = {
/* columns rows colors chars-per-pixel */
"82 82 64 1 ",
"  c None",
". c #00BCBE",
"X c #02BEC0",
"o c #06BFE0",
"O c #03C2C4",
"+ c #08C4C6",
"@ c #0BC6C9",
"# c #01CACE",
"$ c #0ECACC",
"% c #10CCCE",
"& c #01CDD3",
"* c #06C2DE",
"= c #05CCDD",
"- c #14CFD2",
"; c #03D1D6",
": c #0BD4D7",
"> c #05D4DD",
", c #0AD5D9",
"< c #05D8DF",
"1 c #0CDADD",
"2 c #15D2D4",
"3 c #18D4D6",
"4 c #14D7D9",
"5 c #1BD6D9",
"6 c #12DCDF",
"7 c #1DD9DB",
"8 c #06C0E2",
"9 c #09C3E5",
"0 c #06CCE2",
"q c #0EC9E7",
"w c #0DC7E8",
"e c #0FCBEB",
"r c #12CCEA",
"t c #06D5E2",
"y c #0CD3E6",
"u c #06DAE2",
"i c #0BDCE5",
"p c #0FDDE8",
"a c #16DEE1",
"s c #19DFE1",
"d c #15D2EB",
"f c #19D5EC",
"g c #14DBEA",
"h c #1CDBEE",
"j c #06CCF4",
"k c #09CEF4",
"l c #0BD1F6",
"z c #0CD3F9",
"x c #0FD8FC",
"c c #12D2F2",
"v c #13D7F9",
"b c #12DAFE",
"n c #20DFEF",
"m c #0FE0E7",
"M c #13E1E5",
"N c #1DE3E6",
"B c #14E3EA",
"V c #1CE4ED",
"C c #1DE8EE",
"Z c #1FEAF0",
"A c #20E5EE",
"S c #20E9ED",
"D c #21E4F0",
"F c #21EAF0",
/* pixels */
"                                                                                  ",
"                                                                                  ",
"                                                                                  ",
"                                                                                  ",
"                                 $%%$$$$@@++++                                    ",
"                             224MMBBBBBBMmmi,:#XOX                                ",
"                          22aBBVBBMgMgggggppimii<;...                             ",
"                        5sVCVVVggfgddddyyryyyyyyuii<#..                           ",
"                      5NSAnnf7fffddrrrrrrrrwqqq00ttuu<;..                         ",
"                    3ACCnnnfffrfddrrrr3orwqwwr9q9w00t<<>#.                        ",
"                   5NSZhhhfffffrrrrrrrqqwrwwroow9909000tu;..                      ",
"                 5ASSAhhfffrfrrrrrqqqqqwwq*wowww9988880=t<;&.                     ",
"                5SSAnnnfffddrrrrrqqwwwrww*wwowwo988888*00><<&.                    ",
"               7SSAnnnfffdddrrrrqqwq*wwwwwwwowow8988888***=<<;.                   ",
"              7SAnnnfffffdrrrrwwqq9wwwwooqwowwoo899888o88**==<&.                  ",
"             7ASnnfnfffdrrrrwwww*999wo*wwoowwowo9888o88o****=><&.                 ",
"            7AFnnnffffrrrrrwwwwwcolokoow9999999999oooooooo88*=;<&.                ",
"           7SFnnnnfffrfrrrwwwwwoooooowoo99999999j99oooooo988**=>>&.               ",
"           AFFnnnffffrrrrwwcwwowoooeooow9999998rlr9oooo9ooo8***=<<#.              ",
"          7AFDnnffffrrrwwroowowoooooeowo999999wdllcojoooo9o8****=<;..             ",
"         7SFnnnffffrrr-wworrcococooowooooo9999rlllcwoooo*8o**o***;<;.             ",
"         AFFnnffffrrwwrowoooooooooooooow99o989llkklceo9oo88o*oo**=;t#.            ",
"        7Annnfffrrrrwwwoorocoroooocooooooo999elzllllcwooo8oo*oo***=<;X.           ",
"        AFnnnffffrrwwwwwcooooooooocvccvcccccrclllllllcoo88*ooo*oo=*>>&.           ",
"       7SDnhnfffrrwworoocowoooccfvllllllkzkzkzkkkzzzlle988o88o88***=<;..          ",
"       NFAnhfrrrrwwwroooooowocvcocllleklkzkkkkzzkkjklzlk888888o8o**=><#.          ",
"      5VDnhfffdrw-w9ocoooocfclkkvkllllkkjkjkkjzjkjjzkkzze9888o8*o***=<&..         ",
"      7FDnhffddrrww9ooroofvokkklclolkjjjzjjjkkjjjzkkkzjzze8888oo8***=>>X.         ",
"      NZVhfffrrqwww999ocfvkkkkkklljjoljjjkkjjzjzkjzjjzjjzce88888o8**8>>&..        ",
"     5VZhhffdrrqww999oovvokklojljojjljjjkkjzjjzjzjzzzjzzkllw8o8oo***=>>;..        ",
"     7ZVhfffdrrww99oorfvlkjjjkkceecrceecekjjzjjzzjjzkzzkzzzl98888oo**=>t..        ",
"     7CVhffrrrw99999wrooolkecwoooooooooo99kjzzzjzzjzzkzzzkkke88o8ooo*=>>O..       ",
"    2NVVfffrrwwwcoooclcocvccooooooooooocoovkkllllllzvllzkrvooooo*oo***>>#..       ",
"    2VVhfffrrrwrooockoccrooooocookcooooooocllllllzllvvewwooooooo88o***>>&..       ",
"    2CVhffrrrwroooovkrcoooooocoooeooocooocklllllzzlevokoowoooooo8ooo*==>>..       ",
"    2CVhff5rrwororcvooooooooooocooooooooockllllkeewooooooooeoooloo****=<;..       ",
"    2Snffrrrwwoooorooooooooooooowoooooocrcococwcoowoowowooocoooo88oo**=>>...      ",
"    2ANfrfrrrwwwcooooocooooocoooooocoooocovccwooowoowowocooooooo8o*oo*=>>...      ",
"    -Anfffrrwwwwoooooooooooooooooooocoooowwooocoowoooojooooooool88oo**=>>...      ",
"    3nf7rrrrrwwococoocoooocoooeoocoooooccoowoooowoojowoooooooooooo****=<>X..      ",
"    2CBffrrrorowooocooowooooowooooowocororoooocolooeooowoooooooo88oo**=>>...      ",
"    2Bhgfrrrrorowwowoooowowooooooccclcoooooooooooooowwooocoooooo8o8***=>>...      ",
"    2BBffrrwrrorowooooocwo9ooooccccclroocococoooooooooowooofcooo88oo**><=...      ",
"    %MVgfrrrrorowowowwooowo9vvvzlccvvrcoooooooocoooojoooovvvoooooo*o**=<;...      ",
"    $MBgrrrrwwrooccoooowqrcclllzllzvcoorooocoooooooooowrfvvvoooooo8**==<&...      ",
"    $6Vgfrrrrcorrooooccckvklzlzzlczccoooooooooooooooorcvvvcoooooo*8***>>&...      ",
"     4Bgrrrwwwwooooovvcozkllllzlvlvcoowroooooooooovcvvbbvvcooooo88***=>>O..       ",
"     $Bgfrrrrwrowccccocclkzzlzzzlvvkcoooocoooococcvvbnbvvcooooocoo***=<>...       ",
"     $MMddrqqwqq9wrkzlklllzlzlzzzvzvzvccccccccvbvvbbbbbvrwoooojo88***><=...       ",
"     @iMgyrrqwq9w99rkllklzlckzzzzzzxzzxxvbzxxbbvvvbbbvvdoowooooooo**=>>&...       ",
"      $Mgyrqqq9qw999ekklllzzzzzzzzzzzbzxzzxxbxbbbbbbvvejooooooooo*8*=<=....       ",
"      @agpreqww9w9999kkzllllzzzzzzzzzzxxzbxxbxbbbbbnvoooowoooooo***=>>&X..        ",
"      O:mgyrqq9ww9999wkjzllzlzjzlzzzxzxzbxxxvvvbbbceoooooooooooo***=>>#...        ",
"       @payqq9q9999999wkllllzkzzzzzzzzzxzbxbvvvvdrwoooooo9o9jooo**=>>=....        ",
"       O,myyqq9999999o99klllkzzzzlzzlzzzxzzvvcclooowoooo9ooooooo**=<>#...         ",
"        +iiyqwq99999o998wklljzjzkerecrcrrer9ooooowoooojoooo9o9oo**><&....         ",
"        X;puyq9999899889ocjlllzkro9oojoooooooooo89888888jo8888***=<>#...          ",
"         O<py00999988898ooellllkw99ooooooojooojo8o8o88o8oo8oo8**=>>&....          ",
"          Oui0q898898888ooocjllc9ooooooooooojooo9oooo8oooooo***=><=....           ",
"          .:ii0088988888ooookllc9o9oooooooojoooooo9o88o*oooo***><>#....           ",
"           O>ut09988joooooooozzojooojoooooooooojjooo*ooo*o*o*==>>&....            ",
"            X>ut0888oooooooooooooooooooooooooooooooooo*ooo**==>>&....             ",
"             .>uu099oooojoooojooooooojoooojoooooo9ooo*o****==<>&....              ",
"              .;uu09wooooooooooooooooooooooooo9ooooooo****=>>>&.....              ",
"               .;u<0=8*8*ooo8oo8oo**oooo888o8o8oo8oo*****=><>&.....               ",
"                .;t<0==*****o*o**oooo**oo888oo8**o*o***==>>>&.....                ",
"                 .#>t<=0*0o*o*ooooooo*oooo*oo********==>>>=#.....                 ",
"                  ..&<<>==*******oooooo**o*oo******===,>>&......                  ",
"                   ..#;<<<==****oo*o*****o*******==><>>&#.....                    ",
"                     ..&;><>,=====*==********===>><>>=&......                     ",
"                      ...#=><<<<>==========><>>>>>>=#.......                      ",
"                        ....#&>><>>>>>>>><><>>>>&#........                        ",
"                          .....O#&=>>>>=>>;=&&O.X.......                          ",
"                            ..................X.......                            ",
"                               ....................                               ",
"                                    ..........                                    ",
"                                                                                  ",
"                                                                                  ",
"                                                                                  ",
"                                                                                  ",
"                                                                                  ",
"                                                                                  "
};
