/* XPM */
static char *_eh2v_zibx5[] = {
/* columns rows colors chars-per-pixel */
"82 82 241 2 ",
"   c None",
".  c #000000",
"X  c #0C0C0C",
"o  c #171717",
"O  c #02172C",
"+  c #01353A",
"@  c #0D2930",
"#  c #282828",
"$  c #363737",
"%  c #2E312F",
"&  c #021A4E",
"*  c #023B44",
"=  c #142B56",
"-  c #102D52",
";  c #2B374D",
":  c #001D6A",
">  c #16157F",
",  c #161B7E",
"<  c #001D74",
"1  c #062568",
"2  c #012579",
"3  c #15237D",
"4  c #152B7C",
"5  c #112472",
"6  c #15347D",
"7  c #153C7C",
"8  c #1C3A77",
"9  c #15326A",
"0  c #233B6B",
"q  c #02444A",
"w  c #054856",
"e  c #0D535B",
"r  c #3B4249",
"t  c #374458",
"y  c #2F405D",
"u  c #0A4A68",
"i  c #0A5768",
"p  c #15447C",
"a  c #154A7B",
"s  c #15537B",
"d  c #155B7A",
"f  c #105776",
"g  c #0F5570",
"h  c #394A67",
"j  c #334A76",
"k  c #15647A",
"l  c #15687B",
"z  c #1C6B76",
"x  c #0B6271",
"c  c #2C6B70",
"v  c #474A49",
"b  c #474B58",
"n  c #4F5351",
"m  c #4A535C",
"M  c #525554",
"N  c #565A5A",
"B  c #5A5D5C",
"V  c #545857",
"C  c #4C514E",
"Z  c #5C605F",
"A  c #495668",
"S  c #555B68",
"D  c #565D74",
"F  c #4B5471",
"G  c #5C6365",
"H  c #546676",
"J  c #626564",
"K  c #6B6E6C",
"L  c #656968",
"P  c #6D716F",
"I  c #656976",
"U  c #6E7372",
"Y  c #6C727C",
"T  c #727574",
"R  c #757B7A",
"E  c #757A79",
"W  c #72756E",
"Q  c #3D403F",
"!  c #7D817D",
"~  c #81837D",
"^  c #170F86",
"/  c #170F88",
"(  c #180F8C",
")  c #161283",
"_  c #161A82",
"`  c #18118E",
"'  c #181788",
"]  c #1C1393",
"[  c #1C1A93",
"{  c #001D82",
"}  c #201795",
"|  c #221A96",
" . c #261E98",
".. c #231C8B",
"X. c #002787",
"o. c #172786",
"O. c #183786",
"+. c #1A2892",
"@. c #153593",
"#. c #2C249B",
"$. c #292798",
"%. c #30279D",
"&. c #332B9D",
"*. c #332C94",
"=. c #37339B",
"-. c #2A3392",
";. c #1538AE",
":. c #362EA0",
">. c #3B34A2",
",. c #3B39A3",
"<. c #433E9B",
"1. c #423BA5",
"2. c #443FA9",
"3. c #184687",
"4. c #19508E",
"5. c #2E4F92",
"6. c #166985",
"7. c #187689",
"8. c #17708F",
"9. c #287098",
"0. c #1B42AB",
"q. c #1C47B7",
"w. c #1651B3",
"e. c #3755A5",
"r. c #3251B0",
"t. c #396DAE",
"y. c #494499",
"u. c #5C5899",
"i. c #4C518B",
"p. c #536A8F",
"a. c #687588",
"s. c #767985",
"d. c #686D8F",
"f. c #4B44AA",
"g. c #4C4AAB",
"h. c #4643A6",
"j. c #524CAD",
"k. c #504BA2",
"l. c #4858A8",
"z. c #5552AE",
"x. c #5658AA",
"c. c #5A55B1",
"v. c #5D5AB2",
"b. c #525CB9",
"n. c #4955B9",
"m. c #625EB5",
"M. c #615EA3",
"N. c #5A69B3",
"B. c #4D6FAC",
"V. c #6563B6",
"C. c #6C6AB9",
"Z. c #6569B6",
"A. c #6875B7",
"S. c #7273BC",
"D. c #757BBD",
"F. c #706EB2",
"G. c #605E95",
"H. c #1B51C6",
"J. c #265ACB",
"K. c #1C71D7",
"L. c #2167CD",
"P. c #2476D6",
"I. c #3571CE",
"U. c #217BE1",
"Y. c #1C7DE1",
"T. c #476FCC",
"R. c #6D79C6",
"E. c #2E879A",
"W. c #388CA2",
"Q. c #1C8196",
"!. c #4D8E94",
"~. c #7D8286",
"^. c #778598",
"/. c #6D9495",
"(. c #4A99A9",
"). c #5590AE",
"_. c #6789B8",
"`. c #6A97B9",
"'. c #7497BE",
"]. c #7689B4",
"[. c #5DA5B2",
"{. c #79A8AB",
"}. c #67ABB7",
"|. c #75AAB9",
" X c #77AFB5",
".X c #3087DC",
"XX c #1988E6",
"oX c #1997EE",
"OX c #2690E5",
"+X c #19ACF4",
"@X c #299FE9",
"#X c #7B89C1",
"$X c #7D99C2",
"%X c #7CA8C1",
"&X c #7BB6C3",
"*X c #858987",
"=X c #8D918E",
"-X c #848D98",
";X c #8B9396",
":X c #969B98",
">X c #92958E",
",X c #9AA19E",
"<X c #8895A6",
"1X c #959DA6",
"2X c #9CA6A5",
"3X c #9AA6B6",
"4X c #81B4BB",
"5X c #A1A6A3",
"6X c #A7ACA9",
"7X c #ACB1AB",
"8X c #A6ADB4",
"9X c #ADB3B2",
"0X c #ACB7B8",
"qX c #B5BBBA",
"wX c #B4B9B7",
"eX c #B0B4AE",
"rX c #A1A39B",
"tX c #BAC1BD",
"yX c #C1C5BF",
"uX c #8199C4",
"iX c #82A6C4",
"pX c #83B5C5",
"aX c #9DABC2",
"sX c #B2BBC5",
"dX c #BDC7C4",
"fX c #C3C8C8",
"gX c #CCD1CE",
"hX c #CED4D1",
"jX c #D3D9D6",
"kX c #DADEDB",
"lX c #D4DAD7",
"zX c #D0D3CD",
"xX c #DCE1DD",
"cX c #DEE3E1",
"vX c #EBEDEC",
"bX c #E5E9E5",
"nX c #EEF2F1",
"mX c #FEFEFE",
"MX c #F6F8F5",
"NX c #F0F2ED",
"BX c #E1E4DF",
/* pixels */
"                                                                                                                                                                    ",
"                                                                                                                                                                    ",
"                                                                                                                                                                    ",
"                                                                                                                                                                    ",
"                                                                  Q $ Q Q Q $ % % # # o o X                                                                         ",
"                                                          C C G !.!.!.(.(.(.(.(.!.W.E.E.c c q X X X                                                                 ",
"                                                    M B /.).[.`.).).).).).).B.B.B.t.W.9.W.E.E.9.z e X . .                                                           ",
"                                                J /.[.}.`.[._.).A.N.B.l.l.l.l.e.e.l.e.e.e.e.9.9.Q.Q.Q.7.q . .                                                       ",
"                                            L /.}.|.}._._.A.N.v.M.x.l.j.g.h.h.h.e.,.,.=.0.=.5.-.0.4.8.8.7.7.w . .                                                   ",
"                                        L /.}.|.$X`.A.A.N.N.v.c.l.g.g.h.2.1.,.,.>.>.>.:.:.$.$.$.-.+.@.@.4.6.7.x + .                                                 ",
"                                      P {.&X|.'._.A.Z.V.c.z.c.j.f.2.h.1.1.1.>.:.:.:.&.&.%.#. .$.$.[ +.o.@.3.4.6.7.e . .                                             ",
"                                  K /. X%X'.#XS.C.C.m.v.z.j.2.2.2.1.,.,.,.>.:.:.:.&.&.%.#.#. . .| [ [ [ [ o.O.3.6.6.i q .                                           ",
"                                P {.pX%X#X].S.C.V.m.v.z.j.2.2.1.1.>.>.:.:.:.:.:.%.%.%.%.#.$. .| [ } ] ] ` ' o.o.O.s 6.6.w .                                         ",
"                              T {.pX$X'.R.S.C.m.m.c.z.f.2.2.1.1.>.&.&.%.&.%.%.%.$.%.#.#.#.#. .| } ] ] ] ] ' / ' o.o.p d l w .                                       ",
"                            T {.iXiX].D.S.C.m.m.c.j.f.2.2.>.:.:.&.%.%.%.#.#.#.#.$.$.#.#. .#.| } [ ] ] ` ` / / ' ) , 3 7 d l e .                                     ",
"                          E {.pXuXuXR.S.C.V.m.c.j.f.2.1.>.:.:.:.%. . . .,.:. .,.n.b.1.#. .v.T.f.#.[ %.,.| ` / ) ) ) , 3 7 s l w .                                   ",
"                        T 4XiXuXuXS.C.C.m.c.c.j.2.2.1.>.2.%.:.#. .$.#.Z.+X@Xb.O.q.OX.X.X.XT.Y.XXP.I.I.n.( ( ( / ^ ) > > , 6 f k w .                                 ",
"                      P {.pXuXuXD.S.C.m.c.c.j.2.2.:.>.R.U.T.b.n. .%.b.+X+X+X+XK.L.L.r.0.0.;.L.oX+XXXT.%.n.b.( / ) ^ > > > 3 8 d l q .                               ",
"                      <XpXiX<X#XS.C.m.c.j.j.2.1.2.R.T.U.U.oXXXU.T.r.XXOX.X@X@XXXL.;.@.0.q.0.L.oX@X+XoXU.P.H.g.' / ^ ^ > > > 3 7 d l q .                             ",
"                    E 4XiXuXR.R.C.C.c.c.2.1.1.1.2.J.H.J.U.oX+XoXXXK.K.r.w.L.q.w.J.K.P.I.;.O.0.J.P.U.oXOXq.q.J.| ( / > ^ > > , 4 p k i . .                           ",
"                  T 4XpXuX#XS.S.C.m.c.2.2.1.1.%.&.b.[ ;.U.XXY.Y.K.H.@., @.0.H.P.K.P.K.0.o.3 ;.H.H.J.OXP.K.;.H.n./ ^ ^ ^ > > > > 4 s l w .                           ",
"                  /.pXuXuXD.S.m.m.c.2.1.1.1.k.<.j.N.@.-.r.r.t.t.r.l.0 ; 5.T.T.I.I.T.r.r.e.e.r.t.r.r.t.e.t.r.r.l.*.*.^ ^ > > > > , 7 d k + .                         ",
"                T  XuXuXS.S.C.m.c.2.1.1.1.%.-XyXfX>XK n B :XdXfXhXBXvXnXnXnXvXvXbXxXlXdXhXkXfX2Xs.G n N R ;X0XtXrXE ..^ ^ > > > , 4 p l i . .                       ",
"                {.aXuX#XS.C.m.m.j.j.1.1.%.%.-XyXjX:XP n B 5XjXjXbXnXmXmXmXmXmXmXmXnXcXjXxXvXkX6XR L n B R :XtXdX2XY ( ^ ^ ^ ^ ^ > , 6 d l * .                       ",
"              T  XiX#X#XC.m.m.j.2.2.1.:.%. .-XfXzX:XT M Z ,XzXhXxXnXMXmXmXmXmXmXMXvXcXgXcXcXjX5X! G n N R ;XqXdX,XT ..( ( / ) ^ > , 3 p l g . .                     ",
"              /.pX$XR.S.C.m.c.j.2.1.:.%. . .;XyXhX5XT M Z ,XxXxXbXMXmXmXmXmXmXmXmXMXvXjXcXnXxX7X! L n B ! ,XfXgX2XT ..` ( ( / ^ ) ) 3 6 d k + .                     ",
"            L  X%X#XD.C.m.c.j.f.1.:.%.%. . .F.3X8Xs.V v C ! 5X5X8XwXyXyXyXfXyXtXqXeX7X,X9X9X5X*XB C v v Z R ;X1X-XG.| ` ( ( ^ / ) ) ) 4 a l u . .                   ",
"            U &X$X].F.C.m.c.f.1.1.:.%. .| } } } <.# $ $ $ Q Q v C V Z J J J J J J Z M M C v r $ $ % % % $ % o F ] ] ` ` ( ( ( / ) ) ) 3 7 k k . .                   ",
"            /.&X$XR.C.m.c.j.2.1.:.%.%. .} } } } 1.Q v n n B L ~ =X>X:XqXgXlXzX9X7X7XwX6X,X! W K Z V n n C v % D } ] ] ] ] ` ( ( ^ ^ ) , 6 s k * . .                 ",
"          J }.%X].C.V.v.j.f.1.>.%. . .| } } ] } *.B t b T = 9 ;X:X= 5 j kXnX-X5 1 0 9XqX~.9 1 A ! h - A P ; r G.] ] ] ] ] ( ( ( ( / ) , 3 a l i . .                 ",
"          L &X$XR.C.V.c.j.2.1.:.%. . .} ] } ] } #.K Y S 6X5.5 ;XwX5.{ 5.BXNX3X_ X.5.tXwX^.X.2 ;X! j < <Xs.A J M.} } ] ] ] ] ( ( ^ ) ) _ 3 7 k f . .                 ",
"          ~.|.'.A.Z.v.j.f.1.&.&.%. .| } ] ] ] ]  .I *XT *X<Xi.:XeX3X3 8XbXxXbXB.2 8XyX6X5X3.5.,XW G i.2XJ R J y.} } ] ] ] ` ` ( ( ^ ) ) , 6 k l O . .               ",
"        C /.%X_.C.m.c.j.2.>.:.:.#. .| ] ] ] ] ] | D U P G :X;XT Y yX1XkX1Xp.NXfX^.gX1Xh ,X~.;XU m L :XR V T M y.| } } } ] ] ` ( ( ^ ^ > , 4 s l * . .               ",
"        V [.'._.Z.m.j.f.2.:.:.#.#.| | ] ] ] ] ] ] F Z G h T =XS 9 9XjXzX8 < 3XbXjXdX5.: a.,X=Xh 9 L W h b B v 1.| | } } ] ` ] ( ( / ^ ^ , 3 a l w . .               ",
"        B {.'._.Z.v.j.f.1.>.:. . .| | ] ] ] ] ] } D S ! 1 D >Xj < B.lX;X2 X.8 lXxX^.2 X.0 ,X~.6 2 R W 9 A J v <.| | } ] ] ` ` ` / / ^ > > 3 p l u . .               ",
"        B }.`.A.Z.c.j.2.1.:.:.#. .| ] ] ] ] ] ] ` F.G 2Xp.D :X<X2 ^.jXfXO.X.M.BXxX3XO.2 d.5X~.7 5.6XK 0 <XW Y 1.| | } } ] ] ` ` / ^ ^ ^ > 3 p k f . .               ",
"        B }.`.A.N.z.j.1.,.:.#.#. .| ] ] ] ] ] ] ] u.K ~ 0XY ! wXd.8XeXBX3XO.lXxXwXzXd.5.eX*X! D 3X! J ~.2Xn Y | | } } ] ] ] ` ( ( / ^ > > 3 7 k f . . .             ",
"        B }.`.Z.c.z.f.1.:.:.%. . .} | ] ] ] ] } } <.J J >XT A :XqX5Xh 7XvXfXNX<X0 tX0X6X5Xh A *X:Xm m ~ K v d.| } } ] ] ] ] ] ( ( / ^ ^ > , 7 k d . . .             ",
"        N }._.A.c.j.f.1.>.:.#. . .| ] ] ] ] ] ] ] y.B b K G 1 p.6XY : 5.kXNXfX8 < p.tXeXa.1 0 W L 9 y W n r d.| } } ] ] ] ` ( ( / / ^ ^ ) 3 7 d d . . .             ",
"        B }.).N.x.j.f.1.>.:.#.#. . .| ] ] } ] ] ] ,.P S I ;X1 j 7Xa.2 2 sXMX3X< 2 j tX0Xj 2 0 ;XG 1 j >Xt G i.| } } ] ] ] ` ] ( ^ ^ ^ ^ > 3 7 k d . . .             ",
"        M [._.N.x.g.f.1.:.:.%.#. .| } } } } } } } %.P :XI eXp.a.5XdXp i.bXbXbXp.< 3XtXeX^.1 <X=XI y 3XR U T u.| } } } ] ] ] ] ] ( / ^ ^ ) 3 7 k d . . .             ",
"        C }.).N.z.j.f.1.:.:.#.#. . .| } } } } } | ..I *XL E 0X*XI 0X8XdXfXa.vXfXd.lX^.I ,X^.2XB G =X5Xn T V u.| } } } ] ] ] ] ] ( / ^ ) ) 3 p k f . . .             ",
"        v [.).N.x.j.1.1.>.:.#.#.#. .| | } } } } } | D L B h *X~.- a.gXlXp.& <XbXlXqXy 1 ~.,X~.= m E G t B v y.| } ] } ] ] ] ` ` ( / ^ ) , 3 p k g . . .             ",
"        Q (.[.N.z.f.1.1.:.:.:.#.#. .| | | | | } | } d.L s.= R =X1 8 tXtX= 2 9 hXkXa.1 1 H >XD & F =Xt y T V *.} } } ] ] ] ] ` ` ( ^ ^ ) , 3 a l u . . .             ",
"        Q !.[.B.x.g.h.1.:.:.%.#.#. . .| | | | | | } d.E 9XH R eXp.h fXkX^.& d.vXlX9X9 0 6X=XI = 2X*Xm -XE T <.} ] ] ] ] ] ` ` ` ( ^ ^ ) , 4 s k w . . .             ",
"        % H [.B.l.g.r.1.>.%.%.%.%. . . .|  .| | | } G.L -X6XG *X0X2X-X8XcXd.kXfX~.gX^.<X5XG U -X,XV U 5Xn I %.] ] ] ] ] ] ` ` ` ( / ^ > , 6 s k * . . .             ",
"          A [.B.l.g.2.,.:.:.%.%.%. . . . .| | | } } u.n B ! r h 6X5X; h kXNXbXD & ;XtXeXY & G ~ S ; J L r S } ] ] ] ] ` ] ] ` ` / ^ ) ) 3 7 k d O . .               ",
"          r (.).n.g.2.,.>.:.%.%.%.%. . . . .| | } } x.L m *XA & *X:X= & <XMX0X& & h tX,X; & S *X; - *Xm A u.] ] ] ] ] ] ] ` ` ` / ) ) _ 3 p k d . . .               ",
"          $ !.(.B.h.h.,.>.:.&.%.#.#. . . . . .} } } <.*X=X*X8Xh >XyXd.= fXvXvXD & 5XqX5XS = 8X! m I 7XG ~ d.( ] } ] ] ] ( ] ( ( / ^ > , 4 s k u . . .               ",
"          # c [.B.l.1.1.:.:.:.%.%.#.#. . .| | | } ] *.K =XG 6X2XE *XfX8XlXa.kXgX;XzXs.Y >X1X=XV K wXP J L G.] ] ] ] ] ] ( ( ( ( / ) ) , 7 d k * . . .               ",
"            % (.W.l.e.,.>.:.%.%.%.#. . .| } } } } ] &.B K r G >Xb ; 9XkXs.O Y BXxX5X= % *X>Xm @ K T ; B v i.] ] ] ] ( ( ( ( ( ( / ) _ 3 p k s . . . .               ",
"            # E.(.e.,.,.=.:.%.%.#. . .|  .} } ] ] ] %.Y *XY ; :XI O -XzXF O = gXlXs.O - =X*X; ; :XZ ; *XZ i.] ] ] ( ( ] ( ( ( ( ^ _ , 6 s k u . . .                 ",
"            o c W.t.e.e.:.:.$.%.#. . . .| } } } } ] ] s.E :XE *X6X;X9XgXhX9XfXcXgXqX1X,X:XR T -X=XL ! R n y.( ] ] ` ( ( ( ( ( / ) _ 3 7 k d + . . .                 ",
"              # E.!.e.=.,.$.%.%.#. . .| | } ] }  .h.f.a.L L U *X-X5X9XqXhXkXkXgXfX9X6X:X=X~.T K J J J B B M.<...( ` ( ( ( ( / ^ _ , 4 s l u . . . .                 ",
"              o c W.9.e.,.:.%.$.#. .| } } } ] ] *.7XjX7XT C L eXfXgXBXvXvXvXvXnXbXkXgXfXkXfX;XK V M U ;XtX8X! 5.] ` ( ( / ^ ^ ^ _ 3 p k s * . . .                   ",
"                o 9.W.5.0.$.$.$. . .} } } ] ] ] =.5XhX9XT n L qXkXxXnXmXmXmXmXmXMXvXkXlXvXkXrXP V V R ,XdXtX! l.` ` ( / ^ ^ ^ > _ 6 s k u . . . .                   ",
"                o e W.9.5.&.$.+.| | ] [ ] ] ] ] 1.6XzXeXT M K qXjXkXnXmXmXmXmXmXMXvXlXjXbXlXrXP N V R :XdX0XE u.( ( ^ ^ ^ ^ > > 4 a k s + . . .                     ",
"                  o z W.9.-.$.$.[ [ ] ] ] | $.#.k.5XhXeXP C J sXjXcXnXmXmXmXmXmXmXvXlXlXvXlX:XK V n T ,XdXqXT u.*. .....> > > 3 7 d k w . . . .                     ",
"                    o 7.9.4.@.+.[ [ ] ] | #.=.y.i.I s.I b b h I a.s.s.~.*X~.~.^.~.s.Y d.s.s.S b r ; b S Y I b F i.<.*.....> 3 8 d k u . . . .                       ",
"                    X e E.9.0.+.[ ] ' ] ] | #.%.%. .%.%.%.%.%.#.&.&.&.&.:.*.&.&.*.&.%.%.:.:.*.&.=.=.*.=.*.*.*.*.*....., > o.6 a l 4.q . . . .                       ",
"                      X x Q.8.3.+.[ ' ] ` ` ( ( ( ] ( ( ` ` ` ] ( ] ] ( ( ( ] ] ` ] ] ] ( ] ] ] ] ` ( ( ( / ^ ^ ^ > > > 3 8 p k s q . . . .                         ",
"                        . x 8.8.3.+.' ' ` ^ ` ` ( ( ( ( ` ( ` ` ] ] ( ] ( ] ( ( ] ` ( ` ( ] ( ` ( ( ( ( ^ ^ ^ ^ > > > , 4 a k d w . . . .                           ",
"                          . i 7.6.@.+.o.' ' ^ ` / ( ( ( ( ( ( ( ( ( ( ( ( ] ( ( ( ` ] ] ] ( ` ( ( ( ( ( ^ ^ ^ > > > 3 6 a l d q . . . .                             ",
"                            . i 8.6.3.o._ _ ^ ( / / ( ( ( ( ( ( ( ( ( ( ( ( ( ( ( ( ( ( ( ( ( ( ( ( ^ ^ ^ ^ > > , 3 6 s k k - . . . . .                             ",
"                              . e 7.6.3.7 o._ ) ) ) ) / / ^ / / ^ ^ ^ / / ( / / ( / ( ( / ( / / / ^ ^ ) ) > > , 4 7 f k d * . . . . .                               ",
"                                . w 7.6.4.O.4 _ _ ' ) ) ) ^ ^ ^ ^ ^ ^ / ^ ^ ^ ^ / / / / / ^ / ) ^ ) ) > > , 3 6 a d k s w . . . . .                                 ",
"                                  . q i 6.k 3.4 o._ , ) > ) ) ^ ^ ^ ^ ^ ^ ^ ^ ^ ^ ^ ^ ^ ) ) ) ) ) ) , , 3 4 p f k k u * . . . . .                                   ",
"                                    . . e l l 6.a 6 4 3 , > > > > > > > ^ > ^ > > ^ ^ ^ ) ) ) _ , , 3 6 7 s k k a w . . . . . .                                     ",
"                                      . . + i l l d a O.4 3 3 , , , > > > > ) ) > ^ > , , _ 3 3 4 7 p s k k f u + . . . . .                                         ",
"                                          . . q f k k k f a 7 6 4 4 5 3 3 , 3 3 , , 3 4 4 6 7 p s d l l d g * . . . . . .                                           ",
"                                            . . . + i k l l k d s a p p 7 7 7 7 7 p p a s d k k l d s u + . . . . . . .                                             ",
"                                                . . . . * u f k k l k k k k k k k k l l k k d a u * . . . . . . . .                                                 ",
"                                                    . . . . . O * w u g g d d s f g g u w q O . . . . . . . . .                                                     ",
"                                                        . . . . . . . . . . . . . . . . . . . . . . . . . .                                                         ",
"                                                              . . . . . . . . . . . . . . . . . . . .                                                               ",
"                                                                        . . . . . . . . . .                                                                         ",
"                                                                                                                                                                    ",
"                                                                                                                                                                    ",
"                                                                                                                                                                    ",
"                                                                                                                                                                    ",
"                                                                                                                                                                    ",
"                                                                                                                                                                    "
};
