/* XPM */
static char *d6t0f_1r21x[] = {
/* columns rows colors chars-per-pixel */
"82 82 245 2 ",
"   c None",
".  c #000C0E",
"X  c #001214",
"o  c #00171A",
"O  c #000E10",
"+  c #031332",
"@  c #00252A",
"#  c #042E37",
"$  c #343635",
"%  c #282B2A",
"&  c #021A4E",
"*  c #003B44",
"=  c #132953",
"-  c #2B374D",
";  c #001D6E",
":  c #062568",
">  c #012579",
",  c #16326F",
"<  c #233B6B",
"1  c #01434C",
"2  c #084A54",
"3  c #374458",
"4  c #37444E",
"5  c #065A66",
"6  c #354B71",
"7  c #006473",
"8  c #036978",
"9  c #00606E",
"0  c #3C747C",
"q  c #464A48",
"w  c #474B58",
"e  c #4D5356",
"r  c #565A5A",
"t  c #555958",
"y  c #4C514E",
"u  c #5C605F",
"i  c #495668",
"p  c #555B68",
"a  c #4F5872",
"s  c #5C6365",
"d  c #57687B",
"f  c #626564",
"g  c #6A6E6C",
"h  c #656968",
"j  c #6D716F",
"k  c #656976",
"l  c #6E7372",
"z  c #6C727C",
"x  c #717574",
"c  c #757B7A",
"v  c #757A79",
"b  c #72756E",
"n  c #3D403F",
"m  c #7D817D",
"M  c #81837D",
"N  c #170F86",
"B  c #170F88",
"V  c #180F8C",
"C  c #161383",
"Z  c #161B83",
"A  c #18118E",
"S  c #181888",
"D  c #1C1393",
"F  c #1B1B94",
"G  c #001D82",
"H  c #201795",
"J  c #221A96",
"K  c #261E98",
"L  c #231B8B",
"P  c #002787",
"I  c #162383",
"U  c #152B83",
"Y  c #17278A",
"T  c #153886",
"R  c #192795",
"E  c #183998",
"W  c #0C3385",
"Q  c #2C249B",
"!  c #29279A",
"~  c #30279D",
"^  c #332B9D",
"/  c #332C94",
"(  c #39319A",
")  c #293193",
"_  c #1538AE",
"`  c #362EA0",
"'  c #3B33A2",
"]  c #3839A3",
"[  c #2D38A0",
"{  c #433E9B",
"}  c #423BA5",
"|  c #443FA9",
" . c #154989",
".. c #15538B",
"X. c #155B89",
"o. c #165295",
"O. c #304E8A",
"+. c #15678C",
"@. c #007A8C",
"#. c #007485",
"$. c #16758C",
"%. c #156796",
"&. c #157B94",
"*. c #007A8C",
"=. c #1B42A9",
"-. c #1A4FB0",
";. c #3748A6",
":. c #3655A9",
">. c #2C53AF",
",. c #186FA6",
"<. c #3865B6",
"1. c #2F72B2",
"2. c #337A85",
"3. c #494499",
"4. c #515390",
"5. c #546990",
"6. c #687588",
"7. c #767985",
"8. c #686D8F",
"9. c #4542A9",
"0. c #4B44AA",
"q. c #4A48A9",
"w. c #524CAD",
"e. c #504BA2",
"r. c #4954AD",
"t. c #5652AC",
"y. c #5958B2",
"u. c #4A57B6",
"i. c #615EB2",
"p. c #4769B5",
"a. c #5765B6",
"s. c #5175B8",
"d. c #6668B9",
"f. c #6974BD",
"g. c #7076BF",
"h. c #6F6EA1",
"j. c #605E95",
"k. c #1B51C6",
"l. c #265ACB",
"z. c #1C71D7",
"x. c #2B70D0",
"c. c #217BE1",
"v. c #1C7DE1",
"b. c #476FCC",
"n. c #737BC1",
"m. c #6679C6",
"M. c #00869A",
"N. c #15849B",
"B. c #168599",
"V. c #328895",
"C. c #068DA5",
"Z. c #158BA3",
"A. c #1488A7",
"S. c #0195AB",
"D. c #029AAE",
"F. c #1595AB",
"G. c #019DB4",
"H. c #0A9AB5",
"J. c #1599B5",
"K. c #1889B3",
"L. c #3296AF",
"P. c #00A2BA",
"I. c #08A4B9",
"U. c #14A4BA",
"Y. c #33A1B1",
"T. c #7D8286",
"R. c #778598",
"E. c #6A969C",
"W. c #5488B8",
"Q. c #6D94A3",
"!. c #57ABB7",
"~. c #6FABB4",
"^. c #508D96",
"/. c #328DD4",
"(. c #04ACC2",
"). c #15ABC2",
"_. c #05B7CB",
"`. c #16B6CA",
"'. c #05BDD1",
"]. c #17BED1",
"[. c #32AFCB",
"{. c #198DE9",
"}. c #2690E5",
"|. c #19ACF4",
" X c #299FE9",
".X c #5392C3",
"XX c #7687C5",
"oX c #7998CA",
"OX c #688EC5",
"+X c #4FAFCE",
"@X c #66B5D3",
"#X c #77AFD0",
"$X c #0AC4D6",
"%X c #1AC5D7",
"&X c #28CADB",
"*X c #36C8D8",
"=X c #35D4E2",
"-X c #51C9D9",
";X c #70CBDC",
":X c #4AD7E4",
">X c #5ADAE6",
",X c #67DBE7",
"<X c #77DAE5",
"1X c #7BCCE0",
"2X c #7AE1EB",
"3X c #69E1EA",
"4X c #858987",
"5X c #8D918E",
"6X c #848D98",
"7X c #8B9396",
"8X c #969B98",
"9X c #92958E",
"0X c #9AA19E",
"qX c #8895A6",
"wX c #959DA6",
"eX c #9CA6A5",
"rX c #9AA6B6",
"tX c #A5AAA7",
"yX c #ADB4B4",
"uX c #B5BAB8",
"iX c #AAB0AF",
"pX c #A1A39B",
"aX c #BAC1BD",
"sX c #C1C5BF",
"dX c #86B5D3",
"fX c #B2BBC5",
"gX c #BDC7C4",
"hX c #83DBE8",
"jX c #82CEE1",
"kX c #83D6E6",
"lX c #C3C8C8",
"zX c #CED4D1",
"xX c #D3D9D6",
"cX c #DADEDB",
"vX c #D4DAD7",
"bX c #CED2CD",
"nX c #DCE1DD",
"mX c #DEE3E1",
"MX c #EBEDEC",
"NX c #E5E9E5",
"BX c #EEF2F1",
"VX c #FEFEFE",
"CX c #F6F8F5",
"ZX c #F0F2ED",
"AX c #E1E4DF",
/* pixels */
"                                                                                                                                                                    ",
"                                                                                                                                                                    ",
"                                                                                                                                                                    ",
"                                                                                                                                                                    ",
"                                                                  0 V.Y.Y.!.L.L.L.V.B.0 5 2                                                                         ",
"                                                          ^.!.+X-X:X>X>X:X:X:X:X:X=X=X=X*X%X).Z.8 *                                                                 ",
"                                                    ^.+X>X>X>X,X>X-X+X+X+X+X!.[.+X[.+X[.[.*X&X&X%X$XM.8 #                                                           ",
"                                                !.;X3X,X;X;X@X+X.XW.W.s.s.p.p.<.<.p.1.<.1.L.K.[.[.%X&X$X_.@.1                                                       ",
"                                            ~.,X3X,X;X@X@XOXOXf.a.a.a.r.r.r.r.r.;.;.;.;.;.>.>.>.,.1.J.`.%X$X'.*.*                                                   ",
"                                        E.;X2X<X1X@XOXOXf.a.u.y.y.u.r.q.9.| ] ] ] ] ] ] [ [ ) E =.=.-.,.K.).].'.(.8                                                 ",
"                                      #X3X2X<X#XoXOXf.f.a.y.w.w.q.9.9.} } } ' ' ` ` ` ` ~ ! ! ! ! R R E =.,.K.).%X'.M.1                                             ",
"                                  E.<X<X<X#XoXOXf.d.a.y.t.w.w.| | } } ( ' ' ' ` ` ` ` Q Q Q K K K R F R R E o.,.J.`.$X_.7                                           ",
"                                ~.<XhXjX#XoXn.n.d.d.y.w.| | | } } ' ` ` ` ` ` Q Q Q ~ ~ Q Q K J J D D F F R Y E o.,.U.%X'.@.                                        ",
"                              ~.2XhX1X#XXXn.d.d.a.y.w.w.| } | } ' ^ ` ^ ` ~ ` Q ~ Q Q Q Q Q K K J D D D A S S Y E  .%.F.`.'.M.                                      ",
"                            ~.hXhX#XdXXXn.m.d.y.y.t.0.| } } } ` ^ ~ Q Q Q Q Q Q Q K Q Q Q K K J J D D D A A S S S Y E %.A.`.'.M.                                    ",
"                          ~.2XhXdXoXn.n.d.i.i.t.w.0.| } } ` ~ ~ Q Q Q K ] ~ Q ] w.a.| Q K u.b.9.Q F Q ] F A B S S S I T o.A.`.'.C.                                  ",
"                        ~.hXkXdXoXXXn.d.d.i.w.w.| | } } } ~ ~ ~ Q Q Q a.|.*Xp.Y =.}.}..X/.b.v.v.x.x.x.y.D A V V B N Z I T o.A.).'.M.                                ",
"                      E.hXhXjXoXXXn.d.d.y.w.w.| } } } m.x.b.b.| K ~ y.|. X|.|.z.z.l.k.=._ _ z. X|.{.b.~ u.a.V V N N C N Z T o.A.`.'.@.                              ",
"                      <XhXjXoXqXn.d.d.y.w.w.| } | b.b.c.c.{.{.c.b.l.v.}.}.}.}.{.l._ E =.-._ x.}. X|.{.c.z.k.q.S B N C > Z I T %.F.`._.7                             ",
"                    #XhXhXdXoXg.m.d.y.w.w.} } } | l.k.l.c.}.|.|.{.l.z.>.k.l.-.-.l.z.c.x.=.Y -.l.c.c. X{.>._ l.D B B N N C Z I T %.U._.D.1                           ",
"                  ~.hXhXdXrXn.g.d.i.w.w.} } ` ` ` a.F _ z.c.v.v.z.k.E > Y =.k.z.z.x.z.=.U > _ =.k.k.}.x.z._ k.u.V ; N N C > L Z  .,.U.$XC.                          ",
"                  <XhXjXdXn.g.d.i.w.w.} } ' | 0.e.a.E ) >.<.<.<.:.:.6 - :.b./.b.b.x.l.:.:.;.:.x.<.>.p.:.<.<.>.a./ { L N C C Z Z W o.Z.`._.8                         ",
"                oX2XjXdXn.g.d.i.y.w.| } } ` 6XsXlX9Xg t r 8XlXlXzXcXMXMXBXMXMXZXNXnXvXlXzXcXbX0Xv f e r l 5XyXyXpXx L N N N C > I T %.J._.D.*                       ",
"                kXkXdXXXn.d.i.i.w.| } ` ~ ~ 6XsXxX8Xj e u pXvXvXNXBXVXVXVXVXVXVXCXZXNXbXnXMXvXtXc f e r c 8XgXgXpXz L N N N N N Z U  .N.)._.@.                      ",
"              ~.2XjXoXXXg.d.i.w.w.} } ~ ~ K 6XlXbXpXj e u 0XxXzXnXBXCXCXVXVXVXVXCXMXmXbXnXmXvXtXv f e r c 8XaXgXeX7.L V V N N N Z Z T %.J._.G.*                     ",
"              <XhX1XoXg.d.i.y.w.} } ` ~ Q K 6XlXvXwXj t r tXvXnXNXCXVXVXVXVXVXVXVXZXMXxXNXBXnXiXm h t u 7.8XgXlXwXx L V V V N N B Z Y  .A.U._.#.                    ",
"            Q.2XkXoXQ.n.i.y.w.| } ` ~ ~ K J h.rXiXm r q y m tXtXiXuXsXsXsXlXaXsXuXuXiXeXiXyXtXM u y n q s x 5X8X6Xj.L D V V V N C Z I T %.J._.S.#                   ",
"            @X2X1XXXn.d.i.i.| } } ~ ~ Q J H H H } % $ $ $ n $ q w t u f f f f f f r t y y q 4 $ $ % $ % $ $ % p D D D V V V V N B C Z U ..N.`.P.7                   ",
"            <X<X#Xn.d.i.y.w.} } ` ~ K K J J H H } n q y y t h c 5X5X8XuXbXvXbXyXiXiXyXtX8Xm x h f r t y w q % 4.D D D D D D V V B C Z Y  .%.U._.M.o                 ",
"          ~.3X1XoXm.m.y.t.| } ~ ~ ~ K J H H D H / t w w x = < 7X9X< : O.cXBXqX: , < iXaX7., : p m 3 = i j - n j.D D D D D V V V B N C Z T +.F._.P.*                 ",
"          ~.3X;XoXd.i.y.w.| } } ~ K K J H H D H ~ g 7.a tXO.> 5XuXO.G O.cXBXrXC P O.aXuXR.P > Q.M 6 > 6XM i f j.J H D D D V V V B C C Z Y ..Z.).P.7                 ",
"          ;X2X#XOXm.y.w.| } } ~ ~ K J H D D D D J k T.x 4XwX4.8XyXeXU rXNXnXMXj.> rXaXiXeX6 4.8Xj a 5.eXf 7.f { J H D D D D V V B B C C Y  .&.U.(.*.o               ",
"        d ,X,X#Xm.d.y.w.| ' ` Q K K J D D D D D H d x j s 8X7Xv c lXwXmXqX5.MXgXR.bXwX6 tXT.7Xx e g 8Xx t j t 3.J H H H D D A A B B N C I T $.J.(.S.@               ",
"        ^.,X;XoXf.d.t.0.| ' ` Q K K H H D D D D D i u f 3 c 5Xi , iXvXzX6 ; rXNXxXlX6 ; 6.0X5X6 , h b 6 w u q } J J H D D A A V B B N C I T +.F.(.P.*               ",
"        ^.3X1XOXd.a.w.0.} ' ` Q K K D D D D D D D a p c : a 9X6 ; 5.nX6X> P T vXnXR.> P < 0Xm W : 6.b , i f q { J J H H D D A V V B N C Z W X.Z.(.P.2               ",
"        !.3X@XOXa.y.w.| } ` ` Q K J D D D D D D H h.l eX5.a 8XqX> h.nXlXE G 5.NXnXrXW P h.0Xm , O.iXh 3 qXb z } J J H H D D A V B N N C Z U ..Z.).P.8               ",
"        !.3X@XOXd.y.q.9.' ` Q K K J D D D D D D D j.l T.yXz m uX8.iXuXNXrXT vXcXuXbX8.O.yX4Xm a rXT.s T.eXy z K J J D D D A D V B B N C Z Y  .N.I.P.#..             ",
"        !.3X@XOXa.y.0.| ' ` ~ Q K J H H D D D D D { f u 8Xl i 8XuXtX< yXMXlXZXqX< aXyXiXtX6 p m 8Xe e T.l q 8.H H H D D D D A V V B N C Z ,  .N.U.G.*.X             ",
"        +X,X#XW.a.t.0.} ' ^ ~ K J J H D D D D D H { r w l s : 5.tXz ; O.nXZXlX, ; 5.aXyX6.: , j g = 3 j w 4 8.H H H D D D D A A V B N C C U  .N.J.G.M.X             ",
"        !.,X@Xs.a.w.0.} ' ` Q K K J J D H D D H H } b a k 7X: 6 iX6.; > fXCXrX> > 6 aXyX6 > 6 9Xd : 6 8X3 s 4.L H H D D D D A V B N N C C U  .N.J.P.M.o             ",
"        !.,X@Xs.y.r.0.} ` ^ Q Q K K J H H H H H H / l 8Xg iX5.8.tXaX6 O.NXNXNX5.; rXgXiXR.: R.5Xj < rXM x x j.J H H H D D D D D V B B N Z I ..&.J.G.M.o             ",
"        !.>X@XW.a.q.0.} ' ` ` Q K K J H H H H H H K k 4Xh m uX4Xj yXrXgXlX6.MXgXR.zX6Xd 0XR.tXs f 4XtXt x t e.J H H H D D D D A V B N C Z U ..N.H.G.M.o             ",
"        !.>X@X.Xa.r.0.} ' ^ Q Q Q K J J H H H H H H d f p w 4Xc = 6.xXcX5.& qXNXvXuX< = T.0Xm < w v k - u q 3.L H H D H D D A A V B C C Z U ..B.H.P.@.X             ",
"        V.:X@X.Xa.w.9.' ` ` ^ Q Q K J J H H H H H D 8.h z = 7.7X: , gXuX= : , bXcX6.: ; d 9Xi & a 5X3 - x t / H H D D D D D A A B N N C Z T X.B.H.P.#..             ",
"        0 :X-XW.a.r.| } ` ` ~ ~ Q K K K K J K H J H 8.v iXd v uX5.6 lXcXR.& h.NXvXyX, < tX5Xk = eX4Xw 6Xm x } D D D D D D D A A V B N C I T +.Z.I.P.7 .             ",
"        6 -X>X.Xp.r.| ' ` ` ~ Q ~ K K K K H K J J H j.h 4XtXf 4XyXtX6XiXmX8.nXlX7.bXR.8X0Xs x 6X8Xr x tXe g Q D D D D D D A A A B N N Z I T $.Z.I.P.5 .             ",
"          [.:X+Xp.u.| } ` ` ~ ~ Q Q K K K H H H H H j.e p M 4 3 tXtX- 6 cXMXNXa & 8XaXiXz & s M p - f h - s H D D D D D A D A A B N C Z U  .&.Z.G.P.1               ",
"          !.:X+Xs.u.| } ` ` ` ~ ~ K K K K K K J H H t.f e 5Xp & 4X8X= & qXCXuX& & 6 uX0X- & p 4X- = 4Xe i j.D D D D D D A A A A B N C Z U ..&.J.D.S.@               ",
"          V.:X-XW.:.;.| ' ` ` ~ ` K K K K J J J D D { 4X5X4XiX< 5XlX6.= lXZXNX4.& eXuXtXa = iXc w d iXf M k D H D D D D V A V V N N Z Z T +.B.I.P.M.X               ",
"          3 *X:XW.p.9.| ' ` ` ~ Q Q K K K K J J J D ( g 5Xs iXeXv 4XlXtXvXz nXbX7XbXT.c 5XwX5Xi j uXj f f j.D H D D D D A D V V N C Z I T $.Z.D.P.7 .               ",
"            Y.:X[.p.;.| ] ` ~ ~ ` K K K J J J J H D ^ r g 4 s 5Xw - uXvXc + z AXcXeX% = 4X9Xe % j b - t q 4.D D D D A A V V V V N S S , ..B.K.C.G.1 X               ",
"            2.=X-XL.:.;.] ` ~ Q Q Q K J J J J D D H ~ z 4Xk 4 8Xk + 6XzXi + = bXvX7.+ = 5X4X- - 8Xf - 4Xp 4.A D A A A A V V V V N Z I T +.B.H.P.M.@                 ",
"            2 *X*X+X<.;.[ ^ ! ~ Q K K J J H H D H D D 7.v 8Xv 4XiX7XiXbXzXyXlXmXbXuX8XwX8Xv x 6X5Xh m m e 3.D A A D A V V V V B C Z U  .$.Z.G.P.8 .                 ",
"              V.=X[.1.;.] ` ~ Q Q K K J J H H H K } e.7.f f x M 5XeXyXaXzXcXcXbXlXuXtX8X5XT.x g f h s r u j.{ K A A A V V V B B Z I T +.B.H.D.S.* X                 ",
"              2 &X*X[.<.;.[ ~ ! Q K J J H D D D ( iXzXiXx y h yXlXzXmXMXMXMXMXBXmXnXbXlXcXlX8Xg t e b 9XaXyXT.O.D V V V B N N N > Y  .$.A.D.P.@.X                   ",
"                B.=X[.1.>.[ ! ! K J J H J D D D ( eXzXyXx e h aXvXnXMXVXVXVXVXVXCXBXvXvXMXcX8Xj t e v 0XgXuXm e.V V B B N N C C I T +.B.H.S.G.1 .                   ",
"                1 %X&X[.>.;.) ! F J F J D D D D } tXbXuXx y g uXvXmXBXCXVXVXVXVXCXMXvXvXMXvXpXg t t c 8XlXuXv e.V A ; V V , V N , ..&.A.D.P.@.o                     ",
"                  0 %X*XL.-.E R K F D D D J Q Q e.tXbXiXb y f uXxXmXBXVXVXVXVXVXCXMXvXvXMXvX8Xg t e x 8XgXuXv j.! Q L L N N , L  .$.Z.S.G.D.* X                     ",
"                    F.%X[.1.=.! R D A D J Q ( 3.4.p 7.k e w w j.6.7.7.T.T.4XT.R.T.7.8.8.7.7.p w - q w p k k e i 3.3./ L L I S T +.B.C.C.P.8 X                       ",
"                    2 $X%X).,.E R F F A D J Q Q / ~ Q ~ ~ ~ ~ Q ^ ^ ^ ^ ` / ^ ^ ^ ^ / ~ ^ ( ^ ( ( ( ( ( / / / / / L , L , U T X.&.A.P.P.M.@ o                       ",
"                      8 $X%XJ.-.E R F A A A V A V A A D A D A D D A D V D V D V D A A A D D D A A A A V V V N N N N C Z S , X.&.Z.S.G.D.1 .                         ",
"                        *.$X%XJ.o.E R F S B A A V V V A A A A A A A V D V D V V D A A D V D A A A A V V N N N N , N > Z T ..&.Z.S.S.G.9 X                           ",
"                          M.$X`.K.,.E Y F S B B B V V V V V V V A A V V V D V V A A V D A V A V V V V B N N N V N N , T X.&.N.C.S.P.#.o                             ",
"                            M.'.`.J.%.E Y Y S B B B V V V V V V V V V V V V V V V A V A V V V V B B B N N N N , Z I  .+.$.N.C.S.P.@.@ o                             ",
"                              C.$X`.J.%.o.T Y S S S C B B N B B N N N N V N V V V V V V V B B B N C N C C > L , T  .+.&.N.S.S.P.@.@ X                               ",
"                                M.'.%XU.,.o.T Y I S S C C N N N N N N V V N N V N N V N N N B N N C N > Z Z I Y ..$.B.Z.S.D.P.@.@ X                                 ",
"                                  @.'._.U.F.%. .T Y Y Z Z Z C N N N C C N V V V N N N N C N C C Z Z Z I U T  .+.&.N.C.P.P.G.8 @ X                                   ",
"                                    7 G.'.`.U.A.%. .T Y I Z Z Z N > C C ; V , V N N V , C C S Z Z I U T  .+.$.B.Z.C.C.P.S.9 o o                                     ",
"                                      1 C._._.).J.N.%.o.T U U I I Z > Z Z Z Z S N , Z Z I I , Y U  ...+.$.B.A.F.D.G.P.M.1 O                                         ",
"                                          8 S.'.'.U.J.Z.&.%... . .T Y U U U I U L L U T T T  ...+.$.B.B.Z.F.G.D.P.S.8 @ .                                           ",
"                                            * @.G._._.).U.F.Z.&.%.+.%.X. . . ... .....X.+.$.&.B.B.Z.K.G.D.G.P.G.@.* X o                                             ",
"                                                1 #.S.P._.(.).U.F.F.Z.B.N.N.&.N.&.B.B.B.Z.F.F.K.H.G.S.G.P.S.@.1 o O                                                 ",
"                                                    # 7 M.G.P.(.(.(.I.).I.J.J.J.J.J.H.H.D.P.G.G.P.P.G.M.7 * X O                                                     ",
"                                                        @ * 7 *.S.P.P.P.P.P.G.G.G.P.P.P.P.P.G.S.M.9 1 @ . X                                                         ",
"                                                              X @ * 2 7 #.@.*.M.M.M.@.#.7 5 1 @ o . X                                                               ",
"                                                                        . X o o X X X . . .                                                                         ",
"                                                                                                                                                                    ",
"                                                                                                                                                                    ",
"                                                                                                                                                                    ",
"                                                                                                                                                                    ",
"                                                                                                                                                                    ",
"                                                                                                                                                                    "
};
