/* XPM */
static char *d55s7_qcpfp[] = {
/* columns rows colors chars-per-pixel */
"82 82 98 2 ",
"   c None",
".  c #00BCBE",
"X  c #02BEC0",
"o  c #00BFCA",
"O  c #06BFE0",
"+  c #03C2C4",
"@  c #08C5C7",
"#  c #04C4CD",
"$  c #0BC6C9",
"%  c #01CACE",
"&  c #0DCACC",
"*  c #10CDCF",
"=  c #02C4D4",
"-  c #08C7D0",
";  c #02CCD3",
":  c #0CCBD3",
">  c #05C3DE",
",  c #05CCDD",
"<  c #0BCDDB",
"1  c #12CED2",
"2  c #14CFDD",
"3  c #03D1D6",
"4  c #0BD4D7",
"5  c #05D4DD",
"6  c #0ED1DC",
"7  c #05D8DF",
"8  c #0CDADD",
"9  c #15D2D4",
"0  c #18D5D7",
"q  c #14D3DB",
"w  c #1AD6DA",
"e  c #12DCDF",
"r  c #1DDADC",
"t  c #21DDDE",
"y  c #06C0E2",
"u  c #0AC4E5",
"i  c #06CBE2",
"p  c #0ECAE6",
"a  c #06CDEB",
"s  c #0DCCEA",
"d  c #12CDE5",
"f  c #12CCE9",
"g  c #06D5E2",
"h  c #0DD2E5",
"j  c #06DAE2",
"k  c #0BDCE5",
"l  c #06D0EC",
"z  c #0DD3EC",
"x  c #0FDDE8",
"c  c #14D3E3",
"v  c #19D4E3",
"b  c #16DBE4",
"n  c #1CDBE3",
"m  c #15D2EB",
"M  c #19D5EC",
"N  c #13DBEA",
"B  c #1CDBEE",
"V  c #07CEF1",
"C  c #07D4F2",
"Z  c #09D5F2",
"A  c #07DBF6",
"S  c #0ADAF5",
"D  c #06DEF9",
"F  c #0BDCF8",
"G  c #13D6F1",
"H  c #18D7F0",
"J  c #11DAF3",
"K  c #18DCF3",
"L  c #21DEE2",
"P  c #20DFEF",
"I  c #0FE0E7",
"U  c #13E1E5",
"Y  c #1DE3E6",
"T  c #14E3EA",
"R  c #1CE4ED",
"E  c #1DE8EE",
"W  c #0CE0F7",
"Q  c #06E6FC",
"!  c #09E3F9",
"~  c #06E9FD",
"^  c #09EAFC",
"/  c #1FEAF0",
"(  c #25E2E4",
")  c #29E5E6",
"_  c #23E4EB",
"`  c #29E7E9",
"'  c #20E9ED",
"]  c #2DEAEC",
"[  c #31EDEF",
"{  c #21E4F0",
"}  c #21EAF0",
"|  c #2EEDF0",
" . c #31EFF1",
".. c #35F2F4",
"X. c #38F5F6",
"o. c #3AF7F8",
"O. c #3DF9FB",
"+. c #41FDFF",
/* pixels */
"                                                                                                                                                                    ",
"                                                                                                                                                                    ",
"                                                                                                                                                                    ",
"                                                                                                                                                                    ",
"                                                                  & * & & & & & $ $ @ @ + +                                                                         ",
"                                                          9 9 w e U T T T T T T U x I k 8 4 % o + X                                                                 ",
"                                                    9 9 b T T T T T T N T N N N b x x x x x x k 7 3 . . .                                                           ",
"                                                0 b E E E T R B B M N m m m m h z f h h h h z G j k k 7 % . .                                                       ",
"                                            w n E E R R B M M H N m m m f f G f s f f s G V O s a g g j j 7 ; . .                                                   ",
"                                        0 Y E E E R M M M M m m m f f f f f f f O f O f O f f O i u i i g g 7 5 % .                                                 ",
"                                      r Y } R _ M B M M m m f m f f f d f f f f f f f O O f f O u u i u i i g 7 j 3 . .                                             ",
"                                  r Y ' } R K P M M M M m m f f f f p f O f f O O f O s f O O f u y y y y y , h g 7 3 ; .                                           ",
"                                r ' } ' P B B M H M m m f f f f f p f u f u O f f O f O f O O O y u O O y y y > i 5 7 g 3 .                                         ",
"                              r _ } _ K B B M M M M M f f f f f p u p p f u s s f O O f f O O O u y y y y y > y > > , 5 7 ; .                                       ",
"                            r ' { { P P B B M m M f f f f u p p u p u u O u f O O O O O O O O O u O y y O y O y y > > , 5 5 3 .                                     ",
"                          r ' ' P P B B M M M M f f f f f f u p u u u u f u O f H H H O f H H G u O s s u y y > y > > > , 5 7 ; .                                   ",
"                        r ' } { P B M M M M f f f f f f f u p u u u u M ^ ! N > l D W J J J A A F F G m O O y y O y > > > , 5 5 3 .                                 ",
"                      r ' ' { P P B M M M M f f f f u K F G G f u u M ^ ! ~ ~ A S Z z a a a A ! Q D G u m m O y y y O > > > , 5 7 % .                               ",
"                      ' } { { B B M M M f f f f f G G F F D D F S m D ! F ! ! D l a i a a a A ! Q Q Q F Z Z m y O O y O > > > , 5 7 % .                             ",
"                    t ' _ { B B M M M M f f f f f Z V C F D Q Q D C Z l z Z a a l S S S a > a Z S S Q D a V Z y y y > O > > > > , 7 3 . .                           ",
"                  r ' } P P M M M M M f f O f f p G y s A D D D A z i > i a C F F F C a > , a a a V F F Z a a m O O O u O > O > , , 5 3 .                           ",
"                  B ' { P P P M M M f f f f f f d M i i z z m m z s < : c G Z J S N z z z p m z Z m N h z z z N p d > > O O O > > , 5 5 % .                         ",
"                t _ P P P M M M f f M f f O P [ [ ( w 9 9 (  . ...o.o.O.O.O.O.O.o.X... ...X...) r 0 9 9 r ( ] ] ) r > O O O O > > > 5 5 5 . .                       ",
"                { | P P P M M M M f f O f f L [ ..) r 9 0 ) ....o.O.O.+.+.+.+.+.O.O.o...X.o.X.` r w 9 9 r ) | | ) r > O > O > O O > , , 7 % .                       ",
"              r ' { P B M M M M f O f f O O |  .X.` v 9 9 ) ....o.O.+.+.+.+.+.+.O.O.o...X.o...` r 0 9 0 r ( [ [ ) w u O O O y y > > > , 7 , . .                     ",
"              Y ' { P B M M M f O M f O O H P X...P r 9 9 ) X.X.O.O.+.+.+.+.+.+.+.O.o.X.o.O.X.` r 0 9 0 t (  .[ ` w u O O y y O O > > < 5 7 % .                     ",
"            w E { P B M M f f f M O O f O O P ..[ ( 0 * 1 t ) ) ` ] ] [ [ [ [ [ ] ] ] ) ` ` ) t 0 9 & 9 w r ) ) L v u O O y y O O > > > , 5 3 . .                   ",
"            r } { P B M M M f f O H O O O O O O d X 9 X & * * 1 9 9 w 0 0 0 0 w 0 0 9 9 9 4 * * & $ & $ & & $ 2 u O O u y O O > y > > > , 7 5 . .                   ",
"            Y ' R H M M m f f f M O M O O O O O d * 1 1 1 0 w t ( ( ) ] ..X. .[ ` ] ] ` ) r r w 0 9 9 9 1 * & 2 O O O V y y y O O y > > > 5 7 ; . .                 ",
"          0 E { P P M M m f f f M O O O O O O O O 0 1 1 t O < ( ( , = < X.O.L = = < ] ] r , = q r 4 = 9 w - * v O O O O y O y y O > O > > , 5 ; . .                 ",
"          r E R B M M M m f f O O O H O O O H O O t v 0 ) 2 > ( ` 6 y h o.O.` y i i ] [ n i , n r 6 > ( t 2 v M V O O O y y O y y O y > > , 7 5 . .                 ",
"          r / R B M M f f f p p O O O O O O O O O L t t t L q ) ] ` , _ o.X.o.N > ] [ ` ) i h ) r 0 h ` 0 L w G O O u u O O y y y y > > y , 5 7 + . .               ",
"        1 Y E R H M M f H O O H f O O O O O V O u w r w 9 ) ( r n [ _ X.( q O.| n ..' : ) n ( w 9 w ( r 9 r 9 f y u u O O O O O y y O > > > , 5 % . .               ",
"        9 T E B H M f M M H O O O O f O O O O O O q 0 w : r ( q , ` ....< > { o.....< > r ) ( 6 , 0 r 9 1 9 1 d u y u O u O O u O y > O > > , 7 3 . .               ",
"        9 ' E M M M M f O M G O f O O O O O O O y c 0 r = q ( < > b X.( > i i X.X.n > i < ) r , = t w , q r 1 f u u u O O O O O O y O O > > 5 7 5 . .               ",
"        9 E E M M M H O M O O f O O V O O O O O y M r ` c q ) _ = B .. ., y b X.X._ , > n ` n , h ` 0 < L t w p u O O u O O V O O O > > > > < 7 5 . .               ",
"        0 R B B M f f f O f O O f O O O u O O O u v w L | r r ] b ` ] X._ i ..X.] ..b h ` ( r q _ L 0 L ) 9 n u O O O O O O O O O y > O > > , 7 5 . . .             ",
"        9 R R M f M f f G O f O O O O f O u V O y d w 9 ( r q ( ] ) < ] o. .O._ < ] ] ` ` < 0 t ( 9 1 t r * v O O V O O O O V O y y O O O > , 5 5 . . .             ",
"        w { H M M M f f O f f O O O O O O O u O O d 9 1 w q = r ` r = h X.O. ., > c [ ` n = : w w , : r 1 : v u O f V O O O O O O y > O > > , 5 5 . . .             ",
"        2 P P M f f f f f f O f f f O O u y O u O f r w w _ = h ` n > > ] O.` > , < [ ] 5 > < ( w = 6 ( 1 w q u O O O O O O O O y O O O > > , 5 5 . . .             ",
"        0 E B N f f f O f f O O O O O O O O O O u u r ( w ] c w ` [ < c o.o.o.c = _ | ] n = _ ( w 2 ` t w t P O O O f O O O O O y O y O > > , 7 5 . . .             ",
"        1 T T M M f M f f O f O O f f O O f f O y u 0 ( w r ] ( r ] ] |  .n o...B ..( w ` L ` q 0 L ` 9 t 9 M O O f O O O O O O y O > O > > , 5 5 . . .             ",
"        9 T T M M f f f f f O f O O V O O O O O u u w w 0 9 L r = n ....q = P O.X.] , = L ( n = 1 t 2 * 9 * f O O f O O O O O V y y O > > > < 7 5 . . .             ",
"        * T T M H f f f f O f O f O O O O O f O y u v w n = r ( = , | ] = > :  .X.n = = q ( q = 2 L : : t 9 f O O O O O O O O O y O O O > > h 5 ; . . .             ",
"        * U T M M f f f f f f O O O O f f f O O O u v r ` c r ] c 6 ] X.n = b O.X.] , : ` ( w : ) L 1 L t r O O O O O f O O O O y O > O > > , 5 ; . . .             ",
"        $ e E b M f f O O O f O f f O O O O O O u u v w ( ` w L ] ) ( ] o.b X. .n ..n ` ` 0 r L ) 9 w ] 1 t f O V O O O O O V O y y O > > , 5 7 ; . . .             ",
"          q T N H f H O G O O f O f f O O O f O u O v 9 0 t 1 1 ` ) - < o.O.X.q # ( ] ` r = 9 t w - w r 2 2 f O O O O O O O O O y O > > > , 5 5 # . .               ",
"          & T N H O H H O f f O f O O O f f O O u y m w 9 t d o ( ) - = _ O.] = = < ] ` : = q t 1 # L 1 v H O O O O O O O O O O O > y > > , 5 5 . . .               ",
"          & U T m m p f p p p p O O O O O H O O H O M P L L ] 1 ( [ n :  .O.o.q = ` [ ` q : ` n 1 v ` 9 r w u u O y O O O O O O O y > y > 5 5 ; . . .               ",
"          $ 8 T N h f f p p p u H O f O O O O O O O O M L 0 ] ) r n  .` ..w o...( X.r r L ) L 9 w  .r r r v O y u O O V O O O O O O > > < 5 7 ; . . .               ",
"            & T N m z p p u u u f O f O O O H O O O f v t * w ) 1 - ] X.n o n X...` # - L ( 1 & r t & 9 1 q y y y u O O O O O O O > > , i 5 , . . . .               ",
"            $ I x h p f f p u p O f O O O O O O O O O v L 2 * L r # L ..q o -  .X.r # # ( t : & ( 9 : L 0 d u y O O O O O O V O > y > y 5 7 ; . . .                 ",
"            + 4 I N m p p p u f V O O f u u O u f O O L t ) w t ` ( ]  ...]  .o...] ) ` ) t r L L w t t 9 d y y O O O O O O O O > > > , 7 g % . . .                 ",
"              $ x I h p p u u O O f O O O O u O O M f v w w t t ( ) `  ...X.....| ] ` ( L t t 0 9 w 9 9 9 v f y O O V O O O O O > > , 5 5 ; . . . .                 ",
"              @ 4 I z h s s u f O O V O V O O u f ] ..` w 1 0 ]  ...o.o.O.O.O.O.o.X... ...[ L w 0 9 0 ( ] ] t d O O O O O O O V y > , 7 5 % . . .                   ",
"                @ k x s p s u O f O O O O O u O f ` ..] t 1 t ] X.o.O.+.+.+.O.+.O.o...X.+.X.) w 0 9 t ) ..] r c O O O O O O O O > > 5 g ; . . . .                   ",
"                + 3 x j h p y u u u u u O u u O f ] ..] t 1 2 | ..X.O.+.+.+.+.+.+.X.....O...) t 9 9 r )  .] t v O O O O O O > > > , 7 5 % . . .                     ",
"                  X 7 I h a p y y y y y O u u u d L ..] t 1 w | ..X.O.+.+.+.+.+.+.O.X...o.X.L r 0 1 r (  .] r v O V O O u O > > , 5 5 ; . . . .                     ",
"                    + k k h i y y O y i u a s f d t L v 1 * d L n r L n L L L L L L v H v L 2 1 * 1 1 w w w 1 2 m f f p y > > < 5 7 ; . . . .                       ",
"                    . 3 j j h i i y y y O u O u p O f O f O V V p u p p u p u u u u f V p p p p u p p p u p p p s O O O > > i < 7 5 ; . . . .                       ",
"                      X 5 j g i u y y y O y y y O O O O O O O O O O O O O O O O O O O O O O O y O O O u y y O O > O > > > , , 7 5 ; . . . .                         ",
"                        . 5 j g g y y y y y O O O O O O O O O O O O O O O O O O O O O O O u y y O O O O O O > O O O > > < , 5 5 ; . . . .                           ",
"                          . 5 j g i y y y y O y u O O O O O O V O O V O O u O u V O u O O u y O y y O O > O O O > > > , , 5 5 ; . . . .                             ",
"                            . 3 j g g i u y y O O O O u O O O O O O O O O O O O O O O O O O y y O O y y O O > > > > , , 7 5 ; . . . . .                             ",
"                              . 3 j 7 i i > > y > y y y > y O y O O y O O y O y y y O y O O y y y O > O > O > > > , 7 5 5 ; . . . . .                               ",
"                                . 3 j 7 i , > > > > > > O O O > O > > O O y y O O y O > O > y O O > u > > > > < i 5 7 , ; . . . . .                                 ",
"                                  . % 5 7 7 , , > y y > > O O O O O > O O O y O O y O O O y > > > > > > > , < , 5 5 ; % . . . . .                                   ",
"                                    . . ; 7 7 5 5 < > > > > > > > O O > > O O > > O O > O > > > > > > > , , 7 7 5 ; X . . . . .                                     ",
"                                      . . % 5 5 7 7 , , > > > > > > > > > > > O > O > > > > > > , > , 5 7 7 5 , % . . . . .                                         ",
"                                          . . ; 5 7 3 5 5 < , , , > > > > > > > > > > , > , , , , 5 7 g 5 ; % . . . . . .                                           ",
"                                            . . . # 5 5 7 3 7 5 5 , , , , , , , < < i , 5 , 7 5 7 7 5 ; % . . . . . . .                                             ",
"                                                . . . . ; < 5 7 5 5 7 7 5 5 5 7 5 5 7 7 7 7 5 , ; % . . . . . . . .                                                 ",
"                                                    . . . . . + % ; ; 5 5 , 5 5 5 , 5 ; ; ; + . X . . . . . . .                                                     ",
"                                                        . . . . . . X X . . . . . . . . . . X . . . . . . .                                                         ",
"                                                              . . . . . . . . . . . . . . . . . . . .                                                               ",
"                                                                        . . . . . . . . . .                                                                         ",
"                                                                                                                                                                    ",
"                                                                                                                                                                    ",
"                                                                                                                                                                    ",
"                                                                                                                                                                    ",
"                                                                                                                                                                    ",
"                                                                                                                                                                    "
};
