/* XPM */
static char *p0mvw_1162s[] = {
/* columns rows colors chars-per-pixel */
"62 62 49 1 ",
"  c None",
". c #12AB9D",
"X c #1AA99F",
"o c #14B2A3",
"O c #0CCEB6",
"+ c #14C5B4",
"@ c #12CAB6",
"# c #13CEBA",
"$ c #18CABA",
"% c #0ED3BA",
"& c #0DD9BE",
"* c #11D4BD",
"= c #0CDDC2",
"- c #15D6C1",
"; c #19D6C5",
": c #12DBC4",
"> c #16DECA",
", c #04E5C3",
"< c #09E3C4",
"1 c #00ECC5",
"2 c #0DE5CA",
"3 c #03ECC9",
"4 c #0AEACC",
"5 c #11E0C7",
"6 c #13E2CB",
"7 c #11E8CF",
"8 c #00F4C7",
"9 c #00FAC7",
"0 c #02F3CB",
"q c #00FACC",
"w c #0AFACF",
"e c #17E7D1",
"r c #15E9D2",
"t c #1CE8D6",
"y c #06F7D1",
"u c #0DF5D4",
"i c #02FAD2",
"p c #0AFBD5",
"a c #0EFBD9",
"s c #14FCDD",
"d c #18FCDF",
"f c #1CFCE2",
"g c #21FDE6",
"h c #24FDE9",
"j c #2AFCED",
"k c #2DFCF0",
"l c #35FDF5",
"z c #3CFDFB",
"x c #41FDFF",
/* pixels */
"                                                              ",
"                                                              ",
"                                                              ",
"                                                              ",
"                        624333322=                            ",
"                     2311111111111112                         ",
"                  73111100yyyi000011111>                      ",
"                r1110uuaasaappiiiiqq08113:                    ",
"               4110usssssaappppyiiiiqqq1113                   ",
"              111ufsssssassaappiiiiqiqqqq111-                 ",
"            711ydfdfdsdssssasppppiiiqqqq89818:                ",
"           r11ufffdfdfddsssaaspppiiiiiqqq998115               ",
"          r11ufffffffdddddsssapppipiiiiqqq99811:              ",
"          11ufgfffffffffddsssasaapiiiiqqq9999811;             ",
"         11ugfgfgfgggfffdddsssaaapppiiwq9pdhw9831             ",
"        410ffgfgggggfgffffdssssaappiiqydlxxxz99013            ",
"       t11dfffggghgggggffffsssssappipfzxxxxxl99911;           ",
"       11affgfgggghhgggffffssssssppfzxxxzxxl9999q11           ",
"      e10dffffgghhhhhhgfffffdsssspjxxxxxxxkw9999981:          ",
"      11uddffggghhhjhhgggfffdssaslxxxxxxxhqqq9999811          ",
"      13dddfffgghhhhhhggfffffssfzxxxxxxzdqqqq9999911$         ",
"     41usdddfffggghhhhgggffdssszxxxzxxzaqqiqq9999981<         ",
"     31assdfffffgggghhggfffffslxxxxxzzaiiiqqq99999913         ",
"     11ssdssfffdfggggggfgfffskxxxxxxzsiiiqqqq99999911o        ",
"    610sssssddfjjgffgggfffddgxxxxzxxgyiiiiqqq99999981%        ",
"    710sasssshzxxxlgfffffffdzxxxxxxlppiiiqiqq99999981=        ",
"    41ysassdlxxxxxxzhfffffdjxxxxxxxgypiiiqiqqq99q9981,        ",
"    31wasaslxxxxxxxxxhffdddlxxxxxxzapiiiqiqq999999991,        ",
"    31yapslxxxxxxxxxxzjsfsfxxzxxxxjpppiiiiqqq999999911        ",
"    ,3yppsxxxxxxxxxxxxxjssjxxxxxxxfppiiiiqqqq99999983,        ",
"    31yipplxxxxxxxxxxxxxjszxxxxxxzdpiiiiiiiqq99999991,        ",
"    41yippsjxxxxxxxxxxxxxzzxxxxxxzappiiiqqqqq9999q981,        ",
"    210iyiipfzxxxxxxxxxxxxxxxxxxxzapiiiiqqqqq99999981&        ",
"    >10iiippiakxxxxxxxxxxxxxxxxxxxpyiiiiiqq99899q9981%        ",
"     11iiiiipipfzxxxxxxxxxxxxxxxxzpyiiiqqiqq999999911o        ",
"     11qiiiiippialxxxxxzxxxxxxxxxzpiiiqiqqqq999999911         ",
"     410iiiiiipiiphxxxxxxxxxxxxxxxpiiiiqqqq999999981<         ",
"      11qqqiiiiiiiifzxxxxxxxxxxxxzpiiqqiqq9q9q999981+         ",
"      31qqiqiiiiiyiiszxxxxxxxxxxxxpqqqqqqq9999999811          ",
"      613qqqqqiiiiiiiazxxxxxxxxxxziqiqqqqq999999981-          ",
"       11qqqqqqiqiiiiqszxxxxxxxxxliqqqqq99999999811           ",
"       >118qqqqqiqqiiiqhxxxxxxxxxjqqqqq99999999911*           ",
"        318q9qqqqiqqqiqizxxxxxxxxs99qqq99999899813            ",
"         1189qqqqqqqqqqqgxxxxxxzh9qq9999999999q11X            ",
"         ;118999qqq9qqqqaxxxxxjwq9q9999999999911#             ",
"          51189999999q9q9jzljp99q99999989999811&              ",
"           611q9999999q9999w999q9999999q999811=               ",
"            =11899999999999999999999999999811&                ",
"             -31399999q899999999999999998811@                 ",
"               ,11889999999999999999999811,.                  ",
"                -11188999999999999q981111%                    ",
"                  =11111888898988811111&                      ",
"                    +<11111111111111<+                        ",
"                       oO<,,,,,,=O.                           ",
"                                                              ",
"                                                              ",
"                                                              ",
"                                                              ",
"                                                              ",
"                                                              ",
"                                                              ",
"                                                              "
};
