/* XPM */
static char *xtsp9_3dplf[] = {
/* columns rows colors chars-per-pixel */
"62 62 149 2 ",
"   c None",
".  c #BD0000",
"X  c #BD0C0C",
"o  c #BD1313",
"O  c #BC1C1C",
"+  c #BC2222",
"@  c #BC2D2D",
"#  c #B1302E",
"$  c #BD302F",
"%  c #B53231",
"&  c #BB3434",
"*  c #B63C3B",
"=  c #BD3A39",
"-  c #C10202",
";  c #CA0100",
":  c #C80807",
">  c #C20A0A",
",  c #C90C0B",
"<  c #D30000",
"1  c #DD0000",
"2  c #D00805",
"3  c #DA0800",
"4  c #D90D08",
"5  c #C2100F",
"6  c #DA100B",
"7  c #C21414",
"8  c #CC1211",
"9  c #C41D1D",
"0  c #D01311",
"q  c #D11E1D",
"w  c #DB1D1A",
"e  c #E40000",
"r  c #E90000",
"t  c #EB0D00",
"y  c #F40100",
"u  c #F50C00",
"i  c #F80E00",
"p  c #F50E08",
"a  c #EC1204",
"s  c #E1150E",
"d  c #F61302",
"f  c #F91603",
"g  c #F61807",
"h  c #F6150A",
"j  c #F61A0B",
"k  c #F81C0F",
"l  c #E51A14",
"z  c #E71F19",
"x  c #F51010",
"c  c #F61E12",
"v  c #F51C1C",
"b  c #C5201F",
"n  c #E2221F",
"m  c #EA231D",
"M  c #F72116",
"N  c #F7251C",
"B  c #F9231A",
"V  c #C22626",
"C  c #C62F2E",
"Z  c #DB2523",
"A  c #C43635",
"S  c #CA3434",
"D  c #C23C3B",
"F  c #DE3433",
"G  c #E52521",
"H  c #EA2420",
"J  c #E92824",
"K  c #F72A22",
"L  c #F82C25",
"P  c #F62929",
"I  c #F82F28",
"U  c #F73024",
"Y  c #F7322A",
"T  c #F8322C",
"R  c #E53D3B",
"E  c #EE3D3A",
"W  c #F53232",
"Q  c #F93631",
"!  c #F93A35",
"~  c #F93E3A",
"^  c #C9403F",
"/  c #EF403D",
"(  c #F74235",
")  c #FA423D",
"_  c #F8493D",
"`  c #9C4443",
"'  c #994F4F",
"]  c #AE4847",
"[  c #B34444",
"{  c #BC4545",
"}  c #B44C4C",
"|  c #BC504F",
" . c #A25756",
".. c #B25756",
"X. c #BF5656",
"o. c #B75F5F",
"O. c #9D6666",
"+. c #C24342",
"@. c #CA4544",
"#. c #C34D4C",
"$. c #CC4D4D",
"%. c #C45151",
"&. c #CC5555",
"*. c #C35D5D",
"=. c #CE5B5B",
"-. c #FA4541",
";. c #FA4945",
":. c #FB4D49",
">. c #FB514E",
",. c #F75353",
"<. c #FB5552",
"1. c #FC5956",
"2. c #F75E5B",
"3. c #FC5D5A",
"4. c #FC605E",
"5. c #C36463",
"6. c #D26D6C",
"7. c #FD6562",
"8. c #FD6966",
"9. c #FD6D6B",
"0. c #FE716E",
"q. c #FE7473",
"w. c #FE7876",
"e. c #FE7C7A",
"r. c #FF807F",
"t. c #FF8483",
"y. c #FD8886",
"u. c #FE8C8B",
"i. c #FB928E",
"p. c #FB9693",
"a. c #FB9A97",
"s. c #FE9A99",
"d. c #FDA29F",
"f. c #FEA4A2",
"g. c #FCACA7",
"h. c #FEACAB",
"j. c #FEB6B4",
"k. c #FDB9B6",
"l. c #FEBCBB",
"z. c #FFC0BF",
"x. c #FDC4C3",
"c. c #FECBCB",
"v. c #FED4D4",
"b. c #FDD8D6",
"n. c #FEDCDC",
"m. c #FEE5E5",
"M. c #FFECEB",
"N. c #FFF3F3",
"B. c #FFFFFF",
/* pixels */
"                                                                                                                            ",
"                                                                                                                            ",
"                                                                                                                            ",
"                                                                                                                            ",
"                                                +.A 9 7 7 , 7 9 A +.                                                        ",
"                                          C X . . . . . . . . . . . . > V                                                   ",
"                                    $.> . . . : 0 w m m m m l 6 4 ; ; . . . > +.                                            ",
"                                =.X . . , Z E ;.-.-.) ~ Q T I L M c f t 3 ; - . - #.                                        ",
"                              9 . - 8 R <.<.<.:.>.-.) ) ! T Y L N M k g i u e ; . . 7                                       ",
"                            - . : R 3.7.3.3.1.<.>.:.;.-.) ! T Y L N M j d u y y 1 ; . . X.                                  ",
"                        @.. . q 2.9.8.7.7.7.3.3.<.>.>.-.) ) ! ! Y K N c f d u y y y < . . D                                 ",
"                      $.. . F 9.q.9.9.8.8.7.7.3.3.<.>.:.;.) ! ! T I P M c d u u y y y 1 . . D                               ",
"                    &.. . R w.q.q.q.q.9.9.9.8.7.3.3.<.<.:.;.) ~ ! Y L N M j d u y y y y e - . +.                            ",
"                    . . / w.q.q.q.w.w.q.q.q.9.8.7.3.3.<.>.:.-.) ~ T I K N c g u u y y y y e . . *.                          ",
"                  - . F w.q.w.w.e.e.e.e.e.q.q.9.9.7.4.3.<.:.;.-.) ! T L M g f d u y y y y y 1 . .                           ",
"                b . q 0.q.w.e.t.t.t.t.t.e.q.q.9.9.8.7.3.1.<.:.-.) ! U P :.1.I d u u y y y y y < . o                         ",
"              6.. > 4.q.q.e.e.t.y.y.u.t.t.s.c.h.0.8.7.7.3.<.:.:.~ ! 8.x.B.B.b.N a u y y r y y y ; . %.                      ",
"              > . R 0.0.q.w.t.t.u.u.y.f.m.B.B.B.x.8.8.7.3.3.<.-.w.c.B.B.B.B.N.K d u u y y y y y e . X                       ",
"            =.. 8 7.9.0.q.e.r.y.u.u.z.B.B.B.B.B.B.h.7.7.4.3.:.t.B.B.B.B.B.B.d.h f u u y y y y y y ; . {                     ",
"            > . R 7.8.9.q.e.r.y.y.h.B.B.B.B.B.B.B.N.y.7.7.1.7.N.B.B.B.B.B.N.! j j d u y y y y y y e . >                     ",
"            . , 3.7.7.9.q.q.e.t.t.c.B.B.B.B.B.B.B.B.n.8.3.3.v.B.B.B.B.B.B.y.c M j d u y y y y y y y ; . o.                  ",
"          S . Z 3.3.7.8.q.q.e.t.r.j.B.B.B.B.B.B.B.B.B.l.<.f.B.B.B.B.B.B.x.L K M c f u u y r y y y y 1 . V                   ",
"          > - E 1.3.7.8.9.q.w.e.r.y.n.B.B.B.B.B.B.B.B.B.x.N.B.B.B.B.B.M.-.P L N c g d y y y y y y y r - -                   ",
"          . : ;.<.3.3.7.8.9.q.q.e.e.y.m.B.B.B.B.B.B.B.B.B.B.B.B.B.B.B.w.I Y P N M g u u y y y y y y y ; .  .                ",
"        &.. 0 :.:.<.3.4.7.8.q.q.w.w.w.u.N.B.B.B.B.B.B.B.B.B.B.B.B.B.x.T Q T L N c g u u y y y y y y y < . *                 ",
"        +.. w ;.:.>.<.3.7.7.8.9.q.q.w.q.u.N.B.B.B.B.B.B.B.B.B.B.B.N.3.Q Q T I N c j u u y y r y y y y e . @                 ",
"        b . G -.;.:.>.<.3.3.7.7.8.0.q.q.9.u.N.B.B.B.B.B.B.B.B.B.B.x.! ! ! Y L N c j d u y y y y y y y e . o                 ",
"        7 - J ) -.;.:.<.<.3.7.7.8.8.9.9.0.7.u.N.B.B.B.B.B.B.B.B.B.f.T ~ Q I K N c g d u y y y y y y y e - X                 ",
"        7 . J ~ ~ -.;.:.<.<.3.3.7.7.7.7.8.8.3.s.B.B.B.B.B.B.B.B.B.M.<.Q T Y K N c g d u y y y y y y y r - X                 ",
"        5 - m Q ! ) -.;.:.:.<.3.3.3.4.7.7.7.7.3.x.B.B.B.B.B.B.B.B.B.x.T T Y N N c f u u y y y y y y y r - X                 ",
"        7 . m T Q ! ~ -.;.:.:.<.<.<.3.3.3.3.3.<.e.B.B.B.B.B.B.B.B.B.B.i.N I N M j d u u y y y y y y y r . X                 ",
"        9 - l L I W ! ~ -.-.:.:.:.<.<.<.1.1.1.:.h.B.B.B.B.B.B.B.B.B.B.N.1.c N c j d u y y y y y y y y e . o                 ",
"        D . 6 K L Y Q ! ~ ) -.-.;.:.:.>.>.>.:.7.N.B.B.B.B.B.B.B.B.B.B.B.n.Y c c g u u y y y y y y y y 1 . +                 ",
"        %.. 2 B N K Y T Q ! ~ ) ) ;.;.:.:.:.-.z.B.B.B.B.B.B.B.B.B.B.B.B.B.j.h j d d u y y y y y y y y < . *                 ",
"          . ; c B N L I T Q ! ! ~ ) -.-.;.! u.B.B.B.B.B.B.B.B.B.B.B.B.B.B.B.w.u d u y y y y r y y y y ; .  .                ",
"          - . a k M N K L Y T Q ! ! ~ ( T 9.B.B.B.B.B.B.M.b.B.B.B.B.B.B.B.B.N.( y u y y y y y y y y r . X                   ",
"          C . 3 d j c N N K I I T T ! P ,.N.B.B.B.B.B.B.,.K z.B.B.B.B.B.B.B.B.b.h y y y y y y y y y e . +                   ",
"            . ; d d g k M N K K P Y K :.m.B.B.B.B.B.B.y.K K / N.B.B.B.B.B.B.B.B.a.y y y y y y y y y ; . ..                  ",
"            > . e i d d j c c N N N ! m.B.B.B.B.B.b.4.N K P c e.B.B.B.B.B.B.B.B.B.:.y y y y r y y r . -                     ",
"            #.. ; u u u d f j c M c Y m.B.B.B.m.i.I M K N N M c k.B.B.B.B.B.B.B.B.p.y y y y y y y < . =                     ",
"              - . e y u u u d f j k g T p.f.9.I j M N M M M c d _ B.B.B.B.B.B.B.B.W y y y y r y e . .                       ",
"              *.. ; y y y u u u d d f f u d d j c c c k k j j d u g.B.B.B.B.B.B.w.r y y y y y y ; . {                       ",
"                7 . < y y y u y u u u d d d g d g g f f d d d u u p p.m.N.N.c.,.y y y y y y y < . 7                         ",
"                  . . 1 y y y y y y u u u u u d d u d u d u u u u y y x P v y y y r y y y y e - . O.                        ",
"                  5.. . e y y y y y y y y y u y y u y u u y y y y y y y y r y y y y y y y e . . }                           ",
"                    +.. - e y y y y y y y y y y y y y y y y y y y y y y y y y y y y y y e ; . &                             ",
"                      D . - 1 y y y r y y y y y y y y y y y y y y y y y y y y y y y y e . . $                               ",
"                        A . . < y y y y y y y y y y y y y y y y y y r y y y y y y y < . . @                                 ",
"                          X.. . ; e y y y y y y y y y y y y y y y y y y y y y y e ; . - [                                   ",
"                              7 . . ; e y y y y y y y y y y y y y y y y y y r < . . o '                                     ",
"                                { X . . ; 1 y y y y y y y y y y y y y r 1 ; - . . *                                         ",
"                                    = - . . . ; < 1 e e r r r e 1 < ; - . . - %                                             ",
"                                        } + - . . . . . - . - . . . . - O ]                                                 ",
"                                              ` % + o X X X X o + % `                                                       ",
"                                                                                                                            ",
"                                                                                                                            ",
"                                                                                                                            ",
"                                                                                                                            ",
"                                                                                                                            ",
"                                                                                                                            ",
"                                                                                                                            ",
"                                                                                                                            "
};
