/* XPM */
static char *xb4ar_zknzo[] = {
/* columns rows colors chars-per-pixel */
"147 45 133 2 ",
"   c None",
".  c black",
"X  c #000002",
"o  c #03032C",
"O  c #03032E",
"+  c #03022F",
"@  c #04052F",
"#  c #030230",
"$  c #040333",
"%  c #040532",
"&  c #0F353E",
"*  c #0E343F",
"=  c #0F343F",
"-  c #0F353F",
";  c #0F363E",
":  c #0F373E",
">  c #0F363F",
",  c #0F373F",
"<  c #07074C",
"1  c #06044E",
"2  c #07084C",
"3  c #070E4F",
"4  c #080E4F",
"5  c #08114D",
"6  c #09114D",
"7  c #08124D",
"8  c #08114E",
"9  c #09114E",
"0  c #08124E",
"q  c #09144C",
"w  c #09154C",
"e  c #09144D",
"r  c #09154D",
"t  c #09174F",
"y  c #0A174F",
"u  c #0A1B49",
"i  c #09184B",
"p  c #0A184B",
"a  c #0A1B4A",
"s  c #0A1E48",
"d  c #0B1E48",
"f  c #0A1F48",
"g  c #0B1F48",
"h  c #09184F",
"j  c #0A184F",
"k  c #0A1B4E",
"l  c #0B1E4C",
"z  c #0B1F4C",
"x  c #060453",
"c  c #060652",
"v  c #060653",
"b  c #060454",
"n  c #060851",
"m  c #070851",
"M  c #060951",
"N  c #070951",
"B  c #070A50",
"V  c #070B50",
"C  c #070B51",
"Z  c #060852",
"A  c #070852",
"S  c #060952",
"D  c #070952",
"F  c #070857",
"G  c #070957",
"H  c #070B56",
"J  c #080B56",
"K  c #080E54",
"L  c #080E55",
"P  c #060659",
"I  c #070659",
"U  c #070858",
"Y  c #070958",
"T  c #081153",
"R  c #091153",
"E  c #091451",
"W  c #091551",
"Q  c #091750",
"!  c #0A1750",
"~  c #091452",
"^  c #091850",
"/  c #0A1850",
"(  c #0B2246",
")  c #0B2247",
"_  c #0C2246",
"`  c #0C2247",
"'  c #0C2545",
"]  c #0D2B42",
"[  c #0D2B43",
"{  c #0D2D41",
"}  c #0E2D41",
"|  c #0D2E41",
" . c #0E2E41",
".. c #0D2D42",
"X. c #0E2D42",
"o. c #0D2E42",
"O. c #0E2E42",
"+. c #0C2844",
"@. c #0D2844",
"#. c #0D2B45",
"$. c #0C2847",
"%. c #0D2847",
"&. c #0D2B46",
"*. c #0D2D44",
"=. c #0E2D44",
"-. c #0D2E44",
";. c #0E2E44",
":. c #0B214A",
">. c #0B214B",
",. c #0B224A",
"<. c #0B224B",
"1. c #0C214A",
"2. c #0C224A",
"3. c #0C224B",
"4. c #0C2548",
"5. c #0C2549",
"6. c #0E3040",
"7. c #0E3041",
"8. c #0E3240",
"9. c #0F3240",
"0. c #0E3340",
"q. c #0F3340",
"w. c #0E3241",
"e. c #0F3241",
"r. c #0E3042",
"t. c #0E3043",
"y. c #0E3242",
"u. c #0F3242",
"i. c #0E3440",
"p. c #0F3440",
"a. c #0F3540",
"s. c #0F3441",
"d. c #0F3640",
/* pixels */
"      . . . . . . . . . . . . . . . . . . . . . . . . . . . . . . . . . . . . . . . . . . . . . . . . . . . . . . . . . . . . . . . . . . . . . . . . . . . . . . . . . . . . . . . . . . . . . . . . . . . . . . . . . . . . . . . . . . . . . . . . . . . . . . . . . . . . . . . . . . . . .       ",
"  . . . . . . . . . . . . . . . . . . . . . . . . . . . . . . . . . . . . . . . . . . . . . . . . . . . . . . . . . . . . . . . . . . . . . . . . . . . . . . . . . . . . . . . . . . . . . . . . . . . . . . . . . . . . . . . . . . . . . . . . . . . . . . . . . . . . . . . . . . . . . . . . .   ",
"  . X + 1 x x x x x x x b x x x x x x x x x x x b b x x x x x x b x b x x x x x x x x b x x x x x b x x x x x x x b x b x x x x x x x x x x x b b x x x x x x x x x x b x x x x x x x x x x x b x x x b b x x x x x x b x b x x x x b x b x b x x x x b b x x b x x x x b b b b x x x x x x 1 # X .   ",
". . O v c v v c v v v c v c c v c v c c c c c c v v c c c c c c v v v c c v v v c v v c c c v v c v c v v c c v c v c v v v v v v c v c v c c v c v v c v c v c v v v v c c v c c v v c v v v c v c c v c v v c c c v v v v c c c v c v c v c c v v v v c c c c v v c c v v v c v c c c c v c c o . . ",
". . < m m N N n m M N N m m m N m m D N m D M m A D m n A D N D N N Z D N m N N m m A D D N M m D m n S N D N A N m m S A D N m m Z M N m N N m A m m N N N N n Z N A M N D m m m n M D A S N N m m D N m m m m m m m N m M m N A m N N m D m n N A N A S D A N N m A A N N N D D N D m N N M D 2 . . ",
". . V V V V V V V V V V V V V V V V V V V V V V V V V V V V V V V V V V V V V V V V V V V V V V V V V V V V V V V V V V V V V V V V V V V V V V V V V V V V V V V V V V V V V V V C V V V V V V V V V V V V V V V V V V V V V V V V V V C V V V V V V V V V V V V V V V V C V V V V V V V V V V V . . ",
". . 4 4 4 3 3 3 4 4 4 4 4 4 4 4 4 4 4 4 4 4 4 4 4 4 4 4 4 4 4 4 4 4 4 4 4 4 4 4 4 4 4 4 3 4 4 4 4 3 4 4 4 4 4 4 4 4 4 3 4 4 4 4 4 4 4 4 4 4 4 4 4 4 4 4 4 4 4 4 4 4 4 4 4 4 4 4 4 4 4 4 3 4 4 4 4 3 4 4 4 4 4 4 3 4 4 4 4 4 4 4 4 4 3 4 4 4 4 4 4 4 4 4 3 4 4 4 4 4 3 4 4 3 4 4 4 4 4 4 4 4 4 4 4 . . ",
". . 8 8 0 8 8 8 8 8 8 5 8 8 8 8 8 8 8 9 8 8 8 8 8 5 8 5 8 6 8 5 8 5 8 5 7 8 0 5 9 5 8 8 8 8 8 8 8 8 8 8 8 5 8 8 8 8 8 8 8 8 8 8 0 8 8 8 8 8 8 8 8 5 8 8 8 8 8 8 5 9 5 8 8 5 8 8 8 8 5 5 8 8 5 8 8 5 8 8 8 8 8 8 5 8 8 8 8 8 5 0 8 9 8 8 8 8 8 8 8 8 8 8 8 8 8 5 8 8 8 5 8 8 8 8 8 8 8 8 8 8 8 8 8 . . ",
". . q q q w w q w r w w q q q w w q w q q q w q q w w w q q w w w w w w q w w e q q r q q q w q q w q q q q q w w q w w q w q q w w q q q q q q q q w q w w w q q q w w q w q q q q w q q w q q w w w e q q w q q q w w q w w q w q w w q w q r q e q q q q r w w q w q w q q q e w q q w r w q q . . ",
". . i p i i i p i i i i i i i p i p i i i i p p p p p i i i i i i p i i p p i p i p p i i p i i i i i p i i p i p i p i p p i p i i p i i i i p p i i p p p i i i i i p i p p i i i i p p i i i i i p p p p p i i p i p p i i p p i i p i i p i i i p i i i i i i i i i i p i i p i i i p i i i i . . ",
". . a a u a u u u u u u u a a a u u u a u u u a u a u u u u u a a a a a u u u u u u u u u u u u u a u a a u u a a a u u a u u a a u a a u u u u u u u u u u a u u a u u a a a u a a u u u a a u u a u a a a u u u u a u u u a u u a a a a u u a a u a u a a u u a u u u u a u u u u u a a u a u a . . ",
". . s g g d d d d g g d d d d d d g g d g g s d d g d s g d g d s g d d d s g d d g s f d g g g g d d d d s d g g d d d d g g d d g d g g g d d g d f g d g d d g d d d d d g g g d g f g g g s d d g g g f d d g g g s g g g f f d s d f d d s d g d d g d d g d d d g g s g g g g g d g g d d g . . ",
". . ) ) ) ) ) ) ) ) ) ) ) ) ( ) ) ) ) ( ) ) ) ) ) ) ( ( ) ) ) ( ) ) ) ) ) ) ) ( ` ) ( ) ) ) ) ( ) ) ) ) ( ) ( ) ` ) ( ` ) ) ) ( ) ) ) ) ) _ ) ) ( ` ) ( ) ( ) ) ) ) ) ( ( ) ( ) ) ( ) _ ) ) ( ( ) ) ) ) ) ) ) ) ) ) ) ) ( ( ) ) ( ) ) ( ( ( ` ) _ ( ( ) ) ) ( ( ) ( ) ` ) ) ) ) ` ) ) ( ) ) ) ) ) . . ",
". . ' ' ' ' ' ' ' ' ' ' ' ' ' ' ' ' ' ' ' ' ' ' ' ' ' ' ' ' ' ' ' ' ' ' ' ' ' ' ' ' ' ' ' ' ' ' ' ' ' ' ' ' ' ' ' ' ' ' ' ' ' ' ' ' ' ' ' ' ' ' ' ' ' ' ' ' ' ' ' ' ' ' ' ' ' ' ' ' ' ' ' ' ' ' ' ' ' ' ' ' ' ' ' ' ' ' ' ' ' ' ' ' ' ' ' ' ' ' ' ' ' ' ' ' ' ' ' ' ' ' ' ' ' ' ' ' ' ' ' ' ' ' ' . . ",
". . @.@.@.+.+.@.@.@.+.+.+.@.+.+.+.+.@.@.+.+.+.+.@.+.+.+.@.@.+.+.@.+.+.+.+.+.+.@.@.@.@.@.+.+.+.@.@.+.@.@.@.+.@.+.+.+.@.@.+.+.+.@.+.+.@.+.+.+.+.+.+.@.+.@.@.@.+.+.+.+.@.+.@.+.@.+.@.@.+.+.@.+.@.+.+.+.@.+.@.@.+.+.+.+.+.+.@.+.+.+.@.+.+.@.+.+.+.+.+.+.+.+.@.+.@.@.@.+.@.+.@.@.+.@.+.+.@.+.+.@.@.@.@.. . ",
". . [ [ [ [ [ [ [ [ [ [ [ ] [ [ [ [ [ ] [ [ [ [ [ [ [ [ [ [ [ [ [ [ [ [ [ [ [ [ [ [ [ [ [ [ [ ] [ [ [ [ [ [ [ [ ] [ ] [ [ [ [ [ [ [ [ [ [ [ [ [ [ [ [ [ [ [ [ [ [ [ [ [ [ [ [ [ [ [ [ [ [ [ [ [ [ [ [ [ ] [ [ [ [ [ [ [ ] [ [ [ [ [ [ ] [ [ [ [ [ [ [ [ [ [ [ [ ] ] [ [ [ [ [ [ [ [ [ [ [ [ [ [ [ . . ",
". . X.| O.o.| | o. .o.O.o.O.O.O. .| o.O.o.O...o.O. .O.|  .o.O.O. .| o.O.O.O.| o.| o.o.o.O.| }  . ...o.o.o.o.o.O.| O.| X.o.o.o.O. .| O. .{ o.| O.o.O. . .o.O.O.O.O.o.| X.o.o. .X.| | ..o.o...{  .o.| ..O.O...o.O...O.| O.| O.| O.O.o...O.o.o.| o. .o.o.o.o.O.O.o.| X. .O.o.O.o.o.o.X.X.o.o. ...O.O.. . ",
". . 7.7.6.6.6.7.6.7.6.7.7.7.6.6.7.7.7.7.7.7.6.7.7.7.7.7.7.7.7.6.6.7.7.7.7.7.7.6.7.6.7.7.7.7.7.7.7.7.7.6.7.7.6.7.6.7.6.7.7.6.6.7.7.7.6.7.7.7.7.6.7.7.7.6.7.7.7.7.7.7.6.6.7.6.7.6.7.6.7.6.6.7.7.7.7.7.7.7.7.7.7.6.7.7.7.7.6.7.6.7.7.7.7.7.6.7.7.7.7.6.6.7.7.7.6.6.6.6.7.7.7.6.7.7.7.7.7.7.6.7.7.7.6.. . ",
". . 8.0.8.8.0.8.8.8.8.8.8.8.9.q.8.8.8.8.9.8.8.8.8.8.0.8.8.8.8.8.8.8.8.0.8.8.8.8.9.8.0.q.0.8.8.8.8.8.8.8.8.9.8.8.8.8.8.8.0.8.8.8.8.8.8.8.0.8.8.8.0.8.0.8.8.8.8.8.8.8.8.8.8.8.8.8.8.8.8.8.8.8.9.8.8.8.0.8.8.8.8.8.8.9.8.8.8.8.0.8.8.8.8.8.0.8.8.8.8.8.9.8.8.8.8.9.8.8.8.8.8.8.8.8.8.8.8.8.8.0.8.8.8.. . ",
". . * * = = = = = = = = = = = = = * = = = = * = = * = = = = = = * = = = = * * = = = = * = = = = = * * * = * = = = = * = * = = = = = * = = = = * = * = = = = = = = = = = = = * * = = = = * = = = = = = = = = = * = * = = = = * * = = * = = * = = * = = * = * = = = = = = * = = = = * * = = * * * = . . ",
". . > - > ; - > ; - ; - - - & > - ; > > > ; > > ; - > > > - - > > - & - ; ; > > - > > - & - - - - & > & > - > > - & - - & - - - - - > > > > > - - - - - - - > ; > - > > > > - - - - & - - > - - - - - & > - - & - > > - - & - - > ; & > ; > - - > - > > ; - > - - - > - - ; > - - & ; - > & - - ; . . ",
". . ; ; ; , : ; ; ; ; : ; ; > ; ; : : ; : ; ; ; ; ; ; : ; : ; ; , : : ; ; : ; ; : : ; : ; : ; ; : ; : : : ; ; > ; : : ; ; : ; ; ; > : : : : ; ; : ; ; ; : : ; ; : : : ; : ; : : ; : : : ; : ; ; : ; : ; ; ; ; ; ; , : ; ; ; ; ; ; : : : ; ; , : : ; : : ; ; ; : : ; : ; : : ; ; : ; : ; , : : : : . . ",
". . : : : : : : : : : : : : : : : : : : : : : : : : : : : : : : : : : : : : : : : : : : : : : : : : : : : : : : : : : : : : : : : : : : : : : : : : : : : : : : : : : : : : : : : : : : : : : : : : : : : : : : : : : : : : : : : : : : : : : : : : : : : : : : : : : : : : : : : : : : : : : : : . . ",
". . : : : , : : : : : : : : : : , : : : : : : : : : , : , : : : , : : : : , : : : : , : : : : : , : : : , , : : : , : : : , , : : : : : : : , , : : : : : : : , , : : , : , : , : : : : : , : : : : : : , : : : , : , : : : : : : , : , : , : : , : : : : , : : : : : : : , , , : : : , : : : : , . . ",
". . , > , , > > > , > , , , > , , , , > > , > > , , > > > > > > > , > > > , , > > , > , > , > , > > , > > , > > > > , > > > > , , > > , , > > , > > > , , > > , > , , , , , > > > > > > , , > , > , > > > > , > > > , > , > > , , > > , > , > , > , , , > > > , > , > > , , , > , > , > > , , > > . . ",
". . > - - d.a.> a.a.a.d.> - d.- > - - > - > > d.- a.a.- - d.d.> - > - - a.d.- - - - - - > - d.- d.- - - d.> - - - - > d.- d.d.> - > a.- > a.> - - - > a.- a.- - - > - a.d.d.> - - > > a.- > a.- - - > d.> > - a.- > a.- - d.> - > a.- - d.- a.- - > > - - > > - > - d.- - - a.- > > > - - - > - a.. . ",
". . p.p.p.p.p.i.p.i.s.p.p.i.p.i.p.p.p.i.p.p.i.p.i.p.p.p.p.p.p.p.i.p.p.i.p.p.p.p.p.p.p.i.p.s.p.p.p.p.p.p.i.p.i.i.p.p.p.p.p.i.s.i.p.p.p.p.p.p.p.p.p.i.p.i.p.p.p.i.p.p.i.p.p.p.i.p.p.p.p.p.p.p.p.p.p.p.p.i.p.p.i.s.i.p.p.i.p.p.i.i.p.p.p.p.p.p.p.p.p.i.i.p.p.p.p.i.i.p.p.p.p.p.p.p.p.p.i.p.p.i.p.i.p.. . ",
". . w.w.w.w.e.e.w.w.w.e.w.w.w.w.w.e.w.e.w.w.y.e.w.e.w.y.w.w.y.w.w.w.w.w.w.w.w.u.w.w.y.w.w.w.w.e.w.e.w.e.w.w.y.w.w.y.w.w.w.w.e.w.w.w.w.w.w.w.w.w.w.w.w.w.y.e.y.w.w.w.w.w.y.w.w.y.w.w.w.w.w.w.w.w.w.w.w.w.w.w.w.w.w.w.w.y.y.w.w.w.w.w.e.e.w.w.w.w.w.w.e.w.w.w.w.w.u.w.w.w.y.w.w.w.w.w.w.e.w.w.w.e.e.. . ",
". . r.t.t.r.t.t.t.t.t.r.t.t.t.t.r.r.t.r.t.r.r.t.r.r.r.t.r.t.r.r.r.t.t.r.t.r.r.t.t.t.r.r.t.r.r.r.t.r.t.r.r.t.t.t.r.r.r.t.t.t.r.t.t.r.t.r.r.r.t.t.t.r.t.r.r.t.t.t.r.t.r.r.t.r.t.t.r.r.t.r.r.r.t.t.t.t.r.t.t.r.t.r.t.r.t.r.r.t.t.t.r.r.r.t.t.t.t.r.t.t.r.t.t.t.r.t.t.t.r.r.t.r.t.t.t.t.t.r.r.r.t.t.r.. . ",
". . ;.;.*.-.;.-.*.;.-.*.;.*.-.=.-.*.-.*.=.;.*.;.-.-.-.;.-.*.*.-.;.-.*.*.*.;.;.*.*.*.*.-.-.-.;.-.-.;.=.-.;.=.;.=.-.*.=.;.;.-.-.=.=.*.;.-.;.=.-.=.-.;.=.=.=.;.*.;.-.-.-.;.-.;.*.=.=.;.-.-.*.=.=.-.-.*.-.;.-.;.*.;.=.*.;.*.=.*.-.-.*.*.;.-.-.=.-.-.-.*.-.*.;.-.;.-.;.=.*.=.;.-.=.;.;.*.;.*.;.=.=.=.;.. . ",
". . #.&.#.#.#.#.#.&.#.#.#.&.#.#.#.#.#.#.#.#.#.#.#.#.#.#.#.#.#.#.&.#.&.#.#.#.#.#.#.#.#.#.#.#.&.#.#.#.#.&.#.#.&.#.#.#.#.#.&.#.#.#.#.&.#.#.&.#.#.#.#.#.&.#.#.#.#.#.&.#.#.#.&.#.#.#.#.#.#.#.#.#.&.&.#.#.#.#.#.#.#.&.#.#.#.#.#.#.&.#.#.#.#.&.#.#.#.#.#.&.#.#.&.#.#.&.&.#.#.#.#.#.#.#.&.#.&.&.#.&.#.#.#.. . ",
". . $.$.$.$.%.$.$.%.%.%.%.%.$.$.$.%.$.%.%.%.$.%.%.$.%.%.$.$.$.$.$.$.$.$.%.%.%.%.$.$.%.$.%.$.$.$.%.$.%.%.$.$.%.$.%.%.$.$.%.%.$.$.$.%.%.%.$.%.$.%.$.$.%.%.$.%.%.%.%.%.%.$.$.$.$.%.$.%.$.%.$.%.%.%.$.%.%.$.%.$.$.$.%.$.%.%.$.%.$.%.%.%.%.$.%.%.%.%.$.$.%.$.%.$.$.%.$.%.$.$.$.$.$.$.%.$.%.$.$.$.%.$.$.. . ",
". . 5.4.5.5.5.5.5.5.5.5.5.4.5.5.4.5.4.4.5.5.5.5.5.5.5.5.5.4.5.5.5.5.4.5.5.4.5.4.5.4.4.5.5.5.5.4.5.5.5.5.5.5.4.5.4.5.5.5.5.5.4.5.4.5.5.4.5.5.5.5.4.5.4.5.5.4.5.4.4.5.4.5.5.4.5.5.4.5.5.4.5.4.4.4.5.5.4.5.4.5.5.4.5.4.4.5.5.5.5.5.5.4.4.5.5.5.5.4.4.5.4.4.4.4.4.5.4.5.4.4.5.5.5.4.4.5.5.5.5.5.4.4.4.. . ",
". . ,.,.<.,.:.,.2.,.,.1.,.1.,.,.,.,.:.,.,.,.,.,.:.,.:.,.:.,.<.,.2.,.1.,.,.2.:.,.,.,.:.,.:.,.:.,.,.2.:.:.,.,.,.,.:.3.:.2.2.,.:.,.2.,.,.,.,.:.,.,.:.,.:.2.2.:.,.,.,.2.,.,.,.,.,.,.,.:.>.:.,.,.1.2.2.,.1.,.:.2.,.,.,.,.2.,.:.,.:.,.,.2.2.,.,.2.,.:.2.:.,.,.,.,.2.,.:.,.,.<.:.>.:.,.,.>.,.:.,.,.,.,.,.. . ",
". . l l l z l l l l l l l l z l l l l l l l l l l l l l z l l l z l l l l l l l l l l l l l l l z l l l l z l l l l l l l l l l z l l z z l l l l l l l l l l l l l l l l z z l l l l l l l z l l l l l l l l l l l l l l l z l l l l l l z l l l l l l l l l l l l l l l l l l z l l l z l l l l . . ",
". . k k k k k k k k k k k k k k k k k k k k k k k k k k k k k k k k k k k k k k k k k k k k k k k k k k k k k k k k k k k k k k k k k k k k k k k k k k k k k k k k k k k k k k k k k k k k k k k k k k k k k k k k k k k k k k k k k k k k k k k k k k k k k k k k k k k k k k k k k k k k k k k . . ",
". . ^ h / ^ ^ h y ^ j h j / h / j / j j y / / j y ^ ^ t / / ^ ^ ^ ^ ! h h t y ^ ! j Q h Q ! j j / ! ^ h j j / / ^ ! ! Q y ^ j ! h ^ ^ h y / Q j / j ! ^ ^ Q j ^ j h ! / / / ^ j / ! Q ^ / / / Q y h / Q ^ j t y j / / ^ ^ y ! t h Q Q Q y j ! ! ! j h / / / ^ ^ ^ t ! / / h j / Q / ^ / ^ Q t h j . . ",
". . W E E E W E E ~ E E ~ E E E E ~ E E E E ~ E E E E W E E E E E E E E E E E E E E ~ ~ E E E E E E E ~ ~ ~ E E E ~ E E E ~ E E E E E E E E E E E E E ~ W E W E E ~ E E E W E E ~ E E E E W E E ~ E E E E W E E E E E E E ~ E E ~ E ~ E E ~ E E E W E E E E E ~ E E E E E ~ E E ~ E ~ E E E E E ~ . . ",
". . T R T T T R T T T T T T T T T R R T T T R R T T T R T R T T T T T T T T T T T T T T T T T T T T R T R T T T R T R R R R T T T T T R T R R T R R T T R T T R T R T T T T T T T T T T T T T T T T R T T R R T T T R T T T R R T T R T T T R T T T T T R T T T R T T T T T T T R T T T R T R R T . . ",
". . L L L L L L L K L L L L L L L K K L L L L L L K L L K L L L L L K L L L L L L K L L L L K K L L L L K L L L L L L K K L L L L L L L L L L L L L K L L K K L L L L K L K L L L L L L K L L L K L L L L L L L L L L L K L L L K L K L K L L L L L L L L K L L L L L L L L L K L L L K L L K L L . . ",
". . B H H H H H H H H H H H H H H H H H H H J H H H H H H H H H H H H H H H H H H H H H H J H H H H H H J H H H H J H H H H H H H H H H H H H H J H H H H H H H H H H H H J H H H H H H H H H H J H H H H J H H H H H H H H H H H H H H H H H H H H H H H H H H H H H H H J J H H H H H H H H H B . . ",
". . % U F F F U U U U F F Y F U F U U Y U F F F U U U U F U F U G Y Y U U U F G U F U U Y U U F U U F Y U F U U F U Y U U U F F G U U F F U U F U F U F U F U F U F U F F Y F U U U F Y U U F Y U U F F F F U U F U U U G U U U U F F F U U U F U F U U U U F U U G U U U U F F U G U U F F F F @ . . ",
"  . X $ v P P I P P P P P P P P P P P P P I P P P P P P I P P P P P P P P P P P P P P P P P P P I I P P I I P P P P P P P I P P P I P P P P I P P P P P P P P P P P P P I I P P P P P I P I P P P P P P I P I I P P P I P P P P P P P P P P I P I P I P P I I P P P P P P P I P P I P P P P v $ X .   ",
"  . . . . . . . . . . . . . . . . . . . . . . . . . . . . . . . . . . . . . . . . . . . . . . . . . . . . . . . . . . . . . . . . . . . . . . . . . . . . . . . . . . . . . . . . . . . . . . . . . . . . . . . . . . . . . . . . . . . . . . . . . . . . . . . . . . . . . . . . . . . . . . . . .   ",
"      . . . . . . . . . . . . . . . . . . . . . . . . . . . . . . . . . . . . . . . . . . . . . . . . . . . . . . . . . . . . . . . . . . . . . . . . . . . . . . . . . . . . . . . . . . . . . . . . . . . . . . . . . . . . . . . . . . . . . . . . . . . . . . . . . . . . . . . . . . . . .       "
};
