/* XPM */
static char *rdb9v_760ut[] = {
/* columns rows colors chars-per-pixel */
"147 45 43 1 ",
"  c None",
". c #000000",
"X c #07065C",
"o c #08095F",
"O c #070663",
"+ c #080765",
"@ c #080A63",
"# c #1E6D7E",
"$ c #0B079B",
"% c #0B089B",
"& c #0D1198",
"* c #0F1D9F",
"= c #101D9E",
"- c #11239C",
"; c #122A9A",
": c #143395",
"> c #163D90",
", c #14359D",
"< c #163D99",
"1 c #0D0BA6",
"2 c #0C08A8",
"3 c #0E14A2",
"4 c #0E18A1",
"5 c #0F15AD",
"6 c #1016AD",
"7 c #101CAA",
"8 c #0D0CB2",
"9 c #0E11B0",
"0 c #1123A7",
"q c #132AA3",
"w c #1430A0",
"e c #17448E",
"r c #18448E",
"t c #184A8B",
"y c #1A5686",
"u c #1B5C84",
"i c #1A528B",
"p c #1B5C88",
"a c #174495",
"s c #184495",
"d c #184A92",
"f c #1D6383",
"g c #1E6981",
/* pixels */
"   .............................................................................................................................................   ",
" ................................................................................................................................................. ",
" ..O%12112221121211112211121112111221121211222211221211212112111212122221121211211221212121222212222222222211122111212221122212222211121112121$X.. ",
"..O111111111111111111111111111111111111111111111111111111111111111111112111111111111111111111311311132133111111111111111111111111111111111111111X..",
"..&33331333333&133313333333333331333313333333333333333331331133333313333133333133333333&33333333333333333313333%33333333333333333313331&33333133&..",
"..3344344433344*33=33333333333334*43*44&3333333333343333343=*34*3334333=433334434333343&33443333333433334334333=33333344343444334444444*443434334..",
"..======-44-44&-============4==4===*****4=======4=4=-4========&===================-=4======4=========44=========4===4===4-=4-44=***4**&*=4=======..",
"..--------------------------;--;-----=----;----------------------;-------------;------;&-----------------------=;---------------------------;----..",
"..;;;;;;--;;;;;;;-;;;;;;;;-;;;;;-;;;;;;;;;;;;;;;;;;;;;;;;-;;;;--;;;;;;;;;;;;;-;;;;;;;;;;;;;;;;;;;-;;-;;;;;-;;;;;--;;;-;;;;;;;--;-;;-;;;;;;;;;--;;..",
"..::::::::;::::;::::;::::::::;:::::;:::::::;::;::::::::;::;::::::;::::;::::::::::::;:::;::;::::::::::::;::;:;:::::::::::::;::::::::::::::;:::::::..",
"..::::::::::>:::::>::::::::>:::::>::::::::>::::>::::::>::::>:>:::::>:::>::::::::>::::::&:::>::::>::::>::>::>:>::::>::::::::>::::>::::::::>>::::::..",
"..>>>e>>>>e>>>>>>>>>>>>>>>>>>>>>>>>>>>>>>>>>>>>>>>>>>>>>>>>>>>>>>>>>>>>>>>>>>>>>>>>>>>>#>>>>>>>>>>>>>>r>>>>>>e>>>>>>>>>>>>>>>>r>>>>>>>>>>>add@::a..",
"..rrreeeteteee>errrtreeeeeeerrrreeeeeee>eeeeddarrrrrrrrrteeeee>eerrereeeeerrrrrr>>#>>t>>rrrerrrrrrrrrrrrrrrrrreerrrrrrrrrrr>rrrreeeeeeeeeeee>>#;r..",
"..tttttrttttttterttrttttttttttttttttttttttttditttttttttrttttrttttttttttttttttttttt>>#ttttttttttrttttttttrttrtttrtttttttttttttitttttttttttttt>::#t..",
"..iiiytyyytttyytytyyyttyyttyttyytyytiytyyiit:@#>ytytytiyytytyytyt>#>yttytyyttyii>>t>>ttt#t#>tyttititytytytttytytytyyytttyytyytyttyytytiititi:##>i..",
"..yyyyyyyyyyyyt#yyyyyyyyyyyuyyyyyyyyyyyyyyyu##>#yyyyyyyyyyyyyyyy##t#yyyyyyyuyyyy#t##t#t#ttt#yuyyuyuyyyyy#t#t#tyyyyyyyyuyyyyyyyuyyyyyt#yyyyyy#>#>y..",
"..#>t##tuuuupppg#yyy>##pppuuuyyufpuuupyu#yyy##>>>####et#uyuyuufg#>>###>#uuuuuuuuuuyy#yyyfuuuuuuu###>#>t#yyuuppfg#yy##>#:##uuuuuufppuuuuuuuuu>###u..",
"..###t###ffufffgy######@fffff#u#ggffu#y#y###e#####>>####uu#uuffg####>###ggffffuuu#y#y###ggffffy#>>########uufffg#yt##>##@#fffuffggffffuu#uuu##e#f..",
"..t#####u#u#ggggt##y####ffffy##ugg###u#yy##y#########t####f#ffgg##>#ff#@gg###u#####yy##ygg##f#fu#########uf#gfgg########ffgffuffgg##ff#u#y######f..",
"..##########gg##########ggg#####g#############################g#####gggg#g#####u#u#######g##########t######g##g#########fggg####gg##g############..",
"..##################################################################g############################################################################..",
"..##################################################################gg###########################################################################..",
"..###############################################################################################################################################..",
"..#############g#######################g#######################################################################g#######################g#########..",
"..######gggg##gggggggggg########ggg###gggggggggg########gggg##gg####gggg####gggg####gggg####gggg########ggg###gggggggggg####g###gg####gggggggggg#..",
"..ggg##gggggg#gggggggggg###gg#gggggggggggggggggg#####u##gggg#ggg####ggggggg#gggg####gggg#g##gggg#####u##ggg#g#gggggggggg##gg#g#gggg###ggggggggggg..",
"..gggggggggggggggggggggg##f#gggggggggggggggggggg##t#g#ufgggggggggg##ggggggggggggg###gggggggggggg##t#ggfggggggggggggggggg#gggggggggggggggggggggggg..",
"..fgffgggpggggggggggggff##ffggfggpggggggggfggggg###yffffpgggggggggggffggggggfgfpffufpggggggggpgg###yffffpgpggggggggggggg#gggffggpgggggggggggggfff..",
"..pffffpppgpfffpggpgpfffffpppffppfpppfppgpffppgppffpffpfppgpfffffffpgfppgpppfppfufppffppffpppfppfpppfpfppppgfpppgfpfppfppgpppfffppppgpppgfpfffpff..",
"..pppppppppppppppppppppppppppppppppppppppppppppppppppppppppppppppppppppppppppppppppppppippppppppppppppppppppppppfpppppppppppppppppppppppfpppppppp..",
"..piiipipiippipdppiippippippppipppdppppppppipppiippipiippiiiiiiipippppppppdpppdpiiipipipppdpppippiippiippppppippppppppppipippiiippipipppipiipiipp..",
"..diiiidpddiidpdddpddiddiddiddiddpdpddidddididdiidiididiidiiidiididddddddppddpdpiiiididpdpdpdididiiididiidddidpddddddidddiiidiidiididdpdddiiididi..",
"..dddddddddddddddddddddddaddddddddddddddddddddddddddddddddddddddddddddddddddddddddddddddddddddddddddddddddddddddddddddddddddddddddddddddddddddddd..",
"..ssasaaaasdsaasaaaaaaaaaaaaaaaaaaaasaaaaasaassaaaasaaaassaaasaaaaaaaaaaaassaaasaassaaaasaaassassssdsssssssaaassaaaassssssassaasaaaaaaaaaaaaaaaaa..",
"..<<a<<s<aaa<a<<a<<a<<aa<<<<a<<<<a<<a<<<<<<aa<<<<<a<<<<a<a<<a<<<<<a<<<<<<<<<<<s<<<<<<<<a<<a<<<a<<sss<s<<a<<a<<<a<a<<ss<<<s<<<<a<<<<<<<<a<a<<a<<<<..",
"..<w<wwwwwwww<ww,,w,,,w,,,,,,,,,,,,,,,,,,,,,,,,,,,,,,,,,,,,,,,,,,,,,,,<,,,<,,w,,,,,,,,,,,,,,,,,,wwwww<ww,,w,,,,,,,,,,,,,w,,,w<ww,,<,,,,,,,,w,,,,,..",
"..wwwwqwwwqwwwwwwwwqwwwwwwwwwqq,q,qwwwqwwww;,,q,wwqw,qwwwwqw;wwwwwwww,qqwwww,q,;,q,qq,qw,,q,wqwwwwwwwwwwwwwqwwwwwwqwwwqwwqwwwwwwwwwqwwwwwwwwqwqww..",
"..qqqqqqqqqqqqqqqqqqqqqqqqqqqqqqqqqqqqqqqqqqq00qqqqqqqqqqqqqqqqqqqqqqqqqqqqqqq0qqqqqqqqqq0q0qqqqqqqqwqqq0qqqqqqqqqqqqqqqqqqqqqqqqqqqqqqqqqqqqqqqq..",
"..00000000000000000000000000000000000000000000000000000000000000000000000000000000000000000000000000000000000000000000000000000000000000000000000..",
"..77777777777777777777777777777777777777777777777777767777777777777777777777777777777777777777777777777777777777777777777777777777777677777777777..",
"..45555555965555556666666665665566655555556656666666665566655566566566665555565566555557565666556666666666656665666666656666656666666666666566664..",
"..+999999999999999999999599999999999999999999999999999999999595999999999599995999599588599999999999999999999999999999995999999999999999999999999@..",
" ..+5888988888988888888888888888888898888888889888889888888888888888888888888888888888888889898888888888888888888888888888888888888898888888981+.. ",
" ................................................................................................................................................. ",
"   .............................................................................................................................................   "
};
