/* XPM */
static char *x8xyq_cr8ah[] = {
/* columns rows colors chars-per-pixel */
"147 45 156 2 ",
"   c None",
".  c #000000",
"X  c #08316E",
"o  c #073275",
"O  c #074774",
"+  c #074C7E",
"@  c #07517E",
"#  c #1E6D7E",
"$  c #1F707F",
"%  c #0F1D9E",
"&  c #101D9E",
"*  c #11239C",
"=  c #122A9A",
"-  c #143395",
";  c #163D91",
":  c #15359D",
">  c #163D99",
",  c #0F1AA2",
"<  c #0E1FA9",
"1  c #0F21A6",
"2  c #0D21AA",
"3  c #0E2BAC",
"4  c #1125A7",
"5  c #132AA3",
"6  c #1125AB",
"7  c #112AAB",
"8  c #1430A0",
"9  c #143BA3",
"0  c #1233AB",
"q  c #113CAB",
"w  c #0F2FB7",
"e  c #102FB6",
"r  c #0E31B5",
"t  c #0E3DB6",
"y  c #0F33B9",
"u  c #0F3DBD",
"i  c #1031B6",
"p  c #103EB8",
"a  c #17448E",
"s  c #18448E",
"d  c #184A8B",
"f  c #085380",
"g  c #075E83",
"h  c #1A5786",
"j  c #1B5C84",
"k  c #1A528B",
"l  c #1C5C88",
"z  c #174495",
"x  c #184495",
"c  c #174B94",
"v  c #184A92",
"b  c #16429C",
"n  c #174B9C",
"m  c #195392",
"M  c #1A5D93",
"N  c #16529E",
"B  c #195599",
"V  c #17589B",
"C  c #185E9C",
"Z  c #1D6383",
"A  c #1E6981",
"S  c #1B638C",
"D  c #1D6B8A",
"F  c #1F7484",
"G  c #1E738C",
"H  c #1F7C8E",
"J  c #196296",
"K  c #1B6B95",
"L  c #19649E",
"P  c #1A6C9C",
"I  c #1D7393",
"U  c #1D7C94",
"Y  c #1C749A",
"T  c #1D7A99",
"R  c #1443A4",
"E  c #154CA0",
"W  c #1347AD",
"Q  c #134CA9",
"!  c #1653A5",
"~  c #175CA3",
"^  c #1554AE",
"/  c #165AAA",
"(  c #0F40B4",
")  c #0D44BD",
"_  c #0F4EBB",
"`  c #1144B3",
"'  c #124DB5",
"]  c #1450B0",
"[  c #1152BC",
"{  c #1865A4",
"}  c #1A6AA2",
"|  c #156FB6",
" . c #1266BC",
".. c #146DBA",
"X. c #1673B4",
"o. c #187BB3",
"O. c #1673B9",
"+. c #0F50C4",
"@. c #0E59C5",
"#. c #0E54C9",
"$. c #0F5CCC",
"%. c #1055C2",
"&. c #0C64CD",
"*. c #0D6ACD",
"=. c #1067C3",
"-. c #136DC2",
";. c #1065C9",
":. c #0F74CC",
">. c #0F7DCD",
",. c #137BC4",
"<. c #1175CC",
"1. c #1179C8",
"2. c #0E6BD1",
"3. c #0D71D4",
"4. c #0E7AD6",
"5. c #1E8294",
"6. c #1A84AE",
"7. c #1C8BAC",
"8. c #1F96A7",
"9. c #1E92AA",
"0. c #1A84B2",
"q. c #1585BF",
"w. c #188CBE",
"e. c #1D9DB7",
"r. c #1A93BC",
"t. c #1C9BBA",
"y. c #1FA3B6",
"u. c #1583C4",
"i. c #178AC2",
"p. c #188EC1",
"a. c #1381CD",
"s. c #0E8CD5",
"d. c #0D84DA",
"f. c #0F8CDB",
"g. c #128AD6",
"h. c #108AD9",
"j. c #0D92D3",
"k. c #0C9AD6",
"l. c #0D93DF",
"z. c #0E9CDA",
"x. c #17AAD6",
"c. c #19AFD6",
"v. c #14A4DB",
"b. c #17ABD9",
"n. c #1AB3D4",
"m. c #1EBCD1",
"M. c #0E8FE0",
"N. c #0D93E3",
"B. c #0D9CE7",
"V. c #109CE1",
"C. c #0EA3E7",
"Z. c #0FA8E4",
"A. c #0EA5E9",
"S. c #12A5E1",
"D. c #11AAE5",
"F. c #10ADE8",
/* pixels */
"      . . . . . . . . . . . . . . . . . . . . . . . . . . . . . . . . . . . . . . . . . . . . . . . . . . . . . . . . . . . . . . . . . . . . . . . . . . . . . . . . . . . . . . . . . . . . . . . . . . . . . . . . . . . . . . . . . . . . . . . . . . . . . . . . . . . . . . . . . . . . .       ",
"  . . . . . . . . . . . . . . . . . . . . . . . . . . . . . . . . . . . . . . . . . . . . . . . . . . . . . . . . . . . . . . . . . . . . . . . . . . . . . . . . . . . . . . . . . . . . . . . . . . . . . . . . . . . . . . . . . . . . . . . . . . . . . . . . . . . . . . . . . . . . . . . . .   ",
"  . . g j.d.3.*.&.&.&.&.&.&.&.&.&.&.&.&.&.&.&.&.&.&.&.&.&.&.&.&.;.2.$.$.2.;.;.&.&.;.2.&.&.&.&.&.&.&.&.&.&.&.&.&.&.&.;.;.&.&.&.&.&.&.&.&.&.&.&.&.&.&.&.&.&.&.&.&.;.;.$.$.2.;.2.$.&.&.2.;.&.&.;.;.&.&.&.&.&.&.&.&.&.&.&.&.&.&.&.&.&.&.&.&.&.&.&.&.&.&.&.&.&.&.&.&.&.&.&.&.&.&.&.&.&.&.&.2.4.N.k.@ . .   ",
". . g N.&.) t r r r r w r r r r r r r r r r r r r r r r r r r r e i i e e e i i w e e i r r w w r r r r r r r r w w e e r r r r r r r r r r r r r r r r r r r r i i i e e e e e i i e i w r w i r r r r r r r r r w w e r r r r r r r r r w r w r r r r r r r r r r w w r r r r r r r t ) @.d.Z.O . . ",
". . j.*.t 3 2 2 < < < < < < < < , 2 < < < < < 2 < < < < 2 , 2 < 4 , 6 , , 4 , , < < < < < < < < < < < < 2 , 2 2 < < < < < < 1 , 2 , < < < < 2 < < < < < 1 < < < , 6 6 , , , & & < < < < < < < < < 2 < 2 < < < , < < < < < < < & , 2 2 2 < < < < < < < 2 2 , 2 < < < 2 < < < , & 2 < 2 2 2 t @.f.k.. . ",
". . s._ 3 2 , , , % , , , , , % , , , , , , , , , , , , , , , , , , , , , , , & , , , , , , , , , , , , , , , , , , , , , , , & , , , , , , , , , , , , , , , , , & , , , , & & , , , , , , , , , , , , , , , , & & , , , , , & , , , , , & , , , , , , , , , , , , & & , , & & , , , , 4 2 ( :.D.. . ",
". . >.( 5 1 1 % % % % % % % % % % % % & , & & & & & % & & & % % & & & & , & & & & & & & & & & & & & % & & & % % & & & & & & & & , % % * , % & & & & & & % % % % & & & & , & & & , , & & & & & & % % & & % % , % & & & & & & & & , % % % & & & & & & % & & % , % & & , & & , & & % % , & % 5 q =.C.. . ",
". . >.W 8 = * * * = % * * % * * * * * * * * * * * * * * * * * * * * * * 5 & * * * * * * * * * * * * * * * * * * * * * * * * * & * * * * * * * * * * * * * * * * * * * * * 4 * * * * * * * * * * * * * * * * * * * * * * * & * & * * * * * * * * * * * * * * * * * * * * * * * & * * * * * 5 q  .v.. . ",
". . ,.Q 8 8 = = = = = = = = = = = = = = = = = = = = * * = * = = = * = * = = = = * = = * * * = = = * = = = = = = = = = = = = = = = = = = = = = = = * * = = * = = = = = = = = * = = = = = = = = = = * = * = = * = = * = = * = = * = = = = = = = = = = = = = = = = * = = = = = * = = = = = = : 9  .v.. . ",
". . ,.Q : - - = - - = - - - - = - - = - - - = - - - - - - - - - - - - - = - = - - - - - - - - - - - - - - - - = - = - - - - = - - - = - - - = - - - - - - - - - = - - = = - - - - = - - - = - - - - - - - - - = - - - - - - - - - - = - - - - - - - - - - = - - - - - = - - - - = - - - : : R ..v.. . ",
". . u.! b > - - ; - - ; - - ; - - - - ; - - - ; - - - ; ; - - - - - - ; ; - ; - - - - - - - - - - - - - - - - - - ; - - - - - - - - - ; - - - ; - - ; - - - - - - ; - ; ; - - - - - - - - - - - ; - - - - ; - ; ; - - - - ; - ; - - ; - - - - - - - - - - - - - ; - - ; - - - ; - - - - - > E | v.. . ",
". . q.~ c ; a ; ; ; ; ; ; ; ; ; ; ; ; ; ; ; ; ; ; ; ; ; ; ; ; ; ; ; s s ; ; ; ; ; s ; ; s s s s ; ; ; ; ; ; a a ; ; ; ; ; ; s ; ; ; ; ; ; ; ; ; ; ; ; ; a ; ; ; - s s X ; ; s ; ; s s - s s s s ; ; ; ; ; ; ; ; ; ; ; ; ; ; ; ; ; ; ; ; ; ; ; ; ; ; ; ; ; ; ; ; ; ; ; ; ; ; ; ; s ; ; ; x x B X.x.. . ",
". . w.C c v a a a a a a a a a a a a a a a a a a a a a a a a a a s s s s s s s s s s s s s s s s a a a a a a a a a a ; a a a s s a a a a a a a a a a a a a a a a s s s s s s s s s s s s s s s s a a a a a a a a a a ; s s s ; s a a a a a a a a a a a a a a a a a a a ; a s s ; s a a a x v B o.x.. . ",
". . w.L m d d a d d d d d d d d d d d d d d d d d d d d d d d d d s d d # d d s s s d d d s d d d d d d d d d d d d d d d d d d d d d d d a d d a d d d d d d d d d d d d d d s s s d d d s d d d d d d d d d d d d d d d d d s d d d d a a d d d d d a d d d d d s d d d d d s d d d d v k M o.x.. . ",
". . r.P M k h h d h d h d h h d k h h d d h h d d h d h h d d h d h k k s o h d h d h h d k # h h k d h d d h d h d h d @ d h d k k + h d h h h h d d h d h d h d d h d h h d h h d h h h d d h d d h d h d h d d k k h h d h d k k + h h h d h h d d h h d h h d h h d h h h h d d h h k k S o.n.. . ",
". . r.Y M h h h h h h h h h h h h h h @ h h h h h h h h h h h h h h h h h l h h h h h h h h o h h h h h h j h h h h h h j h h h h h h h h h h h h h h h h h h h h h h h h h h h h h h h h h h h j h h h h h h h @ j h h h h # d h h h h h h h h h h h h h h h h h h h h h h h h h h h h l l K 0.n.. . ",
". . t.Y Z j j j j h j h s # # d j j j j h h # d h # j j j h j j s # s o h l j j j j j j j j j j # h j h j j # d # h j h # d # d # h + h h j h # k h h h # h d # d # l j j h j j j j j j j j j j j j j j j j j j j j j j j j j j # h h # h h # j j j h h h h # h d # d d # d h # h h h # l l I 7.m.. . ",
". . y.I A Z Z Z Z Z Z h # d # # # j h # # + h # # h j h # j h # # # # # Z j j Z Z Z Z Z j j Z Z # j # j j j + # h h # h # # h # h # # d # h # h O # # h h # # d # # l o Z Z Z Z Z Z Z Z Z j j j j j # j # j j # j j # j Z Z j Z # h # h h # + j j # # j # j h # # + # # # # h h # h # h Z A I 9.m.. . ",
". . y.U D Z A Z A Z O h # # # # j # # # # # # # # h # + # h # # # # # # Z Z Z Z # Z Z Z j # # # h # # j # # # # # # j # + j # # # # h # h # # h # # # # # # h # d # # # Z Z A Z Z Z Z A # Z # # # # # j j # # # # # # j Z Z Z A + # # h # h # # # j # h # # # # # # # # + j # # # # # h A A G 9.m.. . ",
". . y.U $ A # # # # # # # # # # # j # # # # # # # # # # # # # # # # # # # # A # # Z # # # # # # # # # j # # # # # # # # # # # # # # # # # # # # # # # # # # # # Z # # # # Z # # # Z # # # Z # Z # j j # # # # # Z # j # # # A # # # # # # # # # # # # # # h # # # # # # # # # # h # # # A A H 8.m.. . ",
". . y.5.F $ $ $ # # # # # # # # # # # # # # # # # # # # # # # # # # # # # # # # # # # # # # # # # # # # # # # # # # # # # # # # # # # # # # # # # # # # # # # # # # # # # # # # # # # # # # # # # # # # # # # # # # # # # # # # # # # # # # # # # # # # # # # # # # # # # # # # # # # # # # H 8.m.. . ",
". . y.5.$ $ $ $ # # # # # $ # # # # # # # # # # # # # # # # # # $ # # # # # # # # # # # # # # # # # # # # # # # # # # # # # # # # # # # # # # # # $ # # # # # # # # # # # # # # # # # # # # # # # # # # # # # # # # # # $ $ # # # # # # # # # # # # # # # # # # # # # # # # # # # # # # # # H 8.m.. . ",
". . y.5.$ $ # # # # # # $ # $ $ # # # # # # # # # # # # # # # # # $ $ # # $ # # # # # # # # # # # # # # # # # # # # # # # # # $ # # # # # # # # $ $ # # # # $ $ # # $ # # # # # $ # $ # # # $ $ # # # # # $ # # # # # # # $ # $ # # # # # # # # # # # # # # # # $ # $ # # # # # # # # # # $ H 8.m.. . ",
". . y.5.$ $ # # # # # # $ $ # $ # # # # # # $ # # # # # # # # # # $ $ # # # $ $ # # # # # # # # # # # # # # # # # # # # # # # $ $ $ # # # # # # $ # # $ # # # $ # # # $ # # # # $ $ # $ $ # # $ # # # # # # # # # # # # # $ $ # # # # # # # # # # # # # # # # # $ # $ # $ $ # $ # # # # $ F H 8.m.. . ",
". . y.5.H $ $ A A $ $ # # $ A $ # $ # # $ $ A A # # # # # # # $ $ $ A $ A $ A $ $ # # $ $ $ A A # # # # # # # $ A $ $ $ # $ $ $ $ # # # A A $ $ # # $ # A F $ $ # # $ # $ A $ $ $ $ $ A $ A $ # # # # # # # # # A $ A # # $ A # # $ A A # $ A A # # # # # $ # # $ $ $ # # # $ $ $ $ $ A A F H 8.m.. . ",
". . y.5.G $ A $ A A A $ # A A A # A A A # $ A A # # A # # A A # A A A $ A A $ A # A # A $ A A A # # A # A # # A A A # A # # A A # # # # A A # A # A A # A A # A # # # $ A $ A A $ A A A A A # # # # j # # # # # A D # A # # A # # A A A # F A A # # Z # # # A A A A # # A A $ A # A A A A F H 8.m.. . ",
". . y.U G A A A A A A A A A A A A A A A A A A A # # j # A A A A A A A A A A A Z A A A A A A A A # # # A A A A A A A A A Z A A A Z # # # A A A A A A A A A A A D Z # # # A A A A A A A A D A A A # # Z # # # # Z A A A A A A A A A A A A A A A A # # # # A A A A D A A A A A Z A A A A A A F U 9.m.. . ",
". . y.T D A Z Z Z Z Z D Z Z A Z A Z A Z Z Z Z D # # j Z A A Z Z Z A Z A A Z Z A Z Z Z Z A Z Z Z h j j Z A Z Z Z Z A Z A Z Z Z A Z Z j # A Z Z A A Z A Z Z Z A Z Z A Z # Z Z Z Z Z Z Z Z Z Z A Z # Z Z # Z Z Z Z A Z Z A Z Z Z A Z Z Z A Z A Z Z # h j j Z Z A A Z Z Z Z Z A Z Z A Z Z Z A D I 9.m.. . ",
". . t.T D S l Z Z Z l Z Z Z l Z Z l Z Z Z Z l Z Z l Z Z l Z l Z A l Z l Z l Z Z Z Z Z l Z Z l Z Z Z Z l Z l Z Z Z Z Z l Z Z S Z Z Z l S Z Z Z S l Z Z S l Z l Z Z Z l Z Z l l Z Z Z l Z l A Z Z l A l l j Z Z l A l Z Z Z l Z Z Z Z Z l Z Z l Z Z Z l Z Z Z l Z l Z Z Z l Z l Z l Z l Z Z S I 7.m.. . ",
". . t.Y S l l l l l l l l l l l l l l l l l l l l l l l l l l l l l l l l l l l l l l l l l l l l l l l l l l l l l l l l l l l l l l l l l l l l l l l l l l l j h l l l l l l l l l l l l l l l l l l h j l l l l l l l l l l l l l l l l l l l l l l l l l l l l l l l l l l l l l l l J K 7.m.. . ",
". . t.} M k l k k k k k M k k k k B k k k k k k k k B k k k k l k k k k k k l k k l l k k B k l M k k k B k k k k k k l k k h k k k k l k k k k k k k k k B l k k k k k l l k l k k k k k k k k l l l k k k l k k k k k k l l k k l l k B l k k k k l k l k k l k l k k l k k k l k k l l M P 0.c.. . ",
". . t.} B m k m m k m m k k k k k k k k m k k k k B k k k k k v k B k k k m v m k v m k k k k v m k k k k k k k m k m v k m m d k v k k k m k m k k k k k k k k k k k k k v v k k k k k B k k k k v v k k k k k B k k k m v v m k v m k k k k B k k v k m v k v k m k m k m m k m m d m m m L 0.c.. . ",
". . p.} B x B x x v v v v v v v v v v v v v v v v v v v v v v v v v v v v v v v v v v v v v v v v v v v v v v v v v v v v v v v v v v v v v v v v v v v v v v v v v v v v v v v x v v v v v v v x v x x v v v v v v v v v v v v v v v v v v v v v v x m x v m x v v v v v v v c v v v v v B C o.c.. . ",
". . p./ B x x x x x x x x x x x x x x x x x x x x x z z x x x x v x x x x x x x x x x x x x x x x x z z z z x v x x z z v x x x x x x x x x x x x x x x x x x x x x x x x x x x x x x x x x x x x x x x x x x x x x x x x x x x x x x x x x x x x x x x x x x x x x x x x x x x x z z z x n ~ o.b.. . ",
". . i.^ n > > > x > > > x > > > > > > > > > > > > > > > > > > b > > > > b > > > > > > > > > > > > > > > > > > b > > > > > > > b > > > > > > > > > > > > > > > > > > > > > > > > > > > > > > > > x > > x > > > > > > > > > > > > > > > > > > > > > > > > > > > > > > > b > > > > > > > > b b ! O.b.. . ",
". . u.^ b : : : : : : : : : : : : : : > : : > : : : : : : : : : : : : : : : : : : > : : : : : : : : : : : : : : : : : : : : : : : : : : : : : : : : : : : : : : : : : : : : : : : : > : : : : : : : : : : > : : : : : : : > : : : : : : : : : : : : : > : > : : : : : : : > : : > : : : : 9 Q ..v.. . ",
". . a.^ 9 0 8 8 8 8 8 8 8 8 8 8 5 : 5 5 8 5 8 5 = 8 : = 8 8 5 8 : = = 8 8 8 = 8 5 : : = : : = 8 = 5 8 8 8 = : 5 : 5 5 : 5 : 5 8 8 5 : 8 : 5 : = : 8 8 8 8 8 8 8 : = 8 8 8 8 5 : : = 8 8 8 8 8 8 8 8 8 5 8 8 8 8 8 5 8 8 8 8 5 5 8 8 8 8 8 8 8 5 8 5 8 8 8 8 8 8 : 5 : = : 5 : 5 5 : 5 = 8 9 W -.S.. . ",
". . <.' 0 0 5 5 5 5 5 5 5 5 5 5 5 4 5 5 5 5 5 5 5 5 4 4 5 5 5 5 5 5 5 4 5 5 5 4 5 4 5 4 4 5 5 5 5 5 5 5 5 5 4 5 5 5 5 5 5 4 5 5 5 5 5 5 5 5 4 5 5 5 5 5 5 4 5 5 5 5 5 5 5 5 4 5 5 5 5 5 5 4 4 5 5 5 5 5 5 5 5 5 5 5 5 5 5 5 5 4 5 5 4 5 5 5 5 5 5 5 5 4 5 5 5 5 4 5 4 5 4 5 5 4 5 5 5 5 5 0 ` -.S.. . ",
". . g.[ 0 5 4 4 6 6 6 6 4 4 4 4 4 7 7 6 4 4 6 6 7 6 7 6 4 6 4 4 7 6 6 6 4 7 6 6 4 4 6 6 6 6 7 4 6 6 4 6 7 6 6 4 4 6 4 6 4 4 4 4 6 6 4 4 6 6 1 6 4 6 6 4 6 4 4 6 4 6 4 6 6 4 6 6 4 6 4 4 6 6 6 6 4 4 6 4 6 4 4 4 6 6 6 4 4 4 6 6 4 6 4 6 5 4 4 6 4 4 6 4 4 6 4 4 6 4 4 6 4 7 6 7 6 7 6 6 7 0 ` <.D.. . ",
". . S.;.p e e 6 6 6 6 6 6 6 6 6 6 6 6 6 6 6 6 6 6 6 6 6 6 6 6 6 6 6 6 6 6 6 6 6 6 7 6 6 6 6 6 6 6 6 6 6 6 7 6 6 6 6 6 6 6 6 6 6 6 6 6 6 6 6 6 6 6 6 6 6 6 6 6 6 6 6 6 6 6 6 6 6 6 6 6 6 6 6 6 6 6 6 6 6 6 6 6 6 6 6 6 6 6 6 6 e 6 6 6 6 6 6 6 6 6 6 6 6 6 6 6 6 6 6 6 6 6 6 6 6 6 6 6 6 7 i %.h.F.. . ",
". . V.h.$.u y i e e e e i i e e i w w i w w w i w w w i i i i i w w i w w e w i w w i w i w w w w w y e w w w y w w w i w w w y e w i e w e i y w w i w w i w y i i i w w w w w y i i i i w y i e e e e i i i i i i e e e e y e e y e y e y i e e e i e e e e i w y w w w w w i w y w y p %.4.C.g.. . ",
". . f D.N.3.$.#.#.#.#.$.#.#.#.#.#.#.#.#.#.#.#.#.#.#.#.#.#.#.#.#.#.#.#.#.#.#.#.#.#.#.#.#.#.#.#.#.#.#.#.#.#.#.#.#.#.#.#.#.#.#.#.#.#.#.#.#.#.#.#.#.#.#.#.#.#.#.#.#.#.#.#.#.#.#.#.#.#.#.#.#.#.#.#.#.#.#.#.#.#.#.#.#.#.#.#.#.#.#.#.#.#.#.#.#.#.#.#.#.#.#.#.#.#.#.#.#.#.#.#.#.#.#.#.#.#.#.#.$.2.d.B.C.X . . ",
"  . . d V.A.C.B.N.N.N.N.N.N.N.N.N.N.N.N.N.N.N.N.N.N.N.N.N.N.N.N.N.N.N.N.N.N.N.N.N.N.N.N.N.N.N.N.N.N.N.N.N.N.N.N.N.N.N.N.N.N.N.N.N.N.N.N.N.N.N.N.N.N.N.N.N.N.N.N.N.N.N.N.N.N.N.N.N.N.N.N.N.N.N.N.N.V.M.V.V.N.N.V.N.B.N.N.B.N.N.B.N.N.N.N.N.N.N.N.M.N.N.N.N.N.N.N.N.N.N.N.N.N.N.N.N.N.B.B.B.A.s.o . .   ",
"  . . . . . . . . . . . . . . . . . . . . . . . . . . . . . . . . . . . . . . . . . . . . . . . . . . . . . . . . . . . . . . . . . . . . . . . . . . . . . . . . . . . . . . . . . . . . . . . . . . . . . . . . . . . . . . . . . . . . . . . . . . . . . . . . . . . . . . . . . . . . . . . . .   ",
"      . . . . . . . . . . . . . . . . . . . . . . . . . . . . . . . . . . . . . . . . . . . . . . . . . . . . . . . . . . . . . . . . . . . . . . . . . . . . . . . . . . . . . . . . . . . . . . . . . . . . . . . . . . . . . . . . . . . . . . . . . . . . . . . . . . . . . . . . . . . . .       "
};
