/* XPM */
static char *f2yuj_5ul3j[] = {
/* columns rows colors chars-per-pixel */
"147 45 101 2 ",
"   c None",
".  c black",
"X  c #000405",
"o  c #000406",
"O  c #02667C",
"+  c #02677E",
"@  c #026C83",
"#  c #026C84",
"$  c #026C85",
"%  c #026D86",
"&  c #03B1D9",
"*  c #03B2DB",
"=  c #04B2D8",
"-  c #04B4D9",
";  c #03B2DC",
":  c #03BFE8",
">  c #03BEE9",
",  c #03BFEB",
"<  c #04BFEB",
"1  c #03BFEC",
"2  c #04BFEC",
"3  c #07D3DF",
"4  c #07D4DF",
"5  c #07D5DF",
"6  c #07D6DE",
"7  c #07D7DE",
"8  c #07D6DF",
"9  c #07D7DF",
"0  c #08D6DE",
"q  c #08D7DE",
"w  c #08D6DF",
"e  c #08D7DF",
"r  c #08D8DE",
"t  c #08D9DE",
"y  c #08D8DF",
"u  c #04C3E6",
"i  c #04C2E7",
"p  c #04C3E7",
"a  c #05C6E5",
"s  c #05C7E5",
"d  c #04C5E6",
"f  c #05C5E6",
"g  c #04C4E7",
"h  c #04C6E6",
"j  c #05CAE3",
"k  c #05CBE3",
"l  c #06CBE3",
"z  c #06CFE1",
"x  c #05CCE3",
"c  c #06CDE2",
"v  c #06CCE3",
"b  c #06CFE2",
"n  c #06CEE3",
"m  c #06CFE3",
"M  c #05C8E4",
"N  c #05CAE4",
"B  c #05CBE4",
"V  c #06CBE5",
"C  c #05C8E7",
"Z  c #05C9E7",
"A  c #05CAE6",
"S  c #06CDE4",
"D  c #06CCE5",
"F  c #06CEE4",
"G  c #06CFE4",
"H  c #03C0E8",
"J  c #04C0E8",
"K  c #04C1E8",
"L  c #04C3E9",
"P  c #04C1EA",
"I  c #04C0EB",
"U  c #04C1EB",
"Y  c #04C2EA",
"T  c #04C3EA",
"R  c #04C4E8",
"E  c #05C4E8",
"W  c #04C5E8",
"Q  c #05C5E8",
"!  c #04C4E9",
"~  c #05C4E9",
"^  c #04C5E9",
"/  c #05C5E9",
"(  c #05C6E8",
")  c #05C7E8",
"_  c #05C6E9",
"`  c #06D0E1",
"'  c #07D0E1",
"]  c #06D1E1",
"[  c #07D2E0",
"{  c #07D3E0",
"}  c #07D2E1",
"|  c #07D3E1",
" . c #06D0E2",
".. c #07D0E2",
"X. c #06D1E3",
"o. c #07D2E2",
"O. c #07D4E0",
"+. c #07D5E0",
"@. c #07D4E1",
"#. c #07D6E0",
"$. c #08D6E0",
/* pixels */
"      . . . . . . . . . . . . . . . . . . . . . . . . . . . . . . . . . . . . . . . . . . . . . . . . . . . . . . . . . . . . . . . . . . . . . . . . . . . . . . . . . . . . . . . . . . . . . . . . . . . . . . . . . . . . . . . . . . . . . . . . . . . . . . . . . . . . . . . . . . . . .       ",
"  . . . . . . . . . . . . . . . . . . . . . . . . . . . . . . . . . . . . . . . . . . . . . . . . . . . . . . . . . . . . . . . . . . . . . . . . . . . . . . . . . . . . . . . . . . . . . . . . . . . . . . . . . . . . . . . . . . . . . . . . . . . . . . . . . . . . . . . . . . . . . . . . .   ",
"  . X # & > > > > > > > > > > > > > > > > > > > > > > > > > > > > > > > > > > > > > > > > > > > > > > > > > > > > > > > > > > > > > > > > > > > > > > > > > > > > > > > > > > > > > > > > > > > > > > > > > > > > > > > > > > > > > > > > > > > > > > > > > > > > > > > > > > > > > > > > > & # X .   ",
". . @ : : : : : : : : : : : : : : : : : : : : : : : : : : : : : : : : : : : : : : : : : : : : : : : : : : : : : : : : : : : : : : : : : : : : : : : : : : : : : : : : : : : : : : : : : : : : : : : : : : : : : : : : : : : : : : : : : : : : : : : : : : H : : : : : : : : : : : : : : : : : : O . . ",
". . = J J J J J J J J J J J J J J J H J J J H J J J J J J H J J J H J J H J J J J H J H J J J J J J J J J J J J J J J H H J H J J H J J J H J J J J H J J J J J J J J J J J J J J J J H J H J H J J J J H J H H J J J J J J J H J J J J J J J J J J K K J J J J J J J J J J J J J J J H J H J J = . . ",
". . i i i i i i i i i i i i i i i i i i i i i i i i i i i i i i i i i i i i i i i i i i i i i i i i i i i i i i i i i i i i i i i i i i i i i i i i i i i i i i i i i i i i i i i i i i i i i i i i i i i i i i i i i i i i i i i i i i i i i i i p i i i i i i i i i i i i i i i i i i i i i i i . . ",
". . u u u u p p u u u u u u u u u p u u p p p u u u u p u p u u p p p u p u u u u p p u u u u p u u p u p u u u p p u p p u p p u u u u u p u p u p u u u u p p p u p u u u u p u p p u p p u u p p p p u u p p p p u p p u u p u u p u u u g u u u u u p p u p p u u p u p p u p u p u u p p p p . . ",
". . d d d d d d d d d d f d d d d d d d d d d d f d d d d d d d d d d d d d d d d d d d d d d d f d d d d d d d d d d d d d d d d d d d d d d d d d d d d d f d d d d f d d d d d d d d d d d d d d d d d d d d d d d d d d d d d f d h h d d d d d d d d d d d d d d d d d d d d d d d f d d f d . . ",
". . a a a a a a a a a a a a a a a a a a a a a a a a a a a a a a a a a a a a a a a a a a a a a a a a a a a a a a a a a a a a a a a a a a a a a a a a a a a a a a a a a a a a a a a a a a a a a a a a a a a a a a a a a a a a a a s s a a a a a a a a a a a a a a a a a a a a a a a a a a a a a a a . . ",
". . M M M M M M M M M M M M M M M M M M M M M M M M M M M M M M M M M M M M M M M M M M M M M M M M M M M M M M M M M M M M M M M M M M M M M M M M M M M M M M M M M M M M M M M M M M M M M M M M M M M M M M M M M M M M M M M M M M M M M M M M M M M M M M M M M M M M M M M M M M M M M M M . . ",
". . j j j j j N N j j j j N j N N N N j j N N j j j N j j j N j j j N j j j j j N N j N j j N j j N N j N N j j N N j N j N N j j j j N j j j N N N N j N N N N j j N j j j j N j j j N N j j j j j N j N N j N j j N B j N j j N j j N j j j j N j N j j N j j N N j N N j j j j j j N j j j j j . . ",
". . v l l k k v v v l v v l l v v k x l l l k v l l v l v v l l v v v v l v l l v v l l v l l l v l v l l l v l l l k v k l x k v l l l l v x l v l l v l v l v v v l v l v k l l v l x v v v l v v l k v v l l v v k v v l v x l k k v v v v l l x v l v x l v v v l v l l l l l k l l v v l x x . . ",
". . c c c c c c c c c c c c c c c c c c c c c c c c c c c c c c c c c c c c c c c c c c c c c c c c c c c c c c c c c c c c c c c c c c c c c c c c c c c c c c c c c c c c c c c c c c c c c c c c c c c n n c c c c c c c c c c c c c c c c c c c c c c c c c c c c c c c c c c c c c c c c c c . . ",
". . z z z z z z z z z z z z z z z z z z z z z z z z z z z z z z z z z z z z z z z z z z z z z z z z z z z z z z z z z z z z z z z z z z z z z z z z z z z z z z z z z z z z z z z z z z z z z z z z b  .z z z z z z z z z z z z z z z z z z z z z z z z z z z z z z z z z z z z z z z z z z z z z . . ",
". . ` ` ` ` ' ' ` ` ` ` ` ' ` ' ` ` ` ` ` ` ' ' ' ` ' ` ` ` ` ' ` ' ' ` ` ` ` ` ' ' ` ' ` ` ` ' ' ' ` ' ' ` ` ` ` ` ` ` ` ` ` ` ` ` ` ` ' ' ` ` ' ` ` ' ` ' ' ` ' ` ' ` ` ' ' ' ' ` ' ` ' ` ` ] ] ` ' ` ' ' ` ` ` ' ` ' ' ` ` ' ` ` ` ` ' ` ` ` ` ` ' ' ` ` ' ' ` ` ` ` ` ` ` ` ` ` ' ' ` ` ` ' ' . . ",
". . [ [ [ [ [ [ [ [ [ [ [ [ [ [ [ [ [ [ [ [ [ [ [ [ [ [ [ [ [ [ [ [ [ [ [ [ [ [ [ [ [ [ [ [ [ [ [ [ [ [ [ [ [ [ [ [ [ [ [ [ [ [ [ [ [ [ [ [ [ [ [ [ [ [ [ [ [ [ [ [ [ [ [ [ [ [ [ [ [ [ [ | [ [ [ [ [ [ [ [ [ [ [ [ [ [ [ [ [ [ [ [ [ [ [ [ [ [ [ [ [ [ [ [ [ [ [ [ [ [ [ [ [ [ [ [ [ [ [ [ [ [ [ . . ",
". . { { { { 3 { { { 3 3 3 { { { { { { { 3 { { { { 3 { { { 3 { { { { { 3 { { { 3 { { { { { 3 { { { { 3 3 { { { 3 { { { { 3 { { 3 { { { 3 { { { { { { { 3 { { { { { { { 3 { 3 { { { { { O.{ { { { { { { 3 { 3 { 3 { 3 { 3 3 3 3 { { 3 { 3 3 { { 3 { { { { 3 { { 3 { { { { { { { { { { { { { { { { { . . ",
". . 4 4 4 4 4 4 4 4 4 4 4 4 4 4 4 4 4 4 4 4 4 4 4 4 4 4 4 4 4 4 4 4 4 4 4 4 4 4 4 4 4 4 4 4 4 4 4 4 4 4 4 4 4 4 4 4 4 4 4 4 4 4 4 4 4 4 4 4 4 4 4 4 4 4 4 4 4 4 4 4 4 4 4 4 4 5 4 +.4 4 4 4 4 4 4 4 4 4 4 4 4 4 4 4 4 4 4 4 4 4 4 4 4 4 4 4 4 4 4 4 4 4 4 4 4 4 4 4 4 4 4 4 4 4 4 4 4 4 4 4 4 4 4 . . ",
". . 8 8 8 w 8 8 8 8 8 8 8 8 8 8 8 8 w 8 8 w 8 w 8 8 8 8 8 8 8 8 8 8 8 8 w 8 8 8 8 8 w 8 8 8 8 w 8 8 8 8 8 w 8 8 w 8 8 w 8 8 8 8 8 8 8 8 8 8 8 8 8 8 8 w 8 8 8 8 8 8 8 w 8 8 8 8 8 8 8 w 8 8 8 8 8 8 8 8 8 w 8 w w 8 8 8 8 8 8 8 8 8 8 8 8 8 8 8 8 8 8 8 8 8 8 8 8 8 8 8 8 8 8 8 8 8 8 8 8 8 8 8 8 . . ",
". . q q q 7 q 0 0 q 0 q q 7 7 0 q 0 q q q q q q 7 6 7 q q 0 6 6 q 0 q q 7 0 7 0 q 7 0 7 q 0 7 0 q 0 7 0 q q q q 7 q 7 0 q q q q 0 7 q q q q q q q 7 7 q q 0 q q q 7 9 0 6 q q q q q 7 q q 0 6 q q 6 q q 0 0 6 7 q q 0 q 7 q q q q q 0 7 7 0 q q q q 0 0 q q q q q q 6 q q 6 6 q q q q 7 q 7 q 0 0 . . ",
". . q q q q q q q q q q q q q q q q q q q q q q q q q q q q q q q q q q q q q q q q q q q q q q q q q q q q q q q q q q q q q q q q q q q q q q q q q q q q q r q q q q q q q q q q q q q q q q q q q q q q q q q q q q q q q q q q q q q q q q q q q q q q q q q q q q q q q q q q q q q q q q q . . ",
". . r r r r r r r r r r r r r r r r r r r r r r r r r r r r r r r r r r r r r r r r r r r r r r r r r r r r r r r r r r r r r r r r r r r r r r r r r r r r r r r r r r r r r r r r r r r r r r r r r r r r r r r r r r r r r r r r r r r r r r r r r r r r r r r r r r r r r r r r r r r r r r r . . ",
". . r r r r r r r r r r r r r r r r r r r r r r r r r r r r r r r r r r r r r r r r r r r r r r r r r r r r r r r r r r r r r r r r r r r r r r r t r r r r r r r r r r r r r r r r r r r r r r r r r r r r r r r r r r r r r r r r r r r r r r r r r r r r r r r r r r r r r r r r r r r r r r r . . ",
". . r r r r r r r r r r r r r r r r r r r r r r r r r r r r r r r r r r r r r r r r r r r r r r r r r r r r r r r r r r r r r r r r r r r r r r r r r r r r r r r r r r r r r r r r r r r r r r r r r r r r r r r r r r r r r r r r r r r r r r r r r r r r r r r r r r r r r r r r r r r r r r r . . ",
". . r r r r r r r r r r r r r r r r r r r r r r r r r r r r r r r r r r r r r r r r r r r r r r r r r r r r r r r r r r r r r r r r r y r r r r r r r r r r r r r r r r r r r r r r r r r r r r r r r r r r r r r r r r r r r r r r r r r r r r r r r r r r r r r r r r r r r r r r r r r r r r r . . ",
". . q q q q q e e e q q q q q q q q q q q e e q q e q q q e q q q q q q q q e q q e q q q q e q q q q q q q q q q e e q e e q e y q q e q e e e q q e q q q e e q q e q q q q e q q q q q q q q q q e q e q q e q q q q e q e q q q q q e q q q q q q q q q q q q e q e q e e q e e q q e q q e q . . ",
". . 8 e e 8 w e e 8 e 9 w w e w w e e 9 w w w e w 9 w e e e w e e w 8 w e e w 8 e 8 w w e 9 e e e e 9 e e e w 8 w 8 e 9 8 e e w w w e 8 w e 9 w e w w e w e w e w e w 9 e e e 9 w 8 w 9 w 9 e w e w w e e e w w w e w w 8 e e e e w e e e 8 w e w e 9 w 9 e e e w 9 w w w w w e w w w 8 e e w w e . . ",
". . 8 #.#.5 8 8 5 8 8 5 8 8 8 8 w 8 8 8 w #.8 w 8 8 8 5 8 #.8 8 8 $.8 8 8 8 8 8 8 8 8 8 8 8 8 8 8 8 8 8 8 8 8 5 8 #.8 #.8 8 8 8 #.8 5 8 #.w w 8 8 8 w 8 8 8 8 8 8 w 8 8 8 w 8 8 8 8 8 8 #.8 8 8 8 8 8 8 8 8 w 8 w 8 8 w 5 8 #.w #.#.5 w 8 w 8 8 8 8 8 5 8 8 8 8 w 8 8 w 8 #.w 8 8 #.w #.w 8 #.8 8 . . ",
". . O.O.O.O.O.O.O.O.O.O.O.O.O.O.O.O.O.O.O.O.O.O.O.O.O.O.O.O.O.O.O.O.O.O.O.O.O.O.O.O.O.O.O.O.O.O.O.O.O.O.O.O.O.+.O.O.O.O.O.O.O.O.O.O.O.O.O.O.O.O.O.O.O.O.O.O.O.O.O.O.O.O.O.O.O.O.O.O.O.O.O.O.O.O.O.O.O.O.O.O.O.O.O.O.O.O.O.O.O.O.O.O.O.O.O.O.O.O.O.O.O.O.O.O.O.O.O.O.O.O.O.O.O.O.O.O.O.O.O.O.O.O.O.. . ",
". . | | | | | | | | | | | | | | | | | | | | | | | | | | | | | | | | | | | | | | | | | | | | | | | | | | | @.| | | | | | | | | | | | | | | | | | | | | | | | | | | | | | | | | | | | | | | | | | | | | | | | | | | | | | | | | | | | | | | | | | | | | | | | | | | | | | | | | | | | | | | | | | | . . ",
". . } } o.} } } } } } } } } o.} } } } } } o.} } } o.} } o.} } } } } } } } } } } } } o.} } } o.} o.} o.o.} } } o.o.} } } } o.o.o.} } } o.} } } } } } } } } } } o.o.} } } o.} } } o.} } } } } } } } } } } } } } } } } o.} o.} } } } } } } } o.} } } } } } } } } } } o.} } } o.} } } } } o.} } } } } . . ",
". .  . . ... . . . ..... ..... . . . ........... . . ... . . . . ... . . . . ... ... ..... . .X.X... . ... . . ... ... ... ..... ......... ... . . . . ... ........... . . ... . . ... ..... ....... . . ......... ... . . . . . . ... ..... ... ..... . ... . ..... ....... ... . . ....... ...... . ",
". . m m m m m m m m m m m m m m m m m m m m m m m m m m m m m m m m m m m m m m m m m m m G m m m m m m m m m m m m m m m m m m m m m m m m m m m m m m m m m m m m m m m m m m m m m m m m m m m m m m m m m m m m m m m m m m m m m m m m m m m m m m m m m m m m m m m m m m m m m m m m m m m . . ",
". . S S S S S S S S S S S S S S S S S S S S S S S S S S S S S S S S S S S S S S S F F S S S S S S S S S S S S S S S S S S S S S S S S S S S S S S S S S S S S S S S S S S S S S S S S S S S S S S S S S S S S S S S S S S S S S S S S S S S S S S S S S S S S S S S S S S S S S S S S S S S S S S . . ",
". . V V V V V V V V D V V V D V V V V V V V V V D V D V V V V V V V V D V V V D V V D V D V V V D V V V D D V V D V D V D V V V V V D V V V V V V D V V V V V V V D V D V V V V V V V V V V V D V D V D V D D V V V D V V V V V V V V V V V V V V D V V V V V V V V V V V V V V V V V V D V V V V . . ",
". . A A A A A A A A A A A A A A A A A A A A A A A A A A A A A A A A A A A A A A A A A A A A A A A A A A A A A A A A A A A A A A A A A A A A A A A A A A A A A A A A A A A A A A A A A A A A A A A A A A A A A A A A A A A A A A A A A A A A A A A A A A A A A A A A A A A A A A A A A A A A A A A . . ",
". . C C C C C C C C C C C C C C C C C C C C C C C C C C C C C C C Z Z C C C C C C C C C C C C C C C C C C C C C C C C C C C C C C C C C C C C C C C C C C C C C C C C C C C C C C C C C C C C C C C C C C C C C C C C C C C C C C C C C C C C C C C C C C C C C C C C C C C C C C C C C C C C C C . . ",
". . ( ( ( ( ( ( ( ( ( ( ( ( ( ( ( ( ( ( ( ( ( ( ( ( ( ( ( ( ) ) ( ( ( ( ( ( ( ( ( ( ( ( ( ( ( ( ( ( ( ( ( ( ( ( ( ( ( ( ( ( ( ( ( ( ( ( ( ( ( ( ( ( ( ( ( ( ( ( ( ( ( ( ( ( ( ( ( ( ( ( ( ( ( ( ( ( ( ( ( ( ( ( ( ( ( ( ( ( ( ( ( ( ( ( ( ( ( ( ( ( ( ( ( ( ( ( ( ( ( ( ( ( ( ( ( ( ( ( ( ( ( ( ( . . ",
". . W R ! / ~ E ^ W W / W ! ! W R ! W R R ! ^ / ~ R / ^ _ ^ W ^ Q ^ R R ^ / ^ W W W ! ^ ^ ^ Q ^ ! W / ^ / W ^ ! ^ W W ^ W / ! ! ^ ^ R Q R ! ^ R W Q R R ~ E ! W ^ R ^ Q ! ^ ^ ! R ^ ^ Q ! W W W W ! ^ Q ^ ^ ^ W ! ^ W W ! ! R R ^ W R ! ! E W R R W R Q ! R ^ W ^ E R R W W ! W ~ ~ ^ ^ W W ^ ! W . . ",
". . L L L L L L L L L L L L L L L L L L L L L L L ! L L L L L L L L L L L L L L L L L L L L L L L L L L L L L L L L L L L L L L L L L L L L L L L L L L L L L L L L L L L L L L L L L L L L L L L L L L L L L L L L L L L L L L L L L L L L L L L L L L L L L L L L L L L L L L L L L L L L L L L . . ",
". . - P P P Y Y Y P P Y Y P P P P P P Y Y Y Y T T Y P Y Y Y P Y Y P P Y P Y P P P P P Y P Y P Y P Y Y Y P Y Y Y Y P Y P Y P P Y P P Y Y P P P Y P P Y P P Y P P P Y Y Y Y Y P Y Y P P Y P P Y P P Y Y P P Y Y Y Y Y Y P Y Y Y P Y P P Y P Y P P Y Y Y Y P P Y P Y Y Y P P P Y P Y Y Y Y Y Y P Y - . . ",
". . $ I I I I I I I I I I I I I I I I I I U I I I I I I I I I I I I I I I I I I I I I I I I I I I I I I I I I I I I I I I I I I I I I I I I I I I I I I I I I I I I I I I I I I I I I I I I I I I I I I I I I I I I I I I I I I I I I I I I I I I I I I I I I I I I I I I I I I I I I I I I I I + . . ",
"  . o % * , , , < < , 2 , , < , 1 , , , , , , , 1 , < , , 1 , , , < 2 , < , 1 2 , , < < , , , , 1 , , < , < 2 , 1 < , 1 1 < , < , , , , , , , , 1 1 , , 2 , 1 < , 1 , 1 < , 1 , , < , , , , , < 1 , , 2 , , < < 2 < , 1 2 , , 2 , < < < , 1 , , , 1 , , < , 1 , < 2 , 1 < , , , < , , 1 , , ; % o .   ",
"  . . . . . . . . . . . . . . . . . . . . . . . . . . . . . . . . . . . . . . . . . . . . . . . . . . . . . . . . . . . . . . . . . . . . . . . . . . . . . . . . . . . . . . . . . . . . . . . . . . . . . . . . . . . . . . . . . . . . . . . . . . . . . . . . . . . . . . . . . . . . . . . . .   ",
"      . . . . . . . . . . . . . . . . . . . . . . . . . . . . . . . . . . . . . . . . . . . . . . . . . . . . . . . . . . . . . . . . . . . . . . . . . . . . . . . . . . . . . . . . . . . . . . . . . . . . . . . . . . . . . . . . . . . . . . . . . . . . . . . . . . . . . . . . . . . . .       "
};
